<?xml version="1.0" encoding="UTF-8"?>
<!DOCTYPE svg PUBLIC "-//W3C//DTD SVG 1.1//EN" "http://www.w3.org/Graphics/SVG/1.1/DTD/svg11.dtd">
<!-- Creator: CorelDRAW -->
<svg xmlns="http://www.w3.org/2000/svg" xml:space="preserve" width="6.82666in" height="6.82666in" style="shape-rendering:geometricPrecision; text-rendering:geometricPrecision; image-rendering:optimizeQuality; fill-rule:evenodd; clip-rule:evenodd"
viewBox="0 0 6.82666 6.82666"
 xmlns:xlink="http://www.w3.org/1999/xlink">
 <defs>
  <style type="text/css">
   <![CDATA[
    .fil2 {fill:none}
    .fil1 {fill:#90A4AE}
    .fil0 {fill:#B0BEC5}
    .fil6 {fill:#124D16;fill-rule:nonzero}
    .fil7 {fill:#1B5E20;fill-rule:nonzero}
    .fil3 {fill:#388E3C;fill-rule:nonzero}
    .fil4 {fill:#FFD600;fill-rule:nonzero}
    .fil5 {fill:white;fill-rule:nonzero}
   ]]>
  </style>
   <clipPath id="id0">
    <path d="M3.41333 -3.93701e-006c1.88513,0 3.41333,1.5282 3.41333,3.41333 0,1.88513 -1.5282,3.41333 -3.41333,3.41333 -1.88513,0 -3.41333,-1.5282 -3.41333,-3.41333 0,-1.88513 1.5282,-3.41333 3.41333,-3.41333z"/>
   </clipPath>
 </defs>
 <g id="Layer_x0020_1">
  <metadata id="CorelCorpID_0Corel-Layer"/>
  <path class="fil0" d="M3.41333 -3.93701e-006c1.88513,0 3.41333,1.5282 3.41333,3.41333 0,1.88513 -1.5282,3.41333 -3.41333,3.41333 -1.88513,0 -3.41333,-1.5282 -3.41333,-3.41333 0,-1.88513 1.5282,-3.41333 3.41333,-3.41333z"/>
  <g style="clip-path:url(#id0)">
   <g id="_637652152">
    <g>
     <polygon id="_6559507201" class="fil1" points="3.75619,1.95369 7.54245,5.73996 7.53989,5.73751 7.53725,5.7351 7.53452,5.73272 7.53171,5.73039 7.52881,5.72811 7.52583,5.72587 7.52277,5.72369 7.51963,5.72156 7.51641,5.7195 7.51311,5.7175 7.50974,5.71557 7.50628,5.71371 7.50276,5.71193 7.49916,5.71022 7.49549,5.70859 7.49175,5.70706 3.70548,1.92079 3.70922,1.92232 3.71289,1.92395 3.71649,1.92565 3.72002,1.92744 3.72347,1.9293 3.72684,1.93123 3.73014,1.93323 3.73336,1.93529 3.7365,1.93742 3.73956,1.9396 3.74254,1.94183 3.74544,1.94412 3.74825,1.94645 3.75098,1.94883 3.75363,1.95124 "/>
     <polygon id="_655950264" class="fil1" points="3.70548,1.92079 7.49175,5.70706 7.4879,5.70561 7.48401,5.70425 7.48007,5.70299 7.4761,5.70183 7.47207,5.70077 7.468,5.69981 7.46387,5.69895 7.45969,5.69821 7.45544,5.69758 7.45114,5.69706 7.44678,5.69666 7.44234,5.69637 7.43783,5.69622 7.43326,5.69618 7.4286,5.69627 7.42387,5.6965 3.6376,1.91022 3.64233,1.91 3.64699,1.90991 3.65157,1.90994 3.65607,1.9101 3.66051,1.91039 3.66487,1.91079 3.66918,1.91131 3.67342,1.91194 3.67761,1.91268 3.68173,1.91354 3.68581,1.9145 3.68983,1.91556 3.69381,1.91672 3.69774,1.91798 3.70163,1.91934 "/>
     <polygon id="_655953456" class="fil1" points="3.76106,1.95868 7.54733,5.74495 7.54245,5.73996 3.75619,1.95369 "/>
     <polygon id="_655953744" class="fil1" points="3.86311,2.0648 7.64937,5.85107 7.64896,5.85722 7.64738,5.86298 7.64476,5.86824 7.6412,5.87287 7.63683,5.87673 7.63176,5.87971 7.62612,5.88168 7.62002,5.8825 3.83376,2.09623 3.83985,2.09541 3.8455,2.09344 3.85056,2.09046 3.85493,2.08659 3.85849,2.08197 3.86111,2.07671 3.86269,2.07094 "/>
     <polygon id="_655953864" class="fil1" points="3.6376,1.91022 7.42387,5.6965 7.41963,5.69677 7.41534,5.6972 7.411,5.69778 7.40663,5.69852 7.40224,5.69939 7.39783,5.70041 7.39341,5.70158 7.38899,5.70288 7.38458,5.70432 7.38019,5.7059 7.37584,5.70761 7.37152,5.70945 7.36725,5.71143 7.36304,5.71352 7.3589,5.71575 7.35483,5.71809 3.56856,1.93182 3.57263,1.92948 3.57678,1.92725 3.58098,1.92515 3.58525,1.92318 3.58957,1.92134 3.59393,1.91963 3.59831,1.91805 3.60272,1.91661 3.60714,1.91531 3.61156,1.91414 3.61597,1.91312 3.62037,1.91224 3.62474,1.91151 3.62907,1.91093 3.63337,1.9105 "/>
     <polygon id="_655953840" class="fil1" points="3.83376,2.09623 7.62002,5.8825 7.61387,5.8821 7.6081,5.88052 7.60284,5.8779 7.59822,5.87434 3.81195,2.08807 3.81657,2.09163 3.82183,2.09425 3.82761,2.09583 "/>
     <polygon id="_655953888" class="fil1" points="3.56856,1.93182 7.35483,5.71809 7.35076,5.72054 7.34677,5.72313 7.34286,5.72585 7.33903,5.7287 7.33529,5.73169 7.33163,5.7348 7.32807,5.73802 7.32461,5.74136 7.32124,5.74481 7.31798,5.74837 7.31481,5.75202 7.31176,5.75578 7.30882,5.75962 7.30599,5.76356 7.30328,5.76757 7.30068,5.77167 3.51441,1.9854 3.51701,1.9813 3.51972,1.97728 3.52255,1.97335 3.52549,1.9695 3.52855,1.96575 3.53171,1.96209 3.53497,1.95854 3.53834,1.95509 3.5418,1.95175 3.54537,1.94852 3.54902,1.94542 3.55276,1.94243 3.55659,1.93958 3.5605,1.93685 3.56449,1.93427 "/>
     <polygon id="_655953336" class="fil1" points="3.51441,1.9854 7.30068,5.77167 7.29815,5.77583 7.29578,5.78007 7.29355,5.78439 7.29147,5.78878 7.28954,5.79323 7.28776,5.79774 7.28612,5.80231 7.28463,5.80693 7.28328,5.81159 7.28208,5.81629 7.28101,5.82102 7.28009,5.82578 7.27931,5.83056 7.27867,5.83536 7.27816,5.84017 7.2778,5.84498 3.49153,2.0587 3.49189,2.05389 3.4924,2.04909 3.49304,2.04429 3.49382,2.03951 3.49474,2.03475 3.49581,2.03002 3.49702,2.02532 3.49836,2.02066 3.49985,2.01604 3.50149,2.01147 3.50328,2.00696 3.5052,2.0025 3.50728,1.99812 3.50951,1.9938 3.51189,1.98956 "/>
     <polygon id="_655953648" class="fil1" points="3.49153,2.0587 7.2778,5.84498 7.2776,5.84732 7.27745,5.84979 7.27734,5.85236 7.27727,5.855 7.27722,5.8577 7.27718,5.86043 7.27714,5.86315 7.27709,5.86586 3.49082,2.07959 3.49087,2.07688 3.49091,2.07416 3.49095,2.07143 3.491,2.06873 3.49107,2.06609 3.49118,2.06352 3.49133,2.06105 "/>
     <polygon id="_655954080" class="fil1" points="3.33157,1.92228 7.11783,5.70855 7.12205,5.71315 7.12613,5.71789 7.13006,5.72274 7.13385,5.72771 7.13749,5.7328 7.14098,5.73799 7.1443,5.74328 7.14747,5.74867 3.3612,1.9624 3.35804,1.95701 3.35471,1.95172 3.35122,1.94653 3.34759,1.94144 3.3438,1.93647 3.33986,1.93161 3.33578,1.92688 "/>
     <polygon id="_655954392" class="fil1" points="3.30135,1.95854 7.08761,5.74481 7.08424,5.74136 7.08078,5.73802 7.07722,5.7348 7.07356,5.73169 7.06982,5.7287 7.06599,5.72585 7.06207,5.72313 7.05808,5.72054 7.05401,5.71809 3.26774,1.93182 3.27181,1.93427 3.27581,1.93685 3.27972,1.93958 3.28355,1.94243 3.28729,1.94542 3.29095,1.94852 3.29451,1.95175 3.29798,1.95509 "/>
     <polygon id="_655954104" class="fil1" points="3.26774,1.93182 7.05401,5.71809 7.04994,5.71575 7.0458,5.71352 7.04159,5.71143 7.03733,5.70945 7.03301,5.70761 7.02865,5.7059 7.02427,5.70432 7.01986,5.70288 7.01544,5.70158 7.01102,5.70041 7.00661,5.69939 7.00222,5.69852 6.99785,5.69778 6.99351,5.6972 6.98922,5.69677 6.98499,5.6965 3.19872,1.91022 3.20296,1.9105 3.20724,1.91093 3.21158,1.91151 3.21595,1.91224 3.22034,1.91312 3.22476,1.91414 3.22918,1.91531 3.23359,1.91661 3.238,1.91805 3.24239,1.91963 3.24674,1.92134 3.25106,1.92318 3.25533,1.92515 3.25954,1.92725 3.26368,1.92948 "/>
     <polygon id="_655954128" class="fil1" points="3.13084,1.92079 6.91711,5.70706 6.91337,5.70859 6.90969,5.71022 6.90609,5.71193 6.90257,5.71371 6.89912,5.71557 6.89575,5.7175 6.89245,5.7195 6.88923,5.72156 6.88609,5.72369 6.88303,5.72587 6.88005,5.72811 6.87715,5.73039 6.87434,5.73272 6.87161,5.7351 6.86896,5.73751 6.86641,5.73996 3.08014,1.95369 3.0827,1.95124 3.08534,1.94883 3.08807,1.94645 3.09089,1.94412 3.09378,1.94183 3.09676,1.9396 3.09982,1.93742 3.10296,1.93529 3.10618,1.93323 3.10948,1.93123 3.11285,1.9293 3.1163,1.92744 3.11983,1.92565 3.12343,1.92395 3.1271,1.92232 "/>
     <polygon id="_655953912" class="fil1" points="3.08014,1.95369 6.86641,5.73996 6.86153,5.74495 6.857,5.75003 6.8528,5.75517 6.84891,5.76036 6.84534,5.76556 6.84206,5.77075 6.83906,5.7759 6.83634,5.78099 3.05007,1.99472 3.0528,1.98963 3.05579,1.98448 3.05907,1.97929 3.06265,1.97409 3.06653,1.9689 3.07073,1.96376 3.07526,1.95868 "/>
     <polygon id="_655954056" class="fil1" points="3.05007,1.99472 6.83634,5.78099 6.83393,5.78604 6.83179,5.79099 6.82991,5.79583 6.82826,5.80055 6.82683,5.80513 6.82558,5.80955 6.82451,5.81379 6.82358,5.81784 3.03731,2.03157 3.03824,2.02752 3.03931,2.02328 3.04056,2.01886 3.042,2.01428 3.04364,2.00956 3.04552,2.00472 3.04766,1.99976 "/>
     <polygon id="_655954536" class="fil1" points="3.03731,2.03157 6.82358,5.81784 6.82293,5.82156 6.82235,5.82494 6.82186,5.82807 6.82144,5.83102 6.82111,5.83387 6.82087,5.83669 6.8207,5.83954 6.82063,5.84252 3.03437,2.05624 3.03444,2.05327 3.0346,2.05042 3.03484,2.0476 3.03517,2.04475 3.03559,2.0418 3.03609,2.03867 3.03666,2.03528 "/>
     <polygon id="_655954584" class="fil1" points="5.07818,2.24663 8.86445,6.03291 8.88469,6.05694 8.90408,6.0823 8.92258,6.10892 8.94015,6.13676 8.95676,6.1658 8.97235,6.19599 8.98689,6.22728 9.00035,6.25964 9.01268,6.29302 9.02384,6.32739 9.0338,6.3627 9.0425,6.39892 9.04992,6.436 9.05601,6.4739 9.06074,6.51258 5.27447,2.72631 5.26974,2.68763 5.26365,2.64973 5.25623,2.61265 5.24753,2.57643 5.23757,2.54112 5.22641,2.50675 5.21408,2.47337 5.20063,2.44101 5.18608,2.40972 5.17049,2.37953 5.15389,2.35049 5.13631,2.32265 5.11781,2.29602 5.09842,2.27067 "/>
     <polygon id="_655953960" class="fil1" points="3.3612,1.9624 7.14747,5.74867 7.15052,5.75413 7.15339,5.75968 7.15606,5.76532 7.15853,5.77104 7.16082,5.77684 7.16291,5.7827 7.16482,5.78862 7.16654,5.79459 7.16807,5.8006 7.16942,5.80665 7.17058,5.81272 7.17156,5.81881 7.17236,5.82492 7.17298,5.83103 7.17342,5.83713 7.17368,5.84323 3.38741,2.05696 3.38715,2.05086 3.38671,2.04476 3.38609,2.03865 3.3853,2.03254 3.38431,2.02644 3.38315,2.02037 3.3818,2.01433 3.38027,2.00831 3.37855,2.00235 3.37665,1.99643 3.37455,1.99057 3.37226,1.98477 3.36979,1.97905 3.36712,1.97341 3.36426,1.96785 "/>
     <polygon id="_655954272" class="fil1" points="3.19872,1.91022 6.98499,5.6965 6.98025,5.69627 6.9756,5.69618 6.97102,5.69622 6.96651,5.69637 6.96207,5.69666 6.9577,5.69706 6.9534,5.69758 6.94916,5.69821 6.94498,5.69895 6.94085,5.69981 6.93678,5.70077 6.93275,5.70183 6.92878,5.70299 6.92485,5.70425 6.92096,5.70561 6.91711,5.70706 3.13084,1.92079 3.13469,1.91934 3.13858,1.91798 3.14251,1.91672 3.14648,1.91556 3.15051,1.9145 3.15458,1.91354 3.15871,1.91268 3.16289,1.91194 3.16713,1.91131 3.17144,1.91079 3.17581,1.91039 3.18024,1.9101 3.18475,1.90994 3.18933,1.90991 3.19398,1.91 "/>
     <polygon id="_655954416" class="fil1" points="3.38741,2.05696 7.17368,5.84323 7.17381,5.84634 7.17389,5.84932 7.17391,5.8522 7.1739,5.85499 7.17386,5.85773 7.17381,5.86044 7.17376,5.86314 7.17372,5.86586 3.38746,2.07959 3.3875,2.07687 3.38754,2.07417 3.38759,2.07146 3.38763,2.06872 3.38764,2.06593 3.38762,2.06305 3.38755,2.06007 "/>
     <polygon id="_655955088" class="fil1" points="2.94502,3.06911 6.73128,6.85539 6.70048,6.87967 6.6692,6.9041 6.63752,6.92859 6.60549,6.9531 6.57317,6.97754 6.54063,7.00185 6.50792,7.02598 6.47511,7.04984 6.44225,7.07338 6.40941,7.09653 6.37665,7.11922 6.34403,7.14139 6.31161,7.16296 6.27944,7.18389 6.24761,7.20409 6.21615,7.2235 6.18514,7.24206 6.15463,7.2597 6.12469,7.27635 6.09538,7.29195 6.06675,7.30644 6.03887,7.31973 6.0118,7.33178 5.9856,7.34251 5.96033,7.35186 5.93605,7.35976 5.91282,7.36614 5.89071,7.37094 5.86978,7.37409 5.85007,7.37553 5.83167,7.37519 5.81462,7.37301 2.02835,3.58674 2.0454,3.58892 2.06381,3.58926 2.08351,3.58782 2.10444,3.58467 2.12656,3.57987 2.14978,3.57348 2.17406,3.56559 2.19933,3.55624 2.22553,3.54551 2.2526,3.53346 2.28048,3.52017 2.30911,3.50568 2.33843,3.49008 2.36837,3.47343 2.39887,3.45579 2.42988,3.43723 2.46134,3.41782 2.49318,3.39762 2.52534,3.37669 2.55776,3.35511 2.59038,3.33295 2.62314,3.31026 2.65598,3.28711 2.68884,3.26357 2.72165,3.2397 2.75436,3.21558 2.78691,3.19127 2.81922,3.16683 2.85125,3.14232 2.88294,3.11783 2.91421,3.0934 "/>
     <polygon id="_655955016" class="fil1" points="2.02835,3.58674 5.81462,7.37301 5.78621,7.36657 5.75837,7.35827 5.73113,7.34817 5.70454,7.33631 5.6786,7.32275 5.65335,7.30756 5.62883,7.29077 5.60507,7.27244 5.58209,7.25264 1.79582,3.46637 1.8188,3.48617 1.84257,3.5045 1.86709,3.52128 1.89233,3.53648 1.91827,3.55004 1.94487,3.56189 1.9721,3.572 1.99994,3.5803 "/>
     <polygon id="_655955040" class="fil1" points="3.34271,3.62982 7.12898,7.41609 7.12577,7.45905 7.12241,7.50211 7.11889,7.5452 7.11521,7.58825 7.11137,7.63119 7.10736,7.67397 7.10319,7.71651 7.09885,7.75875 7.09433,7.80063 7.08963,7.84206 7.08475,7.883 7.07968,7.92337 7.07443,7.96311 7.06898,8.00214 7.06334,8.04041 7.0575,8.07785 7.05146,8.11439 7.04522,8.14996 7.03877,8.18451 7.03211,8.21795 7.02523,8.25023 7.01813,8.28128 7.01081,8.31104 7.00327,8.33943 6.9955,8.3664 6.9875,8.39187 6.97926,8.41577 6.97079,8.43805 6.96208,8.45863 6.95312,8.47746 6.94391,8.49446 6.93446,8.50956 3.14819,4.72329 3.15765,4.70819 3.16685,4.69119 3.17581,4.67236 3.18452,4.65178 3.193,4.6295 3.20123,4.60559 3.20923,4.58013 3.217,4.55316 3.22455,4.52477 3.23186,4.49501 3.23896,4.46396 3.24584,4.43168 3.2525,4.39824 3.25895,4.36369 3.2652,4.32812 3.27124,4.29158 3.27707,4.25414 3.28272,4.21587 3.28816,4.17683 3.29341,4.1371 3.29848,4.09673 3.30336,4.05579 3.30806,4.01435 3.31258,3.97248 3.31692,3.93024 3.32109,3.8877 3.3251,3.84492 3.32894,3.80198 3.33262,3.75893 3.33614,3.71584 3.3395,3.67278 "/>
     <polygon id="_655955160" class="fil1" points="3.46076,4.10714 7.24703,7.89341 7.24493,7.91789 7.24275,7.94078 7.2405,7.96209 7.23819,7.98183 7.23581,7.99998 7.23338,8.01656 7.2309,8.03156 7.22837,8.04498 7.2258,8.05682 7.22319,8.06709 7.22056,8.07577 7.21789,8.08287 7.21521,8.0884 7.21251,8.09235 7.2098,8.09472 7.20709,8.09551 7.20438,8.09472 7.20167,8.09235 3.4154,4.30607 3.41811,4.30844 3.42082,4.30924 3.42354,4.30844 3.42624,4.30607 3.42894,4.30213 3.43163,4.2966 3.43429,4.2895 3.43693,4.28081 3.43953,4.27055 3.4421,4.25871 3.44463,4.24529 3.44711,4.23029 3.44955,4.21371 3.45192,4.19556 3.45424,4.17582 3.45648,4.15451 3.45866,4.13161 "/>
     <polygon id="_655955232" class="fil1" points="3.49134,3.72606 7.27761,7.51233 7.27602,7.53229 7.27446,7.55194 7.27293,7.57127 7.27142,7.59025 7.26993,7.60887 7.26848,7.6271 7.26706,7.64492 7.26566,7.66231 7.26431,7.67924 7.26299,7.6957 7.26171,7.71167 7.26047,7.72711 7.25927,7.74201 7.25811,7.75635 7.25701,7.77011 7.25595,7.78326 7.25494,7.79578 7.25398,7.80765 7.25307,7.81885 7.25222,7.82936 7.25143,7.83915 7.2507,7.8482 7.25003,7.8565 7.24942,7.86402 7.24887,7.87073 7.24839,7.87661 7.24798,7.88166 7.24765,7.88583 7.24738,7.88911 7.24719,7.89149 7.24707,7.89293 7.24703,7.89341 3.46076,4.10714 3.4608,4.10666 3.46092,4.10522 3.46111,4.10284 3.46138,4.09956 3.46172,4.09539 3.46213,4.09034 3.46261,4.08446 3.46315,4.07774 3.46376,4.07023 3.46443,4.06193 3.46517,4.05288 3.46596,4.04309 3.46681,4.03258 3.46771,4.02138 3.46867,4.00951 3.46968,3.99699 3.47074,3.98384 3.47185,3.97008 3.473,3.95574 3.4742,3.94084 3.47544,3.9254 3.47672,3.90943 3.47804,3.89297 3.47939,3.87604 3.48079,3.85865 3.48221,3.84083 3.48367,3.8226 3.48515,3.80398 3.48666,3.785 3.4882,3.76567 3.48976,3.74602 "/>
     <polygon id="_655955256" class="fil1" points="3.14819,4.72329 6.93446,8.50956 6.91439,8.53769 6.89353,8.56413 6.87193,8.58886 6.84962,8.61188 6.82667,8.63319 6.80312,8.65279 6.77903,8.67068 6.75443,8.68685 6.72939,8.7013 6.70394,8.71402 6.67815,8.72502 6.65206,8.73429 6.62572,8.74183 6.59918,8.74764 6.57248,8.75171 6.54569,8.75404 6.51885,8.75463 6.492,8.75348 6.4652,8.75057 6.4385,8.74593 6.41195,8.73952 6.3856,8.73136 6.35949,8.72144 6.33368,8.70977 6.30821,8.69633 6.28315,8.68112 6.25852,8.66415 6.23439,8.6454 6.21081,8.62488 2.42454,4.83861 2.44813,4.85913 2.47226,4.87788 2.49688,4.89485 2.52194,4.91006 2.54741,4.9235 2.57322,4.93517 2.59933,4.94509 2.62569,4.95325 2.65224,4.95965 2.67894,4.9643 2.70573,4.9672 2.73258,4.96836 2.75943,4.96777 2.78622,4.96544 2.81291,4.96137 2.83945,4.95556 2.86579,4.94802 2.89189,4.93875 2.91768,4.92775 2.94312,4.91502 2.96816,4.90057 2.99276,4.88441 3.01685,4.86652 3.04041,4.84692 3.06335,4.82561 3.08566,4.80259 3.10726,4.77785 3.12813,4.75142 "/>
     <polygon id="_655954944" class="fil1" points="4.4691,4.76638 8.25537,8.55265 8.23372,8.57851 8.21138,8.60259 8.18839,8.62488 8.16481,8.6454 8.14069,8.66415 8.11606,8.68112 8.09099,8.69633 8.06553,8.70977 8.03972,8.72144 8.01361,8.73136 7.98726,8.73952 7.9607,8.74593 7.934,8.75057 7.9072,8.75348 7.88036,8.75463 7.85352,8.75404 7.82672,8.75171 7.80003,8.74764 7.77349,8.74183 7.74715,8.73429 7.72105,8.72502 7.69526,8.71402 7.66981,8.7013 7.64477,8.68685 7.62018,8.67068 7.59608,8.65279 7.57253,8.63319 7.54957,8.61188 3.76331,4.82561 3.78626,4.84692 3.80981,4.86652 3.83391,4.88441 3.8585,4.90057 3.88355,4.91502 3.90899,4.92775 3.93478,4.93875 3.96088,4.94802 3.98722,4.95556 4.01376,4.96137 4.04045,4.96544 4.06725,4.96777 4.09409,4.96836 4.12094,4.9672 4.14774,4.9643 4.17444,4.95965 4.20099,4.95325 4.22734,4.94509 4.25345,4.93517 4.27926,4.9235 4.30472,4.91006 4.32979,4.89485 4.35442,4.87788 4.37854,4.85913 4.40213,4.83861 4.42511,4.81631 4.44745,4.79224 "/>
     <polygon id="_655955376" class="fil1" points="3.35559,2.62639 7.14186,6.41266 7.13468,6.4082 7.12782,6.4033 7.1213,6.39797 7.11515,6.39225 3.32888,2.60598 3.33504,2.6117 3.34156,2.61702 3.34841,2.62193 "/>
     <polygon id="_655955112" class="fil1" points="4.50076,3.6899 8.28703,7.47617 8.30602,7.50565 8.3237,7.53607 8.34007,7.56737 8.35515,7.59948 8.36891,7.63233 8.38138,7.66586 8.39255,7.69999 8.40242,7.73466 8.411,7.76981 8.41828,7.80535 8.42427,7.84124 8.42898,7.87739 8.43239,7.91374 8.43452,7.95023 8.43537,7.98678 8.43494,8.02333 8.43322,8.05981 8.43023,8.09615 8.42597,8.13229 8.42043,8.16816 8.41362,8.20369 8.40554,8.2388 8.39619,8.27344 8.38558,8.30754 8.3737,8.34103 8.36057,8.37384 8.34617,8.4059 8.33052,8.43715 8.31361,8.46752 8.29545,8.49693 8.27604,8.52533 8.25537,8.55265 4.4691,4.76638 4.48977,4.73906 4.50918,4.71066 4.52734,4.68124 4.54425,4.65088 4.55991,4.61963 4.5743,4.58757 4.58744,4.55476 4.59931,4.52127 4.60993,4.48717 4.61927,4.45253 4.62735,4.41741 4.63416,4.38189 4.6397,4.34602 4.64396,4.30988 4.64695,4.27354 4.64867,4.23706 4.6491,4.20051 4.64825,4.16396 4.64612,4.12747 4.64271,4.09112 4.638,4.05496 4.63201,4.01908 4.62473,3.98354 4.61615,3.94839 4.60628,3.91372 4.59511,3.87959 4.58265,3.84606 4.56888,3.81321 4.55381,3.7811 4.53743,3.7498 4.51975,3.71937 "/>
     <polygon id="_655955208" class="fil1" points="3.49082,2.07959 7.27709,5.86586 7.27675,5.88741 3.49048,2.10114 "/>
     <polygon id="_655955520" class="fil1" points="3.38643,2.14343 7.17269,5.9297 7.17026,6.08148 3.38399,2.29521 "/>
     <polygon id="_655956000" class="fil1" points="3.38399,2.29521 7.17026,6.08148 7.16876,6.17452 3.38249,2.38824 "/>
     <polygon id="_655955544" class="fil1" points="3.03437,2.05624 6.82063,5.84252 6.82028,5.85316 3.03401,2.06689 "/>
     <polygon id="_655955952" class="fil1" points="3.03401,2.06689 6.82028,5.85316 6.81945,5.85926 6.81748,5.8649 6.8145,5.86997 6.81063,5.87434 6.80601,5.8779 6.80075,5.88052 6.79498,5.8821 6.78884,5.8825 3.00257,2.09623 3.00872,2.09583 3.01448,2.09425 3.01974,2.09163 3.02437,2.08807 3.02823,2.0837 3.03121,2.07863 3.03318,2.07299 "/>
     <polygon id="_655955592" class="fil1" points="3.00257,2.09623 6.78884,5.8825 6.78273,5.88168 6.77709,5.87971 6.77202,5.87673 6.76765,5.87287 2.98138,2.08659 2.98576,2.09046 2.99082,2.09344 2.99646,2.09541 "/>
     <polygon id="_655955616" class="fil1" points="3.55147,2.51317 7.33774,6.29944 7.33743,6.30844 7.33653,6.31727 7.33505,6.32592 7.33302,6.33437 7.33044,6.34259 7.32735,6.35058 7.32376,6.3583 7.31969,6.36573 7.31517,6.37286 7.3102,6.37967 7.30482,6.38614 7.29904,6.39225 7.29288,6.39797 7.28636,6.4033 7.2795,6.4082 7.27233,6.41266 3.48606,2.62639 3.49324,2.62193 3.50009,2.61702 3.50661,2.6117 3.51278,2.60598 3.51856,2.59987 3.52394,2.5934 3.5289,2.58659 3.53343,2.57946 3.53749,2.57202 3.54108,2.56431 3.54417,2.55632 3.54675,2.5481 3.54878,2.53965 3.55026,2.531 3.55117,2.52217 "/>
     <polygon id="_655955640" class="fil1" points="3.49662,2.63613 7.28289,6.4224 7.28626,6.42595 7.28956,6.42966 7.29279,6.43351 7.29594,6.4375 7.299,6.44164 3.51274,2.65537 3.50967,2.65123 3.50652,2.64724 3.5033,2.64339 3.5,2.63968 "/>
     <polygon id="_655955736" class="fil1" points="3.38746,2.07959 7.17372,5.86586 7.17339,5.88741 3.38712,2.10114 "/>
     <polygon id="_655955760" class="fil1" points="3.38712,2.10114 7.17339,5.88741 7.17269,5.9297 3.38643,2.14343 "/>
     <polygon id="_655956024" class="fil1" points="3.49048,2.10114 7.27675,5.88741 7.27605,5.9297 3.48978,2.14343 "/>
     <polygon id="_655955448" class="fil1" points="3.48978,2.14343 7.27605,5.9297 7.27362,6.08148 3.48735,2.29521 "/>
     <polygon id="_655956960" class="fil1" points="3.48735,2.29521 7.27362,6.08148 7.27193,6.186 3.48567,2.39973 "/>
     <polygon id="_655956624" class="fil1" points="3.51835,2.42624 7.30461,6.21251 7.31003,6.21899 7.31502,6.22581 7.31958,6.23296 7.32367,6.24041 7.32728,6.24815 7.33039,6.25615 7.33298,6.2644 7.33503,6.27287 7.33652,6.28155 7.33743,6.29041 7.33774,6.29944 3.55147,2.51317 3.55116,2.50414 3.55025,2.49528 3.54876,2.4866 3.54672,2.47813 3.54413,2.46988 3.54102,2.46187 3.5374,2.45414 3.53331,2.44669 3.52876,2.43954 3.52376,2.43272 "/>
     <polygon id="_655956336" class="fil1" points="3.80785,1.92617 7.59412,5.71244 7.59717,5.71585 7.6001,5.71929 7.60293,5.72274 7.60566,5.72622 7.60828,5.7297 7.6108,5.73319 7.61322,5.73669 7.61554,5.74018 7.61776,5.74367 7.61989,5.74715 7.62192,5.75061 7.62386,5.75405 3.83759,1.96778 3.83565,1.96433 3.83362,1.96087 3.8315,1.9574 3.82927,1.95391 3.82695,1.95042 3.82453,1.94692 3.82201,1.94343 3.81939,1.93994 3.81667,1.93647 3.81383,1.93302 3.8109,1.92958 "/>
     <polygon id="_655956408" class="fil1" points="4.79832,3.58674 8.58459,7.37301 8.56754,7.37519 8.54913,7.37553 8.52943,7.37409 8.5085,7.37094 8.48639,7.36614 8.46316,7.35976 8.43888,7.35186 8.41361,7.34251 8.38741,7.33178 8.36034,7.31974 8.33246,7.30644 8.30383,7.29196 8.27452,7.27636 8.24458,7.2597 8.21407,7.24207 8.18306,7.22351 8.1516,7.20409 8.11977,7.18389 8.08761,7.16297 8.05519,7.14139 8.02256,7.11923 7.9898,7.09654 7.95696,7.07339 7.92411,7.04985 7.8913,7.02599 7.85859,7.00187 7.82604,6.97755 7.79372,6.95311 7.76169,6.92861 7.73001,6.90411 7.69873,6.87969 7.66793,6.8554 3.88166,3.06913 3.91246,3.09341 3.94374,3.11784 3.97543,3.14233 4.00746,3.16684 4.03977,3.19128 4.07232,3.21559 4.10503,3.23972 4.13784,3.26358 4.1707,3.28712 4.20354,3.31027 4.2363,3.33296 4.26892,3.35512 4.30134,3.3767 4.3335,3.39762 4.36533,3.41782 4.39679,3.43724 4.4278,3.4558 4.45831,3.47343 4.48825,3.49009 4.51757,3.50569 4.54619,3.52017 4.57407,3.53346 4.60114,3.54551 4.62734,3.55624 4.65261,3.56559 4.67689,3.57348 4.70012,3.57987 4.72223,3.58467 4.74317,3.58782 4.76287,3.58926 4.78128,3.58892 "/>
     <polygon id="_655956816" class="fil1" points="4.34048,3.49965 8.12675,7.28592 8.14491,7.30514 8.16245,7.32405 8.17935,7.34263 8.19557,7.36085 8.21107,7.37868 8.22581,7.3961 8.23978,7.41309 8.25291,7.42961 8.26519,7.44565 8.27657,7.46118 8.28703,7.47617 4.50076,3.6899 4.49031,3.67491 4.47893,3.65938 4.46665,3.64334 4.45351,3.62682 4.43955,3.60983 4.4248,3.59241 4.4093,3.57457 4.39308,3.55636 4.37618,3.53778 4.35864,3.51887 "/>
     <polygon id="_655956696" class="fil1" points="3.83759,1.96778 7.62386,5.75405 7.62569,5.7575 7.62743,5.76092 7.62907,5.76431 7.63062,5.76768 7.63208,5.77101 7.63346,5.7743 7.63475,5.77756 7.63597,5.78078 7.63711,5.78395 7.63818,5.78707 7.63918,5.79015 7.64012,5.79317 7.641,5.79613 7.64181,5.79904 7.64258,5.80188 7.64329,5.80465 3.85702,2.01838 3.85631,2.01561 3.85555,2.01276 3.85473,2.00986 3.85385,2.00689 3.85291,2.00387 3.85191,2.0008 3.85084,1.99768 3.8497,1.9945 3.84848,1.99129 3.84719,1.98803 3.84581,1.98474 3.84435,1.98141 3.8428,1.97804 3.84116,1.97465 3.83943,1.97122 "/>
     <polygon id="_655956384" class="fil1" points="3.85702,2.01838 7.64329,5.80465 7.64451,5.8102 7.64557,5.81558 7.64646,5.82071 7.6472,5.8255 7.64778,5.82986 7.64821,5.8337 7.64848,5.83693 7.64861,5.83946 3.86234,2.05319 3.86221,2.05066 3.86194,2.04743 3.86151,2.04359 3.86093,2.03923 3.86019,2.03444 3.8593,2.02931 3.85824,2.02393 "/>
     <polygon id="_655956912" class="fil1" points="3.86234,2.05319 7.64861,5.83946 7.64931,5.85008 3.86304,2.06381 "/>
     <polygon id="_655956456" class="fil1" points="3.86304,2.06381 7.64931,5.85008 7.64937,5.85107 3.86311,2.0648 "/>
     <polygon id="_655956576" class="fil1" points="5.27447,2.72631 9.06074,6.51258 9.06403,6.55154 9.06585,6.59026 9.06623,6.62869 9.06519,6.66677 9.06278,6.70445 9.05901,6.74168 9.05392,6.7784 9.04754,6.81455 9.03989,6.85009 9.03102,6.88496 9.02094,6.91911 9.00969,6.95247 8.9973,6.985 8.98379,7.01665 8.9692,7.04735 8.95356,7.07707 8.9369,7.10573 8.91924,7.13329 8.90063,7.15969 8.88107,7.18488 8.86062,7.2088 8.8393,7.23141 8.81713,7.25264 8.79414,7.27244 8.77037,7.29077 8.74585,7.30756 8.72061,7.32275 8.69467,7.33631 8.66807,7.34817 8.64084,7.35827 8.613,7.36657 8.58459,7.37301 4.79832,3.58674 4.82674,3.5803 4.85457,3.572 4.88181,3.56189 4.90841,3.55004 4.93434,3.53648 4.95959,3.52128 4.98411,3.5045 5.00787,3.48617 5.03086,3.46637 5.05303,3.44513 5.07435,3.42253 5.09481,3.39861 5.11436,3.37341 5.13298,3.34702 5.15063,3.31946 5.1673,3.2908 5.18294,3.26108 5.19752,3.23038 5.21103,3.19873 5.22342,3.1662 5.23467,3.13283 5.24475,3.09869 5.25363,3.06382 5.26127,3.02828 5.26765,2.99213 5.27274,2.95541 5.27651,2.91818 5.27893,2.8805 5.27996,2.84242 5.27958,2.80399 5.27776,2.76527 "/>
    </g>
    <path id="_637652224" class="fil1" d="M3.86311 2.0648c0.000559055,0.0167756 -0.0125787,0.0308543 -0.0293504,0.0314291 -0.0167992,0.00057874 -0.030874,-0.0125669 -0.0314488,-0.0293465l-0.000350394 -0.0106417c-7.87402e-005,-0.00814173 -0.00111024,-0.0142756 -0.00295276,-0.0246732 -0.00229528,-0.0105354 -0.00593701,-0.0232874 -0.0127598,-0.0368543 -0.00690551,-0.0134567 -0.0165906,-0.027874 -0.0300591,-0.0410276 -0.0134055,-0.0131496 -0.030563,-0.0249409 -0.0507008,-0.0329016 -0.0204449,-0.00797244 -0.0424291,-0.0121024 -0.0678819,-0.010563 -0.0224409,0.00106693 -0.0475669,0.00875984 -0.0690394,0.0215984 -0.0219055,0.0126614 -0.0406417,0.0315197 -0.0541496,0.0535787 -0.0138819,0.0219449 -0.0212913,0.0476417 -0.0228858,0.0733031 -0.000606299,0.00605118 -0.000559055,0.0137283 -0.000704724,0.0208819l-0.00034252 0.0215551 -0.00069685 0.0422874 -0.00243307 0.151783 -0.00168504 0.104516c0.039315,0.0225197 0.0658031,0.0648858 0.0658031,0.113437 0,0.0483976 -0.026311,0.0906457 -0.0654094,0.11322 0.00965748,0.00802362 0.0186102,0.0177756 0.0266772,0.0289803 0.217953,-0.133827 0.876201,-0.528827 1.12981,-0.577374 0.305984,-0.0585787 0.588933,0.231689 0.631925,0.648319 0.0430512,0.41663 -0.170138,0.80185 -0.47615,0.860425 -0.174402,0.0333898 -0.590795,-0.25952 -0.916661,-0.51761 0.241374,0.210957 0.512697,0.463831 0.619098,0.620772 0.209559,0.309146 0.195413,0.791126 -0.0316575,1.07648 -0.227035,0.285327 -0.581031,0.266075 -0.790634,-0.0430945 -0.0950787,-0.140236 -0.15263,-0.569752 -0.18713,-0.997224 -0.0169843,0.214358 -0.0305787,0.381079 -0.0305787,0.381079 -0.0219685,0.269457 -0.0579055,0.269457 -0.079874,0 0,0 -0.0178386,-0.218776 -0.0381732,-0.477323 -0.0334606,0.457508 -0.0922992,0.942693 -0.194524,1.09347 -0.209587,0.309169 -0.563579,0.328421 -0.790626,0.0430945 -0.227055,-0.285358 -0.241209,-0.767339 -0.0316535,-1.07648 0.106406,-0.156945 0.377732,-0.409827 0.619106,-0.620783 -0.325866,0.258091 -0.742264,0.551012 -0.916665,0.517622 -0.306008,-0.0585748 -0.519201,-0.443795 -0.476161,-0.860425 0.0430039,-0.41663 0.325957,-0.706898 0.631945,-0.648319 0.257827,0.0493583 0.933917,0.456827 1.14032,0.58385 0.0091811,-0.0139528 0.0196575,-0.0259213 0.0311339,-0.0354567 -0.0390945,-0.0225787 -0.0654055,-0.0648268 -0.0654055,-0.11322 0,-0.0463465 0.0241378,-0.0870591 0.0605236,-0.110248l-0.00173622 -0.107705 -0.00245276 -0.151783 -0.000677165 -0.0422874 -0.000354331 -0.0215551c-0.000145669,-0.00715354 -9.05512e-005,-0.0148307 -0.000708661,-0.0208819 -0.00159055,-0.0256614 -0.00900787,-0.0513583 -0.0228701,-0.0733031 -0.0135079,-0.0220591 -0.0322559,-0.0409173 -0.0541693,-0.0535787 -0.0214528,-0.0128386 -0.0465945,-0.0205315 -0.0690197,-0.0215984 -0.0254685,-0.00153937 -0.0474449,0.00259055 -0.0678819,0.010563 -0.0201457,0.00796063 -0.0372913,0.019752 -0.0507008,0.0329016 -0.0134685,0.0131535 -0.0231575,0.0275709 -0.0300669,0.0410276 -0.00681496,0.0135669 -0.0104685,0.0263189 -0.0127559,0.0368543 -0.00184646,0.0103976 -0.00287795,0.0165315 -0.00294882,0.0246732l-0.000358268 0.0106417c-0.000574803,0.0167795 -0.0146535,0.0299252 -0.031437,0.0293465 -0.0167874,-0.000574803 -0.0299291,-0.0146535 -0.0293543,-0.0314291l5.11811e-005 -0.000992126 0.000708661 -0.010622c0.000133858,-0.00573622 0.00184646,-0.0198858 0.0053189,-0.0348071 0.00364961,-0.0146299 0.0093937,-0.0321732 0.0194213,-0.0506024 0.0101063,-0.0183031 0.0241102,-0.0376181 0.0430433,-0.0549173 0.0188504,-0.0173031 0.0426457,-0.0325157 0.0702087,-0.042378 0.0271496,-0.00993701 0.0594291,-0.0141929 0.0893425,-0.0113386 0.0330276,0.00273622 0.0638465,0.0138031 0.0919409,0.0315748 0.0280236,0.0175591 0.0515,0.0427008 0.0679488,0.0716772 0.0168228,0.0288346 0.0252953,0.0620906 0.0262126,0.0945591 0.000444882,0.00848819 0.00011811,0.0153346 4.33071e-005,0.0226299l-0.000338583 0.0215551 -0.000692913 0.0422874 -0.00243701 0.151783 -0.0015 0.0930315c0.012122,-0.00371654 0.0249961,-0.00571654 0.0383346,-0.00571654 0.0113937,0 0.0224488,0.00145669 0.0329843,0.00420079l-0.00147638 -0.0915157 -0.00243701 -0.151783 -0.000692913 -0.0422874 -0.000338583 -0.0215551c-9.05512e-005,-0.00729528 -0.000413386,-0.0141417 3.14961e-005,-0.0226299 0.000913386,-0.0324685 0.00940157,-0.0657244 0.0262165,-0.0945591 0.0164606,-0.0289764 0.0399252,-0.0541181 0.0679409,-0.0716772 0.0281142,-0.0177717 0.0589213,-0.0288386 0.0919528,-0.0315748 0.0299094,-0.00285433 0.062185,0.00140157 0.0893504,0.0113386 0.0275472,0.0098622 0.0513504,0.0250748 0.0702008,0.042378 0.0189449,0.0172992 0.032937,0.0366142 0.0430394,0.0549173 0.0100394,0.0184291 0.0157638,0.0359724 0.0194291,0.0506024 0.0034685,0.0149213 0.0051811,0.0290709 0.00531496,0.0348071l0.000704724 0.010622 6.29921e-005 0.000992126z"/>
   </g>
  </g>
  <path class="fil2" d="M3.41333 -3.93701e-006c1.88513,0 3.41333,1.5282 3.41333,3.41333 0,1.88513 -1.5282,3.41333 -3.41333,3.41333 -1.88513,0 -3.41333,-1.5282 -3.41333,-3.41333 0,-1.88513 1.5282,-3.41333 3.41333,-3.41333z"/>
  <path class="fil3" d="M1.55219 2.72631c-0.0430394,0.41663 0.170154,0.80185 0.476161,0.860425 0.305976,0.0585787 1.35682,-0.887228 1.35682,-0.887228 0,0 -0.895059,-0.562941 -1.20104,-0.621516 -0.305988,-0.0585787 -0.588941,0.231689 -0.631945,0.648319z"/>
  <path class="fil3" d="M2.35756 4.76638c0.227047,0.285327 0.581039,0.266075 0.790626,-0.0430945 0.209583,-0.309126 0.236803,-2.02391 0.236803,-2.02391 0,0 -0.849492,0.681374 -1.05908,0.99052 -0.209555,0.309146 -0.195402,0.791126 0.0316535,1.07648z"/>
  <path class="fil4" d="M2.55427 4.47169c0.18226,0.229035 0.466402,0.213579 0.634646,-0.0346142 0.16822,-0.248134 0.190079,-1.62462 0.190079,-1.62462 0,0 -0.681886,0.546972 -0.85015,0.79513 -0.16822,0.248126 -0.15685,0.635043 0.0254252,0.864106z"/>
  <path class="fil4" d="M1.8582 2.74387c-0.032811,0.317917 0.129862,0.611882 0.36335,0.656575 0.233488,0.044685 1.03537,-0.677028 1.03537,-0.677028 0,0 -0.683008,-0.429575 -0.916476,-0.474252 -0.233508,-0.0447047 -0.449406,0.176795 -0.48224,0.494705z"/>
  <path class="fil5" d="M1.90553 3.39759c0,0.020626 0.0122795,0.0373425 0.0274134,0.0373425 0.0151378,0 0.0274173,-0.0167165 0.0274173,-0.0373425 0,-0.0206181 -0.0122795,-0.0373386 -0.0274173,-0.0373386 -0.0151339,0 -0.0274134,0.0167205 -0.0274134,0.0373386z"/>
  <path class="fil5" d="M1.75326 3.24822c0,0.0329961 0.0196535,0.0597441 0.0438858,0.0597441 0.0242362,0 0.0438937,-0.026748 0.0438937,-0.0597441 0,-0.0329961 -0.0196575,-0.0597402 -0.0438937,-0.0597402 -0.0242323,0 -0.0438858,0.0267441 -0.0438858,0.0597402z"/>
  <path class="fil5" d="M1.63673 2.97571c0,0.045374 0.0270197,0.0821496 0.0603465,0.0821496 0.0333307,0 0.0603425,-0.0367756 0.0603425,-0.0821496 0,-0.0453661 -0.0270118,-0.0821417 -0.0603425,-0.0821417 -0.0333268,0 -0.0603465,0.0367756 -0.0603465,0.0821417z"/>
  <path class="fil5" d="M1.63257 2.65274c0,0.041248 0.0245787,0.074685 0.0548622,0.074685 0.0302992,0 0.0548622,-0.033437 0.0548622,-0.074685 0,-0.0412362 -0.024563,-0.074689 -0.0548622,-0.074689 -0.0302835,0 -0.0548622,0.0334528 -0.0548622,0.074689z"/>
  <path class="fil5" d="M1.7162 2.39135c0,0.0371181 0.0221024,0.0672205 0.0493701,0.0672205 0.0272677,0 0.049374,-0.0301024 0.049374,-0.0672205 0,-0.0371181 -0.0221063,-0.0672205 -0.049374,-0.0672205 -0.0272677,0 -0.0493701,0.0301024 -0.0493701,0.0672205z"/>
  <path class="fil5" d="M1.9082 2.19152c0,0.020626 0.0122717,0.0373346 0.0274134,0.0373346 0.0151378,0 0.0274173,-0.0167087 0.0274173,-0.0373346 0,-0.020626 -0.0122795,-0.0373386 -0.0274173,-0.0373386 -0.0151417,0 -0.0274134,0.0167126 -0.0274134,0.0373386z"/>
  <path class="fil5" d="M2.90652 4.75322c0,0.0329843 0.0196496,0.0597598 0.0438819,0.0597598 0.024252,0 0.0438898,-0.0267756 0.0438898,-0.0597598 0,-0.0330079 -0.0196378,-0.0597677 -0.0438898,-0.0597677 -0.0242323,0 -0.0438819,0.0267598 -0.0438819,0.0597677z"/>
  <path class="fil5" d="M2.66518 4.78311c0,0.0494843 0.0294764,0.0896102 0.0658268,0.0896102 0.0363425,0 0.0658228,-0.040126 0.0658228,-0.0896102 0,-0.0494921 -0.0294803,-0.0896378 -0.0658228,-0.0896378 -0.0363504,0 -0.0658268,0.0401457 -0.0658268,0.0896378z"/>
  <path class="fil5" d="M2.40188 4.63373c0,0.0659921 0.0392953,0.119488 0.0877638,0.119488 0.0484685,0 0.0877559,-0.0534961 0.0877559,-0.119488 0,-0.0659921 -0.0392874,-0.119504 -0.0877559,-0.119504 -0.0484685,0 -0.0877638,0.0535118 -0.0877638,0.119504z"/>
  <path class="fil5" d="M2.25377 4.31259c0,0.0536102 0.0319213,0.0970906 0.071311,0.0970906 0.0393819,0 0.0713031,-0.0434803 0.0713031,-0.0970906 0,-0.0536102 -0.0319213,-0.0970945 -0.0713031,-0.0970945 -0.0393898,0 -0.071311,0.0434843 -0.071311,0.0970945z"/>
  <path class="fil5" d="M2.27021 3.96156c0,0.033 0.0196614,0.0597598 0.0438937,0.0597598 0.0242362,0 0.0438858,-0.0267598 0.0438858,-0.0597598 0,-0.0329921 -0.0196496,-0.0597441 -0.0438858,-0.0597441 -0.0242323,0 -0.0438937,0.026752 -0.0438937,0.0597441z"/>
  <path class="fil3" d="M5.27447 2.72631c0.0430512,0.41663 -0.170138,0.80185 -0.47615,0.860425 -0.30598,0.0585787 -1.35684,-0.887228 -1.35684,-0.887228 0,0 0.895071,-0.562941 1.20107,-0.621516 0.305984,-0.0585787 0.588933,0.231689 0.631925,0.648319z"/>
  <path class="fil3" d="M4.4691 4.76638c-0.227035,0.285327 -0.581031,0.266075 -0.790634,-0.0430945 -0.209587,-0.309126 -0.236811,-2.02391 -0.236811,-2.02391 0,0 0.849512,0.681374 1.0591,0.99052 0.209559,0.309146 0.195413,0.791126 -0.0316575,1.07648z"/>
  <path class="fil4" d="M4.2724 4.47169c-0.182256,0.229035 -0.466402,0.213579 -0.634654,-0.0346142 -0.168217,-0.248134 -0.190067,-1.62462 -0.190067,-1.62462 0,0 0.681882,0.546972 0.850146,0.79513 0.16822,0.248126 0.156854,0.635043 -0.0254252,0.864106z"/>
  <path class="fil4" d="M4.96848 2.74387c0.0328031,0.317917 -0.129862,0.611882 -0.363343,0.656575 -0.2335,0.044685 -1.03539,-0.677028 -1.03539,-0.677028 0,0 0.68302,-0.429575 0.916484,-0.474252 0.2335,-0.0447047 0.449413,0.176795 0.482244,0.494705z"/>
  <path class="fil5" d="M4.92114 3.39759c0,0.020626 -0.0122835,0.0373425 -0.0274016,0.0373425 -0.0151457,0 -0.0274291,-0.0167165 -0.0274291,-0.0373425 0,-0.0206181 0.0122835,-0.0373386 0.0274291,-0.0373386 0.0151181,0 0.0274016,0.0167205 0.0274016,0.0373386z"/>
  <path class="fil5" d="M5.07342 3.24822c0,0.0329961 -0.0196654,0.0597441 -0.0439055,0.0597441 -0.0242165,0 -0.043878,-0.026748 -0.043878,-0.0597441 0,-0.0329961 0.0196614,-0.0597402 0.043878,-0.0597402 0.0242402,0 0.0439055,0.0267441 0.0439055,0.0597402z"/>
  <path class="fil5" d="M5.18994 2.97571c0,0.045374 -0.0270197,0.0821496 -0.0603583,0.0821496 -0.0333071,0 -0.0603228,-0.0367756 -0.0603228,-0.0821496 0,-0.0453661 0.0270157,-0.0821417 0.0603228,-0.0821417 0.0333386,0 0.0603583,0.0367756 0.0603583,0.0821417z"/>
  <path class="fil5" d="M5.1941 2.65274c0,0.041248 -0.0245669,0.074685 -0.0548661,0.074685 -0.0302913,0 -0.0548583,-0.033437 -0.0548583,-0.074685 0,-0.0412362 0.0245669,-0.074689 0.0548583,-0.074689 0.0302992,0 0.0548661,0.0334528 0.0548661,0.074689z"/>
  <path class="fil5" d="M5.11047 2.39135c0,0.0371181 -0.0221142,0.0672205 -0.0493661,0.0672205 -0.0272874,0 -0.0493701,-0.0301024 -0.0493701,-0.0672205 0,-0.0371181 0.0220827,-0.0672205 0.0493701,-0.0672205 0.027252,0 0.0493661,0.0301024 0.0493661,0.0672205z"/>
  <path class="fil5" d="M4.91847 2.19152c0,0.020626 -0.0122677,0.0373346 -0.0274173,0.0373346 -0.0151339,0 -0.0274173,-0.0167087 -0.0274173,-0.0373346 0,-0.020626 0.0122835,-0.0373386 0.0274173,-0.0373386 0.0151496,0 0.0274173,0.0167126 0.0274173,0.0373386z"/>
  <path class="fil5" d="M3.92015 4.75322c0,0.0329843 -0.0196535,0.0597598 -0.043878,0.0597598 -0.0242559,0 -0.0438937,-0.0267756 -0.0438937,-0.0597598 0,-0.0330079 0.0196378,-0.0597677 0.0438937,-0.0597677 0.0242244,0 0.043878,0.0267598 0.043878,0.0597677z"/>
  <path class="fil5" d="M4.1615 4.78311c0,0.0494843 -0.0294843,0.0896102 -0.0658346,0.0896102 -0.0363504,0 -0.065815,-0.040126 -0.065815,-0.0896102 0,-0.0494921 0.0294646,-0.0896378 0.065815,-0.0896378 0.0363504,0 0.0658346,0.0401457 0.0658346,0.0896378z"/>
  <path class="fil5" d="M4.4248 4.63373c0,0.0659921 -0.0392913,0.119488 -0.0877717,0.119488 -0.0484567,0 -0.0877598,-0.0534961 -0.0877598,-0.119488 0,-0.0659921 0.0393031,-0.119504 0.0877598,-0.119504 0.0484803,0 0.0877717,0.0535118 0.0877717,0.119504z"/>
  <path class="fil5" d="M4.57289 4.31259c0,0.0536102 -0.0319173,0.0970906 -0.0713031,0.0970906 -0.0393819,0 -0.0712992,-0.0434803 -0.0712992,-0.0970906 0,-0.0536102 0.0319173,-0.0970945 0.0712992,-0.0970945 0.0393858,0 0.0713031,0.0434843 0.0713031,0.0970945z"/>
  <path class="fil5" d="M4.55646 3.96156c0,0.033 -0.0196496,0.0597598 -0.0438898,0.0597598 -0.0242441,0 -0.0438819,-0.0267598 -0.0438819,-0.0597598 0,-0.0329921 0.0196378,-0.0597441 0.0438819,-0.0597441 0.0242402,0 0.0438898,0.026752 0.0438898,0.0597441z"/>
  <path class="fil6" d="M2.97327 2.06381c0,0 0.000251969,-0.00369685 0.000708661,-0.010622 0.000133858,-0.00573622 0.00184646,-0.0198858 0.0053189,-0.0348071 0.00364961,-0.0146299 0.0093937,-0.0321732 0.0194213,-0.0506024 0.0101063,-0.0183031 0.0241102,-0.0376181 0.0430433,-0.0549173 0.0188504,-0.0173031 0.0426457,-0.0325157 0.0702087,-0.042378 0.0271496,-0.00993701 0.0594291,-0.0141929 0.0893425,-0.0113386 0.0330276,0.00273622 0.0638465,0.0138031 0.0919409,0.0315748 0.0280236,0.0175591 0.0515,0.0427008 0.0679488,0.0716772 0.0168228,0.0288346 0.0252953,0.0620906 0.0262126,0.0945591 0.000444882,0.00848819 0.00011811,0.0153346 4.33071e-005,0.0226299 -0.00011811,0.00722441 -0.00023622,0.0144094 -0.000338583,0.0215551 -0.00023622,0.0142913 -0.000472441,0.0284055 -0.000692913,0.0422874 -0.000901575,0.0555276 -0.00172835,0.107358 -0.00243701,0.151783 -0.00144882,0.0888583 -0.00238976,0.148091 -0.00238976,0.148091 -0.000149606,0.00834646 -0.00702756,0.0150079 -0.0153701,0.014874 -0.00817323,-0.000129921 -0.0147323,-0.00675984 -0.0148661,-0.014874 0,0 -0.000956693,-0.0592323 -0.00238976,-0.148091 -0.000724409,-0.0444252 -0.00156299,-0.0962559 -0.00245276,-0.151783 -0.000232283,-0.0138819 -0.000440945,-0.0279961 -0.000677165,-0.0422874 -0.00011811,-0.00714567 -0.000240157,-0.0143307 -0.000354331,-0.0215551 -0.000145669,-0.00715354 -9.05512e-005,-0.0148307 -0.000708661,-0.0208819 -0.00159055,-0.0256614 -0.00900787,-0.0513583 -0.0228701,-0.0733031 -0.0135079,-0.0220591 -0.0322559,-0.0409173 -0.0541693,-0.0535787 -0.0214528,-0.0128386 -0.0465945,-0.0205315 -0.0690197,-0.0215984 -0.0254685,-0.00153937 -0.0474449,0.00259055 -0.0678819,0.010563 -0.0201457,0.00796063 -0.0372913,0.019752 -0.0507008,0.0329016 -0.0134685,0.0131535 -0.0231575,0.0275709 -0.0300669,0.0410276 -0.00681496,0.0135669 -0.0104685,0.0263189 -0.0127559,0.0368543 -0.00184646,0.0103976 -0.00287795,0.0165315 -0.00294882,0.0246732 -0.00023622,0.00693701 -0.000358268,0.0106417 -0.000358268,0.0106417 -0.000574803,0.0167795 -0.0146535,0.0299252 -0.031437,0.0293465 -0.0167874,-0.000574803 -0.0299291,-0.0146535 -0.0293543,-0.0314291 1.5748e-005,-0.000291339 3.54331e-005,-0.000712598 5.11811e-005,-0.000992126z"/>
  <path class="fil6" d="M3.86304 2.06381c0,0 -0.000248031,-0.00369685 -0.000704724,-0.010622 -0.000133858,-0.00573622 -0.00184646,-0.0198858 -0.00531496,-0.0348071 -0.00366535,-0.0146299 -0.00938976,-0.0321732 -0.0194291,-0.0506024 -0.0101024,-0.0183031 -0.0240945,-0.0376181 -0.0430394,-0.0549173 -0.0188504,-0.0173031 -0.0426535,-0.0325157 -0.0702008,-0.042378 -0.0271654,-0.00993701 -0.0594409,-0.0141929 -0.0893504,-0.0113386 -0.0330315,0.00273622 -0.0638386,0.0138031 -0.0919528,0.0315748 -0.0280157,0.0175591 -0.0514803,0.0427008 -0.0679409,0.0716772 -0.016815,0.0288346 -0.0253031,0.0620906 -0.0262165,0.0945591 -0.000444882,0.00848819 -0.000122047,0.0153346 -3.14961e-005,0.0226299 0.00011811,0.00722441 0.00023622,0.0144094 0.000338583,0.0215551 0.00023622,0.0142913 0.00046063,0.0284055 0.000692913,0.0422874 0.000889764,0.0555276 0.00171654,0.107358 0.00243701,0.151783 0.00142913,0.0888583 0.00238976,0.148091 0.00238976,0.148091 0.000133858,0.00834646 0.00701575,0.0150079 0.015374,0.014874 0.00817323,-0.000129921 0.0147323,-0.00675984 0.0148661,-0.014874 0,0 0.000956693,-0.0592323 0.00238976,-0.148091 0.000724409,-0.0444252 0.00155118,-0.0962559 0.00243307,-0.151783 0.000240157,-0.0138819 0.00046063,-0.0279961 0.00069685,-0.0422874 0.000102362,-0.00714567 0.000220472,-0.0143307 0.00034252,-0.0215551 0.000145669,-0.00715354 9.84252e-005,-0.0148307 0.000704724,-0.0208819 0.00159449,-0.0256614 0.00900394,-0.0513583 0.0228858,-0.0733031 0.0135079,-0.0220591 0.0322441,-0.0409173 0.0541496,-0.0535787 0.0214724,-0.0128386 0.0465984,-0.0205315 0.0690394,-0.0215984 0.0254528,-0.00153937 0.047437,0.00259055 0.0678819,0.010563 0.0201378,0.00796063 0.0372953,0.019752 0.0507008,0.0329016 0.0134685,0.0131535 0.0231535,0.0275709 0.0300591,0.0410276 0.00682283,0.0135669 0.0104646,0.0263189 0.0127598,0.0368543 0.00184252,0.0103976 0.00287402,0.0165315 0.00295276,0.0246732 0.00023622,0.00693701 0.000350394,0.0106417 0.000350394,0.0106417 0.000574803,0.0167795 0.0146496,0.0299252 0.0314488,0.0293465 0.0167717,-0.000574803 0.0299094,-0.0146535 0.0293504,-0.0314291 -3.14961e-005,-0.000291339 -4.33071e-005,-0.000712598 -6.29921e-005,-0.000992126z"/>
  <path class="fil7" d="M3.55147 2.51317c0,0.0721575 -0.0584921,0.13065 -0.130646,0.13065 -0.0721457,0 -0.130638,-0.0584921 -0.130638,-0.13065 0,-0.0721496 0.0584921,-0.130638 0.130638,-0.130638 0.0721535,0 0.130646,0.0584882 0.130646,0.130638z"/>
  <path class="fil7" d="M3.55726 2.80894c0,0.11476 -0.0964961,1.2982 -0.0964961,1.2982 -0.0219685,0.269457 -0.0579055,0.269457 -0.079874,0 0,0 -0.0964921,-1.18344 -0.0964921,-1.2982 0,-0.114768 0.0610787,-0.207795 0.136429,-0.207795 0.0753543,0 0.136433,0.0930276 0.136433,0.207795z"/>
 </g>
</svg>
