<?xml version="1.0" encoding="UTF-8"?>
<!DOCTYPE svg PUBLIC "-//W3C//DTD SVG 1.1//EN" "http://www.w3.org/Graphics/SVG/1.1/DTD/svg11.dtd">
<!-- Creator: CorelDRAW -->
<svg xmlns="http://www.w3.org/2000/svg" xml:space="preserve" width="6.82666in" height="6.82666in" style="shape-rendering:geometricPrecision; text-rendering:geometricPrecision; image-rendering:optimizeQuality; fill-rule:evenodd; clip-rule:evenodd"
viewBox="0 0 6.82666 6.82666"
 xmlns:xlink="http://www.w3.org/1999/xlink">
 <defs>
  <style type="text/css">
   <![CDATA[
    .fil2 {fill:none}
    .fil4 {fill:#212121}
    .fil1 {fill:#26C6DA}
    .fil0 {fill:#80DEEA}
    .fil11 {fill:#9B821F}
    .fil14 {fill:#A68B22}
    .fil5 {fill:#B60A00}
    .fil16 {fill:#D50000}
    .fil9 {fill:#EF6C00}
    .fil15 {fill:#FF1744}
    .fil10 {fill:#FF8005}
    .fil12 {fill:#FFD336}
    .fil3 {fill:#212121;fill-rule:nonzero}
    .fil8 {fill:url(#id1)}
    .fil7 {fill:url(#id2)}
    .fil13 {fill:url(#id3)}
    .fil17 {fill:url(#id4)}
    .fil6 {fill:url(#id5)}
   ]]>
  </style>
   <clipPath id="id0">
    <path d="M3.41333 -3.93701e-006c1.88513,0 3.41333,1.5282 3.41333,3.41333 0,1.88513 -1.5282,3.41333 -3.41333,3.41333 -1.88513,0 -3.41333,-1.5282 -3.41333,-3.41333 0,-1.88513 1.5282,-3.41333 3.41333,-3.41333z"/>
   </clipPath>
  <linearGradient id="id1" gradientUnits="userSpaceOnUse" x1="3.86475" y1="4.02583" x2="3.62029" y2="2.63944">
   <stop offset="0" style="stop-color:#2B7726"/>
   <stop offset="1" style="stop-color:#6EB869"/>
  </linearGradient>
  <linearGradient id="id2" gradientUnits="userSpaceOnUse" x1="2.3146" y1="4.85" x2="4.08789" y2="2.40927">
   <stop offset="0" style="stop-color:#AC5805"/>
   <stop offset="0.34902" style="stop-color:#A67210"/>
   <stop offset="1" style="stop-color:#9F8C1B"/>
  </linearGradient>
  <linearGradient id="id3" gradientUnits="userSpaceOnUse" xlink:href="#id1" x1="3.69424" y1="4.56652" x2="2.79711" y2="4.67668">
  </linearGradient>
  <linearGradient id="id4" gradientUnits="userSpaceOnUse" x1="2.45793" y1="4.94604" x2="4.34047" y2="2.7025">
   <stop offset="0" style="stop-color:#ED7501"/>
   <stop offset="0.34902" style="stop-color:#F6AB1C"/>
   <stop offset="1" style="stop-color:#FFE238"/>
  </linearGradient>
  <linearGradient id="id5" gradientUnits="userSpaceOnUse" xlink:href="#id2" x1="1.713" y1="4.64046" x2="3.87976" y2="2.05822">
  </linearGradient>
 </defs>
 <g id="Layer_x0020_1">
  <metadata id="CorelCorpID_0Corel-Layer"/>
  <path class="fil0" d="M3.41333 -3.93701e-006c1.88513,0 3.41333,1.5282 3.41333,3.41333 0,1.88513 -1.5282,3.41333 -3.41333,3.41333 -1.88513,0 -3.41333,-1.5282 -3.41333,-3.41333 0,-1.88513 1.5282,-3.41333 3.41333,-3.41333z"/>
  <g style="clip-path:url(#id0)">
   <g id="_637651960">
    <g>
     <polygon id="_6559566721" class="fil1" points="3.77416,1.71409 7.56043,5.50037 7.56741,5.50837 7.57428,5.51661 7.58104,5.52508 7.5877,5.53377 7.59425,5.54269 7.6007,5.55183 7.60705,5.56119 7.6133,5.57077 7.61944,5.58056 7.62549,5.59057 7.63144,5.60078 3.84518,1.81451 3.83922,1.8043 3.83318,1.79429 3.82703,1.7845 3.82078,1.77492 3.81443,1.76556 3.80798,1.75642 3.80143,1.7475 3.79478,1.73881 3.78801,1.73034 3.78114,1.7221 "/>
     <polygon id="_655956216" class="fil1" points="3.98077,1.9187 7.76704,5.70497 7.78632,5.72929 7.80475,5.75544 7.82236,5.78337 7.83917,5.81301 7.85523,5.84431 7.87056,5.87722 7.8852,5.91167 7.89918,5.94761 7.91254,5.98498 7.9253,6.02372 7.9375,6.06378 7.94918,6.1051 7.96037,6.14762 7.97109,6.19128 7.98139,6.23603 7.9913,6.2818 8.00084,6.32855 8.01006,6.37621 8.01898,6.42472 8.02765,6.47404 8.03608,6.52409 8.04432,6.57483 8.0524,6.6262 8.06035,6.67813 8.0682,6.73057 8.076,6.78347 4.28973,2.9972 4.28194,2.9443 4.27408,2.89186 4.26613,2.83993 4.25806,2.78856 4.24981,2.73782 4.24138,2.68777 4.23272,2.63845 4.22379,2.58994 4.21457,2.54228 4.20503,2.49553 4.19512,2.44976 4.18483,2.40501 4.1741,2.36135 4.16291,2.31883 4.15124,2.27751 4.13903,2.23745 4.12627,2.19871 4.11291,2.16134 4.09893,2.1254 4.08429,2.09094 4.06896,2.05804 4.05291,2.02674 4.03609,1.99709 4.01848,1.96917 4.00006,1.94302 "/>
     <polygon id="_655958472" class="fil1" points="5.27082,3.40422 9.05709,7.1905 9.05957,7.19389 9.06166,7.19745 9.06335,7.20115 9.06465,7.20494 9.06557,7.20882 9.06611,7.21275 9.06627,7.21669 9.06605,7.22063 9.06545,7.22452 9.06449,7.22835 9.06315,7.23208 9.06146,7.23568 9.0594,7.23913 9.05698,7.2424 9.0542,7.24545 9.05108,7.24826 5.26481,3.46199 5.26794,3.45918 5.27071,3.45613 5.27313,3.45286 5.27519,3.44941 5.27689,3.44581 5.27822,3.44207 5.27919,3.43825 5.27978,3.43435 5.28,3.43042 5.27984,3.42648 5.27931,3.42255 5.27839,3.41867 5.27708,3.41487 5.27539,3.41118 5.2733,3.40762 "/>
     <polygon id="_655957824" class="fil1" points="5.21391,3.435 9.00018,7.22127 8.99439,7.22023 5.20812,3.43396 "/>
     <polygon id="_655957896" class="fil1" points="5.20232,3.43292 8.98859,7.21919 8.98833,7.22059 8.98808,7.22197 8.98783,7.22336 8.98757,7.22474 8.98732,7.22611 8.98706,7.22749 8.9868,7.22886 8.98654,7.23022 5.20028,3.44395 5.20054,3.44259 5.20079,3.44122 5.20105,3.43984 5.20131,3.43847 5.20156,3.43709 5.20181,3.4357 5.20207,3.43431 "/>
     <polygon id="_655958736" class="fil1" points="4.18801,4.29867 7.97428,8.08494 7.9719,8.09185 7.96952,8.09864 7.96713,8.10533 7.96473,8.11191 7.96233,8.11839 7.95991,8.12476 7.9575,8.13102 7.95507,8.13717 7.95264,8.1432 7.9502,8.14913 7.94776,8.15494 7.94531,8.16063 7.94286,8.16621 7.94041,8.17167 7.93795,8.17702 7.93549,8.18224 7.93302,8.18735 7.93056,8.19233 7.92809,8.19719 7.92562,8.20193 7.92315,8.20655 7.92068,8.21104 7.9182,8.21539 7.91573,8.21963 7.91326,8.22374 7.91079,8.22771 7.90832,8.23156 7.90585,8.23527 7.90339,8.23885 7.90093,8.2423 7.89846,8.24561 7.89601,8.24878 4.10974,4.46251 4.1122,4.45933 4.11466,4.45602 4.11712,4.45257 4.11959,4.449 4.12206,4.44528 4.12452,4.44144 4.127,4.43746 4.12946,4.43336 4.13194,4.42912 4.13441,4.42476 4.13688,4.42028 4.13935,4.41566 4.14182,4.41092 4.14429,4.40606 4.14676,4.40107 4.14922,4.39597 4.15168,4.39075 4.15414,4.3854 4.15659,4.37994 4.15905,4.37436 4.16149,4.36867 4.16393,4.36285 4.16637,4.35693 4.1688,4.35089 4.17123,4.34475 4.17365,4.33849 4.17606,4.33212 4.17846,4.32564 4.18086,4.31906 4.18325,4.31237 4.18563,4.30557 "/>
     <polygon id="_655959048" class="fil1" points="4.10974,4.46251 7.89601,8.24878 7.89315,8.25239 7.8903,8.25599 7.88744,8.25957 7.88459,8.26315 7.88174,8.26671 7.87889,8.27026 7.87603,8.2738 7.87317,8.27733 4.08691,4.49106 4.08976,4.48753 4.09262,4.48399 4.09547,4.48044 4.09832,4.47687 4.10117,4.4733 4.10403,4.46972 4.10688,4.46612 "/>
     <polygon id="_655959000" class="fil1" points="3.24378,3.72425 7.03005,7.51052 7.01302,7.4964 6.99548,7.48154 6.9775,7.46592 6.95917,7.44949 6.94055,7.43223 6.92172,7.41411 3.13545,3.62784 3.15428,3.64596 3.17291,3.66322 3.19124,3.67965 3.20921,3.69527 3.22675,3.71013 "/>
     <polygon id="_655959192" class="fil1" points="1.82269,4.86342 5.60895,8.64969 5.59285,8.63896 5.57712,8.62792 5.56177,8.61656 5.54683,8.60489 5.53229,8.59291 1.74602,4.80664 1.76056,4.81862 1.7755,4.83029 1.79085,4.84165 1.80658,4.85269 "/>
     <polygon id="_655958616" class="fil1" points="3.27616,5.08428 7.06243,8.87056 7.01795,8.89386 6.97198,8.9151 6.92465,8.93427 6.87611,8.95139 6.8265,8.96648 6.77597,8.97954 6.72466,8.99059 6.67272,8.99963 6.62028,9.0067 6.56749,9.01179 6.5145,9.01491 6.46144,9.01609 6.40848,9.01533 6.35573,9.01265 6.30336,9.00806 6.2515,9.00156 6.2003,8.99318 6.1499,8.98293 6.10044,8.97081 6.05208,8.95685 6.00494,8.94105 5.95919,8.92343 5.91495,8.904 5.87238,8.88277 5.83161,8.85975 5.7928,8.83496 5.75608,8.80841 5.72161,8.78011 1.93534,4.99384 1.96981,5.02214 2.00654,5.04869 2.04535,5.07348 2.08611,5.0965 2.12869,5.11772 2.17292,5.13716 2.21868,5.15478 2.26581,5.17058 2.31418,5.18454 2.36363,5.19666 2.41403,5.20691 2.46523,5.21529 2.51709,5.22178 2.56946,5.22637 2.62221,5.22906 2.67518,5.22982 2.72823,5.22864 2.78122,5.22552 2.83401,5.22043 2.88645,5.21336 2.93839,5.20431 2.9897,5.19326 3.04024,5.1802 3.08984,5.16512 3.13838,5.148 3.18571,5.12883 3.23169,5.10759 "/>
     <polygon id="_655959264" class="fil1" points="4.08691,4.49106 7.87317,8.27733 7.86089,8.29235 7.84847,8.30724 7.83584,8.32203 7.82294,8.33676 7.80969,8.35146 7.79602,8.36617 7.78187,8.38092 7.76715,8.39576 7.7518,8.41071 7.73576,8.42582 7.71894,8.44113 7.70128,8.45665 7.6827,8.47244 7.66315,8.48854 7.64254,8.50496 7.6208,8.52176 7.59787,8.53896 7.57367,8.55661 7.54814,8.57474 7.5212,8.59339 7.49278,8.61259 7.46281,8.63237 7.43123,8.65278 7.39795,8.67385 7.36292,8.69563 7.32605,8.71813 7.28728,8.7414 7.24654,8.76547 7.20375,8.79039 7.15885,8.81619 7.11177,8.8429 7.06243,8.87056 3.27616,5.08428 3.3255,5.05663 3.37258,5.02991 3.41748,5.00412 3.46027,4.9792 3.50101,4.95513 3.53978,4.93185 3.57665,4.90935 3.61169,4.88758 3.64496,4.86651 3.67655,4.8461 3.70652,4.82631 3.73493,4.80712 3.76187,4.78847 3.78741,4.77034 3.8116,4.75269 3.83454,4.73549 3.85627,4.71869 3.87688,4.70226 3.89644,4.68617 3.91501,4.67038 3.93267,4.65485 3.94949,4.63955 3.96554,4.62444 3.98088,4.60948 3.9956,4.59465 4.00976,4.57989 4.02343,4.56519 4.03667,4.55048 4.04957,4.53576 4.0622,4.52097 4.07462,4.50608 "/>
     <polygon id="_655958952" class="fil1" points="5.20812,3.43396 8.99439,7.22023 8.98859,7.21919 5.20232,3.43292 "/>
     <polygon id="_655958712" class="fil1" points="5.26481,3.46199 9.05108,7.24826 9.04787,7.25062 9.04451,7.25263 9.04103,7.25428 9.03744,7.25558 9.03378,7.25654 9.03007,7.25715 9.02634,7.25742 9.02261,7.25735 9.01889,7.25695 9.01523,7.25621 9.01164,7.25514 9.00815,7.25374 9.00478,7.25201 9.00156,7.24996 8.99851,7.24759 8.99566,7.2449 5.20939,3.45863 5.21224,3.46131 5.2153,3.46369 5.21852,3.46574 5.22188,3.46746 5.22537,3.46887 5.22896,3.46994 5.23263,3.47068 5.23634,3.47108 5.24007,3.47115 5.24381,3.47088 5.24752,3.47027 5.25117,3.46931 5.25476,3.46801 5.25824,3.46635 5.2616,3.46435 "/>
     <polygon id="_655958520" class="fil1" points="4.28973,2.9972 8.076,6.78347 8.08209,6.82812 8.08736,6.87312 8.09184,6.91839 8.09554,6.96389 8.09848,7.00956 8.1007,7.05532 8.1022,7.10113 8.10302,7.14692 8.10317,7.19264 8.10269,7.23822 8.10157,7.28359 8.09987,7.32872 8.09759,7.37353 8.09475,7.41796 8.09138,7.46195 8.0875,7.50545 8.08314,7.54839 8.07831,7.59071 8.07304,7.63236 8.06734,7.67327 8.06125,7.71339 8.05478,7.75265 8.04796,7.79099 8.0408,7.82835 8.03334,7.86469 8.02559,7.89992 8.01757,7.934 8.00931,7.96686 8.00083,7.99844 7.99215,8.02869 7.98329,8.05755 7.97428,8.08494 4.18801,4.29867 4.19702,4.27128 4.20588,4.24242 4.21456,4.21217 4.22304,4.18059 4.2313,4.14772 4.23932,4.11365 4.24707,4.07841 4.25454,4.04208 4.26169,4.00472 4.26851,3.96637 4.27498,3.92711 4.28107,3.887 4.28677,3.84609 4.29204,3.80444 4.29687,3.76212 4.30124,3.71918 4.30511,3.67568 4.30848,3.63169 4.31132,3.58726 4.3136,3.54245 4.31531,3.49732 4.31642,3.45194 4.31691,3.40637 4.31675,3.36065 4.31593,3.31486 4.31443,3.26905 4.31222,3.22328 4.30927,3.17762 4.30557,3.13212 4.30109,3.08685 4.29582,3.04185 "/>
    </g>
    <path id="_637651936" class="fil1" d="M5.20812 3.43396l-0.00579921 -0.00103937c-0.000669291,0.00371654 -0.00135039,0.0073937 -0.00204331,0.0110315 -0.00570079,-0.0159567 -0.00108268,-0.0344528 0.012815,-0.0457362 0.0175984,-0.0142756 0.0434449,-0.0115945 0.0577323,0.00600787 0.0142835,0.017622 0.0116024,0.0434685 -0.00601181,0.0577638 -0.0166772,0.0135394 -0.0407795,0.0118307 -0.0554173,-0.0033622 0.00156693,-0.00770079 0.00307087,-0.0155748 0.00451969,-0.0236299l-0.00579528 -0.00103543zm-1.02011 0.864713c-0.0252677,0.0741496 -0.0520748,0.130701 -0.0782677,0.163835 -0.00762598,0.00964567 -0.0152126,0.0191496 -0.0228346,0.0285551 -0.130559,0.161071 -0.272185,0.292992 -0.810744,0.59322 -0.465906,0.259736 -1.21208,0.163232 -1.45348,-0.220866 -0.17376,-0.112768 -0.285303,-0.279315 -0.275413,-0.494469 0.0286378,-0.623043 0.60226,-0.6905 0.986693,-0.672646 0.312075,0.0144882 0.737717,0.147787 0.799669,0.126406 -0.0298543,-0.0292835 -0.0602362,-0.0619173 -0.0898504,-0.0984606 -0.17872,-0.146807 -0.456429,-0.413831 -0.432882,-0.975406 0.0268661,-0.640441 0.477453,-1.22307 0.788874,-1.14496 0.103201,0.025878 0.182417,0.100563 0.245402,0.210622 0.273791,0.117386 0.361638,0.616236 0.444555,1.18269 0.0694331,0.47424 -0.00485039,1.0172 -0.101724,1.30147z"/>
   </g>
  </g>
  <path class="fil2" d="M3.41333 -3.93701e-006c1.88513,0 3.41333,1.5282 3.41333,3.41333 0,1.88513 -1.5282,3.41333 -3.41333,3.41333 -1.88513,0 -3.41333,-1.5282 -3.41333,-3.41333 0,-1.88513 1.5282,-3.41333 3.41333,-3.41333z"/>
  <path class="fil2" d="M4.40954 4.09683c-0.121437,-0.601654 0.694748,-0.411559 0.544102,-1.0628"/>
  <path class="fil3" d="M4.40377 4.09799c-0.060063,-0.297579 0.105673,-0.403713 0.273378,-0.511102 0.172402,-0.110402 0.346933,-0.222169 0.270744,-0.551531l0.0115039 -0.00263386c0.0780551,0.337445 -0.0999961,0.451472 -0.275874,0.564098 -0.164295,0.105209 -0.326673,0.209189 -0.268205,0.498858l-0.0115472 0.00231102z"/>
  <path class="fil4" d="M5.01099 2.99813c0.0142835,0.0176142 0.0115787,0.0434685 -0.00602756,0.0577441 -0.0176063,0.0142874 -0.0434567,0.0116024 -0.0577402,-0.0060315 -0.0142913,-0.0176024 -0.0115984,-0.0434331 0.00601575,-0.0577205 0.0175984,-0.0142874 0.0434567,-0.0115945 0.057752,0.00600787z"/>
  <path class="fil5" d="M3.91178 4.26788c0.126622,-0.160165 0.267547,-0.867386 0.179996,-1.46531 -0.0875315,-0.597961 -0.180551,-1.12059 -0.492004,-1.19869 -0.311421,-0.0781102 -0.762008,0.504516 -0.788874,1.14496 -0.0268543,0.640425 0.338087,0.897776 0.501201,1.03062 0.163114,0.13285 -0.393689,-0.0653071 -0.778138,-0.0831575 -0.384433,-0.0178543 -0.958055,0.0496024 -0.986693,0.672646 -0.0286378,0.623012 0.960925,0.838476 1.53093,0.520705 0.570016,-0.317776 0.695394,-0.44698 0.833583,-0.621776z"/>
  <path class="fil6" d="M3.60195 4.49893l0 -0.187134c0.0237362,-0.00019685 0.0438819,-0.000405512 0.0591693,-0.000704724 0.105354,-0.0019685 0.101091,0.0424331 0.0611299,0.0817008 -0.00221654,0.0134134 -0.048748,0.0535551 -0.120299,0.106138zm0 -0.268744l0 0 0 -0.161429c0.092,0.0714764 0.158386,0.141181 0.0589764,0.154409 -0.0167677,0.00222047 -0.0366417,0.00457874 -0.0589764,0.00701969zm0 -0.26063l0 0 0 -0.306154c0.0402835,0.133043 0.0872913,0.278276 0.111165,0.338917 0.0358228,0.0605669 -0.0250787,0.0297362 -0.111165,-0.0327638zm0 -0.616697l0 0c0.0741693,0.290835 0.160441,0.572358 0.168177,0.648024 0.0151457,0.147984 0.0975866,0.124476 0.129346,0.0175669 0.0835591,-0.281327 0.113465,-1.04069 0.0556614,-1.39101 -0.057811,-0.350303 -0.126185,-0.158622 -0.219244,-0.122713 -0.0486102,0.0187402 -0.0933976,-0.00725591 -0.133941,-0.000429134l0 0.848563zm0 -0.950118l0 0 0 -0.69776c0.142701,0.0777992 0.227614,0.424894 0.253972,0.55439 0.0273583,0.13448 -0.135122,0.195024 -0.253972,0.14337zm0 -0.69776l0 0 0 0.69776c-0.0071378,-0.00311024 -0.0141339,-0.00658661 -0.0209134,-0.0105236 -0.0230787,-0.0133661 -0.0460669,-0.0312795 -0.0687874,-0.0525039l0 -0.64715c0.00575197,-0.000830709 0.0114882,-0.00162598 0.0172047,-0.00231496 0.0256339,-0.00323228 0.0497913,0.00235827 0.0724961,0.0147323zm0 0.799315l0 0 0 0.848563c-0.0363898,-0.142689 -0.0698425,-0.287579 -0.0897008,-0.411547l0 -0.31539c0.0269882,-0.0891496 0.0569646,-0.11611 0.0897008,-0.121626zm0 1.15911l0 0 0 0.306154c-0.0280512,-0.0203622 -0.0587795,-0.0440984 -0.0897008,-0.0691142l0 -0.511886c0.0118701,0.0109921 0.0199724,0.0235787 0.0232677,0.0382205 0.0103071,0.0457795 0.0365315,0.137854 0.0664331,0.236626zm0 0.405354l0 0 0 0.161429c-0.0266654,0.00290157 -0.0568819,0.00588583 -0.0897008,0.00886614l0 -0.236291c0.0295394,0.0210433 0.0608701,0.0436142 0.0897008,0.0659961zm0 0.243039l0 0 0 0.187134c-0.0267441,0.0196772 -0.0569488,0.0410394 -0.0897008,0.0634409l0 -0.250071c0.0332126,-0.000137795 0.0636378,-0.000311024 0.0897008,-0.000503937zm-0.0897008 -1.05291l0 0c0.0153346,-0.00320079 0.0220591,-0.0097874 0.0171772,-0.0205945 -0.00579134,-0.0128346 -0.0115236,-0.0277008 -0.0171772,-0.0439606l0 0.0645551zm0 -0.79222l0 0c0.00262598,-0.00381102 0.00516929,-0.00724409 0.0076063,-0.0102362 0.0111417,-0.0111772 0.00706693,-0.0321772 -0.0076063,-0.0592638l0 0.0695zm0 -0.774102l0 0 0 0.64715c-0.0486102,-0.0454134 -0.095937,-0.105957 -0.140138,-0.169488l0 -0.442402c0.0429724,-0.0172441 0.0919567,-0.0282992 0.140138,-0.0352598zm0 0.704602l0 0c-0.0243701,-0.0449528 -0.0780276,-0.106657 -0.140138,-0.16815l0 0.542276c0.0289567,0.00303937 0.046626,-0.00324803 0.0456496,-0.0229331 -0.00387008,-0.0779685 0.0549291,-0.224217 0.0944882,-0.281693l0 -0.0695zm0 0.228756l0 0 0 0.31539c-0.0188228,-0.117504 -0.025437,-0.21624 -0.0106575,-0.276307 0.00350394,-0.0142323 0.00705512,-0.0271811 0.0106575,-0.0390827zm0 0.568409l0 0c-0.027685,-0.0796772 -0.0532874,-0.193181 -0.0718937,-0.267976 -0.00420472,-0.0195118 -0.0302087,-0.0420866 -0.0682441,-0.0657756l0 0.388709c0.062315,0.0105551 0.11389,0.0150787 0.140138,0.00959843l0 -0.0645551zm0 0.194224l0 0 0 0.511886c-0.0431614,-0.034937 -0.0867126,-0.0724094 -0.123929,-0.106783 -0.00517717,-0.00479134 -0.0106102,-0.0100039 -0.0162087,-0.0155433l0 -0.447106c0.0599134,0.0136654 0.11126,0.0308268 0.140138,0.0575472zm0 0.614205l0 0 0 0.236291c-0.0429803,0.00391339 -0.0904016,0.00779134 -0.140138,0.0113976l0 -0.336114c0.0369134,0.0187441 0.0720197,0.0398425 0.105437,0.0636969 0.0110787,0.00791732 0.0227441,0.0162087 0.0347008,0.0247283zm0 0.309539l0 0 0 0.250071c-0.043122,0.0295157 -0.0906063,0.060752 -0.140138,0.0920354l0 -0.341508c0.0490906,-0.000232283 0.0969606,-0.000405512 0.140138,-0.000598425zm-0.824921 0.0839803l0 0c0.014563,-0.0280315 0.0168307,-0.0494449 0,-0.0675866l0 0.0675866zm0.684783 -2.66846l0 0 0 0.442402c-0.0250118,-0.036 -0.0490118,-0.0729409 -0.0716693,-0.108614 -0.120512,-0.189925 -0.0476969,-0.285843 0.0716693,-0.333787zm0 0.501193l0 0c-0.0477402,-0.0472835 -0.100441,-0.0943976 -0.148661,-0.133669 -0.148713,-0.121126 -0.350421,0.400854 -0.240079,0.49072 0.0842244,0.0685984 0.29535,0.175449 0.38874,0.185224l0 -0.542276zm0 0.631563l0 0 0 0.388709c-0.156016,-0.0264213 -0.379169,-0.0906457 -0.439791,-0.130248 -0.0989606,-0.0646614 -0.0555354,-0.500087 0.0377362,-0.448051 0.0697913,0.0389331 0.289051,0.119193 0.402055,0.189591zm0 0.470429l0 0c-0.096248,-0.0219331 -0.214539,-0.0348346 -0.29711,-0.0638425 -0.149587,-0.0525787 0.145248,0.360709 0.29711,0.510949l0 -0.447106zm0 0.583327l0 0 0 0.336114c-0.152028,0.0110354 -0.325476,0.0195 -0.458559,0.0183346 -0.107358,-0.000933071 -0.177228,-0.0039252 -0.226224,-0.0165551l0 -0.483102c0.00825591,0.000169291 0.0168031,0.000566929 0.025748,0.00122047 0.267311,0.0199134 0.483469,0.0549213 0.659035,0.143988zm0 0.398563l0 0 0 0.341508c-0.181705,0.114768 -0.39111,0.23011 -0.515429,0.262287 -0.102087,0.0264331 -0.149756,-0.00435039 -0.169354,-0.0607008l0 -0.220071c0.00464567,-0.0338701 0.00951575,-0.0663661 0.0122126,-0.0945472 0.0148898,-0.155476 0.179748,-0.220693 0.350823,-0.224988 0.0835512,-0.0021063 0.20602,-0.00295669 0.321748,-0.00348819zm-0.745319 0.592122l0 0c-0.028437,-0.0630512 -0.0569173,-0.34161 0.0125276,-0.436677 0.0206614,-0.0282717 0.0375157,-0.0518937 0.0480079,-0.072063l0 -0.0675866c-0.0117874,-0.0126969 -0.0329291,-0.0237953 -0.0658307,-0.0344213 -0.113701,-0.0367559 -0.157075,-0.159843 -0.180016,-0.298236 -0.0229449,-0.138382 0.0306969,-0.214996 -0.107673,-0.239941 -0.138382,-0.0249094 -0.754004,0.160106 -0.691551,0.64189 0.0624606,0.481768 0.352441,0.518906 0.577189,0.566287 0.224748,0.0473976 0.494587,0.0197913 0.407346,-0.059252zm0.0605354 -1.13589l0 0 0 0.483102c-0.0594882,-0.0153307 -0.088185,-0.0449173 -0.115764,-0.102382 -0.0489094,-0.101913 -0.174744,-0.387169 0.115764,-0.38072zm0 0.866795l0 0 0 0.220071c-0.020122,-0.0578583 -0.0106299,-0.14263 0,-0.220071z"/>
  <path class="fil7" d="M3.89948 4.01845c0.0835591,-0.281327 0.113465,-1.04069 0.0556614,-1.39101 -0.057811,-0.350303 -0.126185,-0.158622 -0.219244,-0.122713 -0.0486102,0.0187402 -0.0933976,-0.00725591 -0.133941,-0.000429134l0 0.848563c0.0741693,0.290835 0.160441,0.572358 0.168177,0.648024 0.0151457,0.147984 0.0975866,0.124476 0.129346,0.0175669zm-0.297524 0.48048l0 0 0 -0.187134c0.0237362,-0.00019685 0.0438819,-0.000405512 0.0591693,-0.000704724 0.105354,-0.0019685 0.101091,0.0424331 0.0611299,0.0817008 -0.00221654,0.0134134 -0.048748,0.0535551 -0.120299,0.106138zm0 -0.268744l0 0 0 -0.161429c0.092,0.0714764 0.158386,0.141181 0.0589764,0.154409 -0.0167677,0.00222047 -0.0366417,0.00457874 -0.0589764,0.00701969zm0 -1.72589l0 0c-0.0371142,0.00626378 -0.0706654,0.0399921 -0.100358,0.160709 -0.0303583,0.123453 0.0294803,0.409913 0.100358,0.687854l0 -0.848563zm0 1.56446l0 0 0 0.161429c-0.168327,0.018315 -0.478531,0.0404409 -0.688398,0.0385984 -0.237701,-0.00209055 -0.291705,-0.0141339 -0.341988,-0.118937 -0.0502992,-0.104819 -0.182024,-0.403571 0.141512,-0.3795 0.323504,0.0240827 0.572079,0.0702913 0.764472,0.207685 0.0384685,0.0274764 0.0839055,0.0592756 0.124402,0.0907244zm0 0.243039l0 0 0 0.187134c-0.191165,0.140524 -0.561331,0.370165 -0.745268,0.417764 -0.252787,0.0654488 -0.172024,-0.219886 -0.157142,-0.375319 0.0148898,-0.155476 0.179748,-0.220693 0.350823,-0.224988 0.146248,-0.0036811 0.411772,-0.0035 0.551587,-0.00459055z"/>
  <path class="fil8" d="M3.83843 4.02244c0.0166378,-0.112575 0.00804724,-0.345472 -0.0065748,-0.577898l0 0.530409c0.00224409,0.0163701 0.00445276,0.0322323 0.0065748,0.0474882zm-0.0065748 -1.12874l0 0 0 -0.194894c0.0276417,-0.0559843 0.0840551,-0.0539764 0.104421,0.145154 0.0304055,0.297256 0.0190394,0.946008 -0.0667008,1.15085 0.0207835,-0.319016 -0.0122795,-0.872173 -0.0377205,-1.10111zm0 0.550843l0 0c-0.0157126,-0.249803 -0.0383819,-0.499083 -0.0441693,-0.59789 -0.00426378,-0.0729843 -0.0245236,-0.114992 -0.0464961,-0.12989l0 0.570264c0.0298976,0.229799 0.0642126,0.495583 0.0906654,0.687925l0 -0.530409zm0 -0.745736l0 0 0 0.194894c-0.00437795,-0.0393346 -0.00851575,-0.0691614 -0.0121339,-0.0865197 -0.00812598,-0.0391063 -0.00148819,-0.0807913 0.0121339,-0.108374zm-0.0906654 1.10534l0 0 0 -0.269539c0.0302126,0.207055 0.0572323,0.400776 0.0633661,0.482925 -0.0203307,-0.0594252 -0.0418031,-0.132776 -0.0633661,-0.213386zm0 -1.08739l0 0c-0.0354724,-0.0240472 -0.0754488,0.0225984 -0.0599213,0.124055 0.0111929,0.0731811 0.0338819,0.246039 0.0599213,0.446209l0 -0.570264zm0 0.817846l0 0 0 0.269539c-0.0893858,-0.33413 -0.180465,-0.793878 -0.199362,-0.912945 -0.0234646,-0.147787 0.087748,-0.175843 0.102945,-0.0272008 0.00873622,0.0854843 0.0555039,0.39026 0.0964173,0.670606z"/>
  <path class="fil5" d="M3.62994 4.15161c-0.129012,-0.0675866 -0.284713,-0.115972 -0.429244,-0.148193l0 0.109961c0.118949,0.013122 0.260571,0.0260039 0.429244,0.0382323zm-0.429244 0.0754961l0 0 0 -0.0896693c0.150213,0.0127913 0.31239,0.0271339 0.416071,0.0457598 -0.149264,0.0239606 -0.292087,0.0378622 -0.416071,0.0439094zm0 -0.252154l0 0 0 -0.083374c0.161559,0.0554528 0.292358,0.13361 0.410272,0.222988 -0.146185,-0.0658937 -0.287945,-0.110299 -0.410272,-0.139614zm0 0.0284646l0 0c-0.111854,-0.0249331 -0.217016,-0.0402087 -0.297909,-0.0472205 -0.18539,-0.0160472 -0.185118,0.0836654 -0.0290394,0.111756 0.0834449,0.0150236 0.190232,0.0303819 0.326949,0.0454252l0 -0.109961zm0 -0.111839l0 0 0 0.083374c-0.144461,-0.0346299 -0.261815,-0.048252 -0.327268,-0.0513346 -0.120862,-0.00569685 -0.236346,-0.141575 0.0590984,-0.0968268 0.0986181,0.0149213 0.187248,0.037 0.268169,0.0647874zm0 0.245858l0 0 0 0.0896693c-0.120874,0.0058937 -0.22385,0.00433858 -0.297374,-0.00264961 -0.148976,-0.0141732 -0.162114,-0.140031 -0.014378,-0.117673 0.0674843,0.0102205 0.185382,0.0199016 0.311752,0.0306535z"/>
  <path class="fil9" d="M3.43259 1.80154c0.164283,-0.102283 0.451276,0.423461 0.275583,0.506799 -0.175681,0.083311 -0.466315,-0.388043 -0.275583,-0.506799z"/>
  <path class="fil10" d="M3.84801 2.52262c-0.0693701,0.0189843 -0.0676654,0.122799 0.00614173,0.118217 0.0738071,-0.00458268 0.0605748,-0.133941 -0.00614173,-0.118217z"/>
  <path class="fil10" d="M3.71456 2.55409c0.0693543,-0.0189803 0.0732323,0.135118 -0.00116929,0.133827 -0.0744134,-0.00130315 -0.062689,-0.148087 0.00116929,-0.133827z"/>
  <path class="fil10" d="M3.58426 2.59672c0.0515709,-0.00775984 0.053622,0.134138 -0.00832677,0.13798 -0.0619291,0.00383465 -0.0634724,-0.133134 0.00832677,-0.13798z"/>
  <path class="fil9" d="M3.05397 2.32495c-0.0824843,0.222087 0.264622,0.45239 0.345898,0.227472 0.0771693,-0.213579 -0.261374,-0.455028 -0.345898,-0.227472z"/>
  <path class="fil9" d="M2.97054 2.93759c-0.0161378,0.177823 0.462949,0.37761 0.406602,0.0898386 -0.0418622,-0.213811 -0.382311,-0.357756 -0.406602,-0.0898386z"/>
  <path class="fil10" d="M3.27652 3.55524c-0.0841457,-0.143272 0.163319,-0.235917 0.235311,0.0089252 0.0623031,0.211898 -0.054563,0.298768 -0.235311,-0.0089252z"/>
  <path class="fil11" d="M2.69428 3.85558c0.016378,0.0495118 -0.123126,0.0755394 -0.137402,0.0151378 -0.014252,-0.0603898 0.120472,-0.0850827 0.137402,-0.0151378z"/>
  <path class="fil12" d="M2.7139 3.99293c0.0122913,0.050685 -0.133256,0.091748 -0.146252,0.0059252 -0.0129803,-0.0858307 0.135075,-0.0770157 0.146252,-0.0059252z"/>
  <path class="fil12" d="M2.75088 4.13469c0.0122913,0.050689 -0.117579,0.0830394 -0.136642,0.00729134 -0.0190394,-0.0757165 0.125472,-0.0783858 0.136642,-0.00729134z"/>
  <path class="fil12" d="M2.8432 4.44683c0.0292795,0.0244173 -0.0329016,0.0999567 -0.0770472,0.0637756 -0.0441732,-0.0361575 0.0395433,-0.100646 0.0770472,-0.0637756z"/>
  <path class="fil12" d="M2.82721 4.61046c0.0239685,0.0414094 -0.0709646,0.100197 -0.107394,0.0384843 -0.0364213,-0.0617047 0.0791102,-0.0981614 0.107394,-0.0384843z"/>
  <path class="fil12" d="M2.84667 4.77845c0.0239528,0.0413976 -0.0928386,0.152303 -0.131382,0.0477402 -0.0385394,-0.104551 0.103094,-0.107441 0.131382,-0.0477402z"/>
  <path class="fil13" d="M3.68528 4.38902c-0.126264,0.0772441 -0.275693,0.141134 -0.414886,0.186949l0 -0.118937c0.110437,-0.0214488 0.244626,-0.0442165 0.414886,-0.0680118zm-0.414886 0.297752l0 0c0.148909,-0.077626 0.284209,-0.16037 0.398417,-0.259512 -0.145268,0.0774409 -0.281929,0.136465 -0.398417,0.178665l0 0.0808465zm0 -0.256413l0 0c0.143035,-0.0221181 0.297386,-0.0464961 0.399646,-0.0719843 -0.150461,-0.0139882 -0.284654,-0.0193386 -0.399646,-0.0180748l0 0.0900591zm0 0.14561l0 0c-0.103768,0.0341575 -0.20185,0.0582756 -0.280402,0.0703622 -0.183917,0.0283071 -0.17122,-0.0844961 -0.0173543,-0.122866 0.0811024,-0.0202283 0.174681,-0.0425118 0.297756,-0.0664331l0 0.118937zm0 -0.235669l0 0c-0.112209,0.00122441 -0.206146,0.00868898 -0.279083,0.0205748 -0.147701,0.0239882 -0.165925,0.151839 -0.0200039,0.119709 0.0666378,-0.0146654 0.178866,-0.0316339 0.299087,-0.0502244l0 -0.0900591zm0 0.265626l0 0c-0.130976,0.0474488 -0.236488,0.0736417 -0.300114,0.0809055 -0.120217,0.0136969 -0.152272,0.217343 0.0827008,0.106795 0.0749488,-0.0352598 0.147661,-0.0704882 0.217413,-0.106854l0 -0.0808465z"/>
  <path class="fil14" d="M2.11788 3.96335c-0.372248,0.0561457 -0.524579,0.707646 0.0013937,0.815343 0.577012,0.118177 0.372736,-0.871783 -0.0013937,-0.815343z"/>
  <path class="fil15" d="M4.10974 4.46251c0.12661,-0.160165 0.267535,-0.867362 0.179992,-1.46531 -0.0875276,-0.597961 -0.180551,-1.12059 -0.491996,-1.19869 -0.311425,-0.0780945 -0.762012,0.50452 -0.788882,1.14496 -0.0268622,0.640437 0.338091,0.89778 0.501201,1.03063 0.16311,0.132843 -0.393681,-0.0653071 -0.778134,-0.0831614 -0.384433,-0.0178661 -0.958055,0.0496063 -0.986689,0.672634 -0.0286535,0.623012 0.960902,0.838488 1.53093,0.520705 0.570008,-0.31776 0.69537,-0.44698 0.833579,-0.621776z"/>
  <path class="fil16" d="M3.7999 4.69357l0 -0.187142c0.0237402,-0.000204724 0.0438819,-0.000413386 0.0591732,-0.000688976 0.105346,-0.00198031 0.101091,0.0424094 0.061122,0.081689 -0.0022126,0.0134016 -0.0487441,0.0535433 -0.120295,0.106142zm0 -0.268748l0 0 0 -0.161417c0.092,0.0714528 0.15839,0.141169 0.0589724,0.154386 -0.0167756,0.00223228 -0.0366378,0.00459055 -0.0589724,0.0070315zm0 -0.260626l0 0 0 -0.306157c0.0402953,0.133043 0.0872913,0.278264 0.111165,0.338906 0.0358228,0.0605669 -0.0250748,0.029748 -0.111165,-0.032748zm0 -0.616689l0 0c0.0741654,0.290835 0.160453,0.572358 0.168185,0.648024 0.0151457,0.147949 0.0975866,0.124476 0.129331,0.0175551 0.0835709,-0.281335 0.11348,-1.0407 0.0556654,-1.39101 -0.057811,-0.350315 -0.126177,-0.158618 -0.219248,-0.122724 -0.0485984,0.0187283 -0.093374,-0.00724016 -0.133933,-0.000405512l0 0.848563zm0 -0.950142l0 0 0 -0.69776c0.142697,0.0777992 0.227622,0.424906 0.253976,0.554378 0.0273583,0.134484 -0.135122,0.195035 -0.253976,0.143382zm0 -0.69776l0 0 0 0.69776c-0.0071378,-0.00309843 -0.014126,-0.00659449 -0.0209055,-0.0105118 -0.0230787,-0.013378 -0.0460669,-0.0312913 -0.0687913,-0.0525039l0 -0.647161c0.00575591,-0.000814961 0.0114921,-0.00161024 0.0171969,-0.00231496 0.0256339,-0.00323228 0.0497953,0.00237402 0.0725,0.0147323zm0 0.799339l0 0 0 0.848563c-0.0363858,-0.142701 -0.0698346,-0.287591 -0.0896969,-0.411535l0 -0.315417c0.0269961,-0.0891457 0.0569646,-0.116098 0.0896969,-0.12161zm0 1.15909l0 0 0 0.306157c-0.0280512,-0.0203661 -0.0587677,-0.0441024 -0.0896969,-0.0691181l0 -0.511886c0.0118661,0.0109843 0.0199724,0.0235748 0.0232717,0.0382205 0.0103031,0.0457835 0.0365118,0.137866 0.0664252,0.236626zm0 0.405366l0 0 0 0.161417c-0.0266654,0.00290157 -0.056878,0.00588189 -0.0896969,0.00887795l0 -0.236315c0.0295394,0.0210551 0.0608661,0.0436299 0.0896969,0.0660197zm0 0.243024l0 0 0 0.187142c-0.0267362,0.0196614 -0.0569409,0.0410354 -0.0896969,0.063437l0 -0.250083c0.0332165,-0.000145669 0.0636299,-0.000295276 0.0896969,-0.000496063zm-0.0896969 -1.05291l0 0c0.0153268,-0.0032126 0.0220512,-0.00979528 0.0171732,-0.0205945 -0.00578346,-0.0128346 -0.0115157,-0.027689 -0.0171732,-0.0439528l0 0.0645472zm0 -0.792256l0 0c0.00262598,-0.00379921 0.00516142,-0.00722047 0.00759055,-0.0102008 0.0111457,-0.0111772 0.00708661,-0.032189 -0.00759055,-0.0592362l0 0.069437zm0 -0.774079l0 0 0 0.647161c-0.0486142,-0.0454016 -0.0959449,-0.105953 -0.140134,-0.169512l0 -0.442378c0.0429764,-0.0172441 0.0919449,-0.0282953 0.140134,-0.0352717zm0 0.704642l0 0c-0.0243622,-0.0449685 -0.0780315,-0.106697 -0.140134,-0.168189l0 0.542287c0.0289528,0.00302756 0.0466181,-0.00327165 0.0456299,-0.0229449 -0.00385433,-0.0779685 0.0549567,-0.224236 0.0945039,-0.281717l0 -0.069437zm0 0.228724l0 0 0 0.315417c-0.0188268,-0.117528 -0.0254291,-0.216252 -0.0106535,-0.276335 0.00350394,-0.0142362 0.00705118,-0.027189 0.0106535,-0.0390827zm0 0.568421l0 0c-0.027685,-0.0796732 -0.0532874,-0.193201 -0.0718858,-0.267984 -0.00420866,-0.0195 -0.0302205,-0.0420748 -0.068248,-0.0657795l0 0.388685c0.0623071,0.0105591 0.11389,0.0150945 0.140134,0.00962598l0 -0.0645472zm0 0.194217l0 0 0 0.511886c-0.0431654,-0.034937 -0.0867126,-0.0724094 -0.123933,-0.106795 -0.00517717,-0.00479134 -0.0106024,-0.0100157 -0.0162008,-0.0155433l0 -0.447083c0.0599134,0.0136299 0.111268,0.0308071 0.140134,0.0575354zm0 0.614193l0 0 0 0.236315c-0.0429724,0.00388976 -0.0904094,0.00777953 -0.140134,0.0113819l0 -0.336098c0.0369016,0.0187087 0.0720118,0.0398307 0.105425,0.0636969 0.0110866,0.0078937 0.0227598,0.016185 0.0347087,0.0247047zm0 0.309539l0 0 0 0.250083c-0.0431181,0.0295039 -0.0906024,0.060748 -0.140134,0.0920276l0 -0.3415c0.0490984,-0.000228346 0.0969567,-0.000401575 0.140134,-0.000610236zm-0.824921 0.0839685l0 0c0.014563,-0.0280079 0.0168307,-0.0494449 0,-0.0675748l0 0.0675748zm0.684787 -2.66843l0 0 0 0.442378c-0.0250079,-0.0359764 -0.0490157,-0.0729173 -0.0716732,-0.108614 -0.120512,-0.189921 -0.0477008,-0.285831 0.0716732,-0.333764zm0 0.501181l0 0c-0.0477402,-0.0472559 -0.100457,-0.0943976 -0.148665,-0.133665 -0.148709,-0.121114 -0.350429,0.40085 -0.240079,0.490724 0.0842205,0.0685906 0.295346,0.175453 0.388744,0.185228l0 -0.542287zm0 0.631571l0 0 0 0.388685c-0.156012,-0.0264173 -0.379181,-0.090622 -0.439795,-0.130244 -0.0989646,-0.0646378 -0.0555433,-0.500059 0.0377362,-0.448028 0.0697992,0.0389213 0.289059,0.119205 0.402059,0.189587zm0 0.470445l0 0c-0.096248,-0.0219528 -0.214547,-0.0348465 -0.297106,-0.0638661 -0.149598,-0.052563 0.145236,0.360697 0.297106,0.510949l0 -0.447083zm0 0.583327l0 0 0 0.336098c-0.152028,0.0110197 -0.325472,0.0195039 -0.458567,0.0183386 -0.10735,-0.000940945 -0.177232,-0.00391339 -0.22622,-0.0165512l0 -0.483118c0.00824803,0.000185039 0.0167953,0.000566929 0.0257323,0.00122835 0.267331,0.0199055 0.48348,0.0549134 0.659055,0.144004zm0 0.398551l0 0 0 0.3415c-0.181717,0.114772 -0.391122,0.230122 -0.515437,0.262295 -0.102087,0.0264331 -0.14976,-0.0043622 -0.16935,-0.0607008l0 -0.220035c0.00464567,-0.0339016 0.00951969,-0.0663898 0.0122205,-0.0945945 0.0148898,-0.155469 0.179748,-0.220693 0.350811,-0.224972 0.0835472,-0.00211024 0.206024,-0.00296063 0.321756,-0.00349213zm-0.745335 0.592134l0 0c-0.0284291,-0.0630709 -0.0569055,-0.341622 0.0125354,-0.436677 0.0206654,-0.0282835 0.0375197,-0.0519094 0.0480118,-0.0720984l0 -0.0675748c-0.0117913,-0.012685 -0.0329331,-0.0238031 -0.0658228,-0.0344291 -0.113709,-0.0367362 -0.157087,-0.159835 -0.18002,-0.298228 -0.0229409,-0.138382 0.0307008,-0.214984 -0.107673,-0.239929 -0.138394,-0.0249213 -0.754004,0.160106 -0.691555,0.64189 0.0624528,0.481756 0.352449,0.518894 0.577181,0.566291 0.224748,0.0473819 0.494598,0.0197874 0.407343,-0.0592441zm0.0605472 -1.13592l0 0 0 0.483118c-0.0594843,-0.0153583 -0.088185,-0.0449213 -0.11578,-0.102398 -0.0488898,-0.10189 -0.174736,-0.387181 0.11578,-0.38072zm0 0.866843l0 0 0 0.220035c-0.0201299,-0.0578465 -0.010626,-0.142594 0,-0.220035z"/>
  <path class="fil17" d="M4.09742 4.21309c0.0835709,-0.281335 0.11348,-1.0407 0.0556654,-1.39101 -0.057811,-0.350315 -0.126177,-0.158618 -0.219248,-0.122724 -0.0485984,0.0187283 -0.093374,-0.00724016 -0.133933,-0.000405512l0 0.848563c0.0741654,0.290835 0.160453,0.572358 0.168185,0.648024 0.0151457,0.147949 0.0975866,0.124476 0.129331,0.0175551zm-0.297516 0.480484l0 0 0 -0.187142c0.0237402,-0.000204724 0.0438819,-0.000413386 0.0591732,-0.000688976 0.105346,-0.00198031 0.101091,0.0424094 0.061122,0.081689 -0.0022126,0.0134016 -0.0487441,0.0535433 -0.120295,0.106142zm0 -0.268748l0 0 0 -0.161417c0.092,0.0714528 0.15839,0.141169 0.0589724,0.154386 -0.0167756,0.00223228 -0.0366378,0.00459055 -0.0589724,0.0070315zm0 -1.72588l0 0c-0.0371063,0.00624016 -0.0706693,0.0399803 -0.10035,0.160693 -0.0303622,0.123453 0.0294685,0.409929 0.10035,0.68787l0 -0.848563zm0 1.56446l0 0 0 0.161417c-0.168323,0.0183071 -0.478535,0.0404291 -0.688398,0.0385984 -0.237697,-0.00209449 -0.291693,-0.014122 -0.342,-0.118949 -0.0502835,-0.104803 -0.182004,-0.403583 0.141512,-0.379492 0.32352,0.0240866 0.572094,0.0702953 0.76448,0.207701 0.0384685,0.0274685 0.0839173,0.0592756 0.124406,0.0907244zm0 0.243024l0 0 0 0.187142c-0.191157,0.140524 -0.561331,0.37015 -0.745268,0.41776 -0.25278,0.0654488 -0.172012,-0.219886 -0.15713,-0.375331 0.0148898,-0.155469 0.179748,-0.220693 0.350811,-0.224972 0.146252,-0.00369685 0.41178,-0.00351575 0.551587,-0.00459843z"/>
  <path class="fil16" d="M4.03638 4.21707c0.0166417,-0.112587 0.00804724,-0.345425 -0.0065748,-0.577827l0 0.530386c0.00224409,0.0163583 0.00444488,0.0322205 0.0065748,0.0474409zm-0.0065748 -1.12872l0 0 0 -0.194898c0.0276457,-0.0559921 0.084063,-0.0539803 0.104417,0.145142 0.0304055,0.29726 0.0190394,0.945996 -0.0666929,1.15085 0.0207835,-0.319004 -0.0122835,-0.872157 -0.0377244,-1.10109zm0 0.550898l0 0c-0.0157126,-0.249827 -0.0383858,-0.499142 -0.0441614,-0.597961 -0.00427953,-0.0729724 -0.0245276,-0.114976 -0.0465118,-0.129886l0 0.570217c0.0299016,0.229835 0.0642244,0.495665 0.0906732,0.688016l0 -0.530386zm0 -0.745795l0 0 0 0.194898c-0.00437008,-0.0393465 -0.00852362,-0.0691732 -0.012126,-0.0865236 -0.00814173,-0.0391299 -0.0015,-0.0807913 0.012126,-0.108374zm-0.0906732 1.10535l0 0 0 -0.269583c0.0302244,0.207059 0.0572362,0.400795 0.0633701,0.482965 -0.0203386,-0.0594252 -0.0418031,-0.132764 -0.0633701,-0.213382zm0 -1.0874l0 0c-0.0354724,-0.0240472 -0.0754488,0.0225866 -0.0599213,0.124063 0.0112008,0.0731575 0.0338937,0.246008 0.0599213,0.446154l0 -0.570217zm0 0.817815l0 0 0 0.269583c-0.089378,-0.334134 -0.180457,-0.79389 -0.199354,-0.912949 -0.0234685,-0.147776 0.0877402,-0.175843 0.102937,-0.0272126 0.00874016,0.0854882 0.0555118,0.390236 0.0964173,0.670579z"/>
  <path class="fil16" d="M3.82789 4.34625c-0.129008,-0.0675866 -0.284717,-0.115984 -0.429244,-0.148205l0 0.109984c0.118953,0.0131024 0.260575,0.0259961 0.429244,0.0382205zm-0.429244 0.0755079l0 0 0 -0.0896693c0.150213,0.0127913 0.31239,0.0271102 0.416071,0.045752 -0.149264,0.0239449 -0.292087,0.0378622 -0.416071,0.0439173zm0 -0.252193l0 0 0 -0.0833425c0.161547,0.055437 0.292362,0.133606 0.410272,0.222972 -0.146185,-0.0658819 -0.287937,-0.110276 -0.410272,-0.13963zm0 0.0284803l0 0c-0.111858,-0.0249331 -0.217012,-0.0402205 -0.297909,-0.0472087 -0.185398,-0.0160354 -0.185118,0.0836535 -0.0290472,0.111748 0.0834606,0.0150079 0.190244,0.030378 0.326957,0.0454449l0 -0.109984zm0 -0.111823l0 0 0 0.0833425c-0.144453,-0.0346142 -0.261815,-0.0482205 -0.327264,-0.0513071 -0.12087,-0.00572047 -0.23635,-0.141571 0.0591024,-0.0968268 0.0986102,0.0149173 0.187236,0.0370118 0.268161,0.0647913zm0 0.245866l0 0 0 0.0896693c-0.12087,0.00585827 -0.223846,0.00431496 -0.297382,-0.00267323 -0.148969,-0.0141693 -0.162098,-0.140028 -0.014374,-0.117661 0.0674882,0.0102244 0.18539,0.0198937 0.311756,0.0306654z"/>
  <path class="fil10" d="M3.63054 1.99619c0.164291,-0.10228 0.451272,0.423476 0.275587,0.506799 -0.175685,0.083311 -0.466327,-0.388051 -0.275587,-0.506799z"/>
  <path class="fil10" d="M4.04596 2.71726c-0.069378,0.0189724 -0.0676732,0.122776 0.00614173,0.118217 0.0737992,-0.00458268 0.0605748,-0.133953 -0.00614173,-0.118217z"/>
  <path class="fil10" d="M3.91252 2.74873c0.0693543,-0.0189724 0.0732205,0.135098 -0.00118504,0.133811 -0.0744094,-0.00129921 -0.0626772,-0.148075 0.00118504,-0.133811z"/>
  <path class="fil10" d="M3.78222 2.79137c0.0515551,-0.00778346 0.0536181,0.134134 -0.00832677,0.137965 -0.0619409,0.00384646 -0.0634843,-0.133122 0.00832677,-0.137965z"/>
  <path class="fil10" d="M3.25193 2.51958c-0.0824803,0.222087 0.264622,0.452406 0.345902,0.227488 0.0771732,-0.213571 -0.26137,-0.455043 -0.345902,-0.227488z"/>
  <path class="fil10" d="M3.16849 3.13222c-0.0161457,0.177827 0.462937,0.37761 0.406606,0.0898386 -0.0418661,-0.213831 -0.382319,-0.357764 -0.406606,-0.0898386z"/>
  <path class="fil10" d="M3.47447 3.74989c-0.0841535,-0.14328 0.163323,-0.235913 0.235303,0.00892126 0.062311,0.211886 -0.0545512,0.298764 -0.235303,-0.00892126z"/>
  <path class="fil12" d="M2.89224 4.05021c0.0163701,0.0495236 -0.123138,0.0755551 -0.137398,0.0151496 -0.0142677,-0.0604016 0.120465,-0.0850827 0.137398,-0.0151496z"/>
  <path class="fil12" d="M2.91186 4.18757c0.0122835,0.050685 -0.133256,0.091748 -0.14626,0.00591339 -0.0129764,-0.0858307 0.135075,-0.0770157 0.14626,-0.00591339z"/>
  <path class="fil12" d="M2.94883 4.32934c0.0122913,0.0506732 -0.117579,0.0830236 -0.136638,0.0072874 -0.0190433,-0.0757244 0.125476,-0.0783858 0.136638,-0.0072874z"/>
  <path class="fil12" d="M3.04114 4.64147c0.0292835,0.0244173 -0.0328937,0.0999567 -0.0770551,0.0637756 -0.0441575,-0.0361811 0.0395512,-0.100669 0.0770551,-0.0637756z"/>
  <path class="fil12" d="M3.02516 4.80509c0.0239685,0.0414213 -0.0709685,0.100197 -0.107394,0.0384843 -0.0364331,-0.0617047 0.0791142,-0.0981614 0.107394,-0.0384843z"/>
  <path class="fil12" d="M3.04461 4.97309c0.0239685,0.0413937 -0.0928386,0.152303 -0.131378,0.0477165 -0.0385394,-0.104547 0.103087,-0.107417 0.131378,-0.0477165z"/>
  <path class="fil16" d="M3.88323 4.58365c-0.126268,0.0772559 -0.275697,0.141146 -0.414902,0.186953l0 -0.118933c0.110457,-0.0214528 0.244646,-0.0442362 0.414902,-0.0680197zm-0.414902 0.297776l0 0c0.148925,-0.0776496 0.284232,-0.160382 0.398425,-0.259535 -0.145264,0.0774528 -0.281917,0.136465 -0.398425,0.178665l0 0.0808701zm0 -0.256425l0 0c0.143055,-0.0221142 0.297406,-0.0464961 0.399654,-0.0719921 -0.150465,-0.0140039 -0.284642,-0.0193307 -0.399654,-0.0180669l0 0.0900591zm0 0.145602l0 0c-0.10376,0.0341535 -0.201835,0.0582835 -0.280386,0.070374 -0.183921,0.0282953 -0.171224,-0.0845 -0.0173661,-0.12287 0.0810945,-0.0202244 0.174693,-0.0425118 0.297752,-0.066437l0 0.118933zm0 -0.235661l0 0c-0.112185,0.0012126 -0.206122,0.00870472 -0.279063,0.0205512 -0.147701,0.0240118 -0.165929,0.151862 -0.0200118,0.119748 0.0666378,-0.0146811 0.17887,-0.0316732 0.299075,-0.0502402l0 -0.0900591zm0 0.265614l0 0c-0.130969,0.0474528 -0.236476,0.0736417 -0.30011,0.0808937 -0.120209,0.0137205 -0.152272,0.217358 0.0827126,0.106819 0.0749409,-0.0352638 0.147661,-0.0705 0.217398,-0.106843l0 -0.0808701z"/>
  <path class="fil12" d="M2.31584 4.15798c-0.37226,0.0561575 -0.524591,0.707646 0.0013937,0.81535 0.577,0.118185 0.372724,-0.871776 -0.0013937,-0.81535z"/>
  <path class="fil16" d="M4.38755 4.29187c0.0656102,0.246449 -0.450079,0.899331 -0.928638,0.885236 0.544988,-0.249276 0.564429,-0.570768 0.671346,-0.787744 0.0557008,-0.113012 0.108083,-0.137819 0.16137,-0.169626 -0.0188268,-0.0383701 -0.0168937,-0.0833819 0.0090315,-0.116764 0.0375945,-0.0484213 0.111457,-0.0539803 0.164965,-0.0123976 0.0535276,0.0415669 0.0664173,0.114508 0.0288071,0.162913 -0.0250787,0.0323031 -0.0663228,0.0455079 -0.106882,0.0383819z"/>
  <path class="fil2" d="M4.45119 4.13295c0.125575,-0.600819 0.638661,-0.0410984 0.756925,-0.698988"/>
  <path class="fil3" d="M4.44542 4.13175c0.062189,-0.297551 0.218016,-0.314476 0.375169,-0.331543 0.16028,-0.0173976 0.322,-0.0349646 0.381732,-0.367283l0.0115945 0.0020748c-0.0612992,0.34102 -0.227429,0.359067 -0.392083,0.376945 -0.152862,0.0165984 -0.304433,0.0330591 -0.364866,0.322209l-0.0115472 -0.00240157z"/>
  <path class="fil4" d="M5.27082 3.40422c0.0142835,0.017622 0.0116024,0.0434685 -0.00601181,0.0577638 -0.0175984,0.0142874 -0.0434685,0.0115945 -0.0577559,-0.00600787 -0.0142835,-0.0176142 -0.0115669,-0.0434724 0.00603543,-0.0577638 0.0175984,-0.0142756 0.0434449,-0.0115945 0.0577323,0.00600787z"/>
 </g>
</svg>
