<?xml version="1.0" encoding="UTF-8"?>
<!DOCTYPE svg PUBLIC "-//W3C//DTD SVG 1.1//EN" "http://www.w3.org/Graphics/SVG/1.1/DTD/svg11.dtd">
<!-- Creator: CorelDRAW -->
<svg xmlns="http://www.w3.org/2000/svg" xml:space="preserve" width="6.82666in" height="6.82666in" style="shape-rendering:geometricPrecision; text-rendering:geometricPrecision; image-rendering:optimizeQuality; fill-rule:evenodd; clip-rule:evenodd"
viewBox="0 0 6.82666 6.82666"
 xmlns:xlink="http://www.w3.org/1999/xlink">
 <defs>
  <style type="text/css">
   <![CDATA[
    .fil2 {fill:none}
    .fil9 {fill:#263238}
    .fil8 {fill:#3C5E19}
    .fil10 {fill:#D50000}
    .fil1 {fill:#E9DC6E}
    .fil0 {fill:#FFF176}
    .fil7 {fill:#263238;fill-rule:nonzero}
    .fil6 {fill:#3C5E19;fill-rule:nonzero}
    .fil5 {fill:#517A28;fill-rule:nonzero}
    .fil4 {fill:#5A8A2B;fill-rule:nonzero}
    .fil3 {fill:#669933;fill-rule:nonzero}
   ]]>
  </style>
   <clipPath id="id0">
    <path d="M3.41333 -3.93701e-006c1.88513,0 3.41333,1.5282 3.41333,3.41333 0,1.88513 -1.5282,3.41333 -3.41333,3.41333 -1.88513,0 -3.41333,-1.5282 -3.41333,-3.41333 0,-1.88513 1.5282,-3.41333 3.41333,-3.41333z"/>
   </clipPath>
 </defs>
 <g id="Layer_x0020_1">
  <metadata id="CorelCorpID_0Corel-Layer"/>
  <path class="fil0" d="M3.41333 -3.93701e-006c1.88513,0 3.41333,1.5282 3.41333,3.41333 0,1.88513 -1.5282,3.41333 -3.41333,3.41333 -1.88513,0 -3.41333,-1.5282 -3.41333,-3.41333 0,-1.88513 1.5282,-3.41333 3.41333,-3.41333z"/>
  <g style="clip-path:url(#id0)">
   <g id="_637652872">
    <g>
     <polygon id="_2169220321" class="fil1" points="2.54406,3.03619 6.33032,6.82246 6.33467,6.82672 6.33899,6.83103 6.34326,6.8354 6.3475,6.83981 6.35169,6.84428 6.35584,6.8488 6.35995,6.85338 6.36402,6.858 6.36805,6.86267 6.37203,6.86739 6.37597,6.87217 6.37987,6.87699 6.38373,6.88186 6.38754,6.88678 6.3913,6.89174 6.39503,6.89676 6.3987,6.90181 6.40233,6.90692 6.40592,6.91207 2.61965,3.1258 2.61607,3.12065 2.61244,3.11554 2.60876,3.11048 2.60504,3.10547 2.60127,3.1005 2.59746,3.09559 2.59361,3.09072 2.5897,3.0859 2.58576,3.08112 2.58178,3.0764 2.57775,3.07173 2.57369,3.06711 2.56957,3.06253 2.56542,3.05801 2.56123,3.05354 2.557,3.04913 2.55272,3.04476 2.54841,3.04045 "/>
     <polygon id="_216922176" class="fil1" points="3.02415,3.10272 6.81042,6.889 6.81322,6.89181 6.81598,6.89468 6.81872,6.89761 6.82142,6.9006 6.82409,6.90364 3.03782,3.11737 3.03515,3.11433 3.03245,3.11134 3.02972,3.10841 3.02695,3.10554 "/>
     <polygon id="_216924528" class="fil1" points="3.09109,3.1132 6.87736,6.89947 6.88002,6.90261 3.09375,3.11634 "/>
     <polygon id="_216924096" class="fil1" points="3.44697,3.10514 7.23324,6.89141 7.23598,6.89424 7.23869,6.89713 7.24136,6.90007 7.244,6.90307 3.45774,3.1168 3.45509,3.1138 3.45242,3.11086 3.44971,3.10797 "/>
     <polygon id="_216924024" class="fil1" points="3.50818,3.11393 7.29444,6.9002 7.29601,6.90181 3.50974,3.11554 "/>
     <polygon id="_216924144" class="fil1" points="3.86453,3.10751 7.6508,6.89378 7.6537,6.89686 7.65657,6.90001 7.65939,6.90322 7.66218,6.90649 3.87591,3.12022 3.87313,3.11694 3.8703,3.11374 3.86743,3.11059 "/>
     <polygon id="_216924312" class="fil1" points="4.27711,3.11106 8.06338,6.89733 8.06713,6.90149 8.07081,6.90576 8.07443,6.91015 8.07798,6.91464 8.08145,6.91925 8.08485,6.92397 4.29858,3.1377 4.29518,3.13298 4.29171,3.12837 4.28816,3.12387 4.28455,3.11949 4.28086,3.11522 "/>
     <polygon id="_216924432" class="fil1" points="4.67756,3.15411 8.46382,6.94038 8.47047,6.9478 8.47694,6.95548 8.48322,6.96344 8.48929,6.97167 8.49516,6.98017 8.50081,6.98893 8.50623,6.99795 8.51142,7.00724 8.51636,7.01679 4.73009,3.23052 4.72515,3.22097 4.71996,3.21168 4.71454,3.20266 4.70889,3.1939 4.70302,3.1854 4.69695,3.17717 4.69067,3.16921 4.6842,3.16152 "/>
     <polygon id="_216924384" class="fil1" points="4.77539,3.23631 8.56165,7.02258 8.56381,7.02531 4.77754,3.23904 "/>
     <polygon id="_216924600" class="fil1" points="4.77754,3.23904 8.56381,7.02531 8.56522,7.02845 8.5666,7.03157 8.56794,7.03469 8.56925,7.03781 8.57052,7.04092 8.57175,7.04402 8.57295,7.04712 8.57411,7.05021 4.78785,3.26394 4.78668,3.26085 4.78548,3.25775 4.78425,3.25465 4.78298,3.25154 4.78168,3.24842 4.78033,3.2453 4.77896,3.24218 "/>
     <polygon id="_216924624" class="fil1" points="4.99624,3.29759 8.7825,7.08386 8.78743,7.08968 8.79222,7.09577 8.79688,7.10214 8.80139,7.10879 8.80576,7.11571 8.80997,7.12291 8.81401,7.13038 8.81789,7.13813 8.82159,7.14615 8.82512,7.15444 8.82846,7.16302 8.83161,7.17186 8.83456,7.18098 5.04829,3.39471 5.04534,3.38559 5.04219,3.37674 5.03885,3.36817 5.03533,3.35988 5.03162,3.35185 5.02774,3.34411 5.0237,3.33664 5.01949,3.32944 5.01513,3.32252 5.01061,3.31587 5.00596,3.3095 5.00117,3.30341 "/>
     <polygon id="_216924864" class="fil1" points="5.04829,3.39471 8.83456,7.18098 8.8355,7.18409 8.83643,7.18718 8.83734,7.19028 8.83823,7.19336 8.8391,7.19644 8.83995,7.19952 8.84079,7.20259 8.84161,7.20565 5.05534,3.41938 5.05452,3.41631 5.05369,3.41324 5.05283,3.41017 5.05196,3.40709 5.05107,3.404 5.05016,3.40091 5.04923,3.39781 "/>
     <polygon id="_216925056" class="fil1" points="5.1122,3.39359 8.89847,7.17987 8.90053,7.18232 8.90233,7.18494 8.90389,7.18771 8.90518,7.1906 8.9062,7.19359 8.90694,7.19667 8.90741,7.19981 8.90757,7.203 8.90744,7.20621 8.90701,7.20942 8.90626,7.21261 8.9052,7.21577 5.11893,3.4295 5.12,3.42634 5.12074,3.42315 5.12118,3.41994 5.12131,3.41673 5.12114,3.41354 5.12068,3.4104 5.11993,3.40732 5.11891,3.40433 5.11762,3.40144 5.11607,3.39867 5.11426,3.39605 "/>
     <polygon id="_216925512" class="fil1" points="5.22475,3.47594 9.01102,7.26221 9.01415,7.26579 9.01719,7.26951 9.02013,7.27336 9.02299,7.27734 9.02575,7.28146 9.02841,7.28572 9.03097,7.29011 9.03343,7.29463 9.03577,7.29929 9.038,7.30409 9.04013,7.30902 9.04213,7.31409 5.25586,3.52782 5.25386,3.52275 5.25174,3.51782 5.2495,3.51302 5.24716,3.50836 5.2447,3.50383 5.24214,3.49944 5.23948,3.49519 5.23672,3.49107 5.23387,3.48709 5.23092,3.48324 5.22788,3.47952 "/>
     <polygon id="_216925440" class="fil1" points="5.25586,3.52782 9.04213,7.31409 9.04572,7.324 9.04898,7.33384 9.05192,7.3436 9.05456,7.35328 9.05689,7.3629 9.05893,7.37244 9.0607,7.38191 9.0622,7.39131 9.06345,7.40065 9.06446,7.40992 9.06523,7.41912 9.06578,7.42826 9.06612,7.43734 9.06626,7.44635 9.06621,7.4553 9.06598,7.4642 9.06559,7.47303 9.06504,7.4818 9.06434,7.49052 9.06351,7.49919 9.06256,7.5078 9.06149,7.51636 9.06033,7.52486 9.05907,7.53332 9.05773,7.54172 9.05632,7.55008 9.05486,7.55839 9.05335,7.56665 9.0518,7.57487 9.05023,7.58305 9.04865,7.59118 9.04706,7.59927 5.26079,3.813 5.26238,3.80491 5.26396,3.79678 5.26554,3.7886 5.26708,3.78038 5.26859,3.77212 5.27006,3.76381 5.27146,3.75545 5.2728,3.74705 5.27406,3.73859 5.27522,3.73009 5.27629,3.72153 5.27724,3.71292 5.27807,3.70425 5.27877,3.69553 5.27932,3.68676 5.27972,3.67793 5.27994,3.66903 5.27999,3.66008 5.27985,3.65107 5.27951,3.64199 5.27896,3.63285 5.27819,3.62365 5.27719,3.61438 5.27594,3.60504 5.27443,3.59564 5.27267,3.58617 5.27062,3.57663 5.26829,3.56701 5.26565,3.55733 5.26272,3.54757 5.25945,3.53773 "/>
     <polygon id="_216925488" class="fil1" points="5.26079,3.813 9.04706,7.59927 9.04385,7.61553 5.25758,3.82926 "/>
     <polygon id="_216925320" class="fil1" points="5.25758,3.82926 9.04385,7.61553 9.04242,7.62175 9.0406,7.62774 9.03839,7.63349 9.03582,7.63901 9.03289,7.6443 9.02962,7.64935 9.02603,7.65418 9.02213,7.65878 9.01793,7.66315 9.01344,7.66729 9.00869,7.6712 9.00368,7.67489 8.99843,7.67836 8.99296,7.6816 8.98727,7.68462 8.98139,7.68742 5.19512,3.90115 5.201,3.89835 5.20669,3.89533 5.21216,3.89209 5.21741,3.88862 5.22242,3.88493 5.22717,3.88102 5.23166,3.87687 5.23586,3.87251 5.23976,3.86791 5.24335,3.86308 5.24662,3.85803 5.24955,3.85274 5.25212,3.84722 5.25433,3.84147 5.25615,3.83548 "/>
     <polygon id="_216924816" class="fil1" points="5.19512,3.90115 8.98139,7.68742 8.97707,7.68928 8.97265,7.69102 8.96814,7.69265 8.96355,7.69417 8.95888,7.69557 8.95414,7.69685 8.94934,7.69802 8.94449,7.69907 8.93959,7.70001 8.93464,7.70083 8.92967,7.70155 8.92467,7.70214 8.91965,7.70262 8.91461,7.70299 8.90957,7.70324 8.90454,7.70338 5.11828,3.91711 5.12331,3.91697 5.12835,3.91672 5.13338,3.91635 5.1384,3.91587 5.1434,3.91528 5.14837,3.91456 5.15332,3.91374 5.15822,3.9128 5.16307,3.91175 5.16787,3.91058 5.17261,3.9093 5.17728,3.90789 5.18187,3.90638 5.18638,3.90475 5.1908,3.90301 "/>
     <polygon id="_216925464" class="fil1" points="5.11828,3.91711 8.90454,7.70338 8.89951,7.70341 8.89448,7.70332 8.88945,7.70312 8.88444,7.7028 8.87946,7.70237 8.8745,7.70183 8.86959,7.70117 8.86471,7.70041 8.85989,7.69952 8.85513,7.69853 8.85043,7.69742 8.84581,7.6962 8.84127,7.69487 8.83682,7.69342 8.83246,7.69186 8.8282,7.69019 5.04194,3.90392 5.04619,3.90559 5.05055,3.90715 5.055,3.90859 5.05954,3.90993 5.06417,3.91115 5.06886,3.91226 5.07362,3.91325 5.07844,3.91413 5.08332,3.9149 5.08824,3.91556 5.09319,3.9161 5.09818,3.91653 5.10319,3.91685 5.10821,3.91705 5.11324,3.91714 "/>
     <polygon id="_216924912" class="fil1" points="5.04194,3.90392 8.8282,7.69019 8.82287,7.68788 8.81771,7.68538 8.81273,7.68269 8.80793,7.67982 8.80334,7.67676 8.79896,7.67352 8.79481,7.67009 8.79089,7.66647 5.00462,3.8802 5.00854,3.88382 5.0127,3.88725 5.01707,3.89049 5.02167,3.89355 5.02646,3.89642 5.03144,3.89911 5.03661,3.90161 "/>
     <polygon id="_216925008" class="fil1" points="5.00462,3.8802 8.79089,7.66647 8.78758,7.66895 8.78419,7.67136 8.78072,7.67369 8.77716,7.67594 8.77352,7.67812 8.76981,7.68022 8.76602,7.68224 8.76217,7.6842 4.9759,3.89793 4.97976,3.89597 4.98354,3.89395 4.98726,3.89185 4.99089,3.88967 4.99445,3.88741 4.99792,3.88509 5.00131,3.88268 "/>
     <polygon id="_216925152" class="fil1" points="4.98357,3.906 8.76984,7.69227 8.77368,7.69643 8.7775,7.70069 8.78129,7.70502 8.78506,7.70943 8.78878,7.71392 8.79246,7.71848 8.79609,7.72312 8.79965,7.72782 8.80314,7.73259 8.80655,7.73742 8.80987,7.74231 8.8131,7.74726 8.81622,7.75227 8.81924,7.75732 8.82213,7.76243 8.8249,7.76758 8.82752,7.77278 8.83001,7.77801 8.83234,7.78329 8.83452,7.7886 8.83652,7.79394 8.83835,7.79931 8.83999,7.80472 8.84144,7.81014 8.84269,7.81559 8.84373,7.82106 8.84455,7.82654 8.84515,7.83204 8.84552,7.83754 8.84564,7.84306 5.05937,4.05679 5.05925,4.05127 5.05888,4.04576 5.05828,4.04027 5.05746,4.03478 5.05642,4.02931 5.05517,4.02387 5.05372,4.01844 5.05208,4.01304 5.05025,4.00767 5.04825,4.00233 5.04607,3.99702 5.04374,3.99174 5.04126,3.9865 5.03863,3.98131 5.03586,3.97616 5.03297,3.97105 5.02996,3.966 5.02683,3.96099 5.02361,3.95604 5.02028,3.95115 5.01687,3.94632 5.01338,3.94155 5.00982,3.93685 5.00619,3.93221 5.00252,3.92765 4.99879,3.92316 4.99502,3.91875 4.99123,3.91441 4.98741,3.91016 "/>
     <polygon id="_216926064" class="fil1" points="4.9077,3.91863 8.69396,7.7049 8.68894,7.70563 8.6839,7.70628 8.67884,7.70684 8.67376,7.70731 8.66868,7.7077 8.66358,7.708 8.65849,7.70821 8.6534,7.70834 4.86713,3.92207 4.87222,3.92194 4.87731,3.92172 4.88241,3.92143 4.8875,3.92104 4.89257,3.92057 4.89763,3.92 4.90268,3.91936 "/>
     <polygon id="_216925656" class="fil1" points="4.86713,3.92207 8.6534,7.70834 8.64666,7.70837 8.63992,7.70826 8.6332,7.70799 8.6265,7.70757 8.61984,7.707 8.61322,7.70628 8.60665,7.70541 8.60015,7.70439 8.59371,7.70322 8.58736,7.70189 8.58111,7.70043 8.57495,7.6988 8.56891,7.69704 8.56298,7.69511 8.55719,7.69305 8.55154,7.69083 4.76527,3.90456 4.77092,3.90678 4.77671,3.90884 4.78264,3.91076 4.78868,3.91253 4.79484,3.91415 4.80109,3.91562 4.80744,3.91694 4.81388,3.91811 4.82038,3.91914 4.82695,3.92001 4.83357,3.92073 4.84023,3.9213 4.84693,3.92172 4.85365,3.92198 4.86039,3.9221 "/>
     <polygon id="_216925680" class="fil1" points="4.7004,3.85274 8.48667,7.63901 8.48245,7.64273 8.47809,7.64634 8.4736,7.64983 8.46897,7.65322 8.46422,7.65649 8.45933,7.65965 8.45433,7.6627 8.44921,7.66565 4.66294,3.87937 4.66806,3.87643 4.67307,3.87338 4.67795,3.87022 4.6827,3.86695 4.68733,3.86356 4.69183,3.86007 4.69619,3.85646 "/>
     <polygon id="_216925752" class="fil1" points="4.9217,3.93286 8.70797,7.71913 8.70446,7.71545 8.70095,7.71185 8.69745,7.70833 8.69396,7.7049 4.9077,3.91863 4.91118,3.92206 4.91469,3.92557 4.91819,3.92918 "/>
     <polygon id="_216925776" class="fil1" points="5.05937,4.05679 8.84564,7.84306 8.84564,7.94563 5.05937,4.15935 "/>
     <polygon id="_216925536" class="fil1" points="4.76527,3.90456 8.55154,7.69083 8.54632,7.6886 8.54123,7.68623 8.53627,7.68373 8.53145,7.6811 8.52678,7.67833 8.52226,7.67543 8.51789,7.67239 8.51369,7.66922 8.50966,7.66592 8.5058,7.66248 8.50212,7.65891 4.71585,3.87264 4.71953,3.87621 4.72339,3.87965 4.72742,3.88295 4.73163,3.88612 4.73599,3.88916 4.74051,3.89206 4.74519,3.89483 4.75,3.89746 4.75496,3.89996 4.76005,3.90233 "/>
     <polygon id="_216925728" class="fil1" points="5.05937,4.15935 8.84564,7.94563 8.84489,7.9508 8.84275,7.95561 8.83936,7.95996 8.83487,7.96376 8.82943,7.96689 8.82319,7.96925 8.81629,7.97075 8.80889,7.97127 5.02262,4.185 5.03002,4.18448 5.03692,4.18298 5.04317,4.18062 5.04861,4.17748 5.05309,4.17369 5.05648,4.16933 5.05862,4.16452 "/>
     <polygon id="_216925920" class="fil1" points="5.02262,4.185 8.80889,7.97127 8.80148,7.97075 8.79458,7.96925 8.78834,7.96689 8.7829,7.96376 8.77841,7.95996 4.99214,4.17369 4.99663,4.17748 5.00207,4.18062 5.00831,4.18298 5.01521,4.18448 "/>
     <polygon id="_216925944" class="fil1" points="4.68483,3.90098 8.47109,7.68725 8.47554,7.69196 8.47997,7.69678 8.48438,7.70171 8.48876,7.70675 8.4931,7.7119 8.49737,7.71715 8.50158,7.72249 8.5057,7.72793 8.50974,7.73345 8.51365,7.73906 8.51746,7.74474 8.52112,7.7505 8.52464,7.75634 8.528,7.76224 8.5312,7.7682 8.5342,7.77422 8.53702,7.78029 8.53962,7.78641 8.54201,7.79258 8.54416,7.79879 8.54606,7.80504 8.54771,7.81132 8.54908,7.81763 8.55017,7.82396 8.55097,7.83031 8.55145,7.83668 8.55162,7.84306 4.76535,4.05679 4.76519,4.05041 4.7647,4.04404 4.76391,4.03769 4.76281,4.03135 4.76144,4.02505 4.7598,4.01877 4.75789,4.01252 4.75574,4.00631 4.75335,4.00014 4.75075,3.99402 4.74794,3.98794 4.74493,3.98193 4.74174,3.97596 4.73837,3.97007 4.73485,3.96423 4.73119,3.95847 4.72739,3.95279 4.72347,3.94718 4.71944,3.94166 4.71531,3.93622 4.71111,3.93088 4.70683,3.92563 4.7025,3.92048 4.69811,3.91544 4.6937,3.9105 4.68927,3.90569 "/>
     <polygon id="_216926040" class="fil1" points="4.62624,3.93133 8.4125,7.71761 8.40852,7.71346 8.40454,7.70943 8.40057,7.7055 8.39663,7.70169 8.39273,7.698 8.38889,7.69444 8.38511,7.691 4.59884,3.90473 4.60262,3.90817 4.60646,3.91173 4.61036,3.91542 4.6143,3.91923 4.61827,3.92316 4.62225,3.92719 "/>
     <polygon id="_216925608" class="fil1" points="4.59884,3.90473 8.38511,7.691 8.37963,7.69241 8.3741,7.69373 8.36853,7.69497 8.36292,7.69613 8.35727,7.69719 8.35159,7.69818 8.34588,7.69907 8.34014,7.69989 8.33438,7.70062 8.3286,7.70126 8.32281,7.70182 8.317,7.7023 8.31119,7.70269 8.30537,7.703 8.29954,7.70322 8.29372,7.70336 4.50745,3.91709 4.51328,3.91695 4.5191,3.91672 4.52492,3.91642 4.53073,3.91603 4.53654,3.91555 4.54233,3.91499 4.54811,3.91435 4.55387,3.91362 4.55961,3.9128 4.56532,3.91191 4.571,3.91092 4.57665,3.90985 4.58226,3.9087 4.58783,3.90746 4.59336,3.90614 "/>
     <polygon id="_216926520" class="fil1" points="4.50745,3.91709 8.29372,7.70336 8.28609,7.70341 8.27848,7.70332 8.27087,7.70309 8.26328,7.7027 8.25572,7.70218 8.2482,7.70151 8.24073,7.7007 8.23331,7.69974 8.22594,7.69865 8.21865,7.6974 8.21143,7.69602 8.2043,7.69448 8.19726,7.69281 8.19032,7.691 8.18349,7.68904 8.17677,7.68694 4.3905,3.90067 4.39722,3.90277 4.40405,3.90473 4.41099,3.90654 4.41803,3.90821 4.42517,3.90974 4.43238,3.91113 4.43968,3.91237 4.44704,3.91347 4.45446,3.91443 4.46194,3.91524 4.46946,3.91591 4.47702,3.91643 4.4846,3.91681 4.49221,3.91705 4.49983,3.91714 "/>
     <polygon id="_216926664" class="fil1" points="4.76535,4.05679 8.55162,7.84306 8.55162,7.94563 4.76535,4.15935 "/>
     <polygon id="_216927048" class="fil1" points="4.76535,4.15935 8.55162,7.94563 8.55087,7.9508 8.54873,7.95561 8.54534,7.95996 8.54085,7.96376 8.53541,7.96689 8.52917,7.96925 8.52227,7.97075 8.51486,7.97127 4.72859,4.185 4.736,4.18448 4.7429,4.18298 4.74915,4.18062 4.75459,4.17748 4.75907,4.17369 4.76246,4.16933 4.7646,4.16452 "/>
     <polygon id="_216926760" class="fil1" points="4.72859,4.185 8.51486,7.97127 8.50746,7.97075 8.50056,7.96925 8.49431,7.96689 8.48887,7.96376 8.48439,7.95996 4.69812,4.17369 4.70261,4.17748 4.70805,4.18062 4.71429,4.18298 4.72119,4.18448 "/>
     <polygon id="_216926976" class="fil1" points="4.3905,3.90067 8.17677,7.68694 8.18053,7.69091 8.18428,7.69495 8.18802,7.69908 8.19175,7.70329 8.19544,7.70758 8.19911,7.71194 8.20273,7.71637 8.2063,7.72088 8.20982,7.72544 8.21327,7.73008 8.21665,7.73477 8.21995,7.73953 8.22317,7.74434 8.22628,7.7492 8.2293,7.75412 8.23221,7.75908 8.235,7.76409 8.23766,7.76915 8.24019,7.77424 8.24259,7.77937 8.24483,7.78454 8.24692,7.78975 8.24885,7.79498 8.2506,7.80024 8.25218,7.80554 8.25357,7.81085 8.25477,7.81618 8.25576,7.82153 8.25656,7.82689 8.25713,7.83227 8.25748,7.83766 8.25759,7.84306 4.47133,4.05679 4.47121,4.05139 4.47086,4.046 4.47029,4.04062 4.4695,4.03526 4.4685,4.02991 4.4673,4.02457 4.46591,4.01926 4.46433,4.01397 4.46258,4.00871 4.46065,4.00348 4.45856,3.99827 4.45632,3.9931 4.45393,3.98797 4.45139,3.98287 4.44873,3.97782 4.44594,3.97281 4.44304,3.96785 4.44002,3.96293 4.4369,3.95807 4.43369,3.95326 4.43038,3.9485 4.427,3.94381 4.42355,3.93917 4.42004,3.93461 4.41646,3.9301 4.41284,3.92567 4.40918,3.92131 4.40548,3.91702 4.40176,3.91281 4.39802,3.90868 4.39426,3.90463 "/>
     <polygon id="_216926688" class="fil1" points="4.32712,3.92606 8.11339,7.71233 8.10759,7.70652 8.10183,7.70096 8.09618,7.69565 8.09065,7.69061 8.08529,7.68585 8.08013,7.68139 8.07521,7.67724 8.07058,7.67342 8.06626,7.66994 8.0623,7.6668 8.05874,7.66404 8.0556,7.66165 8.05293,7.65965 8.05077,7.65806 4.2645,3.87179 4.26667,3.87338 4.26933,3.87537 4.27247,3.87776 4.27604,3.88053 4.28,3.88367 4.28431,3.88715 4.28894,3.89097 4.29386,3.89512 4.29902,3.89958 4.30438,3.90433 4.30991,3.90937 4.31557,3.91469 4.32132,3.92025 "/>
     <polygon id="_216926712" class="fil1" points="4.23288,3.88889 8.01915,7.67517 8.01231,7.67813 8.00532,7.68092 7.9982,7.68355 7.99095,7.68601 7.98358,7.68831 7.9761,7.69045 7.96852,7.69243 7.96085,7.69424 7.9531,7.69588 7.94528,7.69737 7.93739,7.69869 7.92945,7.69984 7.92146,7.70084 7.91344,7.70167 7.9054,7.70234 7.89734,7.70285 4.11107,3.91657 4.11913,3.91607 4.12718,3.9154 4.1352,3.91457 4.14318,3.91357 4.15112,3.91241 4.15901,3.91109 4.16683,3.90961 4.17458,3.90796 4.18225,3.90615 4.18983,3.90418 4.19731,3.90204 4.20468,3.89974 4.21193,3.89728 4.21906,3.89465 4.22604,3.89185 "/>
     <polygon id="_216926832" class="fil1" points="4.43457,4.185 8.22084,7.97127 8.21344,7.97075 8.20654,7.96925 8.2003,7.96689 8.19485,7.96376 8.19037,7.95996 4.4041,4.17369 4.40859,4.17748 4.41403,4.18062 4.42027,4.18298 4.42717,4.18448 "/>
     <polygon id="_216926784" class="fil1" points="4.2645,3.87179 8.05077,7.65806 8.04705,7.66042 8.04325,7.66272 8.03939,7.66495 8.03546,7.66712 8.03148,7.66922 8.02743,7.67127 8.02332,7.67325 8.01915,7.67517 4.23288,3.88889 4.23705,3.88698 4.24116,3.885 4.24521,3.88295 4.2492,3.88085 4.25312,3.87868 4.25698,3.87644 4.26078,3.87415 "/>
     <polygon id="_216926400" class="fil1" points="4.47133,4.05679 8.25759,7.84306 8.25759,7.94563 4.47133,4.15935 "/>
     <polygon id="_216927216" class="fil1" points="4.47133,4.15935 8.25759,7.94563 8.25685,7.9508 8.2547,7.95561 8.25132,7.95996 8.24683,7.96376 8.24139,7.96689 8.23515,7.96925 8.22825,7.97075 8.22084,7.97127 4.43457,4.185 4.44198,4.18448 4.44888,4.18298 4.45512,4.18062 4.46056,4.17748 4.46505,4.17369 4.46844,4.16933 4.47058,4.16452 "/>
     <polygon id="_216927360" class="fil1" points="4.11107,3.91657 7.89734,7.70285 7.90059,7.7066 7.90381,7.71041 7.90701,7.71428 7.91017,7.7182 7.9133,7.72218 7.91637,7.7262 7.9194,7.73028 7.92237,7.7344 7.92528,7.73857 7.92812,7.74278 7.93089,7.74704 7.93359,7.75133 7.9362,7.75566 7.93873,7.76003 7.94117,7.76444 7.9435,7.76888 7.94574,7.77335 7.94787,7.77785 7.94989,7.78238 7.95179,7.78694 7.95357,7.79152 7.95522,7.79612 7.95674,7.80075 7.95812,7.80539 7.95935,7.81006 7.96044,7.81474 7.96138,7.81943 7.96216,7.82414 7.96277,7.82885 7.96321,7.83358 7.96348,7.83832 7.96357,7.84306 4.17731,4.05679 4.17722,4.05205 4.17694,4.04731 4.1765,4.04258 4.17589,4.03787 4.17511,4.03316 4.17418,4.02846 4.17309,4.02378 4.17185,4.01912 4.17047,4.01448 4.16895,4.00985 4.1673,4.00524 4.16552,4.00067 4.16362,3.99611 4.16161,3.99158 4.15948,3.98708 4.15724,3.98261 4.1549,3.97817 4.15246,3.97376 4.14993,3.96939 4.14732,3.96506 4.14462,3.96076 4.14185,3.95651 4.13901,3.9523 4.1361,3.94813 4.13313,3.94401 4.1301,3.93993 4.12703,3.93591 4.12391,3.93193 4.12074,3.92801 4.11755,3.92414 4.11432,3.92033 "/>
     <polygon id="_216927480" class="fil1" points="4.03182,3.92476 7.81809,7.71104 7.81431,7.70726 7.81056,7.70359 7.80683,7.70002 7.80315,7.69657 4.01688,3.9103 4.02056,3.91375 4.02429,3.91731 4.02804,3.92099 "/>
     <polygon id="_216927432" class="fil1" points="3.8892,3.84379 7.67546,7.63006 7.67213,7.6335 7.66867,7.63686 7.66511,7.64014 7.66144,7.64333 7.65766,7.64644 7.65378,7.64947 7.6498,7.65241 7.64572,7.65527 7.64155,7.65805 7.63728,7.66074 7.63293,7.66335 7.62848,7.66588 7.62396,7.66832 7.61935,7.67069 7.61467,7.67297 7.60991,7.67517 3.82364,3.88889 3.8284,3.8867 3.83308,3.88441 3.83769,3.88205 3.84222,3.87961 3.84666,3.87708 3.85102,3.87447 3.85528,3.87178 3.85945,3.869 3.86353,3.86614 3.86752,3.8632 3.87139,3.86017 3.87517,3.85706 3.87884,3.85387 3.88241,3.85059 3.88586,3.84723 "/>
     <polygon id="_216927456" class="fil1" points="4.14056,4.185 7.92682,7.97127 7.91942,7.97075 7.91252,7.96925 7.90627,7.96689 7.90083,7.96376 7.89634,7.95996 4.11007,4.17369 4.11457,4.17748 4.12,4.18062 4.12625,4.18298 4.13315,4.18448 "/>
     <polygon id="_216927552" class="fil1" points="4.01688,3.9103 7.80315,7.69657 7.79945,7.69583 7.79578,7.69505 7.79212,7.69423 7.7885,7.69338 7.78489,7.69249 7.78132,7.69156 7.77778,7.69059 7.77426,7.68959 7.77077,7.68854 7.76731,7.68746 7.76389,7.68634 7.7605,7.68519 7.75715,7.684 7.75382,7.68276 7.75054,7.6815 7.7473,7.68019 3.96103,3.89392 3.96427,3.89522 3.96756,3.89649 3.97088,3.89772 3.97423,3.89892 3.97762,3.90007 3.98105,3.90119 3.9845,3.90227 3.98799,3.90331 3.99151,3.90432 3.99505,3.90529 3.99863,3.90622 4.00223,3.90711 4.00585,3.90796 4.00951,3.90878 4.01319,3.90956 "/>
     <polygon id="_216927168" class="fil1" points="3.96103,3.89392 7.7473,7.68019 7.74185,7.67788 7.73652,7.67546 7.7313,7.67293 7.72619,7.67029 7.72121,7.66754 7.71635,7.66469 7.71161,7.66172 7.70701,7.65864 7.70254,7.65545 7.69822,7.65216 7.69404,7.64875 7.69001,7.64523 7.68613,7.6416 3.89986,3.85533 3.90374,3.85896 3.90777,3.86248 3.91195,3.86589 3.91628,3.86918 3.92074,3.87237 3.92534,3.87544 3.93008,3.87841 3.93494,3.88127 3.93993,3.88402 3.94503,3.88666 3.95026,3.88919 3.95559,3.89161 "/>
     <polygon id="_216927504" class="fil1" points="4.17731,4.05679 7.96357,7.84306 7.96357,7.94563 4.17731,4.15935 "/>
     <polygon id="_216927576" class="fil1" points="4.17731,4.15935 7.96357,7.94563 7.96283,7.9508 7.96069,7.95561 7.9573,7.95996 7.95281,7.96376 7.94737,7.96689 7.94113,7.96925 7.93423,7.97075 7.92682,7.97127 4.14056,4.185 4.14796,4.18448 4.15486,4.18298 4.1611,4.18062 4.16654,4.17748 4.17103,4.17369 4.17442,4.16933 4.17656,4.16452 "/>
     <polygon id="_216927240" class="fil1" points="3.82364,3.88889 7.60991,7.67517 7.60705,7.67643 7.60417,7.67767 7.60126,7.67887 7.59832,7.68005 7.59536,7.68119 7.59237,7.68231 7.58937,7.6834 7.58633,7.68446 3.80007,3.89819 3.8031,3.89713 3.80611,3.89604 3.80909,3.89492 3.81205,3.89378 3.81499,3.8926 3.8179,3.89139 3.82078,3.89016 "/>
     <polygon id="_216927312" class="fil1" points="3.80007,3.89819 7.58633,7.68446 7.59017,7.68845 7.594,7.69252 7.59782,7.69669 7.60163,7.70094 7.60542,7.70526 7.60917,7.70967 7.61289,7.71416 7.61656,7.71872 7.62017,7.72334 7.62372,7.72804 7.6272,7.7328 7.6306,7.73763 7.63392,7.74251 7.63713,7.74745 7.64025,7.75244 7.64325,7.75749 7.64613,7.76259 7.64889,7.76773 7.65151,7.77292 7.65398,7.77814 7.65631,7.78341 7.65847,7.78871 7.66047,7.79404 7.66229,7.79941 7.66393,7.8048 7.66537,7.81021 7.66661,7.81565 7.66765,7.8211 7.66847,7.82657 7.66907,7.83206 7.66943,7.83756 7.66955,7.84306 3.88328,4.05679 3.88316,4.05128 3.8828,4.04579 3.8822,4.0403 3.88138,4.03483 3.88035,4.02937 3.8791,4.02394 3.87766,4.01852 3.87602,4.01313 3.8742,4.00777 3.8722,4.00244 3.87004,3.99714 3.86772,3.99187 3.86524,3.98665 3.86262,3.98146 3.85987,3.97632 3.85698,3.97122 3.85398,3.96617 3.85087,3.96118 3.84765,3.95624 3.84433,3.95135 3.84093,3.94653 3.83746,3.94177 3.83391,3.93707 3.83029,3.93244 3.82662,3.92789 3.82291,3.9234 3.81915,3.91899 3.81536,3.91467 3.81155,3.91042 3.80773,3.90625 3.8039,3.90218 "/>
     <polygon id="_216928152" class="fil1" points="3.73445,3.92141 7.52072,7.70769 7.5171,7.70414 7.51351,7.70069 3.72724,3.91441 3.73083,3.91787 "/>
     <polygon id="_216928368" class="fil1" points="3.68715,3.91709 7.47342,7.70336 7.46893,7.70341 7.46444,7.70341 7.45995,7.70335 7.45546,7.70325 7.45098,7.7031 7.44651,7.7029 7.44205,7.70265 7.4376,7.70235 7.43316,7.702 7.42873,7.70159 7.42432,7.70114 7.41992,7.70064 7.41555,7.70009 7.41119,7.69949 7.40685,7.69884 7.40254,7.69814 7.39826,7.69739 7.394,7.69659 7.38976,7.69574 7.38556,7.69484 7.38139,7.69389 7.37726,7.69289 7.37315,7.69184 7.36909,7.69074 7.36506,7.6896 7.36107,7.6884 7.35712,7.68716 7.35321,7.68586 7.34935,7.68452 7.34554,7.68312 7.34177,7.68168 7.33805,7.68019 3.55178,3.89392 3.5555,3.89541 3.55927,3.89685 3.56308,3.89824 3.56694,3.89959 3.57085,3.90089 3.5748,3.90213 3.57879,3.90333 3.58282,3.90447 3.58688,3.90557 3.59099,3.90662 3.59513,3.90762 3.5993,3.90857 3.6035,3.90946 3.60773,3.91031 3.61199,3.91111 3.61628,3.91187 3.62059,3.91257 3.62492,3.91322 3.62928,3.91382 3.63365,3.91437 3.63805,3.91487 3.64246,3.91532 3.64689,3.91572 3.65133,3.91607 3.65578,3.91638 3.66024,3.91663 3.66472,3.91683 3.6692,3.91698 3.67368,3.91708 3.67817,3.91713 3.68266,3.91713 "/>
     <polygon id="_216928008" class="fil1" points="3.47715,3.84027 7.26341,7.62654 7.2615,7.62865 7.25956,7.63074 7.25757,7.63279 7.25554,7.63482 7.25346,7.63681 7.25135,7.63878 7.2492,7.64071 7.24701,7.64262 3.46074,3.85635 3.46293,3.85444 3.46508,3.85251 3.4672,3.85054 3.46927,3.84855 3.4713,3.84652 3.47329,3.84446 3.47524,3.84238 "/>
     <polygon id="_216928488" class="fil1" points="3.72724,3.91441 7.51351,7.70069 7.50852,7.70124 7.50352,7.70173 7.49852,7.70216 7.4935,7.70252 7.48848,7.70283 7.48346,7.70307 7.47844,7.70324 7.47342,7.70336 3.68715,3.91709 3.69217,3.91697 3.69719,3.9168 3.70222,3.91656 3.70724,3.91625 3.71225,3.91589 3.71726,3.91546 3.72226,3.91497 "/>
     <polygon id="_216928032" class="fil1" points="3.88328,4.05679 7.66955,7.84306 7.66955,7.94563 3.88328,4.15935 "/>
     <polygon id="_216928104" class="fil1" points="3.88328,4.15935 7.66955,7.94563 7.6688,7.9508 7.66666,7.95561 7.66328,7.95996 7.65879,7.96376 7.65335,7.96689 7.6471,7.96925 7.6402,7.97075 7.6328,7.97127 3.84653,4.185 3.85394,4.18448 3.86083,4.18298 3.86708,4.18062 3.87252,4.17748 3.87701,4.17369 3.88039,4.16933 3.88254,4.16452 "/>
     <polygon id="_216928296" class="fil1" points="3.55178,3.89392 7.33805,7.68019 7.33231,7.67775 7.3267,7.67519 7.32122,7.67251 7.31585,7.6697 7.31063,7.66678 7.30554,7.66373 7.3006,7.66056 7.29581,7.65728 7.29117,7.65386 7.28669,7.65033 7.28237,7.64667 7.27822,7.64289 3.49195,3.85661 3.4961,3.86039 3.50042,3.86406 3.5049,3.86759 3.50954,3.871 3.51433,3.87429 3.51928,3.87746 3.52436,3.88051 3.52959,3.88343 3.53495,3.88624 3.54044,3.88892 3.54605,3.89148 "/>
     <polygon id="_216928536" class="fil1" points="3.84653,4.185 7.6328,7.97127 7.62539,7.97075 7.6185,7.96925 7.61225,7.96689 7.60681,7.96376 7.60232,7.95996 3.81606,4.17369 3.82054,4.17748 3.82598,4.18062 3.83223,4.18298 3.83913,4.18448 "/>
     <polygon id="_216928080" class="fil1" points="3.49475,3.88689 7.28102,7.67317 7.28631,7.67838 7.29165,7.68378 7.29701,7.68935 7.30236,7.69511 7.3077,7.70103 7.31298,7.70711 7.3182,7.71335 7.32333,7.71972 7.32835,7.72624 7.33324,7.73288 7.33797,7.73965 7.34252,7.74653 7.34688,7.75352 7.35101,7.76061 7.3549,7.76779 7.35852,7.77506 7.36186,7.7824 7.36488,7.78981 7.36757,7.79729 7.36991,7.80483 7.37188,7.81241 7.37344,7.82003 7.37459,7.82768 7.37529,7.83536 7.37553,7.84306 3.58926,4.05679 3.58902,4.04909 3.58832,4.04141 3.58718,4.03376 3.58561,4.02613 3.58365,4.01856 3.58131,4.01102 3.57861,4.00354 3.57559,3.99613 3.57225,3.98878 3.56863,3.98152 3.56474,3.97434 3.56061,3.96725 3.55626,3.96026 3.5517,3.95338 3.54697,3.94661 3.54209,3.93997 3.53707,3.93345 3.53194,3.92707 3.52672,3.92084 3.52143,3.91476 3.51609,3.90884 3.51074,3.90308 3.50538,3.8975 3.50004,3.89211 "/>
     <polygon id="_216928248" class="fil1" points="3.43513,3.91625 7.2214,7.70252 7.21691,7.69825 7.21248,7.69415 7.20815,7.69021 7.20391,7.68646 7.1998,7.68289 7.19584,7.6795 7.19204,7.67632 3.40577,3.89005 3.40957,3.89323 3.41354,3.89661 3.41765,3.90019 3.42188,3.90394 3.42622,3.90787 3.43064,3.91198 "/>
     <polygon id="_216928848" class="fil1" points="3.40577,3.89005 7.19204,7.67632 7.1883,7.67792 7.18451,7.67946 7.18069,7.68096 7.17682,7.68242 7.17291,7.68382 7.16897,7.68517 7.16499,7.68648 7.16098,7.68774 7.15693,7.68894 7.15285,7.6901 7.14874,7.69121 7.1446,7.69228 7.14044,7.69329 7.13625,7.69425 7.13203,7.69517 7.1278,7.69604 7.12354,7.69686 7.11926,7.69763 7.11496,7.69835 7.11065,7.69902 7.10632,7.69965 7.10198,7.70023 7.09763,7.70076 7.09326,7.70124 7.08889,7.70167 7.08451,7.70206 7.08012,7.70239 7.07573,7.70269 7.07133,7.70293 7.06694,7.70312 7.06254,7.70326 7.05815,7.70336 3.27188,3.91709 3.27628,3.91699 3.28067,3.91685 3.28507,3.91665 3.28946,3.91641 3.29385,3.91612 3.29824,3.91579 3.30262,3.9154 3.307,3.91497 3.31136,3.91449 3.31571,3.91396 3.32006,3.91338 3.32438,3.91275 3.32869,3.91208 3.33299,3.91136 3.33727,3.91059 3.34153,3.90977 3.34576,3.9089 3.34998,3.90798 3.35417,3.90702 3.35833,3.906 3.36248,3.90494 3.36658,3.90383 3.37066,3.90267 3.37471,3.90146 3.37872,3.90021 3.3827,3.8989 3.38665,3.89755 3.39055,3.89615 3.39442,3.89469 3.39824,3.89319 3.40203,3.89165 "/>
     <polygon id="_216928968" class="fil1" points="3.27188,3.91709 7.05815,7.70336 7.05539,7.70339 7.05263,7.70341 7.04988,7.70341 7.04712,7.70339 7.04437,7.70335 7.04161,7.70329 7.03886,7.70321 7.03611,7.70312 7.03336,7.703 7.03062,7.70287 7.02788,7.70272 7.02514,7.70254 7.02241,7.70235 7.01968,7.70215 7.01696,7.70192 7.01424,7.70167 3.22797,3.9154 3.23069,3.91565 3.23341,3.91587 3.23614,3.91608 3.23887,3.91627 3.24161,3.91644 3.24435,3.9166 3.24709,3.91673 3.24984,3.91685 3.25259,3.91694 3.25534,3.91702 3.2581,3.91708 3.26085,3.91712 3.26361,3.91714 3.26637,3.91714 3.26912,3.91712 "/>
     <polygon id="_216929280" class="fil1" points="3.58926,4.05679 7.37553,7.84306 7.37553,7.94563 3.58926,4.15935 "/>
     <polygon id="_216929256" class="fil1" points="3.58926,4.15935 7.37553,7.94563 7.37478,7.9508 7.37264,7.95561 7.36926,7.95996 7.36477,7.96376 7.35933,7.96689 7.35308,7.96925 7.34619,7.97075 7.33878,7.97127 3.55251,4.185 3.55992,4.18448 3.56681,4.18298 3.57306,4.18062 3.5785,4.17748 3.58299,4.17369 3.58637,4.16933 3.58852,4.16452 "/>
     <polygon id="_216928632" class="fil1" points="3.55251,4.185 7.33878,7.97127 7.33137,7.97075 7.32447,7.96925 7.31823,7.96689 7.31279,7.96376 7.3083,7.95996 3.52203,4.17369 3.52652,4.17748 3.53196,4.18062 3.5382,4.18298 3.54511,4.18448 "/>
     <polygon id="_216928752" class="fil1" points="3.22797,3.9154 7.01424,7.70167 7.01753,7.70544 7.0208,7.70927 7.02403,7.71316 7.02724,7.71711 7.0304,7.72111 7.03352,7.72516 7.03659,7.72926 7.0396,7.73341 7.04256,7.73761 7.04544,7.74186 7.04826,7.74615 7.051,7.75047 7.05365,7.75484 7.05622,7.75925 7.0587,7.76369 7.06108,7.76817 7.06335,7.77268 7.06552,7.77722 7.06757,7.7818 7.06951,7.78639 7.07132,7.79102 7.073,7.79567 7.07455,7.80033 7.07595,7.80502 7.07721,7.80973 7.07832,7.81446 7.07927,7.8192 7.08007,7.82395 7.08069,7.82872 7.08114,7.83349 7.08142,7.83827 7.08151,7.84306 3.29524,4.05679 3.29515,4.052 3.29487,4.04722 3.29442,4.04244 3.2938,4.03768 3.293,4.03293 3.29205,4.02819 3.29094,4.02346 3.28969,4.01875 3.28828,4.01406 3.28673,4.00939 3.28505,4.00474 3.28324,4.00012 3.28131,3.99552 3.27925,3.99095 3.27709,3.98641 3.27481,3.9819 3.27243,3.97742 3.26995,3.97298 3.26739,3.96857 3.26473,3.9642 3.26199,3.95987 3.25917,3.95559 3.25629,3.95134 3.25333,3.94714 3.25032,3.94299 3.24725,3.93889 3.24413,3.93483 3.24097,3.93084 3.23776,3.92689 3.23453,3.923 3.23126,3.91917 "/>
     <polygon id="_216928896" class="fil1" points="1.64254,2.65735 5.4288,6.44362 5.43233,6.4473 5.43554,6.45131 5.43839,6.45564 5.44086,6.46028 1.65459,2.67401 1.65212,2.66937 1.64927,2.66504 1.64606,2.66102 "/>
     <polygon id="_216928920" class="fil1" points="2.0083,2.8096 5.79457,6.59587 5.78306,6.58517 5.77115,6.57493 5.75889,6.56519 5.74626,6.55593 5.73331,6.54718 5.72004,6.53894 5.70647,6.53122 5.69261,6.52404 5.6785,6.51739 5.66413,6.51128 5.64952,6.50572 5.63471,6.50074 5.61969,6.49631 5.6045,6.49248 5.58914,6.48922 5.57363,6.48657 5.55799,6.48451 5.54224,6.48307 5.52639,6.48226 5.51047,6.48207 5.49448,6.48252 5.47844,6.48362 5.46238,6.48537 5.4463,6.48779 1.66004,2.70152 1.67611,2.6991 1.69217,2.69735 1.70821,2.69625 1.7242,2.6958 1.74013,2.69598 1.75597,2.6968 1.77172,2.69824 1.78736,2.7003 1.80287,2.70295 1.81823,2.7062 1.83343,2.71004 1.84844,2.71446 1.86326,2.71945 1.87786,2.72501 1.89223,2.73111 1.90635,2.73776 1.9202,2.74495 1.93377,2.75267 1.94704,2.76091 1.96,2.76966 1.97262,2.77891 1.98489,2.78866 1.99679,2.79889 "/>
     <polygon id="_216929016" class="fil1" points="2.98796,3.88889 6.77423,7.67517 6.77072,7.67671 6.76717,7.67822 6.76357,7.67968 6.75994,7.68109 6.75628,7.68246 6.75258,7.6838 6.74885,7.68508 6.74508,7.68632 6.74128,7.68752 6.73745,7.68867 6.73359,7.68978 6.72971,7.69085 6.7258,7.69187 6.72186,7.69285 6.7179,7.69378 6.71392,7.69468 2.92765,3.90841 2.93163,3.90751 2.93559,3.90658 2.93953,3.9056 2.94344,3.90457 2.94733,3.90351 2.95119,3.9024 2.95501,3.90125 2.95881,3.90005 2.96258,3.89881 2.96631,3.89752 2.97001,3.89619 2.97368,3.89482 2.97731,3.89341 2.9809,3.89194 2.98445,3.89044 "/>
     <polygon id="_216928656" class="fil1" points="2.03126,2.79284 5.81752,6.57911 5.82944,6.59139 5.8409,6.60416 5.85187,6.61742 5.86233,6.63117 5.87228,6.6454 5.88168,6.66009 5.89052,6.67524 5.89879,6.69083 2.11252,2.90456 2.10426,2.88897 2.09541,2.87382 2.08601,2.85913 2.07607,2.8449 2.0656,2.83115 2.05463,2.81789 2.04318,2.80511 "/>
     <polygon id="_216929208" class="fil1" points="3.0595,3.83706 6.84576,7.62333 6.84227,7.62736 6.83863,7.63128 6.83485,7.63509 6.83093,7.6388 6.82687,7.6424 6.82267,7.64589 6.81835,7.64929 6.81389,7.65258 6.80932,7.65576 6.80463,7.65885 6.79983,7.66182 6.79491,7.6647 6.78989,7.66747 6.78477,7.67014 6.77955,7.6727 6.77423,7.67517 2.98796,3.88889 2.99328,3.88643 2.9985,3.88387 3.00363,3.8812 3.00865,3.87843 3.01356,3.87555 3.01837,3.87257 3.02306,3.86949 3.02763,3.86631 3.03208,3.86302 3.0364,3.85962 3.0406,3.85613 3.04466,3.85252 3.04858,3.84881 3.05237,3.845 3.056,3.84109 "/>
     <polygon id="_216930048" class="fil1" points="3.08535,3.86958 6.87161,7.65585 6.86957,7.65428 6.86774,7.65262 3.08148,3.86635 3.0833,3.86801 "/>
     <polygon id="_216929760" class="fil1" points="3.29524,4.15935 7.08151,7.94563 7.08076,7.9508 7.07862,7.95561 7.07523,7.95996 7.07074,7.96376 7.0653,7.96689 7.05906,7.96925 7.05216,7.97075 7.04476,7.97127 3.25849,4.185 3.26589,4.18448 3.2728,4.18298 3.27904,4.18062 3.28448,4.17748 3.28896,4.17369 3.29235,4.16933 3.2945,4.16452 "/>
     <polygon id="_216929808" class="fil1" points="1.66004,2.70152 5.4463,6.48779 5.44591,6.49199 5.44522,6.49613 5.44422,6.50018 5.44293,6.50415 5.44135,6.508 5.43951,6.51172 5.43739,6.5153 5.43502,6.51873 5.43239,6.52198 5.42952,6.52503 5.42642,6.52788 5.42308,6.53051 5.41953,6.53289 5.41577,6.53502 5.4118,6.53689 5.40764,6.53846 1.62137,2.75219 1.62554,2.75061 1.6295,2.74875 1.63326,2.74662 1.63681,2.74424 1.64015,2.74161 1.64325,2.73876 1.64612,2.7357 1.64875,2.73246 1.65113,2.72903 1.65324,2.72545 1.65509,2.72172 1.65666,2.71787 1.65795,2.71391 1.65895,2.70985 1.65965,2.70572 "/>
     <polygon id="_216929904" class="fil1" points="1.62137,2.75219 5.40764,6.53846 5.40205,6.54002 5.39644,6.54099 5.39084,6.54139 5.38529,6.54123 5.37983,6.54054 5.3745,6.53933 5.36932,6.53761 5.36434,6.53542 5.35959,6.53276 5.35511,6.52966 5.35093,6.52612 1.56467,2.73985 1.56884,2.74339 1.57332,2.74649 1.57807,2.74915 1.58305,2.75134 1.58823,2.75306 1.59357,2.75427 1.59902,2.75496 1.60457,2.75511 1.61017,2.75472 1.61578,2.75375 "/>
     <polygon id="_216929712" class="fil1" points="2.71611,3.89392 6.50237,7.68019 6.49794,7.67831 6.49357,7.67637 6.48928,7.67435 6.48506,7.67226 6.48091,7.6701 6.47685,7.66786 6.47287,7.66556 6.46898,7.66317 6.46517,7.66072 6.46144,7.65819 6.45781,7.65559 6.45428,7.65292 6.45083,7.65018 6.44749,7.64736 6.44425,7.64447 2.65798,3.8582 2.66122,3.86109 2.66457,3.86391 2.66801,3.86665 2.67155,3.86932 2.67518,3.87192 2.6789,3.87445 2.68271,3.8769 2.6866,3.87928 2.69058,3.88159 2.69465,3.88383 2.69879,3.88599 2.70301,3.88808 2.7073,3.8901 2.71167,3.89204 "/>
     <polygon id="_216929424" class="fil1" points="2.65484,3.85523 6.44111,7.6415 6.43724,7.64854 6.4333,7.6555 6.42928,7.6624 6.42519,7.66924 6.42102,7.676 6.41677,7.6827 6.41245,7.68933 6.40806,7.69588 6.4036,7.70237 6.39906,7.70878 6.39446,7.71512 6.38978,7.72139 6.38504,7.72758 6.38022,7.73369 6.37534,7.73973 6.37039,7.74569 6.36537,7.75158 6.36029,7.75738 6.35514,7.76311 6.34993,7.76875 6.34465,7.77431 6.33931,7.77979 6.33391,7.78519 6.32845,7.7905 6.32293,7.79572 6.31735,7.80087 6.3117,7.80592 6.306,7.81089 6.30024,7.81576 6.29442,7.82055 6.28855,7.82525 6.28262,7.82986 2.49635,4.04359 2.50228,4.03898 2.50815,4.03428 2.51397,4.02949 2.51973,4.02461 2.52543,4.01965 2.53108,4.01459 2.53666,4.00945 2.54219,4.00423 2.54765,3.99892 2.55305,3.99352 2.55839,3.98804 2.56367,3.98248 2.56887,3.97683 2.57402,3.97111 2.57911,3.96531 2.58412,3.95942 2.58907,3.95346 2.59395,3.94742 2.59877,3.94131 2.60352,3.93511 2.60819,3.92885 2.6128,3.92251 2.61733,3.91609 2.6218,3.90961 2.62619,3.90306 2.6305,3.89643 2.63475,3.88973 2.63892,3.88296 2.64301,3.87613 2.64703,3.86923 2.65097,3.86226 "/>
     <polygon id="_216929616" class="fil1" points="2.848,3.91713 6.63427,7.7034 6.62989,7.70341 6.62551,7.70337 6.62113,7.70329 6.61676,7.70316 6.61239,7.70298 6.60804,7.70275 6.60369,7.70247 6.59935,7.70215 6.59502,7.70178 6.59071,7.70136 6.58641,7.70089 6.58213,7.70038 6.57787,7.69982 6.57363,7.69921 6.56941,7.69856 6.56521,7.69785 6.56104,7.6971 6.55689,7.6963 6.55277,7.69546 6.54868,7.69457 6.54461,7.69363 6.54059,7.69264 6.53659,7.69161 6.53263,7.69053 6.5287,7.6894 6.52481,7.68822 6.52097,7.687 6.51716,7.68573 6.5134,7.68442 6.50968,7.68306 6.506,7.68165 6.50237,7.68019 2.71611,3.89392 2.71974,3.89537 2.72341,3.89678 2.72713,3.89815 2.73089,3.89946 2.7347,3.90073 2.73855,3.90195 2.74244,3.90313 2.74636,3.90426 2.75032,3.90534 2.75432,3.90637 2.75835,3.90736 2.76241,3.9083 2.7665,3.90919 2.77062,3.91003 2.77477,3.91083 2.77894,3.91158 2.78314,3.91228 2.78736,3.91294 2.7916,3.91355 2.79586,3.91411 2.80015,3.91462 2.80444,3.91509 2.80875,3.91551 2.81308,3.91588 2.81742,3.9162 2.82177,3.91648 2.82613,3.9167 2.83049,3.91689 2.83486,3.91702 2.83924,3.9171 2.84362,3.91714 "/>
     <polygon id="_216930024" class="fil1" points="3.00122,4.15935 6.78749,7.94563 6.78674,7.9508 6.7846,7.95561 6.78121,7.95996 6.77672,7.96376 6.77128,7.96689 6.76504,7.96925 6.75814,7.97075 6.75074,7.97127 2.96447,4.185 2.97187,4.18448 2.97877,4.18298 2.98502,4.18062 2.99046,4.17748 2.99494,4.17369 2.99833,4.16933 3.00047,4.16452 "/>
     <polygon id="_216929952" class="fil1" points="2.96447,4.185 6.75074,7.97127 6.74333,7.97075 6.73643,7.96925 6.73019,7.96689 6.72474,7.96376 6.72026,7.95996 2.93399,4.17369 2.93848,4.17748 2.94392,4.18062 2.95016,4.18298 2.95706,4.18448 "/>
     <polygon id="_216930504" class="fil1" points="2.49635,4.04359 6.28262,7.82986 6.27505,7.83555 6.26739,7.84109 6.25965,7.84648 6.25183,7.85171 6.24393,7.8568 6.23594,7.86173 6.22787,7.8665 6.21972,7.87112 6.2115,7.87557 6.2032,7.87987 6.19483,7.884 6.18639,7.88797 6.17787,7.89177 6.16928,7.8954 6.16063,7.89886 6.15191,7.90215 6.14312,7.90527 6.13427,7.90821 6.12536,7.91098 6.11639,7.91357 6.10735,7.91597 6.09826,7.9182 6.08911,7.92024 6.0799,7.9221 6.07064,7.92377 6.06133,7.92525 6.05196,7.92654 6.04255,7.92764 6.03308,7.92854 6.02357,7.92926 6.01402,7.92977 6.00442,7.93008 2.21815,4.14381 2.22775,4.1435 2.23731,4.14298 2.24681,4.14227 2.25628,4.14137 2.26569,4.14027 2.27506,4.13898 2.28437,4.1375 2.29363,4.13583 2.30284,4.13397 2.31199,4.13193 2.32108,4.1297 2.33012,4.1273 2.33909,4.12471 2.348,4.12194 2.35685,4.119 2.36564,4.11588 2.37436,4.11259 2.38302,4.10913 2.3916,4.1055 2.40012,4.1017 2.40856,4.09773 2.41693,4.0936 2.42523,4.0893 2.43346,4.08485 2.4416,4.08023 2.44967,4.07546 2.45766,4.07053 2.46556,4.06544 2.47339,4.0602 2.48113,4.05481 2.48878,4.04928 "/>
     <polygon id="_216930552" class="fil1" points="2.21815,4.14381 6.00442,7.93008 5.9988,7.93021 2.21253,4.14394 "/>
     <polygon id="_216930624" class="fil1" points="2.21253,4.14394 5.9988,7.93021 6.00392,7.94685 2.21765,4.16058 "/>
     <polygon id="_216930240" class="fil1" points="2.03724,4.11447 5.8235,7.90074 5.77333,7.87358 1.98706,4.08731 "/>
     <polygon id="_216930432" class="fil1" points="2.21765,4.16058 6.00392,7.94685 5.99837,7.94793 5.99281,7.94885 5.98726,7.94961 5.9817,7.95022 5.97613,7.95068 5.97056,7.95099 5.96499,7.95115 5.95941,7.95115 5.95383,7.95102 5.94825,7.95073 5.94266,7.9503 5.93707,7.94973 5.93148,7.94901 5.92588,7.94816 5.92028,7.94716 5.91467,7.94603 5.90906,7.94476 5.90345,7.94335 5.89783,7.94181 5.89221,7.94014 5.88659,7.93834 5.88096,7.93641 5.87533,7.93434 5.8697,7.93215 5.86407,7.92984 5.85843,7.9274 5.85278,7.92483 5.84714,7.92215 5.84149,7.91934 5.83584,7.91642 5.83019,7.91337 5.82453,7.91021 2.03826,4.12394 2.04392,4.1271 2.04957,4.13015 2.05522,4.13307 2.06087,4.13588 2.06652,4.13856 2.07216,4.14113 2.0778,4.14357 2.08343,4.14588 2.08907,4.14807 2.0947,4.15013 2.10032,4.15207 2.10594,4.15387 2.11156,4.15554 2.11718,4.15708 2.12279,4.15849 2.1284,4.15976 2.13401,4.16089 2.13961,4.16189 2.14521,4.16274 2.1508,4.16346 2.15639,4.16403 2.16198,4.16446 2.16757,4.16474 2.17315,4.16488 2.17872,4.16487 2.1843,4.16472 2.18987,4.16441 2.19543,4.16395 2.20099,4.16334 2.20655,4.16257 2.2121,4.16166 "/>
     <polygon id="_216930648" class="fil1" points="1.98706,4.08731 5.77333,7.87358 5.76464,7.86877 5.75604,7.86378 5.74754,7.85861 5.73912,7.85326 5.73079,7.84775 5.72256,7.84206 5.71442,7.8362 5.70638,7.83019 5.69844,7.824 5.69061,7.81765 5.68287,7.81114 5.67524,7.80447 1.88897,4.0182 1.8966,4.02487 1.90434,4.03138 1.91218,4.03773 1.92011,4.04391 1.92815,4.04993 1.93629,4.05579 1.94452,4.06148 1.95285,4.06699 1.96127,4.07234 1.96978,4.0775 1.97837,4.0825 "/>
     <polygon id="_216930312" class="fil1" points="3.14098,3.91612 6.92725,7.70239 6.92102,7.69651 6.91494,7.69095 6.90906,7.68573 6.90342,7.68086 6.89808,7.67638 6.89309,7.67228 6.8885,7.6686 6.88435,7.66535 6.88069,7.66254 6.87759,7.6602 6.87507,7.65835 6.87321,7.65699 6.87204,7.65615 6.87161,7.65585 3.08535,3.86958 3.08577,3.86988 3.08694,3.87072 3.08881,3.87207 3.09132,3.87393 3.09443,3.87627 3.09808,3.87907 3.10223,3.88233 3.10682,3.88601 3.11181,3.89011 3.11715,3.89459 3.12279,3.89946 3.12867,3.90468 3.13475,3.91024 "/>
     <polygon id="_216930216" class="fil1" points="2.92765,3.90841 6.71392,7.69468 6.71744,7.69855 6.72094,7.7025 6.72442,7.70651 6.72787,7.71059 6.73129,7.71473 6.73467,7.71893 6.738,7.7232 6.74127,7.72752 6.74449,7.7319 6.74764,7.73633 6.75072,7.74081 6.75371,7.74534 6.75663,7.74992 6.75945,7.75455 6.76218,7.75921 6.7648,7.76392 6.76731,7.76867 6.7697,7.77345 6.77198,7.77827 6.77412,7.78312 6.77613,7.788 6.778,7.79291 6.77971,7.79784 6.78128,7.8028 6.78268,7.80778 6.78392,7.81278 6.78498,7.81779 6.78587,7.82282 6.78657,7.82787 6.78707,7.83292 6.78738,7.83799 6.78749,7.84306 3.00122,4.05679 3.00111,4.05172 3.00081,4.04665 3.0003,4.04159 2.9996,4.03655 2.99872,4.03152 2.99765,4.0265 2.99641,4.0215 2.99501,4.01652 2.99344,4.01157 2.99173,4.00663 2.98986,4.00172 2.98785,3.99685 2.98571,3.992 2.98344,3.98718 2.98104,3.98239 2.97853,3.97765 2.97591,3.97294 2.97319,3.96828 2.97036,3.96365 2.96744,3.95907 2.96445,3.95454 2.96137,3.95006 2.95822,3.94563 2.955,3.94125 2.95173,3.93693 2.9484,3.93266 2.94502,3.92846 2.94161,3.92431 2.93815,3.92024 2.93467,3.91622 2.93117,3.91228 "/>
     <polygon id="_216930408" class="fil1" points="3.00122,4.05679 6.78749,7.84306 6.78749,7.94563 3.00122,4.15935 "/>
     <polygon id="_216931152" class="fil1" points="3.25849,4.185 7.04476,7.97127 7.03735,7.97075 7.03045,7.96925 7.02421,7.96689 7.01877,7.96376 7.01428,7.95996 3.22801,4.17369 3.2325,4.17748 3.23794,4.18062 3.24419,4.18298 3.25108,4.18448 "/>
     <polygon id="_216931080" class="fil1" points="3.29524,4.05679 7.08151,7.84306 7.08151,7.94563 3.29524,4.15935 "/>
    </g>
    <path id="_637652584" class="fil1" d="M2.20801 2.89447c0.101047,0 0.195508,0.0333937 0.276024,0.0914134 0.0517441,0.0372874 0.0976181,0.0847205 0.135622,0.139921 0.00604331,-0.00731102 0.0150551,-0.0121102 0.0252795,-0.0124921 0.00903937,-0.000338583 0.0173937,0.00283465 0.023752,0.00830315 0.0149331,-0.0173858 0.0317441,-0.0322874 0.0498622,-0.044622 0.0407165,-0.0277165 0.0880748,-0.0423858 0.135642,-0.0430236 0.0477441,-0.000641732 0.095626,0.0128858 0.137177,0.041563 0.0166969,0.0115197 0.0323268,0.0254488 0.0464528,0.0418386 0.00591732,-0.00853937 0.0156181,-0.014315 0.0267992,-0.014815 0.0118268,-0.000527559 0.0225315,0.00497244 0.0291339,0.0137835 0.0137402,-0.0151417 0.0289449,-0.0282795 0.0452008,-0.0393465 0.0407205,-0.0277165 0.0880787,-0.0423858 0.135646,-0.0430236 0.0477402,-0.000641732 0.095626,0.0128858 0.137177,0.041563 0.0165,0.0113858 0.0319606,0.025126 0.0459606,0.0412677 0.00860236,-0.0103858 0.0229055,-0.0151654 0.0366102,-0.0109843 0.0061378,0.00187402 0.0113701,0.00530315 0.0153976,0.00972047 0.0135472,-0.0148031 0.0285039,-0.0276732 0.0444724,-0.0385433 0.0407165,-0.0277165 0.0880748,-0.0423858 0.135646,-0.0430236 0.0477441,-0.000641732 0.095626,0.0128898 0.137177,0.041563 0.0176535,0.0121811 0.0341142,0.0270551 0.048874,0.044685 0.00373228,-0.0067126 0.00972047,-0.0122244 0.0174213,-0.0152717 0.0110906,-0.00438976 0.0230984,-0.00262205 0.0322402,0.00366535 0.0117598,-0.0119291 0.0244685,-0.0224803 0.0378937,-0.0316181 0.0407165,-0.0277165 0.0880748,-0.0423858 0.135642,-0.0430236 0.0477441,-0.000641732 0.0956299,0.0128858 0.137177,0.041563 0.0232126,0.0160197 0.0443661,0.036689 0.0622913,0.0621654 0.00544488,-0.00213386 0.0111969,-0.00278346 0.0167402,-0.00209449 0.0124409,-0.0150315 0.0264488,-0.027748 0.0416496,-0.0382126 0.0394055,-0.027126 0.0861181,-0.0386772 0.133803,-0.0357953 0.0463071,0.00279921 0.0936417,0.0192756 0.135843,0.0483189 0.0413031,0.0284291 0.0777795,0.0689961 0.10348,0.120602 0.0154606,-0.0105157 0.036563,-0.00678346 0.0474488,0.00852756 0.00382283,0.0083622 0.00724409,0.0166575 0.0103031,0.0248976 0.00101181,-0.000649606 0.00202362,-0.0012874 0.00304331,-0.00190945 0.0304882,-0.0186772 0.0639843,-0.0263858 0.0971063,-0.0230118 0.0330276,0.00336614 0.0650709,0.0175906 0.0927362,0.0427598 0.0284724,0.0258937 0.0523661,0.0635551 0.0675551,0.112933 0.00254724,0.00827953 0.0048937,0.0165 0.00705118,0.0246654 3.93701e-005,-0.00663386 0.000165354,-0.0124252 0.000385827,-0.0172362 0.00817323,-0.017185 0.0287283,-0.0244961 0.0459134,-0.0163228 0.0164488,0.0078189 0.0238504,0.0269803 0.0172913,0.0436811 0.00803543,-0.000114173 0.0160866,0.000452756 0.0240669,0.00172047 0.0245354,0.00389764 0.0482323,0.0143425 0.0684567,0.0317165 0.0185354,0.0159213 0.0340433,0.0374764 0.0444094,0.0648858 0.0401181,0.106118 0.0218465,0.199091 0.00492913,0.285177l-0.00320866 0.0162559c-0.00653543,0.0338189 -0.0305787,0.0575551 -0.0624646,0.0718898 -0.0227598,0.0102323 -0.0500197,0.0155276 -0.0768425,0.0159646 -0.0268346,0.000444882 -0.0539331,-0.00398819 -0.0763386,-0.013189 -0.014437,-0.0059252 -0.0271772,-0.0138228 -0.0373189,-0.0237205 -0.00869291,0.00671654 -0.0183386,0.012622 -0.0287205,0.0177244 0.0408976,0.042063 0.0834724,0.0999882 0.0834724,0.158862l0 0.102567c0,0.0141614 -0.0164567,0.0256417 -0.036752,0.0256417 -0.0202953,0 -0.0367559,-0.0114803 -0.0367559,-0.0256417l0 -0.102567c0,-0.0505748 -0.0410906,-0.102028 -0.0781654,-0.138161 -0.0133543,0.00207087 -0.0269961,0.00321654 -0.0405669,0.00344094 -0.0359449,0.000590551 -0.0721102,-0.00529134 -0.101862,-0.0175079 -0.0281457,-0.0115512 -0.0511535,-0.0287913 -0.0648701,-0.0518189 -0.0110433,0.0100669 -0.0236496,0.0189409 -0.0374567,0.0266339 0.0454449,0.0424803 0.102409,0.109311 0.102409,0.177413l0 0.102567c0,0.0141614 -0.0164567,0.0256417 -0.0367559,0.0256417 -0.0202953,0 -0.036752,-0.0114803 -0.036752,-0.0256417l0 -0.102567c0,-0.0574764 -0.0530709,-0.116091 -0.0930039,-0.152059 -0.0290906,0.00774016 -0.0603504,0.0118465 -0.0913858,0.0123583 -0.0406693,0.000673228 -0.0814528,-0.00483858 -0.116949,-0.0164173 0.0400669,0.0418189 0.0808228,0.0985157 0.0808228,0.156118l0 0.102567c0,0.0141614 -0.0164567,0.0256417 -0.036752,0.0256417 -0.0202953,0 -0.036752,-0.0114803 -0.036752,-0.0256417l0 -0.102567c0,-0.0839094 -0.11311,-0.17024 -0.133319,-0.185 -0.00984252,0.00637795 -0.0204331,0.0120748 -0.031622,0.0171063 -0.0360669,0.0162205 -0.0787953,0.0254055 -0.121811,0.0276811 0.0347953,0.0397283 0.0662362,0.0896181 0.0662362,0.140213l0 0.102567c0,0.0141614 -0.0164567,0.0256417 -0.036752,0.0256417 -0.0202992,0 -0.0367559,-0.0114803 -0.0367559,-0.0256417l0 -0.102567c0,-0.0546024 -0.0478937,-0.110228 -0.0869173,-0.146492 -0.0197835,-0.00384646 -0.0386457,-0.00931102 -0.0558543,-0.016378 -0.0292913,-0.0120276 -0.0541969,-0.0287244 -0.0718307,-0.0501299 -0.0174921,0.0185945 -0.0399685,0.0335984 -0.0655591,0.0451063 -0.00758268,0.00340945 -0.0154567,0.00650787 -0.0235709,0.00929528 0.0408189,0.0420394 0.0832165,0.0998465 0.0832165,0.158598l0 0.102567c0,0.0141614 -0.0164567,0.0256417 -0.036752,0.0256417 -0.0202953,0 -0.036752,-0.0114803 -0.036752,-0.0256417l0 -0.102567c0,-0.0525748 -0.0444055,-0.106098 -0.0825394,-0.142374 -0.0132756,0.00156299 -0.0267047,0.00245276 -0.0400906,0.00267323 -0.0479055,0.000791339 -0.0959685,-0.00699213 -0.13537,-0.0231693 -0.030878,-0.0126811 -0.0568819,-0.0305433 -0.0746339,-0.0536496 -0.0050315,0.00567717 -0.0105118,0.0110394 -0.0164016,0.0160787 0.0455551,0.0379173 0.12852,0.118256 0.12852,0.200441l0 0.102567c0,0.0141614 -0.0164567,0.0256417 -0.036752,0.0256417 -0.0202992,0 -0.0367559,-0.0114803 -0.0367559,-0.0256417l0 -0.102567c0,-0.0661693 -0.0703386,-0.133846 -0.109988,-0.16674 -0.0396496,0.0173071 -0.0870276,0.0262638 -0.133886,0.0270394 -0.0147087,0.000244094 -0.0294291,-0.000322835 -0.0439134,-0.00168898 0.0352087,0.0399134 0.0672756,0.0902953 0.0672756,0.14139l0 0.102567c0,0.0141614 -0.0164606,0.0256417 -0.0367559,0.0256417 -0.0202953,0 -0.036752,-0.0114803 -0.036752,-0.0256417l0 -0.102567c0,-0.0920079 -0.136,-0.186929 -0.13639,-0.187205 -0.00575197,-0.00407874 -0.00914173,-0.00916535 -0.0101772,-0.0144291 -0.00580315,-0.00564173 -0.0110472,-0.0116732 -0.0156732,-0.0180906 -0.0182126,0.0217362 -0.0429252,0.0389685 -0.0715354,0.0518307 -0.0186181,0.00837402 -0.0390118,0.0148701 -0.0603071,0.0195118 0.0375827,0.0409331 0.0735669,0.0942559 0.0735669,0.148382l0 0.102567c0,0.0141614 -0.0164567,0.0256417 -0.036752,0.0256417 -0.0202992,0 -0.0367559,-0.0114803 -0.0367559,-0.0256417l0 -0.102567c0,-0.0512756 -0.0422402,-0.103461 -0.0797087,-0.139657 -0.046748,0.000366142 -0.0934528,-0.0074252 -0.131898,-0.0232126 -0.0238504,-0.00979528 -0.0447913,-0.0226811 -0.0612677,-0.038685 -0.0408071,0.0753543 -0.0949409,0.139701 -0.158488,0.188354 -0.0802598,0.0614488 -0.175563,0.0979331 -0.278201,0.100224l-0.00561811 0.000125984 0.00511811 0.0166417c-0.0591693,0.0123307 -0.119028,-0.00231102 -0.17939,-0.0366378l-0.00102362 -0.00947244 -0.0501772 -0.0271575c-0.0930984,-0.0503819 -0.171618,-0.131622 -0.226169,-0.232555 -0.0523819,-0.0969134 -0.0827795,-0.212098 -0.0827795,-0.335492 0,-0.171228 0.0584882,-0.326594 0.153055,-0.43935 0.0683898,-0.0815551 0.155591,-0.140965 0.253386,-0.168437 -0.0806614,-0.153929 -0.253043,-0.239315 -0.424516,-0.209957 -0.00124803,0.0225276 -0.0159606,0.0430787 -0.0386614,0.0506654 -0.0297047,0.00993307 -0.0618425,-0.00609449 -0.0717717,-0.0357992 -0.00992913,-0.0297047 0.0061063,-0.0618465 0.0358071,-0.0717756 0.0274882,-0.00918898 0.0570591,0.00385827 0.069185,0.0293976 0.185902,-0.0321575 0.372937,0.0618504 0.457925,0.230555 0.0309646,-0.00663386 0.062874,-0.0100945 0.0954882,-0.0100945z"/>
   </g>
  </g>
  <path class="fil2" d="M3.41333 -3.93701e-006c1.88513,0 3.41333,1.5282 3.41333,3.41333 0,1.88513 -1.5282,3.41333 -3.41333,3.41333 -1.88513,0 -3.41333,-1.5282 -3.41333,-3.41333 0,-1.88513 1.5282,-3.41333 3.41333,-3.41333z"/>
  <path class="fil3" d="M2.13646 2.96207l-0.0265906 0.00888583c-0.070437,-0.210689 -0.299138,-0.324787 -0.509815,-0.254354l-0.00888976 -0.0265906c0.225331,-0.0753307 0.469957,0.0467087 0.545295,0.272059z"/>
  <path class="fil4" d="M1.65718 2.68042c0.00993307,0.0297047 -0.00609843,0.0618346 -0.0358031,0.0717638 -0.0297047,0.00993307 -0.0618425,-0.00609449 -0.0717717,-0.0357992 -0.00992913,-0.0297047 0.0061063,-0.0618465 0.0358071,-0.0717756 0.0297047,-0.00992913 0.0618386,0.0061063 0.0717677,0.035811z"/>
  <path class="fil3" d="M5.25586 3.52782c0.0401181,0.106118 0.0218465,0.199091 0.00492913,0.285177l-0.00320866 0.0162559c-0.00653543,0.0338189 -0.0305787,0.0575551 -0.0624646,0.0718898 -0.0227598,0.0102323 -0.0500197,0.0155276 -0.0768425,0.0159646 -0.0268346,0.000444882 -0.0539331,-0.00398819 -0.0763386,-0.013189 -0.0306732,-0.0125906 -0.0536811,-0.0340748 -0.0604134,-0.0647638l-0.00259843 -0.0123898c-0.00208661,-0.00994094 -0.00226772,-0.0105945 -0.00261024,-0.0123189l0.000429134 -0.0157913 0.000405512 -0.00165748 -7.08661e-005 -1.5748e-005c0.000192913,-0.000818898 -3.93701e-006,0.000366142 0.000141732,-0.000409449l0 -0.000141732c0.00369685,-0.0191181 0.0038937,-0.0200748 0.00452362,-0.0232835 0.0163898,-0.0833819 0.0337638,-0.17178 0.0206496,-0.263488l-0.00234646 -0.0164094 0.0108189 -0.0125906c0.0166614,-0.0193976 0.0372992,-0.0334921 0.0596024,-0.0419252 0.0231378,-0.00875197 0.0481732,-0.0113819 0.0725276,-0.00751575 0.0245354,0.00389764 0.0482323,0.0143425 0.0684567,0.0317165 0.0185354,0.0159213 0.0340433,0.0374764 0.0444094,0.0648858z"/>
  <path class="fil4" d="M5.04829 3.39471c0.0241299,0.0784567 0.0303504,0.151634 0.027437,0.221169 -0.00288189,0.0687717 -0.0144882,0.132567 -0.0264331,0.194331 -0.00818898,0.0423386 -0.0388189,0.0722953 -0.0795276,0.0905984 -0.0302913,0.0136181 -0.0667008,0.0206614 -0.102634,0.0212559 -0.0359449,0.000590551 -0.0721102,-0.00529134 -0.101862,-0.0175079 -0.0388858,-0.0159606 -0.0679685,-0.0427795 -0.0762835,-0.0807087 -0.00137402,-0.00626378 -0.00351181,-0.0165709 -0.00659055,-0.0318504 -0.0021811,-0.0107953 -0.00420866,-0.0213465 -0.00607087,-0.0316339l0 -0.0134921 0.00374803 -0.0190984c0.0222402,-0.113181 0.0457874,-0.232976 0.030063,-0.358465l0.00387795 -0.0213898c0.0201929,-0.038878 0.0469921,-0.0675827 0.076878,-0.0858898 0.0304882,-0.0186772 0.0639843,-0.0263858 0.0971063,-0.0230118 0.0330276,0.00336614 0.0650709,0.0175906 0.0927362,0.0427598 0.0284724,0.0258937 0.0523661,0.0635551 0.0675551,0.112933z"/>
  <path class="fil3" d="M4.74415 3.26273c0.069752,0.184484 0.0445748,0.304669 0.0146457,0.44752 -0.0041378,0.0197598 -0.00838189,0.0399961 -0.0129213,0.0634882 -0.0103504,0.0535197 -0.0496339,0.0916417 -0.101933,0.115157 -0.0401654,0.0180551 -0.0885945,0.0274016 -0.136488,0.0281929 -0.0479055,0.000791339 -0.0959685,-0.00699606 -0.135366,-0.0231732 -0.0496654,-0.0203898 -0.0867126,-0.0542047 -0.0971181,-0.101642 -0.0232205,-0.105866 -0.0393346,-0.20798 -0.0416142,-0.306094 -0.00230709,-0.0994055 0.00976772,-0.193866 0.0431929,-0.282669 0.017815,-0.0473268 0.0460827,-0.0824803 0.0804213,-0.106118 0.0394055,-0.027126 0.0861181,-0.0386772 0.133803,-0.0357953 0.0463071,0.00279921 0.0936417,0.0192756 0.135843,0.0483189 0.0495472,0.0341024 0.0921496,0.0856732 0.117535,0.152815z"/>
  <path class="fil4" d="M4.33309 3.20351l0.00324409 0.00896457c0.000901575,0.0025 0.00194094,0.00544094 0.00311024,0.00880315l0.000141732 0.023689c-0.0248898,0.072811 -0.0343937,0.150366 -0.0331654,0.232012 0.00125591,0.0830354 0.0136063,0.170669 0.0322441,0.262059l0.000141732 0.0143583 -0.00200787 0.0102638 -2.75591e-005 -7.87402e-006 -0.00196063 0.0100866c-0.0103504,0.0535236 -0.0496339,0.0916417 -0.101933,0.115157 -0.0401693,0.018063 -0.0885984,0.0274016 -0.136488,0.0281929 -0.0479016,0.000791339 -0.0959685,-0.00699213 -0.135366,-0.0231693 -0.0496654,-0.0203937 -0.0867126,-0.0542047 -0.0971142,-0.101646 -0.0232244,-0.105866 -0.0393346,-0.20798 -0.0416142,-0.306094 -0.00231102,-0.0994016 0.00975984,-0.193866 0.0431929,-0.282669 0.0208189,-0.055311 0.055874,-0.0978543 0.0979764,-0.126516 0.0407165,-0.0277165 0.0880748,-0.0423858 0.135642,-0.0430236 0.0477441,-0.000641732 0.0956299,0.0128858 0.137177,0.041563 0.0407008,0.0280866 0.0750669,0.0704764 0.0968071,0.127976z"/>
  <path class="fil3" d="M3.92385 3.20351l0.00324409 0.00896457c0.000901575,0.0025 0.00194094,0.00544094 0.00311024,0.00880315l0.000141732 0.023689c-0.0248898,0.072811 -0.0343937,0.150366 -0.0331654,0.232012 0.00125197,0.0830354 0.0136063,0.170669 0.0322441,0.262059l0.000141732 0.0143583 -0.00200787 0.0102638 -2.3622e-005 -7.87402e-006 -0.00196457 0.0100866c-0.0103504,0.0535197 -0.0496299,0.0916417 -0.101929,0.115157 -0.0401654,0.0180551 -0.0885945,0.0274016 -0.136488,0.0281929 -0.0479055,0.000791339 -0.0959685,-0.00699213 -0.13537,-0.0231693 -0.0496614,-0.0203937 -0.0867126,-0.0541969 -0.0971181,-0.101646 -0.0232244,-0.105862 -0.0393346,-0.20798 -0.0416142,-0.306094 -0.00230709,-0.0994016 0.00976378,-0.193866 0.0431929,-0.282669 0.0208189,-0.0553071 0.055874,-0.0978543 0.0979764,-0.126516 0.0407165,-0.0277165 0.0880748,-0.0423858 0.135646,-0.0430236 0.0477441,-0.000641732 0.095626,0.0128898 0.137177,0.041563 0.0407008,0.0280866 0.0750709,0.0704764 0.0968071,0.127976z"/>
  <path class="fil4" d="M3.50858 3.20351l0.00324803 0.00896457c0.000897638,0.0025 0.00194094,0.00544094 0.0031063,0.00880315l0.000145669 0.023689c-0.0248898,0.072811 -0.0343937,0.150366 -0.0331654,0.232012 0.00125591,0.0830354 0.0136063,0.170669 0.0322441,0.262059l0.000141732 0.0143583 -0.00200787 0.0102638 -2.75591e-005 -7.87402e-006 -0.00196063 0.0100866c-0.0103504,0.0535236 -0.0496378,0.0916457 -0.101933,0.115157 -0.0401693,0.018063 -0.0885984,0.0274016 -0.136488,0.0281929 -0.0479016,0.000791339 -0.0959685,-0.00699213 -0.135366,-0.0231693 -0.0496654,-0.0203937 -0.0867126,-0.0542047 -0.0971181,-0.101646 -0.0232205,-0.105862 -0.0393307,-0.20798 -0.0416102,-0.306094 -0.00231102,-0.0994016 0.00975984,-0.193866 0.043189,-0.282669 0.0208228,-0.0553071 0.055878,-0.0978543 0.0979764,-0.126516 0.0407205,-0.0277165 0.0880787,-0.0423858 0.135646,-0.0430236 0.0477402,-0.000641732 0.095626,0.0128858 0.137177,0.041563 0.0407008,0.0280866 0.0750669,0.0704764 0.0968031,0.127976z"/>
  <path class="fil3" d="M3.08817 3.20351l0.00324409 0.00896457c0.00184646,0.00511811 0.00283858,0.00787008 0.00311024,0.00866142l0.000145669 0.0238307c-0.0248937,0.072811 -0.0343976,0.150366 -0.0331693,0.232012 0.00125591,0.0830354 0.0136063,0.170669 0.0322441,0.262059l0.000141732 0.0143583 -0.00200787 0.0102638 -2.75591e-005 -7.87402e-006 -0.00196063 0.0100866c-0.0103504,0.0535236 -0.0496339,0.0916417 -0.101933,0.115157 -0.0401693,0.018063 -0.0885984,0.0274016 -0.136488,0.0281929 -0.0479016,0.000791339 -0.0959685,-0.00699213 -0.135366,-0.0231693 -0.0496654,-0.0203937 -0.0867126,-0.0542047 -0.0971181,-0.101646 -0.0232205,-0.105862 -0.0393307,-0.20798 -0.0416102,-0.306094 -0.00231102,-0.0994016 0.00975984,-0.193866 0.0431929,-0.282669 0.0208189,-0.0553071 0.055874,-0.0978543 0.0979764,-0.126516 0.0407165,-0.0277165 0.0880748,-0.0423858 0.135642,-0.0430236 0.0477441,-0.000641732 0.095626,0.0128858 0.137177,0.041563 0.0407008,0.0280866 0.0750669,0.0704764 0.0968071,0.127976z"/>
  <path class="fil5" d="M4.84948 3.86958c-0.0141929,-0.0100669 -0.014,-0.0262559 0.000433071,-0.0361575 0.0144291,-0.00990157 0.0376339,-0.00976772 0.0518268,0.000299213 0.000444882,0.000314961 0.157634,0.109937 0.157634,0.223063l0 0.102567c0,0.0141614 -0.0164567,0.0256417 -0.036752,0.0256417 -0.0202953,0 -0.0367559,-0.0114803 -0.0367559,-0.0256417l0 -0.102567c0,-0.0920079 -0.136,-0.186929 -0.136386,-0.187205z"/>
  <path class="fil5" d="M4.55545 3.86958c-0.014189,-0.0100669 -0.0139961,-0.0262559 0.000433071,-0.0361575 0.0144291,-0.00990157 0.0376339,-0.00976772 0.0518268,0.000299213 0.000448819,0.000314961 0.157638,0.109937 0.157638,0.223063l0 0.102567c0,0.0141614 -0.0164567,0.0256417 -0.0367559,0.0256417 -0.0202953,0 -0.036752,-0.0114803 -0.036752,-0.0256417l0 -0.102567c0,-0.0920079 -0.136,-0.186929 -0.13639,-0.187205z"/>
  <path class="fil5" d="M4.26143 3.86958c-0.0141929,-0.0100669 -0.014,-0.0262559 0.000433071,-0.0361575 0.0144291,-0.00990157 0.0376339,-0.00976772 0.0518268,0.000299213 0.000444882,0.000314961 0.157634,0.109937 0.157634,0.223063l0 0.102567c0,0.0141614 -0.0164567,0.0256417 -0.036752,0.0256417 -0.0202953,0 -0.036752,-0.0114803 -0.036752,-0.0256417l0 -0.102567c0,-0.0920079 -0.136,-0.186929 -0.13639,-0.187205z"/>
  <path class="fil5" d="M3.96741 3.86958c-0.0141929,-0.0100669 -0.014,-0.0262559 0.000429134,-0.0361575 0.0144331,-0.00990157 0.0376378,-0.00976772 0.0518268,0.000299213 0.000448819,0.000314961 0.157638,0.109937 0.157638,0.223063l0 0.102567c0,0.0141614 -0.0164567,0.0256417 -0.036752,0.0256417 -0.0202992,0 -0.0367559,-0.0114803 -0.0367559,-0.0256417l0 -0.102567c0,-0.0920079 -0.136,-0.186929 -0.136386,-0.187205z"/>
  <path class="fil5" d="M3.67339 3.86958c-0.0141929,-0.0100669 -0.014,-0.0262559 0.000433071,-0.0361575 0.0144291,-0.00990157 0.0376339,-0.00976772 0.0518268,0.000299213 0.000448819,0.000314961 0.157634,0.109937 0.157634,0.223063l0 0.102567c0,0.0141614 -0.0164567,0.0256417 -0.036752,0.0256417 -0.0202953,0 -0.036752,-0.0114803 -0.036752,-0.0256417l0 -0.102567c0,-0.0920079 -0.136,-0.186929 -0.13639,-0.187205z"/>
  <path class="fil5" d="M3.37937 3.86958c-0.0141929,-0.0100669 -0.014,-0.0262559 0.000429134,-0.0361575 0.0144331,-0.00990157 0.0376378,-0.00976772 0.0518268,0.000299213 0.000448819,0.000314961 0.157638,0.109937 0.157638,0.223063l0 0.102567c0,0.0141614 -0.0164567,0.0256417 -0.036752,0.0256417 -0.0202992,0 -0.0367559,-0.0114803 -0.0367559,-0.0256417l0 -0.102567c0,-0.0920079 -0.136,-0.186929 -0.136386,-0.187205z"/>
  <path class="fil5" d="M3.08535 3.86958c-0.0141929,-0.0100669 -0.014,-0.0262559 0.000433071,-0.0361575 0.0144291,-0.00990157 0.0376339,-0.00976772 0.0518268,0.000299213 0.000448819,0.000314961 0.157638,0.109937 0.157638,0.223063l0 0.102567c0,0.0141614 -0.0164606,0.0256417 -0.0367559,0.0256417 -0.0202953,0 -0.036752,-0.0114803 -0.036752,-0.0256417l0 -0.102567c0,-0.0920079 -0.136,-0.186929 -0.13639,-0.187205z"/>
  <path class="fil5" d="M2.79133 3.86958c-0.0141929,-0.0100669 -0.014,-0.0262559 0.000429134,-0.0361575 0.0144331,-0.00990157 0.0376378,-0.00976772 0.0518268,0.000299213 0.000448819,0.000314961 0.157638,0.109937 0.157638,0.223063l0 0.102567c0,0.0141614 -0.0164567,0.0256417 -0.036752,0.0256417 -0.0202992,0 -0.0367559,-0.0114803 -0.0367559,-0.0256417l0 -0.102567c0,-0.0920079 -0.136,-0.186929 -0.136386,-0.187205z"/>
  <path class="fil4" d="M2.20801 2.89447c0.101047,0 0.195508,0.0333937 0.276024,0.0914134 0.0822638,0.0592795 0.149689,0.144205 0.194256,0.245228l0.00143701 0.0258425c-0.0237638,0.0750315 -0.0317008,0.154953 -0.0287795,0.239083 0.0029685,0.0854449 0.0172047,0.175913 0.0375472,0.270362l-0.00187008 0.021248c-0.042252,0.104665 -0.108465,0.193303 -0.190272,0.255941 -0.0802598,0.0614488 -0.175563,0.0979331 -0.278201,0.100224l-0.0276102 0.000614173 -0.0081378 -0.0264567c-0.0237953,-0.0773504 -0.0681063,-0.152319 -0.111248,-0.200508 -0.0167756,-0.0187323 -0.0328189,-0.0328228 -0.0466378,-0.0405866 0.00287795,0.0357087 0.0085,0.101142 0.0163819,0.17426l0.00747638 0.0693622 -0.061315 -0.033185c-0.0930984,-0.0503819 -0.171618,-0.131622 -0.226169,-0.232555 -0.0523819,-0.0969134 -0.0827795,-0.212098 -0.0827795,-0.335492 0,-0.171228 0.0584882,-0.326594 0.153055,-0.43935 0.0960827,-0.114575 0.229291,-0.185445 0.376843,-0.185445z"/>
  <path class="fil6" d="M1.94389 3.34089c0.0340315,-0.0394843 0.0550827,-0.0944882 0.0550827,-0.155646 0,-0.0306339 -0.00522047,-0.0595748 -0.0146614,-0.0856811 -0.00580709,-0.0160669 -0.0131929,-0.0311299 -0.0219134,-0.0449094 -0.0245472,0.0189764 -0.0474961,0.0407126 -0.0685315,0.0648346 -0.00215748,0.00248031 -0.00429921,0.00498819 -0.00641732,0.00751575 -0.0176969,0.0211299 -0.0339961,0.0440039 -0.0487008,0.0684016 -0.0328307,0.0544567 -0.0575906,0.116409 -0.0721732,0.183358 -0.00104331,0.00478346 -0.0020315,0.00959055 -0.00297244,0.0144213 0.00462992,0.00170079 0.00931496,0.00317717 0.0140354,0.00440945 0.0123071,0.00321654 0.0253937,0.00492126 0.0391299,0.00492126 0.0493346,0 0.0943031,-0.0235551 0.127122,-0.061626z"/>
  <path class="fil7" d="M1.94398 3.34033c0.0234409,-0.0271929 0.0379409,-0.0650748 0.0379409,-0.107193 0,-0.0211024 -0.00359449,-0.0410315 -0.0100984,-0.0590118 -0.004,-0.0110669 -0.00908661,-0.0214409 -0.0150906,-0.0309331 -0.0169094,0.0130709 -0.0327126,0.0280394 -0.0472008,0.0446535 -0.00148819,0.00170866 -0.00296063,0.00343701 -0.00442126,0.00517717 -0.012189,0.0145512 -0.0234134,0.0303071 -0.0335394,0.0471102 -0.0226142,0.0375039 -0.0396614,0.0801732 -0.0497087,0.126283 -0.000716535,0.00329528 -0.00139764,0.0066063 -0.00204724,0.00993307 0.00318898,0.00116929 0.00641732,0.00218504 0.00966535,0.00303543 0.00847638,0.00221654 0.0174921,0.00338976 0.0269528,0.00338976 0.0339764,0 0.0649488,-0.0162244 0.0875472,-0.0424449z"/>
  <path class="fil8" d="M2.20742 4.12733c-0.0299055,-0.0972244 -0.0856024,-0.191449 -0.139827,-0.25202 -0.0210827,-0.0235433 -0.041248,-0.0412559 -0.0586181,-0.0510118 0.00362205,0.0448819 0.0106811,0.127126 0.0205866,0.219024l0.00869685 0.080622c0.0603622,0.0343268 0.12022,0.0489685 0.17939,0.0366378l-0.0102283 -0.033252z"/>
  <path class="fil9" d="M2.68065 3.14645c0.0117441,0.13915 0.0315906,0.146866 0.0127756,0.306398 -0.0109606,0.0929882 -0.0176063,0.157476 -0.023874,0.251213 -0.0344449,-0.131961 -0.0256535,-0.123346 -0.0223583,-0.255732 0.00383465,-0.154154 -0.0155433,-0.164047 -0.0354055,-0.299299 -0.000708661,-0.0190157 0.014126,-0.0350079 0.0331417,-0.0357205 0.0190157,-0.000712598 0.0350118,0.014126 0.0357205,0.0331417z"/>
  <path class="fil9" d="M3.10057 3.13544c0.0212559,0.243071 -0.0250984,0.156091 -0.0399094,0.34215 -0.00714567,0.0898346 -0.00555118,0.123917 0.00555906,0.212083l-0.000141732 7.08661e-005c-0.0487283,-0.0943307 -0.0457953,-0.103146 -0.0481457,-0.213705 -0.00406693,-0.191547 0.0491929,-0.0992402 0.0137992,-0.33752 -0.000850394,-0.0190118 0.0138701,-0.0351102 0.0328819,-0.0359606 0.0190079,-0.000846457 0.0351102,0.013874 0.0359567,0.0328819z"/>
  <path class="fil9" d="M3.51724 3.14883c0.027378,0.0283425 0.0233976,0.198362 0.00751575,0.266201 -0.0184409,0.0787598 -0.0330748,0.131547 -0.0171378,0.21187 -0.0454094,-0.035622 -0.0398228,-0.121728 -0.0341575,-0.175366 0.0193543,-0.183272 -0.00278346,-0.133311 -0.0221299,-0.322819 0.00555512,-0.0182008 0.024811,-0.0284528 0.0430118,-0.0228976 0.0182047,0.00555512 0.0284528,0.024811 0.0228976,0.0430118z"/>
  <path class="fil9" d="M3.93806 3.1243c0.0528189,0.24639 -0.075685,0.266535 -0.028437,0.51874l-2.75591e-005 1.5748e-005c-0.119185,-0.145598 0.0233701,-0.288516 -0.0356142,-0.493398 -0.007,-0.0176929 0.00166535,-0.0377165 0.0193583,-0.0447165 0.0176929,-0.00700394 0.0377165,0.00166142 0.0447205,0.0193583z"/>
  <path class="fil9" d="M4.77754 3.23904c0.0686732,0.150236 0.00765354,0.278476 0.0401142,0.447075 -0.084063,-0.0497717 -0.0277992,-0.282382 -0.0962717,-0.407138 -0.0110276,-0.0155079 -0.00739764,-0.0370197 0.00811024,-0.0480472 0.0155079,-0.0110276 0.0370197,-0.00739764 0.0480472,0.00811024z"/>
  <path class="fil9" d="M5.11796 3.43173c-0.00240157,0.101205 0.00522441,0.266693 -0.0275276,0.358472 -0.0225472,-0.0571457 -0.0378031,-0.320232 -0.0347087,-0.388063 0.00817323,-0.017185 0.0287283,-0.0244961 0.0459134,-0.0163228 0.017189,0.00816929 0.0244961,0.0287244 0.0163228,0.0459134z"/>
  <path class="fil9" d="M4.34115 3.15294c0.052248,0.156705 -0.0221024,0.277701 -0.0078189,0.448803 -0.0782717,-0.0584606 0.00249213,-0.283736 -0.0522795,-0.415087 -0.00931102,-0.0165984 -0.00340551,-0.0375984 0.0131929,-0.0469094 0.0165945,-0.00931102 0.0375945,-0.00340551 0.0469055,0.0131929z"/>
  <circle class="fil10" cx="3.25989" cy="3.18039" r="0.0646032"/>
  <circle class="fil10" cx="3.25989" cy="3.36942" r="0.0478582"/>
  <circle class="fil10" cx="3.25989" cy="3.55845" r="0.0311133"/>
  <circle class="fil10" cx="3.68581" cy="3.18039" r="0.0646032"/>
  <circle class="fil10" cx="4.11172" cy="3.18039" r="0.0646032"/>
  <circle class="fil10" cx="4.53045" cy="3.19953" r="0.0646032"/>
  <circle class="fil10" cx="4.92961" cy="3.34266" r="0.0450263"/>
  <circle class="fil10" cx="5.1852" cy="3.53605" r="0.0254494"/>
  <circle class="fil10" cx="3.68581" cy="3.36942" r="0.0478582"/>
  <circle class="fil10" cx="4.11172" cy="3.36942" r="0.0478582"/>
  <circle class="fil10" cx="4.53045" cy="3.38856" r="0.0478582"/>
  <circle class="fil10" cx="4.92961" cy="3.47441" r="0.0333556"/>
  <circle class="fil10" cx="5.1852" cy="3.61051" r="0.018853"/>
  <circle class="fil10" cx="3.68581" cy="3.55845" r="0.0311133"/>
  <circle class="fil10" cx="4.11172" cy="3.55845" r="0.0311133"/>
  <circle class="fil10" cx="4.53045" cy="3.57759" r="0.0311133"/>
  <circle class="fil10" cx="4.92961" cy="3.60616" r="0.0216849"/>
  <circle class="fil10" cx="5.1852" cy="3.68498" r="0.0122566"/>
  <circle class="fil10" cx="2.8603" cy="3.18039" r="0.0646032"/>
  <circle class="fil10" cx="2.8603" cy="3.36942" r="0.0478582"/>
  <circle class="fil10" cx="2.8603" cy="3.55845" r="0.0311133"/>
 </g>
</svg>
