<?xml version="1.0" encoding="UTF-8"?>
<!DOCTYPE svg PUBLIC "-//W3C//DTD SVG 1.1//EN" "http://www.w3.org/Graphics/SVG/1.1/DTD/svg11.dtd">
<!-- Creator: CorelDRAW -->
<svg xmlns="http://www.w3.org/2000/svg" xml:space="preserve" width="6.82666in" height="6.82666in" style="shape-rendering:geometricPrecision; text-rendering:geometricPrecision; image-rendering:optimizeQuality; fill-rule:evenodd; clip-rule:evenodd"
viewBox="0 0 6.82666 6.82666"
 xmlns:xlink="http://www.w3.org/1999/xlink">
 <defs>
  <style type="text/css">
   <![CDATA[
    .fil2 {fill:none}
    .fil8 {fill:#558B2F}
    .fil7 {fill:#689F38}
    .fil1 {fill:#E9CD78}
    .fil0 {fill:#FFE082}
    .fil5 {fill:#2A5918;fill-rule:nonzero}
    .fil4 {fill:#33691E;fill-rule:nonzero}
    .fil3 {fill:#558B2F;fill-rule:nonzero}
    .fil6 {fill:#689F38;fill-rule:nonzero}
   ]]>
  </style>
   <clipPath id="id0">
    <path d="M3.41333 -3.93701e-006c1.88513,0 3.41333,1.5282 3.41333,3.41333 0,1.88513 -1.5282,3.41333 -3.41333,3.41333 -1.88513,0 -3.41333,-1.5282 -3.41333,-3.41333 0,-1.88513 1.5282,-3.41333 3.41333,-3.41333z"/>
   </clipPath>
 </defs>
 <g id="Layer_x0020_1">
  <metadata id="CorelCorpID_0Corel-Layer"/>
  <path class="fil0" d="M3.41333 -3.93701e-006c1.88513,0 3.41333,1.5282 3.41333,3.41333 0,1.88513 -1.5282,3.41333 -3.41333,3.41333 -1.88513,0 -3.41333,-1.5282 -3.41333,-3.41333 0,-1.88513 1.5282,-3.41333 3.41333,-3.41333z"/>
  <g style="clip-path:url(#id0)">
   <g id="_637652776">
    <g>
     <polygon id="_2169312721" class="fil1" points="2.67992,2.77863 6.46619,6.5649 6.46625,6.5651 6.46632,6.5653 6.46639,6.5655 6.46645,6.56569 6.46652,6.56589 6.46659,6.56609 6.46665,6.56629 6.46672,6.56648 2.68045,2.78021 2.68039,2.78002 2.68032,2.77981 2.68025,2.77962 2.68019,2.77942 2.68012,2.77922 2.68005,2.77902 2.67998,2.77883 "/>
     <polygon id="_216931104" class="fil1" points="4.07915,4.21681 7.86542,8.00309 7.86504,8.02387 7.86391,8.04446 7.86204,8.06486 7.85947,8.08507 7.8562,8.10508 7.85226,8.12489 7.84766,8.14451 7.84243,8.16393 7.83657,8.18314 7.83013,8.20215 7.82311,8.22094 7.81552,8.23954 7.8074,8.25791 7.79876,8.27608 7.78962,8.29403 7.77999,8.31176 7.76991,8.32928 7.75938,8.34657 7.74842,8.36364 7.73707,8.38048 7.72532,8.3971 7.71321,8.41348 7.70076,8.42964 7.68797,8.44556 7.67488,8.46124 7.66149,8.47669 7.64784,8.4919 7.63394,8.50687 7.6198,8.52159 7.60545,8.53606 7.59091,8.55029 7.5762,8.56427 3.78993,4.778 3.80465,4.76402 3.81919,4.74979 3.83354,4.73531 3.84767,4.72059 3.86157,4.70563 3.87522,4.69042 3.88861,4.67497 3.9017,4.65929 3.91449,4.64337 3.92694,4.62721 3.93906,4.61083 3.9508,4.59421 3.96215,4.57737 3.97311,4.5603 3.98364,4.54301 3.99372,4.52549 4.00335,4.50776 4.01249,4.48981 4.02113,4.47164 4.02926,4.45326 4.03684,4.43467 4.04386,4.41587 4.05031,4.39687 4.05616,4.37765 4.06139,4.35824 4.06599,4.33862 4.06993,4.31881 4.0732,4.2988 4.07578,4.27859 4.07764,4.25819 4.07877,4.23759 "/>
     <polygon id="_216933504" class="fil1" points="3.78993,4.778 7.5762,8.56427 7.57581,8.56907 7.57535,8.57365 7.57479,8.57799 7.57415,8.58209 7.57341,8.58592 7.57257,8.5895 7.57164,8.5928 7.57061,8.59581 3.78434,4.80954 3.78537,4.80652 3.7863,4.80322 3.78714,4.79965 3.78788,4.79581 3.78852,4.79172 3.78908,4.78738 3.78955,4.7828 "/>
     <polygon id="_216933696" class="fil1" points="3.78434,4.80954 7.57061,8.59581 7.54584,8.61598 7.52061,8.6358 7.49494,8.6553 7.46886,8.67445 7.44236,8.69327 7.41548,8.71174 7.38823,8.72988 7.36063,8.74767 7.3327,8.76511 7.30446,8.7822 7.27591,8.79894 7.24709,8.81533 7.21801,8.83137 7.18869,8.84706 7.15915,8.86238 7.12939,8.87734 7.09946,8.89194 7.06935,8.90618 7.03909,8.92006 7.0087,8.93356 6.97819,8.94669 6.94759,8.95946 6.91691,8.97185 6.88616,8.98387 6.85537,8.99551 6.82456,9.00677 6.79375,9.01765 6.76294,9.02815 6.73217,9.03826 6.70144,9.04798 6.67078,9.05732 6.6402,9.06627 2.85393,5.28 2.88451,5.27105 2.91517,5.26171 2.9459,5.25198 2.97667,5.24187 3.00748,5.23137 3.0383,5.2205 3.06911,5.20924 3.09989,5.19759 3.13064,5.18558 3.16132,5.17319 3.19193,5.16042 3.22243,5.14729 3.25282,5.13378 3.28308,5.11991 3.31319,5.10567 3.34313,5.09107 3.37288,5.07611 3.40243,5.06078 3.43174,5.0451 3.46083,5.02906 3.48965,5.01267 3.51819,4.99593 3.54643,4.97883 3.57437,4.96139 3.60196,4.94361 3.62921,4.92547 3.65609,4.907 3.68259,4.88818 3.70868,4.86902 3.73435,4.84953 3.75957,4.8297 "/>
     <polygon id="_216933384" class="fil1" points="4.17969,3.4468 7.96596,7.23307 7.96187,7.24883 7.95771,7.26492 7.95349,7.28137 7.94923,7.29819 7.94494,7.31541 7.94064,7.33306 7.93632,7.35113 7.93202,7.36967 7.92774,7.38868 7.92349,7.40819 7.9193,7.42821 7.91516,7.44877 7.9111,7.46989 7.90712,7.49158 7.90325,7.51387 7.89949,7.53677 7.89585,7.56031 7.89236,7.5845 7.88902,7.60937 7.88584,7.63493 7.88284,7.66121 7.88004,7.68822 7.87744,7.71599 7.87506,7.74453 7.8729,7.77386 7.871,7.80401 7.86935,7.83499 7.86797,7.86682 7.86687,7.89953 7.86607,7.93313 7.86559,7.96764 7.86542,8.00309 4.07915,4.21681 4.07932,4.18137 4.07981,4.14686 4.08061,4.11326 4.0817,4.08055 4.08308,4.04872 4.08473,4.01774 4.08663,3.98759 4.08879,3.95826 4.09117,3.92972 4.09377,3.90195 4.09657,3.87494 4.09957,3.84866 4.10275,3.8231 4.10609,3.79823 4.10958,3.77404 4.11322,3.7505 4.11698,3.72759 4.12085,3.70531 4.12483,3.68361 4.12889,3.6625 4.13303,3.64194 4.13722,3.62191 4.14147,3.60241 4.14575,3.58339 4.15006,3.56486 4.15437,3.54678 4.15868,3.52914 4.16296,3.51192 4.16722,3.49509 4.17144,3.47865 4.1756,3.46256 "/>
     <polygon id="_216933600" class="fil1" points="3.30787,1.55782 7.09414,5.34409 7.09879,5.34973 7.1023,5.3562 7.10452,5.36336 7.1053,5.37104 3.31903,1.58476 3.31826,1.57709 3.31604,1.56993 3.31252,1.56346 "/>
     <polygon id="_216933528" class="fil1" points="3.31903,1.58476 7.1053,5.37104 7.1053,5.5718 3.31903,1.78553 "/>
     <polygon id="_216933672" class="fil1" points="3.69271,1.91675 7.47898,5.70302 7.47907,5.70323 7.47917,5.70344 7.47927,5.70365 7.47937,5.70386 7.47947,5.70407 7.47957,5.70428 7.47967,5.70449 7.47976,5.7047 3.6935,1.91843 3.6934,1.91822 3.6933,1.91801 3.6932,1.9178 3.6931,1.91759 3.693,1.91737 3.69291,1.91717 3.69281,1.91696 "/>
     <polygon id="_216933408" class="fil1" points="3.8054,2.02525 7.59167,5.81152 7.60117,5.82218 7.61032,5.83295 7.61912,5.84388 7.62756,5.85499 7.63562,5.86632 7.6433,5.8779 7.65058,5.88975 7.65747,5.90192 7.66394,5.91442 7.67,5.9273 7.67562,5.94059 7.6808,5.95431 7.68554,5.9685 7.68981,5.98319 7.69362,5.99841 7.69695,6.01419 7.6998,6.03057 7.70215,6.04758 7.70399,6.06524 7.70531,6.08359 7.70612,6.10266 7.70639,6.12248 3.92012,2.33621 3.91985,2.31639 3.91905,2.29732 3.91772,2.27897 3.91588,2.26131 3.91353,2.2443 3.91069,2.22792 3.90735,2.21214 3.90354,2.19692 3.89927,2.18223 3.89453,2.16804 3.88935,2.15431 3.88373,2.14103 3.87767,2.12815 3.8712,2.11565 3.86431,2.10348 3.85703,2.09163 3.84935,2.08005 3.84129,2.06872 3.83285,2.05761 3.82405,2.04668 3.8149,2.03591 "/>
     <polygon id="_216933912" class="fil1" points="3.92012,2.33621 7.70639,6.12248 7.70659,6.13888 7.70719,6.15486 7.70818,6.17044 7.70954,6.18562 7.71126,6.20043 7.71333,6.21487 7.71574,6.22897 7.71846,6.24273 7.7215,6.25617 7.72484,6.2693 7.72846,6.28214 7.73236,6.2947 7.73652,6.307 7.74093,6.31905 7.74557,6.33086 7.75044,6.34245 7.75551,6.35383 7.76079,6.36502 7.76625,6.37603 7.77189,6.38687 7.77769,6.39756 7.78363,6.40811 7.78971,6.41854 7.79592,6.42887 7.80224,6.43909 7.80865,6.44923 7.81516,6.45931 7.82174,6.46933 7.82837,6.47931 7.83506,6.48928 7.84179,6.49922 7.84854,6.50917 4.06227,2.7229 4.05552,2.71295 4.0488,2.703 4.04211,2.69304 4.03547,2.68306 4.02889,2.67304 4.02239,2.66296 4.01597,2.65282 4.00965,2.64259 4.00344,2.63227 3.99736,2.62184 3.99142,2.61129 3.98562,2.6006 3.97998,2.58976 3.97452,2.57875 3.96924,2.56756 3.96417,2.55618 3.9593,2.54459 3.95466,2.53278 3.95025,2.52073 3.94609,2.50843 3.9422,2.49587 3.93857,2.48303 3.93524,2.4699 3.9322,2.45646 3.92947,2.4427 3.92706,2.4286 3.925,2.41416 3.92328,2.39935 3.92191,2.38417 3.92093,2.36859 3.92033,2.35261 "/>
     <polygon id="_216933456" class="fil1" points="4.06227,2.7229 7.84854,6.50917 7.85497,6.51867 7.86141,6.52819 7.86785,6.53774 7.87426,6.54734 7.88065,6.55701 7.887,6.56674 7.89331,6.57656 7.89956,6.58646 7.90575,6.59647 7.91187,6.6066 7.91791,6.61685 7.92386,6.62724 7.92971,6.63778 7.93545,6.64848 7.94108,6.65935 7.94658,6.67041 7.95194,6.68165 7.95717,6.6931 7.96223,6.70477 7.96714,6.71666 7.97187,6.7288 7.97643,6.74118 7.98079,6.75382 7.98496,6.76673 7.98892,6.77993 7.99266,6.79342 7.99617,6.80722 7.99946,6.82133 8.0025,6.83577 8.00528,6.85055 8.00781,6.86568 8.01006,6.88117 4.22379,3.0949 4.22154,3.07941 4.21902,3.06428 4.21623,3.0495 4.21319,3.03506 4.20991,3.02094 4.20639,3.00715 4.20265,2.99366 4.19869,2.98046 4.19452,2.96755 4.19016,2.95491 4.18561,2.94252 4.18087,2.93039 4.17596,2.9185 4.1709,2.90683 4.16568,2.89538 4.16031,2.88413 4.15481,2.87308 4.14919,2.86221 4.14344,2.85151 4.13759,2.84097 4.13165,2.83058 4.12561,2.82033 4.11948,2.8102 4.1133,2.80019 4.10704,2.79028 4.10073,2.78047 4.09438,2.77074 4.08799,2.76107 4.08158,2.75147 4.07515,2.74191 4.0687,2.73239 "/>
     <polygon id="_216933480" class="fil1" points="4.22379,3.0949 8.01006,6.88117 8.01145,6.89236 8.01261,6.90343 8.01353,6.91441 8.01422,6.92529 8.01469,6.9361 8.01495,6.94683 8.01499,6.9575 8.01483,6.96813 8.01448,6.9787 8.01393,6.98926 8.0132,6.99978 8.01229,7.0103 8.01121,7.02081 8.00996,7.03133 8.00855,7.04186 8.00698,7.05243 8.00527,7.06303 8.00342,7.07367 8.00143,7.08438 7.9993,7.09515 7.99706,7.10599 7.9947,7.11692 7.99222,7.12795 7.98965,7.13908 7.98697,7.15032 7.9842,7.16169 7.98134,7.1732 7.9784,7.18485 7.97539,7.19665 7.97231,7.20861 7.96916,7.22075 7.96596,7.23307 4.17969,3.4468 4.18289,3.43448 4.18604,3.42234 4.18912,3.41038 4.19213,3.39857 4.19507,3.38693 4.19793,3.37542 4.2007,3.36405 4.20338,3.35281 4.20596,3.34168 4.20843,3.33065 4.21079,3.31972 4.21304,3.30887 4.21516,3.29811 4.21715,3.2874 4.219,3.27676 4.22072,3.26616 4.22228,3.25559 4.22369,3.24506 4.22494,3.23454 4.22602,3.22402 4.22693,3.21351 4.22767,3.20298 4.22821,3.19243 4.22857,3.18185 4.22872,3.17123 4.22868,3.16056 4.22843,3.14983 4.22795,3.13902 4.22726,3.12814 4.22634,3.11716 4.22519,3.10609 "/>
    </g>
    <path id="_637652752" class="fil1" d="M4.17969 3.4468c-0.0432126,0.166291 -0.100539,0.38689 -0.100539,0.770012 0,0.222657 -0.131402,0.413421 -0.289224,0.561185 -0.000905512,0.0131102 -0.00270472,0.023878 -0.00559055,0.0315433 -0.261669,0.216815 -0.604756,0.377102 -0.930409,0.470453 -0.158937,-0.141256 -0.197827,-0.423957 -0.197827,-0.621862 -0.0260748,-0.644256 -0.129165,-1.34272 0.023815,-1.8795 0.000181102,0.000527559 0.000358268,0.00105512 0.000535433,0.00158268 -0.0173071,-0.119 -0.0254803,-0.224402 -0.029311,-0.301307l0 -0.131063c0,-0.156433 0.0733937,-0.297768 0.192047,-0.399811 0.0840197,-0.0722559 0.190858,-0.124717 0.310232,-0.148535 0.0291063,-0.00580709 0.0589567,-0.00991339 0.0894055,-0.012189l0 -0.202543c0,-0.0210394 0.017063,-0.0381024 0.0381024,-0.0381024 0.0210433,0 0.0381024,0.017063 0.0381024,0.0381024l0 0.200764c0.0294961,0.00092126 0.0581024,0.00385827 0.0858622,0.00859055 0.104634,0.0178031 0.197185,0.0609764 0.27948,0.116902 -0.000192913,-0.000440945 -0.000385827,-0.000877953 -0.000574803,-0.00130709 0.00140945,0.00127165 0.0028189,0.00253543 0.00422047,0.00379921 0.00156693,0.0010748 0.00312992,0.00215354 0.00468898,0.00324016 0.000259843,0.000551181 0.000523622,0.00111024 0.000787402,0.0016811 0.133917,0.120382 0.226626,0.202205 0.226626,0.41778 0,0.177209 0.0700748,0.280476 0.142146,0.386689 0.0686457,0.101161 0.138965,0.204791 0.161524,0.372 0.0161811,0.119925 -0.0096811,0.219453 -0.0440984,0.351902z"/>
   </g>
  </g>
  <path class="fil2" d="M3.41333 -3.93701e-006c1.88513,0 3.41333,1.5282 3.41333,3.41333 0,1.88513 -1.5282,3.41333 -3.41333,3.41333 -1.88513,0 -3.41333,-1.5282 -3.41333,-3.41333 0,-1.88513 1.5282,-3.41333 3.41333,-3.41333z"/>
  <path class="fil3" d="M3.72277 4.82546c0.000452756,-0.000913386 0.00129921,-0.00264567 0.00245276,-0.00513386l-0.0712047 -0.0318031c0.104063,-0.205957 0.0289134,-0.446165 -0.132768,-0.597327 -0.0429961,-0.0401969 -0.0927008,-0.0799567 -0.146874,-0.12328 -0.142638,-0.114083 -0.31474,-0.251736 -0.481744,-0.48565 -0.115217,-0.161378 -0.189122,-0.360413 -0.236531,-0.551894 -0.00192913,-0.0658543 0.0232362,-0.131598 0.0354488,-0.196858 0.040126,0.233673 0.116984,0.505492 0.26402,0.711445 0.136008,0.1905 0.253902,0.319874 0.377587,0.420791 -0.233843,-0.328224 -0.36522,-0.725402 0.29411,-1.34106 0.0676654,-0.063185 0.107445,-0.159134 0.124984,-0.25774 0.0209961,-0.11802 -0.0341772,-0.380024 -0.0684528,-0.45724 0.139118,0.12526 0.236323,0.20576 0.236323,0.4265 0,0.177209 0.0700748,0.280476 0.142146,0.386689 0.0686457,0.101161 0.138965,0.204791 0.161524,0.372 0.0161811,0.119925 -0.0096811,0.219453 -0.0440984,0.351902 -0.0432126,0.166291 -0.100539,0.38689 -0.100539,0.770012 0,0.252661 -0.169201,0.464252 -0.354205,0.618551l0 -0.00753543c0,-0.00124803 -0.000956693,-0.00227165 -0.00217717,-0.00237402z"/>
  <path class="fil4" d="M3.29903 1.78522c0.153102,0 0.282803,0.0543898 0.393681,0.131535 0.0348307,0.0736772 0.104587,0.339965 0.0827874,0.46248 -0.0179094,0.100689 -0.0585276,0.198661 -0.127622,0.263181 -0.673248,0.628654 -0.516303,1.02965 -0.277524,1.36481 -0.126299,-0.103051 -0.269472,-0.230598 -0.40835,-0.425122 -0.244291,-0.342165 -0.298862,-0.86239 -0.310858,-1.1032l0 -0.131063c0,-0.156433 0.0733937,-0.297768 0.192047,-0.399811 0.116969,-0.100594 0.278165,-0.162815 0.455839,-0.162815z"/>
  <path class="fil5" d="M3.29903 1.78522c0.0366063,0 0.0718701,0.00311811 0.105866,0.00890157 0.00548819,0.00727165 0.0085,0.0151535 0.0085,0.0233898 0,0.0365787 -0.0593071,0.0662283 -0.132465,0.0662283 -0.0731575,0 -0.132465,-0.0296496 -0.132465,-0.0662283 0,-0.00624409 0.00172835,-0.0122835 0.00495669,-0.0180118 0.046815,-0.00933858 0.0955551,-0.0142795 0.145606,-0.0142795z"/>
  <path class="fil3" d="M3.24283 1.58476c0,-0.0210394 0.017063,-0.0381024 0.0381024,-0.0381024 0.0210433,0 0.0381024,0.017063 0.0381024,0.0381024l0 0.217693c0,0.0210394 -0.0170591,0.0381024 -0.0381024,0.0381024 -0.0210394,0 -0.0381024,-0.017063 -0.0381024,-0.0381024l0 -0.217693z"/>
  <path class="fil6" d="M3.78434 4.80954c-0.261669,0.216815 -0.604756,0.377102 -0.930409,0.470453 -0.158937,-0.141256 -0.197827,-0.423957 -0.197827,-0.621862 -0.0260748,-0.644256 -0.129165,-1.34272 0.023815,-1.8795 0.0708504,0.207969 0.104173,0.54 0.225724,0.710252 0.176189,0.24678 0.35776,0.392004 0.508244,0.512362 0.149354,0.119453 0.274854,0.216878 0.327591,0.413665 0.0194567,0.0725827 0.0659961,0.333161 0.0428622,0.394634z"/>
  <path class="fil7" d="M3.87241 2.8631c-0.0293228,0.312091 -0.21713,0.533543 -0.422949,0.757114 -0.0186496,0.00644094 -0.0389843,-0.00346063 -0.0454213,-0.0221102 -0.00644094,-0.0186457 0.00346063,-0.0389803 0.0221102,-0.0454213 0.0285945,-0.0481535 0.0171496,-0.0325906 0.0622441,-0.0868386 0.160807,-0.193441 0.287913,-0.341996 0.312571,-0.602744 0,-0.0197283 0.0159921,-0.0357205 0.0357205,-0.0357205 0.0197283,0 0.0357244,0.0159921 0.0357244,0.0357205z"/>
  <path class="fil7" d="M3.93491 3.37156c0.00288976,0.184299 -0.174291,0.37972 -0.286047,0.505937 -0.0111378,0.0162835 -0.0333661,0.0204567 -0.0496496,0.0093189 -0.0162795,-0.0111417 -0.0204528,-0.0333701 -0.00931496,-0.0496496 0.0989528,-0.114969 0.276173,-0.299106 0.273583,-0.464488 -0.000311024,-0.0197244 0.0154291,-0.0359646 0.0351535,-0.0362756 0.0197244,-0.000307087 0.0359685,0.0154331 0.0362756,0.0351575z"/>
  <path class="fil7" d="M3.73337 4.16302c-0.0192205,-0.00444882 -0.0311969,-0.0236378 -0.026748,-0.0428543 0.0467835,-0.0531732 0.251362,-0.337535 0.257181,-0.337189 0.0196929,0.00115748 0.0347165,0.018063 0.0335591,0.0377559 -0.0193268,0.0833465 -0.188161,0.359831 -0.263992,0.342287z"/>
  <path class="fil8" d="M2.87763 3.90772c0.0501575,0.179996 0.340283,0.328843 0.507661,0.375571l0.00244488 -0.000192913c0.019685,-0.00134646 0.0367283,0.0135236 0.0380748,0.0332047 0.00134252,0.019685 -0.0135236,0.0367283 -0.0332087,0.0380709 -0.00934646,0.000740157 -0.0128425,0.000996063 -0.0223543,-0.00112205 -0.195602,-0.0435472 -0.505669,-0.226429 -0.562984,-0.433181 -0.00340945,-0.0194331 0.0095748,-0.0379488 0.0290079,-0.0413583 0.0194331,-0.00340945 0.0379488,0.00957874 0.0413583,0.0290079z"/>
  <path class="fil8" d="M2.87407 4.3557c0.110413,0.177941 0.235299,0.210669 0.444657,0.219031 0.0197283,0 0.0357205,0.0159961 0.0357205,0.0357244 0,0.0197283 -0.0159921,0.0357205 -0.0357205,0.0357205 -0.242205,-0.010378 -0.379669,-0.050811 -0.507906,-0.257252 -0.00917323,-0.0174646 -0.00245276,-0.0390591 0.0150118,-0.0482362 0.0174646,-0.00917323 0.0390591,-0.00244882 0.0482362,0.0150118z"/>
  <path class="fil8" d="M2.96796 4.74031c0.0794213,0.0993858 0.17489,0.109705 0.297181,0.120197 0.0197283,0 0.0357244,0.0159921 0.0357244,0.0357205 0,0.0197283 -0.0159961,0.0357205 -0.0357244,0.0357205 -0.15711,-0.0134291 -0.257583,-0.0280472 -0.357701,-0.153673 -0.0104843,-0.0167087 -0.00543307,-0.0387559 0.0112756,-0.0492402 0.0167126,-0.0104843 0.0387598,-0.00543307 0.0492441,0.0112756z"/>
 </g>
</svg>
