<?xml version="1.0" encoding="UTF-8"?>
<!DOCTYPE svg PUBLIC "-//W3C//DTD SVG 1.1//EN" "http://www.w3.org/Graphics/SVG/1.1/DTD/svg11.dtd">
<!-- Creator: CorelDRAW -->
<svg xmlns="http://www.w3.org/2000/svg" xml:space="preserve" width="6.82666in" height="6.82666in" style="shape-rendering:geometricPrecision; text-rendering:geometricPrecision; image-rendering:optimizeQuality; fill-rule:evenodd; clip-rule:evenodd"
viewBox="0 0 6.82666 6.82666"
 xmlns:xlink="http://www.w3.org/1999/xlink">
 <defs>
  <style type="text/css">
   <![CDATA[
    .fil2 {fill:none}
    .fil1 {fill:#AFB42B}
    .fil0 {fill:#D4E157}
    .fil6 {fill:black;fill-rule:nonzero}
    .fil5 {fill:#182A33;fill-rule:nonzero}
    .fil3 {fill:#263238;fill-rule:nonzero}
    .fil8 {fill:#37474F;fill-rule:nonzero}
    .fil4 {fill:#546E7A;fill-rule:nonzero}
    .fil7 {fill:white;fill-rule:nonzero}
   ]]>
  </style>
   <clipPath id="id0">
    <path d="M3.41333 -3.93701e-006c1.88513,0 3.41333,1.5282 3.41333,3.41333 0,1.88513 -1.5282,3.41333 -3.41333,3.41333 -1.88513,0 -3.41333,-1.5282 -3.41333,-3.41333 0,-1.88513 1.5282,-3.41333 3.41333,-3.41333z"/>
   </clipPath>
 </defs>
 <g id="Layer_x0020_1">
  <metadata id="CorelCorpID_0Corel-Layer"/>
  <path class="fil0" d="M3.41333 -3.93701e-006c1.88513,0 3.41333,1.5282 3.41333,3.41333 0,1.88513 -1.5282,3.41333 -3.41333,3.41333 -1.88513,0 -3.41333,-1.5282 -3.41333,-3.41333 0,-1.88513 1.5282,-3.41333 3.41333,-3.41333z"/>
  <g style="clip-path:url(#id0)">
   <g id="_637667944">
    <g>
     <polygon id="_5390622001" class="fil1" points="5.18355,2.88378 8.96981,6.67005 8.98994,6.69354 9.00733,6.71661 9.02215,6.73923 9.03453,6.76137 9.04463,6.78299 9.0526,6.80406 9.0586,6.82454 9.06277,6.84441 9.06527,6.86363 9.06624,6.88216 9.06584,6.89998 9.06421,6.91706 9.06152,6.93335 9.0579,6.94883 9.05352,6.96346 9.04851,6.97722 9.04304,6.99006 9.03725,7.00196 9.0313,7.01288 9.02533,7.02279 9.0195,7.03166 9.01396,7.03945 9.00885,7.04613 9.00434,7.05168 9.00056,7.05604 8.99768,7.0592 8.99584,7.06113 8.99519,7.06177 5.20893,3.2755 5.20957,3.27485 5.21141,3.27293 5.2143,3.26977 5.21807,3.26541 5.22259,3.25986 5.22769,3.25318 5.23323,3.24539 5.23906,3.23652 5.24503,3.22661 5.25098,3.21569 5.25677,3.20379 5.26224,3.19094 5.26725,3.17719 5.27163,3.16256 5.27525,3.14708 5.27794,3.13078 5.27957,3.11371 5.27997,3.09589 5.279,3.07735 5.2765,3.05813 5.27233,3.03827 5.26633,3.01778 5.25836,2.99672 5.24826,2.9751 5.23588,2.95296 5.22107,2.93034 5.20367,2.90727 "/>
     <polygon id="_539062248" class="fil1" points="5.20893,3.2755 8.99519,7.06177 8.99896,7.06919 9.00257,7.07648 9.00601,7.08362 9.0093,7.09062 9.01241,7.09747 9.01536,7.10419 9.01815,7.11076 9.02076,7.11719 9.02321,7.12347 9.0255,7.12961 9.02761,7.1356 9.02954,7.14145 9.03131,7.14715 9.03291,7.15271 9.03432,7.15812 9.03557,7.16338 9.03664,7.1685 9.03753,7.17346 9.03824,7.17828 9.03878,7.18295 9.03913,7.18748 9.0393,7.19185 9.0393,7.19607 9.0391,7.20014 9.03873,7.20406 9.03817,7.20783 9.03742,7.21144 9.03649,7.21491 9.03537,7.21822 9.03406,7.22138 9.03256,7.22439 9.03087,7.22724 5.2446,3.44097 5.24629,3.43812 5.24779,3.43511 5.2491,3.43195 5.25022,3.42864 5.25115,3.42517 5.2519,3.42156 5.25246,3.41779 5.25283,3.41387 5.25303,3.4098 5.25304,3.40557 5.25286,3.4012 5.25251,3.39668 5.25197,3.39201 5.25126,3.38719 5.25037,3.38222 5.2493,3.37711 5.24806,3.37185 5.24664,3.36644 5.24504,3.36088 5.24328,3.35518 5.24134,3.34933 5.23923,3.34333 5.23694,3.3372 5.2345,3.33091 5.23188,3.32448 5.22909,3.31791 5.22614,3.3112 5.22303,3.30435 5.21974,3.29735 5.2163,3.2902 5.21269,3.28292 "/>
     <polygon id="_539035248" class="fil1" points="5.2446,3.44097 9.03087,7.22724 9.0284,7.2307 9.02561,7.23391 9.02249,7.23686 9.01904,7.23954 9.01526,7.24196 9.01115,7.24412 9.0067,7.24601 9.00191,7.24764 8.99679,7.249 8.99132,7.2501 8.98552,7.25092 8.97936,7.25148 8.97285,7.25177 8.966,7.25178 8.9588,7.25153 8.95124,7.251 8.94332,7.2502 8.93505,7.24913 8.92641,7.24778 8.91742,7.24615 8.90806,7.24424 8.89832,7.24206 8.88822,7.23961 8.87776,7.23687 8.86691,7.23384 8.85569,7.23054 8.84409,7.22696 8.83212,7.22309 8.81976,7.21894 8.80702,7.2145 8.79389,7.20978 8.78037,7.20477 4.9941,3.4185 5.00762,3.42351 5.02075,3.42823 5.03349,3.43267 5.04585,3.43682 5.05783,3.44069 5.06943,3.44427 5.08064,3.44757 5.09149,3.45059 5.10196,3.45333 5.11206,3.45579 5.12179,3.45797 5.13115,3.45988 5.14015,3.4615 5.14878,3.46285 5.15706,3.46393 5.16497,3.46473 5.17253,3.46526 5.17974,3.46551 5.18659,3.4655 5.19309,3.46521 5.19925,3.46465 5.20506,3.46383 5.21052,3.46273 5.21565,3.46137 5.22043,3.45974 5.22488,3.45785 5.22899,3.45569 5.23277,3.45327 5.23622,3.45059 5.23934,3.44764 5.24213,3.44443 "/>
     <polygon id="_539035488" class="fil1" points="4.9941,3.4185 8.78037,7.20477 8.77096,7.20134 8.76144,7.19807 8.75181,7.19496 8.7421,7.192 8.7323,7.1892 8.72242,7.18654 8.71247,7.18403 8.70247,7.18166 8.69241,7.17942 8.68231,7.17732 8.67218,7.17535 8.66202,7.1735 8.65183,7.17178 8.64165,7.17017 8.63146,7.16868 8.62128,7.1673 8.61111,7.16603 8.60097,7.16486 8.59086,7.1638 8.5808,7.16283 8.57078,7.16195 8.56082,7.16117 8.55093,7.16046 8.54111,7.15985 8.53138,7.15931 8.52174,7.15884 8.51219,7.15845 8.50276,7.15812 8.49344,7.15786 8.48426,7.15766 8.4752,7.15752 8.46628,7.15743 4.68002,3.37116 4.68893,3.37125 4.69799,3.37139 4.70718,3.37159 4.71649,3.37185 4.72593,3.37218 4.73547,3.37257 4.74511,3.37304 4.75484,3.37357 4.76466,3.37419 4.77456,3.37489 4.78451,3.37568 4.79453,3.37656 4.80459,3.37753 4.8147,3.37859 4.82485,3.37976 4.83501,3.38103 4.84519,3.38241 4.85538,3.3839 4.86557,3.3855 4.87575,3.38723 4.88591,3.38907 4.89604,3.39105 4.90614,3.39315 4.9162,3.39539 4.9262,3.39776 4.93615,3.40027 4.94603,3.40293 4.95583,3.40573 4.96555,3.40869 4.97517,3.4118 4.98469,3.41507 "/>
     <polygon id="_539035416" class="fil1" points="4.33214,3.37476 8.11841,7.16104 8.11087,7.16097 8.10336,7.16091 8.09587,7.16085 8.08844,7.1608 8.08105,7.16074 8.07372,7.16069 8.06646,7.16064 8.05929,7.16059 8.0522,7.16054 8.04522,7.1605 8.03834,7.16046 8.03159,7.16043 8.02496,7.1604 8.01847,7.16037 8.01213,7.16035 8.00595,7.16033 7.99994,7.16032 7.99411,7.16032 7.98846,7.16032 7.98301,7.16033 7.97777,7.16034 7.97274,7.16036 7.96794,7.16039 7.96338,7.16042 7.95907,7.16046 7.95501,7.16051 7.95121,7.16057 7.94769,7.16064 7.94446,7.16071 7.94152,7.1608 7.93889,7.16089 7.93656,7.16099 4.1503,3.37472 4.15262,3.37462 4.15525,3.37452 4.15819,3.37444 4.16143,3.37437 4.16494,3.3743 4.16874,3.37424 4.1728,3.37419 4.17711,3.37415 4.18168,3.37411 4.18648,3.37409 4.1915,3.37407 4.19674,3.37406 4.20219,3.37405 4.20784,3.37405 4.21367,3.37405 4.21969,3.37406 4.22587,3.37408 4.2322,3.3741 4.23869,3.37413 4.24532,3.37416 4.25207,3.37419 4.25895,3.37423 4.26593,3.37427 4.27302,3.37431 4.2802,3.37437 4.28745,3.37442 4.29478,3.37447 4.30217,3.37452 4.30961,3.37458 4.31709,3.37464 4.3246,3.3747 "/>
     <polygon id="_539035704" class="fil1" points="4.1503,3.37472 7.93656,7.16099 7.93177,7.16115 7.92613,7.1612 7.91967,7.16117 7.91244,7.16104 7.90446,7.16084 7.89578,7.16057 7.88644,7.16024 7.87648,7.15987 7.86593,7.15944 7.85482,7.15898 7.8432,7.1585 7.83111,7.158 7.81857,7.15748 7.80564,7.15697 7.79235,7.15647 7.77873,7.15598 7.76482,7.15552 7.75067,7.15509 7.7363,7.1547 7.72175,7.15436 7.70707,7.15408 7.6923,7.15387 7.67746,7.15373 7.6626,7.15368 7.64775,7.15372 7.63296,7.15386 7.61825,7.15411 7.60367,7.15448 7.58926,7.15498 7.57505,7.15561 7.56108,7.15639 7.54739,7.15731 3.76112,3.37104 3.77481,3.37011 3.78878,3.36934 3.80299,3.36871 3.81741,3.36821 3.83198,3.36784 3.84669,3.36759 3.86148,3.36745 3.87633,3.36741 3.89119,3.36746 3.90603,3.3676 3.92081,3.36781 3.93548,3.36809 3.95003,3.36843 3.9644,3.36881 3.97855,3.36924 3.99246,3.36971 4.00608,3.3702 4.01937,3.3707 4.03231,3.37121 4.04484,3.37172 4.05693,3.37222 4.06855,3.37271 4.07966,3.37317 4.09021,3.37359 4.10018,3.37397 4.10952,3.3743 4.11819,3.37457 4.12617,3.37477 4.1334,3.3749 4.13986,3.37493 4.1455,3.37488 "/>
     <polygon id="_539035440" class="fil1" points="3.5669,2.36608 7.35317,6.15235 7.34997,6.14898 3.5637,2.36271 "/>
     <polygon id="_539035296" class="fil1" points="4.34224,3.79238 8.12851,7.57865 8.11417,7.58169 8.10137,7.58375 8.09002,7.5849 8.08006,7.5852 8.07142,7.5847 8.06403,7.58347 8.05781,7.58155 8.0527,7.57901 8.04863,7.5759 4.26236,3.78963 4.26643,3.79274 4.27154,3.79528 4.27776,3.7972 4.28515,3.79843 4.2938,3.79893 4.30375,3.79863 4.3151,3.79748 4.32791,3.79541 "/>
     <polygon id="_539035200" class="fil1" points="3.76112,3.37104 7.54739,7.15731 7.53264,7.15835 7.51557,7.15943 7.49638,7.16057 7.47524,7.16175 7.45235,7.16296 7.42786,7.16421 7.40198,7.16548 7.37489,7.16678 7.34676,7.16809 7.31777,7.16941 7.28812,7.17072 7.25798,7.17204 7.22753,7.17335 7.19696,7.17465 7.16645,7.17593 7.13618,7.17717 7.10633,7.17839 7.07709,7.17957 7.04863,7.18071 7.02115,7.1818 6.99481,7.18284 6.96981,7.18382 6.94633,7.18473 6.92455,7.18557 6.90464,7.18633 6.8868,7.18701 6.8712,7.1876 6.85804,7.18809 6.84747,7.18849 6.8397,7.18878 6.83491,7.18896 6.83327,7.18902 3.047,3.40274 3.04864,3.40269 3.05344,3.4025 3.0612,3.40222 3.07177,3.40182 3.08494,3.40133 3.10053,3.40074 3.11837,3.40006 3.13828,3.3993 3.16006,3.39846 3.18355,3.39755 3.20855,3.39657 3.23488,3.39553 3.26237,3.39444 3.29082,3.3933 3.32006,3.39212 3.34991,3.3909 3.38018,3.38965 3.41069,3.38838 3.44126,3.38708 3.47171,3.38577 3.50185,3.38445 3.5315,3.38313 3.56049,3.38181 3.58862,3.38051 3.61572,3.37921 3.64159,3.37794 3.66608,3.37669 3.68898,3.37548 3.71011,3.3743 3.7293,3.37316 3.74637,3.37207 "/>
     <polygon id="_539035824" class="fil1" points="3.047,3.40274 6.83327,7.18902 6.81269,7.19506 6.79166,7.20226 6.77022,7.21055 6.74844,7.21986 6.72638,7.23012 6.70409,7.24125 6.68163,7.25318 6.65904,7.26584 6.63641,7.27916 6.61376,7.29306 6.59118,7.30747 6.5687,7.32232 6.5464,7.33754 6.52432,7.35306 6.50252,7.36879 6.48107,7.38468 6.46,7.40065 6.4394,7.41661 6.4193,7.43252 6.39976,7.44828 6.38085,7.46384 6.36263,7.47911 6.34513,7.49402 6.32844,7.50851 6.31259,7.52249 6.29765,7.5359 6.28367,7.54867 6.27072,7.56072 6.25884,7.57198 6.24809,7.58237 6.23854,7.59183 6.23024,7.60029 2.44397,3.81402 2.45228,3.80556 2.46183,3.7961 2.47257,3.7857 2.48445,3.77444 2.4974,3.7624 2.51138,3.74963 2.52632,3.73622 2.54217,3.72224 2.55887,3.70775 2.57636,3.69283 2.59459,3.67757 2.6135,3.66201 2.63303,3.64625 2.65313,3.63034 2.67374,3.61437 2.6948,3.59841 2.71626,3.58252 2.73806,3.56678 2.76013,3.55127 2.78244,3.53605 2.80491,3.5212 2.8275,3.50678 2.85014,3.49289 2.87278,3.47957 2.89536,3.46691 2.91782,3.45498 2.94011,3.44385 2.96218,3.43359 2.98395,3.42428 3.00539,3.41598 3.02643,3.40878 "/>
     <polygon id="_539035176" class="fil1" points="2.44397,3.81402 6.23024,7.60029 6.22301,7.60809 6.21663,7.61567 6.21108,7.62307 6.20634,7.63031 6.20238,7.63745 6.19919,7.64451 6.19674,7.65153 6.19501,7.65854 6.19398,7.66559 6.19364,7.67272 6.19396,7.67995 6.19491,7.68733 6.19649,7.69488 6.19866,7.70266 6.20141,7.71069 6.20471,7.71901 6.20854,7.72765 6.21289,7.73667 6.21774,7.74608 6.22305,7.75593 6.22881,7.76626 6.235,7.7771 6.2416,7.78848 6.24859,7.80046 6.25594,7.81305 6.26364,7.8263 6.27166,7.84024 6.27998,7.85492 6.28859,7.87037 6.29746,7.88661 6.30657,7.90371 6.3159,7.92168 2.52963,4.13541 2.5203,4.11744 2.51119,4.10034 2.50233,4.08409 2.49372,4.06865 2.48539,4.05397 2.47737,4.04003 2.46967,4.02678 2.46232,4.01419 2.45533,4.00221 2.44873,3.99083 2.44254,3.97999 2.43678,3.96966 2.43147,3.95981 2.42663,3.95039 2.42228,3.94138 2.41844,3.93274 2.41514,3.92441 2.41239,3.91639 2.41022,3.90861 2.40865,3.90106 2.40769,3.89368 2.40737,3.88645 2.40772,3.87932 2.40874,3.87227 2.41047,3.86526 2.41292,3.85824 2.41611,3.85118 2.42007,3.84404 2.42481,3.8368 2.43037,3.8294 2.43674,3.82182 "/>
     <polygon id="_539035680" class="fil1" points="2.14932,4.15887 5.93559,7.94514 5.93115,7.94763 5.92656,7.94984 5.92182,7.95177 5.91692,7.95342 5.91186,7.95479 5.90663,7.95588 5.90121,7.95669 5.89562,7.95722 5.88983,7.95746 5.88385,7.95743 5.87768,7.95712 5.87129,7.95653 5.86469,7.95565 5.85788,7.9545 5.85083,7.95306 5.84356,7.95134 5.83606,7.94934 5.82831,7.94706 5.82031,7.9445 5.81206,7.94166 5.80355,7.93854 5.79478,7.93513 5.78572,7.93145 5.7764,7.92748 5.76679,7.92324 5.75689,7.91871 5.7467,7.9139 5.7362,7.90881 5.7254,7.90344 5.71429,7.89778 5.70285,7.89185 5.69109,7.88563 1.90483,4.09936 1.91659,4.10557 1.92802,4.11151 1.93913,4.11717 1.94994,4.12254 1.96043,4.12763 1.97063,4.13244 1.98052,4.13696 1.99013,4.14121 1.99946,4.14518 2.00851,4.14886 2.01728,4.15227 2.02579,4.15539 2.03404,4.15823 2.04204,4.16079 2.04979,4.16307 2.0573,4.16507 2.06457,4.16679 2.07161,4.16822 2.07843,4.16938 2.08502,4.17026 2.09141,4.17085 2.09759,4.17116 2.10357,4.17119 2.10935,4.17095 2.11494,4.17042 2.12036,4.16961 2.12559,4.16852 2.13065,4.16715 2.13556,4.1655 2.1403,4.16357 2.14488,4.16136 "/>
     <polygon id="_539036424" class="fil1" points="2.42701,4.39559 6.21328,8.18186 6.20409,8.17373 6.19474,8.16589 6.18524,8.15833 6.17563,8.15103 6.16594,8.14398 6.15618,8.13717 6.14639,8.13058 6.13659,8.12421 6.12683,8.11803 6.11711,8.11204 6.10748,8.10622 6.09795,8.10056 6.08856,8.09505 6.07934,8.08967 6.0703,8.08441 6.06149,8.07926 6.05293,8.0742 6.04463,8.06922 6.03665,8.06431 2.25038,4.27804 2.25837,4.28294 2.26666,4.28793 2.27522,4.29298 2.28404,4.29814 2.29307,4.3034 2.3023,4.30878 2.31169,4.31429 2.32121,4.31995 2.33085,4.32577 2.34056,4.33176 2.35033,4.33794 2.36012,4.34431 2.36991,4.3509 2.37967,4.35771 2.38937,4.36476 2.39898,4.37206 2.40848,4.37962 2.41783,4.38746 "/>
     <polygon id="_539036544" class="fil1" points="2.25038,4.27804 6.03665,8.06431 6.02177,8.05439 6.00835,8.04424 5.99635,8.03398 2.21008,4.24771 2.22209,4.25797 2.2355,4.26812 "/>
     <polygon id="_539036496" class="fil1" points="2.52963,4.13541 6.3159,7.92168 6.32472,7.94011 6.33235,7.95853 6.33885,7.97691 6.34429,7.9952 6.34871,8.01337 6.35219,8.03139 6.35478,8.0492 6.35654,8.06678 6.35753,8.08409 6.35781,8.10109 6.35744,8.11774 6.35647,8.134 6.35497,8.14984 6.353,8.16522 6.35062,8.18009 6.34788,8.19444 6.34485,8.2082 6.34158,8.22135 6.33813,8.23385 6.33457,8.24566 6.33096,8.25674 6.32734,8.26706 6.32379,8.27657 6.32036,8.28525 6.31711,8.29304 6.3141,8.29992 6.31139,8.30585 6.30904,8.31078 6.30711,8.31468 6.30565,8.31752 6.30474,8.31924 6.30442,8.31983 2.51815,4.53356 2.51847,4.53297 2.51938,4.53124 2.52084,4.52841 2.52277,4.52451 2.52512,4.51957 2.52783,4.51365 2.53084,4.50677 2.53409,4.49898 2.53752,4.4903 2.54107,4.48079 2.54469,4.47047 2.54831,4.45939 2.55187,4.44757 2.55531,4.43508 2.55858,4.42193 2.56161,4.40817 2.56435,4.39382 2.56674,4.37894 2.5687,4.36357 2.5702,4.34773 2.57117,4.33146 2.57154,4.31481 2.57126,4.29782 2.57028,4.28051 2.56852,4.26293 2.56593,4.24511 2.56244,4.2271 2.55802,4.20893 2.55258,4.19063 2.54608,4.17226 2.53845,4.15383 "/>
     <polygon id="_539036160" class="fil1" points="1.90483,4.09936 5.69109,7.88563 5.67888,7.87963 5.66611,7.87431 5.65287,7.86964 5.63919,7.86559 5.62516,7.86211 5.61082,7.8592 5.59624,7.8568 5.58148,7.85489 5.56661,7.85344 5.55167,7.85241 5.53675,7.85178 5.52189,7.8515 5.50715,7.85155 5.49261,7.85189 5.47831,7.8525 5.46432,7.85333 5.45071,7.85437 5.43754,7.85557 5.42485,7.85691 5.41272,7.85835 5.40122,7.85986 5.39039,7.86141 5.3803,7.86296 5.37101,7.86448 5.36259,7.86595 5.35509,7.86732 5.34857,7.86857 5.3431,7.86967 5.33874,7.87058 5.33556,7.87127 5.33359,7.8717 5.33293,7.87186 1.54666,4.08559 1.54733,4.08543 1.54929,4.085 1.55248,4.08431 1.55683,4.0834 1.5623,4.0823 1.56882,4.08105 1.57632,4.07968 1.58474,4.07821 1.59403,4.07669 1.60412,4.07513 1.61495,4.07359 1.62646,4.07208 1.63858,4.07064 1.65127,4.0693 1.66444,4.0681 1.67806,4.06706 1.69204,4.06622 1.70634,4.06562 1.72088,4.06528 1.73562,4.06522 1.75048,4.0655 1.76541,4.06614 1.78034,4.06717 1.79522,4.06862 1.80997,4.07053 1.82455,4.07293 1.83889,4.07584 1.85293,4.07931 1.8666,4.08337 1.87985,4.08804 1.89261,4.09336 "/>
     <polygon id="_539036064" class="fil1" points="4.68002,3.37116 8.46628,7.15743 8.46663,7.18186 8.46586,7.20545 8.464,7.2282 8.46111,7.25014 8.45722,7.27126 8.45238,7.29159 8.44662,7.31113 8.44,7.3299 8.43254,7.34791 8.4243,7.36516 8.41531,7.38168 8.40561,7.39746 8.39526,7.41254 8.38429,7.42691 8.37274,7.44059 8.36065,7.45358 8.34807,7.46591 8.33504,7.47759 8.32159,7.48861 8.30778,7.49901 8.29364,7.50878 8.27921,7.51795 8.26455,7.52652 8.24968,7.5345 8.23465,7.5419 8.2195,7.54874 8.20428,7.55504 8.18903,7.56079 8.17378,7.56602 8.15858,7.57073 8.14348,7.57494 8.12851,7.57865 4.34224,3.79238 4.35721,3.78867 4.37231,3.78446 4.38751,3.77975 4.40276,3.77452 4.41802,3.76877 4.43324,3.76247 4.44838,3.75563 4.46341,3.74822 4.47828,3.74024 4.49294,3.73168 4.50737,3.72251 4.52151,3.71274 4.53532,3.70234 4.54877,3.69131 4.5618,3.67964 4.57438,3.66731 4.58647,3.65431 4.59802,3.64063 4.60899,3.62626 4.61935,3.61119 4.62904,3.59541 4.63803,3.57889 4.64627,3.56163 4.65373,3.54363 4.66035,3.52486 4.66611,3.50532 4.67095,3.48499 4.67484,3.46387 4.67774,3.44193 4.67959,3.41918 4.68036,3.39559 "/>
    </g>
    <path id="_637668136" class="fil1" d="M5.0727 2.78627c0.365685,0.266402 0.136224,0.489232 0.136224,0.489232 0.0410512,0.0799291 0.0547244,0.135874 0.0356772,0.165469 -0.0246142,0.0383583 -0.104236,0.0324961 -0.2505,-0.0224685 -0.0997598,-0.0374843 -0.219791,-0.0466535 -0.314087,-0.0473425 0.00984646,0.265161 -0.178945,0.384173 -0.337776,0.421224 -0.161311,0.0376929 -0.0496339,-0.0995079 -0.0496339,-0.0995079 0.0586339,-0.115484 0.0450197,-0.272949 0.0395315,-0.31811 -0.0804646,-0.000661417 -0.158795,-0.00119291 -0.181843,-4.33071e-005 -0.0464252,0.00226772 -0.244748,-0.0144094 -0.389173,-0.00367717 -0.144406,0.0106929 -0.714118,0.0317008 -0.714118,0.0317008 -0.216874,0.0579606 -0.521327,0.32672 -0.603031,0.411272 -0.0817047,0.0845551 -0.0149331,0.124898 0.0856575,0.32139 0.100594,0.196488 -0.0114803,0.39815 -0.0114803,0.39815 -0.0442283,-0.142035 -0.184307,-0.203457 -0.267768,-0.25552 -0.0834213,-0.0520472 -0.101063,-0.119169 -0.101063,-0.119169 -0.0465827,0.0280709 -0.117311,0.00830709 -0.244492,-0.0595079 -0.127165,-0.0677559 -0.358165,-0.0137717 -0.358165,-0.0137717 0.154283,-0.361189 0.561138,-0.30326 0.63713,-0.293768 0.0759449,0.00947244 0.178122,-0.255386 0.228874,-0.33626 0.0507559,-0.080878 0.253551,-0.372161 0.511323,-0.587063 0.257752,-0.214961 0.349976,-0.227909 0.532205,-0.31635 0.18228,-0.0884606 0.141413,-0.154433 0.107512,-0.189437 -0.0339606,-0.0349803 -0.0144764,-0.0574213 0.099626,-0.0689606 0.114118,-0.0115787 0.264642,0.137551 0.264642,0.137551 0,0 0.104433,-0.00835039 0.283504,0.00175197 0.179071,0.0101063 0.495598,0.0867913 0.861224,0.353217z"/>
   </g>
  </g>
  <path class="fil2" d="M3.41333 -3.93701e-006c1.88513,0 3.41333,1.5282 3.41333,3.41333 0,1.88513 -1.5282,3.41333 -3.41333,3.41333 -1.88513,0 -3.41333,-1.5282 -3.41333,-3.41333 0,-1.88513 1.5282,-3.41333 3.41333,-3.41333z"/>
  <path class="fil3" d="M4.67941 3.35855c0.0163976,0.274012 -0.175839,0.396201 -0.337165,0.433835 -0.161311,0.0376929 -0.0496299,-0.0995039 -0.0496299,-0.0995039 0.069126,-0.136165 0.0378228,-0.330685 0.0378228,-0.330685l0.0025315 -2.3622e-005 0.00116142 7.87402e-006c0.0811614,0.000728346 0.163929,0.00154331 0.19376,0.000933071 0.0145,-0.000295276 0.0481299,-0.00275984 0.0928858,-0.00393307l0.00102362 -1.5748e-005 0.0576102 -0.000614173z"/>
  <path class="fil3" d="M5.20869 3.27528c-0.00224803,-0.00235039 -0.0229331,-0.0236654 -0.0584724,-0.0535354l0.0584724 0.0535354zm0.000232283 0.000212598l0 0c0.0410512,0.0799331 0.0547244,0.135878 0.0356772,0.165476 -0.000661417,-0.0088189 -0.00785039,-0.059685 -0.0851417,-0.0871417 -0.0848661,-0.030189 -0.164177,-0.128622 -0.198626,-0.181642 -0.0344921,-0.0530433 -0.0887126,-0.245382 -0.327894,-0.117988 0,0 -0.151177,0.0622244 -0.263142,0.0409134 0,0 -0.551547,0.207984 -0.927335,0.127051 0,0 -0.0451181,-0.0120512 0.0521142,-0.0438346 0.0774961,-0.0252717 0.300795,-0.135713 0.325488,-0.17165 0,0 -0.357209,0.0416378 -0.538063,0.111433 -0.180839,0.0697559 -0.438524,0.280291 -0.235,0.28463 -0.216874,0.0579606 -0.521327,0.32672 -0.603031,0.411272 -0.0817047,0.0845551 -0.0149331,0.124898 0.0856575,0.32139 0.100594,0.196488 -0.0114803,0.39815 -0.0114803,0.39815 -0.0442283,-0.142035 -0.184307,-0.203457 -0.267768,-0.25552 -0.0834173,-0.0520472 -0.101063,-0.119173 -0.101063,-0.119173 -0.0465827,0.0280748 -0.117307,0.00831102 -0.244492,-0.0595039 -0.127165,-0.0677598 -0.358165,-0.0137717 -0.358165,-0.0137717 0.154283,-0.361189 0.561142,-0.30326 0.63713,-0.293768 0.0759449,0.00947244 0.178122,-0.255382 0.228874,-0.33626 0.0507559,-0.080878 0.253551,-0.372161 0.511323,-0.587063 0.257748,-0.214961 0.349976,-0.227909 0.532205,-0.31635 0.182283,-0.0884606 0.141417,-0.154433 0.107512,-0.189437 -0.0339606,-0.0349843 -0.0144764,-0.0574213 0.099626,-0.0689606 0.114118,-0.0115787 0.264642,0.137551 0.264642,0.137551 0,0 0.104433,-0.00835039 0.283504,0.00175197 0.179071,0.0101063 0.495598,0.0867913 0.861224,0.353213 0.365685,0.266406 0.136224,0.489232 0.136224,0.489232zm-0.348528 -0.319012l0 0c-0.00103543,-0.00111024 -0.0017874,-0.00182677 -0.0022874,-0.00208268l0.0022874 0.00208268zm0.289343 0.264874l0 0 -0.289323 -0.264815c0.0154567,0.0170079 0.0900709,0.127744 0.162516,0.172858 0.0522047,0.0324646 0.0952835,0.0655315 0.126807,0.0919567zm-0.320091 -0.331866l0 0c0.00492913,-0.0097126 -0.00231496,-0.0232323 -0.0161496,-0.0302559 -0.0138386,-0.00702362 -0.0290236,-0.0048937 -0.0339528,0.0048189 -0.00491339,0.00967323 0.00231102,0.0232283 0.0161496,0.030252 0.0138346,0.00702362 0.0290394,0.00485827 0.0339528,-0.00481496zm-0.373744 -0.175197l0 0c0.120693,0.0105197 0.344882,0.017689 0.281496,-0.0484213 -0.0633858,-0.0661102 -0.0941024,-0.101094 -0.2485,-0.140697 -0.154398,-0.0396063 -0.301287,-0.055815 -0.577614,-0.065315 0,0 -0.067063,-0.0684134 -0.160677,-0.103626 -0.0935945,-0.035252 -0.151701,-0.0162756 -0.136461,0.0205433 0.0152362,0.0368228 0.0129843,0.089 -0.0317795,0.138984 -0.0447677,0.0499843 -0.309713,0.17635 -0.356315,0.210858 -0.0466063,0.0345079 -0.321469,0.216657 -0.379268,0.273697 -0.0693701,0.0684685 -0.306988,0.339165 -0.36998,0.442335 0,0 -0.0527677,0.0943937 -0.0625512,0.113665 -0.00978346,0.0192717 0.0795079,-0.0420394 0.135957,-0.105484 0.0564449,-0.0634449 0.398799,-0.413161 0.594524,-0.493154 0.195724,-0.0799882 0.604252,-0.187673 0.714476,-0.194728 0.110228,-0.00705906 0.476024,-0.0592165 0.596693,-0.0486575zm-2.28502 1.3575l0 0c0.0824134,0.0746575 0.16724,0.120969 0.153736,0.0441654 -0.0156732,-0.089248 -0.0447756,-0.185362 -0.145811,-0.233264 0,0 -0.103799,-0.0357756 -0.209315,-0.0147913 -0.0624921,0.0124331 -0.201677,0.0636378 -0.173469,0.0880906 0.0282283,0.0245079 0.298291,0.046437 0.374858,0.115799z"/>
  <path class="fil4" d="M5.15946 3.35383c0.0772913,0.0274567 0.0844803,0.0783228 0.0851417,0.0871417 -0.0246102,0.0383543 -0.104236,0.0324921 -0.2505,-0.0224685 -0.0999764,-0.0375709 -0.220311,-0.0466969 -0.314697,-0.0473504 -0.020626,-0.000145669 -0.0399567,0.000122047 -0.0576102,0.000614173l-0.00102362 1.1811e-005 -0.286646 0.003 -0.00116142 -7.87402e-006c-0.0807559,-0.000669291 -0.159543,-0.00120472 -0.182669,-5.11811e-005 -0.0464252,0.00226772 -0.244748,-0.0144094 -0.389173,-0.00367717 -0.144406,0.0106969 -0.714118,0.0317008 -0.714118,0.0317008 -0.203524,-0.00433858 0.0453386,-0.224957 0.226177,-0.294717 0.180854,-0.0697953 0.579661,-0.116476 0.579661,-0.116476 -0.0246929,0.0359409 -0.280768,0.161508 -0.358264,0.18678 -0.0972323,0.0317835 -0.024378,0.033748 -0.024378,0.033748 0.375787,0.080937 0.881949,-0.13713 0.881949,-0.13713 0.111969,0.021311 0.268185,-0.0434409 0.268185,-0.0434409 0.239181,-0.127394 0.306008,0.0876378 0.3405,0.140681 0.0344488,0.0530197 0.11376,0.151453 0.198626,0.181642z"/>
  <path class="fil5" d="M4.84762 2.94483l0.31015 0.263272 0.0514094 0.0684685c-0.034311,-0.0287638 -0.127839,-0.108248 -0.184665,-0.143583 -0.0788543,-0.0491102 -0.160071,-0.169646 -0.176894,-0.188157z"/>
  <path class="fil6" d="M4.82799 2.84067c0.0243976,0.0123858 0.0371693,0.0362205 0.0284764,0.0533465 -0.00866142,0.0170551 -0.0354764,0.020878 -0.0598701,0.00849213 -0.0243976,-0.0123858 -0.0371339,-0.0362874 -0.0284764,-0.0533425 0.00869685,-0.017126 0.0354724,-0.0208819 0.0598701,-0.00849606z"/>
  <path class="fil7" d="M4.81733 2.86167c0.00782283,0.00397244 0.0119213,0.0116142 0.00912992,0.0171063 -0.00277559,0.00547244 -0.011374,0.00669685 -0.0191969,0.00272441 -0.00782677,-0.00397244 -0.0119094,-0.0116378 -0.00913386,-0.0171063 0.0027874,-0.00549213 0.011374,-0.00669685 0.0192008,-0.00272441z"/>
  <path class="fil8" d="M4.75505 2.66083c0.0633858,0.0661102 -0.175929,0.0854173 -0.296622,0.0748937 -0.344244,-0.0301142 -0.988374,0.112783 -1.30487,0.242126 -0.192965,0.0910276 -0.540406,0.435516 -0.600827,0.483071 -0.0564449,0.0634409 -0.179776,0.149961 -0.169992,0.130693 0.00978346,-0.0192717 0.0814646,-0.152744 0.0814646,-0.152744 0.059748,-0.119382 0.309736,-0.38748 0.382583,-0.438551 0.0577992,-0.0570354 0.322575,-0.254315 0.369181,-0.288823 0.0466024,-0.0345079 0.315331,-0.148268 0.360098,-0.198252 0.0447677,-0.0499882 0.0470157,-0.107205 0.0317795,-0.144028 -0.0152362,-0.0368228 0.0428661,-0.0557953 0.136461,-0.0205433 0.0936142,0.0352087 0.16824,0.10615 0.16824,0.10615 0.276327,0.0095 0.423217,0.0244449 0.577618,0.0640512 0.154394,0.0396063 0.201496,0.0758465 0.264882,0.141957z"/>
  <path class="fil8" d="M2.35373 4.12776c0.0149843,0.0852283 -0.084185,0.0502244 -0.175638,-0.0326181 -0.0849646,-0.0769685 -0.379598,-0.117689 -0.410925,-0.144886 -0.0312992,-0.0271339 0.123146,-0.0839528 0.192492,-0.097752 0.117091,-0.0232874 0.232268,0.0164173 0.232268,0.0164173 0.112118,0.0531496 0.144409,0.159807 0.161803,0.258839z"/>
 </g>
</svg>
