<?xml version="1.0" encoding="UTF-8"?>
<!DOCTYPE svg PUBLIC "-//W3C//DTD SVG 1.1//EN" "http://www.w3.org/Graphics/SVG/1.1/DTD/svg11.dtd">
<!-- Creator: CorelDRAW -->
<svg xmlns="http://www.w3.org/2000/svg" xml:space="preserve" width="6.82666in" height="6.82666in" style="shape-rendering:geometricPrecision; text-rendering:geometricPrecision; image-rendering:optimizeQuality; fill-rule:evenodd; clip-rule:evenodd"
viewBox="0 0 6.82666 6.82666"
 xmlns:xlink="http://www.w3.org/1999/xlink">
 <defs>
  <style type="text/css">
   <![CDATA[
    .fil2 {fill:none}
    .fil1 {fill:#26C6DA}
    .fil0 {fill:#80DEEA}
    .fil4 {fill:#4E342E;fill-rule:nonzero}
    .fil3 {fill:#795548;fill-rule:nonzero}
    .fil10 {fill:#880E4F;fill-rule:nonzero}
    .fil11 {fill:#AD1457;fill-rule:nonzero}
    .fil15 {fill:#CCB7AE;fill-rule:nonzero}
    .fil6 {fill:#D4C1B9;fill-rule:nonzero}
    .fil14 {fill:#D96877;fill-rule:nonzero}
    .fil5 {fill:#E1D1CA;fill-rule:nonzero}
    .fil8 {fill:#E88DAB;fill-rule:nonzero}
    .fil13 {fill:#EF7E8D;fill-rule:nonzero}
    .fil7 {fill:#EF94B1;fill-rule:nonzero}
    .fil9 {fill:#FBF3EB;fill-rule:nonzero}
    .fil12 {fill:#FEFEFE;fill-rule:nonzero}
   ]]>
  </style>
   <clipPath id="id0">
    <path d="M3.41333 -3.93701e-006c1.88513,0 3.41333,1.5282 3.41333,3.41333 0,1.88513 -1.5282,3.41333 -3.41333,3.41333 -1.88513,0 -3.41333,-1.5282 -3.41333,-3.41333 0,-1.88513 1.5282,-3.41333 3.41333,-3.41333z"/>
   </clipPath>
 </defs>
 <g id="Layer_x0020_1">
  <metadata id="CorelCorpID_0Corel-Layer"/>
  <path class="fil0" d="M3.41333 -3.93701e-006c1.88513,0 3.41333,1.5282 3.41333,3.41333 0,1.88513 -1.5282,3.41333 -3.41333,3.41333 -1.88513,0 -3.41333,-1.5282 -3.41333,-3.41333 0,-1.88513 1.5282,-3.41333 3.41333,-3.41333z"/>
  <g style="clip-path:url(#id0)">
   <g id="_637663768">
    <g>
     <polygon id="_2161148241" class="fil1" points="3.80818,1.81087 7.59445,5.59714 7.56063,5.62431 7.53418,5.65093 7.51467,5.67707 7.5017,5.70277 7.49487,5.72809 7.49376,5.75308 7.49796,5.77781 7.50706,5.80231 7.52066,5.82666 7.53834,5.85089 7.5597,5.87508 3.77344,2.08881 3.75207,2.06462 3.73439,2.04039 3.7208,2.01604 3.71169,1.99154 3.70749,1.96681 3.7086,1.94182 3.71544,1.9165 3.72841,1.8908 3.74791,1.86466 3.77437,1.83804 "/>
     <polygon id="_216114512" class="fil1" points="4.25693,2.48263 8.0432,6.2689 8.06776,6.2997 8.08905,6.33139 8.10665,6.36401 8.12015,6.39762 8.12915,6.43228 8.13324,6.46803 4.34697,2.68176 4.34289,2.646 4.33389,2.61135 4.32038,2.57774 4.30278,2.54512 4.2815,2.51343 "/>
     <polygon id="_216116480" class="fil1" points="3.71552,2.2467 7.50178,6.03298 7.49568,6.0272 7.48969,6.02128 7.4838,6.01519 7.47803,6.00895 3.69176,2.22268 3.69754,2.22892 3.70342,2.235 3.70941,2.24093 "/>
     <polygon id="_216116840" class="fil1" points="4.26483,2.91168 8.0511,6.69795 8.05071,6.69795 4.26444,2.91168 "/>
     <polygon id="_216117128" class="fil1" points="4.26444,2.91168 8.05071,6.69795 8.04951,6.69985 8.04825,6.70173 8.04694,6.70359 8.04561,6.70543 8.04425,6.70728 8.04289,6.70914 8.04153,6.71101 8.0402,6.71291 4.25393,2.92664 4.25526,2.92474 4.25662,2.92287 4.25798,2.92101 4.25934,2.91916 4.26068,2.91731 4.26198,2.91546 4.26324,2.91358 "/>
     <polygon id="_216117152" class="fil1" points="4.25393,2.92664 8.0402,6.71291 8.03942,6.7137 4.25315,2.92743 "/>
     <polygon id="_216116696" class="fil1" points="4.25315,2.92743 8.03942,6.7137 8.03707,6.7168 8.03468,6.7199 8.03225,6.72298 8.02979,6.72605 8.02729,6.72911 8.02475,6.73213 8.02217,6.73514 8.01956,6.73811 4.23329,2.95183 4.23591,2.94887 4.23848,2.94586 4.24102,2.94283 4.24352,2.93978 4.24598,2.93671 4.24841,2.93363 4.2508,2.93053 "/>
     <polygon id="_216116624" class="fil1" points="3.85931,2.66571 7.64558,6.45198 7.65189,6.459 7.65789,6.46606 7.66229,6.47116 7.66689,6.47607 3.88062,2.6898 3.87602,2.68489 3.87163,2.67979 3.86562,2.67273 "/>
     <polygon id="_216117080" class="fil1" points="3.32133,3.42499 7.10759,7.21126 7.10059,7.2106 7.0936,7.20987 7.08662,7.20906 7.07966,7.20819 7.07271,7.20724 7.06578,7.20621 7.05885,7.20512 7.05195,7.20396 7.04507,7.20273 7.0382,7.20143 7.03136,7.20005 7.02453,7.19861 7.01773,7.1971 7.01094,7.19552 7.00418,7.19387 6.99744,7.19215 6.99073,7.19035 6.98404,7.1885 6.97737,7.18657 6.97073,7.18458 6.96412,7.18252 6.95754,7.18039 6.95098,7.17819 6.94446,7.17593 6.93796,7.1736 6.9315,7.1712 6.92506,7.16874 6.91866,7.16621 6.9123,7.16361 6.90596,7.16095 6.89967,7.15822 6.8934,7.15543 3.10713,3.36916 3.1134,3.37195 3.1197,3.37468 3.12603,3.37734 3.13239,3.37994 3.1388,3.38246 3.14523,3.38493 3.15169,3.38733 3.15819,3.38966 3.16472,3.39192 3.17127,3.39412 3.17785,3.39625 3.18446,3.39831 3.19111,3.4003 3.19777,3.40223 3.20446,3.40408 3.21117,3.40587 3.21791,3.40759 3.22467,3.40924 3.23146,3.41083 3.23826,3.41234 3.24509,3.41378 3.25194,3.41515 3.2588,3.41646 3.26569,3.41769 3.27259,3.41885 3.27951,3.41994 3.28644,3.42096 3.29339,3.42191 3.30035,3.42279 3.30733,3.42359 3.31432,3.42433 "/>
     <polygon id="_216116552" class="fil1" points="3.03587,3.33126 6.82214,7.11754 6.81976,7.11604 6.8174,7.11452 6.81506,7.11299 6.81272,7.11144 6.81039,7.10989 6.80806,7.10832 6.80574,7.10675 6.80343,7.10518 3.01716,3.31891 3.01948,3.32048 3.0218,3.32205 3.02412,3.32361 3.02645,3.32517 3.02879,3.32672 3.03113,3.32825 3.0335,3.32977 "/>
     <polygon id="_216117200" class="fil1" points="3.01716,3.31891 6.80343,7.10518 6.66284,7.13773 2.87657,3.35146 "/>
     <polygon id="_216116648" class="fil1" points="3.10713,3.36916 6.8934,7.15543 6.88347,7.1575 6.87395,7.15937 6.86486,7.16105 6.85625,7.16254 6.84814,7.16386 6.84057,7.16502 6.83357,7.16602 6.82717,7.16688 6.8214,7.1676 6.81629,7.16819 6.81189,7.16867 6.8082,7.16904 6.80529,7.16931 6.80317,7.1695 6.80187,7.1696 6.80143,7.16963 3.01516,3.38336 3.0156,3.38333 3.0169,3.38322 3.01902,3.38304 3.02194,3.38277 3.02562,3.3824 3.03002,3.38192 3.03513,3.38133 3.0409,3.38061 3.0473,3.37975 3.0543,3.37875 3.06187,3.37759 3.06998,3.37627 3.07859,3.37478 3.08768,3.3731 3.0972,3.37123 "/>
     <polygon id="_216117752" class="fil1" points="3.61165,3.38649 7.39791,7.17276 7.39659,7.19012 7.39513,7.20758 7.39354,7.22511 7.39183,7.2427 7.39,7.26032 7.38807,7.27796 7.38603,7.29559 7.38389,7.3132 7.38167,7.33076 7.37937,7.34826 7.377,7.36566 7.37456,7.38296 7.37207,7.40013 7.36952,7.41716 7.36693,7.43401 7.3643,7.45068 7.36165,7.46713 7.35897,7.48336 7.35628,7.49933 7.35358,7.51504 7.35088,7.53045 7.34819,7.54556 7.34551,7.56033 7.34285,7.57474 7.34022,7.58879 7.33763,7.60244 7.33509,7.61568 7.33259,7.62848 7.33015,7.64083 7.32777,7.6527 7.32547,7.66409 7.32325,7.67495 3.53698,3.88868 3.5392,3.87781 3.5415,3.86643 3.54388,3.85456 3.54632,3.84221 3.54882,3.82941 3.55137,3.81617 3.55396,3.80252 3.55659,3.78847 3.55924,3.77406 3.56192,3.75928 3.56461,3.74418 3.56731,3.72877 3.57001,3.71306 3.5727,3.69709 3.57538,3.68086 3.57804,3.66441 3.58066,3.64774 3.58325,3.63089 3.5858,3.61386 3.5883,3.59669 3.59073,3.57939 3.59311,3.56198 3.59541,3.54449 3.59763,3.52693 3.59976,3.50932 3.6018,3.49169 3.60374,3.47405 3.60556,3.45643 3.60728,3.43884 3.60887,3.42131 3.61032,3.40385 "/>
     <polygon id="_216117368" class="fil1" points="4.20994,4.13249 7.99621,7.91876 7.99815,7.9213 7.99978,7.92354 8.00111,7.9255 8.00212,7.92717 8.00281,7.92854 8.00317,7.92959 8.00319,7.93034 8.00286,7.93077 8.00217,7.93087 8.00113,7.93065 7.9997,7.93008 7.99791,7.92918 7.99572,7.92793 7.99313,7.92632 7.99014,7.92436 7.98673,7.92203 7.98291,7.91933 7.97865,7.91625 7.97396,7.91279 7.96881,7.90894 7.96322,7.9047 7.95716,7.90005 7.95063,7.895 7.94362,7.88954 7.93612,7.88365 7.92813,7.87735 7.91963,7.87061 7.91062,7.86344 7.90109,7.85583 7.89103,7.84777 7.88044,7.83925 7.8693,7.83028 4.08303,4.04401 4.09417,4.05298 4.10476,4.0615 4.11482,4.06956 4.12435,4.07717 4.13336,4.08434 4.14186,4.09108 4.14985,4.09738 4.15735,4.10326 4.16436,4.10873 4.17089,4.11378 4.17695,4.11843 4.18255,4.12267 4.18769,4.12652 4.19238,4.12998 4.19664,4.13306 4.20046,4.13576 4.20387,4.13809 4.20686,4.14005 4.20945,4.14165 4.21164,4.14291 4.21344,4.14381 4.21486,4.14437 4.21591,4.1446 4.21659,4.1445 4.21692,4.14407 4.2169,4.14332 4.21654,4.14226 4.21585,4.1409 4.21484,4.13923 4.21351,4.13727 4.21188,4.13502 "/>
     <polygon id="_216117704" class="fil1" points="4.08303,4.04401 7.8693,7.83028 7.86589,7.82751 7.86237,7.82467 7.85877,7.82178 7.85507,7.81882 7.85131,7.81582 7.84747,7.81278 7.84357,7.8097 7.83961,7.8066 7.83561,7.80347 7.83157,7.80032 7.82751,7.79717 7.82342,7.794 7.81931,7.79085 7.81521,7.78769 7.8111,7.78456 7.807,7.78144 4.02074,3.99517 4.02483,3.99829 4.02894,4.00142 4.03305,4.00457 4.03715,4.00773 4.04124,4.01089 4.04531,4.01405 4.04935,4.0172 4.05335,4.02033 4.0573,4.02343 4.0612,4.02651 4.06504,4.02955 4.06881,4.03255 4.0725,4.0355 4.07611,4.0384 4.07962,4.04124 "/>
     <polygon id="_216117728" class="fil1" points="3.98453,3.96723 7.7708,7.7535 7.76906,7.75219 7.76736,7.75091 7.76569,7.74966 7.76404,7.74843 7.7624,7.74722 7.76078,7.74602 7.75917,7.74483 7.75756,7.74365 3.97129,3.95737 3.9729,3.95856 3.97452,3.95975 3.97613,3.96095 3.97777,3.96216 3.97942,3.96339 3.98109,3.96464 3.9828,3.96592 "/>
     <polygon id="_216117536" class="fil1" points="3.97129,3.95737 7.75756,7.74365 7.75379,7.74093 7.74993,7.73837 7.746,7.73598 7.74198,7.73377 7.73788,7.73172 7.73372,7.72985 7.72949,7.72815 7.72519,7.72662 7.72084,7.72527 7.71643,7.7241 7.71197,7.7231 7.70746,7.72228 7.70291,7.72165 7.69833,7.72119 7.6937,7.72091 7.68905,7.72082 3.90278,3.93455 3.90743,3.93464 3.91206,3.93491 3.91665,3.93537 3.9212,3.93601 3.9257,3.93683 3.93016,3.93783 3.93457,3.939 3.93893,3.94035 3.94322,3.94188 3.94745,3.94358 3.95161,3.94545 3.95571,3.9475 3.95973,3.94971 3.96367,3.9521 3.96752,3.95465 "/>
     <polygon id="_216117416" class="fil1" points="4.02074,3.99517 7.807,7.78144 7.80535,7.78826 7.804,7.79408 7.80285,7.79887 7.80185,7.8026 7.80089,7.80524 7.7999,7.80676 7.7988,7.80712 7.79752,7.8063 4.01125,4.02003 4.01254,4.02085 4.01363,4.02048 4.01462,4.01897 4.01558,4.01633 4.01659,4.0126 4.01773,4.00781 4.01909,4.00199 "/>
     <polygon id="_216117248" class="fil1" points="3.90278,3.93455 7.68905,7.72082 7.3131,7.72308 3.52683,3.93681 "/>
     <polygon id="_216117560" class="fil1" points="2.87657,3.35146 6.66284,7.13773 6.66244,7.15072 2.87618,3.36445 "/>
     <polygon id="_216117896" class="fil1" points="2.54915,3.3183 6.33542,7.10457 6.32884,7.11409 6.32233,7.12373 6.31593,7.13339 6.30969,7.14299 6.30367,7.1524 6.29792,7.16154 6.29247,7.17029 6.28739,7.17856 6.28272,7.18623 6.27852,7.19322 6.27482,7.19941 6.27169,7.20471 6.26916,7.20901 6.2673,7.21221 6.26614,7.2142 6.26574,7.21489 2.47948,3.42862 2.47987,3.42793 2.48103,3.42594 2.48289,3.42274 2.48542,3.41844 2.48855,3.41314 2.49225,3.40695 2.49646,3.39996 2.50113,3.39228 2.5062,3.38402 2.51165,3.37527 2.51741,3.36613 2.52343,3.35672 2.52966,3.34712 2.53606,3.33746 2.54257,3.32781 "/>
     <polygon id="_216117320" class="fil1" points="3.55201,4.94087 7.33828,8.72714 7.3523,8.76494 3.56604,4.97867 "/>
     <polygon id="_216117272" class="fil1" points="3.56604,4.97867 7.3523,8.76494 7.35457,8.77045 7.35729,8.77576 7.36042,8.78084 7.36393,8.78566 7.36778,8.7902 7.37195,8.79445 3.58568,5.00818 3.58151,5.00393 3.57766,4.99939 3.57415,4.99457 3.57102,4.98949 3.56831,4.98418 "/>
     <polygon id="_216118160" class="fil1" points="2.60484,3.41917 6.39111,7.20544 6.38815,7.20544 6.3849,7.20657 6.38138,7.20875 6.37763,7.21191 6.37367,7.21598 6.36952,7.22087 6.3652,7.22653 6.36076,7.23287 6.35619,7.23982 6.35154,7.24731 6.34683,7.25526 6.34208,7.2636 6.33732,7.27225 6.33257,7.28114 6.32787,7.2902 6.32322,7.29935 6.31866,7.30852 6.31421,7.31763 6.3099,7.32662 6.30576,7.3354 6.3018,7.3439 6.29805,7.35206 6.29454,7.35978 6.2913,7.36701 6.28834,7.37366 6.2857,7.37967 6.28339,7.38496 6.28145,7.38944 6.2799,7.39307 6.27876,7.39574 6.27806,7.39741 6.27781,7.39798 2.49155,3.6117 2.49179,3.61113 2.49249,3.60947 2.49363,3.6068 2.49519,3.60317 2.49713,3.59869 2.49943,3.5934 2.50207,3.58739 2.50503,3.58074 2.50828,3.57351 2.51178,3.56578 2.51553,3.55763 2.51949,3.54913 2.52363,3.54035 2.52794,3.53136 2.53239,3.52225 2.53695,3.51308 2.5416,3.50393 2.54631,3.49487 2.55106,3.48598 2.55581,3.47733 2.56057,3.46899 2.56528,3.46104 2.56993,3.45355 2.57449,3.4466 2.57894,3.44026 2.58325,3.4346 2.5874,3.4297 2.59137,3.42564 2.59511,3.42248 2.59863,3.4203 2.60188,3.41917 "/>
     <polygon id="_216118544" class="fil1" points="2.708,3.42114 6.49427,7.20741 6.49086,7.20796 6.48706,7.20971 6.4829,7.21257 6.47843,7.21646 6.47367,7.22131 6.46865,7.22703 6.46341,7.23356 6.45798,7.2408 6.45239,7.24867 6.44667,7.25711 6.44086,7.26602 6.43499,7.27534 6.42909,7.28497 6.4232,7.29485 6.41733,7.30489 6.41154,7.315 6.40585,7.32512 6.40029,7.33517 6.39489,7.34506 6.38969,7.3547 6.38472,7.36404 6.38002,7.37298 6.37561,7.38144 6.37152,7.38936 6.3678,7.39664 6.36447,7.4032 6.36156,7.40898 6.35911,7.41388 6.35714,7.41783 6.3557,7.42075 6.35481,7.42256 6.3545,7.42319 2.56824,3.63691 2.56854,3.63629 2.56943,3.63448 2.57087,3.63156 2.57284,3.62761 2.57529,3.6227 2.5782,3.61693 2.58153,3.61037 2.58526,3.60309 2.58934,3.59517 2.59375,3.58671 2.59846,3.57777 2.60343,3.56843 2.60862,3.55878 2.61402,3.54889 2.61958,3.53885 2.62527,3.52873 2.63107,3.51861 2.63693,3.50857 2.64282,3.4987 2.64872,3.48907 2.65459,3.47975 2.66041,3.47084 2.66612,3.4624 2.67171,3.45452 2.67714,3.44728 2.68238,3.44076 2.6874,3.43504 2.69216,3.43019 2.69663,3.4263 2.70079,3.42344 2.70459,3.42169 "/>
     <polygon id="_216118640" class="fil1" points="2.87618,3.36445 6.66244,7.15072 6.65203,7.15632 6.64167,7.16273 6.63137,7.1699 6.62118,7.17775 6.61109,7.18622 6.60112,7.19524 6.59131,7.20476 6.58165,7.2147 6.57218,7.225 6.56291,7.2356 6.55385,7.24642 6.54503,7.25741 6.53646,7.2685 6.52817,7.27962 6.52016,7.29072 6.51246,7.30171 6.50509,7.31254 6.49807,7.32315 6.4914,7.33347 6.48512,7.34343 6.47923,7.35296 6.47376,7.36201 6.46873,7.37051 6.46415,7.37839 6.46004,7.38558 6.45642,7.39203 6.45331,7.39767 6.45072,7.40243 6.44868,7.40624 6.4472,7.40904 6.44629,7.41077 6.44599,7.41136 2.65972,3.62509 2.66002,3.6245 2.66093,3.62277 2.66241,3.61996 2.66445,3.61615 2.66704,3.61139 2.67015,3.60576 2.67378,3.59931 2.67789,3.59212 2.68246,3.58424 2.6875,3.57574 2.69296,3.56669 2.69885,3.55715 2.70513,3.5472 2.7118,3.53688 2.71882,3.52627 2.7262,3.51544 2.73389,3.50444 2.7419,3.49335 2.75019,3.48223 2.75876,3.47114 2.76758,3.46015 2.77664,3.44933 2.78591,3.43873 2.79538,3.42843 2.80504,3.41849 2.81485,3.40897 2.82482,3.39994 2.83491,3.39148 2.84511,3.38363 2.8554,3.37646 2.86576,3.37005 "/>
     <polygon id="_216118352" class="fil1" points="3.80196,5.21062 7.58822,8.99689 7.59069,8.99948 7.59219,9.00137 7.59274,9.00256 7.59231,9.00305 7.59091,9.00283 7.58852,9.00191 7.58516,9.00027 7.58081,8.99793 3.79455,5.21166 3.79889,5.214 3.80226,5.21563 3.80464,5.21656 3.80604,5.21678 3.80647,5.21629 3.80593,5.2151 3.80442,5.21321 "/>
     <polygon id="_216118592" class="fil1" points="3.79455,5.21166 7.58081,8.99793 7.57626,8.99909 7.5723,9.00059 7.5689,9.00242 7.56602,9.00453 7.56363,9.00689 7.5617,9.00949 7.56019,9.01228 7.55908,9.01524 7.55833,9.01834 7.55791,9.02154 7.55779,9.02481 7.55793,9.02813 7.5583,9.03147 7.55887,9.03479 7.55961,9.03807 7.56048,9.04126 3.77422,5.25499 3.77334,5.2518 3.7726,5.24852 3.77203,5.2452 3.77166,5.24186 3.77152,5.23854 3.77164,5.23527 3.77206,5.23207 3.77281,5.22897 3.77393,5.22601 3.77543,5.22322 3.77736,5.22062 3.77975,5.21826 3.78263,5.21615 3.78604,5.21432 3.79,5.21281 "/>
     <polygon id="_216118616" class="fil1" points="3.77422,5.25499 7.56048,9.04126 7.56242,9.04372 7.56618,9.04802 7.57073,9.05326 7.57505,9.05856 7.57811,9.06303 7.57889,9.06577 7.57636,9.0659 7.56949,9.06252 3.78322,5.27625 3.79009,5.27963 3.79262,5.2795 3.79185,5.27676 3.78878,5.27229 3.78446,5.26699 3.77991,5.26174 3.77615,5.25745 "/>
     <polygon id="_216118520" class="fil1" points="3.78322,5.27625 7.56949,9.06252 7.5694,9.06246 3.78313,5.27619 "/>
     <polygon id="_216118328" class="fil1" points="3.78313,5.27619 7.5694,9.06246 7.56723,9.06117 7.56484,9.0597 7.56221,9.05804 7.55935,9.0562 7.55626,9.05416 7.55293,9.05194 7.54937,9.04953 7.54556,9.04693 7.54151,9.04414 7.53722,9.04116 7.53267,9.03799 7.52789,9.03463 7.52285,9.03108 7.51755,9.02734 7.512,9.02341 7.5062,9.01928 7.50014,9.01496 7.49382,9.01044 7.48723,9.00574 7.48038,9.00084 7.47327,8.99574 7.46588,8.99045 7.45822,8.98497 7.4503,8.97929 7.44209,8.97341 7.43362,8.96733 7.42486,8.96107 7.41582,8.9546 7.4065,8.94793 7.39689,8.94107 7.387,8.934 7.37682,8.92674 3.59056,5.14047 3.60074,5.14773 3.61063,5.1548 3.62023,5.16166 3.62956,5.16833 3.63859,5.1748 3.64735,5.18106 3.65583,5.18714 3.66403,5.19302 3.67196,5.1987 3.67961,5.20418 3.687,5.20947 3.69411,5.21457 3.70096,5.21946 3.70755,5.22417 3.71387,5.22869 3.71993,5.233 3.72574,5.23713 3.73128,5.24107 3.73658,5.24481 3.74162,5.24836 3.74641,5.25172 3.75095,5.25489 3.75524,5.25787 3.75929,5.26066 3.7631,5.26326 3.76667,5.26567 3.77,5.26789 3.77309,5.26993 3.77594,5.27177 3.77857,5.27343 3.78096,5.2749 "/>
     <polygon id="_216118664" class="fil1" points="3.59056,5.14047 7.37682,8.92674 7.31103,8.88503 3.52476,5.09876 "/>
     <polygon id="_216118688" class="fil1" points="3.52476,5.09876 7.31103,8.88503 7.30963,8.88461 7.30835,8.88395 7.30722,8.8831 3.52096,5.09683 3.52209,5.09768 3.52336,5.09833 "/>
     <polygon id="_216119120" class="fil1" points="3.48537,3.93705 7.27164,7.72332 7.03269,7.72476 3.24642,3.93848 "/>
     <polygon id="_216119072" class="fil1" points="3.24642,3.93848 7.03269,7.72476 7.02819,7.72404 7.02443,7.7221 3.23816,3.93583 3.24193,3.93777 "/>
     <polygon id="_216119432" class="fil1" points="4.27554,4.05243 8.06181,7.8387 8.06389,7.84085 8.06293,7.8412 8.05898,7.83981 8.05208,7.83675 8.04226,7.83206 4.25599,4.04579 4.26581,4.05048 4.27272,4.05354 4.27666,4.05493 4.27762,4.05458 "/>
     <polygon id="_216118904" class="fil1" points="4.25599,4.04579 8.04226,7.83206 8.03348,7.83302 8.02667,7.83551 8.02156,7.83917 8.01793,7.84366 8.01555,7.84864 8.01418,7.85375 8.01358,7.85865 8.01352,7.863 4.22725,4.07673 4.22731,4.07238 4.22791,4.06748 4.22928,4.06237 4.23167,4.05739 4.23529,4.0529 4.2404,4.04924 4.24722,4.04675 "/>
     <polygon id="_216119168" class="fil1" points="4.23467,4.08365 8.02094,7.86992 8.02283,7.872 8.02349,7.87318 8.02293,7.87347 8.02114,7.8729 8.0181,7.87146 8.01382,7.86919 4.22756,4.08291 4.23183,4.08519 4.23487,4.08663 4.23667,4.0872 4.23722,4.08691 4.23656,4.08573 "/>
     <polygon id="_216119288" class="fil1" points="4.22756,4.08291 8.01382,7.86919 8.01006,7.86842 8.00685,7.86899 8.00415,7.87072 8.00193,7.87344 8.00013,7.87697 7.99872,7.88113 7.99765,7.88575 7.99687,7.89064 7.99635,7.89564 7.99604,7.90057 7.99591,7.90525 7.99589,7.90951 7.99596,7.91316 7.99606,7.91604 7.99616,7.91796 7.99621,7.91876 4.20994,4.13249 4.20989,4.13169 4.20979,4.12977 4.20969,4.12689 4.20962,4.12324 4.20964,4.11898 4.20978,4.1143 4.21008,4.10937 4.2106,4.10437 4.21138,4.09948 4.21245,4.09486 4.21386,4.0907 4.21566,4.08717 4.21788,4.08445 4.22058,4.08272 4.22379,4.08215 "/>
     <polygon id="_216118832" class="fil1" points="3.51814,3.97589 7.30441,7.76216 7.33828,8.72714 3.55201,4.94087 "/>
     <polygon id="_216118784" class="fil1" points="3.81342,5.17633 7.59969,8.96261 7.59103,8.96235 7.58435,8.96295 7.57944,8.96431 7.57612,8.96631 7.57418,8.96881 7.57343,8.97172 7.57368,8.97491 7.57473,8.97826 7.57639,8.98165 7.57846,8.98497 7.58075,8.98811 7.58306,8.99094 7.58519,8.99334 7.58696,8.9952 7.58816,8.99641 7.5886,8.99683 3.80233,5.21056 3.80189,5.21013 3.80069,5.20893 3.79892,5.20707 3.79679,5.20467 3.79448,5.20184 3.79219,5.1987 3.79013,5.19538 3.78846,5.19198 3.78741,5.18863 3.78717,5.18544 3.78791,5.18254 3.78985,5.18004 3.79317,5.17804 3.79808,5.17668 3.80476,5.17607 "/>
     <polygon id="_216119360" class="fil1" points="3.8292,5.18006 7.61547,8.96633 7.61683,8.9677 7.6176,8.96871 7.61781,8.96937 7.61746,8.96968 7.61654,8.96965 7.61507,8.96928 7.61306,8.96858 7.61052,8.96756 7.60743,8.96622 7.60382,8.96457 7.59969,8.96261 3.81342,5.17633 3.81755,5.1783 3.82116,5.17994 3.82425,5.18129 3.8268,5.18231 3.82881,5.18301 3.83027,5.18337 3.83119,5.18341 3.83154,5.1831 3.83133,5.18244 3.83056,5.18143 "/>
     <polygon id="_216119480" class="fil1" points="3.80233,5.21056 7.5886,8.99683 7.58822,8.99689 3.80196,5.21062 "/>
     <polygon id="_216118928" class="fil1" points="3.52683,3.93681 7.3131,7.72308 7.31119,7.73188 7.30948,7.73965 7.30799,7.74634 7.30674,7.75192 7.30574,7.75633 7.30501,7.75954 7.30456,7.7615 7.30441,7.76216 3.51814,3.97589 3.5183,3.97522 3.51874,3.97327 3.51948,3.97006 3.52048,3.96565 3.52172,3.96007 3.52321,3.95338 3.52492,3.94561 "/>
     <polygon id="_216119768" class="fil1" points="4.23329,2.95183 8.01956,6.73811 8.01643,6.74177 8.01344,6.7453 8.01057,6.7487 8.00779,6.75198 8.00507,6.75517 8.00239,6.75828 7.99972,6.76132 7.99703,6.76431 7.9943,6.76725 7.99148,6.77017 7.98857,6.77308 7.98554,6.776 7.98235,6.77893 7.97898,6.7819 7.97539,6.78491 7.97157,6.78799 7.96425,6.79359 7.95696,6.79882 7.9497,6.80372 7.94246,6.80831 7.93525,6.81259 7.92806,6.81661 7.9209,6.82038 7.91376,6.82391 7.90664,6.82724 7.89954,6.83038 7.89246,6.83336 7.8854,6.83619 7.87836,6.8389 7.87134,6.84152 7.86433,6.84405 7.85733,6.84653 7.85036,6.84898 7.84339,6.85141 7.83644,6.85385 7.8295,6.85632 7.82256,6.85884 7.81564,6.86144 7.80872,6.86413 7.80181,6.86694 7.79491,6.86989 7.78802,6.873 7.78113,6.87629 7.77424,6.87978 7.76735,6.88351 7.76047,6.88748 7.75358,6.89171 7.7467,6.89624 7.73871,6.90196 7.73086,6.90815 7.72313,6.91476 7.71553,6.92173 7.70805,6.92902 7.70068,6.93656 7.69341,6.94432 7.68626,6.95224 7.6792,6.96027 7.67224,6.96836 7.66537,6.97646 7.65858,6.98452 7.65188,6.99248 7.64525,7.00029 7.6387,7.00791 7.63221,7.01529 7.62534,7.02283 7.61832,7.03024 7.61115,7.03751 7.60384,7.04464 7.5964,7.05163 7.58881,7.05848 7.5811,7.06519 7.57326,7.07176 7.5653,7.07819 7.55722,7.08448 7.54903,7.09063 7.54072,7.09663 7.53231,7.1025 7.52379,7.10821 7.51517,7.11379 7.50646,7.11922 7.49946,7.12346 7.49265,7.12752 7.48599,7.1314 7.47944,7.13513 7.47298,7.13871 7.46657,7.14216 7.46017,7.1455 7.45376,7.14873 7.4473,7.15188 7.44075,7.15496 7.43409,7.15798 7.42729,7.16096 7.4203,7.16392 7.41309,7.16686 7.40565,7.1698 7.39791,7.17276 3.61165,3.38649 3.61938,3.38353 3.62683,3.38059 3.63403,3.37765 3.64102,3.37469 3.64783,3.37171 3.65448,3.36869 3.66103,3.36561 3.66749,3.36246 3.6739,3.35922 3.6803,3.35589 3.68671,3.35244 3.69318,3.34885 3.69972,3.34513 3.70639,3.34125 3.7132,3.33719 3.72019,3.33295 3.72891,3.32752 3.73752,3.32194 3.74604,3.31622 3.75445,3.31036 3.76276,3.30436 3.77096,3.29821 3.77904,3.29192 3.787,3.28549 3.79483,3.27892 3.80255,3.27221 3.81013,3.26536 3.81757,3.25837 3.82488,3.25124 3.83205,3.24397 3.83907,3.23656 3.84594,3.22902 3.85243,3.22164 3.85898,3.21402 3.86561,3.2062 3.87231,3.19824 3.8791,3.19019 3.88597,3.18209 3.89293,3.174 3.89999,3.16597 3.90715,3.15805 3.91441,3.15029 3.92178,3.14274 3.92926,3.13546 3.93687,3.12849 3.94459,3.12188 3.95244,3.11569 3.96043,3.10997 3.96731,3.10544 3.9742,3.1012 3.98108,3.09724 3.98797,3.09351 3.99486,3.09002 4.00175,3.08673 4.00865,3.08362 4.01555,3.08067 4.02246,3.07786 4.02937,3.07517 4.0363,3.07257 4.04323,3.07005 4.05017,3.06757 4.05712,3.06513 4.06409,3.0627 4.07107,3.06026 4.07806,3.05778 4.08507,3.05524 4.09209,3.05263 4.09913,3.04992 4.10619,3.04709 4.11327,3.04411 4.12037,3.04097 4.12749,3.03764 4.13463,3.03411 4.14179,3.03034 4.14898,3.02632 4.15619,3.02204 4.16343,3.01745 4.17069,3.01255 4.17798,3.00731 4.18531,3.00172 4.18913,2.99864 4.19271,2.99563 4.19608,2.99266 4.19927,2.98973 4.20231,2.98681 4.20522,2.9839 4.20803,2.98098 4.21076,2.97804 4.21345,2.97505 4.21613,2.97201 4.21881,2.9689 4.22152,2.96571 4.2243,2.96243 4.22717,2.95903 4.23016,2.9555 "/>
     <polygon id="_216119696" class="fil1" points="4.04631,2.53629 7.83258,6.32256 7.81693,6.30635 7.80018,6.28989 7.78245,6.27319 7.76387,6.2563 7.74457,6.23924 7.72467,6.22205 7.70429,6.20476 7.68356,6.18739 7.66261,6.16998 7.64155,6.15256 7.62052,6.13516 7.59963,6.11782 7.57902,6.10056 7.5588,6.08341 7.53911,6.06641 7.52006,6.04959 7.50178,6.03298 3.71552,2.2467 3.73379,2.26332 3.75284,2.28014 3.77253,2.29714 3.79275,2.31429 3.81336,2.33155 3.83425,2.34889 3.85528,2.36629 3.87634,2.38371 3.8973,2.40112 3.91802,2.41848 3.9384,2.43578 3.95831,2.45297 3.97761,2.47003 3.99619,2.48692 4.01391,2.50362 4.03067,2.52008 "/>
     <polygon id="_216120128" class="fil1" points="3.58315,2.01127 7.36942,5.79754 7.36998,5.79976 7.37056,5.80196 7.37115,5.80415 7.37176,5.80633 7.37237,5.80849 7.373,5.81065 7.37364,5.81279 7.37429,5.81492 3.58802,2.02865 3.58737,2.02652 3.58674,2.02437 3.58611,2.02222 3.58549,2.02006 3.58488,2.01788 3.58429,2.01569 3.58371,2.01349 "/>
     <polygon id="_216119552" class="fil1" points="4.34697,2.68176 8.13324,6.46803 8.13342,6.47451 8.13344,6.48103 8.13331,6.48759 8.13302,6.4942 8.13256,6.50085 8.13194,6.50754 8.13116,6.51428 8.1302,6.52106 8.12908,6.52788 8.12778,6.53475 8.12631,6.54167 8.12467,6.54863 8.12284,6.55563 8.12083,6.56269 8.11864,6.56979 8.11626,6.57693 8.11369,6.58413 8.11093,6.59137 8.10798,6.59866 8.10484,6.606 8.1015,6.61338 8.09796,6.62081 8.09422,6.6283 8.09027,6.63583 8.08612,6.64342 8.08176,6.65106 8.07719,6.65874 8.07241,6.66648 8.06741,6.67427 8.06219,6.68211 8.05676,6.69 8.0511,6.69795 4.26483,2.91168 4.27049,2.90373 4.27593,2.89584 4.28114,2.888 4.28614,2.88021 4.29092,2.87247 4.29549,2.86478 4.29985,2.85715 4.304,2.84956 4.30795,2.84203 4.31169,2.83454 4.31523,2.82711 4.31857,2.81972 4.32172,2.81239 4.32467,2.8051 4.32743,2.79785 4.32999,2.79066 4.33237,2.78352 4.33456,2.77642 4.33657,2.76936 4.3384,2.76236 4.34005,2.7554 4.34152,2.74848 4.34281,2.74161 4.34394,2.73479 4.34489,2.72801 4.34567,2.72127 4.34629,2.71458 4.34675,2.70793 4.34704,2.70132 4.34717,2.69476 4.34715,2.68824 "/>
     <polygon id="_216120056" class="fil1" points="3.7856,1.61598 7.57187,5.40225 7.56898,5.40123 7.56603,5.40025 7.563,5.3993 7.55989,5.3984 7.55671,5.39755 7.55345,5.39676 7.55012,5.39602 7.5467,5.39536 7.54322,5.39477 7.53965,5.39426 7.536,5.39384 7.53228,5.3935 7.52848,5.39326 7.52459,5.39313 7.52063,5.39311 7.51658,5.39319 3.73031,1.60692 3.73436,1.60683 3.73832,1.60686 3.74221,1.60699 3.74601,1.60723 3.74974,1.60757 3.75338,1.60799 3.75695,1.6085 3.76044,1.60909 3.76385,1.60975 3.76719,1.61048 3.77044,1.61128 3.77362,1.61213 3.77673,1.61303 3.77976,1.61398 3.78272,1.61496 "/>
     <polygon id="_216120176" class="fil1" points="3.84515,1.57385 7.63142,5.36012 7.62707,5.35823 7.62281,5.35639 7.61864,5.35462 7.61457,5.35292 7.61063,5.35132 7.60683,5.34981 7.60318,5.34841 7.5997,5.34713 7.5964,5.34598 7.5933,5.34496 7.59041,5.34411 7.58774,5.3434 7.58532,5.34287 7.58315,5.34252 7.58126,5.34237 7.57965,5.34241 3.79338,1.55614 3.79499,1.55609 3.79689,1.55625 3.79905,1.5566 3.80147,1.55713 3.80414,1.55783 3.80703,1.55869 3.81013,1.5597 3.81343,1.56086 3.81691,1.56214 3.82056,1.56354 3.82437,1.56505 3.82831,1.56665 3.83237,1.56835 3.83654,1.57012 3.84081,1.57196 "/>
     <polygon id="_216120224" class="fil1" points="4.0882,1.6302 7.87447,5.41648 7.87996,5.42292 7.88498,5.42959 7.88953,5.4365 4.10326,1.65023 4.09872,1.64332 4.09369,1.63665 "/>
     <polygon id="_216119744" class="fil1" points="4.29596,1.80661 8.08223,5.59289 8.08697,5.59852 8.09143,5.60419 8.09558,5.60993 8.09944,5.61574 8.10298,5.62163 8.10621,5.62762 8.10911,5.6337 8.11168,5.63991 8.11391,5.64622 8.11578,5.65268 8.1173,5.65928 8.11846,5.66604 8.11907,5.6717 8.11942,5.67801 8.11952,5.68485 8.1194,5.69214 8.11909,5.69978 8.11861,5.70765 8.118,5.71568 8.11726,5.72375 8.11644,5.73177 8.11555,5.73965 8.11462,5.74727 8.11368,5.75456 8.11275,5.76139 8.11185,5.76769 8.11102,5.77333 8.11028,5.77825 4.32402,1.99198 4.32476,1.98706 4.32559,1.98141 4.32648,1.97512 4.32741,1.96828 4.32835,1.961 4.32928,1.95337 4.33017,1.9455 4.331,1.93748 4.33173,1.92941 4.33235,1.92138 4.33282,1.9135 4.33313,1.90587 4.33325,1.89858 4.33315,1.89174 4.33281,1.88543 4.33219,1.87976 4.33104,1.87301 4.32952,1.86641 4.32764,1.85995 4.32541,1.85363 4.32284,1.84743 4.31994,1.84135 4.31672,1.83536 4.31317,1.82947 4.30931,1.82366 4.30516,1.81792 4.3007,1.81224 "/>
     <polygon id="_216120032" class="fil1" points="4.32402,1.99198 8.11028,5.77825 8.10871,5.78698 4.32244,2.00071 "/>
     <polygon id="_216120296" class="fil1" points="4.16703,1.91681 7.9533,5.70309 7.94913,5.69867 7.94485,5.69443 7.94044,5.69037 7.9359,5.68651 7.93124,5.68287 7.92644,5.67946 7.92152,5.67628 7.91647,5.67337 7.91128,5.67073 7.90596,5.66837 7.9005,5.66632 7.89491,5.66458 7.88918,5.66317 7.88331,5.6621 4.09704,1.87583 4.10291,1.8769 4.10865,1.87831 4.11424,1.88005 4.11969,1.8821 4.12502,1.88446 4.1302,1.8871 4.13526,1.89001 4.14018,1.89319 4.14497,1.8966 4.14963,1.90024 4.15417,1.9041 4.15858,1.90815 4.16287,1.9124 "/>
     <polygon id="_216119648" class="fil1" points="4.09704,1.87583 7.88331,5.6621 7.88007,5.66165 7.87671,5.66117 7.87323,5.66066 7.86962,5.66013 7.86589,5.65957 7.86203,5.65898 7.85804,5.65837 7.85393,5.65773 7.8497,5.65706 7.84533,5.65637 7.84085,5.65565 7.83623,5.6549 7.83149,5.65412 7.82662,5.65331 7.82162,5.65248 7.81649,5.65162 7.81124,5.65073 7.80585,5.64981 7.80033,5.64886 7.79469,5.64788 7.78892,5.64687 7.78301,5.64583 7.77697,5.64476 7.7708,5.64367 7.7645,5.64254 7.75807,5.64137 7.75151,5.64019 7.74481,5.63896 7.73798,5.63771 7.73102,5.63642 7.72392,5.63511 7.71669,5.63376 3.93042,1.84748 3.93765,1.84883 3.94475,1.85015 3.95171,1.85144 3.95854,1.85269 3.96524,1.85391 3.9718,1.8551 3.97824,1.85626 3.98454,1.85739 3.9907,1.85849 3.99674,1.85956 4.00265,1.8606 4.00842,1.86161 4.01407,1.86259 4.01958,1.86354 4.02497,1.86446 4.03022,1.86535 4.03535,1.86621 4.04035,1.86704 4.04522,1.86785 4.04996,1.86863 4.05458,1.86937 4.05907,1.87009 4.06343,1.87079 4.06767,1.87146 4.07178,1.87209 4.07576,1.87271 4.07962,1.8733 4.08335,1.87385 4.08696,1.87439 4.09044,1.87489 4.09381,1.87537 "/>
     <polygon id="_216120488" class="fil1" points="4.28829,2.13635 8.07456,5.92262 8.07107,5.93329 8.06861,5.94079 8.06687,5.94526 8.06552,5.94684 8.06425,5.94567 4.27798,2.1594 4.27925,2.16057 4.2806,2.15899 4.28234,2.15452 4.2848,2.14702 "/>
     <polygon id="_216120320" class="fil1" points="4.32244,2.00071 8.10871,5.78698 8.10841,5.79003 8.10791,5.79367 8.10723,5.79783 8.1064,5.8024 8.10544,5.80729 8.10439,5.81242 8.10327,5.8177 8.10209,5.82302 8.1009,5.82831 8.09971,5.83347 8.09855,5.83841 8.09744,5.84304 8.09641,5.84726 8.09549,5.85099 8.0947,5.85413 8.09407,5.85659 4.30781,2.07032 4.30844,2.06786 4.30922,2.06472 4.31015,2.06099 4.31117,2.05676 4.31228,2.05214 4.31344,2.0472 4.31463,2.04204 4.31583,2.03675 4.317,2.03143 4.31813,2.02615 4.31918,2.02102 4.32013,2.01613 4.32096,2.01156 4.32164,2.0074 4.32214,2.00376 "/>
     <polygon id="_216120512" class="fil1" points="4.30781,2.07032 8.09407,5.85659 8.07456,5.92262 4.28829,2.13635 "/>
     <polygon id="_216120944" class="fil1" points="3.93042,1.84748 7.71669,5.63376 7.71094,5.63362 7.70525,5.63335 7.6996,5.63296 7.694,5.63244 7.68846,5.63181 7.68297,5.63105 7.67754,5.63017 7.67216,5.62918 7.66685,5.62807 7.66159,5.62684 7.65639,5.62551 7.65126,5.62406 7.6462,5.62251 7.6412,5.62085 7.63628,5.61909 7.63142,5.61722 3.84515,1.83095 3.85001,1.83281 3.85494,1.83458 3.85993,1.83624 3.865,1.83779 3.87013,1.83924 3.87532,1.84057 3.88058,1.8418 3.88589,1.84291 3.89127,1.8439 3.8967,1.84478 3.90219,1.84554 3.90774,1.84617 3.91333,1.84669 3.91898,1.84708 3.92467,1.84735 "/>
     <polygon id="_216120560" class="fil1" points="3.84515,1.83095 7.63142,5.61722 7.6265,5.61509 7.62165,5.61286 7.61689,5.61052 7.61221,5.60806 7.60762,5.6055 7.60313,5.60282 7.59874,5.60004 7.59445,5.59714 3.80818,1.81087 3.81247,1.81376 3.81686,1.81655 3.82135,1.81922 3.82594,1.82179 3.83062,1.82424 3.83539,1.82659 3.84023,1.82882 "/>
    </g>
    <path id="_637663480" class="fil1" d="M3.80818 1.81087c-0.401378,0.292925 0.522846,0.483476 0.538791,0.87089 0.00272047,0.0688937 -0.020626,0.144882 -0.0821378,0.229921l-0.000389764 0c-0.00311024,0.00512205 -0.007,0.00985039 -0.0105157,0.0149646l-0.000775591 0.000787402c-0.00622441,0.00827165 -0.0128465,0.0165315 -0.0198622,0.0244055 -0.0171378,0.0199528 -0.0269409,0.0332874 -0.0479843,0.0498819 -0.078248,0.0617008 -0.151429,0.0583268 -0.224878,0.108252 -0.0429488,0.0291929 -0.0800591,0.0804646 -0.114488,0.119047 -0.0362362,0.0406063 -0.0790315,0.0753504 -0.125748,0.103933 -0.0378504,0.0231575 -0.0665079,0.037689 -0.108547,0.0535433 -0.0133307,0.184575 -0.0514055,0.38913 -0.0746654,0.502185l0.47324 0.00216535c0.0210315,0 0.0412795,0.00669291 0.0584055,0.0184961l0.0506102 0.035063c0.0626654,0.0428976 0.10628,0.0724291 0.131583,0.0901575 0.0345,0.023811 0.0352362,0.0258346 0.00516929,0.0112323 -0.0261969,0.000224409 -0.0290866,0.0203937 -0.0287362,0.030937 0.0131102,0.0117205 0.0133858,0.0133661 0.00030315,0.00618504 -0.0216535,-0.00795669 -0.0176811,0.0486496 -0.0176102,0.0495787 0.0221654,0.0284921 -0.0051378,0.00970866 -0.126917,-0.0884843 -0.0179016,-0.0145827 -0.0404843,-0.0322913 -0.0622913,-0.0488346 -0.00972047,0.0389803 -0.0035,0.0366181 -0.0362087,-0.0279449 -0.00466535,-0.00354331 -0.00894488,-0.00669291 -0.0132362,-0.00985433 -0.0198622,-0.0149567 -0.0436102,-0.0228268 -0.0685118,-0.0228268l-0.375945 0.00226378c-0.00537008,0.0247953 -0.00869291,0.0390748 -0.00869291,0.0390748l0.0338701 0.964984 0.0140236 0.0377992c0.00543701,0.0149567 0.0159488,0.0279567 0.0288071,0.0370118 0.0225669,0.0153465 0.0432126,0.0295157 0.0622835,0.0425197 0.162016,0.111807 0.203138,0.14065 0.156291,0.118134 -0.0517598,-0.00390945 -0.0110827,0.0342283 -0.0110827,0.0342283l-0.000377953 5.51181e-005c0.00785039,0.00783858 0.00550394,0.00823622 -0.00740945,0.00103937 -0.0258898,0.00518898 -0.0252913,0.0265354 -0.0203307,0.0433346 0.00183071,0.00330709 0.0340118,0.0357283 0.00900787,0.0212559l-9.44882e-005 -5.90551e-005c-0.0218937,-0.0127205 -0.082437,-0.0571969 -0.192575,-0.135717l-0.0657953 -0.0417165c-0.00388976,-0.000791339 -0.00661811,-0.00434646 -0.00661811,-0.00826378 0,-0.00839764 0.0185079,-0.0377717 0.00895276,-0.0882087 -0.0153543,-0.0810551 -0.0298071,-0.146547 -0.0311417,-0.230713l-0.0101181 -0.656311 -0.0338701 -0.0779606c-0.00272441,-0.00629921 -0.00388976,-0.0122008 -0.00388976,-0.0185 0,-0.0149685 0.00699606,-0.0291378 0.0198425,-0.0377953 0.00638583,-0.0143268 0.0121654,-0.0290118 0.0174567,-0.0439567l-0.238957 0.00143701c-0.0128583,0 -0.0190827,-0.0161535 -0.00973622,-0.024811l0.020626 -0.0196811c0.0371102,-0.0346614 0.0569409,-0.338173 0.0640197,-0.469 -0.0747598,-0.00667717 -0.147583,-0.0256969 -0.214193,-0.0558346 -0.0539961,0.0115984 -0.0919724,0.0142008 -0.0919724,0.0142008l0.0207126 -0.0520945c-0.0063622,-0.00396457 -0.0125315,-0.00816929 -0.0187165,-0.0123543l-0.140587 0.0325512 -0.000393701 0.0129921c-0.111343,0.0551142 -0.216457,0.260638 -0.216457,0.260638 -0.0198583,-0.0421299 0.0482835,-0.203949 0.0482835,-0.203949 -0.0342598,-0.000787402 -0.139768,0.215768 -0.139768,0.215772 -0.0545,-0.0826969 0.0366063,-0.21774 0.0366063,-0.21774 -0.0299882,-0.00629528 -0.113295,0.192531 -0.113295,0.192531 0.00104331,-0.0984213 0.024252,-0.198945 0.0576024,-0.293402 -0.0351693,0.0501969 -0.0696732,0.110315 -0.0696732,0.110315 0.0245236,-0.1815 0.125744,-0.361028 0.221516,-0.495287 0.00622835,-0.00865748 0.0124646,-0.0177165 0.0190827,-0.0259843 0.245283,-0.333457 0.618764,-0.610819 1.03331,-0.329839 0.0418819,0.0278898 0.0870669,0.0645709 0.11824,0.10228 0.0458386,0.0554528 0.126728,0.0783386 0.192709,0.0472402 0.184929,-0.0874016 -0.158445,-0.304339 -0.348819,-0.480323 -0.0656496,-0.0606772 -0.113244,-0.14972 -0.132366,-0.235437 0.00148031,0.00594488 0.00313386,0.0117047 0.00487008,0.017378 -0.0351299,-0.131232 -0.0124921,-0.274016 0.113091,-0.350461 0.0405,-0.0248071 0.0264803,-0.0161417 0.0852598,-0.0535433 -0.000377953,-0.00394094 -0.000377953,-0.00472835 -0.000771654,-0.00866142 -0.0151772,-0.00551181 -0.0334882,-0.00984252 -0.0552874,-0.00905906 0,0 0.0595709,-0.0279488 0.114843,-0.0330709 -0.0233543,-0.0102402 -0.0439843,-0.0185039 -0.0517717,-0.0177126 0.0498346,-0.0110315 0.146382,-0.0196929 0.188811,0.0177126 0.054126,0.0106339 0.0981142,0.0389803 0.121071,0.076378 0.017126,0.0141772 0.0334882,0.0267756 0.0490551,0.0385906 0.0957441,0.0732087 0.169492,0.118047 0.179874,0.190945 0.00403543,0.0283425 -0.00450394,0.0881614 -0.00817717,0.112213l-0.00157087 0.00873622c-0.00102756,0.0144764 -0.0117402,0.0584291 -0.0146378,0.0696102l-0.0195157 0.0660276c-0.0109646,0.0327756 -0.00753937,0.0303583 -0.0168031,0.00435827 -0.0162756,-0.0456772 -0.0302362,-0.0865748 -0.049126,-0.131319 -0.0225945,-0.0535276 -0.0619567,-0.124051 -0.125319,-0.133559 -0.033878,-0.00472441 -0.0887638,-0.0137835 -0.166626,-0.0283465 -0.030752,-0.000397638 -0.0595551,-0.00630315 -0.0852638,-0.0165354 -0.0132244,-0.00551969 -0.025689,-0.0122126 -0.0369724,-0.0200827z"/>
   </g>
  </g>
  <path class="fil2" d="M3.41333 -3.93701e-006c1.88513,0 3.41333,1.5282 3.41333,3.41333 0,1.88513 -1.5282,3.41333 -3.41333,3.41333 -1.88513,0 -3.41333,-1.5282 -3.41333,-3.41333 0,-1.88513 1.5282,-3.41333 3.41333,-3.41333z"/>
  <path class="fil3" d="M3.78741 5.2762c0,0 -0.0368622,-0.062189 0.0190748,-0.0656063 0,0 -0.0476102,-0.0444134 0.024626,-0.0329331l-0.175992 -0.105665 -0.031122 0.045878 0.103551 0.103484 0.0598622 0.0548425z"/>
  <path class="fil4" d="M3.67312 5.10228c0.186,0.145831 0.188256,0.153319 -0.0207283,0.0161614 0.183791,0.202157 0.221417,0.220425 -0.0599646,0.0217047l-0.0664961 -0.0414449c-0.00406693,-0.00084252 -0.00680709,-0.0045 -0.00680709,-0.00840945 0,-0.00107874 0.000204724,-0.00217717 0.000653543,-0.00324409 0.0110984,-0.026937 0.0140827,-0.0565236 0.00856693,-0.0850748l-0.0171181 -0.0894134c-0.00891732,-0.046563 -0.0137638,-0.0937165 -0.0144843,-0.141118l-0.00999606 -0.656252 -0.0345906 -0.0781732c-0.00265354,-0.00598031 -0.00392913,-0.0122087 -0.00392913,-0.0184134 0,-0.0147953 0.00720472,-0.0291181 0.0200984,-0.0377874 0.108142,-0.239193 0.055748,-0.576689 0.055748,-0.576689 0,0 0.0965669,-0.28972 0.0933228,-0.0864724 -0.00015748,0.0118031 -0.000724409,0.0252598 -0.00158661,0.0405748 -0.0164173,0.278531 -0.096685,0.617681 -0.096685,0.617681l0.0344252 0.964992 0.0229173 0.0606575c0.0306181,0.0208622 0.0583425,0.0396929 0.0832205,0.0566575 0.250571,0.170618 0.215362,0.148028 0.0134331,0.044063z"/>
  <path class="fil3" d="M3.65969 5.05822l-0.0200157 0.00367323c-0.0320827,0.0058937 -0.0639331,-0.0113819 -0.0764803,-0.0414646l-0.00169291 -0.00403543 -0.0140906 -0.0553976c-0.00348031,-0.0137205 -0.00554724,-0.0277717 -0.00611811,-0.0419291l-0.0313465 -0.750823 -0.0176654 -0.0942205c-0.00608661,-0.0324882 -0.000988189,-0.0660512 0.0144331,-0.0952402l0.0019252 -0.00362205c0.00532677,-0.0100906 0.0090315,-0.0209016 0.0109331,-0.0321575 0.0285709,-0.167846 0.0546535,-0.57652 0.0546535,-0.57652l0.0431732 -0.0488268c-0.00015748,0.0118031 -0.000724409,0.0252598 -0.00158661,0.0405748 -0.0164173,0.278531 -0.096685,0.617681 -0.096685,0.617681l0.0344252 0.964992 0.0141575 0.0374173c0.00568898,0.0151378 0.0159449,0.0281378 0.0292953,0.0372283 0.022622,0.0153898 0.0434961,0.0295827 0.062685,0.0426693z"/>
  <path class="fil5" d="M4.28834 2.16c-0.0359882,-0.0969291 -0.0704016,-0.216646 -0.135469,-0.264039 -0.000397638,-0.000397638 -0.000984252,-0.000586614 -0.00138189,-0.000984252 -0.0139606,-0.0100157 -0.0294921,-0.0165157 -0.0465945,-0.0190669 -0.0346063,-0.00492126 -0.0900354,-0.0137598 -0.168693,-0.0283228 -0.031063,-0.000582677 -0.0603622,-0.00648425 -0.0861142,-0.0168937 -0.0135551,-0.00550787 -0.0261457,-0.0121969 -0.0373543,-0.0200669 -0.40613,0.292929 0.528543,0.483677 0.544791,0.870976 0.00276378,0.0690079 -0.0210354,0.145094 -0.0831732,0.230016l-0.000188976 0c-0.00332677,0.00492913 -0.00706299,0.00983465 -0.010811,0.014748 -0.000188976,0.000208661 -0.000188976,0.000397638 -0.000397638,0.000602362 0,0.000192913 -0.000188976,0.000192913 -0.000393701,0.00038189 -0.0062874,0.00805906 -0.0129606,0.0163268 -0.0200472,0.0245787 -0.0102087,0.0119921 -0.0212244,0.024378 -0.0330197,0.0369724 -0.0694173,0.0617323 -0.133102,0.0666457 -0.198976,0.0965236 -0.0198543,0.00905512 -0.0397087,0.0202441 -0.0601535,0.0359764 -0.0214409,0.0165157 -0.0432677,0.0379449 -0.0658543,0.0668504 -0.0108268,0.0139528 -0.0222244,0.0273189 -0.0340354,0.0399134 -0.0263268,0.0286969 -0.0548425,0.0540669 -0.0849213,0.0760866 -0.00038189,0.000188976 -0.000590551,0.000586614 -0.000984252,0.000791339 -0.0133819,0.0100315 -0.0271378,0.0192598 -0.0410906,0.0279055 -0.00668898,0.00413386 -0.013563,0.00826772 -0.0204449,0.0119961 -0.0994803,0.0566378 -0.211343,0.0829724 -0.321638,0.0829724 -0.183047,0 -0.362165,-0.072563 -0.475406,-0.20211 -0.00669291,0.00116929 -0.0135551,0.00313386 -0.0204528,0.00550787 -0.118547,0.040689 -0.24948,0.231787 -0.24948,0.231787 -0.0147402,-0.0442323 0.0737244,-0.196591 0.0737244,-0.196591 -0.0344094,-0.00492913 -0.167118,0.196591 -0.167118,0.196591 -0.0442402,-0.0884646 0.0639134,-0.211343 0.0639134,-0.211343 -0.0295,-0.00983465 -0.137654,0.176949 -0.137654,0.176949 0.0245827,-0.18187 0.12722,-0.36137 0.223945,-0.495453 0.0065,-0.00885039 0.0127795,-0.017689 0.0192598,-0.0261457 0.25411,-0.341264 0.64378,-0.623902 1.07483,-0.309067 0.0336417,0.0243701 0.0637047,0.0518937 0.0896732,0.0817835 0.00177165,0.00196457 0.0035315,0.00392913 0.00551575,0.0058937 0.0487402,0.0517087 0.124236,0.0713622 0.189327,0.0410984 0.187358,-0.0873031 -0.160236,-0.304157 -0.352516,-0.480122 -0.15122,-0.138189 -0.223394,-0.442819 -0.0145472,-0.568571 0.0408898,-0.0249843 0.0267205,-0.016122 0.0860984,-0.0536811 -0.000397638,-0.00392126 -0.000397638,-0.00471654 -0.000795276,-0.00864567 -0.0151339,-0.00550787 -0.034,-0.00962992 -0.0560354,-0.00904331 0,0 0.0603701,-0.0279213 0.116213,-0.0328268 -0.0235866,-0.0104252 -0.0444291,-0.0184921 -0.0522953,-0.0179055 0.0503268,-0.0108189 0.14822,-0.0196575 0.190898,0.0179055 0.0546535,0.0106063 0.0992913,0.0389291 0.122689,0.0762756 0.0172953,0.0139646 0.033811,0.0267323 0.0493425,0.0385315l0.127811 0.471264z"/>
  <path class="fil6" d="M4.17115 1.8525l-0.0196614 0.0424724c-0.0139606,-0.0100157 -0.0294921,-0.0165157 -0.0465945,-0.0190669 -0.0346063,-0.00492126 -0.0900354,-0.0137598 -0.168693,-0.0283228 -0.031063,-0.000582677 -0.0603622,-0.00648425 -0.0861142,-0.0168937 -0.0135551,-0.00550787 -0.0261457,-0.0121969 -0.0373543,-0.0200669 -0.045811,0.0330433 -0.0750945,0.0644882 -0.0908189,0.0947756 0.0828425,-0.190295 0.0778031,-0.119685 0.449236,-0.0528976z"/>
  <path class="fil7" d="M4.34337 1.91188c-0.00924409,0.128965 -0.0424646,0.21685 -0.0534646,0.248307 -0.000192913,0.000795276 -0.00120866,0.000606299 -0.00157087,-0.000188976 -0.0181063,-0.048748 -0.035811,-0.103213 -0.0574173,-0.151374 -0.0045315,-0.0106339 -0.00944488,-0.0210551 -0.0145669,-0.0308701 -0.017878,-0.0344016 -0.0383228,-0.0635197 -0.0634843,-0.0817953 -0.00846063,-0.0460118 -0.0434606,-0.102626 -0.0619291,-0.130154 -0.00492913,-0.00747638 -0.000208661,-0.0175079 0.00883071,-0.0182756l0.00491339 -0.000401575c0.0123976,-0.00118504 0.0237953,-0.00688976 0.0322402,-0.0155394 0.00373622,-0.00374016 0.00689764,-0.00825197 0.00925591,-0.0131535l0.0143465 -0.0297008c0.0927913,0.0705866 0.153736,0.108732 0.174772,0.163768 0.00689764,0.0175 0.00966142,0.0367756 0.0080748,0.059378z"/>
  <path class="fil8" d="M4.23092 2.00862c-0.0045315,-0.0106339 -0.00944488,-0.0210551 -0.0145669,-0.0308701 -0.017878,-0.0344016 -0.0383228,-0.0635197 -0.0634843,-0.0817953 -0.00846063,-0.0460118 -0.0434606,-0.102626 -0.0619291,-0.130154 -0.00492913,-0.00747638 -0.000208661,-0.0175079 0.00883071,-0.0182756l0.00491339 -0.000401575c0.0123976,-0.00118504 0.0237953,-0.00688976 0.0322402,-0.0155394 0.109189,0.0800787 0.216,0.248575 0.137236,0.246563 -0.0135315,-0.000366142 -0.0169134,0.0231772 -0.0432402,0.0304724z"/>
  <path class="fil9" d="M4.10646 1.6926c0,0.0232008 -0.018811,0.0420118 -0.0420197,0.0420118 -0.023185,0 -0.042,-0.018811 -0.042,-0.0420118 0,-0.0232047 0.018815,-0.0420079 0.042,-0.0420079 0.0232087,0 0.0420197,0.0188031 0.0420197,0.0420079z"/>
  <path class="fil10" d="M4.08827 1.6926c0,0.0131535 -0.0106535,0.0238307 -0.0238268,0.0238307 -0.0131535,0 -0.023811,-0.0106772 -0.023811,-0.0238307 0,-0.0131614 0.0106575,-0.0238228 0.023811,-0.0238228 0.0131732,0 0.0238268,0.0106614 0.0238268,0.0238228z"/>
  <path class="fil11" d="M4.08837 1.69266c0,0.0131811 -0.010811,0.0237913 -0.0239843,0.0237913 -0.00177559,0 -0.00354724,-0.000188976 -0.00511811,-0.000582677 0.0106181,-0.00236614 0.0185,-0.0118031 0.0185,-0.0232087 0,-0.0114055 -0.00788189,-0.0210394 -0.0185,-0.0233898 0.00157087,-0.000397638 0.00334252,-0.000582677 0.00511811,-0.000582677 0.0131732,0 0.0239843,0.010815 0.0239843,0.0239724z"/>
  <path class="fil12" d="M4.07865 1.67859c0,0.00220866 -0.00387402,0.004 -0.00862992,0.004 -0.00478346,0 -0.00864567,-0.00179134 -0.00864567,-0.004 0,-0.00221654 0.0038622,-0.00398031 0.00864567,-0.00398031 0.00475591,0 0.00862992,0.00176378 0.00862992,0.00398031z"/>
  <path class="fil10" d="M4.34337 1.91188c-0.00196457,0.0287165 -0.00530709,0.0554449 -0.00923622,0.0800236 -0.000401575,0.00294882 -0.000988189,0.0057126 -0.00138189,0.00864567 -0.000192913,0.000586614 -0.000192913,0.00117717 -0.000192913,0.0017874 -0.0139685,0.0796102 -0.0344134,0.134453 -0.0426496,0.15785 -0.000188976,0.000799213 -0.00120472,0.000606299 -0.00157087,-0.000185039 -0.0220315,-0.0595709 -0.0436535,-0.127598 -0.0719803,-0.182248 0,0 0.0686378,0.051315 0.109909,-0.0882874 -0.000188976,-0.000188976 -0.000188976,-0.000188976 -0.000188976,-0.000188976l0.00627559 -0.0232047 0.000791339 -0.00333858c0.000586614,-0.00334646 0.00138583,-0.00668898 0.00215354,-0.0102362 0.000204724,0.000397638 0.000204724,0.000795276 0.000393701,0.00119685 0.00315748,0.00824409 0.00531496,0.0168937 0.00669291,0.0261457 0.00138189,0.0100197 0.00177559,0.0206339 0.000984252,0.0320394z"/>
  <path class="fil13" d="M4.27416 2.91161c-0.00332677,0.00492913 -0.00706299,0.00983465 -0.010811,0.014748 0.00570866,-0.0098189 0.00945276,-0.0143543 0.010811,-0.014748z"/>
  <path class="fil14" d="M3.70303 3.34494c0.00374016,-0.00314173 0.0104134,-0.00727953 0.0204449,-0.0119961 -0.00668898,0.00413386 -0.013563,0.00826772 -0.0204449,0.0119961z"/>
  <path class="fil6" d="M4.24251 2.95193c-0.268307,0.256886 -0.325638,-0.050874 -0.489035,-0.0295197 0,0 0.110677,0.0104646 0.125575,0.141437l-5.90551e-005 -4.72441e-005c0,0 -0.00139764,0.00824803 -0.0045315,0.0219528 -0.021811,0.0948543 -0.0867795,0.174209 -0.174827,0.215689 -0.449043,0.211598 -0.793646,-0.0756339 -0.793646,-0.0756339 0.11324,0.129547 0.292358,0.20211 0.475406,0.20211 0.0905512,0 0.184402,-0.0196063 0.269917,-0.0573189 0.0756457,-0.0333583 0.144776,-0.0808976 0.199331,-0.141575 0.0327598,-0.0364291 0.0621457,-0.0750984 0.0997205,-0.107622l-2.75591e-005 0c0.0880945,-0.0678622 0.16885,-0.0523386 0.259157,-0.1325 0.0117953,-0.0125945 0.022811,-0.0249803 0.0330197,-0.0369724z"/>
  <path class="fil6" d="M4.35752 2.6816c0.00276378,0.0690079 -0.0210354,0.145094 -0.0831732,0.230016l-0.000188976 0c-0.00332677,0.00492913 -0.00706299,0.00983465 -0.010811,0.014748 -0.000188976,0.000208661 -0.000188976,0.000397638 -0.000397638,0.000602362 0,0.000192913 -0.000188976,0.000192913 -0.000393701,0.00038189 -0.0062874,0.00805906 -0.0129606,0.0163268 -0.0200472,0.0245787 -0.0102087,0.0119921 -0.0212244,0.024378 -0.0330197,0.0369724 -0.0694173,0.0617323 -0.133102,0.0666457 -0.198976,0.0965236l-0.0220197 -0.0440394c0,0 0.321858,-0.0564173 0.369028,-0.359783z"/>
  <path class="fil6" d="M4.08896 2.52102c-0.345862,-0.302004 -0.465988,-0.359531 -0.503902,-0.509854 0.0198661,0.0890591 0.0678465,0.175169 0.133898,0.235528 0.19228,0.175965 0.539874,0.392819 0.352516,0.480122 -0.0674449,0.0314528 -0.146291,0.00905118 -0.194843,-0.0469921 -0.0259685,-0.0298898 -0.0560315,-0.0574134 -0.0896732,-0.0817835 -0.0750906,-0.0548465 -0.174335,-0.106524 -0.277146,-0.124217 0.0156575,0.00523228 0.260366,0.134524 0.345232,0.234417 0.0016063,0.00196457 0.00327559,0.00386614 0.00489764,0.00581102 0.0128937,0.0159764 0.0204094,0.0240906 0.0244488,0.0259843 0.0189291,0.0177244 0.0398386,0.0319252 0.0620315,0.0382835 0.216602,0.0622008 0.305862,-0.114654 0.142539,-0.257299z"/>
  <path class="fil15" d="M3.74019 2.9358c-0.13015,0.279972 -0.329118,0.272898 -0.329118,0.272898l0.0196575 -0.0591772c-0.147469,0.132705 -0.407949,0.117969 -0.407949,0.117969l0.0367638 -0.0664567 -0.172035 0.0172913 -0.00196457 0.0129843c-0.118551,0.040689 -0.249484,0.231783 -0.249484,0.231783 -0.0147402,-0.0442244 0.0737244,-0.196583 0.0737244,-0.196583 -0.0344094,-0.00493307 -0.167118,0.196583 -0.167118,0.196583 -0.0442402,-0.0884606 0.0639173,-0.211339 0.0639173,-0.211339 -0.0295079,-0.00983465 -0.137657,0.176949 -0.137657,0.176949 0.0245827,-0.181866 0.12722,-0.36137 0.223941,-0.495449 0.00650787,-0.00885827 0.0127835,-0.0176929 0.0192638,-0.0261496 0.305783,0.103413 0.631472,0.265126 1.02806,0.0286969z"/>
  <path class="fil4" d="M4.21885 4.1323c0,0 -0.00427165,-0.0581417 0.0182638,-0.049315 0,0 -0.00908268,-0.0448425 0.0405984,-0.0364606l-0.203024 -0.11787 -0.0278465 0.0595669 0.172008 0.144079z"/>
  <path class="fil4" d="M4.09566 3.92259c-0.00427165,0.0100591 -0.0120197,0.0186142 -0.0226654,0.0236929 -0.0231299,0.0110433 -0.0508346,0.00122441 -0.061874,-0.0218976 -0.00523622,-0.0109724 -0.00577559,-0.0229921 -0.00239764,-0.0337441l0.00813386 5.90551e-005c0.0211339,7.48031e-005 0.0418661,0.0065748 0.0592992,0.0185157 0.00664567,0.00461024 0.0131732,0.00903543 0.0195039,0.013374z"/>
  <path class="fil3" d="M4.11311 3.97111c0.17476,0.15198 0.18263,0.144051 -0.00364961,0.0380787 0.122339,0.137705 0.192909,0.203669 -0.0189528,0.0345 -0.017937,-0.0143583 -0.0408268,-0.0319449 -0.0630669,-0.0488307 -0.00975984,0.0390236 -0.00340551,0.0366614 -0.0366811,-0.0276575 -0.00456693,-0.00348425 -0.00899213,-0.00675197 -0.0130866,-0.00981102 -0.0200472,-0.0149488 -0.0443583,-0.0229331 -0.0693898,-0.0228268l-0.663697 0.0036378c-0.0130315,7.48031e-005 -0.019374,-0.0158504 -0.00989764,-0.024811l0.0209606 -0.0195354c0.0461575,-0.0430866 0.0661811,-0.497984 0.0674213,-0.527303l0.0791339 0 -0.0928386 0.508406c-0.00124016,0.00651575 0.00379921,0.0125157 0.0104449,0.0125472l0.688906 0.00314173 0.0081378 5.90551e-005c0.0211339,7.48031e-005 0.0418661,0.0065748 0.0592992,0.0185157 0.00664173,0.00461024 0.0131732,0.00903543 0.0195039,0.013378 0.011063,0.00759449 0.0216339,0.014752 0.031685,0.0216024 0.0632362,0.0430709 0.107193,0.0724331 0.132878,0.0900472 0.0658976,0.0452126 0.0112874,0.0130118 -0.14711,-0.0631378z"/>
  <path class="fil4" d="M4.07615 3.90922l-0.0584921 0.00555118 -0.728732 -0.0102244 0.0925433 -0.537996 0.0207323 0 -0.0928386 0.508406c-0.00124016,0.00651575 0.00379921,0.0125157 0.0104449,0.0125472l0.697043 0.00320079c0.0211339,7.48031e-005 0.0418661,0.0065748 0.0592992,0.0185157z"/>
  <path class="fil15" d="M3.6818 2.96564c-0.094622,0.293886 -0.292949,0.311409 -0.292949,0.311409l0.0122126 -0.0611496c-0.129972,0.149882 -0.390283,0.167386 -0.390283,0.167386l0.0282835 -0.0704843 -0.168587 0.0383819 -0.000350394 0.0131299c-0.112626,0.055 -0.218988,0.260783 -0.218988,0.260783 -0.0200827,-0.0420709 0.0489134,-0.204177 0.0489134,-0.204177 -0.0347559,-0.000649606 -0.141594,0.215697 -0.141594,0.215697 -0.054815,-0.0823268 0.0373622,-0.21761 0.0373622,-0.21761 -0.0304921,-0.00611417 -0.114776,0.192579 -0.114776,0.192579 0.00196063,-0.183508 0.0816732,-0.374299 0.161114,-0.519287 0.0053622,-0.00959055 0.0105039,-0.0191339 0.0158898,-0.0283268 0.316205,0.0649094 0.659354,0.185213 1.02375,-0.0983307z"/>
 </g>
</svg>
