<?xml version="1.0" encoding="UTF-8"?>
<!DOCTYPE svg PUBLIC "-//W3C//DTD SVG 1.1//EN" "http://www.w3.org/Graphics/SVG/1.1/DTD/svg11.dtd">
<!-- Creator: CorelDRAW -->
<svg xmlns="http://www.w3.org/2000/svg" xml:space="preserve" width="6.82666in" height="6.82666in" style="shape-rendering:geometricPrecision; text-rendering:geometricPrecision; image-rendering:optimizeQuality; fill-rule:evenodd; clip-rule:evenodd"
viewBox="0 0 6.82666 6.82666"
 xmlns:xlink="http://www.w3.org/1999/xlink">
 <defs>
  <style type="text/css">
   <![CDATA[
    .fil2 {fill:none}
    .fil1 {fill:#AED581}
    .fil0 {fill:#C5E1A5}
    .fil9 {fill:#039BE5;fill-rule:nonzero}
    .fil5 {fill:#155219;fill-rule:nonzero}
    .fil8 {fill:#1B5E20;fill-rule:nonzero}
    .fil7 {fill:#29B6F6;fill-rule:nonzero}
    .fil4 {fill:#388E3C;fill-rule:nonzero}
    .fil3 {fill:#3D3D3F;fill-rule:nonzero}
    .fil6 {fill:#4FC3F7;fill-rule:nonzero}
    .fil11 {fill:#BDBDBD;fill-rule:nonzero}
    .fil10 {fill:#D0D0D0;fill-rule:nonzero}
   ]]>
  </style>
   <clipPath id="id0">
    <path d="M3.41333 -3.93701e-006c1.88513,0 3.41333,1.5282 3.41333,3.41333 0,1.88513 -1.5282,3.41333 -3.41333,3.41333 -1.88513,0 -3.41333,-1.5282 -3.41333,-3.41333 0,-1.88513 1.5282,-3.41333 3.41333,-3.41333z"/>
   </clipPath>
 </defs>
 <g id="Layer_x0020_1">
  <metadata id="CorelCorpID_0Corel-Layer"/>
  <path class="fil0" d="M3.41333 -3.93701e-006c1.88513,0 3.41333,1.5282 3.41333,3.41333 0,1.88513 -1.5282,3.41333 -3.41333,3.41333 -1.88513,0 -3.41333,-1.5282 -3.41333,-3.41333 0,-1.88513 1.5282,-3.41333 3.41333,-3.41333z"/>
  <g style="clip-path:url(#id0)">
   <g id="_637654600">
    <g>
     <polygon id="_4605890241" class="fil1" points="3.61954,1.73261 7.4058,5.51889 7.40504,5.52645 7.40285,5.5335 7.3994,5.53987 7.39482,5.54543 7.38927,5.55002 7.3829,5.55348 7.37586,5.55566 7.3683,5.55643 3.58203,1.77015 3.58959,1.76939 3.59663,1.7672 3.603,1.76374 3.60855,1.75916 3.61313,1.7536 3.61659,1.74722 3.61877,1.74018 "/>
     <polygon id="_460589264" class="fil1" points="5.20308,3.01159 8.98935,6.79786 8.99161,6.80149 5.20534,3.01522 "/>
     <polygon id="_460591736" class="fil1" points="5.20534,3.01522 8.99161,6.80149 8.99313,6.80552 8.99378,6.80964 8.99363,6.81373 8.99269,6.81768 8.99101,6.82138 8.98864,6.82472 8.98561,6.82759 8.98198,6.82986 5.19571,3.04359 5.19935,3.04131 5.20237,3.03845 5.20474,3.03511 5.20642,3.03141 5.20736,3.02746 5.20752,3.02337 5.20686,3.01925 "/>
     <polygon id="_460591592" class="fil1" points="5.19571,3.04359 8.98198,6.82986 8.92209,6.8593 5.13582,3.07303 "/>
     <polygon id="_460591448" class="fil1" points="5.21626,3.09061 9.00253,6.87688 9.00518,6.87995 9.00719,6.88347 9.00851,6.88733 9.00905,6.89145 9.00874,6.89572 5.22248,3.10944 5.22278,3.10518 5.22224,3.10106 5.22093,3.0972 5.21891,3.09368 "/>
     <polygon id="_460591808" class="fil1" points="5.22248,3.10944 9.00874,6.89572 9.0076,6.89986 9.00572,6.90357 9.00318,6.90679 9.0001,6.90943 8.99657,6.91144 8.99269,6.91276 8.98856,6.91329 8.98428,6.91298 5.19802,3.12671 5.20229,3.12702 5.20642,3.12648 5.2103,3.12517 5.21383,3.12316 5.21691,3.12052 5.21945,3.1173 5.22133,3.11359 "/>
     <polygon id="_460591904" class="fil1" points="3.60855,1.70607 7.39482,5.49234 7.3994,5.49789 7.40285,5.50427 7.40504,5.51132 7.4058,5.51889 3.61954,1.73261 3.61877,1.72505 3.61659,1.718 3.61313,1.71162 "/>
     <polygon id="_460591928" class="fil1" points="3.58203,1.77015 7.3683,5.55643 7.32787,5.55643 3.5416,1.77015 "/>
     <polygon id="_460591664" class="fil1" points="3.5416,1.77015 7.32787,5.55643 7.325,5.56075 7.3222,5.56513 7.31948,5.56957 7.31684,5.57405 7.31428,5.57859 7.3118,5.58318 7.3094,5.58781 7.30708,5.5925 7.30485,5.59723 7.3027,5.602 7.30063,5.60683 7.29865,5.6117 7.29676,5.61661 7.29495,5.62156 7.29324,5.62656 7.29161,5.63159 7.29007,5.63667 7.28863,5.64179 7.28728,5.64694 7.28602,5.65213 7.28486,5.65736 7.2838,5.66263 7.28282,5.66793 7.28195,5.67326 7.28118,5.67862 7.28051,5.68402 7.27994,5.68945 7.27946,5.69491 7.2791,5.70039 7.27883,5.70591 7.27868,5.71145 7.27862,5.71702 3.49235,1.93075 3.49241,1.92518 3.49257,1.91964 3.49283,1.91412 3.4932,1.90863 3.49367,1.90318 3.49424,1.89775 3.49491,1.89235 3.49569,1.88699 3.49656,1.88165 3.49753,1.87635 3.49859,1.87109 3.49976,1.86586 3.50101,1.86067 3.50236,1.85552 3.50381,1.8504 3.50534,1.84532 3.50697,1.84029 3.50869,1.83529 3.51049,1.83033 3.51238,1.82543 3.51436,1.82056 3.51643,1.81573 3.51858,1.81096 3.52081,1.80622 3.52313,1.80154 3.52553,1.79691 3.52801,1.79232 3.53057,1.78778 3.53321,1.7833 3.53593,1.77886 3.53873,1.77448 "/>
     <polygon id="_460592024" class="fil1" points="3.92808,2.11891 7.71435,5.90518 7.72339,5.91562 7.73193,5.92649 7.73996,5.93778 7.74744,5.94946 7.75437,5.96151 7.76072,5.97392 7.76649,5.98667 7.77164,5.99974 7.77616,6.01311 7.78004,6.02677 7.78325,6.0407 7.78578,6.05487 7.78761,6.06928 7.78872,6.08389 7.7891,6.0987 4.00283,2.31243 4.00246,2.29762 4.00135,2.283 3.99952,2.2686 3.99698,2.25443 3.99377,2.2405 3.98989,2.22684 3.98537,2.21347 3.98022,2.2004 3.97446,2.18765 3.9681,2.17524 3.96117,2.16319 3.95369,2.1515 3.94567,2.14022 3.93712,2.12935 "/>
     <polygon id="_460591376" class="fil1" points="3.26794,1.77015 7.05421,5.55643 7.02203,5.55643 3.23576,1.77015 "/>
     <polygon id="_460592192" class="fil1" points="3.23576,1.77015 7.02203,5.55643 7.01448,5.55566 7.00744,5.55348 7.00108,5.55002 6.99552,5.54543 3.20926,1.75916 3.21481,1.76374 3.22118,1.7672 3.22821,1.76939 "/>
     <polygon id="_460592504" class="fil1" points="3.94245,2.4917 7.72872,6.27797 7.72852,6.28777 7.72794,6.29751 7.72699,6.30718 7.72567,6.31678 7.72396,6.3263 7.72191,6.33574 7.71948,6.34511 7.71671,6.35439 7.71359,6.36359 7.71012,6.37269 7.70631,6.3817 7.70218,6.39061 7.6977,6.39942 7.69291,6.40813 7.6878,6.41673 7.68237,6.42522 7.67663,6.4336 7.67058,6.44186 7.66423,6.45 7.65759,6.45802 7.65066,6.46591 7.64344,6.47367 7.63594,6.4813 7.62817,6.48879 7.62012,6.49614 7.61181,6.50335 7.60324,6.51041 7.59441,6.51732 7.58533,6.52407 7.576,6.53068 7.56643,6.53712 7.55662,6.5434 3.77035,2.75713 3.78016,2.75085 3.78973,2.74441 3.79906,2.7378 3.80814,2.73105 3.81697,2.72413 3.82554,2.71707 3.83385,2.70987 3.8419,2.70252 3.84968,2.69502 3.85717,2.6874 3.86439,2.67964 3.87132,2.67175 3.87796,2.66373 3.88431,2.65559 3.89036,2.64733 3.8961,2.63895 3.90153,2.63046 3.90664,2.62186 3.91144,2.61315 3.91591,2.60434 3.92005,2.59543 3.92385,2.58642 3.92732,2.57731 3.93044,2.56812 3.93322,2.55884 3.93564,2.54947 3.9377,2.54003 3.9394,2.5305 3.94072,2.52091 3.94168,2.51124 3.94226,2.5015 "/>
     <polygon id="_460592672" class="fil1" points="4.33243,3.00279 8.1187,6.78906 8.12245,6.79624 8.12616,6.8035 8.12983,6.81084 8.13347,6.81826 8.13707,6.82576 8.14063,6.83334 8.14415,6.841 8.14763,6.84873 8.15107,6.85654 8.15448,6.86442 8.15785,6.87237 8.16119,6.8804 8.16448,6.8885 8.16775,6.89667 8.17097,6.9049 8.17416,6.91321 8.17731,6.92159 8.18043,6.93003 8.18351,6.93854 8.18656,6.94712 8.18957,6.95576 8.19254,6.96446 8.19548,6.97323 8.19839,6.98206 8.20126,6.99095 8.2041,6.9999 8.2069,7.00891 8.20967,7.01798 8.21241,7.0271 8.21511,7.03628 8.21778,7.04552 8.22041,7.05481 4.43414,3.26854 4.43151,3.25925 4.42884,3.25001 4.42614,3.24083 4.4234,3.2317 4.42063,3.22263 4.41783,3.21363 4.41499,3.20468 4.41212,3.19579 4.40922,3.18696 4.40628,3.17819 4.4033,3.16948 4.40029,3.16085 4.39724,3.15227 4.39416,3.14376 4.39104,3.13531 4.38789,3.12694 4.3847,3.11863 4.38148,3.11039 4.37822,3.10222 4.37492,3.09413 4.37159,3.0861 4.36821,3.07815 4.36481,3.07026 4.36136,3.06246 4.35788,3.05472 4.35436,3.04707 4.3508,3.03949 4.3472,3.03199 4.34357,3.02457 4.33989,3.01723 4.33619,3.00997 "/>
     <polygon id="_460592216" class="fil1" points="4.80134,3.60729 8.58761,7.39356 8.5878,7.39568 8.58796,7.39779 8.58806,7.39989 8.58812,7.40198 8.58813,7.40407 8.5881,7.40615 8.58802,7.40822 8.5879,7.41028 4.80163,3.624 4.80175,3.62194 4.80183,3.61988 4.80186,3.6178 4.80185,3.61571 4.80179,3.61362 4.80169,3.61152 4.80154,3.60941 "/>
     <polygon id="_460592360" class="fil1" points="4.43414,3.26854 8.22041,7.05481 8.22265,7.06286 8.22487,7.07095 8.22707,7.07908 8.22924,7.08726 8.23139,7.09546 8.23351,7.10371 8.23561,7.112 8.23769,7.12033 8.23975,7.12869 8.24178,7.13709 8.24379,7.14553 8.24578,7.154 8.24774,7.1625 8.24969,7.17104 8.25161,7.17962 8.2535,7.18822 8.25538,7.19686 8.25723,7.20554 8.25906,7.21424 8.26087,7.22297 8.26266,7.23174 8.26443,7.24053 8.26617,7.24935 8.26789,7.2582 8.26959,7.26708 8.27128,7.27599 8.27294,7.28492 8.27457,7.29388 8.27619,7.30286 8.27779,7.31187 8.27937,7.32091 8.28093,7.32996 4.49466,3.54369 4.4931,3.53463 4.49152,3.5256 4.48993,3.51659 4.48831,3.50761 4.48667,3.49865 4.48501,3.48972 4.48333,3.48081 4.48163,3.47193 4.4799,3.46308 4.47816,3.45426 4.47639,3.44546 4.4746,3.4367 4.4728,3.42797 4.47096,3.41926 4.46911,3.41059 4.46724,3.40195 4.46534,3.39335 4.46342,3.38477 4.46148,3.37623 4.45951,3.36772 4.45752,3.35926 4.45552,3.35082 4.45348,3.34242 4.45143,3.33406 4.44935,3.32573 4.44724,3.31744 4.44512,3.30919 4.44297,3.30098 4.4408,3.29281 4.4386,3.28468 4.43639,3.27659 "/>
     <polygon id="_460592528" class="fil1" points="4.97943,3.91646 8.7657,7.70273 8.76783,7.70664 8.76957,7.71065 8.77092,7.71475 8.77188,7.7189 8.77245,7.72309 8.77265,7.72728 8.77248,7.73146 8.77195,7.7356 4.98568,3.94933 4.98621,3.94519 4.98639,3.94101 4.98619,3.93681 4.98561,3.93263 4.98465,3.92848 4.98331,3.92438 4.98157,3.92037 "/>
     <polygon id="_460592600" class="fil1" points="5.27469,4.01954 9.06096,7.80581 9.06336,7.80911 9.0651,7.81289 9.06607,7.81706 5.2798,4.03078 5.27883,4.02661 5.27709,4.02284 "/>
     <polygon id="_460592168" class="fil1" points="4.77343,3.54933 8.5597,7.33561 8.56591,7.34233 8.57147,7.34963 8.57633,7.35749 8.58042,7.36586 8.5837,7.37469 8.58611,7.38393 8.58761,7.39356 4.80134,3.60729 4.79984,3.59766 4.79743,3.58841 4.79415,3.57959 4.79006,3.57122 4.7852,3.56336 4.77965,3.55606 "/>
     <polygon id="_460592432" class="fil1" points="4.80163,3.624 8.5879,7.41028 8.7657,7.70273 4.97943,3.91646 "/>
     <polygon id="_460592480" class="fil1" points="5.26159,4.05456 9.04786,7.84083 8.98169,7.84951 5.19542,4.06324 "/>
     <polygon id="_460592888" class="fil1" points="5.26583,4.12552 9.0521,7.9118 9.04969,7.91535 9.0467,7.91826 9.04327,7.92048 9.0395,7.922 9.03551,7.92278 9.03141,7.92277 9.02732,7.92196 9.02337,7.9203 5.2371,4.13403 5.24106,4.13569 5.24514,4.1365 5.24924,4.1365 5.25323,4.13573 5.257,4.13421 5.26044,4.13198 5.26342,4.12907 "/>
     <polygon id="_460592912" class="fil1" points="4.74026,3.70626 8.52653,7.49254 8.52371,7.49355 8.52084,7.49447 8.51794,7.49531 8.51499,7.49606 8.512,7.49671 8.50898,7.49727 8.50592,7.49774 8.50283,7.49812 4.71656,3.71185 4.71965,3.71147 4.72271,3.711 4.72574,3.71044 4.72872,3.70978 4.73167,3.70904 4.73457,3.7082 4.73744,3.70728 "/>
     <polygon id="_460592840" class="fil1" points="4.71656,3.71185 8.50283,7.49812 8.30834,7.51848 4.52207,3.7322 "/>
     <polygon id="_460593416" class="fil1" points="5.2371,4.13403 9.02337,7.9203 8.74655,7.76995 4.96028,3.98368 "/>
     <polygon id="_460593584" class="fil1" points="4.96028,3.98368 8.74655,7.76995 8.74237,7.77182 8.7381,7.77326 8.73377,7.77428 8.7294,7.77489 8.72502,7.77508 8.72067,7.77487 8.71635,7.77427 8.71212,7.77328 8.70799,7.7719 8.704,7.77015 8.70016,7.76804 8.69652,7.76556 8.69309,7.76274 8.68991,7.75956 4.90364,3.97329 4.90682,3.97646 4.91025,3.97929 4.91389,3.98177 4.91773,3.98388 4.92172,3.98563 4.92585,3.987 4.93009,3.988 4.9344,3.9886 4.93876,3.98881 4.94313,3.98861 4.9475,3.98801 4.95183,3.98699 4.95611,3.98555 "/>
     <polygon id="_460592960" class="fil1" points="3.05372,2.76587 6.83999,6.55215 6.82948,6.54588 6.81922,6.53944 6.80921,6.53281 6.79946,6.52602 6.78998,6.51906 6.78076,6.51193 6.77182,6.50464 6.76315,6.49719 6.75478,6.48959 6.74669,6.48183 6.7389,6.47394 2.95263,2.68767 2.96043,2.69556 2.96851,2.70332 2.97689,2.71092 2.98555,2.71837 2.99449,2.72566 3.00371,2.73279 3.01319,2.73975 3.02294,2.74654 3.03295,2.75317 3.04321,2.75961 "/>
     <polygon id="_460593080" class="fil1" points="4.52207,3.7322 8.30834,7.51848 8.31059,7.53712 8.31278,7.55581 8.31489,7.57452 8.31693,7.59327 8.31891,7.61204 8.32082,7.63083 8.32267,7.64964 8.32445,7.66846 8.32617,7.68728 8.32783,7.70611 8.32942,7.72493 8.33096,7.74375 8.33243,7.76256 8.33384,7.78134 8.3352,7.80011 8.3365,7.81885 8.33774,7.83756 8.33893,7.85623 8.34006,7.87487 8.34114,7.89346 8.34216,7.912 8.34313,7.93049 8.34406,7.94892 8.34493,7.96729 8.34575,7.98559 8.34652,8.00382 8.34725,8.02198 8.34793,8.04005 8.34856,8.05804 8.34915,8.07594 8.3497,8.09374 8.3502,8.11144 4.56393,4.32517 4.56343,4.30747 4.56289,4.28967 4.5623,4.27177 4.56166,4.25378 4.56098,4.23571 4.56026,4.21755 4.55948,4.19932 4.55866,4.18102 4.55779,4.16265 4.55687,4.14422 4.55589,4.12573 4.55487,4.10719 4.55379,4.0886 4.55266,4.06996 4.55147,4.05129 4.55023,4.03257 4.54893,4.01383 4.54757,3.99507 4.54616,3.97628 4.54469,3.95748 4.54315,3.93866 4.54156,3.91984 4.5399,3.90101 4.53819,3.88219 4.5364,3.86337 4.53456,3.84456 4.53265,3.82577 4.53067,3.807 4.52862,3.78825 4.52651,3.76954 4.52433,3.75085 "/>
     <polygon id="_460593128" class="fil1" points="4.69585,4.46664 8.48211,8.25291 8.48145,8.25493 8.48076,8.25691 8.48002,8.25888 8.47924,8.26081 8.47842,8.26273 8.47756,8.26461 8.47667,8.26647 8.47574,8.26831 4.68947,4.48204 4.6904,4.4802 4.6913,4.47834 4.69215,4.47646 4.69297,4.47454 4.69375,4.47261 4.69449,4.47064 4.69519,4.46865 "/>
     <polygon id="_460593248" class="fil1" points="4.60035,4.53306 8.38662,8.31933 8.38364,8.31913 8.38065,8.31883 8.37765,8.31844 8.37465,8.31796 8.37166,8.31737 8.36867,8.31668 8.36567,8.31589 8.36269,8.315 4.57642,4.52873 4.57941,4.52962 4.5824,4.53041 4.58539,4.53109 4.58839,4.53169 4.59138,4.53217 4.59438,4.53256 4.59737,4.53286 "/>
     <polygon id="_460593344" class="fil1" points="4.56688,4.52572 8.35315,8.31199 8.35317,8.32957 8.35316,8.34696 8.35311,8.36414 8.35302,8.38111 8.3529,8.39787 8.35275,8.41441 8.35257,8.43071 8.35235,8.44679 8.35211,8.46263 8.35184,8.47822 8.35154,8.49356 8.35122,8.50865 8.35087,8.52347 8.3505,8.53802 8.35011,8.5523 8.34969,8.56629 8.34926,8.58 8.34881,8.59341 8.34833,8.60652 8.34785,8.61933 8.34735,8.63183 8.34683,8.644 8.3463,8.65586 8.34576,8.66738 8.34521,8.67857 8.34465,8.68941 8.34408,8.69991 8.3435,8.71005 8.34292,8.71983 8.34233,8.72925 8.34174,8.73829 8.34115,8.74696 4.55488,4.96069 4.55548,4.95202 4.55607,4.94298 4.55665,4.93356 4.55724,4.92378 4.55781,4.91364 4.55838,4.90314 4.55894,4.8923 4.55949,4.88111 4.56004,4.86959 4.56056,4.85773 4.56108,4.84556 4.56158,4.83306 4.56207,4.82025 4.56254,4.80714 4.56299,4.79372 4.56343,4.78002 4.56384,4.76602 4.56424,4.75175 4.56461,4.7372 4.56495,4.72237 4.56528,4.70729 4.56557,4.69195 4.56585,4.67636 4.56609,4.66052 4.5663,4.64444 4.56648,4.62813 4.56663,4.61159 4.56675,4.59484 4.56684,4.57787 4.56689,4.56069 4.5669,4.5433 "/>
     <polygon id="_460593752" class="fil1" points="4.72852,4.8538 8.51478,8.64007 8.61735,8.77139 4.83108,4.98512 "/>
     <polygon id="_460593728" class="fil1" points="4.57642,4.52873 8.36269,8.315 8.35315,8.31199 4.56688,4.52572 "/>
     <polygon id="_460593992" class="fil1" points="4.68947,4.48204 8.47574,8.26831 8.52213,8.60748 4.73586,4.8212 "/>
     <polygon id="_460593680" class="fil1" points="4.73586,4.8212 8.52213,8.60748 8.52254,8.6119 8.52254,8.61627 8.52214,8.62056 8.52136,8.62474 8.52022,8.62881 8.51874,8.63273 8.51692,8.6365 8.51478,8.64007 4.72852,4.8538 4.73065,4.85022 4.73247,4.84646 4.73396,4.84254 4.73509,4.83847 4.73587,4.83429 4.73627,4.83 4.73627,4.82563 "/>
     <polygon id="_460593896" class="fil1" points="4.87542,5.04189 8.66169,8.82816 8.70504,8.88366 4.91877,5.09739 "/>
     <polygon id="_460594040" class="fil1" points="4.69152,4.87517 8.47778,8.66144 8.4732,8.66149 8.46872,8.66111 8.46433,8.66031 8.46008,8.65913 8.45599,8.65756 8.45207,8.65563 8.44837,8.65336 8.44488,8.65076 8.44164,8.64786 4.65537,4.86159 4.65861,4.86449 4.6621,4.86709 4.66581,4.86936 4.66972,4.87129 4.67381,4.87285 4.67807,4.87404 4.68245,4.87483 4.68694,4.87522 "/>
     <polygon id="_460594160" class="fil1" points="4.91515,5.12709 8.70142,8.91336 8.69779,8.91565 8.6939,8.91713 8.68986,8.9178 8.6858,8.91769 8.68183,8.91681 8.67808,8.91517 8.67466,8.9128 4.88839,5.12652 4.89181,5.1289 4.89556,5.13054 4.89953,5.13142 4.90359,5.13153 4.90763,5.13085 4.91152,5.12938 "/>
     <polygon id="_460593800" class="fil1" points="4.91877,5.09739 8.70504,8.88366 8.70732,8.88729 8.7088,8.89119 8.70947,8.89522 8.70937,8.89928 8.7085,8.90325 8.70687,8.90699 8.70451,8.9104 8.70142,8.91336 4.91515,5.12709 4.91824,5.12413 4.9206,5.12072 4.92223,5.11698 4.9231,5.11301 4.9232,5.10895 4.92253,5.10492 4.92106,5.10102 "/>
     <polygon id="_460594184" class="fil1" points="4.96161,5.02638 8.74788,8.81265 8.75019,8.816 8.75181,8.81971 8.7527,8.8237 8.75278,8.82784 8.752,8.83204 4.96574,5.04577 4.96651,5.04157 4.96643,5.03743 4.96554,5.03344 4.96392,5.02973 "/>
     <polygon id="_460594256" class="fil1" points="4.96574,5.04577 8.752,8.83204 8.75043,8.83604 8.74816,8.83953 8.7453,8.84245 8.74194,8.84474 8.73822,8.84636 8.73421,8.84724 8.73005,8.84733 8.72582,8.84657 4.93955,5.0603 4.94378,5.06106 4.94794,5.06097 4.95195,5.06009 4.95568,5.05847 4.95903,5.05618 4.96189,5.05326 4.96417,5.04977 "/>
     <polygon id="_460594496" class="fil1" points="4.93955,5.0603 8.72582,8.84657 8.66169,8.82816 4.87542,5.04189 "/>
     <polygon id="_460594616" class="fil1" points="2.50594,3.00815 6.2922,6.79443 6.04338,6.68007 2.25711,2.8938 "/>
     <polygon id="_460594808" class="fil1" points="2.25711,2.8938 6.04338,6.68007 6.04057,6.67873 6.03782,6.6773 6.03514,6.6758 6.03252,6.67422 6.02997,6.67256 6.02749,6.67084 6.02507,6.66905 6.02272,6.66719 2.23646,2.88091 2.2388,2.88278 2.24122,2.88457 2.2437,2.88629 2.24626,2.88794 2.24887,2.88952 2.25156,2.89103 2.2543,2.89246 "/>
     <polygon id="_460594880" class="fil1" points="2.23646,2.88091 6.02272,6.66719 5.78991,6.8625 2.00364,3.07623 "/>
     <polygon id="_460594400" class="fil1" points="1.69084,3.07304 5.47711,6.85931 5.41721,6.82986 1.63094,3.04359 "/>
     <polygon id="_460594448" class="fil1" points="2.00364,3.07623 5.78991,6.8625 5.78622,6.86531 5.78234,6.8677 5.77831,6.86969 5.77417,6.87126 5.76993,6.87244 5.76562,6.87321 5.76128,6.87358 5.75693,6.87356 5.75259,6.87314 5.74832,6.87233 5.74413,6.87113 5.74004,6.86954 5.73609,6.86757 5.73231,6.86521 5.72873,6.86248 5.72537,6.85937 1.9391,3.07309 1.94246,3.0762 1.94604,3.07894 1.94982,3.0813 1.95377,3.08327 1.95786,3.08486 1.96205,3.08606 1.96633,3.08687 1.97066,3.08729 1.97501,3.08731 1.97935,3.08694 1.98366,3.08617 1.9879,3.08499 1.99205,3.08341 1.99607,3.08143 1.99995,3.07904 "/>
     <polygon id="_460594784" class="fil1" points="2.11009,3.71185 5.89636,7.49812 5.89327,7.49774 5.89021,7.49728 5.88719,7.49671 5.88421,7.49606 5.88127,7.49531 5.87837,7.49448 5.8755,7.49355 5.87269,7.49254 2.08642,3.70627 2.08924,3.70728 2.0921,3.7082 2.095,3.70904 2.09794,3.70979 2.10093,3.71044 2.10394,3.711 2.107,3.71147 "/>
     <polygon id="_460594712" class="fil1" points="1.63126,4.06324 5.41753,7.84951 5.35137,7.84083 1.5651,4.05456 "/>
     <polygon id="_460594472" class="fil1" points="1.58956,4.13403 5.37583,7.9203 5.37187,7.92196 5.36779,7.92277 5.3637,7.92278 5.35971,7.922 5.35595,7.92048 5.35252,7.91826 1.56625,4.13198 1.56968,4.13421 1.57344,4.13573 1.57743,4.1365 1.58152,4.1365 1.5856,4.13569 "/>
     <polygon id="_460594688" class="fil1" points="2.18507,4.83412 5.97133,8.62039 5.97048,8.62496 5.96922,8.62934 5.96757,8.63352 5.96556,8.63748 5.9632,8.6412 5.96053,8.64467 5.95756,8.64786 5.95432,8.65077 5.95083,8.65337 5.94712,8.65563 5.9432,8.65756 5.93911,8.65913 5.93486,8.66032 5.93048,8.66111 5.92599,8.66149 5.92141,8.66144 2.13515,4.87517 2.13972,4.87522 2.14421,4.87484 2.14859,4.87405 2.15284,4.87286 2.15694,4.87129 2.16085,4.86936 2.16456,4.86709 2.16805,4.8645 2.17129,4.86159 2.17426,4.8584 2.17693,4.85493 2.17929,4.85121 2.1813,4.84725 2.18295,4.84307 2.18422,4.83869 "/>
     <polygon id="_460594664" class="fil1" points="1.95127,5.04189 5.73754,8.82816 5.67338,8.84657 1.88711,5.0603 "/>
     <polygon id="_460595720" class="fil1" points="1.5651,4.05456 5.35137,7.84083 5.34719,7.83984 5.3434,7.83809 5.34008,7.83569 1.55381,4.04942 1.55713,4.05182 1.56092,4.05357 "/>
     <polygon id="_460595360" class="fil1" points="2.08642,3.70627 5.87269,7.49254 5.7148,7.7522 1.92853,3.96593 "/>
     <polygon id="_460595672" class="fil1" points="1.86639,3.98369 5.65266,7.76996 5.37583,7.9203 1.58956,4.13403 "/>
     <polygon id="_460595600" class="fil1" points="2.42281,5.08479 6.20907,8.87106 6.20318,8.87189 6.19755,8.87267 6.1922,8.87341 6.18717,8.87409 6.18246,8.8747 6.17811,8.87523 6.17415,8.87568 6.17058,8.87604 2.38431,5.08976 2.38788,5.08941 2.39185,5.08896 2.39619,5.08843 2.4009,5.08781 2.40593,5.08714 2.41128,5.0864 2.41691,5.08562 "/>
     <polygon id="_460595648" class="fil1" points="1.88711,5.0603 5.67338,8.84657 5.66916,8.84733 5.66499,8.84724 5.66099,8.84636 5.65726,8.84474 5.65392,8.84245 1.86765,5.05618 1.871,5.05847 1.87472,5.06009 1.87872,5.06097 1.88289,5.06106 "/>
     <polygon id="_460595864" class="fil1" points="1.94126,5.12342 5.72753,8.90969 5.72457,8.9128 5.72114,8.91517 5.71739,8.91681 5.71341,8.91769 5.70935,8.9178 5.70531,8.91713 5.70142,8.91565 5.6978,8.91336 1.91153,5.12709 1.91515,5.12938 1.91904,5.13085 1.92308,5.13153 1.92715,5.13142 1.93112,5.13054 1.93487,5.1289 1.9383,5.12652 "/>
     <polygon id="_460595216" class="fil1" points="2.13515,4.87517 5.92141,8.66144 5.72753,8.90969 1.94126,5.12342 "/>
     <polygon id="_460595336" class="fil1" points="2.38431,5.08976 6.17058,8.87604 6.16304,8.87667 6.15593,8.87713 6.14923,8.87741 6.14294,8.87749 6.13704,8.87736 6.1315,8.87701 6.12633,8.87643 6.1215,8.87559 6.117,8.87449 6.11283,8.87312 6.10895,8.87146 6.10536,8.8695 6.10205,8.86722 6.099,8.86462 2.31273,5.07835 2.31578,5.08095 2.31909,5.08323 2.32268,5.08519 2.32656,5.08685 2.33074,5.08822 2.33523,5.08932 2.34006,5.09015 2.34523,5.09074 2.35077,5.09109 2.35667,5.09122 2.36296,5.09114 2.36966,5.09086 2.37677,5.0904 "/>
     <polygon id="_460595408" class="fil1" points="1.62868,3.12671 5.41494,6.91298 5.41067,6.91329 5.40654,6.91276 5.40266,6.91144 5.39912,6.90943 5.39604,6.90679 1.60977,3.12052 1.61285,3.12316 1.61639,3.12517 1.62027,3.12648 1.6244,3.12702 "/>
     <polygon id="_460595168" class="fil1" points="1.63094,3.04359 5.41721,6.82986 5.41358,6.82759 1.62731,3.04131 "/>
     <polygon id="_460596464" class="fil1" points="1.92853,3.96593 5.7148,7.7522 5.7122,7.75605 5.70929,7.75956 5.70611,7.76274 5.70269,7.76556 5.69905,7.76804 5.69522,7.77015 5.69122,7.7719 5.6871,7.77327 5.68287,7.77426 5.67856,7.77487 5.6742,7.77508 5.66982,7.77489 5.66545,7.77428 5.66111,7.77327 5.65684,7.77183 5.65266,7.76996 1.86639,3.98369 1.87057,3.98556 1.87484,3.987 1.87918,3.98801 1.88355,3.98861 1.88793,3.98881 1.89229,3.9886 1.8966,3.98799 1.90083,3.987 1.90496,3.98563 1.90895,3.98388 1.91278,3.98176 1.91643,3.97929 1.91985,3.97646 1.92302,3.97329 1.92593,3.96978 "/>
     <polygon id="_460596656" class="fil1" points="2.27431,4.52114 6.06058,8.30741 6.03653,8.315 2.25026,4.52873 "/>
     <polygon id="_460596488" class="fil1" points="2.25026,4.52873 6.03653,8.315 6.03354,8.31589 6.03055,8.31669 6.02756,8.31737 6.02456,8.31796 6.02156,8.31845 6.01856,8.31884 6.01556,8.31913 6.01257,8.31933 2.22631,4.53306 2.2293,4.53286 2.23229,4.53257 2.23529,4.53218 2.23829,4.53169 2.24129,4.5311 2.24428,4.53041 2.24728,4.52962 "/>
     <polygon id="_460596296" class="fil1" points="2.22631,4.53306 6.01257,8.31933 5.97133,8.62039 2.18507,4.83412 "/>
     <polygon id="_460596344" class="fil1" points="2.98815,4.75055 6.77442,8.53682 6.76007,8.55354 6.74556,8.56994 6.73087,8.58599 6.71601,8.60169 6.70099,8.61703 6.68581,8.63201 6.67046,8.64662 6.65497,8.66084 6.63932,8.67467 6.62353,8.68811 6.60759,8.70114 6.5915,8.71375 6.57528,8.72594 6.55892,8.7377 6.54243,8.74902 6.5258,8.7599 6.50905,8.77031 6.49218,8.78027 6.47518,8.78975 6.45807,8.79875 6.44084,8.80726 6.4235,8.81528 6.40605,8.82279 6.38849,8.82979 6.37083,8.83627 6.35308,8.84221 6.33522,8.84762 6.31728,8.85249 6.29924,8.8568 6.28112,8.86054 6.26291,8.86372 6.24462,8.86632 2.45835,5.08005 2.47664,5.07745 2.49485,5.07427 2.51298,5.07052 2.53101,5.06622 2.54896,5.06135 2.56681,5.05594 2.58457,5.05 2.60222,5.04352 2.61978,5.03652 2.63723,5.02901 2.65457,5.02099 2.6718,5.01248 2.68891,5.00348 2.70591,4.994 2.72278,4.98404 2.73954,4.97363 2.75616,4.96275 2.77265,4.95143 2.78901,4.93967 2.80524,4.92748 2.82132,4.91487 2.83726,4.90184 2.85306,4.8884 2.8687,4.87457 2.8842,4.86035 2.89954,4.84574 2.91472,4.83076 2.92974,4.81542 2.9446,4.79972 2.95929,4.78367 2.9738,4.76727 "/>
     <polygon id="_460595984" class="fil1" points="2.45835,5.08005 6.24462,8.86632 6.23844,8.8671 6.23291,8.86782 6.22797,8.86846 6.22352,8.86906 6.21948,8.86961 6.21579,8.87012 6.21234,8.8706 6.20907,8.87106 2.42281,5.08479 2.42607,5.08433 2.42952,5.08385 2.43322,5.08334 2.43725,5.08279 2.4417,5.08219 2.44665,5.08155 2.45217,5.08083 "/>
     <polygon id="_460596008" class="fil1" points="4.55488,4.96069 8.34115,8.74696 8.34038,8.75768 8.3396,8.76784 8.3388,8.77745 8.33797,8.78653 8.33709,8.79508 8.33614,8.80313 8.33511,8.81067 8.334,8.81774 8.33278,8.82433 8.33144,8.83046 8.32996,8.83615 8.32834,8.84141 8.32656,8.84625 8.3246,8.85068 8.32245,8.85472 8.32009,8.85839 8.31752,8.86168 8.31472,8.86462 8.31167,8.86722 8.30835,8.8695 8.30476,8.87146 8.30089,8.87312 8.29671,8.87449 8.29221,8.87559 8.28739,8.87643 8.28221,8.87701 8.27668,8.87736 8.27077,8.87749 8.26448,8.87741 8.25778,8.87713 8.25067,8.87667 8.24313,8.87604 4.45687,5.08976 4.46441,5.0904 4.47152,5.09086 4.47821,5.09114 4.4845,5.09122 4.49041,5.09109 4.49594,5.09074 4.50112,5.09015 4.50594,5.08932 4.51044,5.08822 4.51462,5.08685 4.5185,5.08519 4.52208,5.08323 4.5254,5.08095 4.52845,5.07835 4.53125,5.07541 4.53383,5.07211 4.53618,5.06845 4.53833,5.06441 4.54029,5.05998 4.54207,5.05514 4.5437,5.04988 4.54517,5.04419 4.54651,5.03806 4.54773,5.03146 4.54885,5.0244 4.54987,5.01685 4.55082,5.00881 4.5517,5.00026 4.55254,4.99118 4.55333,4.98157 4.55411,4.97141 "/>
     <polygon id="_460596392" class="fil1" points="4.45687,5.08976 8.24313,8.87604 8.23957,8.87568 8.2356,8.87523 8.23126,8.8747 8.22655,8.87409 8.22152,8.87341 8.21617,8.87267 8.21054,8.87189 8.20464,8.87106 4.41837,5.08479 4.42427,5.08562 4.4299,5.0864 4.43525,5.08714 4.44028,5.08781 4.44499,5.08843 4.44933,5.08896 4.4533,5.08941 "/>
     <polygon id="_460596152" class="fil1" points="4.41837,5.08479 8.20464,8.87106 8.20137,8.8706 8.19793,8.87012 8.19423,8.86961 8.1902,8.86906 8.18574,8.86846 8.1808,8.86782 8.17527,8.8671 8.16909,8.86632 4.38282,5.08005 4.389,5.08083 4.39453,5.08155 4.39948,5.08219 4.40393,5.08279 4.40796,5.08334 4.41166,5.08385 4.4151,5.08433 "/>
     <polygon id="_460596560" class="fil1" points="1.9391,3.07309 5.72537,6.85937 5.41494,6.91298 1.62868,3.12671 "/>
     <polygon id="_460596632" class="fil1" points="2.31892,3.7337 6.10519,7.51998 5.89636,7.49812 2.11009,3.71185 "/>
     <polygon id="_460597304" class="fil1" points="3.4206,4.93524 7.20687,8.72152 7.19217,8.72131 7.17753,8.7207 7.16295,8.71968 7.14843,8.71827 7.13398,8.71646 7.11959,8.71426 7.10526,8.71169 7.09101,8.70872 7.07683,8.70539 7.06272,8.70169 7.04868,8.69763 7.03472,8.6932 7.02084,8.68843 7.00704,8.6833 6.99332,8.67783 6.97969,8.67202 6.96613,8.66587 6.95267,8.65939 6.9393,8.65259 6.92602,8.64547 6.91283,8.63804 6.89973,8.63029 6.88674,8.62224 6.87384,8.61388 6.86104,8.60523 6.84834,8.5963 6.83575,8.58707 6.82326,8.57756 6.81089,8.56778 6.79862,8.55772 6.78646,8.5474 6.77442,8.53682 2.98815,4.75055 3.00019,4.76113 3.01235,4.77145 3.02462,4.78151 3.037,4.79129 3.04948,4.8008 3.06207,4.81002 3.07477,4.81896 3.08757,4.82761 3.10047,4.83596 3.11346,4.84402 3.12656,4.85176 3.13975,4.8592 3.15303,4.86632 3.16641,4.87312 3.17987,4.8796 3.19342,4.88574 3.20705,4.89156 3.22077,4.89703 3.23457,4.90215 3.24845,4.90693 3.26241,4.91136 3.27645,4.91542 3.29056,4.91912 3.30474,4.92245 3.319,4.92541 3.33332,4.92799 3.34771,4.93019 3.36217,4.932 3.37669,4.93341 3.39126,4.93443 3.40591,4.93504 "/>
     <polygon id="_460597208" class="fil1" points="3.85304,4.75056 7.63931,8.53683 7.62726,8.54741 7.61511,8.55773 7.60284,8.56778 7.59046,8.57757 7.57798,8.58707 7.56539,8.5963 7.55269,8.60524 7.53989,8.61389 7.52699,8.62224 7.514,8.63029 7.5009,8.63804 7.48771,8.64548 7.47443,8.65259 7.46106,8.6594 7.4476,8.66587 7.43405,8.67202 7.42041,8.67783 7.40669,8.6833 7.39289,8.68843 7.37901,8.6932 7.36506,8.69763 7.35102,8.70169 7.33691,8.70539 7.32272,8.70872 7.30847,8.71169 7.29415,8.71426 7.27976,8.71646 7.26531,8.71827 7.25079,8.71968 7.23621,8.7207 7.22157,8.72131 7.20687,8.72152 3.4206,4.93524 3.4353,4.93504 3.44994,4.93443 3.46452,4.93341 3.47904,4.932 3.49349,4.93019 3.50788,4.92799 3.5222,4.92541 3.53646,4.92245 3.55064,4.91912 3.56475,4.91542 3.57879,4.91136 3.59274,4.90693 3.60663,4.90216 3.62043,4.89703 3.63415,4.89156 3.64778,4.88575 3.66133,4.8796 3.67479,4.87313 3.68817,4.86632 3.70144,4.8592 3.71463,4.85177 3.72773,4.84402 3.74072,4.83597 3.75362,4.82762 3.76642,4.81897 3.77912,4.81003 3.79171,4.8008 3.80419,4.7913 3.81657,4.78151 3.82884,4.77146 3.841,4.76114 "/>
     <polygon id="_460596848" class="fil1" points="4.38282,5.08005 8.16909,8.86632 8.1508,8.86372 8.13259,8.86054 8.11447,8.8568 8.09644,8.85249 8.07849,8.84762 8.06064,8.84221 8.04288,8.83627 8.02522,8.82979 8.00767,8.82279 7.99022,8.81528 7.97288,8.80726 7.95565,8.79875 7.93854,8.78975 7.92154,8.78027 7.90467,8.77032 7.88792,8.7599 7.8713,8.74903 7.8548,8.73771 7.83844,8.72595 7.82222,8.71376 7.80613,8.70114 7.79019,8.68811 7.7744,8.67468 7.75875,8.66085 7.74326,8.64662 3.95699,4.86035 3.97248,4.87457 3.98813,4.88841 4.00393,4.90184 4.01987,4.91487 4.03595,4.92748 4.05217,4.93968 4.06853,4.95144 4.08503,4.96276 4.10165,4.97363 4.1184,4.98405 4.13528,4.994 4.15227,5.00348 4.16939,5.01248 4.18661,5.02099 4.20395,5.02901 4.2214,5.03652 4.23896,5.04352 4.25661,5.05 4.27437,5.05594 4.29222,5.06135 4.31017,5.06622 4.3282,5.07052 4.34633,5.07427 4.36454,5.07745 "/>
     <polygon id="_460597400" class="fil1" points="4.67356,4.37182 8.45982,8.15809 8.46587,8.165 8.47121,8.17244 8.47581,8.18033 8.47964,8.18863 8.48266,8.19727 8.48484,8.20619 8.48615,8.21533 8.48657,8.22463 8.48606,8.23404 8.48458,8.24348 8.48211,8.25291 4.69585,4.46664 4.69831,4.45721 4.69979,4.44777 4.7003,4.43836 4.69989,4.42906 4.69857,4.41991 4.69639,4.411 4.69337,4.40235 4.68954,4.39406 4.68494,4.38617 4.67961,4.37873 "/>
     <polygon id="_460596872" class="fil1" points="3.49235,1.93075 7.27862,5.71702 7.27866,5.72148 7.27876,5.72592 7.27893,5.73034 7.27916,5.73474 7.27946,5.73913 7.27983,5.7435 7.28026,5.74785 7.28075,5.75218 7.28131,5.75649 7.28193,5.76078 7.28262,5.76506 7.28337,5.7693 7.28417,5.77353 7.28505,5.77774 7.28598,5.78192 7.28697,5.78608 7.28802,5.79021 7.28913,5.79433 7.29031,5.79841 7.29154,5.80247 7.29282,5.80651 7.29417,5.81052 7.29557,5.8145 7.29703,5.81846 7.29854,5.82239 7.30011,5.82629 7.30174,5.83016 7.30342,5.834 7.30516,5.83782 7.30694,5.8416 7.30879,5.84535 7.31068,5.84908 3.52441,2.06281 3.52252,2.05908 3.52068,2.05533 3.51889,2.05155 3.51715,2.04773 3.51547,2.04389 3.51385,2.04002 3.51228,2.03612 3.51076,2.03219 3.5093,2.02823 3.5079,2.02425 3.50656,2.02024 3.50527,2.0162 3.50404,2.01214 3.50287,2.00806 3.50176,2.00394 3.5007,1.99981 3.49971,1.99565 3.49878,1.99146 3.49791,1.98726 3.4971,1.98303 3.49635,1.97878 3.49567,1.97451 3.49504,1.97022 3.49448,1.96591 3.49399,1.96158 3.49356,1.95723 3.49319,1.95286 3.49289,1.94847 3.49266,1.94407 3.49249,1.93965 3.49239,1.9352 "/>
     <polygon id="_460596776" class="fil1" points="5.26375,4.10225 9.05002,7.88852 9.05225,7.89195 9.05378,7.89571 9.05456,7.89969 9.05456,7.90378 9.05375,7.90785 9.0521,7.9118 5.26583,4.12552 5.26748,4.12157 5.2683,4.1175 5.26829,4.11342 5.26751,4.10944 5.26598,4.10568 "/>
     <polygon id="_460597280" class="fil1" points="4.89039,3.00955 8.67666,6.79582 8.67924,6.79927 8.68148,6.80289 8.68336,6.80667 8.68489,6.81058 8.68607,6.81459 8.68689,6.81868 4.90063,3.03241 4.8998,3.02832 4.89863,3.02431 4.89709,3.0204 4.89521,3.01662 4.89297,3.013 "/>
     <polygon id="_460596920" class="fil1" points="4.60063,2.74364 8.3869,6.52991 8.38995,6.53348 8.39284,6.53722 8.39556,6.54113 8.39809,6.5452 8.40045,6.54944 8.40261,6.55384 4.61634,2.76757 4.61418,2.76317 4.61183,2.75893 4.60929,2.75485 4.60657,2.75094 4.60368,2.7472 "/>
     <polygon id="_460596944" class="fil1" points="4.88757,3.07309 8.67384,6.85936 8.67048,6.86248 8.66691,6.86521 8.66313,6.86757 8.65918,6.86954 8.6551,6.87113 8.6509,6.87233 8.64663,6.87314 8.6423,6.87356 8.63795,6.87358 8.6336,6.87321 8.62929,6.87244 8.62505,6.87126 8.62089,6.86969 8.61686,6.8677 8.61298,6.86531 8.60928,6.8625 4.82301,3.07623 4.82671,3.07904 4.83059,3.08143 4.83463,3.08341 4.83878,3.08499 4.84302,3.08617 4.84733,3.08694 4.85168,3.08731 4.85603,3.08729 4.86036,3.08687 4.86463,3.08606 4.86883,3.08485 4.87291,3.08327 4.87686,3.0813 4.88064,3.07894 4.88422,3.0762 "/>
     <polygon id="_460597136" class="fil1" points="4.82301,3.07623 8.60928,6.8625 8.3765,6.66719 4.59023,2.88092 "/>
     <polygon id="_460597904" class="fil1" points="4.00283,2.31243 7.7891,6.0987 7.78903,6.10492 7.78883,6.11111 7.78851,6.11726 7.78806,6.12337 7.78748,6.12946 7.78677,6.1355 7.78594,6.1415 7.78498,6.14747 7.78391,6.15339 7.78272,6.15927 7.7814,6.16511 7.77997,6.1709 7.77842,6.17664 7.77676,6.18234 7.77498,6.18798 7.7731,6.19358 7.7711,6.19913 7.76899,6.20462 7.76677,6.21005 7.76445,6.21543 7.76202,6.22076 7.75948,6.22602 7.75685,6.23122 7.75411,6.23637 7.75127,6.24144 7.74833,6.24646 7.7453,6.25141 7.74217,6.2563 7.73894,6.26111 7.73562,6.26586 7.7322,6.27054 7.7287,6.27514 3.94243,2.48887 3.94594,2.48426 3.94935,2.47959 3.95267,2.47484 3.9559,2.47002 3.95903,2.46514 3.96207,2.46019 3.965,2.45517 3.96784,2.45009 3.97058,2.44495 3.97322,2.43975 3.97575,2.43448 3.97818,2.42916 3.9805,2.42378 3.98272,2.41835 3.98483,2.41285 3.98683,2.40731 3.98872,2.40171 3.99049,2.39607 3.99215,2.39037 3.9937,2.38463 3.99513,2.37883 3.99645,2.373 3.99764,2.36712 3.99872,2.3612 3.99967,2.35523 4.0005,2.34923 4.00121,2.34319 4.00179,2.3371 4.00224,2.33099 4.00257,2.32483 4.00276,2.31865 "/>
     <polygon id="_460597688" class="fil1" points="4.59023,2.88092 8.3765,6.66719 8.37415,6.66905 8.37174,6.67085 8.36925,6.67257 8.3667,6.67422 8.36409,6.6758 8.3614,6.6773 8.35866,6.67873 8.35585,6.68007 4.56958,2.8938 4.57239,2.89246 4.57513,2.89103 4.57782,2.88953 4.58043,2.88795 4.58298,2.8863 4.58547,2.88457 4.58788,2.88278 "/>
     <polygon id="_460598072" class="fil1" points="3.94243,2.48887 7.7287,6.27514 7.7287,6.2755 7.72871,6.27585 7.72871,6.2762 7.72871,6.27656 7.72872,6.27691 7.72872,6.27727 7.72872,6.27762 7.72872,6.27797 3.94245,2.4917 3.94245,2.49135 3.94245,2.491 3.94245,2.49064 3.94244,2.49029 3.94244,2.48993 3.94244,2.48958 3.94244,2.48922 "/>
     <polygon id="_460598000" class="fil1" points="4.56958,2.8938 8.35585,6.68007 8.1187,6.78906 4.33243,3.00279 "/>
     <polygon id="_460598048" class="fil1" points="5.2798,4.03078 9.06607,7.81706 9.06622,7.82135 9.06552,7.82546 9.06406,7.82928 9.06191,7.83272 9.05913,7.83569 9.05582,7.83809 9.05204,7.83984 9.04786,7.84083 5.26159,4.05456 5.26577,4.05357 5.26955,4.05182 5.27287,4.04942 5.27564,4.04645 5.27779,4.043 5.27925,4.03919 5.27995,4.03508 "/>
     <polygon id="_460597952" class="fil1" points="4.61634,2.76757 8.40261,6.55384 8.40348,6.55578 8.4043,6.55774 8.40507,6.5597 8.4058,6.56167 8.40648,6.56365 8.40712,6.56563 8.40771,6.56762 8.40825,6.56961 4.62198,2.78334 4.62144,2.78135 4.62085,2.77935 4.62021,2.77737 4.61953,2.7754 4.6188,2.77343 4.61803,2.77146 4.61721,2.76951 "/>
     <polygon id="_460597712" class="fil1" points="5.19802,3.12671 8.98428,6.91298 8.67384,6.85936 4.88757,3.07309 "/>
    </g>
    <path id="_637654480" class="fil1" d="M4.62198 2.78334l0.262209 0.219965c0.00917717,0.00769291 0.0147205,0.018122 0.0164331,0.0291063l0.164193 0.0283583 0.112165 -0.0551496c0.0105354,-0.00514173 0.0232283,-0.000870079 0.0283543,0.00959843 0.00523228,0.0105354 0.000858268,0.023189 -0.00962992,0.028374l-0.0598858 0.0294409 0.0693858 0.0119843c0.0115157,0.00202756 0.0192638,0.0129331 0.0172677,0.0244291 -0.00195669,0.011563 -0.0129449,0.0192638 -0.0244606,0.0172677l-0.310445 -0.053622c-0.0172323,0.0176024 -0.0453543,0.0192087 -0.0645591,0.0031378l-0.232783 -0.195307c-0.00616535,0.00504724 -0.0130709,0.00940157 -0.0206496,0.0128819l-0.237146 0.108984c0.0402087,0.0761496 0.0737795,0.166339 0.101709,0.265756 0.0240551,0.085626 0.0440197,0.178417 0.0605157,0.275146l0.202118 -0.0211575c0.0522598,-0.00547244 0.0991299,0.0324764 0.104563,0.0847598 0.000590551,0.00564961 0.000677165,0.0112362 0.000291339,0.0167126l0.177799 0.292457c0.00624409,0.010248 0.00815354,0.0219134 0.00625197,0.0328661l0.146429 0.0795236 0.123941 -0.0162717c0.0115945,-0.00148031 0.0222638,0.00662205 0.023752,0.0182047 0.0015748,0.011626 -0.00661417,0.0222205 -0.0182087,0.0237717l-0.0661732 0.0086811 0.0618701 0.0336024c0.0102874,0.00561417 0.0141102,0.0184252 0.00853937,0.028685 -0.0055748,0.0103031 -0.0184488,0.0140787 -0.0287323,0.00850787l-0.276819 -0.150354c-0.0219685,0.0111417 -0.0491142,0.00364173 -0.0621535,-0.017748l-0.157866 -0.259665c-0.00746063,0.00280709 -0.0154016,0.0047126 -0.0237008,0.00558268l-0.194484 0.0203583c0.0243898,0.198665 0.0367402,0.404669 0.0418543,0.592969l0.069815 0.0220433c0.050126,0.0158071 0.0779724,0.0692992 0.0621024,0.119425 -0.00170472,0.00540157 -0.00384646,0.0105394 -0.00637402,0.0153937l0.0463898 0.339169c0.00164961,0.0118661 -0.00124409,0.023315 -0.00734646,0.0325984l0.102567 0.131319 0.120134 0.0345039c0.0112441,0.00326772 0.0177874,0.0149528 0.0145197,0.0261457 -0.00316535,0.0112874 -0.0149291,0.0177402 -0.026185,0.0145315l-0.0641299 -0.0184173 0.0433465 0.0555c0.00718898,0.00924016 0.00557087,0.0225315 -0.00361417,0.0297008 -0.00922047,0.0072126 -0.0225315,0.00556299 -0.0297244,-0.00366535l-0.193913 -0.248256c-0.0246024,0.00145276 -0.0465157,-0.0162323 -0.0498898,-0.0410472l-0.0412717 -0.301063c-0.00795276,-0.000401575 -0.0159843,-0.00181496 -0.0239331,-0.00432283l-0.00954331 -0.00301181c0.000456693,0.188551 -0.00566142,0.344587 -0.0119961,0.434965 -0.00823622,0.117429 -0.0152402,0.136689 -0.0980157,0.129079 -0.00894882,-0.000822835 -0.0224409,-0.00271654 -0.0384921,-0.00497638 -0.00855906,-0.00120472 -0.0181142,-0.00254331 -0.0355512,-0.00474016 -0.195492,-0.0245984 -0.377709,-0.149354 -0.529783,-0.329492 -0.12785,0.11426 -0.275362,0.184689 -0.432437,0.184689 -0.157079,0 -0.304598,-0.0704331 -0.432453,-0.184697 -0.152079,0.180142 -0.334295,0.304902 -0.529795,0.3295 -0.017437,0.00219685 -0.0269882,0.00353543 -0.0355472,0.00474016 -0.0160512,0.00225984 -0.0295433,0.00415354 -0.0384961,0.00497638 -0.0827756,0.00761024 -0.0897756,-0.0116496 -0.0980118,-0.129079 -0.00638583,-0.0911063 -0.0125512,-0.248941 -0.0119843,-0.439547l-0.0240512 0.00759449c-0.00795669,0.00251181 -0.0159961,0.0039252 -0.0239567,0.00432677l-0.0412402 0.301059c-0.00340551,0.0248189 -0.0253268,0.0425079 -0.0499213,0.0410472l-0.193882 0.248256c-0.00719291,0.00922835 -0.0205433,0.010878 -0.0297323,0.00366535 -0.00921654,-0.00716929 -0.0107953,-0.0204606 -0.0036063,-0.0297008l0.0433425 -0.0555 -0.0641535 0.0184173c-0.0112559,0.00320866 -0.0229921,-0.00324409 -0.026189,-0.0145315 -0.00323622,-0.0111929 0.00329921,-0.022878 0.0145512,-0.0261457l0.120122 -0.0345118 0.102551 -0.131323c-0.00609843,-0.00927953 -0.00898819,-0.0207244 -0.00735827,-0.0325866l0.0464213 -0.33915c-0.00252756,-0.00485827 -0.00466929,-0.0100079 -0.00637402,-0.0154134 -0.0158583,-0.050126 0.0119724,-0.103618 0.0621102,-0.119425l0.0844291 -0.0266614c0.00517717,-0.186567 0.0174724,-0.390272 0.0415433,-0.58685l-0.208827 -0.0218583c-0.00829134,-0.000866142 -0.0162205,-0.00277165 -0.0236732,-0.0055748l-0.157894 0.259657c-0.0130079,0.0213858 -0.0401417,0.0288858 -0.0621339,0.0177559l-0.276835 0.150346c-0.0102874,0.00557087 -0.023122,0.00179528 -0.0286929,-0.00850787 -0.00561417,-0.0102598 -0.00175984,-0.0230709 0.00852756,-0.028685l0.0618701 -0.0336024 -0.0661654 -0.0086811c-0.0115945,-0.00155118 -0.0198228,-0.0121457 -0.0182362,-0.0237717 0.00150787,-0.0115827 0.0121457,-0.019685 0.0237677,-0.0182047l0.123941 0.0162756 0.146417 -0.0795197c-0.00189764,-0.0109528 7.87402e-006,-0.0226142 0.00623622,-0.0328543l0.177827 -0.2925c-0.00038189,-0.0054685 -0.000291339,-0.0110472 0.00030315,-0.016689 0.00543307,-0.0522835 0.0522913,-0.0902323 0.104567,-0.0847598l0.21635 0.0226457c0.0165394,-0.0972638 0.0365866,-0.190571 0.0607677,-0.276634 0.0272795,-0.0970945 0.0599331,-0.185382 0.0988976,-0.26039l-0.248823 -0.11435c-0.00758268,-0.00348425 -0.0144882,-0.00783858 -0.0206575,-0.0128898l-0.232815 0.195315c-0.0191614,0.0160709 -0.0472874,0.0144646 -0.0645394,-0.00313386l-0.310425 0.0536181c-0.0115236,0.00199606 -0.0225,-0.00570472 -0.0245,-0.0172677 -0.00195669,-0.0114961 0.00578346,-0.0224016 0.0173071,-0.0244291l0.0693543 -0.0119803 -0.0598937 -0.0294449c-0.0104567,-0.00518504 -0.0148228,-0.0178386 -0.00962992,-0.028374 0.00516535,-0.0104685 0.0178268,-0.0147402 0.0283543,-0.00959843l0.112201 0.0551496 0.164177 -0.0283583c0.0017126,-0.0109803 0.00725591,-0.0214134 0.0164528,-0.0291063l0.262209 -0.219992c0.0013937,-0.00531496 0.00326772,-0.0105827 0.00564567,-0.0157441 0.0219134,-0.0477598 0.0784803,-0.0687008 0.126236,-0.0467402l0.281177 0.129209c0.056374,-0.0559094 0.121465,-0.0903465 0.196516,-0.0972402 0.0486772,-0.00447244 0.101197,0.00286614 0.157819,0.0237165 0.0125315,0.00461417 0.0247717,0.0095315 0.0367283,0.014748 0.0147205,-0.00893307 0.029689,-0.0173976 0.0448898,-0.0253858 -0.113386,-0.0658543 -0.185476,-0.163047 -0.186602,-0.271594 -0.0404606,-0.0495709 -0.0647283,-0.112878 -0.0647283,-0.181846 0,-0.158965 0.128886,-0.287827 0.28785,-0.287827 0.0585709,0 0.113055,0.0174961 0.158508,0.0475472 0.0119567,-0.00349606 0.0240906,-0.00661811 0.0363819,-0.00934252 0.0204843,-0.0395433 0.0320591,-0.0844409 0.0320591,-0.132063 0,-0.0595394 -0.0182244,-0.114728 -0.049248,-0.160594l-0.0321811 0c-0.0206732,0 -0.0375,-0.0168071 -0.0375,-0.0375394 0,-0.0207441 0.0168268,-0.0375315 0.0375,-0.0375315l0.346272 0c0.0207126,0 0.0375039,0.0167874 0.0375039,0.0375315 0,0.0207323 -0.0167913,0.0375394 -0.0375039,0.0375394l-0.0404331 0c-0.0310276,0.0458661 -0.0492441,0.101055 -0.0492441,0.160594 0,0.0476181 0.0115748,0.0925197 0.0320591,0.132059 0.0112756,0.00250394 0.0224134,0.00533465 0.0334094,0.00848425 0.0451929,-0.0295236 0.0991929,-0.046685 0.157201,-0.046685 0.158992,0 0.287807,0.128862 0.287807,0.287827 0,0.0664843 -0.0225394,0.127709 -0.0603976,0.176437 1.1811e-005,0.000944882 1.5748e-005,0.00188976 1.5748e-005,0.00283071 0,0.10487 -0.0662402,0.199323 -0.172094,0.265429 0.0211063,0.0104685 0.0417874,0.0218583 0.0620039,0.034126 0.0119528,-0.0052126 0.024189,-0.0101299 0.0367165,-0.0147441 0.056626,-0.0208504 0.109142,-0.028189 0.157823,-0.0237165 0.0730039,0.00670866 0.136583,0.0394724 0.191882,0.0927126l0.271323 -0.124681c0.047748,-0.0219606 0.104283,-0.00101969 0.126236,0.0467402 0.00237795,0.00517323 0.00425197,0.0104488 0.00564567,0.0157717z"/>
   </g>
  </g>
  <path class="fil2" d="M3.41333 -3.93701e-006c1.88513,0 3.41333,1.5282 3.41333,3.41333 0,1.88513 -1.5282,3.41333 -3.41333,3.41333 -1.88513,0 -3.41333,-1.5282 -3.41333,-3.41333 0,-1.88513 1.5282,-3.41333 3.41333,-3.41333z"/>
  <path class="fil3" d="M4.61634 2.76757c0.0219528,0.047748 0.00102756,0.104283 -0.0467598,0.126236l-0.518921 0.23848c-0.0477559,0.0219409 -0.104283,0.001 -0.126236,-0.0467598 -0.0219528,-0.0477677 -0.001,-0.104276 0.0467598,-0.126236l0.518921 -0.238461c0.047748,-0.0219606 0.104283,-0.00101969 0.126236,0.0467402z"/>
  <path class="fil3" d="M4.89007 3.07032c0.0168898,-0.0201102 0.0142402,-0.0501535 -0.00588189,-0.0670197l-0.287677 -0.241331c-0.020126,-0.0169094 -0.0501654,-0.0142598 -0.0670236,0.0058622 -0.0168898,0.0201457 -0.0142717,0.0501575 0.00588189,0.067063l0.287638 0.241331c0.0201654,0.016878 0.0501654,0.0142598 0.067063,-0.00590551z"/>
  <path class="fil3" d="M5.22248 3.10944c0.00199606,-0.0114961 -0.00575197,-0.0224016 -0.0172677,-0.0244291l-0.338673 -0.0584961c-0.0114843,-0.00200394 -0.0224606,0.00573228 -0.0244291,0.0172205 -0.00198819,0.0115433 0.0057126,0.0224685 0.0172087,0.0244685l0.338701 0.0585039c0.0115157,0.00199606 0.0225039,-0.00570472 0.0244606,-0.0172677z"/>
  <path class="fil3" d="M5.0941 3.09354l0.101606 -0.0499528c0.0104882,-0.00518504 0.0148622,-0.0178386 0.00962992,-0.028374 -0.00512598,-0.0104685 -0.0178189,-0.0147402 -0.0283543,-0.00959843l-0.131598 0.0647047 0.0487165 0.0232205z"/>
  <path class="fil3" d="M4.80134 3.60729c0.00547244,0.0522913 -0.0324764,0.0990827 -0.0847795,0.104555l-0.567976 0.0594528c-0.0522638,0.00547244 -0.0990906,-0.0324764 -0.104567,-0.0847598 -0.00543307,-0.0522835 0.0325079,-0.0990945 0.0847835,-0.104555l0.567976 -0.0594528c0.0522598,-0.00547244 0.0991299,0.0324764 0.104563,0.0847598z"/>
  <path class="fil3" d="M4.96353 3.98187c0.0224291,-0.0136496 0.0295906,-0.0429331 0.0158976,-0.0654055l-0.195047 -0.320823c-0.0136614,-0.0224646 -0.0429449,-0.0296024 -0.0654173,-0.0159409 -0.0224291,0.0136732 -0.0295512,0.0429331 -0.0158898,0.0654055l0.195051 0.320827c0.013689,0.0224606 0.0429331,0.0296024 0.0654055,0.015937z"/>
  <path class="fil3" d="M5.26583 4.12552c0.00557087,-0.0102598 0.00174803,-0.0230709 -0.00853937,-0.028685l-0.30202 -0.164028c-0.0102165,-0.00559449 -0.023122,-0.00177953 -0.028626,0.00848031 -0.00560236,0.0102835 -0.00182677,0.0231181 0.00842913,0.0286929l0.302024 0.164047c0.0102835,0.00557087 0.0231575,0.00179528 0.0287323,-0.00850787z"/>
  <path class="fil3" d="M5.14933 4.06928l0.112264 -0.0147283c0.0115945,-0.00155118 0.0197835,-0.0121457 0.0182087,-0.0237717 -0.00148819,-0.0115827 -0.0121575,-0.019685 -0.023752,-0.0182047l-0.145433 0.0190945 0.0387126 0.0376102z"/>
  <path class="fil3" d="M4.69585 4.46664c-0.0158307,0.0501339 -0.0692913,0.0779173 -0.119425,0.0620906l-0.544618 -0.171949c-0.0500945,-0.0158307 -0.0778976,-0.0692913 -0.0620984,-0.119425 0.0158898,-0.050126 0.0693583,-0.0779094 0.119453,-0.0621024l0.544587 0.171961c0.050126,0.0158071 0.0779724,0.0692992 0.0621024,0.119425z"/>
  <path class="fil3" d="M4.69522 4.8748c0.0260197,-0.00355512 0.0442559,-0.0275748 0.0406378,-0.0535984l-0.0508819 -0.372012c-0.00361417,-0.0260354 -0.0275945,-0.0442717 -0.0536417,-0.0406969 -0.0260472,0.00359449 -0.0442126,0.0275945 -0.0407087,0.053622l0.0509961 0.372c0.00354331,0.0260551 0.0275236,0.044252 0.0535984,0.040685z"/>
  <path class="fil3" d="M4.91515 5.12709c0.00918504,-0.00716929 0.0108031,-0.0204606 0.00361417,-0.0297008l-0.211567 -0.27087c-0.00714961,-0.00918898 -0.0204724,-0.010815 -0.0296614,-0.00361417 -0.00921654,0.0071811 -0.0108661,0.0204528 -0.00367717,0.0296614l0.211567 0.270858c0.00719291,0.00922835 0.0205039,0.010878 0.0297244,0.00366535z"/>
  <path class="fil3" d="M4.83076 5.02906l0.108791 0.0312402c0.0112559,0.00320866 0.0230197,-0.00324409 0.026185,-0.0145315 0.00326772,-0.0111929 -0.00327559,-0.022878 -0.0145197,-0.0261457l-0.140969 -0.0404882 0.0205118 0.0499252z"/>
  <path class="fil3" d="M2.21035 2.76757c-0.0219803,0.047748 -0.00102756,0.104283 0.0467598,0.126236l0.518921 0.23848c0.0477559,0.0219409 0.104244,0.001 0.126236,-0.0467598 0.0219134,-0.0477677 0.001,-0.104276 -0.0467598,-0.126236l-0.518921 -0.238461c-0.0477559,-0.0219606 -0.104323,-0.00101969 -0.126236,0.0467402z"/>
  <path class="fil3" d="M1.93659 3.07032c-0.0168701,-0.0201102 -0.014252,-0.0501535 0.00590945,-0.0670197l0.287642 -0.241331c0.0201614,-0.0169094 0.0501654,-0.0142598 0.0670512,0.0058622 0.0168976,0.0201457 0.014252,0.0501575 -0.00588189,0.067063l-0.287669 0.241331c-0.020122,0.016878 -0.0501339,0.0142598 -0.0670512,-0.00590551z"/>
  <path class="fil3" d="M1.60418 3.10944c-0.00195669,-0.0114961 0.00578346,-0.0224016 0.0173071,-0.0244291l0.338665 -0.0584961c0.0114961,-0.00199606 0.0224685,0.00573228 0.0244291,0.0172205 0.00199606,0.0115433 -0.0057126,0.0224685 -0.0172008,0.0244685l-0.338701 0.0585039c-0.0115236,0.00199606 -0.0225,-0.00570472 -0.0245,-0.0172677z"/>
  <path class="fil3" d="M1.73255 3.09354l-0.101606 -0.0499528c-0.0104567,-0.00518504 -0.0148228,-0.0178386 -0.00962992,-0.028374 0.00516535,-0.0104685 0.0178268,-0.0147402 0.0283543,-0.00959843l0.131642 0.0647047 -0.0487598 0.0232205z"/>
  <path class="fil3" d="M2.02535 3.60729c-0.00551181,0.0522913 0.0324488,0.0990827 0.0847402,0.104555l0.567988 0.0594528c0.0522913,0.00547244 0.0990827,-0.0324764 0.104594,-0.0847598 0.00543307,-0.0522835 -0.0325197,-0.0990945 -0.0847795,-0.104555l-0.567976 -0.0594528c-0.0522756,-0.00547244 -0.0991339,0.0324764 -0.104567,0.0847598z"/>
  <path class="fil3" d="M1.86312 3.98187c-0.0224291,-0.0136496 -0.0295512,-0.0429331 -0.0158976,-0.0653858l0.195059 -0.320843c0.0136496,-0.0224646 0.0429331,-0.0296024 0.0654055,-0.0159409 0.0224291,0.0136732 0.0295512,0.0429331 0.0159291,0.0654055l-0.195091 0.320827c-0.0136614,0.0224606 -0.0429016,0.0296024 -0.0654055,0.015937z"/>
  <path class="fil3" d="M1.56087 4.12552c-0.00561417,-0.0102598 -0.00175984,-0.0230709 0.00852756,-0.028685l0.30202 -0.164028c0.0102283,-0.00559449 0.0230906,-0.00177953 0.0286339,0.00848031 0.00560236,0.0102835 0.00181496,0.0231181 -0.00842913,0.0286929l-0.302059 0.164047c-0.0102874,0.00557087 -0.023122,0.00179528 -0.0286929,-0.00850787z"/>
  <path class="fil3" d="M1.67736 4.06928l-0.112264 -0.0147283c-0.0115945,-0.00155118 -0.0198228,-0.0121457 -0.0182362,-0.0237717 0.00150787,-0.0115827 0.0121457,-0.019685 0.0237677,-0.0182047l0.145406 0.0190945 -0.0386732 0.0376102z"/>
  <path class="fil3" d="M2.13084 4.46664c0.0157992,0.0501339 0.0692992,0.0779173 0.119425,0.0620906l0.544587 -0.171949c0.0501339,-0.0158307 0.0779016,-0.0692913 0.0621102,-0.119425 -0.0158583,-0.050126 -0.0693307,-0.0779094 -0.119425,-0.0621024l-0.544587 0.171961c-0.0501378,0.0158071 -0.0779685,0.0692992 -0.0621102,0.119425z"/>
  <path class="fil3" d="M2.13146 4.8748c-0.0260472,-0.00355512 -0.0442441,-0.0275748 -0.0406654,-0.0535984l0.0509213 -0.372012c0.00361811,-0.0260354 0.0275945,-0.0442717 0.0536417,-0.0406969 0.0260157,0.00359449 0.0442126,0.0275945 0.0406693,0.053622l-0.0509567 0.372c-0.0035748,0.0260551 -0.0275551,0.044252 -0.0536102,0.040685z"/>
  <path class="fil3" d="M1.91153 5.12709c-0.00921654,-0.00716929 -0.0107953,-0.0204606 -0.0036063,-0.0297008l0.211528 -0.27087c0.00716142,-0.00918898 0.0205039,-0.010815 0.0296614,-0.00361417 0.00925984,0.0071811 0.010878,0.0204528 0.00368504,0.0296614l-0.211535 0.270858c-0.00719291,0.00922835 -0.0205433,0.010878 -0.0297323,0.00366535z"/>
  <path class="fil3" d="M1.99593 5.02906l-0.108819 0.0312402c-0.0112559,0.00320866 -0.0229921,-0.00324409 -0.026189,-0.0145315 -0.00323622,-0.0111929 0.00329921,-0.022878 0.0145512,-0.0261457l0.140929 -0.0404882 -0.0204724 0.0499252z"/>
  <path class="fil4" d="M2.53626 3.69222c0,-0.562114 0.395949,-1.0178 0.884346,-1.0178 0.488398,0 0.884319,0.455681 0.884319,1.0178 0,0.562114 -0.395921,1.24302 -0.884319,1.24302 -0.488398,0 -0.884346,-0.680909 -0.884346,-1.24302z"/>
  <path class="fil5" d="M3.49235 1.93075c0,-0.0727165 0.0271732,-0.138941 0.0716654,-0.189618l-0.318496 0c0.0444803,0.0506772 0.0716654,0.116902 0.0716654,0.189618 0,0.100051 -0.0510945,0.188094 -0.128575,0.239669l0.432315 0c-0.0774803,-0.0515748 -0.128575,-0.139618 -0.128575,-0.239669z"/>
  <path class="fil4" d="M3.94245 2.4917c0,0.199913 -0.240709,0.361965 -0.537677,0.361965 -0.296957,0 -0.537665,-0.162051 -0.537665,-0.361965 0,-0.199909 0.240709,-0.442067 0.537665,-0.442067 0.296969,0 0.537677,0.242157 0.537677,0.442067z"/>
  <path class="fil6" d="M4.00283 2.31243c0,0.158945 -0.128815,0.287807 -0.287807,0.287807 -0.158957,0 -0.287811,-0.128862 -0.287811,-0.287807 0,-0.158965 0.128854,-0.287827 0.287811,-0.287827 0.158992,0 0.287807,0.128862 0.287807,0.287827z"/>
  <path class="fil6" d="M3.37805 2.31243c0,0.158945 -0.128854,0.287807 -0.287807,0.287807 -0.158965,0 -0.28785,-0.128862 -0.28785,-0.287807 0,-0.158965 0.128886,-0.287827 0.28785,-0.287827 0.158953,0 0.287807,0.128862 0.287807,0.287827z"/>
  <path class="fil7" d="M3.92787 2.31243c0,0.117543 -0.0952598,0.212843 -0.212843,0.212843 -0.117555,0 -0.212846,-0.0952992 -0.212846,-0.212843 0,-0.117563 0.0952913,-0.212862 0.212846,-0.212862 0.117583,0 0.212843,0.0952992 0.212843,0.212862z"/>
  <path class="fil7" d="M3.30307 2.31243c0,0.117543 -0.0952638,0.212843 -0.212846,0.212843 -0.117551,0 -0.212846,-0.0952992 -0.212846,-0.212843 0,-0.117563 0.0952953,-0.212862 0.212846,-0.212862 0.117583,0 0.212846,0.0952992 0.212846,0.212862z"/>
  <path class="fil8" d="M3.61954 1.73261c0,0.0207323 -0.0167913,0.0375394 -0.0375039,0.0375394l-0.346272 0c-0.0206732,0 -0.0375,-0.0168071 -0.0375,-0.0375394 0,-0.0207441 0.0168268,-0.0375315 0.0375,-0.0375315l0.346272 0c0.0207126,0 0.0375039,0.0167874 0.0375039,0.0375315z"/>
  <path class="fil9" d="M3.85291 2.31243c0,0.0761457 -0.0617126,0.137882 -0.137886,0.137882 -0.0761496,0 -0.137882,-0.0617362 -0.137882,-0.137882 0,-0.0761575 0.0617323,-0.137894 0.137882,-0.137894 0.0761732,0 0.137886,0.0617362 0.137886,0.137894z"/>
  <path class="fil9" d="M3.22811 2.31243c0,0.0761457 -0.0617126,0.137882 -0.137882,0.137882 -0.0761535,0 -0.137882,-0.0617362 -0.137882,-0.137882 0,-0.0761575 0.0617283,-0.137894 0.137882,-0.137894 0.0761693,0 0.137882,0.0617362 0.137882,0.137894z"/>
  <path class="fil10" d="M3.18681 4.45336c-0.176539,0.332189 -0.437823,0.590118 -0.728461,0.626689 -0.017437,0.00219685 -0.0269882,0.00353543 -0.0355472,0.00474016 -0.0160512,0.00225984 -0.0295433,0.00415354 -0.0384961,0.00497638 -0.0827756,0.00761024 -0.0897756,-0.0116496 -0.0980118,-0.129079 -0.0190157,-0.271256 -0.0360748,-1.13399 0.12074,-1.69214 0.0395709,-0.14085 0.0904606,-0.263169 0.155504,-0.353299 0.0679173,-0.0941102 0.150823,-0.153177 0.25174,-0.162449 0.0486772,-0.00447244 0.101197,0.00286614 0.157819,0.0237165 0.200646,0.073878 0.326925,0.225909 0.39285,0.418925 0.0618425,0.181063 0.0696969,0.397772 0.0355433,0.618673 -0.0338268,0.218764 -0.108992,0.44226 -0.213681,0.639248z"/>
  <path class="fil11" d="M3.09079 4.30283c-0.126587,0.238197 -0.313945,0.423146 -0.522343,0.44937 -0.0125039,0.0015748 -0.0193543,0.00253543 -0.0254921,0.00339764 -0.0115079,0.00161811 -0.021185,0.00298031 -0.0276024,0.00357087 -0.0593543,0.00545669 -0.064374,-0.00835433 -0.0702795,-0.0925591 -0.0136378,-0.194504 -0.0258701,-0.81313 0.0865748,-1.21335 0.028378,-0.101 0.0648661,-0.188709 0.111508,-0.253335 0.0486969,-0.0674843 0.108146,-0.109835 0.180508,-0.116484 0.0349055,-0.00320866 0.072563,0.00205512 0.113165,0.0170039 0.143874,0.0529764 0.234421,0.161992 0.281693,0.30039 0.0443465,0.129835 0.0499803,0.285228 0.0254882,0.443622 -0.0242559,0.156866 -0.0781535,0.317126 -0.15322,0.458374z"/>
  <path class="fil10" d="M3.65437 4.45336c0.176539,0.332189 0.437823,0.590118 0.728457,0.626689 0.017437,0.00219685 0.0269921,0.00353543 0.0355512,0.00474016 0.0160512,0.00225984 0.0295433,0.00415354 0.0384921,0.00497638 0.0827756,0.00761024 0.0897795,-0.0116496 0.0980157,-0.129079 0.0190157,-0.271256 0.0360748,-1.13399 -0.12074,-1.69214 -0.0395709,-0.14085 -0.0904606,-0.263169 -0.155504,-0.353299 -0.0679173,-0.0941102 -0.150823,-0.153177 -0.25174,-0.162449 -0.0486811,-0.00447244 -0.101197,0.00286614 -0.157823,0.0237165 -0.200646,0.073878 -0.326925,0.225909 -0.392846,0.418925 -0.0618425,0.181063 -0.0697008,0.397772 -0.0355433,0.618673 0.0338268,0.218764 0.108992,0.44226 0.213681,0.639248z"/>
  <path class="fil11" d="M3.75039 4.30283c0.126587,0.238197 0.313941,0.423146 0.522343,0.44937 0.0125039,0.0015748 0.0193543,0.00253543 0.0254921,0.00339764 0.0115079,0.00161811 0.021185,0.00298031 0.0276024,0.00357087 0.0593543,0.00545669 0.064374,-0.00835433 0.0702795,-0.0925591 0.0136339,-0.194504 0.0258661,-0.81313 -0.0865748,-1.21335 -0.028378,-0.101 -0.0648661,-0.188709 -0.111508,-0.253335 -0.0487008,-0.0674843 -0.108146,-0.109835 -0.180508,-0.116484 -0.0349055,-0.00320866 -0.072563,0.00205512 -0.113165,0.0170039 -0.143874,0.0529764 -0.234425,0.161992 -0.281693,0.30039 -0.0443465,0.129835 -0.0499803,0.285228 -0.0254882,0.443622 0.0242559,0.156866 0.0781535,0.317126 0.15322,0.458374z"/>
 </g>
</svg>
