<?xml version="1.0" encoding="UTF-8"?>
<!DOCTYPE svg PUBLIC "-//W3C//DTD SVG 1.1//EN" "http://www.w3.org/Graphics/SVG/1.1/DTD/svg11.dtd">
<!-- Creator: CorelDRAW -->
<svg xmlns="http://www.w3.org/2000/svg" xml:space="preserve" width="6.82666in" height="6.82666in" style="shape-rendering:geometricPrecision; text-rendering:geometricPrecision; image-rendering:optimizeQuality; fill-rule:evenodd; clip-rule:evenodd"
viewBox="0 0 6.82666 6.82666"
 xmlns:xlink="http://www.w3.org/1999/xlink">
 <defs>
  <style type="text/css">
   <![CDATA[
    .fil2 {fill:none}
    .fil1 {fill:#388E3C}
    .fil12 {fill:#424242}
    .fil13 {fill:#5E330B}
    .fil0 {fill:#66BB6A}
    .fil8 {fill:#804712}
    .fil11 {fill:#81D4FA}
    .fil15 {fill:#DEA85D}
    .fil14 {fill:#E57373}
    .fil9 {fill:#FAFAFA}
    .fil10 {fill:#003333;fill-rule:nonzero}
    .fil5 {fill:#424242;fill-rule:nonzero}
    .fil7 {fill:#5E330B;fill-rule:nonzero}
    .fil4 {fill:#804712;fill-rule:nonzero}
    .fil3 {fill:#E8B46A;fill-rule:nonzero}
    .fil6 {fill:#FFC675;fill-rule:nonzero}
   ]]>
  </style>
   <clipPath id="id0">
    <path d="M3.41333 -3.93701e-006c1.88513,0 3.41333,1.5282 3.41333,3.41333 0,1.88513 -1.5282,3.41333 -3.41333,3.41333 -1.88513,0 -3.41333,-1.5282 -3.41333,-3.41333 0,-1.88513 1.5282,-3.41333 3.41333,-3.41333z"/>
   </clipPath>
 </defs>
 <g id="Layer_x0020_1">
  <metadata id="CorelCorpID_0Corel-Layer"/>
  <path class="fil0" d="M3.41333 -3.93701e-006c1.88513,0 3.41333,1.5282 3.41333,3.41333 0,1.88513 -1.5282,3.41333 -3.41333,3.41333 -1.88513,0 -3.41333,-1.5282 -3.41333,-3.41333 0,-1.88513 1.5282,-3.41333 3.41333,-3.41333z"/>
  <g style="clip-path:url(#id0)">
   <g id="_637655272">
    <g>
     <polygon id="_2164719521" class="fil1" points="2.43452,2.25507 6.22079,6.04134 6.21896,6.04618 6.21676,6.05082 6.2142,6.05527 6.21129,6.05952 6.20806,6.06358 6.20453,6.06745 6.20072,6.07113 6.19663,6.07462 6.1923,6.07793 6.18773,6.08105 6.18295,6.08399 6.17798,6.08674 6.17283,6.08932 6.16752,6.09172 6.16207,6.09394 6.1565,6.09599 2.37024,2.30972 2.3758,2.30767 2.38125,2.30545 2.38656,2.30305 2.39171,2.30047 2.39669,2.29772 2.40146,2.29478 2.40603,2.29166 2.41036,2.28835 2.41445,2.28486 2.41826,2.28118 2.4218,2.27731 2.42502,2.27325 2.42793,2.269 2.43049,2.26455 2.4327,2.25991 "/>
     <polygon id="_216471880" class="fil1" points="3.51198,4.36711 7.29825,8.15338 7.29876,8.15663 7.2992,8.16022 7.29957,8.16413 7.29988,8.16835 7.30012,8.17288 7.3003,8.1777 7.30043,8.18282 7.30049,8.18821 7.3005,8.19387 7.30046,8.1998 7.30037,8.20597 7.30023,8.21239 7.30004,8.21904 7.29981,8.22592 7.29954,8.23302 7.29922,8.24032 7.29887,8.24783 7.29848,8.25552 7.29806,8.2634 7.29761,8.27145 7.29713,8.27967 7.29662,8.28804 7.29608,8.29655 7.29552,8.3052 7.29494,8.31399 7.29435,8.32289 7.29373,8.3319 7.2931,8.34102 7.29246,8.35023 7.29181,8.35952 7.29115,8.36889 7.29048,8.37833 3.50421,4.59206 3.50488,4.58262 3.50554,4.57325 3.50619,4.56396 3.50683,4.55475 3.50746,4.54563 3.50808,4.53662 3.50868,4.52772 3.50926,4.51893 3.50981,4.51028 3.51035,4.50176 3.51086,4.49339 3.51134,4.48518 3.5118,4.47713 3.51222,4.46925 3.51261,4.46156 3.51296,4.45405 3.51327,4.44675 3.51354,4.43965 3.51378,4.43277 3.51396,4.42612 3.5141,4.4197 3.5142,4.41352 3.51424,4.4076 3.51422,4.40194 3.51416,4.39655 3.51404,4.39143 3.51385,4.38661 3.51361,4.38208 3.51331,4.37786 3.51293,4.37395 3.51249,4.37036 "/>
     <polygon id="_216475024" class="fil1" points="3.50761,4.16985 7.29387,7.95612 7.2937,7.96308 7.29354,7.97005 7.29338,7.97703 7.29322,7.984 7.29307,7.99098 7.29293,7.99793 7.29279,8.00487 7.29267,8.01178 7.29257,8.01866 7.29248,8.0255 7.29241,8.0323 7.29236,8.03904 7.29233,8.04573 7.29232,8.05235 7.29234,8.05891 7.29239,8.06538 7.29247,8.07177 7.29257,8.07807 7.29272,8.08428 7.29289,8.09039 7.2931,8.09639 7.29335,8.10226 7.29364,8.10803 7.29398,8.11366 7.29435,8.11916 7.29478,8.12452 7.29524,8.12973 7.29576,8.13479 7.29633,8.13969 7.29696,8.14442 7.29764,8.14898 7.29837,8.15336 3.51211,4.36709 3.51137,4.36271 3.51069,4.35815 3.51007,4.35341 3.5095,4.34852 3.50898,4.34346 3.50851,4.33824 3.50808,4.33289 3.50771,4.32739 3.50737,4.32176 3.50709,4.31599 3.50683,4.31011 3.50662,4.30412 3.50645,4.29801 3.50631,4.2918 3.5062,4.2855 3.50613,4.27911 3.50607,4.27263 3.50606,4.26608 3.50606,4.25946 3.50609,4.25277 3.50614,4.24603 3.50621,4.23923 3.5063,4.23239 3.50641,4.22551 3.50652,4.2186 3.50666,4.21166 3.5068,4.2047 3.50695,4.19773 3.50711,4.19076 3.50727,4.18378 3.50744,4.17681 "/>
     <path id="_216474856" class="fil1" d="M6.82616 8.86287l0 0zm-3.78627 -3.78627l0 0z"/>
     <path id="_216475312" class="fil1" d="M6.86316 8.75712l0 0zm-3.78627 -3.78627l0 0z"/>
     <polygon id="_216475216" class="fil1" points="2.70251,1.60781 6.48878,5.39408 6.48902,5.39928 6.48922,5.40444 6.48936,5.40957 6.48946,5.41467 6.48952,5.41973 6.48953,5.42475 6.4895,5.42974 6.48943,5.43468 6.48931,5.43958 6.48917,5.44444 6.48899,5.44927 6.48878,5.45404 6.48854,5.45878 6.48827,5.46346 6.48798,5.46811 6.48766,5.4727 6.48731,5.47725 6.48695,5.48174 6.48657,5.48619 6.48617,5.49058 6.48576,5.49492 6.48533,5.49921 6.4849,5.50344 6.48445,5.50762 6.484,5.51174 6.48354,5.5158 6.48307,5.51981 6.48261,5.52375 6.48215,5.52763 6.48169,5.53145 6.48123,5.53521 6.48078,5.53891 2.69451,1.75263 2.69496,1.74894 2.69542,1.74518 2.69588,1.74136 2.69634,1.73748 2.69681,1.73354 2.69727,1.72953 2.69773,1.72547 2.69818,1.72135 2.69863,1.71717 2.69907,1.71294 2.69949,1.70865 2.69991,1.70431 2.7003,1.69992 2.70069,1.69547 2.70105,1.69098 2.70139,1.68643 2.70171,1.68183 2.702,1.67719 2.70228,1.67251 2.70252,1.66777 2.70272,1.663 2.7029,1.65817 2.70305,1.65331 2.70316,1.64841 2.70323,1.64346 2.70326,1.63848 2.70325,1.63346 2.7032,1.6284 2.70309,1.6233 2.70295,1.61817 2.70276,1.61301 "/>
     <polygon id="_216475120" class="fil1" points="4.50892,3.42699 8.29519,7.21326 8.29966,7.21887 8.30396,7.22437 8.3081,7.22976 8.31205,7.23504 8.31582,7.24019 8.31941,7.24522 8.32279,7.25011 8.32598,7.25487 8.32896,7.25948 8.33172,7.26393 8.33426,7.26823 8.33658,7.27236 8.33867,7.27632 8.34052,7.28011 8.34213,7.28371 8.34349,7.28713 4.55722,3.50085 4.55587,3.49744 4.55426,3.49383 4.55241,3.49005 4.55031,3.48609 4.548,3.48196 4.54545,3.47766 4.54269,3.4732 4.53971,3.46859 4.53652,3.46384 4.53314,3.45895 4.52956,3.45392 4.52578,3.44876 4.52183,3.44349 4.5177,3.43809 4.51339,3.43259 "/>
     <polygon id="_216475432" class="fil1" points="4.55722,3.50085 8.34349,7.28713 8.3448,7.29072 8.34607,7.29434 8.34728,7.29798 8.34846,7.30163 8.34959,7.30531 8.35067,7.309 8.35171,7.31271 8.3527,7.31644 4.56644,3.53017 4.56544,3.52644 4.5644,3.52273 4.56332,3.51904 4.56219,3.51536 4.56102,3.5117 4.5598,3.50807 4.55854,3.50445 "/>
     <polygon id="_216475144" class="fil1" points="2.69451,1.75263 6.48078,5.53891 6.48032,5.54262 6.47988,5.54624 6.47945,5.54977 6.47904,5.5532 6.47864,5.55654 6.47827,5.55976 6.47791,5.56287 6.47758,5.56585 6.47727,5.56871 6.47699,5.57144 6.47674,5.57403 6.47652,5.57648 6.47632,5.57877 6.47617,5.58092 6.47604,5.5829 6.47596,5.58472 2.68969,1.79844 2.68978,1.79663 2.6899,1.79465 2.69006,1.7925 2.69025,1.7902 2.69047,1.78776 2.69072,1.78517 2.691,1.78244 2.69131,1.77958 2.69165,1.77659 2.692,1.77349 2.69237,1.77026 2.69277,1.76693 2.69319,1.7635 2.69361,1.75997 2.69406,1.75635 "/>
     <polygon id="_216475864" class="fil1" points="2.84533,1.89161 6.6316,5.67789 6.63756,5.68474 6.6435,5.6917 6.64944,5.6988 6.65538,5.706 6.66131,5.71332 6.66724,5.72075 6.67316,5.7283 6.67908,5.73594 6.685,5.7437 6.69092,5.75156 6.69683,5.75952 6.70274,5.76759 6.70866,5.77574 6.71457,5.784 6.72049,5.79235 6.72641,5.80079 2.94014,2.01452 2.93422,2.00607 2.92831,1.99773 2.92239,1.98947 2.91648,1.98131 2.91056,1.97325 2.90465,1.96529 2.89873,1.95743 2.89281,1.94967 2.88689,1.94202 2.88097,1.93448 2.87504,1.92705 2.86911,1.91973 2.86317,1.91252 2.85723,1.90543 2.85129,1.89846 "/>
     <polygon id="_216475912" class="fil1" points="3.10926,2.28044 6.89553,6.06671 6.89862,6.07178 6.90172,6.07687 6.90482,6.08195 6.90793,6.08705 6.91104,6.09215 6.91415,6.09726 6.91728,6.10238 6.9204,6.1075 6.92354,6.11263 6.92667,6.11776 6.92981,6.12289 6.93296,6.12804 6.93612,6.13318 6.93928,6.13833 6.94244,6.14348 6.94562,6.14864 6.9488,6.1538 6.95198,6.15897 6.95517,6.16413 6.95836,6.1693 6.96156,6.17448 6.96477,6.17965 6.96798,6.18482 6.9712,6.19 6.97443,6.19517 6.97766,6.20035 6.9809,6.20553 6.98415,6.21071 6.9874,6.21589 6.99066,6.22106 6.99393,6.22624 6.9972,6.23142 3.21093,2.44515 3.20766,2.43997 3.20439,2.43479 3.20113,2.42961 3.19788,2.42444 3.19463,2.41926 3.19139,2.41408 3.18816,2.4089 3.18494,2.40372 3.18172,2.39855 3.1785,2.39338 3.1753,2.3882 3.17209,2.38303 3.1689,2.37786 3.16571,2.3727 3.16253,2.36753 3.15935,2.36237 3.15618,2.35721 3.15301,2.35206 3.14985,2.34691 3.1467,2.34176 3.14355,2.33662 3.14041,2.33148 3.13727,2.32635 3.13413,2.32123 3.13101,2.31611 3.12789,2.31099 3.12477,2.30588 3.12166,2.30078 3.11855,2.29568 3.11545,2.29059 3.11235,2.28551 "/>
     <polygon id="_216475744" class="fil1" points="3.21093,2.44515 6.9972,6.23142 7.00068,6.23692 7.00418,6.24242 7.00768,6.24791 7.01119,6.25341 7.01471,6.2589 7.01824,6.26439 7.02177,6.26987 7.02531,6.27535 7.02887,6.28083 7.03243,6.2863 7.036,6.29176 7.03957,6.29723 7.04317,6.30268 7.04676,6.30813 7.05037,6.31358 7.05398,6.31902 3.26771,2.53274 3.2641,2.52731 3.26049,2.52186 3.2569,2.51641 3.25331,2.51096 3.24973,2.50549 3.24616,2.50003 3.2426,2.49456 3.23905,2.48908 3.2355,2.4836 3.23197,2.47811 3.22844,2.47263 3.22492,2.46713 3.22141,2.46164 3.21791,2.45615 3.21441,2.45065 "/>
     <polygon id="_216476104" class="fil1" points="3.26771,2.53274 7.05398,6.31902 7.05657,6.32289 7.05916,6.32677 7.06175,6.33064 7.06435,6.33451 7.06696,6.33837 7.06956,6.34224 7.07218,6.34609 7.0748,6.34994 7.07742,6.35379 7.08005,6.35763 7.08269,6.36147 7.08532,6.3653 7.08797,6.36913 7.09062,6.37295 7.09327,6.37677 7.09593,6.38058 3.30966,2.59431 3.307,2.5905 3.30435,2.58668 3.3017,2.58286 3.29906,2.57903 3.29642,2.5752 3.29378,2.57136 3.29115,2.56752 3.28853,2.56367 3.28591,2.55982 3.2833,2.55596 3.28069,2.5521 3.27808,2.54824 3.27548,2.54437 3.27289,2.5405 3.2703,2.53662 "/>
     <polygon id="_216475600" class="fil1" points="3.30966,2.59431 7.09593,6.38058 7.09997,6.38636 7.10403,6.39212 7.10809,6.39786 7.11217,6.4036 7.11627,6.40931 7.12037,6.41502 7.12449,6.42071 7.12862,6.42638 7.13276,6.43204 7.13692,6.43768 7.14109,6.4433 7.14527,6.44891 7.14946,6.4545 7.15367,6.46007 7.1579,6.46562 7.16213,6.47115 3.37587,2.68488 3.37163,2.67935 3.36741,2.6738 3.3632,2.66822 3.359,2.66264 3.35482,2.65703 3.35065,2.65141 3.3465,2.64577 3.34235,2.64011 3.33822,2.63444 3.3341,2.62875 3.33,2.62304 3.32591,2.61733 3.32183,2.61159 3.31776,2.60585 3.3137,2.60009 "/>
     <polygon id="_216476128" class="fil1" points="2.84065,1.88652 6.62691,5.6728 6.6293,5.67532 6.6316,5.67789 2.84533,1.89161 2.84304,1.88905 "/>
     <polygon id="_216475672" class="fil1" points="2.94014,2.01452 6.72641,5.80079 6.73039,5.80652 6.73437,5.81228 6.73834,5.81807 6.7423,5.82387 6.74626,5.8297 6.7502,5.83555 6.75414,5.84142 6.75807,5.84731 6.762,5.85322 6.76592,5.85916 6.76983,5.86511 6.77374,5.87109 6.77765,5.87709 6.78154,5.8831 6.78544,5.88914 6.78933,5.89519 3.00306,2.10892 2.99917,2.10287 2.99528,2.09683 2.99138,2.09081 2.98747,2.08482 2.98357,2.07884 2.97965,2.07289 2.97573,2.06695 2.97181,2.06104 2.96787,2.05515 2.96394,2.04928 2.95999,2.04343 2.95604,2.0376 2.95207,2.0318 2.94811,2.02601 2.94413,2.02025 "/>
     <polygon id="_216476176" class="fil1" points="3.37587,2.68488 7.16213,6.47115 7.16692,6.47737 7.17173,6.48356 7.17656,6.48972 7.18139,6.49585 7.18626,6.50196 7.19113,6.50804 7.19603,6.5141 7.20094,6.52012 7.20587,6.52611 7.21083,6.53208 7.2158,6.53801 7.22078,6.54391 7.22579,6.54978 7.23081,6.55562 7.23586,6.56143 7.24093,6.5672 3.45466,2.78093 3.44959,2.77515 3.44455,2.76935 3.43952,2.76351 3.43452,2.75764 3.42953,2.75174 3.42456,2.74581 3.41961,2.73984 3.41467,2.73385 3.40976,2.72783 3.40487,2.72177 3.39999,2.71569 3.39513,2.70958 3.39029,2.70344 3.38546,2.69728 3.38065,2.69109 "/>
     <polygon id="_216476272" class="fil1" points="4.40288,3.85211 8.18915,7.63838 8.18952,7.6418 8.18989,7.64519 8.19027,7.64854 8.19066,7.65186 8.19104,7.65515 8.19144,7.65841 8.19183,7.66164 8.19224,7.66484 4.40597,3.87857 4.40557,3.87537 4.40517,3.87214 4.40478,3.86888 4.40439,3.86559 4.404,3.86227 4.40363,3.85891 4.40325,3.85553 "/>
     <polygon id="_216475576" class="fil1" points="2.6664,2.15807 6.45267,5.94435 6.45144,5.94503 6.4502,5.94571 6.44894,5.94639 6.44768,5.94708 6.44641,5.94776 6.44512,5.94844 6.44382,5.94913 6.44251,5.94981 2.65624,2.16354 2.65755,2.16286 2.65885,2.16217 2.66014,2.16149 2.66141,2.16081 2.66268,2.16012 2.66393,2.15944 2.66517,2.15876 "/>
     <polygon id="_216476056" class="fil1" points="2.65624,2.16354 6.44251,5.94981 6.43692,5.95268 6.43117,5.95553 6.42529,5.95837 6.41928,5.9612 6.41319,5.964 6.40703,5.96678 6.40081,5.96952 6.39457,5.97222 6.38832,5.97488 6.38209,5.97749 6.3759,5.98004 6.36977,5.98253 6.36372,5.98495 6.35778,5.9873 6.35197,5.98957 6.3463,5.99176 6.3408,5.99386 6.3355,5.99586 6.33041,5.99777 6.32556,5.99956 6.32097,6.00125 6.31666,6.00282 6.31265,6.00427 6.30896,6.00559 6.30563,6.00678 6.30266,6.00783 6.30008,6.00873 6.29792,6.00949 6.29619,6.01009 6.29492,6.01053 6.29412,6.0108 6.29383,6.0109 2.50756,2.22463 2.50785,2.22453 2.50865,2.22426 2.50992,2.22381 2.51165,2.22322 2.51381,2.22246 2.51639,2.22156 2.51936,2.22051 2.5227,2.21932 2.52638,2.218 2.53039,2.21655 2.5347,2.21498 2.53929,2.21329 2.54415,2.2115 2.54923,2.20959 2.55454,2.20759 2.56003,2.20549 2.5657,2.2033 2.57152,2.20103 2.57746,2.19868 2.5835,2.19626 2.58963,2.19376 2.59583,2.19122 2.60206,2.18861 2.6083,2.18595 2.61454,2.18325 2.62076,2.18051 2.62693,2.17773 2.63302,2.17493 2.63902,2.1721 2.6449,2.16926 2.65065,2.16641 "/>
     <polygon id="_216476512" class="fil1" points="4.48699,4.11829 8.27326,7.90456 8.27525,7.90738 8.27723,7.91018 8.2792,7.91297 8.28114,7.91576 8.28307,7.91854 8.28498,7.92133 8.28687,7.92413 8.28874,7.92694 4.50247,4.14067 4.5006,4.13786 4.49871,4.13506 4.4968,4.13227 4.49487,4.12948 4.49293,4.1267 4.49096,4.12391 4.48898,4.12111 "/>
     <polygon id="_216476872" class="fil1" points="2.50756,2.22463 6.29383,6.0109 6.28868,6.01222 2.50241,2.22595 "/>
     <polygon id="_216476896" class="fil1" points="2.37024,2.30972 6.1565,6.09599 6.15348,6.09698 6.15047,6.09787 6.14747,6.09866 6.14448,6.09935 6.1415,6.09994 6.13854,6.10045 6.13559,6.10087 6.13266,6.10122 6.12974,6.1015 6.12683,6.10171 6.12394,6.10187 6.12106,6.10197 6.11819,6.10202 6.11535,6.10203 6.11251,6.102 6.1097,6.10193 2.32343,2.31566 2.32624,2.31572 2.32908,2.31576 2.33193,2.31575 2.33479,2.3157 2.33767,2.31559 2.34056,2.31544 2.34347,2.31523 2.34639,2.31495 2.34933,2.3146 2.35228,2.31418 2.35524,2.31367 2.35821,2.31307 2.3612,2.31239 2.3642,2.3116 2.36721,2.31071 "/>
     <polygon id="_216476608" class="fil1" points="2.32343,2.31566 6.1097,6.10193 6.10652,6.10183 6.10337,6.1017 6.10024,6.10156 6.09713,6.1014 6.09405,6.10124 6.09099,6.10108 6.08795,6.10094 6.08493,6.10082 2.29867,2.31455 2.30168,2.31467 2.30472,2.31481 2.30778,2.31497 2.31087,2.31513 2.31398,2.31528 2.31711,2.31543 2.32026,2.31556 "/>
     <polygon id="_216476848" class="fil1" points="2.29867,2.31455 6.08493,6.10082 6.08311,6.10088 6.08113,6.10113 6.07902,6.10155 6.07683,6.10208 6.07457,6.1027 6.07229,6.10335 6.07002,6.10402 6.06779,6.10463 2.28152,2.31836 2.28375,2.31774 2.28602,2.31708 2.2883,2.31643 2.29056,2.31581 2.29276,2.31528 2.29486,2.31486 2.29684,2.31461 "/>
     <polygon id="_216476680" class="fil1" points="2.28152,2.31836 6.06779,6.10463 6.06643,6.10498 6.0651,6.10529 6.06382,6.10555 6.06259,6.10574 6.06143,6.10587 6.06033,6.10591 6.05932,6.10587 6.05839,6.10572 2.27212,2.31945 2.27305,2.31959 2.27407,2.31964 2.27516,2.31959 2.27633,2.31947 2.27756,2.31928 2.27883,2.31902 2.28016,2.31871 "/>
     <polygon id="_216476440" class="fil1" points="2.27212,2.31945 6.05839,6.10572 6.03908,6.10138 2.25281,2.31511 "/>
     <polygon id="_216476776" class="fil1" points="3.95659,3.85133 7.74285,7.6376 7.72922,7.64587 7.71527,7.65334 7.70103,7.66005 7.68654,7.66602 7.67184,7.6713 7.65697,7.67591 7.64196,7.67987 7.62685,7.68324 7.61169,7.68602 7.5965,7.68827 7.58132,7.69 7.5662,7.69126 7.55118,7.69206 7.53628,7.69244 7.52155,7.69245 7.50702,7.6921 7.49274,7.69143 7.47873,7.69046 7.46505,7.68924 7.45172,7.68778 7.43878,7.68614 7.42628,7.68432 7.41424,7.68238 7.40271,7.68033 7.39173,7.67822 7.38133,7.67606 7.37155,7.6739 7.36243,7.67176 7.35401,7.66968 7.34631,7.66769 7.3394,7.66581 7.33329,7.66409 3.54702,3.87782 3.55313,3.87954 3.56005,3.88142 3.56774,3.88341 3.57616,3.88549 3.58528,3.88763 3.59506,3.88979 3.60546,3.89194 3.61644,3.89406 3.62797,3.89611 3.64001,3.89805 3.65251,3.89987 3.66545,3.90151 3.67878,3.90296 3.69246,3.90419 3.70647,3.90515 3.72075,3.90583 3.73528,3.90618 3.75001,3.90617 3.76491,3.90579 3.77994,3.90498 3.79506,3.90373 3.81023,3.902 3.82542,3.89975 3.84058,3.89696 3.85569,3.8936 3.8707,3.88963 3.88557,3.88503 3.90027,3.87975 3.91476,3.87378 3.929,3.86707 3.94296,3.85959 "/>
     <polygon id="_216476992" class="fil1" points="3.54702,3.87782 7.33329,7.66409 7.33052,7.6656 7.32769,7.66709 7.32481,7.66855 7.32189,7.66998 7.31895,7.67139 7.31599,7.67277 7.31302,7.67411 7.31006,7.67542 7.3071,7.67669 7.30417,7.67793 7.30126,7.67912 7.2984,7.68028 7.29559,7.68139 7.29285,7.68245 7.29017,7.68348 7.28758,7.68445 3.50131,3.89818 3.50391,3.8972 3.50658,3.89618 3.50933,3.89511 3.51213,3.894 3.515,3.89285 3.5179,3.89165 3.52083,3.89042 3.52379,3.88915 3.52675,3.88784 3.52972,3.8865 3.53269,3.88512 3.53563,3.88371 3.53854,3.88228 3.54142,3.88082 3.54425,3.87933 "/>
     <polygon id="_216476392" class="fil1" points="3.50131,3.89818 7.28758,7.68445 7.287,7.68867 7.28642,7.69311 7.28585,7.69773 7.28533,7.70249 7.28483,7.70733 7.2844,7.71224 7.28404,7.71715 7.28375,7.72203 7.28355,7.72684 7.28346,7.73154 7.28349,7.73607 7.28364,7.74042 7.28394,7.74452 7.28439,7.74835 7.285,7.75185 7.2858,7.75498 3.49953,3.96871 3.49874,3.96557 3.49812,3.96207 3.49767,3.95825 3.49737,3.95415 3.49722,3.9498 3.49719,3.94526 3.49728,3.94057 3.49748,3.93576 3.49777,3.93088 3.49813,3.92596 3.49857,3.92106 3.49906,3.91622 3.49959,3.91146 3.50015,3.90684 3.50073,3.9024 "/>
     <polygon id="_216477640" class="fil1" points="4.34811,4.50697 8.13437,8.29324 8.13393,8.29635 8.13337,8.30012 8.1327,8.3045 8.13193,8.30946 8.13106,8.31494 8.1301,8.32091 8.12906,8.32733 8.12796,8.33414 8.12678,8.3413 8.12556,8.34878 8.12428,8.35652 8.12296,8.36449 8.12161,8.37264 8.12023,8.38092 8.11883,8.3893 8.11742,8.39772 8.11601,8.40615 8.11461,8.41455 8.11321,8.42286 8.11184,8.43104 8.11049,8.43906 8.10918,8.44686 8.10792,8.45441 8.1067,8.46166 8.10554,8.46856 8.10445,8.47507 8.10343,8.48116 8.10249,8.48677 8.10165,8.49186 8.10089,8.49639 8.10025,8.50031 8.09971,8.50359 4.31344,4.71732 4.31398,4.71404 4.31463,4.71012 4.31538,4.70559 4.31622,4.7005 4.31716,4.69489 4.31818,4.6888 4.31927,4.68229 4.32043,4.67539 4.32165,4.66814 4.32291,4.66059 4.32422,4.65279 4.32557,4.64477 4.32694,4.63659 4.32834,4.62828 4.32974,4.61988 4.33115,4.61145 4.33256,4.60303 4.33396,4.59465 4.33534,4.58637 4.33669,4.57822 4.33801,4.57025 4.33929,4.56251 4.34052,4.55503 4.34169,4.54787 4.3428,4.54106 4.34383,4.53464 4.34479,4.52867 4.34566,4.52319 4.34643,4.51823 4.3471,4.51385 4.34767,4.51008 "/>
     <polygon id="_216477736" class="fil1" points="3.49953,3.96871 7.2858,7.75498 7.28567,7.75502 3.4994,3.96875 "/>
     <polygon id="_216477184" class="fil1" points="3.4994,3.96875 7.28567,7.75502 7.28676,7.75887 7.28778,7.76294 7.28871,7.76722 7.28957,7.77172 7.29037,7.77641 7.29109,7.78131 7.29174,7.78639 7.29233,7.79165 7.29287,7.79709 7.29333,7.8027 7.29375,7.80848 7.29411,7.81441 7.29442,7.8205 7.29467,7.82672 7.29489,7.83309 7.29506,7.83959 7.29519,7.84621 7.29527,7.85295 7.29533,7.8598 7.29534,7.86676 7.29533,7.87381 7.29529,7.88096 7.29522,7.8882 7.29513,7.89551 7.29502,7.9029 7.29489,7.91035 7.29475,7.91787 7.29459,7.92544 7.29442,7.93305 7.29424,7.94071 7.29406,7.9484 7.29387,7.95612 3.50761,4.16985 3.50779,4.16213 3.50798,4.15444 3.50815,4.14678 3.50832,4.13917 3.50848,4.1316 3.50863,4.12408 3.50876,4.11663 3.50887,4.10924 3.50896,4.10193 3.50902,4.09469 3.50906,4.08754 3.50907,4.08048 3.50906,4.07353 3.509,4.06668 3.50892,4.05994 3.50879,4.05331 3.50862,4.04682 3.50841,4.04045 3.50815,4.03422 3.50784,4.02814 3.50748,4.02221 3.50707,4.01643 3.5066,4.01082 3.50607,4.00538 3.50548,4.00012 3.50482,3.99504 3.5041,3.99014 3.50331,3.98544 3.50244,3.98095 3.50151,3.97667 3.50049,3.9726 "/>
     <polygon id="_216477208" class="fil1" points="4.29789,4.82974 8.08415,8.61602 8.08358,8.62091 8.08302,8.62564 8.08248,8.63023 8.08193,8.63471 8.08138,8.63911 8.08082,8.64343 8.08024,8.64772 8.07963,8.65198 8.079,8.65624 8.07833,8.66053 8.07762,8.66487 8.07685,8.66928 8.07604,8.67378 8.07515,8.67841 8.0742,8.68317 8.07318,8.68809 8.07207,8.6932 8.07087,8.69852 8.06958,8.70408 8.06819,8.70989 8.06669,8.71597 8.06507,8.72236 8.06334,8.72907 8.06148,8.73613 8.05949,8.74356 8.05735,8.75139 8.05507,8.75963 8.05264,8.76831 8.05005,8.77745 8.04729,8.78707 8.04436,8.79721 8.04125,8.80788 4.25498,5.02161 4.25809,5.01094 4.26102,5.0008 4.26378,4.99118 4.26637,4.98204 4.2688,4.97336 4.27109,4.96512 4.27322,4.95729 4.27521,4.94986 4.27707,4.9428 4.27881,4.93609 4.28042,4.9297 4.28192,4.92361 4.28331,4.91781 4.28461,4.91225 4.2858,4.90693 4.28691,4.90182 4.28793,4.8969 4.28889,4.89213 4.28977,4.88751 4.29059,4.88301 4.29135,4.8786 4.29206,4.87426 4.29273,4.86997 4.29337,4.86571 4.29397,4.86144 4.29455,4.85716 4.29511,4.85283 4.29566,4.84844 4.29621,4.84396 4.29676,4.83937 4.29731,4.83463 "/>
     <polygon id="_216477088" class="fil1" points="4.54083,5.1161 8.32709,8.90237 8.32857,8.90479 8.32991,8.90721 8.33113,8.90963 8.33222,8.91204 8.3332,8.91444 8.33407,8.91684 8.33482,8.91923 8.33547,8.92161 4.5492,5.13534 4.54855,5.13296 4.5478,5.13057 4.54693,5.12817 4.54596,5.12577 4.54486,5.12335 4.54364,5.12094 4.5423,5.11852 "/>
     <path id="_216477664" class="fil1" d="M7.92306 8.70857l0 0zm-3.78627 -3.78627l0 0z"/>
     <polygon id="_216477400" class="fil1" points="4.35283,4.4508 8.1391,8.23707 8.13926,8.23867 8.13943,8.24028 8.13959,8.24189 8.13976,8.2435 8.13993,8.2451 8.14009,8.24671 8.14026,8.24831 8.14043,8.24992 4.35417,4.46365 4.354,4.46204 4.35383,4.46044 4.35366,4.45883 4.35349,4.45722 4.35333,4.45562 4.35316,4.45401 4.353,4.4524 "/>
     <polygon id="_216477328" class="fil1" points="4.35417,4.46365 8.14043,8.24992 8.14006,8.25257 8.13967,8.25522 8.1393,8.25789 8.13892,8.26057 8.13854,8.26325 8.13816,8.26594 8.13778,8.26865 8.13741,8.27136 8.13702,8.27407 8.13665,8.2768 8.13627,8.27953 8.13589,8.28226 8.13551,8.285 8.13513,8.28774 8.13475,8.29049 8.13437,8.29324 4.34811,4.50697 4.34848,4.50422 4.34887,4.50147 4.34924,4.49873 4.34962,4.49599 4.35,4.49326 4.35038,4.49053 4.35076,4.4878 4.35114,4.48509 4.35152,4.48238 4.35189,4.47967 4.35227,4.47698 4.35265,4.4743 4.35303,4.47162 4.35341,4.46895 4.35379,4.4663 "/>
     <polygon id="_216477304" class="fil1" points="4.56017,4.79541 8.34643,8.58168 8.34643,8.58182 4.56017,4.79555 "/>
     <polygon id="_216477376" class="fil1" points="4.31344,4.71732 8.09971,8.50359 8.09814,8.51343 8.09667,8.5228 8.0953,8.53173 8.09403,8.54023 8.09285,8.54833 8.09175,8.55604 8.09074,8.56337 8.08979,8.57037 8.08891,8.57703 8.08809,8.58337 8.08733,8.58943 8.08662,8.59522 8.08595,8.60075 8.08532,8.60605 8.08472,8.61113 8.08415,8.61602 4.29789,4.82974 4.29846,4.82486 4.29906,4.81978 4.29969,4.81448 4.30035,4.80894 4.30107,4.80316 4.30183,4.7971 4.30264,4.79076 4.30352,4.78409 4.30447,4.7771 4.30548,4.76976 4.30658,4.76206 4.30776,4.75396 4.30903,4.74546 4.3104,4.73653 4.31187,4.72716 "/>
     <polygon id="_216477520" class="fil1" points="4.55395,5.07693 8.34022,8.8632 8.3385,8.86549 8.33685,8.8677 8.33531,8.8698 8.33389,8.87177 8.33263,8.87358 8.33156,8.87521 8.3307,8.87663 8.3301,8.87782 4.54383,5.09155 4.54444,5.09036 4.54529,5.08894 4.54637,5.08731 4.54762,5.0855 4.54904,5.08353 4.55059,5.08143 4.55224,5.07922 "/>
     <polygon id="_216478408" class="fil1" points="4.24646,5.07447 8.03273,8.86074 8.03282,8.86104 8.03291,8.86133 8.033,8.86162 8.03309,8.86191 8.03317,8.8622 8.03326,8.8625 8.03334,8.86278 8.03343,8.86307 4.24716,5.0768 4.24707,5.07651 4.24699,5.07622 4.24691,5.07593 4.24682,5.07564 4.24673,5.07535 4.24665,5.07506 4.24656,5.07477 "/>
     <polygon id="_216478072" class="fil1" points="4.25498,5.02161 8.04125,8.80788 8.04054,8.81046 8.03985,8.8133 8.03918,8.81637 8.03852,8.81962 8.03789,8.82303 8.03728,8.82656 8.0367,8.83017 8.03614,8.83383 8.03561,8.83751 8.0351,8.84117 8.03463,8.84477 8.03418,8.84828 8.03377,8.85167 8.03339,8.8549 8.03304,8.85794 8.03273,8.86074 4.24646,5.07447 4.24678,5.07167 4.24712,5.06863 4.2475,5.0654 4.24791,5.06201 4.24836,5.0585 4.24883,5.05489 4.24934,5.05124 4.24987,5.04756 4.25043,5.0439 4.25102,5.04028 4.25163,5.03676 4.25226,5.03335 4.25291,5.03009 4.25358,5.02703 4.25428,5.02419 "/>
     <polygon id="_216478264" class="fil1" points="3.51211,4.36709 7.29837,8.15336 7.29825,8.15338 3.51198,4.36711 "/>
     <polygon id="_216478552" class="fil1" points="4.12374,4.03589 7.91001,7.82216 7.90732,7.81954 7.9045,7.81678 7.90156,7.81389 7.89849,7.81089 7.89531,7.80777 7.89202,7.80454 7.88863,7.80121 7.88515,7.79778 7.88158,7.79425 7.87793,7.79063 7.87419,7.78693 7.8704,7.78316 7.86654,7.7793 7.86262,7.77538 7.85866,7.7714 4.07239,3.98513 4.07635,3.98911 4.08027,3.99303 4.08413,3.99689 4.08793,4.00066 4.09166,4.00436 4.09531,4.00798 4.09888,4.0115 4.10237,4.01494 4.10576,4.01827 4.10904,4.0215 4.11222,4.02462 4.11529,4.02762 4.11824,4.0305 4.12106,4.03326 "/>
     <polygon id="_216478288" class="fil1" points="2.50241,2.22595 6.28868,6.01222 6.28167,6.01368 6.27507,6.01528 6.26887,6.017 6.26306,6.01882 6.25764,6.02072 6.25259,6.02268 6.24791,6.02468 6.24358,6.0267 6.23961,6.02873 6.23597,6.03074 6.23266,6.03271 6.22968,6.03463 6.22701,6.03647 6.22464,6.03821 6.22257,6.03985 6.22079,6.04134 2.43452,2.25507 2.43631,2.25357 2.43837,2.25194 2.44074,2.2502 2.44341,2.24836 2.44639,2.24644 2.4497,2.24447 2.45334,2.24246 2.45731,2.24043 2.46164,2.23841 2.46632,2.23641 2.47137,2.23445 2.4768,2.23255 2.4826,2.23073 2.4888,2.22901 2.4954,2.22741 "/>
     <path id="_216477856" class="fil1" d="M8.32902 8.24658l0 0zm-3.78627 -3.78627l0 0z"/>
     <polygon id="_216477904" class="fil1" points="4.56017,4.79555 8.34643,8.58182 8.34649,8.58448 8.34655,8.58719 8.3466,8.58996 8.34665,8.59276 8.34669,8.59559 8.34674,8.59844 8.34678,8.6013 8.34682,8.60416 4.56056,4.81789 4.56051,4.81503 4.56047,4.81217 4.56043,4.80932 4.56038,4.80649 4.56033,4.80369 4.56028,4.80092 4.56022,4.7982 "/>
     <polygon id="_216478120" class="fil1" points="4.56056,4.81789 8.34682,8.60416 8.34688,8.60831 8.34694,8.61244 8.34702,8.61654 8.34709,8.62063 8.34719,8.62469 8.3473,8.62872 8.34742,8.63274 8.34757,8.63674 8.34775,8.64073 8.34795,8.6447 8.34819,8.64865 8.34846,8.65259 8.34877,8.65652 8.34912,8.66044 8.34952,8.66435 8.34997,8.66825 8.35046,8.67215 8.35102,8.67604 8.35163,8.67993 8.35231,8.68381 8.35304,8.68769 8.35385,8.69157 8.35473,8.69545 8.35568,8.69933 8.35671,8.70322 8.35782,8.70711 8.35902,8.711 8.3603,8.71491 8.36168,8.71882 8.36315,8.72274 8.36471,8.72668 8.36638,8.73062 4.58011,4.94435 4.57844,4.94041 4.57688,4.93647 4.57541,4.93255 4.57404,4.92864 4.57275,4.92473 4.57156,4.92084 4.57044,4.91694 4.56941,4.91306 4.56846,4.90918 4.56758,4.9053 4.56678,4.90141 4.56604,4.89754 4.56536,4.89365 4.56475,4.88977 4.5642,4.88588 4.5637,4.88198 4.56325,4.87808 4.56285,4.87417 4.5625,4.87025 4.56219,4.86632 4.56192,4.86238 4.56168,4.85843 4.56148,4.85446 4.5613,4.85047 4.56115,4.84647 4.56103,4.84245 4.56092,4.83841 4.56083,4.83435 4.56075,4.83027 4.56068,4.82617 4.56061,4.82204 "/>
     <polygon id="_216478168" class="fil1" points="4.58011,4.94435 8.36638,8.73062 8.36874,8.73636 8.37078,8.74198 8.37251,8.74747 8.37394,8.75283 8.37508,8.75808 8.37595,8.76321 8.37656,8.76822 8.37691,8.77312 8.37703,8.77791 8.37692,8.78259 8.37659,8.78717 8.37606,8.79164 8.37533,8.79601 8.37442,8.80029 8.37334,8.80446 8.3721,8.80855 8.37072,8.81254 8.3692,8.81645 8.36756,8.82027 8.3658,8.824 8.36394,8.82766 8.362,8.83124 8.35998,8.83474 8.35789,8.83816 8.35575,8.84152 8.35356,8.8448 8.35135,8.84802 8.34911,8.85117 8.34687,8.85427 8.34464,8.8573 8.34241,8.86028 8.34022,8.8632 4.55395,5.07693 4.55615,5.07401 4.55837,5.07103 4.56061,5.068 4.56285,5.0649 4.56508,5.06175 4.5673,5.05853 4.56948,5.05524 4.57162,5.05189 4.57371,5.04846 4.57573,5.04496 4.57768,5.04139 4.57953,5.03773 4.58129,5.034 4.58293,5.03018 4.58445,5.02627 4.58583,5.02228 4.58707,5.01819 4.58815,5.01402 4.58906,5.00974 4.58979,5.00537 4.59032,5.0009 4.59065,4.99632 4.59076,4.99164 4.59065,4.98685 4.59029,4.98195 4.58969,4.97694 4.58881,4.97181 4.58767,4.96656 4.58624,4.9612 4.58451,4.95571 4.58247,4.95009 "/>
     <polygon id="_216478456" class="fil1" points="4.54383,5.09155 8.3301,8.87782 8.32885,8.88108 8.32793,8.8844 8.3273,8.88772 8.32691,8.89098 8.32674,8.89413 8.32674,8.89711 8.32687,8.89988 8.32709,8.90237 4.54083,5.1161 4.54061,5.11361 4.54048,5.11084 4.54048,5.10786 4.54065,5.10471 4.54103,5.10144 4.54166,5.09813 4.54258,5.09481 "/>
     <path id="_216479104" class="fil1" d="M7.89192 8.81163l0 0zm-3.78627 -3.78627l0 0z"/>
     <polygon id="_216478600" class="fil1" points="4.2495,5.07641 8.03577,8.86268 8.03893,8.87017 8.04092,8.87722 8.04181,8.88384 8.04167,8.89004 8.04053,8.89583 8.03848,8.90123 8.03556,8.90623 8.03183,8.91085 8.02737,8.91509 8.02221,8.91898 8.01643,8.92252 8.01008,8.92571 8.00322,8.92857 7.99592,8.9311 7.98822,8.93332 7.9802,8.93524 7.97191,8.93686 7.9634,8.9382 7.95474,8.93926 7.94599,8.94005 7.93721,8.94059 7.92845,8.94088 7.91978,8.94094 7.91125,8.94076 7.90292,8.94037 7.89486,8.93978 7.88712,8.93898 7.87976,8.93799 7.87285,8.93683 7.86643,8.93549 7.86058,8.934 7.85534,8.93235 4.06907,5.14608 4.07431,5.14772 4.08017,5.14922 4.08658,5.15056 4.0935,5.15172 4.10085,5.15271 4.10859,5.1535 4.11665,5.1541 4.12498,5.15449 4.13351,5.15467 4.14218,5.15461 4.15094,5.15432 4.15972,5.15378 4.16848,5.15298 4.17713,5.15193 4.18564,5.15059 4.19393,5.14896 4.20196,5.14705 4.20965,5.14483 4.21696,5.1423 4.22381,5.13944 4.23016,5.13624 4.23594,5.13271 4.2411,5.12882 4.24557,5.12457 4.24929,5.11996 4.25221,5.11496 4.25426,5.10956 4.2554,5.10377 4.25554,5.09757 4.25465,5.09095 4.25266,5.0839 "/>
     <polygon id="_216478672" class="fil1" points="4.55647,5.13418 8.34274,8.92045 8.34704,8.93133 8.34976,8.94156 8.35097,8.95115 8.35077,8.96013 8.34923,8.9685 8.34643,8.97628 8.34245,8.98347 8.33738,8.9901 8.33129,8.99619 8.32427,9.00172 8.31639,9.00674 8.30774,9.01125 8.2984,9.01526 8.28845,9.01879 8.27796,9.02185 8.26704,9.02445 8.25573,9.02661 8.24414,9.02834 8.23235,9.02966 8.22043,9.03058 8.20846,9.03111 8.19652,9.03127 8.18471,9.03107 8.17309,9.03052 8.16174,9.02964 8.15076,9.02844 8.14022,9.02694 8.1302,9.02515 8.12077,9.02309 8.11203,9.02076 8.10406,9.01818 8.09692,9.01536 4.31065,5.22909 4.31779,5.23191 4.32576,5.23448 4.3345,5.23681 4.34393,5.23888 4.35395,5.24067 4.3645,5.24217 4.37548,5.24337 4.38682,5.24425 4.39844,5.2448 4.41026,5.245 4.42219,5.24484 4.43416,5.24431 4.44608,5.24339 4.45787,5.24207 4.46946,5.24034 4.48077,5.23818 4.4917,5.23557 4.50218,5.23252 4.51213,5.22899 4.52147,5.22498 4.53012,5.22047 4.538,5.21545 4.54502,5.20991 4.55111,5.20383 4.55618,5.1972 4.56016,5.19 4.56296,5.18223 4.5645,5.17386 4.5647,5.16488 4.56349,5.15529 4.56077,5.14506 "/>
     <polygon id="_216479320" class="fil1" points="3.31048,4.57378 7.09674,8.36006 7.09651,8.3647 7.0963,8.36917 7.09611,8.37343 7.09594,8.37751 7.09579,8.38138 7.09567,8.38504 7.09556,8.38849 7.09548,8.39172 7.09543,8.39474 7.0954,8.39752 7.0954,8.40007 7.09542,8.40239 7.09547,8.40446 7.09554,8.40628 7.09565,8.40785 7.09578,8.40916 3.30951,4.62289 3.30938,4.62158 3.30928,4.62001 3.3092,4.61819 3.30915,4.61611 3.30913,4.6138 3.30913,4.61125 3.30917,4.60846 3.30922,4.60545 3.3093,4.60222 3.3094,4.59877 3.30952,4.59511 3.30967,4.59124 3.30984,4.58716 3.31003,4.58289 3.31024,4.57843 "/>
     <polygon id="_216479248" class="fil1" points="3.30231,4.66735 7.08858,8.45362 7.08768,8.4593 7.08677,8.46499 7.08585,8.47069 7.08493,8.47641 7.084,8.48215 7.08306,8.48791 7.08211,8.49368 7.08115,8.49948 7.08017,8.5053 7.07918,8.51114 7.07817,8.51701 7.07715,8.5229 7.07609,8.52882 7.07503,8.53477 7.07393,8.54075 7.07281,8.54676 3.28655,4.76048 3.28767,4.75448 3.28876,4.7485 3.28983,4.74255 3.29088,4.73663 3.29191,4.73074 3.29291,4.72487 3.29391,4.71902 3.29488,4.7132 3.29585,4.70741 3.2968,4.70163 3.29773,4.69588 3.29866,4.69014 3.29958,4.68442 3.3005,4.67872 3.30141,4.67303 "/>
     <polygon id="_216479080" class="fil1" points="3.49241,4.87636 7.27868,8.66263 7.27895,8.6676 7.27917,8.67246 7.27933,8.67723 7.27945,8.68191 7.27954,8.6865 7.2796,8.69101 7.27964,8.69545 7.27968,8.69982 3.49341,4.91355 3.49337,4.90918 3.49333,4.90474 3.49327,4.90023 3.49319,4.89564 3.49306,4.89096 3.4929,4.88619 3.49269,4.88133 "/>
     <polygon id="_216478744" class="fil1" points="3.28655,4.76048 7.07281,8.54676 7.07094,8.55685 7.0692,8.56647 7.06758,8.57563 7.06607,8.58436 7.06467,8.59267 7.06337,8.60058 7.06216,8.60811 7.06104,8.61528 7.05999,8.62212 7.05902,8.62864 7.05812,8.63485 7.05728,8.64079 7.05648,8.64647 7.05574,8.6519 7.05503,8.65712 7.05435,8.66213 3.26808,4.87586 3.26876,4.87085 3.26947,4.86563 3.27022,4.8602 3.27101,4.85452 3.27185,4.84858 3.27276,4.84237 3.27372,4.83585 3.27477,4.82901 3.27589,4.82184 3.2771,4.81431 3.2784,4.8064 3.2798,4.79809 3.28131,4.78936 3.28293,4.7802 3.28468,4.77058 "/>
     <polygon id="_216479224" class="fil1" points="3.26808,4.87586 7.05435,8.66213 7.05367,8.66715 7.05301,8.67201 7.05236,8.67672 7.05171,8.68132 7.05106,8.68583 7.05039,8.69027 7.0497,8.69467 7.04899,8.69904 7.04824,8.70342 7.04744,8.70782 7.04659,8.71228 7.04569,8.7168 7.04471,8.72142 7.04367,8.72617 7.04254,8.73105 7.04132,8.73611 7.04,8.74135 7.03859,8.74681 7.03705,8.75251 7.0354,8.75847 7.03362,8.76472 7.0317,8.77128 7.02965,8.77817 7.02744,8.78541 7.02507,8.79304 7.02254,8.80106 7.01983,8.80952 7.01694,8.81843 7.01387,8.82781 7.0106,8.83769 7.00712,8.84809 7.00343,8.85904 3.21717,5.07276 3.22085,5.06182 3.22433,5.05142 3.2276,5.04154 3.23068,5.03215 3.23357,5.02325 3.23627,5.01479 3.2388,5.00676 3.24117,4.99914 3.24338,4.99189 3.24544,4.985 3.24735,4.97845 3.24913,4.9722 3.25078,4.96624 3.25232,4.96054 3.25374,4.95508 3.25505,4.94983 3.25627,4.94478 3.2574,4.93989 3.25844,4.93515 3.25942,4.93053 3.26032,4.926 3.26117,4.92155 3.26197,4.91715 3.26272,4.91277 3.26344,4.9084 3.26412,4.904 3.26479,4.89956 3.26544,4.89505 3.26609,4.89045 3.26674,4.88574 3.26741,4.88088 "/>
     <polygon id="_216478960" class="fil1" points="3.47094,5.13847 7.25721,8.92474 7.25512,8.92832 7.2531,8.93107 7.25123,8.93316 7.24958,8.93477 7.24822,8.93607 7.24722,8.93723 7.24665,8.93844 7.24658,8.93986 3.46031,5.15359 3.46038,5.15217 3.46095,5.15096 3.46195,5.1498 3.46331,5.1485 3.46496,5.14689 3.46683,5.1448 3.46885,5.14205 "/>
     <polygon id="_216479176" class="fil1" points="3.46031,5.15359 7.24658,8.93986 7.24701,8.94321 7.2474,8.94656 7.24775,8.94987 7.24807,8.95318 7.24835,8.95646 7.24859,8.95972 7.2488,8.96297 7.24898,8.96619 3.46271,5.17992 3.46254,5.1767 3.46232,5.17345 3.46208,5.17019 3.4618,5.16691 3.46148,5.1636 3.46113,5.16028 3.46074,5.15694 "/>
     <polygon id="_216479296" class="fil1" points="3.46271,5.17992 7.24898,8.96619 7.24921,8.97215 7.24931,8.97803 7.2493,8.98382 7.24916,8.98953 7.2489,8.99515 7.24852,9.00067 7.24802,9.00609 7.24739,9.01141 7.24665,9.01663 7.24578,9.02172 7.2448,9.02671 7.24369,9.03158 7.24247,9.03632 7.24113,9.04093 7.23967,9.04542 7.23809,9.04977 3.45182,5.2635 3.4534,5.25915 3.45486,5.25466 3.4562,5.25005 3.45743,5.24531 3.45853,5.24044 3.45951,5.23545 3.46038,5.23035 3.46112,5.22514 3.46175,5.21982 3.46225,5.2144 3.46263,5.20888 3.46289,5.20326 3.46303,5.19755 3.46305,5.19176 3.46294,5.18588 "/>
     <polygon id="_216479968" class="fil1" points="3.21717,5.07276 7.00343,8.85904 7.00259,8.86169 7.00177,8.8646 7.00097,8.86775 7.0002,8.87109 6.99944,8.87458 6.99872,8.8782 6.99803,8.88191 6.99736,8.88567 6.99673,8.88944 6.99613,8.8932 6.99557,8.89689 6.99504,8.9005 6.99455,8.90398 6.99409,8.9073 6.99369,8.91041 6.99332,8.91329 3.20705,5.12702 3.20742,5.12414 3.20783,5.12102 3.20828,5.11771 3.20877,5.11423 3.2093,5.11062 3.20986,5.10693 3.21046,5.10317 3.21109,5.0994 3.21176,5.09564 3.21245,5.09193 3.21318,5.08831 3.21393,5.08481 3.2147,5.08148 3.2155,5.07833 3.21632,5.07541 "/>
     <polygon id="_216479920" class="fil1" points="3.30951,4.62289 7.09578,8.40916 7.09533,8.41188 7.09487,8.4146 7.09443,8.41734 7.09398,8.42009 7.09353,8.42284 7.09308,8.42561 7.09263,8.42838 7.09218,8.43116 7.09173,8.43395 7.09128,8.43674 7.09083,8.43954 7.09038,8.44235 7.08993,8.44516 7.08948,8.44798 7.08904,8.4508 7.08858,8.45362 3.30231,4.66735 3.30277,4.66453 3.30322,4.66171 3.30367,4.65889 3.30411,4.65608 3.30457,4.65327 3.30502,4.65047 3.30546,4.64768 3.30591,4.64489 3.30636,4.64211 3.30681,4.63933 3.30726,4.63657 3.30771,4.63381 3.30816,4.63107 3.30861,4.62833 3.30906,4.62561 "/>
     <polygon id="_216479512" class="fil1" points="3.50421,4.59206 7.29048,8.37833 7.28978,8.38824 7.28907,8.39821 7.28837,8.40822 7.28767,8.41826 7.28697,8.42831 7.28628,8.43838 7.2856,8.44843 7.28494,8.45847 7.28428,8.46848 7.28365,8.47844 7.28303,8.48835 7.28243,8.49819 7.28186,8.50796 7.28131,8.51763 7.2808,8.5272 7.28031,8.53665 7.27986,8.54598 7.27944,8.55517 7.27906,8.56421 7.27872,8.57308 7.27843,8.58178 7.27818,8.5903 7.27798,8.59861 7.27782,8.60671 7.27772,8.61459 7.27768,8.62224 7.27769,8.62963 7.27776,8.63677 7.27789,8.64364 7.27809,8.65022 7.27835,8.6565 7.27868,8.66248 3.49241,4.87621 3.49208,4.87023 3.49182,4.86394 3.49162,4.85737 3.49149,4.8505 3.49142,4.84336 3.49141,4.83596 3.49145,4.82832 3.49156,4.82044 3.49171,4.81234 3.49191,4.80402 3.49216,4.79551 3.49246,4.78681 3.4928,4.77794 3.49317,4.7689 3.49359,4.75971 3.49404,4.75038 3.49453,4.74093 3.49505,4.73136 3.49559,4.72169 3.49617,4.71192 3.49676,4.70208 3.49738,4.69217 3.49802,4.6822 3.49867,4.6722 3.49933,4.66216 3.50002,4.65211 3.5007,4.64204 3.5014,4.63199 3.5021,4.62195 3.5028,4.61194 3.50351,4.60197 "/>
     <polygon id="_216479992" class="fil1" points="3.49241,4.87621 7.27868,8.66248 7.27868,8.66263 3.49241,4.87636 "/>
     <polygon id="_216480040" class="fil1" points="3.49341,4.91355 7.27968,8.69982 7.27971,8.70402 7.27976,8.70819 7.27983,8.71235 7.27994,8.71656 7.28011,8.72085 7.28034,8.72525 7.28065,8.7298 7.28106,8.73454 7.28157,8.7395 7.2822,8.74474 7.28297,8.75026 7.28388,8.75613 7.28496,8.76237 7.2862,8.76902 7.28763,8.77612 7.28927,8.7837 3.503,4.99743 3.50137,4.98985 3.49993,4.98275 3.49869,4.9761 3.49761,4.96986 3.4967,4.96399 3.49594,4.95846 3.4953,4.95323 3.49479,4.94827 3.49439,4.94353 3.49407,4.93898 3.49384,4.93457 3.49368,4.93029 3.49356,4.92608 3.49349,4.92191 3.49344,4.91775 "/>
     <polygon id="_216479656" class="fil1" points="3.503,4.99743 7.28927,8.7837 7.29032,8.7889 7.29115,8.79406 7.29178,8.79918 7.2922,8.80426 7.29244,8.8093 7.2925,8.8143 7.29238,8.81926 7.29209,8.82417 7.29165,8.82903 7.29106,8.83385 7.29033,8.83862 7.28946,8.84333 7.28848,8.848 7.28737,8.85261 7.28616,8.85717 7.28485,8.86167 7.28345,8.86611 7.28196,8.87049 7.28041,8.87481 7.27878,8.87907 7.27711,8.88326 7.27537,8.88739 7.2736,8.89145 7.2718,8.89544 7.26998,8.89937 7.26813,8.90322 7.26628,8.907 7.26443,8.9107 7.26259,8.91433 7.26077,8.91788 7.25898,8.92135 7.25721,8.92474 3.47094,5.13847 3.47271,5.13508 3.4745,5.13161 3.47633,5.12806 3.47817,5.12443 3.48002,5.12072 3.48187,5.11694 3.48371,5.11309 3.48554,5.10917 3.48733,5.10518 3.48911,5.10112 3.49084,5.09699 3.49252,5.0928 3.49414,5.08854 3.4957,5.08422 3.49718,5.07984 3.49858,5.0754 3.49989,5.0709 3.50111,5.06634 3.50221,5.06173 3.5032,5.05706 3.50406,5.05235 3.50479,5.04758 3.50539,5.04276 3.50583,5.0379 3.50611,5.03298 3.50623,5.02803 3.50618,5.02303 3.50594,5.01799 3.50551,5.01291 3.50489,5.00778 3.50405,5.00263 "/>
     <polygon id="_216480112" class="fil1" points="3.20705,5.12702 6.99332,8.91329 6.99334,8.91336 6.99337,8.91343 6.99339,8.9135 6.99341,8.91356 6.99344,8.91363 6.99346,8.9137 6.99348,8.91377 6.9935,8.91384 3.20723,5.12757 3.20721,5.1275 3.20719,5.12743 3.20717,5.12736 3.20715,5.12729 3.20713,5.12722 3.2071,5.12716 3.20707,5.12709 "/>
     <polygon id="_216479416" class="fil1" points="3.20723,5.12757 6.9935,8.91384 6.99352,8.91386 6.99353,8.91389 6.99354,8.91391 6.99355,8.91394 3.20728,5.12767 3.20728,5.12764 3.20726,5.12762 3.20725,5.12759 "/>
     <polygon id="_216479464" class="fil1" points="3.20728,5.12767 6.99355,8.91394 6.99714,8.92249 6.9994,8.93054 7.00041,8.9381 7.00023,8.94518 6.99892,8.95179 6.99657,8.95795 6.99322,8.96366 6.98896,8.96893 6.98385,8.97378 6.97795,8.97822 6.97134,8.98225 6.96409,8.98589 6.95625,8.98916 6.9479,8.99205 6.93911,8.99458 6.92994,8.99677 6.92046,8.99862 6.91074,9.00015 6.90085,9.00136 6.89085,9.00226 6.88081,9.00288 6.87081,9.00321 6.8609,9.00327 6.85115,9.00307 6.84165,9.00263 6.83244,9.00194 6.82359,9.00103 6.81519,8.99991 6.80729,8.99857 6.79996,8.99705 6.79327,8.99534 6.78729,8.99346 3.00102,5.20719 3.007,5.20907 3.01369,5.21078 3.02102,5.2123 3.02893,5.21363 3.03733,5.21476 3.04617,5.21567 3.05538,5.21636 3.06489,5.2168 3.07463,5.217 3.08454,5.21694 3.09454,5.21661 3.10458,5.21599 3.11458,5.21509 3.12447,5.21387 3.13419,5.21235 3.14367,5.2105 3.15284,5.20831 3.16163,5.20578 3.16998,5.20289 3.17782,5.19962 3.18507,5.19598 3.19169,5.19194 3.19758,5.18751 3.20269,5.18266 3.20695,5.17739 3.2103,5.17168 3.21265,5.16552 3.21396,5.15891 3.21414,5.15183 3.21313,5.14427 3.21087,5.13622 "/>
     <polygon id="_216479488" class="fil1" points="3.45182,5.2635 7.23809,9.04977 7.23696,9.05156 7.23503,9.05328 7.23233,9.05491 7.22891,9.05645 7.22482,9.05789 7.22012,9.05924 7.21485,9.06048 7.20906,9.06161 7.2028,9.06264 7.19611,9.06354 7.18905,9.06432 7.18167,9.06498 7.17401,9.06551 7.16613,9.0659 7.15806,9.06615 7.14987,9.06626 7.14159,9.06622 7.13329,9.06604 7.125,9.06569 7.11678,9.06518 7.10868,9.06451 7.10073,9.06366 7.093,9.06264 7.08554,9.06144 7.07838,9.06007 7.07158,9.0585 7.06519,9.05674 7.05926,9.05478 7.05383,9.05262 7.04896,9.05026 7.0447,9.04768 7.04108,9.04489 3.25481,5.25862 3.25843,5.26141 3.2627,5.26398 3.26757,5.26635 3.27299,5.26851 3.27893,5.27046 3.28531,5.27222 3.29211,5.2738 3.29927,5.27517 3.30674,5.27637 3.31446,5.27739 3.32241,5.27824 3.33051,5.27891 3.33874,5.27942 3.34702,5.27976 3.35533,5.27995 3.3636,5.27999 3.3718,5.27988 3.37986,5.27963 3.38774,5.27924 3.3954,5.27871 3.40278,5.27805 3.40984,5.27727 3.41653,5.27637 3.42279,5.27534 3.42858,5.27421 3.43385,5.27297 3.43856,5.27162 3.44264,5.27018 3.44606,5.26864 3.44876,5.26701 3.4507,5.26529 "/>
     <polygon id="_216480232" class="fil1" points="4.40597,3.87857 8.19224,7.66484 8.19315,7.67193 8.19409,7.67888 8.19505,7.68567 8.19602,7.69231 8.19702,7.69881 8.19804,7.70517 8.19907,7.71138 8.20012,7.71745 8.20119,7.72339 8.20227,7.72919 8.20337,7.73485 8.20449,7.74039 8.20562,7.7458 8.20677,7.75108 8.20793,7.75624 8.20911,7.76128 8.2103,7.7662 8.2115,7.77101 8.21272,7.77569 8.21395,7.78027 8.21519,7.78474 8.21644,7.7891 8.2177,7.79335 8.21898,7.7975 8.22026,7.80155 8.22156,7.8055 8.22286,7.80935 8.22417,7.81312 8.22549,7.81678 8.22682,7.82037 8.22816,7.82386 8.2295,7.82726 4.44323,4.04099 4.44189,4.03759 4.44056,4.03409 4.43922,4.03051 4.43791,4.02685 4.43659,4.02308 4.43529,4.01923 4.434,4.01528 4.43271,4.01123 4.43144,4.00708 4.43017,4.00283 4.42892,3.99846 4.42768,3.994 4.42645,3.98942 4.42524,3.98474 4.42403,3.97993 4.42284,3.97501 4.42167,3.96997 4.4205,3.96481 4.41935,3.95953 4.41822,3.95412 4.4171,3.94858 4.416,3.94291 4.41492,3.93711 4.41385,3.93118 4.4128,3.92511 4.41177,3.91889 4.41075,3.91254 4.40976,3.90604 4.40878,3.8994 4.40782,3.89261 4.40689,3.88566 "/>
     <polygon id="_216480136" class="fil1" points="4.44323,4.04099 8.2295,7.82726 8.23219,7.83378 8.23489,7.84 8.23762,7.84591 8.24037,7.85156 8.24312,7.85696 8.24589,7.86211 8.24866,7.86705 8.25143,7.87179 8.2542,7.87634 8.25696,7.88073 8.25972,7.88497 8.26247,7.88907 8.2652,7.89307 8.26791,7.89697 8.2706,7.9008 8.27326,7.90456 4.48699,4.11829 4.48433,4.11452 4.48164,4.1107 4.47893,4.1068 4.4762,4.1028 4.47345,4.0987 4.4707,4.09446 4.46793,4.09007 4.46516,4.08552 4.46239,4.08078 4.45962,4.07584 4.45685,4.07069 4.4541,4.06529 4.45135,4.05964 4.44863,4.05372 4.44592,4.04751 "/>
     <polygon id="_216480400" class="fil1" points="4.50247,4.14067 8.28874,7.92694 8.29116,7.93066 8.29354,7.93442 8.29588,7.93823 8.29817,7.94211 8.30042,7.94605 8.30261,7.95008 8.30476,7.9542 8.30685,7.95843 8.30889,7.96277 8.31087,7.96724 8.31279,7.97184 8.31464,7.97659 8.31643,7.98149 8.31815,7.98657 8.3198,7.99181 8.32138,7.99726 8.32289,8.00289 8.32432,8.00874 8.32567,8.0148 8.32694,8.0211 8.32812,8.02764 8.32922,8.03443 8.33023,8.04148 8.33115,8.0488 8.33198,8.05641 8.33271,8.06431 8.33335,8.07251 8.33388,8.08103 8.33431,8.08987 8.33465,8.09905 8.33487,8.10857 8.33498,8.11846 4.54872,4.33219 4.5486,4.3223 4.54838,4.31278 4.54805,4.3036 4.54761,4.29476 4.54708,4.28624 4.54644,4.27804 4.54571,4.27014 4.54488,4.26253 4.54396,4.25521 4.54295,4.24816 4.54185,4.24137 4.54067,4.23483 4.5394,4.22853 4.53805,4.22247 4.53662,4.21662 4.53511,4.21098 4.53354,4.20554 4.53188,4.2003 4.53016,4.19522 4.52837,4.19032 4.52652,4.18557 4.5246,4.18096 4.52262,4.1765 4.52059,4.17216 4.51849,4.16793 4.51635,4.16381 4.51415,4.15978 4.5119,4.15583 4.50961,4.15196 4.50727,4.14815 4.50489,4.14439 "/>
     <polygon id="_216480760" class="fil1" points="4.15732,4.06908 7.94359,7.85535 7.93886,7.85061 7.93411,7.84588 7.92934,7.84115 7.92454,7.83642 7.91972,7.83168 7.91488,7.82693 7.91001,7.82216 4.12374,4.03589 4.12861,4.04066 4.13346,4.04541 4.13828,4.05015 4.14307,4.05488 4.14785,4.05961 4.15259,4.06434 "/>
     <polygon id="_216480640" class="fil1" points="4.54872,4.33219 8.33498,8.11846 8.335,8.12178 8.335,8.12515 8.33499,8.12856 8.33496,8.132 8.33493,8.13549 8.33488,8.13902 8.33482,8.14259 8.33475,8.14621 8.33467,8.14986 8.33457,8.15356 8.33446,8.15731 8.33433,8.16109 8.33419,8.16492 8.33404,8.1688 8.33388,8.17272 8.3337,8.17669 8.33352,8.18069 8.33331,8.18475 8.33309,8.18885 8.33287,8.193 8.33262,8.1972 8.33237,8.20144 8.33209,8.20574 8.33181,8.21007 8.33151,8.21446 8.3312,8.2189 8.33087,8.22339 8.33053,8.22793 8.33017,8.23252 8.3298,8.23715 8.32941,8.24184 8.32902,8.24658 4.54275,4.46031 4.54315,4.45557 4.54353,4.45088 4.5439,4.44624 4.54426,4.44166 4.5446,4.43712 4.54493,4.43263 4.54524,4.42819 4.54554,4.4238 4.54583,4.41946 4.5461,4.41517 4.54635,4.41093 4.5466,4.40673 4.54683,4.40258 4.54704,4.39848 4.54725,4.39442 4.54744,4.39041 4.54761,4.38644 4.54778,4.38253 4.54793,4.37865 4.54806,4.37482 4.54819,4.37104 4.5483,4.36729 4.5484,4.36359 4.54848,4.35994 4.54856,4.35632 4.54861,4.35275 4.54866,4.34922 4.5487,4.34573 4.54872,4.34228 4.54873,4.33888 4.54873,4.33551 "/>
     <polygon id="_216480184" class="fil1" points="4.54275,4.46031 8.32902,8.24658 8.32887,8.24933 8.3288,8.25285 8.3288,8.2571 8.32886,8.26204 8.32899,8.26762 8.32919,8.27381 8.32943,8.28059 8.32973,8.28789 4.54346,4.50162 4.54317,4.49431 4.54292,4.48754 4.54272,4.48135 4.54259,4.47576 4.54253,4.47083 4.54253,4.46658 4.5426,4.46306 "/>
     <polygon id="_216480784" class="fil1" points="4.54346,4.50162 8.32973,8.28789 8.33298,8.29874 4.54671,4.51247 "/>
     <polygon id="_216480832" class="fil1" points="4.54671,4.51247 8.33298,8.29874 8.33021,8.2984 4.54394,4.51213 "/>
     <polygon id="_216480328" class="fil1" points="4.54394,4.51213 8.33021,8.2984 8.33039,8.30221 8.33059,8.30612 8.33079,8.31011 8.331,8.31419 8.33122,8.31834 8.33144,8.32257 8.33168,8.32688 8.33192,8.33126 8.33217,8.33569 8.33242,8.34019 8.33268,8.34475 8.33294,8.34937 8.33322,8.35403 8.33349,8.35874 8.33378,8.36349 8.33406,8.36828 8.33435,8.37311 8.33465,8.37797 8.33494,8.38286 8.33524,8.38777 8.33554,8.3927 8.33585,8.39765 8.33615,8.40262 8.33646,8.40759 8.33677,8.41257 8.33708,8.41756 8.33739,8.42254 8.3377,8.42751 8.33802,8.43248 8.33833,8.43744 8.33864,8.44237 8.33895,8.4473 4.55268,4.66102 4.55237,4.6561 4.55206,4.65117 4.55175,4.64621 4.55144,4.64124 4.55113,4.63626 4.55081,4.63128 4.5505,4.6263 4.5502,4.62132 4.54989,4.61635 4.54958,4.61138 4.54928,4.60643 4.54897,4.6015 4.54867,4.59659 4.54838,4.5917 4.54808,4.58684 4.54779,4.58201 4.54751,4.57722 4.54722,4.57246 4.54695,4.56776 4.54668,4.56309 4.54641,4.55848 4.54615,4.55392 4.5459,4.54942 4.54565,4.54498 4.54541,4.54061 4.54517,4.5363 4.54495,4.53207 4.54473,4.52791 4.54452,4.52384 4.54432,4.51985 4.54413,4.51594 "/>
     <polygon id="_216480520" class="fil1" points="4.55268,4.66102 8.33895,8.4473 8.33928,8.45261 8.33961,8.45789 8.33994,8.46314 8.34027,8.46835 8.34059,8.47352 8.34091,8.47863 8.34122,8.4837 8.34153,8.48871 8.34184,8.49366 8.34214,8.49855 8.34243,8.50337 8.34272,8.50811 8.343,8.51279 8.34327,8.51738 8.34353,8.52189 8.34379,8.5263 8.34404,8.53063 8.34428,8.53486 8.3445,8.53899 8.34472,8.54301 8.34493,8.54693 8.34513,8.55073 8.34532,8.55442 8.3455,8.55798 8.34566,8.56143 8.34581,8.56474 8.34595,8.56792 8.34607,8.57096 8.34619,8.57386 8.34628,8.57662 8.34637,8.57922 8.34643,8.58168 4.56017,4.79541 4.5601,4.79295 4.56002,4.79035 4.55992,4.78759 4.55981,4.78469 4.55968,4.78165 4.55954,4.77847 4.55939,4.77515 4.55923,4.77171 4.55905,4.76815 4.55887,4.76446 4.55867,4.76066 4.55846,4.75674 4.55824,4.75272 4.55801,4.74859 4.55777,4.74436 4.55752,4.74003 4.55726,4.73561 4.557,4.73111 4.55673,4.72652 4.55645,4.72184 4.55616,4.7171 4.55587,4.71228 4.55557,4.70739 4.55526,4.70244 4.55496,4.69743 4.55464,4.69236 4.55432,4.68724 4.554,4.68208 4.55367,4.67687 4.55335,4.67162 4.55302,4.66634 "/>
     <polygon id="_216481408" class="fil1" points="2.69931,1.54666 6.48558,5.33293 6.48878,5.39408 2.70251,1.60781 "/>
     <polygon id="_216481288" class="fil1" points="4.45139,3.36126 8.23766,7.14754 8.24475,7.15516 8.25169,7.16273 8.25846,7.17024 8.26507,7.17766 8.2715,7.185 8.27773,7.19224 8.28376,7.19937 8.28959,7.20638 8.29519,7.21326 4.50892,3.42699 4.50332,3.42011 4.4975,3.4131 4.49146,3.40597 4.48523,3.39873 4.4788,3.39139 4.4722,3.38396 4.46542,3.37646 4.45848,3.36889 "/>
     <polygon id="_216481456" class="fil1" points="3.00306,2.10892 6.78933,5.89519 6.79128,5.89824 6.79323,5.90128 6.79518,5.90433 6.79712,5.90739 6.79907,5.91045 6.80102,5.91352 6.80296,5.91658 6.80491,5.91966 6.80685,5.92274 6.8088,5.92582 6.81074,5.92891 6.81268,5.932 6.81462,5.9351 6.81657,5.9382 6.81851,5.94131 6.82045,5.94442 3.03419,2.15815 3.03224,2.15504 3.0303,2.15193 3.02835,2.14883 3.02641,2.14573 3.02447,2.14264 3.02253,2.13955 3.02058,2.13647 3.01864,2.13339 3.01669,2.13031 3.01475,2.12724 3.0128,2.12418 3.01085,2.12112 3.00891,2.11806 3.00696,2.11501 3.00501,2.11196 "/>
     <polygon id="_216481360" class="fil1" points="3.03419,2.15815 6.82045,5.94442 6.82413,5.95031 6.82785,5.95629 6.8316,5.96234 6.83539,5.96845 6.8392,5.97463 6.84305,5.98088 6.84693,5.98718 6.85083,5.99353 6.85476,5.99994 6.85872,6.00639 6.8627,6.01289 6.86669,6.01943 6.87071,6.02601 6.87475,6.03262 6.8788,6.03926 6.88287,6.04593 3.0966,2.25966 3.09253,2.25299 3.08848,2.24635 3.08444,2.23974 3.08043,2.23316 3.07643,2.22662 3.07245,2.22012 3.0685,2.21367 3.06456,2.20726 3.06066,2.20091 3.05678,2.19461 3.05293,2.18836 3.04912,2.18218 3.04533,2.17607 3.04158,2.17002 3.03786,2.16404 "/>
     <polygon id="_216481336" class="fil1" points="3.0966,2.25966 6.88287,6.04593 6.88444,6.04852 6.88602,6.05111 6.8876,6.0537 6.88919,6.0563 6.89077,6.0589 6.89235,6.0615 6.89394,6.0641 6.89553,6.06671 3.10926,2.28044 3.10767,2.27783 3.10609,2.27523 3.1045,2.27263 3.10292,2.27002 3.10133,2.26743 3.09975,2.26483 3.09817,2.26224 "/>
     <polygon id="_216481024" class="fil1" points="4.49393,3.55127 8.2802,7.33754 8.2794,7.34331 8.27848,7.34907 8.27743,7.35482 8.27628,7.36055 8.27502,7.36626 8.27366,7.37196 8.27219,7.37765 8.27064,7.38333 8.269,7.38901 8.26727,7.39467 8.26546,7.40033 8.26359,7.40598 8.26164,7.41163 8.25963,7.41727 8.25756,7.42291 8.25543,7.42855 4.46917,3.64228 4.47129,3.63664 4.47336,3.631 4.47537,3.62535 4.47732,3.61971 4.4792,3.61406 4.481,3.6084 4.48273,3.60274 4.48437,3.59706 4.48593,3.59138 4.48739,3.58569 4.48875,3.57999 4.49001,3.57428 4.49117,3.56855 4.49221,3.5628 4.49313,3.55704 "/>
     <polygon id="_216481048" class="fil1" points="4.56644,3.53017 8.3527,7.31644 8.35437,7.32306 8.35591,7.32973 8.35732,7.33645 8.35861,7.34322 8.35978,7.35004 8.36083,7.3569 8.36176,7.3638 8.36259,7.37075 8.36331,7.37774 8.36392,7.38476 8.36442,7.39182 8.36483,7.39891 8.36514,7.40604 8.36535,7.41319 8.36548,7.42038 8.36551,7.42759 4.57924,3.64132 4.57921,3.63411 4.57909,3.62692 4.57887,3.61976 4.57856,3.61264 4.57815,3.60555 4.57765,3.59849 4.57704,3.59146 4.57632,3.58448 4.5755,3.57753 4.57456,3.57063 4.57351,3.56376 4.57234,3.55695 4.57105,3.55018 4.56964,3.54346 4.5681,3.53679 "/>
     <polygon id="_216481504" class="fil1" points="4.46917,3.64228 8.25543,7.42855 8.25418,7.43183 8.25291,7.4351 8.25162,7.43837 8.25032,7.44165 8.249,7.44493 8.24768,7.4482 8.24634,7.45148 8.245,7.45476 8.24364,7.45804 8.24228,7.46133 8.24091,7.46461 8.23953,7.4679 8.23815,7.47119 8.23676,7.47448 8.23537,7.47778 8.23398,7.48108 4.44771,3.69481 4.44911,3.69151 4.4505,3.68821 4.45188,3.68492 4.45326,3.68163 4.45464,3.67834 4.45601,3.67506 4.45737,3.67177 4.45873,3.66849 4.46007,3.66521 4.46141,3.66193 4.46274,3.65865 4.46405,3.65538 4.46535,3.6521 4.46664,3.64883 4.46791,3.64556 "/>
     <polygon id="_216481072" class="fil1" points="4.57924,3.64132 8.36551,7.42759 8.3655,7.43139 8.36546,7.43519 8.3654,7.439 8.36532,7.44281 8.36521,7.44663 8.36509,7.45046 8.36494,7.45429 8.36477,7.45813 8.36458,7.46197 8.36437,7.46581 8.36414,7.46967 8.36389,7.47352 8.36363,7.47738 8.36334,7.48124 8.36304,7.48511 8.36272,7.48897 4.57645,3.7027 4.57677,3.69883 4.57707,3.69497 4.57736,3.69111 4.57763,3.68725 4.57787,3.68339 4.5781,3.67954 4.57831,3.6757 4.5785,3.67186 4.57867,3.66802 4.57882,3.66419 4.57894,3.66036 4.57905,3.65654 4.57913,3.65273 4.57919,3.64892 4.57923,3.64511 "/>
     <polygon id="_216481144" class="fil1" points="3.45466,2.78093 7.24093,6.5672 7.24635,6.57332 7.2518,6.5794 7.25727,6.58544 7.26277,6.59144 7.26828,6.5974 7.27382,6.60332 7.27939,6.60919 7.28498,6.61501 3.49871,2.82874 3.49312,2.82292 3.48756,2.81705 3.48202,2.81113 3.4765,2.80517 3.471,2.79917 3.46553,2.79313 3.46008,2.78705 "/>
     <polygon id="_216481240" class="fil1" points="4.44771,3.69481 8.23398,7.48108 8.23197,7.48583 8.22997,7.4906 8.22796,7.49537 8.22597,7.50015 8.22399,7.50494 8.22202,7.50974 8.22007,7.51456 8.21815,7.51937 8.21626,7.5242 8.21439,7.52904 8.21256,7.53389 8.21077,7.53875 8.20903,7.54362 8.20733,7.5485 8.20568,7.5534 8.20408,7.5583 8.20254,7.56321 8.20107,7.56814 8.19966,7.57308 8.19833,7.57803 8.19706,7.58299 8.19587,7.58796 8.19477,7.59294 8.19375,7.59794 8.19282,7.60295 8.19199,7.60797 8.19125,7.61301 8.19061,7.61806 8.19008,7.62312 8.18965,7.62819 8.18934,7.63328 8.18915,7.63838 4.40288,3.85211 4.40307,3.84701 4.40339,3.84192 4.40381,3.83685 4.40434,3.83178 4.40498,3.82674 4.40572,3.8217 4.40656,3.81668 4.40748,3.81167 4.4085,3.80667 4.40961,3.80169 4.4108,3.79672 4.41206,3.79176 4.41339,3.78681 4.4148,3.78187 4.41628,3.77694 4.41781,3.77203 4.41941,3.76713 4.42106,3.76223 4.42276,3.75735 4.4245,3.75248 4.4263,3.74762 4.42813,3.74277 4.42999,3.73793 4.43189,3.7331 4.43381,3.72828 4.43576,3.72347 4.43772,3.71867 4.4397,3.71388 4.4417,3.7091 4.4437,3.70433 4.4457,3.69956 "/>
     <polygon id="_216481768" class="fil1" points="4.5279,3.96387 8.31417,7.75015 8.31246,7.74991 8.31087,7.74935 8.30946,7.7485 8.30824,7.74741 4.52197,3.96114 4.52319,3.96223 4.52461,3.96307 4.52619,3.96363 "/>
     <polygon id="_216466216" class="fil1" points="4.54762,3.89245 8.33389,7.67872 8.33316,7.68279 8.33243,7.68683 8.3317,7.69087 8.33098,7.69489 8.33027,7.6989 8.32957,7.70289 8.32887,7.70687 8.32819,7.71084 8.3275,7.71478 8.32683,7.71872 8.32617,7.72263 8.32552,7.72653 8.32488,7.73041 8.32425,7.73428 8.32363,7.73812 8.32303,7.74195 4.53676,3.95568 4.53737,3.95185 4.53798,3.948 4.53861,3.94414 4.53925,3.94026 4.5399,3.93636 4.54056,3.93244 4.54124,3.92851 4.54192,3.92457 4.5426,3.9206 4.5433,3.91662 4.544,3.91263 4.54472,3.90862 4.54544,3.9046 4.54616,3.90056 4.54689,3.89652 "/>
     <polygon id="_216466264" class="fil1" points="4.57645,3.7027 8.36272,7.48897 8.36219,7.49497 8.36162,7.50098 8.36101,7.50698 8.36037,7.513 8.35969,7.51901 8.35898,7.52503 8.35824,7.53104 8.35747,7.53706 8.35667,7.54307 8.35584,7.54908 8.35498,7.55509 8.35411,7.5611 8.35321,7.56709 8.35229,7.57309 8.35135,7.57907 8.35039,7.58505 8.34941,7.59102 8.34843,7.59697 8.34743,7.60292 8.34641,7.60885 8.34539,7.61477 8.34435,7.62067 8.34331,7.62656 8.34227,7.63244 8.34122,7.63829 8.34017,7.64413 8.33911,7.64995 8.33806,7.65575 8.33701,7.66153 8.33596,7.66728 8.33493,7.67302 8.33389,7.67872 4.54762,3.89245 4.54866,3.88674 4.5497,3.88101 4.55074,3.87526 4.5518,3.86948 4.55285,3.86368 4.5539,3.85786 4.55495,3.85202 4.556,3.84617 4.55705,3.84029 4.55809,3.8344 4.55912,3.8285 4.56014,3.82257 4.56116,3.81665 4.56216,3.8107 4.56315,3.80474 4.56412,3.79878 4.56508,3.7928 4.56602,3.78681 4.56694,3.78082 4.56784,3.77483 4.56872,3.76882 4.56957,3.76281 4.5704,3.7568 4.5712,3.75079 4.57197,3.74477 4.57271,3.73876 4.57343,3.73274 4.5741,3.72672 4.57474,3.72071 4.57535,3.7147 4.57592,3.7087 "/>
     <polygon id="_216465688" class="fil1" points="4.53676,3.95568 8.32303,7.74195 8.32279,7.74366 8.32223,7.74524 8.32139,7.74666 8.3203,7.74789 8.319,7.74888 8.31752,7.74961 8.31589,7.75004 8.31417,7.75015 4.5279,3.96387 4.52963,3.96377 4.53125,3.96333 4.53273,3.96261 4.53403,3.96161 4.53512,3.96039 4.53596,3.95897 4.53652,3.95739 "/>
    </g>
    <path id="_637654864" class="fil1" d="M4.54275 4.46031l0 0zm-0.437094 0.565047l0 0zm0.0311417 -0.103055l0 0zm-1.09691 0.154295l0 0zm0.0370039 -0.105744l0 0zm1.08976 -1.83756c0.0398858,0.010748 0.10739,0.0605039 0.175331,0.121165 0.0189803,0.0169331 0.0379843,0.0347244 0.0564291,0.0527559 0.0420787,0.0411063 0.081252,0.0834528 0.1105,0.11978 0.0242835,0.0301614 0.0417283,0.0561693 0.0483071,0.0738661 0.00355512,0.00956693 0.00661811,0.0193465 0.0092126,0.029315 0.00923622,0.0351535 0.0128543,0.0726181 0.0128071,0.11115 -1.1811e-005,0.0202283 -0.00103937,0.040748 -0.00279528,0.0613819 -0.00542913,0.0639567 -0.0178346,0.128992 -0.0288268,0.189752 -0.0039252,0.0217008 -0.00767323,0.0428583 -0.0108583,0.0632244 -0.000181102,0.0047126 -0.00415354,0.00838189 -0.0088622,0.00819685 -0.0047126,-0.000185039 -0.00838189,-0.00415354 -0.00819291,-0.0088622 -0.0010315,-0.020748 -0.000346457,-0.0465945 0.000740157,-0.0756063 0.00212598,-0.0570118 0.00577953,-0.12624 0.00092126,-0.193083 -0.0012126,-0.016752 -0.00296457,-0.0333543 -0.00542126,-0.0495709 -3.93701e-006,-2.75591e-005 -7.87402e-006,-5.90551e-005 0,-9.05512e-005 -0.0045748,-0.0302992 -0.0115709,-0.0592638 -0.0220157,-0.0853937 -0.00394094,0.0308543 -0.0132992,0.0609331 -0.0247677,0.0910118 -0.00665748,0.0174606 -0.0140236,0.0349213 -0.0214528,0.0525276 -0.0213937,0.0506772 -0.0433937,0.102811 -0.0448307,0.157303 0.000980315,0.00915748 0.00200787,0.0179685 0.00308661,0.0264567 0.00966929,0.0765157 0.0229016,0.126528 0.0372638,0.162425 0.0142559,0.035622 0.0296339,0.0573465 0.0437598,0.0772953 0.00533465,0.00753543 0.0105236,0.0148661 0.0154764,0.0223819 0.0260276,0.0394882 0.0456142,0.0841772 0.046248,0.191516 0.000208661,0.0352677 -0.00162992,0.0772953 -0.0059685,0.128122 -0.000492126,0.00629921 -0.000153543,0.0211496 0.000716535,0.041315l0.00324409 0.0108504 -0.00276772 -0.000346457c0.00190945,0.040189 0.00544882,0.0965354 0.00874016,0.148898 0.00356693,0.0568465 0.00684646,0.109047 0.00748425,0.134382l0 0.000145669c0.000161417,0.00699213 0.000275591,0.0147244 0.000389764,0.0223346 0.000641732,0.0444528 0.00122441,0.084315 0.0195591,0.126465 0.0269134,0.061937 -0.00294094,0.101677 -0.0261614,0.132583 -0.00464961,0.00618898 -0.00885433,0.0117874 -0.010122,0.0146142 -0.00381496,0.00858268 -0.00367717,0.0183268 -0.00300394,0.0245512 0.00410236,0.00645669 0.00678346,0.0129134 0.00837402,0.0192402 0.00253543,-0.000374016 0.00496457,-0.000759843 0.00727165,-0.00116142 0.054563,0.119543 -0.174508,0.12615 -0.245819,0.0949134 -0.00891339,-0.0422047 0.00735827,-0.0557008 0.0201063,-0.0943701 0.00259843,-0.00787795 0.00811024,-0.00921654 0.015811,-0.00780315 0.00137795,-0.00224803 0.0027874,-0.00448819 0.00423622,-0.00673228 0.00579134,-0.0039252 0.0119449,-0.00809055 0.0122953,-0.00976378 0.0035,-0.0165787 0.0110984,-0.0307047 0.0190276,-0.0454331 0.00738189,-0.0137087 0.0152165,-0.0282717 0.0147874,-0.0376811l0 -0.000145669c-0.000177165,-0.00419291 -0.000661417,-0.0119764 -0.00117323,-0.0202008 -0.0020315,-0.0327165 -0.00451575,-0.0727047 0.0034252,-0.111406 0.00360236,-0.0175315 -0.00348425,-0.0737205 -0.0117913,-0.139602 -0.00692913,-0.0549449 -0.0146575,-0.116205 -0.0178543,-0.171134 0.00183858,-0.0340118 -0.00473622,-0.0819252 -0.0166929,-0.134024 0.000437008,0.0042874 0.00088189,0.00857087 0.00133465,0.0128543 -0.00202362,0.0140827 -0.00403543,0.0286417 -0.00605906,0.0433228 -0.00406693,0.0294606 -0.0295827,0.179035 -0.0346614,0.210346 -0.00870472,0.0537362 -0.0125709,0.0868543 -0.0155591,0.112425 -0.00619685,0.0530827 -0.00877559,0.0751693 -0.0429016,0.191862 -0.00382677,0.0130197 -0.0069685,0.0385669 -0.00851969,0.0528661 0.000244094,0.000783465 0.000476378,0.00155906 0.000692913,0.00233071 0.000799213,-0.000129921 0.00158268,-0.000259843 0.00234646,-0.000393701 0.0400472,0.0822598 -0.128091,0.088 -0.180429,0.0696693 -0.00654331,-0.0309764 0.00161811,-0.0446693 0.0109764,-0.0730512 0.000877953,-0.00266535 0.00190551,-0.00525197 0.00304331,-0.00777165 0.000602362,0.000377953 0.00122441,0.000755906 0.00187402,0.0011378 0.00376772,-0.0109094 0.00931102,-0.0206772 0.0145787,-0.0299606 0.00301969,-0.0053189 0.00587795,-0.0103583 0.0061063,-0.0110787 0.0026063,-0.0100394 0.00659055,-0.0216142 0.0111654,-0.0349016 0.00835039,-0.0242638 0.0189016,-0.0549213 0.0199764,-0.0681535 0.00167717,-0.0207953 0.0205276,-0.0980709 0.0361417,-0.162071 0.00855512,-0.0350748 0.0161496,-0.0661969 0.0186102,-0.0776969l0 -0.000145669c0.0349409,-0.162933 0.0433228,-0.367638 0.0309961,-0.540933 -0.00780709,-0.00983071 -0.0156929,-0.0191969 -0.0236654,-0.0282441 -0.0241339,-0.027378 -0.0490984,-0.0518228 -0.0751378,-0.0773189 -0.0139488,-0.0136575 -0.0338858,-0.0331024 -0.0553583,-0.0548031 -0.0381811,-0.0385984 -0.0811969,-0.0843386 -0.103933,-0.117417 -0.00299213,-0.00434646 -0.00562992,-0.00847638 -0.0078622,-0.0123425 -0.143516,0.0925433 -0.348854,0.0439567 -0.409567,0.0264921 -0.0146102,0.00812205 -0.0321102,0.0152953 -0.0457087,0.0203583 -0.00310236,0.0218622 -0.00651969,0.0548425 -0.00177953,0.0705354l-0.000133858 3.93701e-005c0.0121063,0.0398307 0.0102008,0.118638 0.00820866,0.201094 -0.00179134,0.0741496 -0.00366142,0.151469 0.0045,0.197244l-0.000122047 1.9685e-005c0.00581102,0.0329055 -0.000625984,0.123957 -0.00777559,0.224949 -0.00746063,0.105417 -0.0157126,0.222059 -0.0117953,0.284154l0 0.000145669c0.000814961,0.0133937 0.000909449,0.025622 0.000996063,0.037189 0.000169291,0.0225512 0.000322835,0.0420748 0.00959055,0.0838858 0.012378,0.0555906 -0.0134724,0.105299 -0.0320551,0.141035 -0.00562598,0.0108228 -0.0111929,0.0108819 -0.0106299,0.0151181 0.0011811,0.00897244 0.00197638,0.0177677 0.0023937,0.0263307 0.00156299,0.0319882 -0.00216142,0.060752 -0.0108858,0.0835787 -0.00748425,0.0195866 -0.162106,0.0260276 -0.197008,-0.00487402 -0.00699213,-0.0541575 -0.00422835,-0.0715709 0.00332677,-0.0807165 0.0101378,-0.0122677 0.0289016,-0.00965354 0.044311,-0.0609134 0.00268898,-0.00895276 0.00440157,-0.0181654 0.00371654,-0.026 -0.00152362,-0.0175354 -0.000913386,-0.0431811 0.000818898,-0.0677087 0.00191732,-0.027185 0.00540945,-0.0540984 0.00901969,-0.0677441l0 -0.000145669c0.00177953,-0.00662992 0.00389764,-0.032252 0.00579528,-0.0622677 0.00265748,-0.0421693 0.00453543,-0.0919921 0.00453543,-0.11272 0,-0.0510039 -0.00444488,-0.112059 -0.011689,-0.173437 -0.00131102,-0.0110945 -0.00270472,-0.0221732 -0.00417323,-0.033185 -0.00129528,0.0252795 -0.00173622,0.0428031 -0.000968504,0.0491063 -0.00240157,0.0144528 -0.0047874,0.0293937 -0.00719291,0.0444606 -0.00482677,0.0302362 -0.00973622,0.061 -0.0157677,0.0931339 -0.0103346,0.0551496 -0.0149213,0.0891339 -0.0184646,0.115378 -0.00735433,0.0544803 -0.0104213,0.0771457 -0.0509173,0.196902 -0.00454331,0.0133622 -0.00827165,0.0395787 -0.0101142,0.0542559 6.69291e-005,0.000181102 0.000129921,0.000362205 0.000181102,0.000547244 2.3622e-005,3.14961e-005 3.93701e-005,6.69291e-005 5.11811e-005,0.000102362 0.0455787,0.0939134 -0.146465,0.100461 -0.20626,0.0795157 -0.00747638,-0.0354016 0.00185039,-0.0510472 0.0125472,-0.0834882 0.00100394,-0.00304331 0.00217323,-0.006 0.00347638,-0.00887795 0.00435433,-0.00964173 0.010126,-0.0184331 0.0156417,-0.0268386 0.00357874,-0.00545669 0.00697244,-0.0106299 0.00724016,-0.0113701 0.00309843,-0.0103031 0.00782677,-0.0221811 0.013252,-0.035815 0.00991339,-0.0249016 0.022437,-0.0563701 0.0237126,-0.0699449 0.00198819,-0.0213425 0.0243583,-0.100646 0.0428937,-0.166331 0.0101535,-0.0359961 0.0191693,-0.0679331 0.0220866,-0.0797362l0 -0.000149606c0.0392835,-0.15839 0.0655118,-0.569705 0.0605945,-0.832256l-0.000173228 -0.000641732c-0.00969685,-0.0358937 -0.0175669,-0.0651929 -0.0206693,-0.0776181l0 -0.000145669c-0.00603543,-0.0242205 -0.0130197,-0.0457283 -0.0204803,-0.0652008l-0.0256496 -0.0526142 0.00133465 -0.00232677c-0.00660236,-0.0132717 -0.013189,-0.025622 -0.0194921,-0.0374331 -0.0214055,-0.0401142 -0.0399724,-0.0749213 -0.0481024,-0.116 -0.00687795,-0.0346496 -0.00632677,-0.0737598 0.00620472,-0.124272 0.00794882,-0.0320827 0.0207362,-0.0687598 0.0395197,-0.111819l-0.0112283 -0.0230315c-0.0316929,-0.0415669 -0.0641772,-0.0978504 -0.0953976,-0.160587 -0.00954331,-0.0191693 -0.0189606,-0.038937 -0.0282087,-0.0590748 -0.0200079,-0.0435866 -0.0392874,-0.0890787 -0.057185,-0.133929 -0.015437,-0.038685 -0.0298425,-0.0768898 -0.0427913,-0.112984 -0.0169606,-0.0472835 -0.0314213,-0.0909331 -0.0424331,-0.127299 -0.00403543,-0.0133307 -0.0076063,-0.0256811 -0.0106693,-0.0368701l-0.000885827 -0.00338583c-0.00404724,-0.0228386 -0.00977953,-0.0485079 -0.0166811,-0.0758031 -0.0122323,-0.0483622 -0.0281339,-0.101835 -0.0448307,-0.153732 -0.00873622,-0.0271378 -0.017626,-0.053748 -0.0262874,-0.0789134 -0.0135748,-0.039437 -0.0265748,-0.0753071 -0.0374843,-0.104039 -0.0137126,-0.0361181 -0.0241181,-0.0609567 -0.0281969,-0.0674134 -0.00241339,-0.0038189 -0.00449606,-0.0068189 -0.00627953,-0.00916929 -0.00325984,0.0018189 -0.00665354,0.00364173 -0.0101614,0.0054685 -0.058685,0.0305354 -0.148311,0.0609528 -0.148677,0.0610827l-0.00515354 0.00132283c-0.0384921,0.0073937 -0.0591339,0.0215276 -0.0678858,0.029122 -0.00870472,0.0263346 -0.0342953,0.0441969 -0.0642874,0.0546457 -0.0161575,0.00562205 -0.0318268,0.00635433 -0.0468071,0.00594488 -0.00848819,-0.000228346 -0.0167559,-0.000826772 -0.0247638,-0.00111024 -0.00462205,-0.000161417 -0.0112795,0.00224803 -0.0171457,0.00381102 -0.00367323,0.000976378 -0.00703937,0.00161811 -0.00940157,0.00108661l-0.0193031 -0.00434252 -0.00734646 -0.0183307c-0.0339843,-0.0847795 0.0323465,-0.166307 0.0467953,-0.182646 0.0169016,-0.0257205 0.0811181,-0.118469 0.0965472,-0.140736 0.00305906,-0.0108268 0.00480709,-0.0196535 0.0059685,-0.0277283 0.000980315,-0.00683858 0.00153937,-0.0131417 0.00211417,-0.0196614 0.000708661,-0.00801181 0.00144882,-0.0163189 0.00297638,-0.0266614 -0.0197677,-0.0227165 -0.0349173,-0.053 -0.0349764,-0.0531142l-0.00933465 -0.0190984 0.0113976 -0.0177087c0.0192047,-0.0298268 0.0725827,-0.0246378 0.120102,-0.0200079 0.00596457,0.00057874 0.0115276,0.00125591 0.0164803,0.00191339 0.00181102,0.000244094 0.00353937,0.000480315 0.00517717,0.000712598 0.00477559,-0.0313583 0.016874,-0.0727008 0.0385276,-0.110795 0.0225118,-0.0396142 0.054878,-0.0786535 0.0990236,-0.104055l0.0530433 -0.0305276 0.00319685 0.0611496c0.00290945,0.0556102 -0.00322441,0.105764 -0.008,0.144823 -0.00244882,0.0200118 -0.0044685,0.0365709 -0.00481496,0.045811 0.00704331,0.00383071 0.0238268,0.0119213 0.0426299,0.0209882 0.0218346,0.0105236 0.0457244,0.0220433 0.0672362,0.0353386 0.017689,0.0109331 0.0337717,0.0230709 0.0457756,0.0368425 0.0317638,0.0362047 0.0632441,0.0776535 0.0948031,0.122902 0.0212953,0.0305354 0.0421811,0.0620591 0.0629252,0.0944055 0.0103976,0.0162087 0.0207598,0.032626 0.031122,0.0492244 0.0195197,0.0312559 0.040689,0.065878 0.0624134,0.101512 0.00420079,0.0068937 0.0084252,0.0138268 0.0126614,0.0207795 0.0329567,0.0540866 0.0667244,0.109504 0.101669,0.164709 0.0185709,0.0293386 0.0374803,0.0586142 0.0567835,0.0875984 0.0137756,0.0206969 0.0277559,0.041252 0.0419488,0.0615669 0.0215315,0.0308268 0.0435748,0.0611142 0.0662047,0.0905669 0.0254961,0.0332126 0.0517283,0.0653622 0.0787913,0.0960472 0.0577598,0.0655236 0.119339,0.124315 0.185709,0.172295l4.33071e-005 -1.5748e-005c0.032811,0.0237165 0.0667874,0.044811 0.102051,0.0627638 0.033122,0.0168425 0.067378,0.0309213 0.102874,0.0418228 0.00491339,0.00150787 0.010874,0.00326378 0.0177087,0.0052126 0.036811,0.0104961 0.0990315,0.026685 0.160047,0.0410433 0.0215472,0.00507087 0.0427717,0.00987402 0.0624291,0.0140669 0.0288701,0.00615354 0.0543661,0.0109882 0.0725591,0.0134016 0.00269291,0.000354331 0.00555906,0.000944882 0.00857874,0.00177165z"/>
   </g>
  </g>
  <path class="fil2" d="M3.41333 -3.93701e-006c1.88513,0 3.41333,1.5282 3.41333,3.41333 0,1.88513 -1.5282,3.41333 -3.41333,3.41333 -1.88513,0 -3.41333,-1.5282 -3.41333,-3.41333 0,-1.88513 1.5282,-3.41333 3.41333,-3.41333z"/>
  <path class="fil3" d="M3.30951 4.62289c-0.00240157,0.0144528 -0.0047874,0.0293937 -0.00719291,0.0444606 -0.00482677,0.0302362 -0.00973622,0.061 -0.0157677,0.0931339 -0.0103346,0.0551496 -0.0149213,0.0891339 -0.0184646,0.115378 -0.00735433,0.0544803 -0.0104213,0.0771457 -0.0509173,0.196902 -0.00454331,0.0133622 -0.00827165,0.0395787 -0.0101142,0.0542559 0.0339449,0.0942717 -0.148122,0.0773228 -0.148665,0.0772795l-0.00951575 -0.00226772c-0.0417087,-0.0169961 -0.0459921,-0.0458937 -0.0352992,-0.0783307 0.0043622,-0.0132402 0.0119528,-0.0248031 0.0191181,-0.0357205 0.00357874,-0.00545669 0.00697244,-0.0106299 0.00720079,-0.0113858l3.93701e-005 1.5748e-005c0.00309843,-0.0103031 0.00782677,-0.0221811 0.013252,-0.035815 0.00991339,-0.0249016 0.022437,-0.0563701 0.0236969,-0.0699488l1.5748e-005 3.93701e-006c0.00198819,-0.0213425 0.0243583,-0.100646 0.0428937,-0.166331 0.0101535,-0.0359961 0.0191693,-0.0679331 0.0220866,-0.0797362l0 -0.000149606c0.049874,-0.201083 0.0787008,-0.809815 0.0494764,-1.00428 -0.000677165,-0.00451575 -0.00107087,-0.00709843 -0.00348425,-0.0233228 0.00177953,0.00548425 0.00348031,0.0110669 0.00510236,0.0167756l0 7.87402e-005 0.00126772 0.00461417c0.0108031,0.0392795 0.0230236,0.0785748 0.0346732,0.117665 0.00374409,0.0125512 0.00748031,0.0250984 0.0112205,0.0376496 0.00979921,0.0329331 0.0196024,0.0658701 0.0292126,0.0988465 0.00516142,0.0177126 0.011374,0.0368228 0.0153268,0.0547283l0.000751969 0.00339764c0.00968898,0.0472087 0.00974409,0.102465 0.0109528,0.150303 0.00127953,0.0505276 0.00123622,0.109591 0.0132323,0.158807 0.0046811,0.0192087 0.00896063,0.0385866 0.0128819,0.0580669 -0.00843701,0.110957 -0.0150354,0.208071 -0.0129803,0.224921z"/>
  <path class="fil4" d="M3.20723 5.12757c0.0457717,0.0940118 -0.14639,0.100571 -0.206209,0.0796181 -0.00747638,-0.0354016 0.00185039,-0.0510472 0.0125472,-0.0834882 0.00100394,-0.00304331 0.00217323,-0.006 0.00347638,-0.00887795 0.00791732,0.00494488 0.0189016,0.0102795 0.045311,0.0156417 0.0294134,0.00597638 0.106657,0.00374016 0.144874,-0.0028937z"/>
  <path class="fil3" d="M4.35417 4.46365c-0.00202362,0.0140827 -0.00403543,0.0286417 -0.00605906,0.0433228 -0.00406693,0.0294606 -0.0295827,0.179035 -0.0346614,0.210346 -0.00870472,0.0537362 -0.0125709,0.0868543 -0.0155591,0.112425 -0.00619685,0.0530827 -0.00877559,0.0751693 -0.0429016,0.191862 -0.00382677,0.0130197 -0.0069685,0.0385669 -0.00851969,0.0528661 0.0285984,0.0918583 -0.124803,0.0753465 -0.125264,0.0753031l-0.00801575 -0.00220866c-0.0351417,-0.016563 -0.0387559,-0.0447205 -0.0297441,-0.0763307 0.00367717,-0.0128976 0.0100709,-0.0241654 0.0161063,-0.0348031 0.00301969,-0.0053189 0.00587795,-0.0103583 0.00607087,-0.0110945l3.54331e-005 1.5748e-005c0.0026063,-0.0100394 0.00659055,-0.0216142 0.0111654,-0.0349016 0.00835039,-0.0242638 0.0189016,-0.0549213 0.0199646,-0.0681575l1.1811e-005 3.93701e-006c0.00167717,-0.0207953 0.0205276,-0.0980709 0.0361417,-0.162071 0.00855512,-0.0350748 0.0161496,-0.0661969 0.0186102,-0.0776969l0 -0.000145669c0.0420197,-0.195937 0.045626,-0.452276 0.0210039,-0.64176 -0.000700787,-0.0053937 -0.00104331,-0.00795276 -0.00459449,-0.0356063l-1.5748e-005 3.93701e-006c-0.00123228,-0.00733465 -0.00249213,-0.0146772 -0.00377953,-0.022 0.0193346,0.0255787 0.0376929,0.051937 0.0543898,0.0814803 0.0351614,0.0622008 0.0735472,0.210252 0.088811,0.319161 0.00141339,0.026752 0.00399606,0.0533858 0.00680315,0.0799843z"/>
  <path class="fil5" d="M2.36286 2.23291c-3.14961e-005,0.000397638 -0.000192913,0.00165354 -0.000291339,0.00222835l0.000787402 -0.00212205 -0.000496063 -0.000106299z"/>
  <path class="fil6" d="M3.95659 3.85133c-0.143516,0.0925433 -0.348854,0.0439567 -0.409567,0.0264921 -0.0146102,0.00812205 -0.0321102,0.0152953 -0.0457087,0.0203583 -0.00310236,0.0218622 -0.00651969,0.0548425 -0.00177953,0.0705354l-0.000133858 3.93701e-005c0.0121063,0.0398307 0.0102008,0.118638 0.00820866,0.201094 -0.00179134,0.0741496 -0.00366142,0.151469 0.0045,0.197244l-0.000122047 1.9685e-005c0.00581102,0.0329055 -0.000625984,0.123957 -0.00777559,0.224949 -0.00746063,0.105417 -0.0157126,0.222059 -0.0117953,0.284154l0 0.000145669c0.000814961,0.0133937 0.000909449,0.025622 0.000996063,0.037189 0.000169291,0.0225512 0.000322835,0.0420748 0.00959055,0.0838858 0.012378,0.0555906 -0.0134724,0.105299 -0.0320551,0.141035 -0.00562598,0.0108228 -0.0111929,0.0108819 -0.0106299,0.0151181 0.00559055,0.0424882 0.00256693,0.0809724 -0.00849213,0.109909 -0.00748425,0.0195866 -0.162106,0.0260276 -0.197008,-0.00487402 -0.0163701,-0.126815 0.0207441,-0.0521614 0.0476378,-0.14163 0.00268898,-0.00895276 0.00440157,-0.0181654 0.00371654,-0.026 -0.00152362,-0.0175354 -0.000913386,-0.0431811 0.000818898,-0.0677087 0.00191732,-0.027185 0.00540945,-0.0540984 0.00901969,-0.0677441l0 -0.000145669c0.00177953,-0.00662992 0.00389764,-0.032252 0.00579528,-0.0622677 0.00265748,-0.0421693 0.00453543,-0.0919921 0.00453543,-0.11272 0,-0.0510039 -0.00444488,-0.112059 -0.011689,-0.173437 -0.00784646,-0.0664882 -0.018748,-0.132539 -0.0307047,-0.18637 -0.00829921,-0.037626 -0.00953937,-0.0912165 -0.0108307,-0.147465 -0.00127165,-0.0554016 -0.00261417,-0.113587 -0.0110551,-0.156311l-2.75591e-005 3.93701e-006c-0.00337402,-0.0168386 -0.0284921,-0.109634 -0.0499094,-0.188768 -0.0139724,-0.0516299 -0.0263976,-0.0975197 -0.0304961,-0.113941l0 -0.000145669c-0.0173307,-0.0695709 -0.0425157,-0.116772 -0.0642874,-0.157575 -0.0514409,-0.0964055 -0.0865,-0.162181 0.000185039,-0.357921 -0.0455906,-0.0538425 -0.0934882,-0.141217 -0.137398,-0.236862 -0.0681575,-0.14848 -0.127894,-0.319047 -0.153079,-0.411083l-0.000885827 -0.00338583c-0.0112165,-0.0633071 -0.0353898,-0.148346 -0.0615118,-0.229535 -0.039626,-0.123138 -0.0825669,-0.235492 -0.0919685,-0.250366 -0.00241339,-0.0038189 -0.00449606,-0.0068189 -0.00627953,-0.00916929 -0.0578189,0.0322638 -0.158449,0.0664134 -0.158839,0.0665512l-0.00515354 0.00132283c-0.0384921,0.0073937 -0.0591339,0.0215276 -0.0678858,0.029122 -0.00870472,0.0263346 -0.0342953,0.0441969 -0.0642874,0.0546457 -0.025311,0.00881102 -0.0494331,0.00561417 -0.0715709,0.00483465 -0.00751575,-0.00026378 -0.0204134,0.00627953 -0.0265472,0.00489764l-0.0193031 -0.00434252 -0.00734646 -0.0183307c-0.0339843,-0.0847795 0.0323465,-0.166307 0.0467953,-0.182646 0.0169016,-0.0257205 0.0811181,-0.118469 0.0965472,-0.140736 0.00565354,-0.0199961 0.00682677,-0.0331693 0.00808268,-0.0473898 0.000708661,-0.00801181 0.00144882,-0.0163189 0.00297638,-0.0266614 -0.0197677,-0.0227165 -0.0349173,-0.053 -0.0349764,-0.0531142l-0.00933465 -0.0190984 0.0113976 -0.0177087c0.0192047,-0.0298268 0.0725827,-0.0246378 0.120102,-0.0200079 0.00814567,0.000791339 0.0155433,0.00176378 0.0216575,0.00262598 0.00477559,-0.0313583 0.016874,-0.0727008 0.0385276,-0.110795 0.0225118,-0.0396142 0.054878,-0.0786535 0.0990236,-0.104055l0.0530433 -0.0305276 0.00319685 0.0611496c0.00290945,0.0556102 -0.00322441,0.105764 -0.008,0.144823 -0.00244882,0.0200118 -0.0044685,0.0365709 -0.00481496,0.045811 0.00704331,0.00383071 0.0238268,0.0119213 0.0426299,0.0209882 0.0397874,0.0191772 0.0864094,0.0416575 0.113012,0.0721811 0.0317638,0.0362047 0.0632441,0.0776535 0.0948031,0.122902 0.0319685,0.0458386 0.0630079,0.0939055 0.0940472,0.14363 0.0232953,0.0373031 0.0489449,0.0794016 0.0750748,0.122291 0.192772,0.316378 0.413232,0.678201 0.736075,0.777354 0.0313701,0.00963386 0.105409,0.0292323 0.177756,0.0462559 0.0531929,0.0125157 0.104406,0.0234134 0.134988,0.0274685 0.0895945,0.0117953 0.36778,0.284972 0.399146,0.369339 0.0504055,0.135567 0.00154724,0.314079 -0.0204606,0.454823 -0.000181102,0.0047126 -0.00415354,0.00838189 -0.0088622,0.00819685 -0.0047126,-0.000185039 -0.00838189,-0.00415354 -0.00819291,-0.0088622 -0.00451969,-0.0908543 0.0239331,-0.279398 -0.0257756,-0.403744 -0.00623228,0.0487638 -0.0259921,0.0956063 -0.0462205,0.143539 -0.0213937,0.0506772 -0.0433937,0.102811 -0.0448307,0.157303 0.0186024,0.17363 0.0541732,0.223894 0.0841102,0.266177 0.0425669,0.0601299 0.0757717,0.107035 0.0557677,0.34202l-1.1811e-005 0c-0.00148425,0.0189291 0.00455512,0.115146 0.00993307,0.200717 0.00356693,0.0568465 0.00684646,0.109047 0.00748425,0.134382l0 0.000145669c0.000161417,0.00699213 0.000275591,0.0147244 0.000389764,0.0223346 0.000641732,0.0444528 0.00122441,0.084315 0.0195591,0.126465 0.0269134,0.061937 -0.00294094,0.101677 -0.0261614,0.132583 -0.00464961,0.00618898 -0.00885433,0.0117874 -0.010122,0.0146142 -0.00381496,0.00858268 -0.00367717,0.0183268 -0.00300394,0.0245512 0.0185906,0.0292638 0.00807087,0.0585748 -0.00164961,0.0755906 -0.00179528,0.0229685 -0.0195394,0.0359213 -0.0470827,0.0419646 -0.0321929,0.00706693 -0.0875551,0.00121654 -0.12165,-0.00238583 -0.010122,-0.00107087 -0.0179252,-0.0018937 -0.0209724,-0.0018937l-0.0292992 0 -0.0072126 -0.0284134c0.0127953,-0.0360472 0.0232795,-0.0582362 0.0378465,-0.0807756 0.00579134,-0.0039252 0.0119449,-0.00809055 0.0122953,-0.00976378 0.0035,-0.0165787 0.0110984,-0.0307047 0.0190276,-0.0454331 0.00738189,-0.0137087 0.0152165,-0.0282717 0.0147874,-0.0376811l0 -0.000145669c-0.000177165,-0.00419291 -0.000661417,-0.0119764 -0.00117323,-0.0202008 -0.0020315,-0.0327165 -0.00451575,-0.0727047 0.0034252,-0.111406 0.00360236,-0.0175315 -0.00348425,-0.0737205 -0.0117913,-0.139602 -0.00692913,-0.0549449 -0.0146575,-0.116205 -0.0178543,-0.171134 0.00555906,-0.102835 -0.0658031,-0.332701 -0.130157,-0.421228 -0.0365236,-0.0502441 -0.074752,-0.0876772 -0.115626,-0.127701 -0.0420118,-0.0411417 -0.138402,-0.134768 -0.167154,-0.184563z"/>
  <path class="fil7" d="M2.32343 2.31566c-0.00848819,-0.000228346 -0.0167559,-0.000826772 -0.0247638,-0.00111024 -0.00462205,-0.000161417 -0.0112795,0.00224803 -0.0171457,0.00380709 0.0012874,-0.0036811 0.00437795,-0.00664173 0.00846063,-0.00758661 0.0455551,-0.0145276 0.0747323,-0.0712953 0.0865827,-0.076126 0.00127953,0.0227717 -0.0254803,0.0582835 -0.0531339,0.0810157z"/>
  <path class="fil4" d="M2.70088 2.23466c-0.0137126,-0.0361181 -0.0241181,-0.0609567 -0.0281969,-0.0674134 -0.00241339,-0.0038189 -0.00449606,-0.0068189 -0.00627953,-0.00916929 -0.00325984,0.00181496 -0.00666142,0.00364173 -0.0101614,0.00546457 -0.0268543,-0.361358 0.0842559,-0.0626024 0.133992,0.0818701l-0.0893543 -0.010752z"/>
  <path class="fil4" d="M2.79956 1.85477c0.017689,0.0109331 0.0337717,0.0230709 0.0457756,0.0368425 0.0317638,0.0362047 0.0632441,0.0776535 0.0948031,0.122902 0.0212953,0.0305354 0.0421811,0.0620591 0.0629252,0.0944055l-0.0450433 0.086685 -0.146075 -0.0406811 -0.0123858 -0.300154z"/>
  <path class="fil4" d="M2.80948 2.57134c-0.0122323,-0.0483622 -0.0281339,-0.101835 -0.0448307,-0.153732 -0.00873622,-0.0271378 -0.017626,-0.053748 -0.0262874,-0.0789134l0.151189 -0.0767913 0.053878 0.110209 0.00884646 0.200945 -0.142795 -0.00171654z"/>
  <path class="fil4" d="M3.0966 2.25966l0.0126614 0.0207795c0.0329567,0.0540866 0.0667244,0.109504 0.101669,0.164709l-0.0497323 0.0797874 -0.146079 -0.0339094 -0.0130394 -0.263453 0.0945197 0.0320866z"/>
  <path class="fil4" d="M3.00833 3.12069c-0.00954331,-0.0191693 -0.0189606,-0.038937 -0.0282087,-0.0590748 -0.0200079,-0.0435866 -0.0392874,-0.0890787 -0.057185,-0.133929l0.0231732 -0.0451929 0.0910512 0.0738701 0.0103031 0.175224 -0.0391339 -0.0108976z"/>
  <path class="fil4" d="M3.37587 2.68488c0.0254961,0.0332126 0.0517283,0.0653622 0.0787913,0.0960472l-0.0673701 0.142685 -0.100988 -0.0982126 0.0691654 -0.12665 0.0204016 -0.0138701z"/>
  <path class="fil4" d="M3.26771 2.53274c0.0137756,0.0206969 0.0277559,0.041252 0.0419488,0.0615669l-0.00748031 0.0178976 0.00341339 0.104886 -0.165165 -0.0517874 0.060374 -0.144051 0.0669094 0.0114882z"/>
  <path class="fil4" d="M2.88015 2.8147c-0.0169606,-0.0472835 -0.0314213,-0.0909331 -0.0424291,-0.127299l0.000748031 -0.0372795 0.182122 -0.049815 -0.00519685 0.178657c0,0 -0.127484,0.0360748 -0.132693,0.0377953l-0.00255118 -0.00205906z"/>
  <path class="fil4" d="M4.06838 3.98109c-0.0381811,-0.0385984 -0.0811969,-0.0843386 -0.103933,-0.117417l0 -0.0558307 0.0343504 -0.0669961 0.0910512 0.0738701 0.0103071 0.17522 -0.0317756 -0.00884646z"/>
  <path class="fil4" d="M4.26952 4.21402c-0.0100118,-0.0195394 -0.0201654,-0.036689 -0.0301496,-0.0504252 -0.0132559,-0.0182362 -0.0267402,-0.0347835 -0.0404882,-0.0503819l0.0731575 -0.0303071 -0.00251969 0.131114z"/>
  <path class="fil4" d="M4.40597 3.87857c0.00966929,0.0765157 0.0229016,0.126528 0.0372677,0.162425 -0.0217008,0.00933465 -0.0440827,0.0189882 -0.0458228,0.0198543l-0.0309213 -0.0377913 0.00171654 -0.128846 0.0377598 -0.0156417z"/>
  <path class="fil4" d="M4.50247 4.14067c0.0260236,0.0394843 0.0456063,0.084185 0.0462402,0.191516l-0.0715512 -0.0296417 -0.00171654 -0.128843 0.0270276 -0.0330315z"/>
  <path class="fil4" d="M3.23865 4.02639c-0.0082874,-0.0309331 -0.0177244,-0.0657835 -0.0265315,-0.0983268l-0.00982677 -0.0363228 0.11411 -0.0365709 -0.0255197 0.0773071 -0.00514961 0.0944803 -0.0470827 -0.000566929z"/>
  <polygon class="fil6" points="3.46976,4.0797 3.3333,4.03454 3.33943,3.9448 3.36496,3.88387 3.49503,3.9062 3.46634,3.97481 "/>
  <path class="fil4" d="M3.06924 3.5404c-0.00686614,-0.0346496 -0.0063189,-0.0737598 0.00620472,-0.124272l0.143799 -0.0460827 -0.0255236 0.0773071 -0.00514961 0.0944843 -0.119331 -0.00143701z"/>
  <path class="fil4" d="M4.56644 3.53017c0.00922047,0.0351575 0.0128386,0.072622 0.0128071,0.11115l-0.0269882 -0.0137953c0,0 0.00754331,-0.0506654 0.0141811,-0.0973543z"/>
  <path class="fil4" d="M4.57645 3.7027c-0.00542913,0.0639567 -0.0178346,0.128992 -0.0288268,0.189752l-0.000511811 0.000582677 -0.0266614 -0.0136299c0.00212598,-0.0570118 0.00577953,-0.12624 0.00092126,-0.193083 0.00998819,0.00528346 0.0188661,0.010874 0.0188661,0.010874 0.00127953,-0.00127953 0.0244488,0.00315354 0.0362126,0.00550394z"/>
  <path class="fil4" d="M4.51595 3.63675c-0.00457087,-0.0303307 -0.0115591,-0.0593307 -0.0220157,-0.0854843 -0.00394094,0.0308543 -0.0132992,0.0609331 -0.0247677,0.0910118l-0.0729843 -0.0302402 -0.00171654 -0.128839 0.0309213 -0.0377992c0.00343701,0.00171654 0.0876102,0.0377992 0.0876102,0.0377992l0.00295276 0.153551z"/>
  <path class="fil4" d="M4.39842 3.30721c0.0420827,0.0411181 0.0812402,0.0834567 0.110488,0.119787l-0.141654 -0.0176614 -0.030752 -0.0503071 0.018248 -0.0491299 0.0436693 -0.00268898z"/>
  <path class="fil6" d="M4.13163 3.23582c0.0206142,0.00343307 0.156327,0.0446654 0.156327,0.0446654l-0.00251969 0.0596142 0.0354331 0.065 -0.0346339 0.019685 -0.130555 0.0292047 -0.0240512 -0.218169z"/>
  <path class="fil4" d="M4.16666 3.13329c0.0398858,0.010748 0.10739,0.0605039 0.175331,0.121165l3.14961e-005 0.0138228 -0.184319 -0.0806732 0.00895669 -0.054315z"/>
  <path class="fil4" d="M3.86304 3.063c0.036811,0.0104961 0.0990315,0.026685 0.160047,0.0410433 0.0215472,0.00507087 0.0427717,0.00987402 0.0624291,0.0140669l0.022752 0.0384291 -0.199756 0.0240551 -0.0454724 -0.117594z"/>
  <path class="fil4" d="M3.64041 2.9532c0.032811,0.0237165 0.0667874,0.044811 0.102055,0.0627598l0.00951575 0.0360472 -0.14087 0.0549685 -0.049815 -0.128839 0.0791142 -0.024937z"/>
  <polygon class="fil8" points="3.80867,3.09496 3.69529,3.13962 3.66437,3.24441 3.77603,3.34577 3.87567,3.25644 "/>
  <path class="fil8" d="M3.94438 3.24613c0.0103071,-0.00343307 0.115102,-0.0137402 0.115102,-0.0137402l0.0377913 0.161476 -0.125406 0.0618425 -0.0790236 -0.109941 0.0515354 -0.0996378z"/>
  <path class="fil8" d="M4.13163 3.23582c0.0206142,0.00343701 0.156327,0.0446654 0.156327,0.0446654l-0.00251969 0.0596142 0.0354331 0.0649961 -0.0346299 0.019689 -0.130563 0.0292047 -0.0240472 -0.218169z"/>
  <polygon class="fil8" points="3.72793,3.38356 3.86707,3.41448 3.89284,3.53989 3.72278,3.57768 3.69872,3.4643 "/>
  <polygon class="fil8" points="3.58706,3.45399 3.69013,3.42307 3.64031,3.6567 "/>
  <polygon class="fil8" points="3.48055,3.43166 3.5716,3.50553 3.58191,3.68075 3.4462,3.64296 3.4462,3.49866 "/>
  <polygon class="fil8" points="3.47883,3.37669 3.62142,3.37841 3.62657,3.28393 3.58878,3.20662 3.48055,3.26159 "/>
  <polygon class="fil8" points="3.25379,3.17054 3.44104,3.23411 3.35858,3.36638 3.26238,3.34405 "/>
  <polygon class="fil8" points="3.39098,2.97961 3.39981,3.09152 3.52178,3.05888 3.52522,3.00047 3.48546,2.87066 "/>
  <polygon class="fil8" points="4.50935,4.38759 4.38935,4.39498 4.3711,4.44411 4.40185,4.49441 4.54671,4.51247 "/>
  <path class="fil8" d="M3.52522 3.09839l0.0429488 0.0652835 -0.0738701 0.0549724 -0.149453 -0.063563 0.0343543 -0.0377953c0,0 0.149457,-0.0188976 0.14602,-0.0188976z"/>
  <polygon class="fil8" points="3.22631,2.92489 3.29502,2.91115 3.33969,3.00047 3.34656,3.08637 3.26067,3.12244 3.18164,3.05201 "/>
  <polygon class="fil8" points="3.13182,3.08465 3.22631,3.1568 3.21772,3.30797 3.13182,3.3389 3.06483,3.20147 "/>
  <path class="fil8" d="M4.1866 3.5124l0.132276 -0.0395118 0.0377953 0.0223307 -0.0498189 0.14087 -0.115102 0.00687008c0,0 -0.00687008,-0.128843 -0.00514961,-0.130559z"/>
  <path class="fil8" d="M4.36698 3.63952c0,0 -0.0343583,0.0841811 -0.0429488,0.0858976 -0.00858661,0.00171654 -0.0961969,-0.0395118 -0.0961969,-0.0395118l0.0309213 0.158043 0.0773031 0.0223307 0.063563 -0.053252 0.0309213 -0.127122 -0.063563 -0.0463858z"/>
  <path class="fil8" d="M4.3827 4.09103c0,0 -0.0463819,-0.0292047 -0.0463819,-0.0171811 0,0.0120236 -0.0240512,0.173508 -0.0240512,0.173508l0.0773031 0.0395118 0.0377953 -0.0429488 -0.00171654 -0.14602c0,0 -0.0412283,-0.00858661 -0.0429488,-0.00687008z"/>
  <polygon class="fil8" points="4.07221,3.47776 3.95883,3.52242 3.92791,3.62721 4.03957,3.72857 4.1392,3.63924 "/>
  <polygon class="fil8" points="3.39393,3.59458 3.22877,3.5428 3.28914,3.39874 3.4192,3.42108 3.39052,3.48969 "/>
  <polygon class="fil8" points="3.87934,3.58965 3.76596,3.63431 3.73504,3.73911 3.8467,3.84046 3.94633,3.75113 "/>
  <polygon class="fil8" points="4.16078,3.8488 4.29993,3.87972 4.3257,4.00513 4.15563,4.04293 4.13157,3.92954 "/>
  <polygon class="fil8" points="4.1112,3.73962 4.2047,3.68588 4.18774,3.79394 4.1313,3.81612 "/>
  <polygon class="fil8" points="3.5495,3.87138 3.69209,3.8731 3.69724,3.77862 3.65945,3.70131 3.55122,3.75628 "/>
  <polygon class="fil8" points="3.32446,3.66524 3.51171,3.7288 3.42925,3.86107 3.33305,3.83874 "/>
  <path class="fil8" d="M3.44866 4.10544l0.0429488 0.0652795 -0.0738701 0.0549724 -0.149457 -0.063563 0.0343583 -0.0377953c0,0 0.149457,-0.0188937 0.14602,-0.0188937z"/>
  <polygon class="fil8" points="3.20249,3.57934 3.29698,3.65149 3.28839,3.80267 3.20249,3.83359 3.1355,3.69616 "/>
  <polygon class="fil8" points="3.46976,4.0797 3.3333,4.03454 3.33943,3.9448 3.36496,3.88386 3.49503,3.9062 3.46634,3.97481 "/>
  <polygon class="fil8" points="3.11416,2.70185 3.20864,2.77401 3.20005,2.92518 3.11416,2.9561 3.04716,2.81867 "/>
  <path class="fil9" d="M2.57776 1.92979c0.019252,0 0.0348661,0.0195118 0.0348661,0.0435827 0,0.0240709 -0.0156142,0.0435827 -0.0348661,0.0435827 -0.019252,0 -0.0348661,-0.0195118 -0.0348661,-0.0435827 0,-0.0240709 0.0156142,-0.0435827 0.0348661,-0.0435827z"/>
  <path class="fil10" d="M2.57776 1.92861c0.00999606,0 0.0190394,0.00504724 0.0255709,0.0132126 0.0064685,0.00808661 0.0104724,0.019248 0.0104724,0.0315472 0,0.0122992 -0.00400394,0.0234567 -0.0104724,0.0315472 -0.0065315,0.00816535 -0.0155748,0.0132126 -0.0255709,0.0132126 -0.00999606,0 -0.0190394,-0.00504724 -0.0255669,-0.0132126 -0.00647244,-0.00809055 -0.0104764,-0.019248 -0.0104764,-0.0315472 0,-0.0122992 0.00400394,-0.0234606 0.0104764,-0.0315472 0.00652756,-0.00816535 0.0155709,-0.0132126 0.0255669,-0.0132126zm0.0237402 0.0146772c-0.00609055,-0.00761024 -0.0144843,-0.0123189 -0.0237402,-0.0123189 -0.00925197,0 -0.0176496,0.00470866 -0.0237362,0.0123189 -0.00614173,0.00767717 -0.00994882,0.0183189 -0.00994882,0.0300827 0,0.0117638 0.00380709,0.0224055 0.00994882,0.0300866 0.00608661,0.0076063 0.0144843,0.012315 0.0237362,0.012315 0.00925591,0 0.0176496,-0.00470866 0.0237402,-0.012315 0.0061378,-0.0076811 0.00994488,-0.0183228 0.00994488,-0.0300866 0,-0.0117638 -0.00380709,-0.0224055 -0.00994488,-0.0300827z"/>
  <path class="fil11" d="M2.57776 1.9447c0.0126654,0 0.022937,0.0128386 0.022937,0.0286732 0,0.0158346 -0.0102717,0.0286732 -0.022937,0.0286732 -0.0126654,0 -0.022937,-0.0128386 -0.022937,-0.0286732 0,-0.0158346 0.0102717,-0.0286732 0.022937,-0.0286732z"/>
  <path class="fil12" d="M2.57776 1.95574c0.0077874,0 0.0141024,0.0078937 0.0141024,0.0176299 0,0.00973622 -0.00631496,0.0176299 -0.0141024,0.0176299 -0.0077874,0 -0.0141024,-0.0078937 -0.0141024,-0.0176299 0,-0.00973622 0.00631496,-0.0176299 0.0141024,-0.0176299z"/>
  <path class="fil13" d="M2.28085 2.21035c-0.0150039,0.016563 -0.000523622,0.0637677 -0.00073622,0.066252 0.0199331,0 0.0169094,-0.0650433 0.0103031,-0.0647795 -0.00200787,7.48031e-005 -0.00997244,-0.00102362 -0.00956693,-0.00147244z"/>
  <path class="fil14" d="M2.65485 1.65125c-0.0148189,-0.0413976 -0.127201,0.138433 -0.0956339,0.15361 3.93701e-006,3.93701e-006 0.0730591,0.016626 0.0750866,0.0160709 -0.000251969,-0.0179803 0.0250079,-0.157228 0.0205472,-0.169681z"/>
  <path class="fil15" d="M2.40054 1.91589c0.00662598,-0.0382795 0.0809803,-0.0868661 0.0949646,-0.0986417 0.00925984,-0.00779528 0.00916142,-0.0191417 0.00803937,-0.0259252 -0.00495276,-0.00065748 -0.0105157,-0.00133465 -0.0164803,-0.00191339 -0.0475197,-0.00462992 -0.100898,-0.0098189 -0.120102,0.0200079l-0.0113976 0.0177087 0.00933465 0.0190984c5.90551e-005,0.000114173 0.0152087,0.0303976 0.0349764,0.0531142 -0.00152756,0.0103425 -0.00226772,0.0186496 -0.00297638,0.0266614 -0.000574803,0.00652362 -0.00113386,0.0128228 -0.00211811,0.0196614 0.00162992,-0.00738976 0.0035748,-0.0171378 0.00575984,-0.0297717z"/>
  <path class="fil8" d="M3.45182 5.2635c0.00872441,-0.0228268 0.0124449,-0.0515945 0.0108858,-0.0835787 -0.0353031,0.00755512 -0.118614,0.023689 -0.155228,0.016248 -0.0256575,-0.0052126 -0.0408346,-0.0126063 -0.0493386,-0.0182598 -0.00755512,0.00914567 -0.0103189,0.0265551 -0.00332677,0.0807165 0.0349016,0.0309016 0.189524,0.0244606 0.197008,0.00487402z"/>
  <path class="fil4" d="M4.2495 5.07641c0.0400472,0.0822598 -0.128091,0.088 -0.180429,0.0696693 -0.00654331,-0.0309764 0.00161811,-0.0446693 0.0109764,-0.0730512 0.000877953,-0.00266535 0.00190551,-0.00525197 0.00304331,-0.00777165 0.0069252,0.00432677 0.0165394,0.00899606 0.0396457,0.013689 0.0257362,0.00522835 0.0933228,0.00327165 0.126764,-0.00253543z"/>
  <path class="fil4" d="M4.55647 5.13418c0.054563,0.119543 -0.174508,0.12615 -0.245819,0.0949134 -0.00891339,-0.0422047 0.00735827,-0.0557008 0.0201063,-0.0943701 0.00581102,-0.0176142 0.0261811,-0.00253937 0.0530079,0.00290945 0.035063,0.00711811 0.127146,0.00445669 0.172705,-0.00345276z"/>
 </g>
</svg>
