<?xml version="1.0" encoding="UTF-8"?>
<!DOCTYPE svg PUBLIC "-//W3C//DTD SVG 1.1//EN" "http://www.w3.org/Graphics/SVG/1.1/DTD/svg11.dtd">
<!-- Creator: CorelDRAW -->
<svg xmlns="http://www.w3.org/2000/svg" xml:space="preserve" width="6.82666in" height="6.82666in" style="shape-rendering:geometricPrecision; text-rendering:geometricPrecision; image-rendering:optimizeQuality; fill-rule:evenodd; clip-rule:evenodd"
viewBox="0 0 6.82666 6.82666"
 xmlns:xlink="http://www.w3.org/1999/xlink">
 <defs>
  <style type="text/css">
   <![CDATA[
    .fil2 {fill:none}
    .fil6 {fill:none;fill-rule:nonzero}
    .fil12 {fill:#212121}
    .fil11 {fill:#365414}
    .fil13 {fill:#424242}
    .fil15 {fill:#44691A}
    .fil5 {fill:#6E6742}
    .fil14 {fill:#EEEEEE}
    .fil1 {fill:#FF8A65}
    .fil0 {fill:#FFAB91}
    .fil7 {fill:#243B09;fill-rule:nonzero}
    .fil3 {fill:#365414;fill-rule:nonzero}
    .fil9 {fill:#44691A;fill-rule:nonzero}
    .fil8 {fill:#4C7320;fill-rule:nonzero}
    .fil10 {fill:#557D27;fill-rule:nonzero}
    .fil4 {fill:#A79D6C;fill-rule:nonzero}
   ]]>
  </style>
   <clipPath id="id0">
    <path d="M3.41333 -3.93701e-006c1.88513,0 3.41333,1.5282 3.41333,3.41333 0,1.88513 -1.5282,3.41333 -3.41333,3.41333 -1.88513,0 -3.41333,-1.5282 -3.41333,-3.41333 0,-1.88513 1.5282,-3.41333 3.41333,-3.41333z"/>
   </clipPath>
   <clipPath id="id1" style="clip-rule:nonzero">
    <path d="M4.4971 3.33223c0.152354,0.0811102 0.325744,0.175925 0.345181,0.297563 0.00733465,0.0459331 -0.0487756,0.0745354 -0.147563,0.0903189 -0.491622,0.052189 -0.99172,0.0356457 -1.48525,0.0250276 -0.0603307,-0.00129528 -0.102906,-0.00221654 -0.127409,-0.00221654 -0.132787,0 -0.253461,-0.0564291 -0.340902,-0.147343 -0.0871063,-0.090563 -0.141177,-0.215358 -0.141177,-0.352504l0 -3.93701e-006c0,-0.0925787 0.0355079,-0.177055 0.0930906,-0.239449 0.0432756,-0.0468937 0.0990748,-0.0813346 0.161736,-0.0974488 -0.0611339,0.211693 1.21832,0.0737638 1.6423,0.426055z"/>
   </clipPath>
 </defs>
 <g id="Layer_x0020_1">
  <metadata id="CorelCorpID_0Corel-Layer"/>
  <path class="fil0" d="M3.41333 -3.93701e-006c1.88513,0 3.41333,1.5282 3.41333,3.41333 0,1.88513 -1.5282,3.41333 -3.41333,3.41333 -1.88513,0 -3.41333,-1.5282 -3.41333,-3.41333 0,-1.88513 1.5282,-3.41333 3.41333,-3.41333z"/>
  <g style="clip-path:url(#id0)">
   <g id="_637651432">
    <g>
     <polygon id="_6559592161" class="fil1" points="5.27626,2.67253 9.06253,6.4588 9.06608,6.47453 5.27981,2.68826 "/>
     <polygon id="_655958784" class="fil1" points="5.27981,2.68826 9.06608,6.47453 9.0624,6.50209 9.05788,6.52947 9.05249,6.55667 9.04618,6.58364 9.03891,6.61036 9.03065,6.63681 9.02134,6.66296 9.01094,6.68878 8.99943,6.71424 8.98674,6.73933 8.97284,6.76402 8.95768,6.78826 8.94123,6.81205 8.92344,6.83535 8.90428,6.85815 8.88369,6.8804 8.86163,6.90208 8.83807,6.92318 8.81296,6.94365 8.78626,6.96349 8.75793,6.98265 8.72792,7.00111 8.69619,7.01885 8.6627,7.03584 8.62742,7.05205 8.59028,7.06746 8.55127,7.08204 8.51032,7.09576 8.4674,7.1086 8.42247,7.12053 8.37548,7.13153 8.3264,7.14156 4.54013,3.35529 4.58921,3.34526 4.6362,3.33426 4.68113,3.32233 4.72405,3.30949 4.765,3.29577 4.80402,3.28119 4.84115,3.26578 4.87644,3.24957 4.90993,3.23258 4.94165,3.21484 4.97166,3.19638 5,3.17722 5.0267,3.15738 5.05181,3.13691 5.07537,3.11581 5.09742,3.09413 5.11801,3.07187 5.13718,3.04908 5.15496,3.02578 5.17141,3.00199 5.18657,2.97774 5.20047,2.95306 5.21316,2.92797 5.22468,2.9025 5.23507,2.87669 5.24438,2.85054 5.25265,2.82409 5.25991,2.79737 5.26622,2.77039 5.27161,2.7432 5.27613,2.71581 "/>
     <polygon id="_655959768" class="fil1" points="4.78454,3.52347 8.5708,7.30974 8.57893,7.31882 8.58654,7.32802 8.59364,7.33732 8.60018,7.34674 8.60615,7.35628 8.61152,7.36594 8.61626,7.37572 8.62036,7.38561 8.6238,7.39564 8.62653,7.40579 8.62855,7.41606 4.84228,3.62979 4.84026,3.61952 4.83753,3.60937 4.83409,3.59934 4.83,3.58944 4.82525,3.57967 4.81988,3.57001 4.81391,3.56047 4.80737,3.55105 4.80028,3.54174 4.79266,3.53255 "/>
     <polygon id="_655959720" class="fil1" points="4.84228,3.62979 8.62855,7.41606 8.62906,7.42032 8.62919,7.42447 8.62896,7.42853 8.62837,7.43248 8.62742,7.43634 8.62612,7.4401 8.62447,7.44377 8.62248,7.44733 8.62015,7.45081 8.61747,7.45419 8.61447,7.45747 8.61113,7.46067 8.60747,7.46376 8.60348,7.46678 8.59918,7.4697 8.59457,7.47253 8.58964,7.47527 8.5844,7.47793 8.57886,7.4805 8.57302,7.48298 8.56689,7.48538 8.56046,7.48769 8.55375,7.48992 8.54675,7.49207 8.53947,7.49414 8.53192,7.49612 8.52409,7.49803 8.51599,7.49985 8.50763,7.5016 8.499,7.50327 8.49012,7.50487 8.48099,7.50638 4.69472,3.72011 4.70385,3.71859 4.71274,3.717 4.72136,3.71533 4.72972,3.71358 4.73782,3.71176 4.74565,3.70985 4.7532,3.70787 4.76048,3.7058 4.76748,3.70365 4.7742,3.70142 4.78062,3.69911 4.78676,3.69671 4.79259,3.69422 4.79813,3.69166 4.80337,3.689 4.8083,3.68626 4.81291,3.68343 4.81722,3.6805 4.8212,3.67749 4.82487,3.67439 4.8282,3.6712 4.8312,3.66791 4.83388,3.66454 4.83621,3.66106 4.8382,3.6575 4.83985,3.65383 4.84115,3.65007 4.8421,3.64621 4.84269,3.64226 4.84292,3.6382 4.84279,3.63405 "/>
     <polygon id="_655959576" class="fil1" points="4.69472,3.72011 8.48099,7.50638 8.47455,7.50706 8.46811,7.50773 8.46168,7.5084 8.45524,7.50905 8.4488,7.5097 8.44236,7.51034 8.43592,7.51097 8.42948,7.5116 8.42303,7.51222 8.41659,7.51283 8.41014,7.51343 8.4037,7.51402 8.39725,7.51461 8.3908,7.51519 8.38435,7.51577 8.37791,7.51633 8.37145,7.51689 8.365,7.51744 8.35855,7.51799 8.3521,7.51852 8.34565,7.51906 8.33919,7.51957 8.33274,7.52009 8.32628,7.5206 8.31982,7.5211 8.31336,7.5216 8.30691,7.52209 8.30044,7.52257 8.29399,7.52304 8.28753,7.52351 8.28106,7.52397 8.2746,7.52443 4.48833,3.73815 4.4948,3.7377 4.50126,3.73724 4.50772,3.73677 4.51418,3.7363 4.52064,3.73581 4.52709,3.73533 4.53356,3.73483 4.54001,3.73433 4.54647,3.73382 4.55292,3.7333 4.55938,3.73278 4.56583,3.73225 4.57228,3.73172 4.57874,3.73117 4.58519,3.73062 4.59164,3.73006 4.59809,3.7295 4.60454,3.72892 4.61098,3.72834 4.61743,3.72775 4.62387,3.72716 4.63032,3.72656 4.63676,3.72594 4.64321,3.72533 4.64965,3.7247 4.65609,3.72407 4.66253,3.72343 4.66897,3.72278 4.67541,3.72213 4.68185,3.72146 4.68828,3.72079 "/>
     <polygon id="_655959624" class="fil1" points="2.93443,2.36228 6.7207,6.14855 6.67391,6.15855 6.62613,6.16638 6.5775,6.17218 6.52816,6.17611 6.47825,6.17831 6.4279,6.17893 6.37725,6.17811 6.32645,6.17602 6.27562,6.17278 6.22491,6.16856 6.17445,6.1635 6.12439,6.15776 6.07485,6.15146 6.02598,6.14478 5.97793,6.13784 5.93081,6.13081 5.88478,6.12382 5.83996,6.11704 5.79651,6.1106 5.75455,6.10465 5.71422,6.09935 5.67567,6.09483 5.63903,6.09126 5.60444,6.08877 5.57203,6.08752 5.54195,6.08765 5.51433,6.0893 5.48931,6.09264 5.46702,6.09781 5.44762,6.10495 5.43122,6.11422 5.41798,6.12575 1.63172,2.33948 1.64496,2.32794 1.66135,2.31868 1.68076,2.31154 1.70304,2.30637 1.72806,2.30303 1.75568,2.30137 1.78576,2.30124 1.81817,2.3025 1.85276,2.30498 1.88941,2.30856 1.92796,2.31307 1.96828,2.31838 2.01024,2.32433 2.0537,2.33076 2.09851,2.33755 2.14454,2.34454 2.19166,2.35157 2.23972,2.3585 2.28858,2.36519 2.33812,2.37148 2.38819,2.37723 2.43864,2.38229 2.48935,2.38651 2.54018,2.38974 2.59098,2.39184 2.64163,2.39265 2.69198,2.39204 2.74189,2.38984 2.79123,2.38591 2.83986,2.38011 2.88764,2.37228 "/>
     <polygon id="_655959792" class="fil1" points="4.06998,3.75506 7.85624,7.54133 7.83306,7.54165 7.80988,7.54193 7.7867,7.54215 7.76351,7.54232 7.74032,7.54244 7.71713,7.54252 7.69394,7.54256 7.67075,7.54255 7.64756,7.5425 7.62437,7.54241 7.60117,7.54229 7.57798,7.54213 7.55479,7.54193 7.53161,7.54171 7.50842,7.54145 7.48523,7.54117 7.46205,7.54085 7.43887,7.54051 7.41569,7.54015 7.39252,7.53977 7.36935,7.53936 7.34619,7.53894 7.32302,7.5385 7.29987,7.53804 7.27671,7.53757 7.25357,7.53709 7.23043,7.5366 7.20729,7.5361 7.18417,7.53559 7.16104,7.53508 7.13793,7.53456 7.11482,7.53404 3.32856,3.74777 3.35166,3.74829 3.37478,3.74881 3.3979,3.74932 3.42102,3.74983 3.44416,3.75033 3.4673,3.75082 3.49044,3.7513 3.5136,3.75177 3.53676,3.75222 3.55992,3.75267 3.58308,3.75309 3.60625,3.7535 3.62943,3.75388 3.6526,3.75424 3.67578,3.75458 3.69896,3.75489 3.72215,3.75518 3.74534,3.75544 3.76852,3.75566 3.79172,3.75586 3.81491,3.75602 3.8381,3.75614 3.86129,3.75623 3.88448,3.75628 3.90767,3.75628 3.93087,3.75625 3.95406,3.75617 3.97724,3.75605 4.00043,3.75587 4.02361,3.75565 4.0468,3.75538 "/>
     <polygon id="_655960704" class="fil1" points="4.13867,3.75377 7.92494,7.54004 7.91796,7.5495 7.91102,7.55896 7.90416,7.56841 7.89739,7.57782 7.8907,7.5872 7.88414,7.59653 7.8777,7.60581 7.8714,7.61501 7.86525,7.62414 7.85928,7.63318 7.85349,7.64213 7.84791,7.65096 7.84253,7.65968 7.83738,7.66827 7.83248,7.67672 7.82783,7.68502 7.82345,7.69317 7.81937,7.70114 7.81557,7.70894 7.8121,7.71655 7.80896,7.72396 7.80616,7.73116 7.80372,7.73814 7.80165,7.74489 7.79996,7.75141 7.79868,7.75767 7.79782,7.76367 7.79739,7.76941 7.7974,7.77486 7.79787,7.78002 7.79881,7.78489 7.80025,7.78944 4.01398,4.00317 4.01255,3.99861 4.0116,3.99375 4.01113,3.98859 4.01112,3.98313 4.01155,3.9774 4.01241,3.97139 4.0137,3.96513 4.01538,3.95862 4.01745,3.95187 4.01989,3.94489 4.02269,3.93769 4.02583,3.93028 4.02931,3.92267 4.0331,3.91487 4.03719,3.90689 4.04156,3.89875 4.04621,3.89045 4.05111,3.882 4.05626,3.87341 4.06164,3.86469 4.06722,3.85585 4.07301,3.84691 4.07898,3.83787 4.08513,3.82874 4.09143,3.81954 4.09787,3.81026 4.10444,3.80093 4.11112,3.79155 4.11789,3.78213 4.12476,3.77269 4.13169,3.76323 "/>
     <polygon id="_655960080" class="fil1" points="4.01398,4.00317 7.80025,7.78944 7.80189,7.7925 7.80412,7.79481 4.01785,4.00854 4.01562,4.00623 "/>
     <polygon id="_655960152" class="fil1" points="4.17171,4.03633 7.95798,7.8226 7.96071,7.82587 7.96252,7.82945 7.96332,7.83323 7.96307,7.83712 7.96168,7.84101 4.17541,4.05474 4.1768,4.05085 4.17706,4.04696 4.17625,4.04318 4.17444,4.0396 "/>
     <polygon id="_655960536" class="fil1" points="4.27445,4.47935 8.06072,8.26562 8.05756,8.26529 8.05444,8.26504 8.05139,8.26486 8.04838,8.26473 8.04542,8.26465 8.0425,8.26461 8.03963,8.26458 8.0368,8.26457 4.25054,4.4783 4.25337,4.47831 4.25624,4.47833 4.25915,4.47838 4.26211,4.47846 4.26512,4.47859 4.26818,4.47877 4.27129,4.47902 "/>
     <polygon id="_655960776" class="fil1" points="4.25054,4.4783 8.0368,8.26457 8.02858,8.26453 8.02055,8.26439 8.01274,8.26405 8.00515,8.26342 7.99781,8.2624 7.99074,8.26089 7.98394,8.2588 7.97743,8.25602 7.97123,8.25246 7.96535,8.24803 7.95982,8.24261 4.17355,4.45634 4.17909,4.46176 4.18496,4.46619 4.19116,4.46975 4.19767,4.47253 4.20447,4.47462 4.21155,4.47613 4.21889,4.47715 4.22647,4.47778 4.23428,4.47811 4.24231,4.47826 "/>
     <polygon id="_655960488" class="fil1" points="4.17541,4.05474 7.96168,7.84101 7.95922,7.84462 7.95589,7.84772 7.95183,7.85026 7.9472,7.85219 7.94214,7.85346 7.93678,7.85403 7.93128,7.85385 7.92578,7.85287 4.13951,4.0666 4.14501,4.06758 4.15052,4.06776 4.15587,4.06719 4.16094,4.06592 4.16557,4.06399 4.16962,4.06145 4.17295,4.05835 "/>
     <polygon id="_655960728" class="fil1" points="4.13951,4.0666 7.92578,7.85287 7.92528,7.85274 7.92388,7.85239 7.92164,7.85184 7.91863,7.85111 7.91491,7.85025 7.91055,7.84926 7.90561,7.84819 7.90017,7.84706 7.89429,7.84588 7.88803,7.8447 7.88146,7.84353 7.87464,7.84241 7.86765,7.84136 7.86054,7.84041 7.85339,7.83959 7.84626,7.83892 4.05999,4.05265 4.06712,4.05332 4.07428,4.05414 4.08138,4.05509 4.08837,4.05614 4.09519,4.05726 4.10176,4.05843 4.10802,4.05961 4.11391,4.06078 4.11935,4.06192 4.12428,4.06299 4.12864,4.06398 4.13236,4.06484 4.13537,4.06557 4.13761,4.06612 4.13901,4.06647 "/>
     <polygon id="_655960464" class="fil1" points="4.05999,4.05265 7.84626,7.83892 7.84368,7.83873 7.84114,7.83859 7.83865,7.83848 7.8362,7.83841 7.83378,7.83837 7.83141,7.83834 7.82906,7.83833 7.82676,7.83832 4.04049,4.05205 4.0428,4.05206 4.04514,4.05207 4.04752,4.05209 4.04993,4.05214 4.05238,4.05221 4.05487,4.05231 4.05741,4.05246 "/>
     <polygon id="_655960560" class="fil1" points="4.04049,4.05205 7.82676,7.83832 7.82005,7.8383 7.8135,7.83821 7.80713,7.83802 7.80095,7.83766 7.79497,7.83707 7.7892,7.8362 7.78365,7.835 7.77835,7.8334 7.77329,7.83135 7.7685,7.82879 7.76398,7.82567 7.75976,7.82194 3.97349,4.03567 3.97772,4.0394 3.98223,4.04252 3.98702,4.04507 3.99208,4.04713 3.99739,4.04872 4.00293,4.04993 4.0087,4.0508 4.01468,4.05139 4.02087,4.05175 4.02724,4.05194 4.03378,4.05202 "/>
     <polygon id="_655960104" class="fil1" points="4.34667,3.7465 8.13294,7.53277 8.12645,7.53308 8.11996,7.53339 8.11346,7.53369 8.10697,7.53398 8.10047,7.53427 8.09398,7.53455 8.08748,7.53483 8.08098,7.5351 8.07449,7.53537 8.06799,7.53563 8.06149,7.53588 8.055,7.53613 8.0485,7.53638 8.042,7.53662 8.0355,7.53685 8.029,7.53708 8.0225,7.5373 8.016,7.53752 8.0095,7.53773 8.00299,7.53794 7.99649,7.53814 7.98999,7.53834 7.98348,7.53853 7.97698,7.53872 7.97048,7.5389 7.96397,7.53908 7.95747,7.53925 7.95096,7.53942 7.94446,7.53958 7.93795,7.53974 7.93145,7.53989 7.92494,7.54004 4.13867,3.75377 4.14518,3.75362 4.15169,3.75346 4.15819,3.75331 4.1647,3.75315 4.1712,3.75298 4.1777,3.75281 4.18421,3.75263 4.19071,3.75244 4.19722,3.75226 4.20372,3.75207 4.21022,3.75187 4.21672,3.75167 4.22323,3.75146 4.22973,3.75125 4.23623,3.75103 4.24273,3.75081 4.24923,3.75058 4.25573,3.75035 4.26223,3.75011 4.26873,3.74986 4.27522,3.74961 4.28172,3.74936 4.28822,3.74909 4.29472,3.74883 4.30121,3.74856 4.30771,3.74828 4.3142,3.748 4.3207,3.74771 4.32719,3.74741 4.33369,3.74711 4.34018,3.74681 "/>
     <polygon id="_655960656" class="fil1" points="4.21802,4.39343 8.00429,8.1797 8.00631,8.18502 8.00904,8.18902 4.22277,4.40274 4.22004,4.39874 "/>
     <polygon id="_655961472" class="fil1" points="4.48833,3.73815 8.2746,7.52443 8.26356,7.54572 8.25216,7.56748 8.24044,7.58967 8.22848,7.61222 8.21631,7.63508 8.20399,7.6582 8.19157,7.68154 8.17911,7.70502 8.16666,7.72862 8.15427,7.75226 8.14199,7.77591 8.12989,7.7995 8.118,7.82299 8.10639,7.84632 8.0951,7.86944 8.08419,7.8923 8.07371,7.91484 8.06372,7.93702 8.05426,7.95878 8.0454,7.98006 8.03717,8.00083 8.02965,8.02101 8.02287,8.04057 8.01689,8.05945 8.01178,8.07759 8.00756,8.09496 8.00431,8.11148 8.00207,8.12711 8.00089,8.1418 8.00083,8.1555 8.00195,8.16815 8.00429,8.1797 4.21802,4.39343 4.21569,4.38187 4.21457,4.36922 4.21462,4.35553 4.2158,4.34084 4.21804,4.32521 4.22129,4.30869 4.22551,4.29132 4.23063,4.27318 4.2366,4.2543 4.24338,4.23474 4.25091,4.21456 4.25913,4.19379 4.26799,4.1725 4.27745,4.15075 4.28744,4.12857 4.29792,4.10602 4.30883,4.08317 4.32012,4.06005 4.33173,4.03672 4.34362,4.01323 4.35572,3.98964 4.368,3.96599 4.38039,3.94235 4.39284,3.91875 4.4053,3.89526 4.41772,3.87193 4.43004,3.84881 4.44221,3.82594 4.45418,3.8034 4.46589,3.78121 4.47729,3.75945 "/>
     <polygon id="_655960920" class="fil1" points="4.416,4.48297 8.20227,8.26924 8.20091,8.27248 8.19926,8.27552 8.19733,8.27832 8.19517,8.2809 8.19279,8.28323 8.1902,8.28531 8.18744,8.28712 8.18452,8.28866 8.18147,8.28991 8.17831,8.29087 8.17506,8.29152 8.17174,8.29186 8.16838,8.29187 8.16499,8.29154 8.16161,8.29087 8.15824,8.28984 4.37197,4.50357 4.37534,4.5046 4.37872,4.50527 4.38211,4.5056 4.38547,4.50559 4.38879,4.50525 4.39204,4.5046 4.3952,4.50364 4.39826,4.50239 4.40117,4.50085 4.40394,4.49904 4.40652,4.49696 4.40891,4.49463 4.41107,4.49205 4.41299,4.48924 4.41464,4.48621 "/>
     <polygon id="_655960944" class="fil1" points="4.37197,4.50357 8.15824,8.28984 8.15763,8.28962 8.15591,8.289 8.15317,8.28805 8.14947,8.2868 8.14491,8.28529 8.13957,8.28358 8.13352,8.28171 8.12684,8.27974 8.11963,8.2777 8.11194,8.27565 8.10389,8.27363 8.09553,8.27168 8.08695,8.26986 8.07824,8.26821 8.06947,8.26678 8.06072,8.26562 4.27445,4.47935 4.2832,4.48051 4.29197,4.48194 4.30069,4.48359 4.30926,4.48541 4.31762,4.48735 4.32568,4.48937 4.33336,4.49143 4.34057,4.49347 4.34725,4.49544 4.3533,4.49731 4.35865,4.49902 4.3632,4.50052 4.3669,4.50178 4.36965,4.50273 4.37136,4.50335 "/>
     <polygon id="_655961256" class="fil1" points="2.21044,2.87685 5.99671,6.66312 6.00219,6.66846 6.00756,6.67391 6.01283,6.67944 6.018,6.68507 6.02306,6.69079 6.02802,6.6966 6.03287,6.70249 6.03761,6.70847 6.04225,6.71454 2.25598,2.92827 2.25134,2.9222 2.2466,2.91622 2.24175,2.91033 2.23679,2.90452 2.23173,2.8988 2.22656,2.89317 2.22129,2.88763 2.21592,2.88219 "/>
     <polygon id="_655961232" class="fil1" points="1.63172,2.33948 5.41798,6.12575 5.41245,6.13243 5.40759,6.1396 5.40341,6.14729 5.39989,6.1555 5.39704,6.16423 5.39485,6.1735 5.39334,6.18331 5.39249,6.19367 5.39231,6.20459 5.3928,6.21607 5.39395,6.22812 5.39576,6.24076 5.39824,6.25398 5.40138,6.26779 5.40519,6.28221 5.40965,6.29724 5.41478,6.31289 5.42056,6.32917 5.42701,6.34607 5.43411,6.36362 5.44187,6.38182 5.45029,6.40068 5.45936,6.42019 5.46909,6.44039 5.47948,6.46126 5.49052,6.48281 5.50221,6.50506 5.51456,6.52802 5.52756,6.55169 5.5412,6.57607 5.5555,6.60117 5.57045,6.62702 1.78419,2.84074 1.76924,2.8149 1.75494,2.7898 1.74129,2.76541 1.72829,2.74175 1.71594,2.71879 1.70425,2.69654 1.69321,2.67498 1.68283,2.65411 1.67309,2.63392 1.66402,2.61441 1.6556,2.59555 1.64784,2.57735 1.64074,2.5598 1.6343,2.54289 1.62851,2.52662 1.62338,2.51097 1.61892,2.49594 1.61511,2.48152 1.61198,2.4677 1.6095,2.45448 1.60768,2.44185 1.60653,2.4298 1.60605,2.41831 1.60622,2.4074 1.60707,2.39704 1.60859,2.38723 1.61077,2.37796 1.61362,2.36923 1.61714,2.36102 1.62133,2.35333 1.62619,2.34615 "/>
     <polygon id="_655961400" class="fil1" points="2.28065,3.46018 6.06692,7.24645 6.04436,7.3192 2.25809,3.53293 "/>
     <polygon id="_655961040" class="fil1" points="2.43801,3.56923 6.22428,7.3555 6.21872,7.35414 6.2132,7.35264 6.20773,7.35102 6.20231,7.34926 6.19692,7.34738 6.19159,7.34538 6.1863,7.34325 6.18106,7.341 6.17586,7.33863 6.17072,7.33614 6.16563,7.33353 6.16059,7.3308 6.15561,7.32796 6.15068,7.32501 6.14581,7.32194 6.14099,7.31876 6.13623,7.31547 6.13153,7.31207 6.12689,7.30857 6.12231,7.30495 6.11779,7.30124 6.11333,7.29742 6.10894,7.29349 6.10461,7.28947 2.31834,3.5032 2.32267,3.50722 2.32706,3.51115 2.33152,3.51496 2.33604,3.51868 2.34062,3.5223 2.34526,3.5258 2.34996,3.5292 2.35472,3.53249 2.35954,3.53567 2.36441,3.53874 2.36934,3.54169 2.37433,3.54453 2.37936,3.54726 2.38445,3.54987 2.38959,3.55236 2.39479,3.55473 2.40003,3.55698 2.40532,3.55911 2.41065,3.56111 2.41604,3.56299 2.42146,3.56474 2.42694,3.56637 2.43245,3.56787 "/>
     <polygon id="_655961424" class="fil1" points="2.24762,3.56923 6.03389,7.3555 6.03174,7.36316 6.02954,7.37095 6.02729,7.37883 6.02498,7.38678 6.02261,7.39478 6.02016,7.40279 6.01764,7.41079 6.01504,7.41875 6.01234,7.42665 6.00956,7.43447 6.00667,7.44216 6.00368,7.44972 6.00058,7.4571 5.99737,7.46428 5.99403,7.47125 5.99056,7.47796 2.20429,3.69169 2.20776,3.68498 2.2111,3.67801 2.21431,3.67083 2.21741,3.66344 2.22041,3.65589 2.22329,3.6482 2.22607,3.64038 2.22877,3.63248 2.23137,3.62452 2.23389,3.61652 2.23634,3.6085 2.23871,3.60051 2.24102,3.59256 2.24328,3.58468 2.24547,3.57689 "/>
     <polygon id="_655961544" class="fil1" points="2.25809,3.53293 6.04436,7.3192 6.0432,7.323 6.04198,7.32707 6.04072,7.33138 6.03943,7.3359 6.03809,7.34059 6.03671,7.34545 6.03531,7.35043 6.03389,7.3555 2.24762,3.56923 2.24905,3.56415 2.25044,3.55918 2.25182,3.55432 2.25316,3.54963 2.25446,3.54511 2.25572,3.5408 2.25693,3.53673 "/>
     <polygon id="_655960848" class="fil1" points="2.55635,3.57609 6.34261,7.36236 6.33857,7.37102 6.33448,7.37979 6.33035,7.38864 6.32619,7.39756 6.32201,7.40652 6.31783,7.4155 6.31364,7.42447 6.30948,7.43343 6.30534,7.44233 6.30124,7.45116 6.29719,7.4599 6.2932,7.46852 6.28929,7.47701 6.28546,7.48533 6.28172,7.49348 6.2781,7.50141 6.27459,7.50913 6.27122,7.51659 6.26798,7.52378 6.2649,7.53067 6.26198,7.53724 6.25924,7.54348 6.25669,7.54936 6.25433,7.55485 6.25219,7.55994 6.25027,7.56459 6.24858,7.5688 6.24714,7.57253 6.24595,7.57576 6.24503,7.57848 6.24439,7.58065 6.24404,7.58226 2.45778,3.79599 2.45813,3.79438 2.45876,3.7922 2.45969,3.78949 2.46087,3.78626 2.46231,3.78252 2.464,3.77832 2.46593,3.77367 2.46807,3.76858 2.47042,3.76309 2.47297,3.75721 2.47571,3.75097 2.47863,3.7444 2.48171,3.7375 2.48495,3.73031 2.48832,3.72285 2.49183,3.71514 2.49546,3.7072 2.49919,3.69906 2.50302,3.69074 2.50693,3.68225 2.51092,3.67363 2.51497,3.66489 2.51907,3.65606 2.52321,3.64715 2.52737,3.6382 2.53156,3.62923 2.53574,3.62025 2.53993,3.61129 2.54409,3.60237 2.54822,3.59352 2.55231,3.58475 "/>
     <polygon id="_655961688" class="fil1" points="2.69532,3.67993 6.48159,7.4662 6.47663,7.4644 6.47171,7.46248 6.46682,7.46048 6.46197,7.45837 6.45715,7.45616 6.45237,7.45385 6.44762,7.45144 6.44291,7.44894 6.43824,7.44635 6.43361,7.44366 6.42902,7.44088 6.42446,7.438 6.41995,7.43504 6.41547,7.43198 6.41104,7.42883 6.40665,7.42559 6.4023,7.42227 6.398,7.41885 6.39374,7.41535 6.38952,7.41177 6.38535,7.4081 6.38122,7.40434 6.37715,7.4005 2.59088,3.61423 2.59496,3.61807 2.59908,3.62183 2.60326,3.6255 2.60747,3.62908 2.61173,3.63258 2.61604,3.636 2.62038,3.63932 2.62478,3.64256 2.6292,3.6457 2.63368,3.64876 2.63819,3.65173 2.64275,3.65461 2.64734,3.65739 2.65198,3.66008 2.65665,3.66267 2.66135,3.66517 2.6661,3.66758 2.67089,3.66989 2.6757,3.67209 2.68056,3.6742 2.68544,3.67621 2.69037,3.67813 "/>
     <polygon id="_655962336" class="fil1" points="2.20429,3.69169 5.99056,7.47796 5.98541,7.48708 5.98002,7.49562 5.9744,7.50354 5.96852,7.51078 5.96239,7.5173 5.95597,7.52304 5.94928,7.52796 5.94229,7.53202 5.935,7.53515 5.92739,7.53732 5.91946,7.53847 5.91119,7.53855 5.90257,7.53752 5.8936,7.53532 5.88427,7.53191 5.87455,7.52724 2.08828,3.74097 2.098,3.74564 2.10733,3.74905 2.11631,3.75125 2.12492,3.75228 2.13319,3.7522 2.14112,3.75105 2.14873,3.74888 2.15602,3.74575 2.16301,3.74169 2.1697,3.73677 2.17612,3.73102 2.18226,3.72451 2.18813,3.71727 2.19376,3.70935 2.19914,3.70081 "/>
     <polygon id="_655962024" class="fil1" points="2.08828,3.74097 5.87455,7.52724 5.86973,7.52465 5.86494,7.52205 5.86019,7.51946 5.85546,7.51686 5.85077,7.51426 5.8461,7.51167 5.84147,7.50907 5.83687,7.50648 5.8323,7.50388 5.82776,7.50128 5.82326,7.49868 5.81878,7.49608 5.81433,7.49348 5.80992,7.49089 5.80553,7.48828 5.80118,7.48569 2.01491,3.69941 2.01926,3.70201 2.02365,3.70461 2.02806,3.70721 2.03251,3.70981 2.03699,3.71241 2.0415,3.71501 2.04603,3.71761 2.0506,3.7202 2.0552,3.7228 2.05983,3.7254 2.0645,3.72799 2.06919,3.73059 2.07392,3.73319 2.07867,3.73578 2.08346,3.73838 "/>
     <polygon id="_655961760" class="fil1" points="2.85398,3.68302 6.64025,7.4693 6.63707,7.47026 6.63387,7.47119 6.63067,7.47207 6.62745,7.47291 6.62422,7.47371 6.62098,7.47447 6.61772,7.47519 6.61446,7.47586 2.82819,3.68959 2.83146,3.68891 2.83471,3.6882 2.83795,3.68744 2.84118,3.68664 2.8444,3.6858 2.84761,3.68492 2.8508,3.68399 "/>
     <polygon id="_655961592" class="fil1" points="2.82819,3.68959 6.61446,7.47586 6.6132,7.47815 6.61204,7.48032 6.61098,7.48237 6.61003,7.48431 6.60919,7.48611 6.60847,7.48778 6.60787,7.48931 6.60739,7.4907 2.82113,3.70443 2.8216,3.70304 2.8222,3.70151 2.82292,3.69984 2.82376,3.69804 2.82471,3.6961 2.82577,3.69405 2.82693,3.69187 "/>
     <polygon id="_655961736" class="fil1" points="1.98131,3.67869 5.76758,7.46496 5.7539,7.45615 5.74055,7.44733 5.72754,7.4385 5.71487,7.42966 5.70253,7.42081 5.69051,7.41195 5.67882,7.40307 5.66745,7.39418 5.6564,7.38527 5.64567,7.37635 5.63525,7.36741 5.62514,7.35845 1.83887,3.57218 1.84898,3.58114 1.8594,3.59008 1.87013,3.599 1.88118,3.60791 1.89255,3.6168 1.90424,3.62568 1.91626,3.63454 1.9286,3.64339 1.94128,3.65223 1.95428,3.66106 1.96763,3.66987 "/>
     <polygon id="_655962264" class="fil1" points="2.01491,3.69941 5.80118,7.48569 5.7672,7.46599 1.98093,3.67972 "/>
     <polygon id="_655962288" class="fil1" points="2.07781,4.10059 5.86408,7.88687 5.86314,7.89218 5.86091,7.89709 5.85754,7.9015 5.85317,7.9053 5.84794,7.90839 5.842,7.91067 5.83548,7.91204 5.82854,7.91239 2.04227,4.12612 2.04921,4.12577 2.05573,4.1244 2.06167,4.12212 2.0669,4.11903 2.07127,4.11523 2.07464,4.11082 2.07687,4.10591 "/>
     <polygon id="_655961616" class="fil1" points="2.29325,4.52579 6.07952,8.31206 6.07857,8.31895 6.07635,8.32533 6.07297,8.33105 6.0686,8.33598 6.06337,8.34 6.05743,8.34296 6.05091,8.34473 6.04397,8.34519 2.2577,4.55891 2.26465,4.55846 2.27116,4.55669 2.2771,4.55372 2.28233,4.54971 2.2867,4.54478 2.29008,4.53906 2.29231,4.53268 "/>
     <polygon id="_655962048" class="fil1" points="2.2577,4.55891 6.04397,8.34519 6.03707,8.34424 6.0307,8.34202 6.02498,8.33865 2.23871,4.55237 2.24443,4.55574 2.25081,4.55797 "/>
     <polygon id="_655961904" class="fil1" points="2.45778,3.79599 6.24404,7.58226 6.24357,7.58546 6.2431,7.58881 6.24264,7.59231 6.24217,7.59596 6.24171,7.59973 6.24126,7.60364 6.24081,7.60766 6.24036,7.6118 6.23991,7.61606 6.23947,7.62041 6.23904,7.62486 6.2386,7.6294 6.23818,7.63403 6.23775,7.63873 6.23733,7.6435 6.23692,7.64834 6.23651,7.65324 6.23611,7.65819 6.23571,7.66319 6.23532,7.66822 6.23493,7.67329 6.23455,7.67839 6.23418,7.6835 6.23381,7.68863 6.23344,7.69377 6.23309,7.69891 6.23273,7.70405 6.23239,7.70917 6.23205,7.71428 6.23172,7.71936 6.2314,7.72442 6.23108,7.72943 6.22972,7.73479 6.22638,7.74039 6.2212,7.7462 6.2143,7.7522 6.20583,7.75835 6.19591,7.76465 6.18468,7.77104 6.17226,7.77752 6.15879,7.78405 6.14441,7.7906 6.12924,7.79715 6.11342,7.80368 6.09708,7.81015 6.08035,7.81654 6.06337,7.82281 6.04627,7.82896 6.02918,7.83494 6.01223,7.84073 5.99555,7.84631 5.97928,7.85164 5.96356,7.8567 5.9485,7.86146 5.93425,7.86591 5.92094,7.87 5.90869,7.87371 5.89765,7.87702 5.88795,7.87989 5.87971,7.88231 5.87307,7.88424 5.86817,7.88567 5.86512,7.88655 5.86408,7.88687 2.07781,4.10059 2.07885,4.10028 2.0819,4.09939 2.0868,4.09797 2.09344,4.09604 2.10168,4.09362 2.11139,4.09074 2.12243,4.08744 2.13467,4.08372 2.14798,4.07963 2.16223,4.07519 2.17729,4.07043 2.19302,4.06537 2.20928,4.06004 2.22596,4.05446 2.24291,4.04867 2.26,4.04269 2.27711,4.03654 2.29409,4.03026 2.31081,4.02388 2.32715,4.01741 2.34297,4.01088 2.35814,4.00433 2.37252,3.99778 2.38599,3.99125 2.39841,3.98477 2.40964,3.97837 2.41956,3.97208 2.42804,3.96593 2.43493,3.95993 2.44011,3.95411 2.44345,3.94852 2.44481,3.94316 2.44513,3.93815 2.44545,3.93309 2.44578,3.92801 2.44612,3.9229 2.44646,3.91778 2.44682,3.91264 2.44717,3.9075 2.44754,3.90236 2.44791,3.89723 2.44828,3.89211 2.44867,3.88702 2.44905,3.88195 2.44944,3.87691 2.44984,3.87192 2.45024,3.86697 2.45065,3.86207 2.45107,3.85723 2.45148,3.85246 2.45191,3.84776 2.45233,3.84313 2.45277,3.83859 2.4532,3.83414 2.45365,3.82978 2.45409,3.82553 2.45454,3.82139 2.45499,3.81737 2.45544,3.81346 2.45591,3.80969 2.45637,3.80604 2.45683,3.80254 2.4573,3.79919 "/>
     <polygon id="_655963104" class="fil1" points="2.82113,3.70443 6.60739,7.4907 6.60511,7.49778 6.60228,7.5063 6.59892,7.51615 6.59509,7.52724 6.59082,7.53945 6.58615,7.55269 6.58113,7.56684 6.5758,7.58181 6.57019,7.5975 6.56435,7.6138 6.55832,7.63059 6.55214,7.6478 6.54585,7.6653 6.53948,7.683 6.53309,7.70078 6.52671,7.71856 6.52039,7.73622 6.51415,7.75365 6.50805,7.77077 6.50213,7.78746 6.49641,7.80362 6.49096,7.81915 6.4858,7.83393 6.48098,7.84788 6.47654,7.86088 6.47252,7.87283 6.46896,7.88364 6.4659,7.89319 6.46338,7.90137 6.46144,7.90809 6.46013,7.91325 6.45948,7.91674 2.67321,4.13047 2.67386,4.12698 2.67517,4.12182 2.67711,4.1151 2.67963,4.10691 2.68269,4.09737 2.68626,4.08656 2.69028,4.07461 2.69472,4.06161 2.69954,4.04766 2.70469,4.03287 2.71015,4.01735 2.71586,4.00119 2.72178,3.9845 2.72788,3.96738 2.73412,3.94994 2.74044,3.93228 2.74682,3.91451 2.75322,3.89672 2.75958,3.87903 2.76587,3.86153 2.77206,3.84432 2.77809,3.82752 2.78393,3.81123 2.78953,3.79554 2.79487,3.78057 2.79989,3.76641 2.80455,3.75318 2.80882,3.74097 2.81265,3.72988 2.81601,3.72003 2.81885,3.71151 "/>
     <polygon id="_655962816" class="fil1" points="3.22082,4.36613 7.00709,8.1524 7.00754,8.15725 7.00927,8.16212 7.01219,8.16702 7.01622,8.17191 7.02126,8.1768 3.235,4.39053 3.22995,4.38564 3.22593,4.38074 3.223,4.37585 3.22128,4.37098 "/>
     <polygon id="_655962480" class="fil1" points="2.04227,4.12612 5.82854,7.91239 5.82164,7.91167 5.81526,7.90995 5.80954,7.90735 5.80461,7.90398 2.01834,4.11771 2.02328,4.12108 2.029,4.12368 2.03537,4.12539 "/>
     <polygon id="_655962552" class="fil1" points="2.67321,4.13047 6.45948,7.91674 6.459,7.92089 6.45854,7.92524 6.45807,7.92979 6.45761,7.93452 6.45715,7.93941 6.45669,7.94448 6.45624,7.94971 6.45579,7.95508 6.45535,7.9606 6.45491,7.96625 6.45447,7.97203 6.45404,7.97792 6.45361,7.98392 6.45319,7.99002 6.45277,7.99622 6.45235,8.0025 6.45194,8.00886 6.45154,8.01528 6.45115,8.02176 6.45075,8.0283 6.45037,8.03488 6.44998,8.04149 6.44961,8.04813 6.44924,8.05479 6.44887,8.06146 6.44852,8.06813 6.44817,8.07479 6.44782,8.08144 6.44748,8.08807 6.44715,8.09467 6.44683,8.10123 6.44651,8.10774 6.44515,8.11469 6.44181,8.12196 6.43663,8.1295 6.42974,8.13728 6.42126,8.14528 6.41134,8.15344 6.40011,8.16174 6.38769,8.17015 6.37422,8.17862 6.35984,8.18713 6.34467,8.19563 6.32885,8.2041 6.31252,8.2125 6.29579,8.22078 6.27881,8.22893 6.2617,8.23691 6.24461,8.24467 6.22766,8.25219 6.21098,8.25942 6.19472,8.26634 6.17899,8.27291 6.16393,8.27909 6.14969,8.28485 6.13637,8.29017 6.12413,8.29498 6.11309,8.29928 6.10338,8.30301 6.09515,8.30615 6.08851,8.30866 6.0836,8.3105 6.08056,8.31165 6.07952,8.31206 2.29325,4.52579 2.29429,4.52538 2.29733,4.52423 2.30224,4.52239 2.30888,4.51988 2.31711,4.51674 2.32682,4.513 2.33786,4.50871 2.3501,4.50389 2.36342,4.49858 2.37767,4.49282 2.39272,4.48664 2.40845,4.48007 2.42472,4.47315 2.44139,4.46591 2.45834,4.4584 2.47544,4.45063 2.49254,4.44266 2.50952,4.43451 2.52625,4.42622 2.54259,4.41783 2.55841,4.40936 2.57357,4.40085 2.58796,4.39235 2.60143,4.38387 2.61384,4.37547 2.62507,4.36717 2.635,4.359 2.64347,4.35101 2.65036,4.34323 2.65554,4.33569 2.65888,4.32842 2.66024,4.32147 2.66056,4.31496 2.66089,4.3084 2.66122,4.3018 2.66156,4.29517 2.6619,4.28852 2.66225,4.28185 2.66261,4.27519 2.66297,4.26852 2.66334,4.26186 2.66372,4.25522 2.6641,4.24861 2.66448,4.24203 2.66488,4.23549 2.66528,4.22901 2.66568,4.22259 2.66609,4.21623 2.6665,4.20995 2.66692,4.20375 2.66734,4.19765 2.66777,4.19165 2.6682,4.18576 2.66864,4.17998 2.66908,4.17433 2.66952,4.16881 2.66997,4.16344 2.67043,4.15821 2.67088,4.15314 2.67134,4.14824 2.6718,4.14352 2.67227,4.13897 2.67274,4.13462 "/>
     <polygon id="_655962864" class="fil1" points="3.15411,4.18449 6.94038,7.97076 6.93339,7.96823 6.92635,7.96564 6.91927,7.96301 6.91217,7.96034 6.90506,7.95763 6.89798,7.95491 6.89093,7.95215 6.88393,7.94939 6.877,7.94661 6.87017,7.94383 6.86344,7.94105 6.85685,7.93828 6.8504,7.93552 6.84411,7.93278 6.838,7.93006 6.83209,7.92738 6.8264,7.92473 6.82095,7.92213 6.81575,7.91957 6.81083,7.91707 6.8062,7.91463 6.80187,7.91225 6.79788,7.90994 6.79423,7.90771 6.79095,7.90556 6.78805,7.90351 6.78555,7.90154 6.78347,7.89968 2.9972,4.11341 2.99928,4.11527 3.00178,4.11724 3.00468,4.11929 3.00796,4.12144 3.01161,4.12367 3.01561,4.12598 3.01993,4.12835 3.02456,4.1308 3.02948,4.1333 3.03469,4.13585 3.04013,4.13846 3.04582,4.14111 3.05173,4.14379 3.05784,4.14651 3.06413,4.14924 3.07058,4.152 3.07718,4.15478 3.08391,4.15756 3.09074,4.16034 3.09766,4.16311 3.10466,4.16588 3.11171,4.16863 3.1188,4.17136 3.1259,4.17407 3.133,4.17674 3.14008,4.17937 3.14713,4.18196 "/>
     <polygon id="_655962600" class="fil1" points="3.22917,4.20956 7.01544,7.99583 7.01512,8.00057 7.01481,8.00537 7.0145,8.0102 7.0142,8.01507 7.0139,8.01998 7.0136,8.02492 7.0133,8.02988 7.01301,8.03487 7.01272,8.03988 7.01243,8.0449 7.01215,8.04994 7.01187,8.05499 7.01159,8.06004 7.01132,8.06509 7.01106,8.07015 7.01079,8.0752 7.01053,8.08024 7.01027,8.08527 7.01002,8.09028 7.00976,8.09528 7.00952,8.10024 7.00928,8.10519 7.00904,8.11011 7.00881,8.11499 7.00857,8.11983 7.00835,8.12463 7.00813,8.12939 7.00791,8.13411 7.0077,8.13876 7.00749,8.14337 7.00729,8.14792 7.00709,8.1524 3.22082,4.36613 3.22102,4.36165 3.22122,4.3571 3.22143,4.35249 3.22165,4.34783 3.22186,4.34312 3.22208,4.33836 3.22231,4.33356 3.22254,4.32872 3.22277,4.32383 3.22301,4.31892 3.22325,4.31397 3.2235,4.309 3.22375,4.30401 3.224,4.299 3.22426,4.29397 3.22452,4.28893 3.22479,4.28388 3.22506,4.27882 3.22533,4.27377 3.2256,4.26872 3.22588,4.26367 3.22617,4.25863 3.22645,4.25361 3.22674,4.2486 3.22704,4.24361 3.22733,4.23865 3.22763,4.23371 3.22793,4.2288 3.22824,4.22393 3.22854,4.21909 3.22885,4.2143 "/>
     <polygon id="_655962936" class="fil1" points="3.4128,4.50954 7.19906,8.29581 7.19624,8.29545 7.19224,8.29453 7.18714,8.29309 7.18103,8.29116 7.17398,8.28877 7.16609,8.28595 7.15743,8.28273 7.14809,8.27915 7.13816,8.27524 7.12771,8.27103 7.11683,8.26654 7.1056,8.26182 7.09411,8.25689 7.08244,8.25179 7.07068,8.24654 7.0589,8.24118 7.04719,8.23574 7.03564,8.23025 7.02432,8.22474 7.01333,8.21925 7.00273,8.2138 6.99263,8.20843 6.9831,8.20317 6.97422,8.19805 6.96608,8.1931 6.95877,8.18835 6.95235,8.18384 6.94693,8.1796 6.94258,8.17565 3.15631,4.38938 3.16067,4.39333 3.16609,4.39757 3.1725,4.40208 3.17981,4.40683 3.18795,4.41178 3.19683,4.4169 3.20636,4.42216 3.21646,4.42753 3.22706,4.43298 3.23805,4.43847 3.24937,4.44398 3.26092,4.44946 3.27263,4.45491 3.28441,4.46027 3.29617,4.46552 3.30784,4.47062 3.31933,4.47555 3.33056,4.48027 3.34144,4.48476 3.35189,4.48897 3.36182,4.49288 3.37116,4.49646 3.37982,4.49968 3.38771,4.5025 3.39476,4.50489 3.40087,4.50682 3.40597,4.50826 3.40998,4.50918 "/>
     <polygon id="_655962672" class="fil1" points="3.44834,4.47642 7.23461,8.26269 7.23367,8.26959 7.23144,8.27596 7.22807,8.28168 7.2237,8.28661 7.21846,8.29063 7.21252,8.29359 7.20601,8.29536 7.19906,8.29581 3.4128,4.50954 3.41974,4.50909 3.42626,4.50731 3.4322,4.50436 3.43743,4.50034 3.4418,4.49541 3.44517,4.48969 3.4474,4.48331 "/>
     <polygon id="_655962960" class="fil1" points="3.00401,3.73633 6.79028,7.5226 6.78528,7.52172 6.7803,7.52078 6.77533,7.51979 6.77038,7.51875 6.76545,7.51766 6.76054,7.51651 6.75565,7.51531 6.75078,7.51406 6.74593,7.51276 6.74109,7.51141 6.73628,7.51 6.73148,7.50855 6.72671,7.50704 6.72195,7.50549 6.71722,7.50389 6.71251,7.50223 6.70782,7.50053 6.70315,7.49878 6.69851,7.49698 6.69388,7.49513 6.68928,7.49323 6.6847,7.49129 6.68015,7.4893 6.67562,7.48726 6.67111,7.48517 6.66663,7.48304 6.66217,7.48086 6.65773,7.47864 6.65332,7.47637 6.64894,7.47406 6.64458,7.4717 6.64025,7.4693 2.85398,3.68302 2.85831,3.68543 2.86267,3.68779 2.86706,3.6901 2.87146,3.69237 2.8759,3.69459 2.88036,3.69677 2.88484,3.6989 2.88935,3.70098 2.89388,3.70302 2.89844,3.70502 2.90302,3.70696 2.90761,3.70885 2.91224,3.7107 2.91689,3.7125 2.92155,3.71426 2.92624,3.71596 2.93095,3.71761 2.93569,3.71922 2.94044,3.72077 2.94521,3.72228 2.95001,3.72373 2.95482,3.72513 2.95966,3.72649 2.96451,3.72779 2.96938,3.72904 2.97428,3.73024 2.97919,3.73139 2.98411,3.73248 2.98906,3.73352 2.99403,3.73451 2.99901,3.73544 "/>
     <polygon id="_655963032" class="fil1" points="3.23585,4.13047 7.02212,7.91674 7.02159,7.92136 7.02107,7.92623 7.02056,7.93133 7.02005,7.93665 7.01954,7.94219 7.01904,7.94792 7.01854,7.95385 7.01804,7.95994 3.23178,4.17367 3.23227,4.16757 3.23277,4.16165 3.23327,4.15592 3.23378,4.15038 3.23429,4.14506 3.23481,4.13996 3.23533,4.13509 "/>
     <polygon id="_655963080" class="fil1" points="3.29125,4.18814 7.07752,7.97441 7.07658,7.98019 7.07435,7.98552 7.07098,7.99031 7.06661,7.99445 7.06138,7.99781 7.05543,8.00029 7.04892,8.00178 7.04197,8.00216 3.2557,4.21589 3.26265,4.2155 3.26917,4.21402 3.27511,4.21154 3.28034,4.20818 3.28471,4.20404 3.28808,4.19925 3.29031,4.19391 "/>
     <polygon id="_655963176" class="fil1" points="3.2557,4.21589 7.04197,8.00216 7.04028,8.00201 7.03808,8.00167 7.03539,8.00113 7.03224,8.00041 7.02864,7.99952 7.02463,7.99844 7.02022,7.99721 7.01544,7.99583 3.22917,4.20956 3.23395,4.21094 3.23836,4.21217 3.24237,4.21324 3.24597,4.21414 3.24912,4.21486 3.25181,4.2154 3.25401,4.21574 "/>
     <polygon id="_655963224" class="fil1" points="4.40706,4.44604 8.19333,8.23231 8.19566,8.23469 8.19774,8.23728 8.19955,8.24004 8.20109,8.24296 8.20234,8.24601 8.2033,8.24917 8.20396,8.25242 8.20429,8.25574 8.2043,8.2591 8.20398,8.26249 8.2033,8.26587 8.20227,8.26924 4.416,4.48297 4.41704,4.4796 4.41771,4.47622 4.41804,4.47283 4.41802,4.46947 4.41769,4.46615 4.41704,4.4629 4.41607,4.45974 4.41482,4.45669 4.41328,4.45377 4.41147,4.451 4.40939,4.44842 "/>
     <polygon id="_655963248" class="fil1" points="3.27531,3.95053 7.06158,7.7368 7.05976,7.74411 7.05795,7.75135 7.05617,7.75855 7.05441,7.76568 7.05269,7.77274 7.05098,7.77973 7.04931,7.78664 7.04767,7.79346 7.04607,7.8002 7.0445,7.80683 7.04296,7.81337 7.04146,7.81979 7.04,7.8261 7.03859,7.83229 7.03722,7.83836 7.03589,7.84429 7.03461,7.85009 7.03337,7.85574 7.03219,7.86125 7.03106,7.8666 7.02998,7.8718 7.02896,7.87682 7.02799,7.88168 7.02708,7.88636 7.02623,7.89086 7.02544,7.89517 7.02472,7.89928 7.02407,7.90319 7.02347,7.9069 7.02295,7.9104 7.0225,7.91368 7.02212,7.91674 3.23585,4.13047 3.23623,4.12741 3.23669,4.12413 3.2372,4.12063 3.2378,4.11692 3.23846,4.11301 3.23918,4.10889 3.23996,4.10459 3.24081,4.10009 3.24172,4.09541 3.24269,4.09055 3.24371,4.08552 3.24479,4.08033 3.24592,4.07498 3.24711,4.06947 3.24834,4.06382 3.24962,4.05802 3.25095,4.05209 3.25232,4.04602 3.25374,4.03983 3.25519,4.03352 3.25669,4.02709 3.25823,4.02056 3.2598,4.01393 3.26141,4.00719 3.26305,4.00037 3.26472,3.99346 3.26642,3.98647 3.26815,3.97941 3.2699,3.97228 3.27168,3.96508 3.27349,3.95783 "/>
     <polygon id="_655963296" class="fil1" points="3.32856,3.74777 7.11482,7.53404 7.1133,7.53965 7.11174,7.54535 7.11018,7.55113 7.10859,7.55698 7.10699,7.56291 7.10537,7.56891 7.10374,7.57496 7.1021,7.58109 7.10044,7.58727 7.09878,7.59351 7.0971,7.59979 7.09541,7.60613 7.09372,7.6125 7.09202,7.61892 7.09031,7.62537 7.0886,7.63185 7.08689,7.63836 7.08517,7.64489 7.08346,7.65145 7.08174,7.65802 7.08003,7.66461 7.07832,7.6712 7.07661,7.6778 7.07491,7.6844 7.07321,7.691 7.07152,7.69759 7.06983,7.70417 7.06816,7.71074 7.0665,7.71729 7.06484,7.72382 7.0632,7.73033 7.06158,7.7368 3.27531,3.95053 3.27694,3.94406 3.27857,3.93755 3.28023,3.93102 3.28189,3.92447 3.28357,3.9179 3.28525,3.91131 3.28694,3.90472 3.28864,3.89813 3.29034,3.89153 3.29205,3.88493 3.29376,3.87833 3.29548,3.87175 3.29719,3.86518 3.29891,3.85862 3.30062,3.85209 3.30233,3.84558 3.30404,3.83909 3.30575,3.83265 3.30745,3.82623 3.30914,3.81985 3.31083,3.81352 3.31251,3.80724 3.31417,3.801 3.31583,3.79482 3.31748,3.78869 3.31911,3.78263 3.32072,3.77664 3.32233,3.77071 3.32391,3.76485 3.32548,3.75908 3.32703,3.75338 "/>
    </g>
    <path id="_637651480" class="fil1" d="M3.14906 2.79617c0.231614,-0.011689 2.15238,-0.28987 2.13075,-0.107909 -0.0350354,0.294724 -0.204787,0.56524 -0.739685,0.667028 0.140327,0.0759685 0.284528,0.164209 0.302154,0.274504 0.00733465,0.0459331 -0.0487756,0.0745354 -0.147563,0.0903189 -0.0686417,0.0072874 -0.137453,0.0132323 -0.206386,0.0180433 -0.115677,0.224445 -0.301992,0.538122 -0.270311,0.655272 0.00435433,0.0161063 0.0170827,0.0161535 0.0325118,0.0162047 0.0102598,3.14961e-005 0.0210669,7.08661e-005 0.0317283,0.00131496 0.0543228,0.00633071 0.112972,0.0279331 0.113142,0.0279921 0.0178465,0.0064685 0.0270669,0.026185 0.0205984,0.0440315 -0.0064685,0.0178465 -0.0261811,0.0270669 -0.0440315,0.0205984 -0.000145669,-5.11811e-005 -0.0510787,-0.0188071 -0.0975197,-0.0242205 -0.00851969,-0.000992126 -0.0164213,-0.00101969 -0.0239173,-0.00104724 -0.0443701,-0.000149606 -0.0809528,-0.000279528 -0.0990236,-0.0671024 -0.0190906,-0.0705906 0.0929803,-0.299417 0.155165,-0.513004 0.0169724,-0.0582874 0.0301732,-0.109059 0.0399961,-0.151697 -0.069252,0.00335827 -0.138598,0.0057126 -0.208,0.00727165 -0.074752,0.100972 -0.142646,0.202516 -0.124693,0.249402 0.00355118,0.00927559 0.0139291,0.00930315 0.0265079,0.00933071 0.00836614,1.9685e-005 0.0171772,4.33071e-005 0.025874,0.000759843 0.0442913,0.00364567 0.0921142,0.0160827 0.092248,0.0161181 0.0145551,0.00372835 0.0220709,0.0150787 0.0167992,0.0253583 -0.00527559,0.0102756 -0.0213504,0.0155866 -0.0359016,0.0118622 -0.00011811,-3.14961e-005 -0.0416496,-0.0108307 -0.0795157,-0.0139488 -0.00694882,-0.000570866 -0.0133898,-0.000586614 -0.0195039,-0.000602362 -0.0361772,-8.66142e-005 -0.0660039,-0.000161417 -0.0807402,-0.0386417 -0.0140079,-0.0365866 0.0586024,-0.146972 0.110228,-0.25835 -0.247232,0.00375197 -0.494992,-0.00175591 -0.741421,-0.00728346 -0.0161969,0.0593937 -0.0359764,0.133839 -0.0532441,0.20276 -0.0195709,0.0781339 -0.0357874,0.148524 -0.0394606,0.179937 -0.00140157,0.0119921 -0.00276378,0.0267126 -0.0040748,0.0432047 0.0339528,0.00888976 0.0594803,0.0143898 0.0594764,0.0144646 -0.000665354,0.0158819 -0.0165827,0.0283071 -0.0355472,0.027748 -0.00381102,-0.000114173 -0.0133031,-0.00242913 -0.0265354,-0.00633071 -0.0033622,0.0503858 -0.00625197,0.109083 -0.00834646,0.156575 -0.00226772,0.0514921 0.227528,0.11002 0.22752,0.110291 -0.000669291,0.0189606 -0.0165866,0.0337913 -0.0355472,0.033122 -0.0234882,-0.000822835 -0.262862,-0.101579 -0.262264,-0.129894 0.00116535,-0.055189 0.00217323,-0.122819 0.00358268,-0.195157 -0.074185,-0.0267677 -0.161031,-0.0631181 -0.160669,-0.0774173 0.00246063,-0.0974803 0.00419685,-0.241291 0.010563,-0.370748 -0.0534173,-0.00911811 -0.103949,-0.0274291 -0.150028,-0.0533031 -0.00846457,0.00263386 -0.0170669,0.00482677 -0.0257874,0.00656299 -0.00349606,0.00624409 -0.0059685,0.0113386 -0.00706693,0.0148425 -0.0211929,0.0674921 -0.144654,0.39811 -0.147917,0.426039 -0.00505118,0.0432047 -0.00961811,0.121823 -0.0129646,0.191 -0.00350394,0.0723661 -0.366984,0.203972 -0.366996,0.204319 -0.000669291,0.0189646 -0.0165866,0.0337913 -0.0355472,0.033126 -0.0189646,-0.000665354 -0.0337913,-0.0165866 -0.033126,-0.0355472 1.1811e-005,-0.000311024 0.363055,-0.119406 0.365921,-0.181819 0.00346457,-0.0755354 0.00859055,-0.169969 0.014311,-0.21889 0.00407087,-0.034815 0.0107953,-0.13685 0.0309803,-0.217437 0.0187559,-0.0748701 0.0415748,-0.16002 0.0595354,-0.225287 -0.0530394,-0.018752 -0.100472,-0.0549331 -0.138976,-0.103843 -0.042752,0.0916969 -0.0964331,0.205807 -0.0985709,0.219898 -0.00505118,0.0332913 -0.00961811,0.0938701 -0.0129646,0.147173 -0.00350394,0.0557598 -0.366984,0.157165 -0.367,0.157433 -0.000665354,0.0146102 -0.0165827,0.0260394 -0.0355433,0.0255236 -0.0189646,-0.000511811 -0.0337913,-0.0127795 -0.033126,-0.0273898 1.1811e-005,-0.000240157 0.363055,-0.0920039 0.365921,-0.140094 0.00346457,-0.0582047 0.00859055,-0.130969 0.014311,-0.168661 0.00407087,-0.0268307 0.0107953,-0.105449 0.0309803,-0.167543 0.00560236,-0.0172323 0.0115669,-0.0351693 0.0176575,-0.0531969 -0.0595039,-0.013878 -0.111992,-0.0502047 -0.151835,-0.101697 -0.00187008,-0.00241732 -0.0037126,-0.00486614 -0.00552362,-0.00735433l-0.022563 0.072748c-0.00302362,0.00975197 -0.00664567,0.0226693 -0.0104685,0.0362992 -0.0113465,0.0404921 -0.0244882,0.0873622 -0.0433307,0.122465 -0.026878,0.0500787 -0.0631693,0.0776378 -0.116008,0.0492795 -0.0257913,-0.0138425 -0.0502323,-0.027689 -0.073374,-0.0415591l-0.0339764 -0.0196969c0.000125984,-0.00034252 0.000251969,-0.000688976 0.000377953,-0.0010315 -0.147768,-0.0939252 -0.237205,-0.189197 -0.283677,-0.291012 -0.0577087,-0.126417 -0.0486654,-0.259661 -0.00190945,-0.410429l0.00217323 -0.00670472c0.00933071,-0.0278307 0.0223189,-0.0533622 0.0382244,-0.0762008 -0.188953,-0.322252 -0.234197,-0.500465 -0.146323,-0.596689 0.0977992,-0.107094 0.799409,0.111343 1.34463,0.0646299 -0.493339,0.11878 -1.17879,-0.1585 -1.30271,-0.0227992 -0.0625827,0.0685315 -0.0104606,0.221689 0.152469,0.501264 0.0166929,-0.0145394 0.0348976,-0.0270512 0.0542047,-0.0373189 0.0640157,-0.0340433 0.140217,-0.0435157 0.213992,-0.0206378l0.00617323 0.002c0.0810984,0.027185 0.148551,0.0783465 0.197425,0.14348 0.00899213,-0.0267638 0.0191063,-0.048937 0.0301969,-0.0632756 0.104488,-0.0207992 0.26689,-0.0329843 0.375421,-0.00997638 0.0363583,-0.018811 0.0760079,-0.0290984 0.117701,-0.0290984 0.0311339,0 0.0611299,0.00573622 0.0894685,0.0164764 0.00314567,-0.00210236 0.0064685,-0.00409055 0.00997638,-0.00596063 0.0445748,-0.0237756 0.139764,-0.0336772 0.270319,-0.0402638z"/>
   </g>
  </g>
  <path class="fil2" d="M3.41333 -3.93701e-006c1.88513,0 3.41333,1.5282 3.41333,3.41333 0,1.88513 -1.5282,3.41333 -3.41333,3.41333 -1.88513,0 -3.41333,-1.5282 -3.41333,-3.41333 0,-1.88513 1.5282,-3.41333 3.41333,-3.41333z"/>
  <path class="fil3" d="M3.62521 3.60639c-0.0152756,0.00175591 -0.113055,-0.0605394 -0.115543,-0.0713307 -0.00248425,-0.0107913 0.00788583,-0.0209646 0.0231654,-0.0227205 0.00181496,-0.000208661 0.723315,-0.0674449 0.766913,-0.0250512 0.0562087,0.0397008 -0.325543,0.411992 -0.285764,0.515886 0.00355118,0.00927559 0.0139291,0.00930315 0.0265079,0.00933071 0.00836614,1.9685e-005 0.0171772,4.33071e-005 0.025874,0.000759843 0.0442913,0.00364567 0.0921142,0.0160827 0.092248,0.0161181 0.0145551,0.00372835 0.0220709,0.0150787 0.0167992,0.0253583 -0.00527559,0.0102756 -0.0213504,0.0155866 -0.0359016,0.0118622 -0.00011811,-3.14961e-005 -0.0416496,-0.0108307 -0.0795157,-0.0139488 -0.00694882,-0.000570866 -0.0133898,-0.000586614 -0.0195039,-0.000602362 -0.0361772,-8.66142e-005 -0.0660039,-0.000161417 -0.0807402,-0.0386417 -0.015563,-0.0406535 0.075815,-0.172429 0.12652,-0.295433 0.044,-0.106728 0.0569331,-0.169705 0.0489606,-0.177457 -0.0229134,-0.0222795 -0.508303,0.0656732 -0.51002,0.0658701z"/>
  <path class="fil3" d="M3.30467 3.35267c0.0166575,-0.00766142 0.0375787,-0.00256299 0.0467244,0.0113898 0.00914173,0.0139528 0.00305906,0.0314764 -0.0135984,0.0391339 -0.000358268,0.000169291 -0.12628,0.0582126 -0.135323,0.0823465 -0.00820472,0.0218858 -0.0509094,0.150614 -0.084248,0.262091 -0.0195748,0.0654449 -0.0357874,0.124409 -0.0394606,0.150724 -0.00618504,0.044311 -0.0116417,0.133114 -0.0150276,0.197402 -0.00227165,0.0431339 0.227528,0.0921575 0.227516,0.0923858 -0.000665354,0.0158819 -0.0165827,0.0283071 -0.0355472,0.027748 -0.0234843,-0.000692913 -0.262858,-0.0850906 -0.26226,-0.108811 0.00472047,-0.187138 0.0067874,-0.545004 0.0440157,-0.644327 0.0173937,-0.0464173 0.26678,-0.109886 0.267209,-0.110083z"/>
  <path class="fil3" d="M2.68368 3.29403c0.0166575,-0.00704724 0.0375748,-0.00235433 0.0467205,0.0104803 0.00914567,0.0128307 0.00305906,0.0289528 -0.0135984,0.036 -0.000358268,0.000153543 -0.102067,0.105004 -0.11111,0.127201 -0.0211929,0.0520079 -0.144654,0.306756 -0.147917,0.328276 -0.00505118,0.0332913 -0.00961811,0.0938701 -0.0129646,0.147173 -0.00350394,0.0557598 -0.366984,0.157165 -0.367,0.157433 -0.000665354,0.0146102 -0.0165827,0.0260394 -0.0355433,0.0255236 -0.0189646,-0.000511811 -0.0337913,-0.0127795 -0.033126,-0.0273898 1.1811e-005,-0.000240157 0.363055,-0.0920039 0.365921,-0.140094 0.00346457,-0.0582047 0.00859055,-0.130969 0.014311,-0.168661 0.00407087,-0.0268307 0.0107953,-0.105449 0.0309803,-0.167543 0.0336024,-0.10335 0.0802402,-0.232114 0.088622,-0.252693 0.0174016,-0.0427008 0.174276,-0.0755197 0.174705,-0.0757047z"/>
  <path class="fil4" d="M4.4971 3.33223c0.152354,0.0811102 0.325744,0.175925 0.345181,0.297563 0.00733465,0.0459331 -0.0487756,0.0745354 -0.147563,0.0903189 -0.491622,0.052189 -0.99172,0.0356457 -1.48525,0.0250276 -0.0603307,-0.00129528 -0.102906,-0.00221654 -0.127409,-0.00221654 -0.132787,0 -0.253461,-0.0564291 -0.340902,-0.147343 -0.0871063,-0.090563 -0.141177,-0.215358 -0.141177,-0.352504l0 -3.93701e-006c0,-0.0925787 0.0355079,-0.177055 0.0930906,-0.239449 0.0432756,-0.0468937 0.0990748,-0.0813346 0.161736,-0.0974488 -0.0611339,0.211693 1.21832,0.0737638 1.6423,0.426055z"/>
  <g style="clip-path:url(#id1)">
   <g id="_637668784">
    <g>
     <path id="_6376693601" class="fil5" d="M2.95864 3.72493c0.245079,0.0110551 0.290547,-0.279437 0.274862,-0.466657 -0.00251969,-0.0300709 -0.0145866,-0.0544252 -0.0197913,-0.0800157 0.0177953,0.00235039 0.0389961,0.0653228 0.0415118,0.0777165 0.0459528,0.22652 -0.0201811,0.534055 -0.298094,0.533571l0.00151181 -0.0646142z"/>
     <path id="_637669336" class="fil5" d="M3.27955 3.74512c0.245079,0.0110512 0.290547,-0.279437 0.274862,-0.466657 -0.00251575,-0.0300748 -0.0145866,-0.0544291 -0.0197913,-0.0800157 0.0177992,0.00235039 0.039,0.0653228 0.0415118,0.0777165 0.0459567,0.22652 -0.0201811,0.534055 -0.298094,0.533571l0.00151181 -0.0646142z"/>
     <path id="_637669744" class="fil5" d="M3.61704 3.73941c0.218736,0.00986614 0.259319,-0.249406 0.245319,-0.416504 -0.00224803,-0.0268425 -0.0130197,-0.0485787 -0.0176614,-0.0714134 0.0158819,0.00209449 0.0348031,0.0582992 0.0370472,0.0693622 0.0410157,0.202173 -0.0180118,0.476657 -0.266055,0.476224l0.00135039 -0.0576693z"/>
     <path id="_637669552" class="fil5" d="M3.91326 3.75736c0.21874,0.00986614 0.259323,-0.249402 0.245323,-0.4165 -0.00224803,-0.0268425 -0.0130197,-0.0485787 -0.0176654,-0.0714173 0.0158858,0.00209843 0.0348071,0.0583031 0.0370512,0.0693622 0.0410157,0.202177 -0.0180118,0.476657 -0.266055,0.476228l0.00134646 -0.0576732z"/>
     <path id="_637669624" class="fil5" d="M4.17133 3.74839c0.21874,0.00986614 0.259323,-0.249406 0.245323,-0.4165 -0.00224803,-0.0268425 -0.0130197,-0.0485787 -0.0176654,-0.0714173 0.0158858,0.00209843 0.0348071,0.0583031 0.0370512,0.0693622 0.0410157,0.202173 -0.0180118,0.476657 -0.266055,0.476228l0.00134646 -0.0576732z"/>
     <path id="_637668856" class="fil5" d="M4.39324 3.74036c0.176354,0.00795669 0.209071,-0.201075 0.197787,-0.335795 -0.00181496,-0.0216417 -0.0105,-0.0391654 -0.0142441,-0.0575748 0.0128071,0.00168898 0.028063,0.0470039 0.0298701,0.0559213 0.0330709,0.162996 -0.0145197,0.384295 -0.2145,0.383945l0.00108661 -0.0464961z"/>
     <path id="_637668568" class="fil5" d="M4.58606 3.72829c0.148102,0.0066811 0.175579,-0.168866 0.166098,-0.282004 -0.00151969,-0.0181732 -0.00881496,-0.0328898 -0.0119567,-0.0483543 0.010752,0.00142126 0.023563,0.0394764 0.0250827,0.0469646 0.0277717,0.136886 -0.0121929,0.322732 -0.180138,0.322441l0.000913386 -0.0390472z"/>
    </g>
   </g>
  </g>
  <path class="fil6" d="M4.4971 3.33223c0.152354,0.0811102 0.325744,0.175925 0.345181,0.297563 0.00733465,0.0459331 -0.0487756,0.0745354 -0.147563,0.0903189 -0.491622,0.052189 -0.99172,0.0356457 -1.48525,0.0250276 -0.0603307,-0.00129528 -0.102906,-0.00221654 -0.127409,-0.00221654 -0.132787,0 -0.253461,-0.0564291 -0.340902,-0.147343 -0.0871063,-0.090563 -0.141177,-0.215358 -0.141177,-0.352504l0 -3.93701e-006c0,-0.0925787 0.0355079,-0.177055 0.0930906,-0.239449 0.0432756,-0.0468937 0.0990748,-0.0813346 0.161736,-0.0974488 -0.0611339,0.211693 1.21832,0.0737638 1.6423,0.426055z"/>
  <path class="fil7" d="M1.80941 2.88356c0.00966929,0.0162835 0.00430315,0.0373228 -0.0119843,0.0469921 -0.0162835,0.00966535 -0.0373228,0.00429921 -0.0469921,-0.0119843 -0.200941,-0.337594 -0.250685,-0.522303 -0.160634,-0.620913 0.0977992,-0.107094 0.799409,0.111343 1.34463,0.0646299 -0.493339,0.11878 -1.17879,-0.1585 -1.30271,-0.0227992 -0.0657047,0.0719528 -0.00497244,0.237189 0.177693,0.544075z"/>
  <path class="fil3" d="M3.74122 3.70443c-0.0187362,0.00304724 -0.138657,-0.10513 -0.141705,-0.123866 -0.00304724,-0.0187362 0.00966929,-0.0364055 0.0284094,-0.0394528 0.00222441,-0.000362205 0.887098,-0.117114 0.940567,-0.0435 0.068937,0.068937 -0.399256,0.715406 -0.350469,0.895815 0.00435433,0.0161063 0.0170827,0.0161535 0.0325118,0.0162047 0.0102598,3.14961e-005 0.0210669,7.08661e-005 0.0317283,0.00131496 0.0543228,0.00633071 0.112972,0.0279331 0.113142,0.0279921 0.0178465,0.0064685 0.0270669,0.026185 0.0205984,0.0440315 -0.0064685,0.0178465 -0.0261811,0.0270669 -0.0440315,0.0205984 -0.000145669,-5.11811e-005 -0.0510787,-0.0188071 -0.0975197,-0.0242205 -0.00851969,-0.000992126 -0.0164213,-0.00101969 -0.0239173,-0.00104724 -0.0443701,-0.000149606 -0.0809528,-0.000279528 -0.0990236,-0.0671024 -0.0190906,-0.0705906 0.0929803,-0.299417 0.155165,-0.513004 0.0539646,-0.185335 0.0698268,-0.294685 0.0600472,-0.308146 -0.0280984,-0.038689 -0.623398,0.114035 -0.625504,0.114382z"/>
  <path class="fil3" d="M3.46176 3.47902c0.0166575,-0.00914567 0.0375787,-0.00305906 0.0467244,0.0135984 0.00914567,0.0166575 0.00305906,0.0375787 -0.0135984,0.0467244 -0.000358268,0.00019685 -0.12628,0.0694921 -0.135323,0.0982992 -0.00820079,0.0261299 -0.0509055,0.179807 -0.084248,0.312886 -0.0195709,0.0781339 -0.0357874,0.148524 -0.0394606,0.179937 -0.0061811,0.0529016 -0.0116417,0.158913 -0.0150276,0.235661 -0.00226772,0.0514921 0.227528,0.11002 0.22752,0.110291 -0.000669291,0.0189606 -0.0165866,0.0337913 -0.0355472,0.033122 -0.0234882,-0.000822835 -0.262862,-0.101579 -0.262264,-0.129894 0.00472441,-0.223406 0.0067874,-0.650634 0.0440157,-0.769205 0.0173976,-0.0554134 0.26678,-0.131185 0.267209,-0.131421z"/>
  <path class="fil8" d="M2.69853 2.86499c0.0479213,0.061937 0.077563,0.270118 0.077563,0.362984 0,0.0928701 -0.0296417,0.177618 -0.077563,0.239555 -0.0515906,0.066689 -0.124402,0.107937 -0.206173,0.107937 -0.0817795,0 -0.154583,-0.041248 -0.206181,-0.107933 -0.0479252,-0.0619409 -0.077563,-0.146689 -0.077563,-0.239559 0,-0.0928661 0.0296457,-0.301047 0.077563,-0.362984 0.117169,-0.0233228 0.307161,-0.035815 0.412354,0z"/>
  <path class="fil9" d="M2.7793 2.82592c0.0933228,0 0.176425,0.0515472 0.235303,0.134878 0.0546929,0.0774016 0.0885236,0.183307 0.0885236,0.299362 0,0.116051 -0.0338307,0.221957 -0.0885236,0.299358 -0.058878,0.0833346 -0.141976,0.134882 -0.235303,0.134882 -0.0933307,0 -0.176421,-0.0515472 -0.235311,-0.134878 -0.0546929,-0.0774055 -0.0885236,-0.183311 -0.0885236,-0.299362 0,-0.116055 0.0338386,-0.221965 0.0885236,-0.299362 0.0588898,-0.0833307 0.14198,-0.134878 0.235311,-0.134878z"/>
  <path class="fil10" d="M2.87874 2.83643c0.0445748,-0.0237756 0.139764,-0.0336772 0.270319,-0.0402638 0.231614,-0.011689 2.15238,-0.28987 2.13075,-0.107909 -0.0407559,0.342862 -0.263835,0.652969 -1.03202,0.702768 -0.0702126,-0.00540551 -1.30178,-0.183941 -1.34166,-0.219677 -0.0355709,-0.0318701 -0.15752,-0.265516 -0.0273858,-0.334917z"/>
  <path class="fil9" d="M1.69763 3.38767c-0.0577087,-0.126417 -0.0486654,-0.259661 -0.00190945,-0.410429 0.000614173,-0.00198425 0.00135039,-0.00424409 0.00217323,-0.00670472 0.025126,-0.0749528 0.0767992,-0.133244 0.140492,-0.167114 0.0640157,-0.0340433 0.140217,-0.0435157 0.213992,-0.0206378 0.00179134,0.000555118 0.00386614,0.00122835 0.00617323,0.002 0.107811,0.0361378 0.191508,0.114654 0.239492,0.212028 0.0478307,0.0970591 0.0602559,0.212976 0.0257323,0.324307l-0.065689 0.211807c-0.00302362,0.00975197 -0.00664567,0.0226693 -0.0104685,0.0362992 -0.0113465,0.0404921 -0.0244882,0.0873622 -0.0433307,0.122465 -0.026878,0.0500787 -0.0631693,0.0776378 -0.116008,0.0492795 -0.213,-0.114319 -0.333882,-0.228929 -0.39065,-0.353299z"/>
  <path class="fil3" d="M2.89911 3.47902c0.0166575,-0.00914567 0.0375787,-0.00305906 0.0467205,0.0135984 0.00914567,0.0166575 0.00305906,0.0375787 -0.0135984,0.0467244 -0.000358268,0.00019685 -0.102067,0.136276 -0.11111,0.165083 -0.0211929,0.0674921 -0.144654,0.39811 -0.147917,0.426039 -0.00505118,0.0432047 -0.00961811,0.121823 -0.0129646,0.191 -0.00350394,0.0723661 -0.366984,0.203972 -0.366996,0.204319 -0.000669291,0.0189646 -0.0165866,0.0337913 -0.0355472,0.033126 -0.0189646,-0.000665354 -0.0337913,-0.0165866 -0.033126,-0.0355472 1.1811e-005,-0.000311024 0.363055,-0.119406 0.365921,-0.181819 0.00346457,-0.0755354 0.00859055,-0.169969 0.014311,-0.21889 0.00407087,-0.034815 0.0107953,-0.13685 0.0309803,-0.217437 0.0336024,-0.134126 0.0802402,-0.30124 0.088622,-0.327945 0.0174016,-0.0554173 0.174276,-0.0980157 0.174705,-0.098252z"/>
  <path class="fil11" d="M1.98093 3.67972c0.065815,-0.178598 0.018,-0.150209 -0.112417,-0.248193l0.00198425 0.00122441c-0.0229764,-0.014315 -0.021252,-0.0542362 -0.016189,-0.0766339 0.00291732,0.0426654 -0.00824803,0.0530709 0.0673858,0.0854134 0.132579,0.0566969 0.166343,0.107098 0.119614,0.273193l-0.060378 -0.0350039z"/>
  <ellipse class="fil12" transform="matrix(0.479448 -0.147133 0.147133 0.479448 1.85711 3.11067)" rx="0.211807" ry="0.366319"/>
  <ellipse class="fil13" transform="matrix(0.384756 -0.118074 0.118074 0.384756 1.8344 3.07543)" rx="0.211807" ry="0.366319"/>
  <ellipse class="fil14" transform="matrix(0.0993758 -0.0304964 0.0304965 0.0993758 1.77717 3.05227)" rx="0.211807" ry="0.366319"/>
  <path class="fil15" d="M2.87981 3.11536c0.141413,-0.0668898 0.250583,-0.125126 0.527394,-0.178638 0.226614,-0.0438071 0.238146,-0.0354291 0.464689,-0.0345197 0.243689,0.000972441 0.15063,-0.0220709 0.354189,-0.064685 0.0403898,-0.00845276 0.233783,0.00719685 0.302902,0.00450394 0.160594,-0.00625591 0.348091,-0.0398268 0.476579,-0.145398 -0.0138386,0.0221929 -0.0085748,0.0175787 -0.0325669,0.0355945 -0.178921,0.13437 -0.43998,0.162087 -0.656524,0.145197 -0.138433,-0.0107953 -0.106205,0.0222835 -0.243209,0.0579646 -0.153717,0.0400315 -0.370535,-0.00179134 -0.573098,0.0409055 -0.376539,0.0793661 -0.399189,0.101157 -0.596776,0.199256l-0.0235787 -0.0601811z"/>
  <path class="fil15" d="M3.41642 2.97516c0.199071,0.106736 0.174224,0.199646 0.439894,0.245059l0.0428937 0.00826772c-0.0795906,0.0171063 -0.119976,0.011437 -0.200402,-0.0125197 -0.0835118,-0.024874 -0.284154,-0.163484 -0.344618,-0.22337l0.0622323 -0.017437z"/>
  <path class="fil15" d="M3.56339 3.08216c0.107799,0.00275197 0.210929,-0.0245039 0.285134,-0.0205512l0.106791 0.0210118c-0.155929,0.0181102 -0.249417,0.0551142 -0.402492,0.0632992l0.0105669 -0.0637598z"/>
  <path class="fil15" d="M3.99239 2.91244c0.141193,0.110673 0.28035,0.201315 0.423311,0.317508 0.0308228,0.0250551 0.0298071,0.0240079 0.0647402,0.0501496 -0.0792992,-0.0154843 -0.488654,-0.29 -0.535272,-0.323531l0.0472205 -0.044126z"/>
  <path class="fil15" d="M4.25594 3.11556c0.0769567,0.034811 0.248398,0.0105118 0.336354,0.0263031l0.110307 0.0316417c-0.104937,0.000425197 -0.365953,0.0169961 -0.4465,-0.0127402l-0.000161417 -0.0452047z"/>
  <path class="fil15" d="M4.25538 2.85282l-0.000106299 1.1811e-005 1.1811e-005 1.9685e-005 9.44882e-005 -3.14961e-005zm-9.44882e-005 3.14961e-005c0.0350866,0.0623031 0.416969,0.149807 0.487776,0.153854 0.0673228,0.00385039 0.171161,-0.0124528 0.217618,-0.000389764 -0.0272874,0.0198937 -0.195469,0.0342717 -0.217878,0.0347992 -0.0904961,0.00211811 -0.502772,-0.0648898 -0.548965,-0.168551l0.0614488 -0.0197126z"/>
  <path class="fil15" d="M4.58007 2.98243c0.175252,-0.0535984 0.0755591,-0.0440276 0.236413,-0.113161 0.0902126,-0.0387717 0.212528,-0.0784567 0.310295,-0.0338504 0.00545276,0.00248425 0.0127126,0.00697638 0.0113228,0.0137559l-0.000287402 0.000122047c-0.00265748,-0.000720472 -0.00425197,-0.00161811 -0.00669685,-0.00226772 -0.0906063,-0.0239331 -0.211417,0.0229921 -0.28952,0.0637244 -0.159102,0.0829803 -0.0706693,0.0359094 -0.236398,0.0970197l-0.0251299 -0.0253425z"/>
  <path class="fil15" d="M4.91109 2.84852c0.0599016,0.0527756 0.174264,0.0885157 0.253783,0.0792323l3.14961e-005 3.93701e-005c-0.0454685,0.0686417 -0.232232,0.0146457 -0.293783,-0.0284843l0.0399685 -0.0507874z"/>
 </g>
</svg>
