<?xml version="1.0" encoding="UTF-8"?>
<!DOCTYPE svg PUBLIC "-//W3C//DTD SVG 1.1//EN" "http://www.w3.org/Graphics/SVG/1.1/DTD/svg11.dtd">
<!-- Creator: CorelDRAW -->
<svg xmlns="http://www.w3.org/2000/svg" xml:space="preserve" width="6.82666in" height="6.82666in" style="shape-rendering:geometricPrecision; text-rendering:geometricPrecision; image-rendering:optimizeQuality; fill-rule:evenodd; clip-rule:evenodd"
viewBox="0 0 6.82666 6.82666"
 xmlns:xlink="http://www.w3.org/1999/xlink">
 <defs>
  <style type="text/css">
   <![CDATA[
    .fil2 {fill:none}
    .fil5 {fill:#424242}
    .fil6 {fill:#575757}
    .fil7 {fill:#636363}
    .fil9 {fill:#6E6E6E}
    .fil4 {fill:#727272}
    .fil1 {fill:#9CCC65}
    .fil0 {fill:#C5E1A5}
    .fil8 {fill:#ECEFF1}
    .fil3 {fill:#636363;fill-rule:nonzero}
   ]]>
  </style>
   <clipPath id="id0">
    <path d="M3.41333 -3.93701e-006c1.88513,0 3.41333,1.5282 3.41333,3.41333 0,1.88513 -1.5282,3.41333 -3.41333,3.41333 -1.88513,0 -3.41333,-1.5282 -3.41333,-3.41333 0,-1.88513 1.5282,-3.41333 3.41333,-3.41333z"/>
   </clipPath>
 </defs>
 <g id="Layer_x0020_1">
  <metadata id="CorelCorpID_0Corel-Layer"/>
  <path class="fil0" d="M3.41333 -3.93701e-006c1.88513,0 3.41333,1.5282 3.41333,3.41333 0,1.88513 -1.5282,3.41333 -3.41333,3.41333 -1.88513,0 -3.41333,-1.5282 -3.41333,-3.41333 0,-1.88513 1.5282,-3.41333 3.41333,-3.41333z"/>
  <g style="clip-path:url(#id0)">
   <g id="_637662880">
    <g>
     <polygon id="_4434394641" class="fil1" points="2.21102,4.43483 5.99729,8.2211 5.99679,8.22423 5.99703,8.22775 5.99794,8.23164 5.9995,8.23586 6.00165,8.24038 6.00433,8.24517 6.00752,8.25019 6.01115,8.25541 6.01519,8.2608 6.01958,8.26632 6.02428,8.27196 6.02925,8.27766 6.03443,8.2834 6.03978,8.28915 6.04525,8.29487 6.0508,8.30054 6.05638,8.30612 6.06194,8.31157 6.06743,8.31687 6.07281,8.32198 6.07804,8.32687 6.08306,8.33151 6.08782,8.33587 6.09229,8.33991 6.09641,8.34359 6.10014,8.3469 2.31387,4.56063 2.31015,4.55732 2.30602,4.55363 2.30156,4.5496 2.29679,4.54524 2.29177,4.5406 2.28654,4.53571 2.28116,4.5306 2.27567,4.5253 2.27011,4.51985 2.26453,4.51427 2.25898,4.5086 2.25351,4.50288 2.24816,4.49713 2.24298,4.49139 2.23802,4.48569 2.23331,4.48005 2.22892,4.47452 2.22488,4.46913 2.22125,4.46391 2.21806,4.45889 2.21538,4.45411 2.21323,4.44959 2.21168,4.44537 2.21076,4.44148 2.21052,4.43796 "/>
     <path id="_443439344" class="fil1" d="M5.68454 8.41916l0 0zm-3.78627 -3.78627l0 0z"/>
     <polygon id="_443440304" class="fil1" points="5.00383,2.14751 8.7901,5.93378 8.7901,5.93383 5.00383,2.14756 "/>
     <polygon id="_443440136" class="fil1" points="5.18745,2.24227 8.97372,6.02854 8.97754,6.0333 8.98117,6.03812 8.98464,6.04298 8.98792,6.04787 8.99102,6.0528 8.99394,6.05776 8.99667,6.06273 8.9992,6.06772 9.00154,6.07273 5.21527,2.28646 5.21293,2.28145 5.2104,2.27646 5.20767,2.27148 5.20476,2.26653 5.20165,2.2616 5.19837,2.2567 5.19491,2.25185 5.19127,2.24703 "/>
     <polygon id="_443440712" class="fil1" points="5.21527,2.28646 9.00154,6.07273 9.00224,6.07431 9.00291,6.07589 9.00357,6.07746 9.00421,6.07904 9.00483,6.08063 9.00543,6.08221 9.00601,6.08379 9.00657,6.08537 5.22031,2.2991 5.21974,2.29752 5.21917,2.29594 5.21856,2.29435 5.21794,2.29277 5.2173,2.29119 5.21665,2.28961 5.21597,2.28804 "/>
     <polygon id="_443440088" class="fil1" points="5.22031,2.2991 9.00657,6.08537 9.00818,6.09026 9.0096,6.09514 9.01083,6.10002 9.01186,6.10489 9.0127,6.10976 9.01335,6.1146 9.0138,6.11943 9.01404,6.12422 5.22778,2.33795 5.22753,2.33315 5.22708,2.32833 5.22644,2.32348 5.22559,2.31862 5.22456,2.31375 5.22333,2.30887 5.22191,2.30398 "/>
     <polygon id="_443440496" class="fil1" points="5.22778,2.33795 9.01404,6.12422 9.01409,6.12901 9.01393,6.13377 9.01356,6.13849 9.01297,6.14317 9.01218,6.14781 9.01117,6.1524 9.00995,6.15694 9.00851,6.16142 5.22224,2.37515 5.22368,2.37067 5.22491,2.36613 5.22591,2.36154 5.2267,2.3569 5.22729,2.35222 5.22766,2.3475 5.22782,2.34274 "/>
     <polygon id="_443440592" class="fil1" points="5.22224,2.37515 9.00851,6.16142 9.0073,6.1647 9.00597,6.16793 9.00453,6.17112 9.00297,6.17425 9.0013,6.17733 8.9995,6.18035 8.99759,6.18331 8.99556,6.18622 8.9934,6.18907 8.99113,6.19186 8.98873,6.19458 8.98621,6.19724 8.98356,6.19983 8.9808,6.20235 8.97791,6.20481 8.97489,6.20719 5.18862,2.42092 5.19164,2.41854 5.19453,2.41608 5.1973,2.41356 5.19994,2.41097 5.20246,2.40831 5.20486,2.40559 5.20713,2.4028 5.20929,2.39995 5.21132,2.39704 5.21323,2.39408 5.21503,2.39106 5.2167,2.38798 5.21826,2.38485 5.2197,2.38166 5.22103,2.37843 "/>
     <polygon id="_443440784" class="fil1" points="5.18862,2.42092 8.97489,6.20719 8.88825,6.28301 5.10198,2.49674 "/>
     <polygon id="_443440112" class="fil1" points="5.10198,2.49674 8.88825,6.28301 8.88647,6.28462 8.88459,6.28611 8.8826,6.28749 8.88052,6.28874 8.87833,6.28987 8.87606,6.29085 8.8737,6.29169 8.87125,6.29238 5.08498,2.50611 5.08743,2.50542 5.0898,2.50458 5.09207,2.50359 5.09425,2.50247 5.09633,2.50122 5.09832,2.49984 5.1002,2.49835 "/>
     <polygon id="_443441264" class="fil1" points="5.08498,2.50611 8.87125,6.29238 8.80478,6.30885 5.01851,2.52257 "/>
     <polygon id="_443441000" class="fil1" points="5.01851,2.52257 8.80478,6.30885 8.80245,6.31386 8.8002,6.31884 8.79803,6.32378 8.79595,6.32868 8.79395,6.33354 8.79204,6.33836 8.79022,6.34315 8.78848,6.34789 8.78683,6.35259 8.78527,6.35726 8.7838,6.36188 8.78242,6.36646 8.78113,6.371 8.77993,6.37549 8.77883,6.37994 8.77781,6.38435 4.99155,2.59808 4.99256,2.59367 4.99366,2.58922 4.99486,2.58472 4.99615,2.58019 4.99753,2.57561 4.999,2.57098 5.00056,2.56632 5.00221,2.56162 5.00395,2.55687 5.00578,2.55209 5.00769,2.54727 5.00968,2.54241 5.01176,2.53751 5.01393,2.53257 5.01618,2.52759 "/>
     <polygon id="_443441288" class="fil1" points="4.99155,2.59808 8.77781,6.38435 8.77682,6.38911 8.77594,6.3938 8.77518,6.39843 8.77454,6.40299 8.77402,6.40749 8.77361,6.41193 8.77333,6.4163 8.77317,6.42061 8.77313,6.42485 8.77322,6.42902 8.77343,6.43312 8.77377,6.43716 8.77424,6.44112 8.77483,6.44502 8.77556,6.44884 8.77642,6.4526 4.99015,2.66633 4.9893,2.66257 4.98857,2.65875 4.98797,2.65485 4.9875,2.65089 4.98716,2.64685 4.98695,2.64274 4.98686,2.63857 4.9869,2.63433 4.98706,2.63003 4.98734,2.62566 4.98775,2.62122 4.98827,2.61672 4.98891,2.61216 4.98968,2.60753 4.99056,2.60283 "/>
     <polygon id="_443441192" class="fil1" points="4.99015,2.66633 8.77642,6.4526 8.77636,6.45261 4.99009,2.66634 "/>
     <polygon id="_443441384" class="fil1" points="4.99009,2.66634 8.77636,6.45261 8.77686,6.45494 4.99059,2.66867 "/>
     <polygon id="_443441600" class="fil1" points="4.99059,2.66867 8.77686,6.45494 8.77859,6.464 8.78048,6.47278 8.78252,6.48127 8.78472,6.48948 8.78706,6.4974 8.78955,6.50506 8.79218,6.51244 8.79495,6.51956 8.79786,6.52642 8.80091,6.53303 8.80409,6.53938 8.80741,6.54548 8.81085,6.55135 8.81442,6.55698 8.81812,6.56237 8.82193,6.56754 5.03567,2.78126 5.03185,2.7761 5.02815,2.7707 5.02458,2.76508 5.02114,2.75921 5.01783,2.75311 5.01464,2.74676 5.01159,2.74015 5.00868,2.73329 5.00591,2.72617 5.00328,2.71878 5.00079,2.71113 4.99845,2.7032 4.99626,2.695 4.99421,2.68651 4.99232,2.67773 "/>
     <polygon id="_443441432" class="fil1" points="5.03567,2.78126 8.82193,6.56754 8.82559,6.57213 8.82935,6.57655 5.04309,2.79028 5.03932,2.78586 "/>
     <polygon id="_443441528" class="fil1" points="5.20627,2.83645 8.99254,6.62272 8.99687,6.62851 9.00004,6.63514 9.00188,6.64248 5.21561,2.85621 5.21377,2.84887 5.2106,2.84224 "/>
     <polygon id="_443441576" class="fil1" points="5.21561,2.85621 9.00188,6.64248 9.01354,6.72198 5.22728,2.9357 "/>
     <polygon id="_443441120" class="fil1" points="5.25085,2.9582 9.03711,6.74447 9.04016,6.74809 9.04299,6.75181 9.04565,6.7557 9.04817,6.75981 9.05057,6.76423 9.0529,6.76902 9.0552,6.77423 9.05748,6.77994 9.0598,6.78623 9.06218,6.79315 9.06465,6.80077 5.27839,3.0145 5.27591,3.00688 5.27353,2.99996 5.27121,2.99367 5.26893,2.98796 5.26663,2.98274 5.2643,2.97796 5.2619,2.97354 5.25938,2.96943 5.25672,2.96554 5.25389,2.96182 "/>
     <polygon id="_443441768" class="fil1" points="5.27839,3.0145 9.06465,6.80077 9.06454,6.80081 5.27827,3.01454 "/>
     <polygon id="_443441984" class="fil1" points="5.27827,3.01454 9.06454,6.80081 9.06567,6.8054 9.06621,6.81008 9.06616,6.8148 9.06552,6.81949 9.06427,6.82409 9.06242,6.82854 9.05997,6.83277 9.0569,6.83674 5.27063,3.05047 5.2737,3.0465 5.27615,3.04226 5.278,3.03781 5.27925,3.03322 5.27989,3.02853 5.27994,3.02381 5.2794,3.01913 "/>
     <polygon id="_443442344" class="fil1" points="5.27063,3.05047 9.0569,6.83674 9.05139,6.84289 9.04587,6.84885 9.04035,6.85464 9.03482,6.86024 9.0293,6.86568 9.02376,6.87094 9.01823,6.87603 9.01269,6.88095 9.00715,6.88571 9.0016,6.89031 8.99606,6.89475 8.9905,6.89903 8.98495,6.90316 8.97939,6.90713 8.97383,6.91095 8.96827,6.91463 8.9627,6.91816 8.95713,6.92156 8.95156,6.9248 8.94599,6.92792 8.94041,6.9309 8.93483,6.93374 8.92925,6.93646 8.92367,6.93905 8.91808,6.94151 8.9125,6.94386 8.90691,6.94608 8.90131,6.94819 8.89572,6.95018 8.89012,6.95206 8.88452,6.95383 8.87892,6.95549 5.09265,3.16922 5.09825,3.16756 5.10385,3.16578 5.10945,3.16391 5.11504,3.16191 5.12064,3.15981 5.12623,3.15759 5.13181,3.15524 5.1374,3.15278 5.14298,3.15019 5.14857,3.14747 5.15415,3.14463 5.15972,3.14165 5.1653,3.13853 5.17087,3.13528 5.17644,3.13189 5.182,3.12836 5.18756,3.12468 5.19313,3.12086 5.19868,3.11689 5.20424,3.11276 5.20979,3.10848 5.21533,3.10404 5.22088,3.09944 5.22642,3.09468 5.23196,3.08976 5.2375,3.08467 5.24303,3.07941 5.24856,3.07397 5.25408,3.06837 5.2596,3.06258 5.26512,3.05661 "/>
     <polygon id="_443441624" class="fil1" points="5.09265,3.16922 8.87892,6.95549 8.8739,6.95689 8.86889,6.9582 8.86389,6.95943 8.85889,6.96058 8.85389,6.96165 8.8489,6.96264 8.84391,6.96356 8.83893,6.9644 8.83395,6.96518 8.82898,6.96588 8.82401,6.96651 8.81905,6.96708 8.81409,6.96759 8.80913,6.96803 8.80418,6.96841 8.79923,6.96873 8.79428,6.969 8.78934,6.96921 8.7844,6.96937 8.77946,6.96948 8.77453,6.96954 8.7696,6.96956 8.76467,6.96952 8.75974,6.96945 8.75482,6.96933 8.7499,6.96918 8.74498,6.96898 8.74007,6.96876 8.73515,6.96849 8.73024,6.9682 8.72533,6.96787 8.72043,6.96752 4.93416,3.18125 4.93907,3.1816 4.94398,3.18193 4.94889,3.18222 4.9538,3.18248 4.95872,3.18271 4.96363,3.18291 4.96856,3.18306 4.97348,3.18318 4.9784,3.18325 4.98333,3.18328 4.98826,3.18327 4.99319,3.18321 4.99813,3.1831 5.00307,3.18294 5.00801,3.18273 5.01296,3.18246 5.01791,3.18214 5.02286,3.18176 5.02782,3.18131 5.03278,3.18081 5.03774,3.18024 5.04271,3.17961 5.04769,3.17891 5.05267,3.17813 5.05765,3.17729 5.06263,3.17637 5.06762,3.17538 5.07262,3.17431 5.07762,3.17316 5.08262,3.17193 5.08763,3.17061 "/>
     <polygon id="_443441936" class="fil1" points="4.93416,3.18125 8.72043,6.96752 8.71857,6.96848 4.93231,3.18221 "/>
     <polygon id="_443442008" class="fil1" points="4.93301,3.18219 8.71928,6.96846 8.71909,6.96852 8.7189,6.96857 8.71871,6.96863 8.71852,6.96868 8.71833,6.96874 8.71815,6.96879 8.71796,6.96885 8.71777,6.9689 4.9315,3.18263 4.93169,3.18257 4.93188,3.18252 4.93207,3.18246 4.93226,3.18241 4.93244,3.18235 4.93263,3.1823 4.93282,3.18225 "/>
     <polygon id="_443441888" class="fil1" points="4.9315,3.18263 8.71777,6.9689 8.51253,7.07552 4.72626,3.28925 "/>
     <polygon id="_443441816" class="fil1" points="4.72626,3.28925 8.51253,7.07552 8.49185,7.08935 8.47091,7.10377 8.44974,7.11874 8.4284,7.13424 8.40694,7.15024 8.3854,7.16669 8.36384,7.18356 8.34231,7.20082 8.32085,7.21844 8.29952,7.23638 8.27837,7.25461 8.25744,7.2731 8.23678,7.29181 8.21645,7.31072 8.19649,7.32977 8.17696,7.34895 8.15789,7.36822 8.13935,7.38755 8.12139,7.4069 8.10404,7.42623 8.08737,7.44552 8.07142,7.46474 8.05624,7.48384 8.04188,7.5028 8.02839,7.52158 8.01581,7.54015 8.00422,7.55847 7.99363,7.57651 7.98412,7.59424 7.97573,7.61163 7.9685,7.62863 7.96249,7.64523 4.17622,3.85896 4.18223,3.84236 4.18946,3.82536 4.19785,3.80797 4.20737,3.79024 4.21795,3.7722 4.22955,3.75387 4.24212,3.73531 4.25561,3.71653 4.26997,3.69757 4.28515,3.67847 4.3011,3.65925 4.31778,3.63996 4.33512,3.62063 4.35309,3.60128 4.37163,3.58195 4.39069,3.56268 4.41022,3.5435 4.43018,3.52444 4.45051,3.50554 4.47117,3.48683 4.4921,3.46834 4.51326,3.45011 4.53459,3.43217 4.55604,3.41455 4.57757,3.39728 4.59913,3.38041 4.62067,3.36396 4.64213,3.34797 4.66347,3.33247 4.68464,3.3175 4.70559,3.30308 "/>
     <polygon id="_443442056" class="fil1" points="4.17622,3.85896 7.96249,7.64523 7.96139,7.6519 7.96031,7.65824 7.95923,7.66423 7.95811,7.66986 7.95692,7.67511 7.95563,7.67996 7.95422,7.68441 7.95266,7.68843 4.16639,3.90216 4.16795,3.89814 4.16936,3.89369 4.17065,3.88884 4.17184,3.88359 4.17296,3.87796 4.17405,3.87197 4.17513,3.86563 "/>
     <polygon id="_443442080" class="fil1" points="4.16639,3.90216 7.95266,7.68843 7.95058,7.69337 7.94839,7.69884 7.94609,7.70484 7.94369,7.71133 7.94119,7.71829 7.93861,7.72571 7.93595,7.73356 7.93322,7.74181 7.93041,7.75046 7.92754,7.75948 7.92462,7.76884 7.92165,7.77852 7.91864,7.78851 7.91559,7.79878 7.91251,7.8093 7.9094,7.82007 7.90628,7.83105 7.90315,7.84222 7.90001,7.85357 7.89687,7.86507 7.89374,7.8767 7.89063,7.88844 7.88753,7.90027 7.88446,7.91217 7.88143,7.9241 7.87844,7.93606 7.87548,7.94802 7.87259,7.95996 7.86975,7.97187 7.86698,7.9837 7.86428,7.99545 7.86165,8.0071 4.07538,4.22083 4.07801,4.20918 4.08071,4.19743 4.08348,4.18559 4.08632,4.17369 4.08922,4.16175 4.09217,4.14979 4.09516,4.13783 4.0982,4.12589 4.10126,4.114 4.10436,4.10217 4.10747,4.09043 4.1106,4.0788 4.11374,4.0673 4.11688,4.05595 4.12001,4.04478 4.12313,4.0338 4.12624,4.02303 4.12932,4.0125 4.13237,4.00224 4.13539,3.99225 4.13835,3.98257 4.14128,3.97321 4.14414,3.96419 4.14695,3.95554 4.14969,3.94729 4.15234,3.93944 4.15493,3.93202 4.15742,3.92506 4.15982,3.91857 4.16212,3.91257 4.16431,3.90709 "/>
     <polygon id="_443442320" class="fil1" points="4.07538,4.22083 7.86165,8.0071 7.86069,8.01139 7.85975,8.01567 7.85881,8.01991 7.85789,8.02412 7.85697,8.0283 7.85607,8.03245 7.85517,8.03657 7.85429,8.04065 4.06802,4.25438 4.06891,4.2503 4.0698,4.24618 4.0707,4.24203 4.07162,4.23785 4.07254,4.23363 4.07348,4.22939 4.07443,4.22512 "/>
     <polygon id="_443442440" class="fil1" points="4.06802,4.25438 7.85429,8.04065 7.85289,8.04722 7.85151,8.05368 7.85017,8.06003 7.84887,8.06627 7.84761,8.0724 7.84639,8.07839 7.8452,8.08426 7.84407,8.08999 7.84297,8.09558 7.84192,8.10102 7.84092,8.1063 7.83997,8.11143 7.83906,8.11639 7.83821,8.12118 7.83741,8.12579 7.83667,8.13021 7.83598,8.13445 7.83535,8.13849 7.83478,8.14233 7.83427,8.14596 7.83383,8.14938 7.83344,8.15258 7.83312,8.15555 7.83287,8.1583 7.83269,8.1608 7.83257,8.16307 7.83253,8.16508 7.83256,8.16684 7.83266,8.16834 7.83284,8.16958 7.8331,8.17054 7.83343,8.17122 4.04717,4.38495 4.04683,4.38427 4.04657,4.38331 4.04639,4.38207 4.04629,4.38057 4.04626,4.37881 4.0463,4.3768 4.04642,4.37453 4.0466,4.37202 4.04685,4.36928 4.04717,4.36631 4.04756,4.36311 4.048,4.35969 4.04852,4.35606 4.04909,4.35222 4.04972,4.34818 4.0504,4.34394 4.05115,4.33952 4.05194,4.33491 4.0528,4.33012 4.0537,4.32516 4.05465,4.32003 4.05565,4.31475 4.0567,4.30931 4.0578,4.30372 4.05894,4.29799 4.06012,4.29212 4.06134,4.28613 4.06261,4.28 4.06391,4.27376 4.06524,4.26741 4.06662,4.26094 "/>
     <polygon id="_443442800" class="fil1" points="4.04717,4.38495 7.83343,8.17122 7.83517,8.17383 7.83686,8.17656 7.83852,8.17942 7.84016,8.1824 7.84177,8.18549 7.84335,8.1887 7.84493,8.19203 7.84649,8.19546 7.84805,8.199 7.84961,8.20263 7.85117,8.20637 7.85273,8.2102 7.85431,8.21412 7.85591,8.21813 7.85752,8.22223 7.85917,8.22641 4.0729,4.44014 4.07126,4.43596 4.06964,4.43186 4.06804,4.42785 4.06646,4.42393 4.0649,4.42009 4.06334,4.41636 4.06178,4.41272 4.06022,4.40919 4.05866,4.40576 4.05709,4.40243 4.0555,4.39922 4.05389,4.39613 4.05226,4.39315 4.05059,4.39029 4.0489,4.38756 "/>
     <polygon id="_443442560" class="fil1" points="4.0729,4.44014 7.85917,8.22641 7.86162,8.23263 7.86415,8.23901 7.86676,8.24551 7.86947,8.25211 7.87228,8.25877 7.87519,8.26544 7.8782,8.27211 7.88132,8.27872 7.88456,8.28525 7.88791,8.29165 7.89139,8.2979 7.895,8.30396 7.89874,8.30978 7.90262,8.31535 7.90664,8.32061 7.91081,8.32555 4.12454,4.53928 4.12037,4.53434 4.11635,4.52908 4.11248,4.52351 4.10874,4.51769 4.10513,4.51163 4.10165,4.50538 4.09829,4.49898 4.09505,4.49245 4.09193,4.48583 4.08892,4.47917 4.08601,4.4725 4.0832,4.46584 4.0805,4.45924 4.07788,4.45274 4.07535,4.44635 "/>
     <polygon id="_443442656" class="fil1" points="4.12454,4.53928 7.91081,8.32555 7.91356,8.32852 7.91637,8.33139 4.1301,4.54512 4.12729,4.54225 "/>
     <polygon id="_443442392" class="fil1" points="4.18614,4.58607 7.97241,8.37234 7.97591,8.37612 7.97891,8.38008 7.98142,8.38423 7.98343,8.38856 7.98496,8.39307 4.1987,4.6068 4.19716,4.60229 4.19515,4.59796 4.19265,4.59381 4.18964,4.58985 "/>
     <polygon id="_443442824" class="fil1" points="4.1987,4.6068 7.98496,8.39307 7.98616,8.39805 7.98687,8.40284 7.98709,8.40743 7.98685,8.41182 7.98614,8.41602 7.98498,8.42003 7.98337,8.42385 7.98131,8.42748 7.97883,8.43092 7.97591,8.43417 7.97258,8.43724 7.96883,8.44012 7.96469,8.44282 7.96014,8.44534 7.9552,8.44768 7.94988,8.44984 4.16361,4.66357 4.16893,4.66141 4.17387,4.65907 4.17842,4.65655 4.18257,4.65385 4.18631,4.65097 4.18965,4.6479 4.19256,4.64465 4.19505,4.6412 4.1971,4.63758 4.19871,4.63376 4.19987,4.62975 4.20058,4.62555 4.20083,4.62115 4.2006,4.61657 4.19989,4.61178 "/>
     <polygon id="_443442872" class="fil1" points="4.16361,4.66357 7.94988,8.44984 7.94766,8.45065 7.94533,8.45143 7.94289,8.4522 7.94036,8.45294 7.93772,8.45367 7.935,8.45437 7.93217,8.45505 7.92926,8.45571 7.92626,8.45635 7.92317,8.45696 7.92,8.45756 7.91675,8.45813 7.91342,8.45868 7.91001,8.45921 7.90653,8.45972 7.90298,8.4602 4.11671,4.67393 4.12026,4.67344 4.12374,4.67294 4.12715,4.67241 4.13048,4.67186 4.13374,4.67128 4.13691,4.67069 4.13999,4.67007 4.143,4.66944 4.14591,4.66878 4.14873,4.66809 4.15146,4.66739 4.15409,4.66667 4.15663,4.66593 4.15906,4.66516 4.16139,4.66437 "/>
     <polygon id="_443442896" class="fil1" points="3.54525,4.10863 7.33152,7.89491 7.31112,7.89788 7.29065,7.90082 7.27011,7.90372 7.24951,7.90657 7.22883,7.90938 7.2081,7.91213 7.18731,7.91482 7.16646,7.91744 7.14556,7.91998 7.12461,7.92244 7.10361,7.92482 7.08258,7.9271 7.0615,7.92928 7.04039,7.93136 7.01924,7.93333 6.99806,7.93517 6.97686,7.9369 6.95563,7.93849 6.93438,7.93995 6.91312,7.94127 6.89184,7.94244 6.87055,7.94345 6.84925,7.9443 6.82795,7.94499 6.80664,7.9455 6.78534,7.94584 6.76404,7.94599 6.74276,7.94595 6.72148,7.94572 6.70021,7.94528 6.67896,7.94463 6.65774,7.94377 2.87147,4.1575 2.8927,4.15836 2.91394,4.15901 2.93521,4.15944 2.95649,4.15968 2.97778,4.15972 2.99907,4.15957 3.02037,4.15923 3.04168,4.15872 3.06298,4.15803 3.08428,4.15718 3.10557,4.15617 3.12685,4.155 3.14811,4.15368 3.16936,4.15222 3.19059,4.15063 3.2118,4.1489 3.23297,4.14706 3.25412,4.14509 3.27523,4.14301 3.29631,4.14083 3.31735,4.13855 3.33834,4.13617 3.35929,4.13371 3.38019,4.13117 3.40104,4.12855 3.42183,4.12586 3.44257,4.12311 3.46324,4.1203 3.48385,4.11745 3.50439,4.11455 3.52485,4.11161 "/>
     <polygon id="_443442944" class="fil1" points="3.81226,4.61714 7.59853,8.40341 7.59566,8.40447 7.59273,8.4055 7.58973,8.40649 7.58666,8.40745 7.58352,8.40837 7.58033,8.40926 7.57706,8.41011 7.57373,8.41093 3.78746,4.62466 3.7908,4.62384 3.79406,4.62299 3.79726,4.6221 3.80039,4.62118 3.80346,4.62022 3.80646,4.61922 3.80939,4.6182 "/>
     <polygon id="_443443016" class="fil1" points="4.11671,4.67393 7.90298,8.4602 7.89586,8.46108 7.88842,8.46188 7.88068,8.4626 7.87266,8.46325 7.86439,8.46381 7.85589,8.46429 7.84719,8.46469 7.83829,8.465 7.82923,8.46523 7.82003,8.46537 7.81071,8.46542 7.80129,8.46539 7.7918,8.46526 7.78226,8.46504 7.77268,8.46473 7.7631,8.46433 7.75354,8.46383 7.74401,8.46323 7.73454,8.46254 7.72516,8.46175 7.71588,8.46086 7.70673,8.45987 7.69773,8.45877 7.6889,8.45757 7.68027,8.45628 7.67185,8.45487 7.66367,8.45335 7.65576,8.45173 7.64813,8.45 7.6408,8.44816 7.63381,8.44621 7.62717,8.44415 3.8409,4.65787 3.84754,4.65994 3.85454,4.66189 3.86186,4.66373 3.86949,4.66546 3.87741,4.66708 3.88558,4.66859 3.894,4.67 3.90263,4.6713 3.91146,4.6725 3.92046,4.67359 3.92961,4.67459 3.93889,4.67548 3.94828,4.67627 3.95774,4.67696 3.96727,4.67756 3.97683,4.67806 3.98641,4.67846 3.99599,4.67877 4.00553,4.67898 4.01502,4.67911 4.02444,4.67915 4.03376,4.67909 4.04296,4.67896 4.05202,4.67873 4.06092,4.67841 4.06963,4.67802 4.07813,4.67754 4.08639,4.67698 4.09441,4.67633 4.10215,4.67561 4.10959,4.67481 "/>
     <polygon id="_443443232" class="fil1" points="3.78746,4.62466 7.57373,8.41093 7.57042,8.4117 7.56703,8.41244 7.56356,8.41316 7.55999,8.41385 7.55635,8.41452 7.55263,8.41516 7.54883,8.41578 7.54494,8.41636 7.54098,8.41693 7.53694,8.41746 7.53282,8.41796 7.52862,8.41844 7.52435,8.41889 7.52,8.41931 7.51557,8.4197 7.51107,8.42006 7.50649,8.42039 7.50184,8.42069 7.49712,8.42096 7.49233,8.42119 7.48746,8.4214 7.48252,8.42157 7.47751,8.4217 7.47243,8.42181 7.46728,8.42187 7.46206,8.42191 7.45678,8.42191 7.45143,8.42187 7.446,8.4218 7.44052,8.42169 7.43496,8.42155 7.42935,8.42137 3.64308,4.63509 3.6487,4.63528 3.65425,4.63542 3.65974,4.63553 3.66516,4.6356 3.67051,4.63564 3.6758,4.63564 3.68101,4.6356 3.68616,4.63554 3.69124,4.63543 3.69625,4.6353 3.70119,4.63513 3.70606,4.63492 3.71085,4.63469 3.71557,4.63442 3.72022,4.63412 3.7248,4.63379 3.7293,4.63343 3.73373,4.63304 3.73808,4.63262 3.74235,4.63217 3.74655,4.63169 3.75067,4.63119 3.75471,4.63065 3.75868,4.63009 3.76256,4.6295 3.76636,4.62889 3.77009,4.62825 3.77372,4.62758 3.77729,4.62689 3.78076,4.62617 3.78415,4.62543 "/>
     <polygon id="_443443832" class="fil1" points="3.64308,4.63509 7.42935,8.42137 7.42421,8.42117 7.41904,8.42094 7.41382,8.42069 7.40858,8.42041 7.4033,8.4201 7.39798,8.41976 7.39263,8.41938 7.38725,8.41898 7.38183,8.41854 7.37639,8.41808 7.37091,8.41758 7.36541,8.41706 7.35987,8.4165 7.3543,8.41591 7.3487,8.41528 7.34308,8.41462 3.55681,4.62835 3.56244,4.62901 3.56803,4.62963 3.5736,4.63022 3.57914,4.63078 3.58465,4.63131 3.59012,4.63181 3.59557,4.63227 3.60098,4.63271 3.60637,4.63311 3.61171,4.63348 3.61703,4.63383 3.62231,4.63414 3.62756,4.63442 3.63277,4.63467 3.63794,4.6349 "/>
     <polygon id="_443443520" class="fil1" points="3.55681,4.62835 7.34308,8.41462 7.33656,8.41346 7.33046,8.41122 7.32489,8.40798 7.31997,8.40385 3.5337,4.61758 3.53862,4.62171 3.54419,4.62494 3.5503,4.62719 "/>
     <polygon id="_443443280" class="fil1" points="3.8409,4.65787 7.62717,8.44415 7.62348,8.44248 7.61989,8.43992 3.83362,4.65365 3.83721,4.6562 "/>
     <polygon id="_443443544" class="fil1" points="1.64827,3.22628 5.43454,7.01256 5.43158,7.02095 5.42878,7.02941 5.42615,7.03792 5.42368,7.04649 5.42137,7.05512 5.41924,7.0638 5.41729,7.07254 5.41551,7.08134 5.41391,7.09019 5.4125,7.09909 5.41126,7.10805 5.41022,7.11707 5.40937,7.12613 5.40871,7.13526 5.40824,7.14443 5.40798,7.15365 5.40791,7.16293 5.40806,7.17226 5.4084,7.18165 5.40896,7.19108 5.40972,7.20056 5.41071,7.2101 5.41191,7.21968 5.41333,7.22931 5.41498,7.239 5.41685,7.24873 5.41894,7.25851 5.42128,7.26834 5.42384,7.27822 5.42664,7.28814 5.42968,7.29811 5.43296,7.30813 1.64669,3.52185 1.64341,3.51184 1.64037,3.50187 1.63757,3.49194 1.63501,3.48207 1.63268,3.47224 1.63058,3.46246 1.62871,3.45273 1.62706,3.44304 1.62564,3.43341 1.62444,3.42383 1.62346,3.41429 1.62269,3.40481 1.62213,3.39537 1.62179,3.38599 1.62165,3.37666 1.62171,3.36738 1.62198,3.35816 1.62244,3.34898 1.6231,3.33986 1.62395,3.3308 1.625,3.32178 1.62623,3.31282 1.62765,3.30392 1.62924,3.29507 1.63102,3.28627 1.63298,3.27753 1.63511,3.26885 1.63741,3.26022 1.63988,3.25165 1.64251,3.24314 1.64531,3.23468 "/>
     <polygon id="_443443856" class="fil1" points="1.64669,3.52185 5.43296,7.30813 5.434,7.31181 5.43466,7.3155 5.43493,7.31919 5.43485,7.32284 5.4344,7.32644 5.43362,7.32996 5.4325,7.33337 5.43107,7.33666 5.42933,7.33979 5.4273,7.34275 5.42498,7.34551 5.4224,7.34805 5.41955,7.35034 5.41645,7.35237 5.41312,7.35409 5.40957,7.3555 1.6233,3.56923 1.62685,3.56782 1.63019,3.56609 1.63328,3.56407 1.63613,3.56178 1.63872,3.55924 1.64103,3.55648 1.64307,3.55352 1.6448,3.55039 1.64624,3.5471 1.64735,3.54369 1.64813,3.54017 1.64858,3.53657 1.64867,3.53291 1.64839,3.52923 1.64774,3.52554 "/>
     <polygon id="_443443448" class="fil1" points="2.21448,4.20773 6.00075,7.994 6,7.9979 5.99931,8.00194 5.99869,8.00611 5.99813,8.01039 5.99764,8.01479 5.99719,8.0193 5.99681,8.02389 5.99647,8.02858 5.99619,8.03335 5.99595,8.0382 5.99576,8.04311 5.99562,8.04808 5.99551,8.0531 5.99544,8.05816 5.99541,8.06326 5.99542,8.06839 5.99545,8.07353 5.99552,8.07869 5.99561,8.08385 5.99572,8.089 5.99587,8.09415 5.99602,8.09928 5.9962,8.10438 5.99639,8.10945 5.9966,8.11447 5.99682,8.11945 5.99704,8.12437 5.99728,8.12922 5.99751,8.134 5.99775,8.1387 5.99798,8.14331 5.99822,8.14782 2.21195,4.36155 2.21172,4.35704 2.21148,4.35243 2.21124,4.34773 2.21101,4.34295 2.21078,4.33809 2.21055,4.33318 2.21033,4.3282 2.21013,4.32318 2.20993,4.31811 2.20976,4.31301 2.2096,4.30788 2.20946,4.30273 2.20934,4.29757 2.20925,4.29241 2.20919,4.28726 2.20915,4.28211 2.20915,4.27699 2.20918,4.27189 2.20924,4.26683 2.20935,4.26181 2.2095,4.25684 2.20969,4.25193 2.20992,4.24708 2.2102,4.24231 2.21054,4.23762 2.21093,4.23302 2.21137,4.22852 2.21187,4.22412 2.21243,4.21983 2.21305,4.21567 2.21373,4.21163 "/>
     <polygon id="_443443736" class="fil1" points="2.21195,4.36155 5.99822,8.14782 5.99854,8.15406 5.99884,8.16011 5.99912,8.16596 5.99937,8.17162 5.99959,8.17706 5.99975,8.1823 5.99986,8.1873 5.99992,8.19208 5.9999,8.19662 5.99981,8.20092 5.99964,8.20496 5.99938,8.20874 5.99902,8.21225 5.99856,8.21548 5.99798,8.21844 5.99729,8.2211 2.21102,4.43483 2.21171,4.43217 2.21229,4.42921 2.21275,4.42598 2.21311,4.42246 2.21337,4.41869 2.21354,4.41465 2.21363,4.41035 2.21365,4.40581 2.21359,4.40103 2.21348,4.39602 2.21332,4.39079 2.21311,4.38535 2.21285,4.37969 2.21257,4.37383 2.21227,4.36778 "/>
     <path id="_443443808" class="fil1" d="M6.11167 8.35691l0 0zm-3.78627 -3.78627l0 0z"/>
     <polygon id="_443443328" class="fil1" points="2.32858,4.5734 6.11485,8.35967 6.1177,8.36277 6.12019,8.36617 6.12229,8.36985 6.12396,8.37378 6.12519,8.37791 6.12593,8.38224 6.12617,8.38671 2.3399,4.60044 2.33967,4.59596 2.33892,4.59164 2.3377,4.5875 2.33602,4.58358 2.33392,4.5799 2.33143,4.5765 "/>
     <polygon id="_443443400" class="fil1" points="2.3399,4.60044 6.12617,8.38671 6.12535,8.39422 6.12312,8.4012 6.11963,8.40751 6.11504,8.41299 6.10948,8.4175 6.10312,8.42089 6.09611,8.42301 6.08859,8.4237 2.30232,4.63743 2.30984,4.63674 2.31685,4.63462 2.32322,4.63123 2.32877,4.62672 2.33337,4.62124 2.33685,4.61493 2.33908,4.60795 "/>
     <polygon id="_443444336" class="fil1" points="2.30232,4.63743 6.08859,8.4237 5.73993,8.41979 1.95366,4.63352 "/>
     <polygon id="_443444000" class="fil1" points="1.95366,4.63352 5.73993,8.41979 5.68454,8.41916 1.89827,4.63289 "/>
     <polygon id="_443444552" class="fil1" points="1.89827,4.63289 5.68454,8.41916 5.67835,8.41859 5.67242,8.41703 5.66686,8.41453 5.66179,8.41118 1.87552,4.62491 1.88059,4.62826 1.88615,4.63076 1.89208,4.63232 "/>
     <polygon id="_443444288" class="fil1" points="2.87147,4.1575 6.65774,7.94377 6.63707,7.94271 6.61643,7.94144 6.59582,7.93995 6.57525,7.93823 6.55472,7.93627 6.53424,7.93408 6.5138,7.93165 6.49341,7.92896 6.47308,7.92602 6.4528,7.92281 6.43258,7.91935 6.41242,7.9156 6.39233,7.91159 6.3723,7.90728 6.35235,7.90269 6.33246,7.89781 6.31266,7.89262 6.29294,7.88713 6.2733,7.88132 6.25374,7.8752 6.23427,7.86876 6.2149,7.86199 6.19562,7.85489 6.17644,7.84744 6.15736,7.83966 6.13839,7.83152 6.11952,7.82302 6.10076,7.81417 6.08212,7.80494 6.06359,7.79535 6.04519,7.78537 6.02691,7.77501 2.24064,3.98874 2.25892,3.9991 2.27733,4.00907 2.29585,4.01867 2.3145,4.02789 2.33326,4.03675 2.35212,4.04524 2.37109,4.05339 2.39017,4.06117 2.40935,4.06861 2.42863,4.07572 2.448,4.08249 2.46747,4.08893 2.48703,4.09505 2.50667,4.10085 2.52639,4.10635 2.5462,4.11154 2.56608,4.11642 2.58603,4.12101 2.60606,4.12531 2.62615,4.12933 2.64631,4.13307 2.66653,4.13654 2.68681,4.13974 2.70715,4.14269 2.72754,4.14537 2.74797,4.14781 2.76846,4.15 2.78898,4.15196 2.80956,4.15368 2.83016,4.15517 2.8508,4.15644 "/>
     <polygon id="_443444240" class="fil1" points="1.6233,3.56923 5.40957,7.3555 5.40589,7.35654 5.40219,7.3572 5.3985,7.35747 5.39485,7.35739 5.39125,7.35694 5.38774,7.35616 5.38432,7.35504 5.38104,7.35361 5.3779,7.35187 5.37494,7.34984 5.37218,7.34752 1.58591,3.56125 1.58867,3.56357 1.59163,3.5656 1.59477,3.56734 1.59806,3.56877 1.60147,3.56989 1.60498,3.57067 1.60858,3.57111 1.61224,3.5712 1.61593,3.57093 1.61962,3.57027 "/>
     <polygon id="_443444192" class="fil1" points="2.24064,3.98874 6.02691,7.77501 6.0251,7.77884 6.02347,7.78298 6.022,7.78743 6.02069,7.79217 6.01951,7.79719 6.01846,7.80247 6.01754,7.80802 6.01672,7.8138 6.016,7.81982 6.01537,7.82605 6.01481,7.83249 6.01432,7.83913 6.01388,7.84595 6.01348,7.85294 6.01311,7.86009 6.01276,7.86738 6.01242,7.87481 6.01207,7.88235 6.01171,7.89001 6.01133,7.89777 6.01091,7.90561 6.01044,7.91352 6.00992,7.9215 6.00933,7.92952 6.00865,7.93758 6.00789,7.94566 6.00702,7.95376 6.00604,7.96185 6.00493,7.96994 6.00369,7.978 6.0023,7.98602 6.00075,7.994 2.21448,4.20773 2.21603,4.19975 2.21742,4.19173 2.21866,4.18367 2.21977,4.17558 2.22075,4.16749 2.22162,4.15939 2.22239,4.15131 2.22306,4.14325 2.22365,4.13522 2.22418,4.12725 2.22464,4.11933 2.22506,4.1115 2.22544,4.10374 2.2258,4.09608 2.22615,4.08854 2.22649,4.08111 2.22684,4.07381 2.22721,4.06667 2.22761,4.05968 2.22805,4.05286 2.22855,4.04622 2.22911,4.03978 2.22974,4.03355 2.23046,4.02753 2.23128,4.02174 2.2322,4.0162 2.23324,4.01092 2.23442,4.0059 2.23573,4.00116 2.2372,3.99671 2.23883,3.99257 "/>
    </g>
    <path id="_637662424" class="fil1" d="M2.3254 4.57064l0 0zm-0.42713 0.0622441l0 0zm0.0814291 -1.85867c0.0729173,-0.0444724 0.160343,-0.0757913 0.258327,-0.0967638 0.151252,-0.032374 0.328535,-0.0402165 0.516421,-0.0340945 0.186811,0.00607874 0.341295,0.0453268 0.49522,0.0844252 0.200433,0.0509173 0.399917,0.101594 0.663866,0.074563l0.0718189 -0.00735827 0.237772 -0.0972126c-0.0188701,-0.0962008 0.0397283,-0.149874 0.137791,-0.149874 0.0141024,0 0.0277165,0.00158661 0.0405433,0.00451575l0.00501575 -0.0143189c0.0137008,-0.0393228 0.0217559,-0.0624252 0.0434331,-0.0801457 0.03,-0.0245276 0.0674646,-0.0236969 0.158264,-0.021689l0.000870079 1.5748e-005 0.152063 -0.267236c0.00597638,-0.0127244 0.0189055,-0.0215315 0.0338937,-0.0215315l0.208835 0 0 5.11811e-005c0.00140157,0 0.00281496,7.48031e-005 0.00424016,0.000240157 0.0591496,0.00681102 0.110362,0.0313858 0.148035,0.0629685 0.0268268,0.0224882 0.0472008,0.0489803 0.0591614,0.075685 0.00188189,0.00420472 0.00356299,0.00842126 0.00503543,0.0126457 0.0045315,0.0130197 0.00708268,0.0260827 0.0074685,0.0388504 0.000389764,0.0128071 -0.00139764,0.0253189 -0.00553543,0.0371929 -0.00614567,0.0176339 -0.017189,0.0332559 -0.033622,0.0457756l-0.0866378 0.0758189c-0.00458661,0.0044252 -0.0103622,0.00773622 -0.0169961,0.00936614l-0.0664724 0.0164685c-0.0126535,0.0268465 -0.0218268,0.0521024 -0.0269646,0.0755079 -0.00560236,0.0255157 -0.00633071,0.0484094 -0.0013937,0.0682441l-5.90551e-005 1.1811e-005 0.000496063 0.00232677c0.00882283,0.0491457 0.0243976,0.0856535 0.0450748,0.112598 0.0191969,0.0250236 0.0432244,0.0420866 0.0705433,0.0536693 0.0059685,0.00193701 0.0115315,0.00540551 0.0160551,0.010378l0.015626 0.017189 0.000240157 -0.000582677 0.00505118 -0.0122283c0.00435827,-0.0129055 0.0156299,-0.0229567 0.0300276,-0.0250591 0.0204252,-0.00298819 0.0394134,0.0111535 0.0424016,0.0315787l0.0116654 0.0794961c0.00137008,0.00120472 0.00268898,0.00237008 0.0039685,0.00350394 0.0257126,0.0228307 0.0336102,0.0326535 0.0471417,0.0752913l-0.000114173 3.54331e-005c0.00379528,0.0120669 0.00135433,0.0257677 -0.0076378,0.0359331 -0.0587992,0.0665472 -0.118224,0.101579 -0.177984,0.118748 -0.0535276,0.015374 -0.10615,0.015937 -0.158492,0.0120315l-0.00185039 0.00096063c0.000232283,-3.93701e-006 0.000468504,-1.1811e-005 0.000700787,-1.5748e-005 -0.0005,0.000141732 -0.00100394,0.000287402 -0.00150787,0.000437008l-0.20524 0.106622c-0.218902,0.14422 -0.492614,0.395024 -0.550035,0.569705 -0.00298425,0.0182244 -0.00543307,0.0330591 -0.00983465,0.0432008 -0.0215669,0.0497126 -0.0634449,0.195098 -0.0910079,0.318669 -0.00256299,0.0114921 -0.00502362,0.0227126 -0.00735827,0.0335551 -0.0151772,0.0705197 -0.0248583,0.12478 -0.0208583,0.130571 0.00935827,0.0135433 0.0168898,0.032685 0.0257362,0.055185 0.0128386,0.0326575 0.0290157,0.0737913 0.0516417,0.0991378 0.00720866,0.0080748 0.0153071,0.0150118 0.0234016,0.0209803 0.00820079,0.00605118 0.0168031,0.0112717 0.0245512,0.0157047 0.014248,0.00815354 0.0227441,0.0185945 0.0262008,0.0308346 0.00767323,0.0271102 -0.0057126,0.0457283 -0.0350827,0.0567717 -0.0115827,0.00435827 -0.0277677,0.00783858 -0.0469055,0.0103622 -0.0741457,0.00977953 -0.206913,0.00657087 -0.275811,-0.0160551 -0.00999606,-0.00326772 -0.0187008,-0.0160354 -0.0275236,-0.037937 -0.000370079,-0.000917323 -0.000740157,-0.00185039 -0.00111024,-0.00279921 -0.00755906,0.00287008 -0.0158346,0.0053937 -0.0247992,0.00752362 -0.0348504,0.00829528 -0.084122,0.0125748 -0.144386,0.0104331 -0.0272992,-0.000968504 -0.0562008,-0.00314961 -0.0862638,-0.00674409 -0.0178307,-0.00155118 -0.0324764,-0.0157638 -0.0339961,-0.0342008 -0.00620472,-0.0728819 0.00278346,-0.100811 0.0104882,-0.12474 0.00686614,-0.021315 0.0122087,-0.0379449 -0.0134173,-0.131445 -0.00151181,-0.00490945 -0.0020315,-0.0102126 -0.00134252,-0.0156417l0.00145276 -0.0113858c0.00411024,-0.0557126 0.0219685,-0.176075 0.025248,-0.202303 -0.217126,0.0318543 -0.447492,0.0592402 -0.673776,0.0488622 -0.220657,-0.010122 -0.436469,-0.0561929 -0.630835,-0.168756 -0.0202402,0.0390945 -0.00876772,0.13422 -0.0261535,0.218988 -0.00838189,0.040874 -0.005,0.106209 -0.00253543,0.153823 0.00174409,0.0337283 0.00309843,0.0598701 -0.000929134,0.0732756 -0.00935039,0.0311535 0.113925,0.135421 0.114382,0.135815 0.0088937,0.00687795 0.0145906,0.017689 0.0144961,0.0297992 -0.000161417,0.0205906 -0.0169882,0.0371535 -0.0375787,0.0369921l-0.348661 -0.00391732 -0.0553858 -0.000629921c-0.0167598,-0.00011811 -0.0319094,-0.0116181 -0.0359646,-0.0286496 -0.017126,-0.0711299 0.0163268,-0.165685 0.00101181,-0.21898 -0.00705512,-0.0913937 -0.0308268,-0.147579 -0.0442953,-0.227189 -0.0139488,-0.0652795 -0.0189843,-0.147783 0.00390157,-0.285047l-0.0988858 -0.326768 -0.000153543 -0.000496063c-0.0262874,-0.0355079 -0.0470984,-0.0714803 -0.0616732,-0.108756 -0.0156181,-0.0399606 -0.0239567,-0.0812953 -0.0240669,-0.124976 -7.08661e-005,-0.0277717 0.00322441,-0.0562717 0.010126,-0.0857402 -0.0324134,0.0892677 -0.0378898,0.188476 -0.00157874,0.295571 0.00661811,0.0195394 -0.00385433,0.040752 -0.0233937,0.047374 -0.0195433,0.00661811 -0.040752,-0.00385433 -0.047374,-0.0233937 -0.0527874,-0.155705 -0.0299646,-0.296835 0.0349685,-0.418906 0.0800945,-0.150567 0.224732,-0.270933 0.368713,-0.352654 3.14961e-005,-1.9685e-005 6.29921e-005,-3.54331e-005 9.44882e-005,-5.90551e-005z"/>
   </g>
  </g>
  <path class="fil2" d="M3.41333 -3.93701e-006c1.88513,0 3.41333,1.5282 3.41333,3.41333 0,1.88513 -1.5282,3.41333 -3.41333,3.41333 -1.88513,0 -3.41333,-1.5282 -3.41333,-3.41333 0,-1.88513 1.5282,-3.41333 3.41333,-3.41333z"/>
  <path class="fil3" d="M1.9797 2.77422c0.0179252,-0.0101732 0.0407047,-0.00388976 0.050878,0.0140354 0.0101732,0.0179252 0.00388976,0.0407047 -0.0140354,0.050878 -0.133378,0.075685 -0.266843,0.186177 -0.339563,0.322882 -0.055874,0.105035 -0.075563,0.226303 -0.0302874,0.359839 0.00661811,0.0195394 -0.00385433,0.040752 -0.0233937,0.047374 -0.0195433,0.00661811 -0.040752,-0.00385433 -0.047374,-0.0233937 -0.0527874,-0.155705 -0.0299646,-0.296835 0.0349685,-0.418906 0.0801102,-0.150598 0.224795,-0.270984 0.368807,-0.352709z"/>
  <path class="fil4" d="M4.40146 2.55242c0.00178346,-0.00504331 0.00344488,-0.00981496 0.00501575,-0.0143189 0.0137008,-0.0393228 0.0217559,-0.0624252 0.0434331,-0.0801457 0.03,-0.0245276 0.0674646,-0.0236969 0.158264,-0.021689l0.000870079 1.5748e-005 0.152063 -0.267236c0.00597638,-0.0127244 0.0189055,-0.0215315 0.0338937,-0.0215315l0.208835 0 0 5.11811e-005c0.00140157,0 0.00281496,7.48031e-005 0.00424016,0.000240157 0.0591496,0.00681102 0.110362,0.0313858 0.148035,0.0629685 0.0268268,0.0224882 0.0472008,0.0489803 0.0591614,0.075685 0.0135079,0.0301496 0.0165748,0.0611339 0.0069685,0.088689 -0.00614567,0.0176339 -0.017189,0.0332559 -0.033622,0.0457756l-0.0866378 0.0758189c-0.00458661,0.0044252 -0.0103622,0.00773622 -0.0169961,0.00936614l-0.0664724 0.0164685c-0.0126535,0.0268465 -0.0218268,0.0521024 -0.0269646,0.0755079 -0.00560236,0.0255157 -0.00633071,0.0484094 -0.0013937,0.0682441l-5.90551e-005 1.1811e-005c0.000185039,0.000767717 0.000354331,0.00153937 0.000496063,0.00232677 0.00882283,0.0491457 0.0243976,0.0856535 0.0450748,0.112598 0.0191969,0.0250236 0.0432244,0.0420866 0.0705433,0.0536693 0.0059685,0.00193701 0.0115315,0.00540551 0.0160551,0.010378l0.015626 0.017189 0.00529134 -0.012811c0.00435827,-0.0129055 0.0156299,-0.0229567 0.0300276,-0.0250591 0.0204252,-0.00298819 0.0394134,0.0111535 0.0424016,0.0315787l0.0116654 0.0794961c0.0289094,0.0254409 0.0369055,0.0340394 0.0511102,0.0787953l-0.000114173 3.54331e-005c0.00379528,0.0120669 0.00135433,0.0257677 -0.0076378,0.0359331 -0.0587992,0.0665472 -0.118224,0.101579 -0.177984,0.118748 -0.0535276,0.015374 -0.10615,0.015937 -0.158492,0.0120315l-0.463941 0.241016 -7.48031e-005 7.08661e-005c-0.000629921,0.00057874 -0.155079,0.148319 -0.240787,0.282209 -0.0547205,0.0854803 -0.0489528,0.165323 -0.0629646,0.197614 -0.0215669,0.0497126 -0.0634449,0.195098 -0.0910079,0.318669 -0.0192362,0.086248 -0.0328307,0.157445 -0.0282165,0.164126 0.00935827,0.0135433 0.0168898,0.032685 0.0257362,0.055185 0.0128386,0.0326575 0.0290157,0.0737913 0.0516417,0.0991378 0.00720866,0.0080748 0.0153071,0.0150118 0.0234016,0.0209803 0.00820079,0.00605118 0.0168031,0.0112717 0.0245512,0.0157047 0.014248,0.00815354 0.0227441,0.0185945 0.0262008,0.0308346 0.00767323,0.0271102 -0.0057126,0.0457283 -0.0350827,0.0567717 -0.0115827,0.00435827 -0.0277677,0.00783858 -0.0469055,0.0103622 -0.0741457,0.00977953 -0.206913,0.00657087 -0.275811,-0.0160551 -0.0104134,-0.00340551 -0.0194291,-0.017122 -0.0286339,-0.0407362 -0.00755906,0.00287008 -0.0158346,0.0053937 -0.0247992,0.00752362 -0.0348504,0.00829528 -0.084122,0.0125748 -0.144386,0.0104331 -0.0272992,-0.000968504 -0.0562008,-0.00314961 -0.0862638,-0.00674409 -0.0178307,-0.00155118 -0.0324764,-0.0157638 -0.0339961,-0.0342008 -0.00620472,-0.0728819 0.00278346,-0.100811 0.0104882,-0.12474 0.00686614,-0.021315 0.0122087,-0.0379449 -0.0134173,-0.131445 -0.00151181,-0.00490945 -0.0020315,-0.0102126 -0.00134252,-0.0156417l0.0272205 -0.213366 -0.000519685 -0.000322835c-0.217126,0.0318543 -0.447492,0.0592402 -0.673776,0.0488622 -0.220657,-0.010122 -0.436469,-0.0561929 -0.630835,-0.168756 -0.0202402,0.0390945 -0.00876772,0.13422 -0.0261535,0.218988 -0.00838189,0.040874 -0.005,0.106209 -0.00253543,0.153823 0.00174409,0.0337283 0.00309843,0.0598701 -0.000929134,0.0732756 -0.00935039,0.0311535 0.113925,0.135421 0.114402,0.135787l-1.9685e-005 2.75591e-005c0.0088937,0.00687795 0.0145906,0.017689 0.0144961,0.0297992 -0.000161417,0.0205906 -0.0169882,0.0371535 -0.0375787,0.0369921l-0.404047 -0.00453937 0 -7.87402e-006c-0.0167598,-0.00011811 -0.0319094,-0.0116181 -0.0359646,-0.0286496 -0.017126,-0.0711299 0.0163268,-0.165685 0.00101181,-0.21898 -0.0129803,-0.168181 -0.0825787,-0.21713 -0.0403937,-0.512236l-0.0990394 -0.327264c-0.0262874,-0.0355079 -0.0470984,-0.0714803 -0.0616732,-0.108756 -0.0156181,-0.0399606 -0.0239567,-0.0812953 -0.0240669,-0.124976 -0.000161417,-0.0638858 0.0174724,-0.13161 0.0559055,-0.206169 0.0369961,-0.0717677 0.0936693,-0.150453 0.172866,-0.238969 0.0865433,-0.0967362 0.215512,-0.15613 0.37111,-0.189433 0.151252,-0.032374 0.328535,-0.0402165 0.516421,-0.0340945 0.186811,0.00607874 0.341295,0.0453268 0.49522,0.0844252 0.200433,0.0509173 0.399917,0.101594 0.663866,0.074563l0.0718189 -0.00735827 0.237772 -0.0972126c-0.0188701,-0.0962008 0.0397283,-0.149874 0.137791,-0.149874 0.0141024,0 0.0277165,0.00158661 0.0405433,0.00451575z"/>
  <path class="fil5" d="M2.01867 2.83783l-0.00198425 0.00122441c0.000677165,-0.000389764 0.00134252,-0.000799213 0.00198425,-0.00122441z"/>
  <path class="fil5" d="M4.4713 2.76581l-3.93701e-006 0 7.48031e-005 0.000885827c-1.9685e-005,-0.000295276 -3.93701e-005,-0.000590551 -7.08661e-005,-0.000885827z"/>
  <path class="fil6" d="M4.65067 2.79468c-0.0647953,0.0155394 -0.0430669,0.129465 0.0124803,0.176079 0.107343,0.0900906 0.200724,0.0835157 0.330642,0.0779606 0.0252717,-0.00107874 0.0217953,0.0280945 0.090752,0.00961024 0.0398268,-0.0106732 0.0185984,0.0237598 0.0924764,-0.023185 0.0033189,-0.0021063 0.0114724,-0.00383465 0.0124803,-0.00819685 0.0144016,0 0.0403898,-0.0638819 0.0417244,-0.0874134 3.93701e-006,-0.000110236 1.1811e-005,-0.000216535 1.9685e-005,-0.000326772 -0.00127559,-0.00113386 -0.00259843,-0.00229921 -0.0039685,-0.00350394l-0.0116654 -0.0794961c-0.00298819,-0.0204252 -0.0219764,-0.0345669 -0.0424016,-0.0315787 -0.0143976,0.00210236 -0.0256693,0.0121535 -0.0300276,0.0250591l-0.00529134 0.012811 -0.015626 -0.017189c-0.00452362,-0.00497244 -0.0100866,-0.00844094 -0.0160551,-0.010378 -0.0273189,-0.0115827 -0.0513465,-0.0286457 -0.0705433,-0.0536693 -0.0206772,-0.0269449 -0.036252,-0.0634528 -0.0450748,-0.112598l-0.000496063 -0.00232677 5.90551e-005 -1.1811e-005c-0.00493701,-0.0198346 -0.00420866,-0.0427283 0.0013937,-0.0682441 0.0051378,-0.0234055 0.014311,-0.0486614 0.0269646,-0.0755079l0.0664724 -0.0164685c0.00663386,-0.00162992 0.0124094,-0.00494094 0.0169961,-0.00936614l0.0866378 -0.0758189c0.0164331,-0.0125197 0.0274764,-0.0281417 0.033622,-0.0457756 0.0041378,-0.011874 0.0059252,-0.0243858 0.00553543,-0.0371929 -0.0111142,-0.000728346 -0.0209764,0.00237402 -0.0237323,0.00173622 -0.0376063,0.0132559 -0.0992598,0.0304843 -0.104409,0.0734921 -0.0162795,0.00954724 0.0126929,0.0176811 -0.034878,0.0214606 -0.0493307,0.00392126 -0.0624921,0.0219882 -0.0767638,0.0604685 -0.0079252,0.021378 -0.0542283,-0.000346457 -0.0507008,0.0822441 0.00140551,0.0329055 -0.100941,0.00266142 -0.104016,0.053 -0.00533465,0.0874646 -0.010063,0.0535748 -0.0784331,0.106157 -0.0266496,0.0204961 0.0111339,0.0305236 -0.0991575,0.0569685l-0.00501575 0.00120079z"/>
  <path class="fil7" d="M4.72089 2.68427c-0.0357402,0.0243228 -0.0356929,0.048748 -0.0754055,0.0772283 -0.0252638,0.0181181 -0.0412205,0.0660394 -0.0345512,0.0979173 -0.000830709,-0.0313425 0.0108622,-0.057811 0.0397402,-0.0647362l0.00501575 -0.00120079c0.110291,-0.0264449 0.0725079,-0.0364724 0.0991575,-0.0569685 0.0683701,-0.0525827 0.0730984,-0.0186929 0.0784331,-0.106157 0.0030748,-0.0503386 0.105421,-0.0200945 0.104016,-0.053 -0.00352756,-0.0825906 0.0427756,-0.0608661 0.0507008,-0.0822441 0.0142717,-0.0384803 0.0274331,-0.0565472 0.0767638,-0.0604685 0.0475709,-0.00377953 0.0185984,-0.0119134 0.034878,-0.0214606 0.00514961,-0.0430079 0.0668031,-0.0602362 0.104409,-0.0734921 0.00275591,0.000637795 0.0126181,-0.00246457 0.0237323,-0.00173622 -0.000385827,-0.0127677 -0.00293701,-0.0258307 -0.0074685,-0.0388504 -0.0270787,-0.00341339 -0.0654134,0.0263661 -0.0924921,0.028626 -0.00806693,0.000673228 -0.0157008,0.00975591 -0.0185906,0.018122 -0.0219291,0.00454724 -0.0690394,0.0531457 -0.116965,0.0674646 -0.0554213,0.0165551 -0.0295787,0.0513425 -0.0743071,0.075874 -0.0129173,0.00708268 -0.00123228,0.0350157 -0.0484567,0.0584803 -0.0353858,0.0175787 0.0106102,0.0384173 -0.0799449,0.059685 -0.0461535,0.0108386 -0.00535039,0.0338228 -0.0686654,0.0769173z"/>
  <path class="fil7" d="M5.1895 3.02695c0.0144016,0 0.0403898,-0.0638819 0.0417244,-0.0874134l1.9685e-005 -0.000326772 -0.0039685 -0.00350394 -0.0116654 -0.0794961c-0.00298819,-0.0204252 -0.0219764,-0.0345669 -0.0424016,-0.0315787 -0.0143976,0.00210236 -0.0256693,0.0121535 -0.0300276,0.0250591l-0.00505118 0.0122283c0.0135394,0.0803622 -0.134945,0.117677 -0.195921,0.123169 -0.0744331,0.00670079 -0.0730748,0.00162992 -0.139559,-0.00398425 -0.0283701,-0.00239764 -0.12865,-0.016126 -0.154429,-0.025378 0.0046378,0.00552756 0.00962992,0.0105866 0.0149291,0.0150354 0.107343,0.0900906 0.200724,0.0835157 0.330642,0.0779606 0.0252717,-0.00107874 0.0217953,0.0280945 0.090752,0.00961024 0.0398268,-0.0106732 0.0185984,0.0237598 0.0924764,-0.023185 0.0033189,-0.0021063 0.0114724,-0.00383465 0.0124803,-0.00819685z"/>
  <ellipse class="fil8" transform="matrix(0.438526 0.361468 -0.332353 0.328169 4.41209 2.75412)" rx="0.121094" ry="0.118488"/>
  <ellipse class="fil6" transform="matrix(0.202753 0.167125 -0.153664 0.151729 4.41209 2.75412)" rx="0.121094" ry="0.118488"/>
  <path class="fil9" d="M4.93301 3.18219c-0.088811,0.00201575 -0.217051,0.0354685 -0.339386,0.0397992 -0.0895866,0.00317323 -0.166539,0.023685 -0.227878,0.0840709 -0.134555,0.132472 -0.103634,0.103102 -0.232366,0.258264l-0.00762205 0.00919291c-0.0556654,0.0670906 -0.0502362,0.171484 -0.0584843,0.266205 -0.00729528,0.0838386 0.0474685,0.210043 0.0268386,0.291791 -0.0143031,0.0566614 -0.0220394,0.087878 -0.0260866,0.122866 0.00233465,-0.0108425 0.00479528,-0.022063 0.00735827,-0.0335551 0.027563,-0.123571 0.0694409,-0.268957 0.0910079,-0.318669 0.0266063,-0.233323 0.561012,-0.661248 0.766618,-0.719965z"/>
  <path class="fil6" d="M3.81337 4.61994c-0.00277559,-0.0908031 -0.0345354,-0.192087 -0.0345354,-0.307516 0,-0.0676811 -0.0144764,-0.193846 0.0100276,-0.250331 0.00316142,-0.00728346 0.00978346,-0.041315 0.00793701,-0.0511732 -0.0175118,0.00512992 -0.118732,0.0854331 -0.251555,0.0977165 -0.00408661,0.032689 -0.0308228,0.211606 -0.0253583,0.229331 0.025626,0.0935 0.0202835,0.11013 0.0134173,0.131445 -0.00770472,0.0239291 -0.0166929,0.0518583 -0.0104882,0.12474 0.00151969,0.018437 0.0161654,0.0326496 0.0339961,0.0342008 0.030063,0.00359449 0.0589646,0.00577559 0.0862638,0.00674409 0.0602638,0.00214173 0.109535,-0.0021378 0.144386,-0.0104331 0.00896457,-0.00212992 0.0172402,-0.00465354 0.0247992,-0.00752362 0.000370079,0.000944882 0.000744094,0.00188189 0.00111024,0.00279921z"/>
  <path class="fil6" d="M1.89827 4.63289l0 0zm0.0419685 -0.536067c-0.0234094,-0.0854173 -0.00855906,-0.194886 -0.0221929,-0.234142 -0.0358425,-0.103177 -0.149807,-0.230264 -0.194008,-0.316433l0.0988858 0.326768c-0.0497992,0.298665 0.0325984,0.338067 0.0513583,0.504925 0.0153189,0.0532953 -0.0291024,0.155161 -0.0119764,0.226291 0.00405512,0.0170315 0.0192047,0.0285315 0.0359646,0.0286575l0.0553858 0.000622047c-0.00122835,-0.0048189 -0.000791339,-0.00358661 -0.00245276,-0.00762205 -0.0306339,-0.0742638 0.0165827,-0.0893819 0.00731102,-0.113315 -0.0413701,-0.106772 0.0131496,-0.301083 -0.0182756,-0.415752z"/>
 </g>
</svg>
