<?xml version="1.0" encoding="UTF-8"?>
<!DOCTYPE svg PUBLIC "-//W3C//DTD SVG 1.1//EN" "http://www.w3.org/Graphics/SVG/1.1/DTD/svg11.dtd">
<!-- Creator: CorelDRAW -->
<svg xmlns="http://www.w3.org/2000/svg" xml:space="preserve" width="6.82666in" height="6.82666in" style="shape-rendering:geometricPrecision; text-rendering:geometricPrecision; image-rendering:optimizeQuality; fill-rule:evenodd; clip-rule:evenodd"
viewBox="0 0 6.82666 6.82666"
 xmlns:xlink="http://www.w3.org/1999/xlink">
 <defs>
  <style type="text/css">
   <![CDATA[
    .fil2 {fill:none}
    .fil4 {fill:#4E342E}
    .fil3 {fill:#6D4C41}
    .fil1 {fill:#E9BB77}
    .fil0 {fill:#FFCC80}
   ]]>
  </style>
   <clipPath id="id0">
    <path d="M3.41333 -3.93701e-006c1.88513,0 3.41333,1.5282 3.41333,3.41333 0,1.88513 -1.5282,3.41333 -3.41333,3.41333 -1.88513,0 -3.41333,-1.5282 -3.41333,-3.41333 0,-1.88513 1.5282,-3.41333 3.41333,-3.41333z"/>
   </clipPath>
 </defs>
 <g id="Layer_x0020_1">
  <metadata id="CorelCorpID_0Corel-Layer"/>
  <path class="fil0" d="M3.41333 -3.93701e-006c1.88513,0 3.41333,1.5282 3.41333,3.41333 0,1.88513 -1.5282,3.41333 -3.41333,3.41333 -1.88513,0 -3.41333,-1.5282 -3.41333,-3.41333 0,-1.88513 1.5282,-3.41333 3.41333,-3.41333z"/>
  <g style="clip-path:url(#id0)">
   <g id="_637662352">
    <g>
     <polygon id="_4627548241" class="fil1" points="4.81124,1.77437 8.59751,5.56064 8.59775,5.56121 8.59844,5.56287 8.59956,5.56554 8.60104,5.56913 8.60285,5.57356 8.60495,5.57875 8.6073,5.58462 8.60985,5.59109 8.61257,5.59808 8.61541,5.6055 8.61832,5.61327 8.62128,5.62132 8.62423,5.62955 8.62714,5.63789 8.62996,5.64626 8.63266,5.65457 4.84639,1.8683 4.8437,1.85999 4.84087,1.85162 4.83796,1.84328 4.83501,1.83505 4.83206,1.827 4.82914,1.81923 4.8263,1.81181 4.82358,1.80482 4.82103,1.79835 4.81868,1.79248 4.81658,1.78728 4.81477,1.78285 4.81329,1.77926 4.81218,1.7766 4.81148,1.77494 "/>
     <polygon id="_462754848" class="fil1" points="4.84639,1.8683 8.63266,5.65457 8.63512,5.66268 8.63746,5.67099 8.63968,5.67942 8.64177,5.68787 8.64373,5.69622 8.64555,5.70438 8.64723,5.71224 8.64875,5.71971 8.65012,5.72669 8.65132,5.73306 8.65235,5.73873 8.65321,5.7436 8.65389,5.74757 8.65438,5.75053 8.65468,5.75238 8.65478,5.75302 4.86852,1.96674 4.86841,1.96611 4.86811,1.96426 4.86762,1.9613 4.86694,1.95733 4.86609,1.95246 4.86505,1.94679 4.86385,1.94041 4.86248,1.93344 4.86096,1.92597 4.85928,1.91811 4.85746,1.90994 4.8555,1.90159 4.85341,1.89315 4.85119,1.88472 4.84885,1.87641 "/>
     <polygon id="_462757416" class="fil1" points="5.00174,1.99167 8.788,5.77794 8.7847,5.78605 8.78056,5.79442 8.77572,5.80293 8.77033,5.81148 8.76454,5.81996 8.75849,5.82826 8.75233,5.83628 8.7462,5.84391 8.74025,5.85104 8.73462,5.85757 8.72946,5.86338 8.72491,5.86838 8.72111,5.87246 8.71823,5.8755 8.71639,5.8774 8.71574,5.87806 4.92948,2.09179 4.93012,2.09113 4.93196,2.08922 4.93485,2.08619 4.93864,2.08211 4.94319,2.07711 4.94835,2.0713 4.95398,2.06477 4.95993,2.05763 4.96606,2.05001 4.97222,2.04199 4.97827,2.03369 4.98406,2.02521 4.98945,2.01666 4.99429,2.00815 4.99843,1.99978 "/>
     <polygon id="_462757464" class="fil1" points="5.23668,2.48713 9.02294,6.2734 9.02115,6.28005 9.01797,6.28648 9.01353,6.29266 9.00798,6.29857 9.00146,6.30416 8.99411,6.30941 8.98607,6.31429 8.97749,6.31876 8.96849,6.32279 8.95922,6.32635 8.94983,6.3294 8.94045,6.33192 8.93123,6.33387 8.9223,6.33522 8.9138,6.33594 8.90588,6.336 5.11961,2.54973 5.12753,2.54967 5.13603,2.54895 5.14496,2.5476 5.15419,2.54565 5.16356,2.54313 5.17296,2.54007 5.18222,2.53652 5.19122,2.53249 5.19981,2.52802 5.20785,2.52314 5.2152,2.51789 5.22172,2.5123 5.22726,2.50639 5.2317,2.50021 5.23489,2.49378 "/>
     <polygon id="_462757704" class="fil1" points="5.05697,2.51704 8.84324,6.30331 8.84288,6.3033 8.84184,6.30326 8.84016,6.30322 8.83787,6.30316 8.83503,6.30309 8.83167,6.30303 8.82783,6.30298 8.82355,6.30293 8.81888,6.30291 8.81386,6.3029 8.80853,6.30293 8.80293,6.30298 8.7971,6.30308 8.79109,6.30323 8.78493,6.30342 8.77867,6.30367 8.77235,6.30398 8.766,6.30436 8.75968,6.30481 8.75342,6.30534 8.74727,6.30595 8.74126,6.30665 8.73544,6.30745 8.72985,6.30835 8.72452,6.30935 8.71952,6.31046 8.71486,6.31169 8.7106,6.31304 8.70678,6.31452 8.70343,6.31613 8.7006,6.31788 8.69834,6.31978 4.91207,2.5335 4.91433,2.53161 4.91716,2.52986 4.92051,2.52825 4.92433,2.52677 4.92859,2.52542 4.93325,2.52419 4.93826,2.52308 4.94358,2.52207 4.94917,2.52118 4.95499,2.52038 4.961,2.51968 4.96715,2.51907 4.97341,2.51854 4.97974,2.51809 4.98608,2.51771 4.9924,2.5174 4.99867,2.51715 5.00482,2.51696 5.01083,2.51681 5.01667,2.51671 5.02226,2.51665 5.02759,2.51663 5.03261,2.51663 5.03728,2.51666 5.04156,2.5167 5.0454,2.51676 5.04876,2.51682 5.05161,2.51689 5.05389,2.51694 5.05557,2.51699 5.05661,2.51703 "/>
     <polygon id="_462757536" class="fil1" points="5.11961,2.54973 8.90588,6.336 8.89883,6.33539 8.89214,6.33417 8.88581,6.33244 8.87985,6.33027 8.8743,6.32777 8.86915,6.32501 8.86442,6.32209 8.86013,6.31911 8.85628,6.31613 8.85291,6.31327 8.85001,6.3106 8.84761,6.30821 8.84572,6.3062 8.84435,6.30465 5.05808,2.51838 5.05945,2.51993 5.06134,2.52194 5.06374,2.52433 5.06664,2.527 5.07002,2.52986 5.07386,2.53283 5.07815,2.53582 5.08288,2.53874 5.08803,2.5415 5.09359,2.544 5.09954,2.54617 5.10587,2.5479 5.11257,2.54912 "/>
     <polygon id="_462757344" class="fil1" points="4.91207,2.5335 8.69834,6.31978 8.69634,6.32174 8.6943,6.3237 8.69222,6.32568 8.69013,6.3277 8.68804,6.32978 8.68595,6.33195 8.68388,6.33422 8.68184,6.33664 8.67985,6.3392 8.67791,6.34195 8.67603,6.3449 8.67424,6.34808 8.67253,6.35151 8.67093,6.35521 8.66944,6.3592 8.66808,6.36352 8.66686,6.36819 8.66579,6.37322 8.66489,6.37864 8.66415,6.38447 8.66361,6.39074 8.66326,6.39747 8.66312,6.40469 8.6632,6.41241 8.66353,6.42066 8.66409,6.42947 8.66492,6.43885 8.66602,6.44884 8.6674,6.45944 8.66907,6.4707 8.67106,6.48263 8.67335,6.49525 4.88709,2.70898 4.88479,2.69636 4.8828,2.68443 4.88113,2.67317 4.87975,2.66257 4.87865,2.65258 4.87783,2.6432 4.87726,2.63439 4.87694,2.62614 4.87685,2.61841 4.87699,2.6112 4.87734,2.60447 4.87788,2.5982 4.87862,2.59237 4.87952,2.58694 4.88059,2.58192 4.88181,2.57725 4.88318,2.57293 4.88467,2.56894 4.88626,2.56524 4.88797,2.56181 4.88976,2.55863 4.89164,2.55568 4.89358,2.55293 4.89557,2.55037 4.89761,2.54795 4.89968,2.54568 4.90177,2.54351 4.90387,2.54143 4.90595,2.53941 4.90803,2.53743 4.91007,2.53547 "/>
     <polygon id="_462757560" class="fil1" points="4.88709,2.70898 8.67335,6.49525 8.67567,6.50802 8.6777,6.52035 8.67943,6.53229 8.68087,6.54383 8.68203,6.55498 8.68291,6.56576 8.68351,6.57619 8.68384,6.58628 8.68389,6.59603 8.68369,6.60547 8.68321,6.6146 8.68248,6.62344 8.68149,6.632 8.68025,6.6403 8.67876,6.64835 8.67703,6.65615 8.67505,6.66374 8.67284,6.6711 8.67039,6.67827 8.66772,6.68525 8.66481,6.69206 8.66169,6.6987 8.65834,6.7052 8.65478,6.71157 8.651,6.71781 8.64702,6.72395 8.64283,6.72999 8.63844,6.73594 8.63385,6.74183 8.62907,6.74766 8.62409,6.75345 8.61893,6.75921 4.83267,2.97294 4.83783,2.96718 4.8428,2.96139 4.84758,2.95556 4.85217,2.94967 4.85656,2.94372 4.86075,2.93768 4.86473,2.93154 4.86851,2.9253 4.87207,2.91893 4.87542,2.91243 4.87854,2.90579 4.88145,2.89898 4.88413,2.892 4.88657,2.88483 4.88878,2.87746 4.89076,2.86988 4.89249,2.86207 4.89398,2.85403 4.89522,2.84573 4.89621,2.83717 4.89694,2.82833 4.89742,2.8192 4.89763,2.80976 4.89757,2.8 4.89724,2.78992 4.89664,2.77949 4.89576,2.76871 4.89461,2.75756 4.89316,2.74602 4.89143,2.73408 4.88941,2.72174 "/>
     <polygon id="_462757584" class="fil1" points="4.83267,2.97294 8.61893,6.75921 8.60877,6.77017 8.59933,6.78007 8.59061,6.78896 8.58259,6.79691 8.57527,6.80394 8.56863,6.81011 8.56267,6.81546 8.55738,6.82005 8.55274,6.82392 8.54876,6.82712 8.54541,6.82969 8.54269,6.83169 8.54059,6.83317 8.53911,6.83416 8.53822,6.83472 8.53793,6.8349 4.75166,3.04863 4.75195,3.04845 4.75284,3.04789 4.75433,3.0469 4.75643,3.04542 4.75914,3.04342 4.76249,3.04085 4.76648,3.03765 4.77111,3.03378 4.77641,3.02919 4.78237,3.02383 4.789,3.01767 4.79633,3.01063 4.80435,3.00269 4.81307,2.9938 4.8225,2.98389 "/>
     <polygon id="_462757800" class="fil1" points="4.80594,3.10735 8.59221,6.89362 8.59952,6.90171 8.60692,6.90994 8.61432,6.91824 8.62165,6.92654 4.83538,3.14026 4.82805,3.13197 4.82065,3.12367 4.81326,3.11544 "/>
     <polygon id="_462757128" class="fil1" points="4.83538,3.14026 8.62165,6.92654 8.62528,6.93057 4.83901,3.1443 "/>
     <polygon id="_462757296" class="fil1" points="4.84791,3.15404 8.63418,6.94031 8.63917,6.94598 8.64434,6.95215 8.64954,6.9588 8.65463,6.96591 8.65948,6.97346 8.66393,6.98143 8.66786,6.9898 8.67113,6.99855 8.67358,7.00766 8.67509,7.0171 8.6755,7.02687 8.67469,7.03693 8.67252,7.04727 4.88625,3.261 4.88843,3.25066 4.88924,3.2406 4.88882,3.23083 4.88731,3.22139 4.88486,3.21228 4.88159,3.20352 4.87767,3.19515 4.87321,3.18719 4.86836,3.17963 4.86327,3.17252 4.85807,3.16587 4.85291,3.15971 "/>
     <polygon id="_462758376" class="fil1" points="4.75827,3.27654 8.54454,7.06281 8.53999,7.05785 8.5348,7.0523 8.52905,7.04626 8.52278,7.03982 8.51606,7.03307 8.50895,7.02612 8.50151,7.01905 8.4938,7.01197 8.48587,7.00496 8.4778,6.99813 8.46963,6.99157 4.68336,3.2053 4.69153,3.21186 4.6996,3.21869 4.70753,3.2257 4.71524,3.23278 4.72269,3.23985 4.7298,3.2468 4.73652,3.25355 4.74278,3.25999 4.74854,3.26603 4.75372,3.27158 "/>
     <polygon id="_462758232" class="fil1" points="4.58013,3.12228 8.3664,6.90856 8.3659,6.90875 8.36442,6.90931 8.36201,6.91023 8.3587,6.91149 8.35453,6.91307 8.34954,6.91495 8.34378,6.91712 8.33728,6.91956 8.33008,6.92225 8.32223,6.92517 8.31376,6.92831 8.3047,6.93166 8.29512,6.93519 8.28503,6.93888 8.27449,6.94272 8.26352,6.9467 8.25218,6.95079 8.2405,6.95497 8.22852,6.95924 8.21629,6.96357 8.20383,6.96794 8.19119,6.97235 8.17842,6.97677 8.16554,6.98118 8.15261,6.98557 8.13965,6.98992 8.12672,6.99421 8.11385,6.99843 8.10107,7.00255 8.08844,7.00657 8.07598,7.01046 8.06375,7.01421 4.27748,3.22794 4.28972,3.22419 4.30217,3.2203 4.3148,3.21628 4.32758,3.21215 4.34045,3.20794 4.35339,3.20365 4.36634,3.1993 4.37928,3.19491 4.39215,3.1905 4.40493,3.18608 4.41756,3.18167 4.43002,3.1773 4.44226,3.17297 4.45424,3.1687 4.46591,3.16452 4.47726,3.16043 4.48822,3.15645 4.49876,3.15261 4.50885,3.14891 4.51844,3.14539 4.52749,3.14204 4.53596,3.1389 4.54381,3.13598 4.55101,3.13328 4.55751,3.13085 4.56328,3.12868 4.56826,3.1268 4.57243,3.12522 4.57574,3.12396 4.57815,3.12304 4.57963,3.12248 "/>
     <polygon id="_462758112" class="fil1" points="4.68336,3.2053 8.46963,6.99157 8.46124,6.98503 8.4526,6.97824 8.44381,6.97127 8.435,6.96424 8.42625,6.95724 8.41769,6.95035 8.40943,6.94367 8.40157,6.9373 8.39422,6.93133 8.3875,6.92585 8.38151,6.92095 8.37636,6.91674 8.37217,6.9133 8.36904,6.91072 8.36708,6.90911 8.3664,6.90856 4.58013,3.12228 4.58081,3.12284 4.58277,3.12445 4.5859,3.12703 4.59009,3.13047 4.59524,3.13468 4.60123,3.13957 4.60795,3.14506 4.6153,3.15103 4.62316,3.1574 4.63143,3.16407 4.63998,3.17096 4.64873,3.17797 4.65755,3.185 4.66633,3.19196 4.67497,3.19876 "/>
     <polygon id="_462758160" class="fil1" points="4.88625,3.261 8.67252,7.04727 8.67099,7.05267 8.66929,7.05834 8.66743,7.06426 8.6654,7.07041 8.66321,7.07674 8.66087,7.08325 8.65837,7.0899 8.65572,7.09666 8.65293,7.1035 8.65,7.1104 8.64693,7.11733 8.64372,7.12426 8.64038,7.13117 8.63692,7.13802 8.63333,7.14479 8.62962,7.15145 8.6258,7.15798 8.62186,7.16434 8.61781,7.17051 8.61367,7.17645 8.60941,7.18216 8.60507,7.18758 8.60062,7.1927 8.59609,7.1975 8.59147,7.20194 8.58676,7.20598 8.58198,7.20962 8.57713,7.21282 8.57219,7.21555 8.5672,7.21778 8.56213,7.21948 8.55701,7.22064 4.77074,3.43437 4.77587,3.43321 4.78093,3.43151 4.78593,3.42928 4.79086,3.42655 4.79572,3.42335 4.8005,3.41971 4.8052,3.41567 4.80982,3.41123 4.81435,3.40643 4.8188,3.40131 4.82315,3.39589 4.8274,3.39018 4.83155,3.38424 4.83559,3.37807 4.83953,3.3717 4.84335,3.36518 4.84706,3.35852 4.85065,3.35175 4.85411,3.3449 4.85745,3.33799 4.86066,3.33106 4.86373,3.32413 4.86666,3.31723 4.86945,3.31039 4.8721,3.30363 4.8746,3.29698 4.87694,3.29047 4.87913,3.28413 4.88116,3.27799 4.88302,3.27207 4.88472,3.26639 "/>
     <polygon id="_462758280" class="fil1" points="4.77074,3.43437 8.55701,7.22064 8.54702,7.22205 8.53764,7.22285 8.52889,7.2231 8.52076,7.22285 8.51326,7.22216 8.50639,7.22108 8.50016,7.21967 8.49456,7.21799 8.48961,7.21609 8.4853,7.21403 8.48164,7.21187 8.47863,7.20965 8.47627,7.20744 4.69,3.42117 4.69236,3.42338 4.69537,3.42559 4.69903,3.42776 4.70334,3.42982 4.7083,3.43172 4.71389,3.4334 4.72012,3.43481 4.72699,3.43589 4.73449,3.43658 4.74262,3.43683 4.75137,3.43658 4.76075,3.43578 "/>
     <polygon id="_462758088" class="fil1" points="4.27748,3.22794 8.06375,7.01421 8.05187,7.01781 8.04046,7.02131 8.0295,7.02471 8.01899,7.028 8.00892,7.0312 7.99927,7.03429 7.99003,7.03728 7.9812,7.04018 7.97277,7.04298 7.96472,7.04568 7.95705,7.04829 7.94974,7.05081 7.94278,7.05324 7.93617,7.05557 7.92989,7.05782 7.92394,7.05999 7.9183,7.06206 7.91296,7.06406 7.90792,7.06597 7.90316,7.0678 7.89867,7.06954 7.89445,7.07121 7.89048,7.07281 7.88674,7.07432 7.88325,7.07576 7.87997,7.07713 7.87691,7.07843 7.87404,7.07965 7.87137,7.0808 7.86888,7.08189 7.86656,7.08291 7.86441,7.08386 4.07814,3.29759 4.0803,3.29664 4.08261,3.29562 4.08511,3.29453 4.08778,3.29338 4.09064,3.29215 4.0937,3.29086 4.09698,3.28949 4.10048,3.28805 4.10421,3.28654 4.10818,3.28494 4.11241,3.28327 4.11689,3.28152 4.12165,3.2797 4.1267,3.27779 4.13204,3.27579 4.13767,3.27372 4.14363,3.27155 4.14991,3.2693 4.15652,3.26696 4.16347,3.26454 4.17078,3.26202 4.17845,3.25941 4.1865,3.2567 4.19494,3.25391 4.20376,3.25101 4.213,3.24802 4.22265,3.24493 4.23272,3.24173 4.24323,3.23844 4.25419,3.23504 4.2656,3.23154 "/>
     <polygon id="_462758448" class="fil1" points="4.07814,3.29759 7.86441,7.08386 7.85986,7.08614 7.8547,7.08921 7.84904,7.093 7.84301,7.09742 7.83673,7.10239 7.83032,7.10784 7.82391,7.11368 7.81761,7.11982 7.81156,7.1262 7.80587,7.13272 7.80067,7.1393 7.79609,7.14587 7.79224,7.15234 7.78924,7.15863 7.78723,7.16466 7.78633,7.17035 4.00006,3.38408 4.00096,3.37839 4.00298,3.37236 4.00597,3.36607 4.00982,3.3596 4.01441,3.35303 4.0196,3.34644 4.02529,3.33993 4.03134,3.33355 4.03764,3.32741 4.04405,3.32157 4.05046,3.31612 4.05674,3.31115 4.06278,3.30673 4.06843,3.30294 4.07359,3.29987 "/>
     <polygon id="_462758472" class="fil1" points="4.00006,3.38408 7.78633,7.17035 7.7861,7.1737 7.78572,7.17824 7.78519,7.1839 7.78452,7.1906 7.78371,7.19826 7.78278,7.20681 7.78173,7.21618 7.78056,7.22629 7.77929,7.23706 7.77792,7.24841 7.77645,7.26028 7.77491,7.27259 7.77328,7.28526 7.77158,7.29821 7.76982,7.31137 7.768,7.32467 7.76613,7.33803 7.76421,7.35137 7.76226,7.36463 7.76029,7.37771 7.75828,7.39055 7.75627,7.40307 7.75424,7.4152 7.75222,7.42687 7.7502,7.43798 7.74819,7.44848 7.7462,7.45829 7.74424,7.46732 7.74231,7.4755 7.74043,7.48277 7.73859,7.48904 7.7368,7.49423 3.95054,3.70796 3.95232,3.70276 3.95416,3.6965 3.95605,3.68923 3.95797,3.68105 3.95993,3.67202 3.96192,3.66221 3.96393,3.65171 3.96595,3.64059 3.96798,3.62893 3.97,3.6168 3.97202,3.60428 3.97402,3.59144 3.976,3.57835 3.97794,3.5651 3.97986,3.55176 3.98173,3.5384 3.98355,3.5251 3.98531,3.51194 3.98701,3.49898 3.98864,3.48631 3.99019,3.47401 3.99165,3.46214 3.99302,3.45078 3.9943,3.44002 3.99546,3.42991 3.99651,3.42054 3.99744,3.41199 3.99825,3.40433 3.99892,3.39763 3.99945,3.39197 3.99983,3.38743 "/>
     <polygon id="_462758568" class="fil1" points="3.95054,3.70796 7.7368,7.49423 7.73589,7.49656 7.73489,7.49893 7.7338,7.50136 7.73262,7.50385 7.73135,7.50639 7.72999,7.50898 7.72854,7.51163 7.727,7.51433 7.72538,7.51707 7.72367,7.51987 7.72186,7.52271 7.71997,7.52561 7.71799,7.52854 7.71592,7.53153 7.71376,7.53456 7.71152,7.53763 3.92525,3.75136 3.9275,3.74828 3.92965,3.74526 3.93172,3.74227 3.9337,3.73933 3.93559,3.73644 3.9374,3.7336 3.93911,3.7308 3.94074,3.72806 3.94228,3.72536 3.94372,3.72271 3.94508,3.72012 3.94635,3.71758 3.94753,3.71509 3.94862,3.71266 3.94962,3.71028 "/>
     <polygon id="_462757920" class="fil1" points="3.41541,3.61695 7.20168,7.40322 7.19784,7.39945 7.19364,7.39575 7.18907,7.39212 7.18411,7.38856 7.17876,7.38508 7.17298,7.38167 7.16677,7.37834 7.16011,7.37508 7.15298,7.37191 7.14538,7.3688 7.13729,7.36578 7.12868,7.36283 7.11955,7.35996 3.33328,3.57369 3.34241,3.57656 3.35102,3.5795 3.35911,3.58253 3.36672,3.58563 3.37384,3.58881 3.3805,3.59207 3.38671,3.5954 3.39249,3.59881 3.39785,3.60229 3.4028,3.60585 3.40737,3.60948 3.41157,3.61318 "/>
     <polygon id="_462759120" class="fil1" points="3.16369,3.48584 6.94996,7.27211 6.94982,7.27221 6.94943,7.27253 6.94876,7.2731 6.94782,7.27396 6.9466,7.27515 6.94511,7.27669 6.94335,7.27863 6.9413,7.281 6.93896,7.28383 6.93635,7.28717 6.93344,7.29104 6.93025,7.29547 6.92676,7.30051 6.92298,7.30619 6.9189,7.31255 6.91452,7.31962 6.90983,7.32743 6.90485,7.33602 6.89955,7.34542 6.89395,7.35568 6.88804,7.36681 6.88181,7.37887 6.87526,7.39189 6.8684,7.40589 6.86121,7.42092 6.8537,7.437 6.84587,7.45419 6.83771,7.4725 6.82922,7.49198 6.82039,7.51265 6.81123,7.53456 6.80173,7.55774 3.01546,3.77147 3.02496,3.74829 3.03412,3.72638 3.04295,3.7057 3.05144,3.68623 3.0596,3.66791 3.06744,3.65073 3.07494,3.63465 3.08213,3.61962 3.08899,3.60561 3.09554,3.5926 3.10177,3.58054 3.10768,3.56941 3.11328,3.55915 3.11858,3.54974 3.12357,3.54115 3.12825,3.53335 3.13263,3.52628 3.13671,3.51992 3.14049,3.51424 3.14398,3.5092 3.14718,3.50476 3.15008,3.50089 3.1527,3.49756 3.15503,3.49473 3.15708,3.49236 3.15885,3.49042 3.16033,3.48887 3.16155,3.48769 3.16249,3.48683 3.16316,3.48626 3.16356,3.48594 "/>
     <polygon id="_462758904" class="fil1" points="2.88345,4.0355 6.66972,7.82177 6.63961,7.83004 2.85334,4.04377 "/>
     <polygon id="_462758928" class="fil1" points="2.55999,4.36334 6.34626,8.14961 6.32591,8.16172 6.30555,8.17327 6.28519,8.18429 6.26482,8.19478 6.24446,8.20476 6.2241,8.21422 6.20377,8.22319 6.18345,8.23166 6.16317,8.23966 6.14291,8.24719 6.12269,8.25426 6.10252,8.26087 6.08239,8.26705 6.06232,8.2728 6.04231,8.27813 6.02236,8.28304 6.00248,8.28756 5.98268,8.29168 5.96296,8.29542 5.94333,8.29879 5.92379,8.3018 5.90434,8.30445 5.885,8.30677 5.86577,8.30875 5.84665,8.31041 5.82765,8.31175 5.80878,8.31279 5.79004,8.31354 5.77143,8.314 5.75296,8.31419 5.73464,8.31411 5.71647,8.31378 1.9302,4.52751 1.94837,4.52784 1.96669,4.52792 1.98516,4.52773 2.00377,4.52726 2.02251,4.52652 2.04139,4.52548 2.06038,4.52413 2.0795,4.52248 2.09873,4.5205 2.11807,4.51818 2.13752,4.51553 2.15706,4.51252 2.17669,4.50915 2.19641,4.50541 2.21622,4.50128 2.23609,4.49677 2.25604,4.49185 2.27605,4.48653 2.29613,4.48078 2.31625,4.4746 2.33643,4.46798 2.35664,4.46092 2.3769,4.45339 2.39719,4.44539 2.4175,4.43691 2.43783,4.42795 2.45819,4.41848 2.47855,4.40851 2.49892,4.39802 2.51928,4.387 2.53964,4.37544 "/>
     <polygon id="_462759144" class="fil1" points="2.80899,5.037 6.59526,8.82327 6.58652,8.82565 6.57772,8.82799 6.56893,8.83024 6.56017,8.83233 6.55148,8.83422 6.54289,8.83584 6.53445,8.83713 6.52619,8.83804 6.51814,8.83851 6.51035,8.83848 6.50284,8.83789 6.49567,8.83669 6.48886,8.83482 6.48245,8.83221 6.47649,8.82882 6.471,8.82458 2.68473,5.03831 2.69022,5.04255 2.69619,5.04594 2.70259,5.04855 2.7094,5.05042 2.71657,5.05162 2.72408,5.05221 2.73187,5.05224 2.73992,5.05177 2.74818,5.05086 2.75663,5.04957 2.76521,5.04794 2.77391,5.04606 2.78267,5.04396 2.79146,5.04172 2.80025,5.03937 "/>
     <polygon id="_462759024" class="fil1" points="3.33328,3.57369 7.11955,7.35996 7.11024,7.35706 7.10113,7.35401 7.0922,7.35083 7.08348,7.34754 7.07497,7.34414 7.06667,7.34067 7.0586,7.33712 7.05076,7.33352 7.04315,7.32989 7.03579,7.32623 7.02868,7.32257 7.02183,7.31892 7.01525,7.3153 7.00894,7.31172 7.00291,7.30819 6.99716,7.30474 6.9917,7.30137 6.98656,7.29811 6.98171,7.29497 6.97718,7.29196 6.97298,7.28911 6.9691,7.28642 6.96556,7.28391 6.96236,7.2816 6.95951,7.2795 6.95702,7.27763 6.95489,7.27601 6.95313,7.27465 6.95175,7.27356 6.95076,7.27277 6.95016,7.27228 6.94996,7.27211 3.16369,3.48584 3.16389,3.486 3.16449,3.4865 3.16548,3.48729 3.16687,3.48838 3.16862,3.48974 3.17075,3.49136 3.17324,3.49323 3.17609,3.49533 3.17929,3.49764 3.18283,3.50015 3.18671,3.50283 3.19091,3.50569 3.19544,3.5087 3.20029,3.51184 3.20544,3.5151 3.21089,3.51846 3.21664,3.52192 3.22267,3.52544 3.22898,3.52903 3.23556,3.53265 3.24241,3.5363 3.24952,3.53996 3.25689,3.54362 3.26449,3.54725 3.27233,3.55085 3.28041,3.55439 3.2887,3.55787 3.29721,3.56126 3.30593,3.56456 3.31486,3.56774 3.32398,3.57079 "/>
     <polygon id="_462758880" class="fil1" points="3.92525,3.75136 7.71152,7.53763 7.70582,7.54515 7.69965,7.55291 7.69299,7.56087 7.68587,7.56904 7.67828,7.57739 7.67022,7.58592 7.66172,7.59461 7.65276,7.60344 7.64336,7.61241 7.63352,7.62149 7.62325,7.63068 7.61255,7.63996 7.60143,7.64931 7.58989,7.65874 7.57793,7.66821 7.56557,7.67771 7.55281,7.68724 7.53966,7.69678 7.52611,7.70631 7.51218,7.71582 7.49787,7.7253 7.48319,7.73474 7.46813,7.74411 7.45272,7.75341 7.43694,7.76261 7.42081,7.77172 7.40434,7.78072 7.38752,7.78958 7.37037,7.7983 7.35289,7.80687 7.33508,7.81526 7.31695,7.82347 3.53068,4.0372 3.54881,4.02899 3.56662,4.02059 3.58411,4.01203 3.60126,4.00331 3.61807,3.99444 3.63455,3.98545 3.65068,3.97634 3.66645,3.96713 3.68187,3.95783 3.69692,3.94846 3.7116,3.93903 3.72591,3.92955 3.73985,3.92004 3.75339,3.91051 3.76655,3.90097 3.77931,3.89144 3.79167,3.88194 3.80362,3.87246 3.81516,3.86304 3.82628,3.85369 3.83698,3.84441 3.84725,3.83522 3.85709,3.82613 3.86649,3.81717 3.87545,3.80833 3.88396,3.79965 3.89201,3.79112 3.8996,3.78277 3.90672,3.7746 3.91338,3.76663 3.91956,3.75888 "/>
     <polygon id="_462759240" class="fil1" points="3.01546,3.77147 6.80173,7.55774 6.79811,7.56666 6.79445,7.57554 6.79077,7.58438 6.78706,7.59317 6.78331,7.60193 6.77954,7.61064 6.77574,7.6193 6.77191,7.62793 6.76805,7.63652 6.76415,7.64506 6.76022,7.65355 6.75627,7.66201 6.75228,7.67042 6.74825,7.67879 6.7442,7.68711 6.74011,7.69539 6.73598,7.70363 6.73182,7.71182 6.72763,7.71997 6.72339,7.72807 6.71913,7.73613 6.71483,7.74415 6.71049,7.75211 6.70611,7.76004 6.7017,7.76791 6.69724,7.77575 6.69276,7.78353 6.68822,7.79127 6.68366,7.79897 6.67905,7.80661 6.67441,7.81422 6.66972,7.82177 2.88345,4.0355 2.88814,4.02794 2.89278,4.02034 2.89739,4.0127 2.90196,4.005 2.90649,3.99726 2.91098,3.98948 2.91543,3.98164 2.91984,3.97376 2.92422,3.96584 2.92856,3.95787 2.93286,3.94986 2.93713,3.9418 2.94136,3.9337 2.94555,3.92555 2.94971,3.91736 2.95384,3.90912 2.95793,3.90084 2.96198,3.89252 2.96601,3.88415 2.97,3.87574 2.97396,3.86728 2.97789,3.85878 2.98178,3.85024 2.98564,3.84166 2.98947,3.83303 2.99328,3.82437 2.99705,3.81565 3.00079,3.8069 3.0045,3.79811 3.00819,3.78927 3.01184,3.78039 "/>
     <polygon id="_462758616" class="fil1" points="2.52008,4.13478 6.30635,7.92106 6.26842,7.9314 2.48215,4.14513 "/>
     <polygon id="_462758664" class="fil1" points="2.85334,4.04377 6.63961,7.83004 6.63959,7.83006 6.63958,7.83009 6.63956,7.83011 6.63955,7.83013 2.85328,4.04386 2.8533,4.04384 2.85331,4.04381 2.85332,4.04379 "/>
     <polygon id="_462758784" class="fil1" points="2.88348,4.03562 6.66975,7.82189 6.66181,7.83438 6.65376,7.84673 6.64558,7.85895 6.63728,7.87103 6.62885,7.88298 6.62031,7.89478 6.61163,7.90645 6.60281,7.91798 6.59387,7.92936 6.5848,7.94061 6.57558,7.9517 6.56622,7.96266 6.55672,7.97347 6.54708,7.98413 6.53729,7.99464 6.52735,8.005 6.51726,8.01522 6.50702,8.02528 6.49662,8.03519 6.48606,8.04494 6.47534,8.05455 6.46446,8.06399 6.45342,8.07328 6.44221,8.08241 6.43083,8.09138 6.41928,8.10019 6.40756,8.10883 6.39566,8.11732 6.38358,8.12564 6.37132,8.1338 6.35889,8.14179 6.34626,8.14961 2.55999,4.36334 2.57262,4.35552 2.58506,4.34753 2.59731,4.33937 2.60939,4.33105 2.62129,4.32256 2.63301,4.31392 2.64456,4.30511 2.65594,4.29614 2.66715,4.28701 2.6782,4.27772 2.68907,4.26828 2.69979,4.25867 2.71035,4.24892 2.72075,4.23901 2.73099,4.22895 2.74108,4.21873 2.75102,4.20837 2.76081,4.19786 2.77045,4.1872 2.77995,4.17639 2.78931,4.16543 2.79853,4.15433 2.80761,4.14309 2.81655,4.1317 2.82536,4.12018 2.83404,4.10851 2.84259,4.0967 2.85101,4.08476 2.85931,4.07268 2.86749,4.06046 2.87554,4.04811 "/>
     <polygon id="_462759000" class="fil1" points="3.53068,4.0372 7.31695,7.82347 7.29508,7.83323 7.27372,7.84289 7.25288,7.85247 7.23257,7.86196 7.21278,7.87136 7.19354,7.88067 7.17485,7.88991 7.15671,7.89905 7.13913,7.90811 7.12212,7.9171 7.10569,7.926 7.08983,7.93482 7.07457,7.94357 7.05991,7.95223 7.04586,7.96083 7.03241,7.96934 7.01959,7.97779 7.0074,7.98616 6.99583,7.99446 6.98492,8.00269 6.97465,8.01085 6.96504,8.01895 6.95608,8.02698 6.94781,8.03494 6.9402,8.04284 6.93329,8.05067 6.92707,8.05844 6.92155,8.06616 6.91673,8.07381 6.91263,8.08141 6.90926,8.08894 6.90661,8.09642 3.12034,4.31015 3.12299,4.30267 3.12637,4.29513 3.13046,4.28754 3.13528,4.27989 3.1408,4.27217 3.14702,4.2644 3.15394,4.25657 3.16154,4.24867 3.16981,4.2407 3.17877,4.23268 3.18838,4.22458 3.19865,4.21642 3.20957,4.20819 3.22113,4.19989 3.23333,4.19152 3.24615,4.18307 3.25959,4.17456 3.27365,4.16596 3.28831,4.1573 3.30357,4.14855 3.31942,4.13973 3.33585,4.13083 3.35286,4.12184 3.37044,4.11278 3.38858,4.10363 3.40728,4.0944 3.42652,4.08509 3.4463,4.07569 3.46661,4.0662 3.48745,4.05662 3.50881,4.04696 "/>
     <polygon id="_462760128" class="fil1" points="2.91873,4.94761 6.705,8.73388 6.70179,8.74301 6.69785,8.75159 6.69324,8.75966 6.688,8.76722 6.68219,8.77428 6.67587,8.78086 6.66907,8.78697 6.66185,8.79263 6.65427,8.79785 6.64637,8.80265 6.63822,8.80703 6.62984,8.81101 6.62131,8.81462 6.61267,8.81785 6.60397,8.82073 6.59526,8.82327 2.80899,5.037 2.8177,5.03446 2.8264,5.03158 2.83504,5.02835 2.84357,5.02474 2.85195,5.02076 2.86011,5.01637 2.868,5.01158 2.87558,5.00636 2.8828,5.0007 2.8896,4.99459 2.89593,4.98801 2.90173,4.98095 2.90697,4.97339 2.91158,4.96532 2.91552,4.95674 "/>
     <polygon id="_462759600" class="fil1" points="1.9302,4.52751 5.71647,8.31378 5.69851,8.31324 5.6808,8.31253 5.66337,8.31165 5.64623,8.31062 5.6294,8.30945 5.61289,8.30814 5.59671,8.3067 5.58088,8.30514 5.56543,8.30348 5.55035,8.3017 5.53568,8.29983 5.52142,8.29788 5.50759,8.29585 5.49421,8.29375 5.48129,8.29159 5.46885,8.28937 5.4569,8.28712 5.44546,8.28482 5.43454,8.2825 5.42416,8.28016 5.41434,8.2778 5.40509,8.27545 5.39643,8.2731 5.38837,8.27076 5.38093,8.26845 5.37412,8.26617 5.36796,8.26393 5.36247,8.26173 5.35766,8.25959 5.35354,8.25752 5.35014,8.25552 5.34746,8.2536 1.5612,4.46733 1.56387,4.46925 1.56728,4.47125 1.57139,4.47332 1.5762,4.47546 1.5817,4.47766 1.58785,4.4799 1.59466,4.48218 1.6021,4.48449 1.61016,4.48683 1.61883,4.48918 1.62807,4.49153 1.63789,4.49389 1.64827,4.49623 1.65919,4.49855 1.67063,4.50085 1.68258,4.5031 1.69502,4.50532 1.70794,4.50748 1.72132,4.50958 1.73515,4.51161 1.74941,4.51356 1.76409,4.51543 1.77916,4.5172 1.79461,4.51887 1.81044,4.52043 1.82662,4.52187 1.84313,4.52318 1.85996,4.52435 1.87711,4.52538 1.89454,4.52626 1.91224,4.52697 "/>
     <polygon id="_462759456" class="fil1" points="3.12034,4.31015 6.90661,8.09642 6.90393,8.10509 6.9005,8.11612 6.89636,8.12933 6.89157,8.14456 6.88619,8.16166 6.88025,8.18045 6.87382,8.20079 6.86695,8.2225 6.85969,8.24542 6.85209,8.26939 6.8442,8.29425 6.83609,8.31983 6.82779,8.34598 6.81935,8.37253 6.81085,8.39932 6.80231,8.42619 6.79381,8.45296 6.78539,8.47949 6.77709,8.50561 6.76898,8.53116 6.76111,8.55596 6.75352,8.57988 6.74628,8.60273 6.73943,8.62436 6.73302,8.6446 6.72711,8.6633 6.72174,8.68028 6.71698,8.69539 6.71288,8.70847 6.70948,8.71935 6.70683,8.72788 6.705,8.73388 2.91873,4.94761 2.92057,4.94161 2.92321,4.93308 2.92661,4.9222 2.93072,4.90912 2.93548,4.89401 2.94084,4.87702 2.94675,4.85833 2.95316,4.83809 2.96001,4.81646 2.96726,4.79361 2.97484,4.76969 2.98271,4.74489 2.99082,4.71934 2.99912,4.69322 3.00754,4.66669 3.01605,4.63991 3.02458,4.61305 3.03309,4.58626 3.04152,4.55971 3.04982,4.53356 3.05794,4.50798 3.06582,4.48312 3.07343,4.45915 3.08069,4.43622 3.08756,4.41452 3.09398,4.39418 3.09992,4.37539 3.10531,4.35829 3.11009,4.34306 3.11423,4.32985 3.11767,4.31882 "/>
     <polygon id="_462759480" class="fil1" points="5.03996,2.16302 8.82623,5.94929 8.83063,5.95454 8.83524,5.96046 8.83999,5.9669 8.84478,5.9737 8.84956,5.98072 8.85424,5.98781 8.85875,5.9948 8.86301,6.00154 8.86694,6.00787 8.87048,6.01366 8.87355,6.01874 8.87607,6.02296 8.87796,6.02616 8.87915,6.02819 8.87956,6.02891 5.09329,2.24263 5.09288,2.24192 5.09169,2.23989 5.0898,2.23669 5.08728,2.23247 5.08422,2.22739 5.08068,2.2216 5.07674,2.21526 5.07248,2.20852 5.06797,2.20154 5.06329,2.19445 5.05852,2.18743 5.05372,2.18063 5.04898,2.17419 5.04437,2.16826 "/>
     <polygon id="_462760032" class="fil1" points="5.26547,2.41022 9.05174,6.19649 9.04721,6.20124 9.0433,6.20578 9.03994,6.21015 9.03709,6.21441 9.03469,6.21859 9.03269,6.22275 9.03104,6.22694 9.02968,6.23119 9.02856,6.23556 9.02762,6.24009 9.02682,6.24484 9.02609,6.24985 9.0254,6.25516 9.02468,6.26082 9.02388,6.26689 9.02294,6.2734 5.23668,2.48713 5.23761,2.48062 5.23841,2.47455 5.23913,2.46889 5.23983,2.46357 5.24055,2.45857 5.24135,2.45382 5.24229,2.44929 5.24341,2.44492 5.24477,2.44067 5.24642,2.43648 5.24842,2.43232 5.25082,2.42814 5.25367,2.42388 5.25703,2.41951 5.26094,2.41497 "/>
     <polygon id="_462759672" class="fil1" points="5.02486,1.89343 8.81113,5.6797 8.81104,5.68034 8.81076,5.68218 8.8103,5.68513 8.80966,5.68907 8.80883,5.69393 8.80783,5.69958 8.80665,5.70593 8.80528,5.71288 8.80374,5.72033 8.80202,5.72818 8.80012,5.73632 8.79805,5.74466 8.7958,5.75309 8.79337,5.76151 8.79078,5.76983 8.788,5.77794 5.00174,1.99167 5.00451,1.98356 5.00711,1.97524 5.00953,1.96682 5.01178,1.95839 5.01385,1.95005 5.01575,1.94191 5.01747,1.93406 5.01902,1.92661 5.02038,1.91966 5.02156,1.91331 5.02257,1.90765 5.02339,1.9028 5.02403,1.89885 5.02449,1.89591 5.02477,1.89407 "/>
     <polygon id="_462759864" class="fil1" points="5.27174,2.36737 9.058,6.15365 9.06121,6.15752 9.06366,6.16135 9.06533,6.1652 9.06617,6.16911 9.06614,6.17313 9.06521,6.17731 9.06335,6.18169 9.06051,6.18631 9.05665,6.19123 9.05174,6.19649 5.26547,2.41022 5.27038,2.40496 5.27424,2.40004 5.27708,2.39541 5.27894,2.39104 5.27987,2.38686 5.2799,2.38284 5.27906,2.37893 5.27739,2.37508 5.27494,2.37124 "/>
    </g>
    <path id="_637662184" class="fil1" d="M5.03583 2.1586c0.0211142,0.0210787 0.0574567,0.0840315 0.0574567,0.0840315 0,0 0.107303,0.0703228 0.145559,0.0981772 0.0382323,0.0279094 0.0556772,0.0403425 0.026622,0.0694094 -0.025874,0.0259882 -0.0233661,0.0409016 -0.0287953,0.0769094 -0.00558661,0.0359606 -0.0766142,0.064126 -0.117063,0.0625984 -0.0384921,-0.0014685 -0.0626457,-0.032689 -0.0626457,-0.032689 0,0 -0.123878,-0.00452756 -0.144898,0.0164646 -0.0210866,0.0211142 -0.0512638,0.0370591 -0.0249843,0.175476 0.0263307,0.138433 0.00160236,0.202654 -0.0544213,0.263957 -0.0561339,0.0613228 -0.0810039,0.075689 -0.0810039,0.075689 0,0 0.0449528,0.0475551 0.0837165,0.0916378 0.0175354,0.0199882 0.0663898,0.0648858 0.0508701,0.120736 -0.0153504,0.0559528 -0.0605354,0.164075 -0.115508,0.17337 -0.0549449,0.00925197 -0.083626,-0.00991339 -0.0838543,-0.0192283 -0.000385827,-0.0229685 0.0413701,-0.0170276 0.0543425,-0.0397323 0.0129685,-0.0227047 0.00455512,-0.0360512 0.00771654,-0.0557992 0.00361024,-0.0221299 0.0204882,-0.0305039 0.0204882,-0.0305039 0,0 -0.042378,-0.0497087 -0.0860748,-0.0838031 -0.0438543,-0.0340394 -0.103224,-0.0830197 -0.103224,-0.0830197 0,0 -0.173457,0.0664921 -0.302654,0.105654 -0.129228,0.0390315 -0.177142,0.0598268 -0.199343,0.0696535 -0.0223504,0.00986614 -0.0764094,0.0572047 -0.0780787,0.0864882 -0.00156299,0.0291063 -0.0308071,0.274457 -0.0495236,0.323882 -0.00462205,0.0122283 -0.0130787,0.0268898 -0.0252835,0.0433976 -0.0581693,0.0789764 -0.199496,0.199299 -0.394571,0.285843 -0.235965,0.104555 -0.386012,0.193453 -0.410339,0.272949 -0.0243465,0.0794055 -0.186567,0.587476 -0.20161,0.637457 -0.0151063,0.0501417 -0.063374,0.0767362 -0.10974,0.0893898 -0.0464646,0.0126772 -0.096315,0.0262795 -0.124264,0.00131496 -0.0279173,-0.0249724 -0.0166339,-0.068189 -0.0166339,-0.068189 0,0 0.0865079,-0.0255748 0.12248,-0.0986024 0.0567953,-0.115209 0.16726,-0.77772 0.16726,-0.77772 0,0 0.226815,-0.114236 0.33626,-0.17035l0.000566929 -0.000153543c0.0263622,-0.0136024 0.0458031,-0.0237323 0.0535354,-0.0279055 0.0700945,-0.0382913 0.0920984,-0.140094 0.0927874,-0.194012 0.000598425,-0.0537126 -0.00745276,-0.0975354 -0.107701,-0.127685 -0.100256,-0.0301378 -0.169594,-0.0878543 -0.169594,-0.0878543 0,0 -0.0451024,0.0314724 -0.148224,0.285634 -0.0385354,0.0953583 -0.0817992,0.183693 -0.132016,0.264028l-0.0301102 0.00826772c-1.9685e-005,3.14961e-005 -3.93701e-005,6.29921e-005 -5.51181e-005,9.44882e-005l0.0302008 -0.00824016c-0.0840669,0.13389 -0.187843,0.245169 -0.323492,0.327717 -0.216976,0.132075 -0.436827,0.169016 -0.629787,0.164173 -0.192929,-0.0048622 -0.344406,-0.0401654 -0.369008,-0.060185 -0.0245591,-0.0201535 -0.0162087,-0.0454685 0.0117244,-0.0415079 0.0278898,0.00384646 0.235772,0.035248 0.511075,-0.0513268 0.178138,-0.0560472 0.297909,-0.120354 0.398181,-0.22926l0.0378346 -0.010374c2.3622e-005,-2.3622e-005 4.72441e-005,-5.11811e-005 6.69291e-005,-7.48031e-005l-0.0379291 0.0103465c0.0545906,-0.0593189 0.103374,-0.131965 0.152646,-0.223772 0.139752,-0.26039 0.159886,-0.465677 0.27678,-0.749858 0.132547,-0.322012 0.315236,-0.552496 0.66502,-0.62815 0.321654,-0.0696063 0.545063,0.0101772 0.803965,-0.0335118 0.21987,-0.0369213 0.226472,-0.238142 0.24772,-0.285941 0.0314331,-0.0709252 0.0749291,-0.104756 0.0749291,-0.104756 0,0 -0.0105157,-0.103831 0.00801969,-0.166984 0.0318031,-0.10839 0.100012,-0.177787 0.100012,-0.177787 0,0 0.0211969,0.0498898 0.0351496,0.0939331 0.0134134,0.0424488 0.022126,0.0984409 0.022126,0.0984409 0,0 0.0373189,-0.0178937 0.0710551,-0.0347874 0.0337244,-0.016878 0.0852874,-0.0385276 0.0852874,-0.0385276 0,0 -0.00787795,0.0557362 -0.023122,0.0982362 -0.0151339,0.0424252 -0.0722598,0.100122 -0.0722598,0.100122 0,0 0.0722913,0.0327598 0.106358,0.066815z"/>
   </g>
  </g>
  <path class="fil2" d="M3.41333 -3.93701e-006c1.88513,0 3.41333,1.5282 3.41333,3.41333 0,1.88513 -1.5282,3.41333 -3.41333,3.41333 -1.88513,0 -3.41333,-1.5282 -3.41333,-3.41333 0,-1.88513 1.5282,-3.41333 3.41333,-3.41333z"/>
  <path class="fil3" d="M2.89592 4.89928l0.208413 -0.612567c0,0 0.0593937,-0.0774803 0.210177,-0.156965 0.15076,-0.0794331 0.585866,-0.282504 0.61985,-0.45276 0.0341142,-0.170291 0.0444252,-0.357055 0.0444252,-0.357055l0.601453 -0.22539 0.213717 0.179327 0.040937 0.0654646c0,0 0.0638898,-0.0748937 0.0229646,-0.140398 -0.0408386,-0.0654921 -0.129709,-0.152441 -0.129709,-0.152441 0,0 0.148528,-0.144004 0.144957,-0.227378 -0.00355118,-0.083248 -0.0451654,-0.221421 0.0063622,-0.285264 0.0516614,-0.0638819 0.181244,-0.0379685 0.181244,-0.0379685 0,0 0.0477205,0.0482205 0.110929,0.0271929 0.0632283,-0.0210197 0.0615945,-0.0972441 0.0615945,-0.0972441l0.0194528 -0.0552362 -0.169197 -0.114673c0,0 -0.0438898,-0.0762795 -0.0993622,-0.110925 -0.0553386,-0.034685 -0.120547,-0.0629094 -0.120547,-0.0629094 0,0 -0.0214213,-0.162717 -0.0311535,-0.19839 -0.00973622,-0.0356772 -0.0249606,-0.0775394 -0.0249606,-0.0775394 0,0 -0.0730039,0.0697402 -0.0837283,0.15698 -0.0106142,0.0872402 -0.0103071,0.186772 -0.0103071,0.186772 0,0 -0.0428268,0.011689 -0.0772165,0.124547 -0.0342441,0.112854 -0.073248,0.223114 -0.201602,0.258138 -0.128374,0.0350276 -0.572079,-0.0317717 -0.871602,0.0499606 -0.299685,0.0817717 -0.509795,0.280957 -0.686752,0.769941 -0.176965,0.489024 -0.266437,0.919748 -0.813484,1.04985l-0.112185 0.0804331c0,0 0.140791,0.0382165 0.31915,-0.0104528 0.178323,-0.0486575 0.490181,-0.225787 0.614744,-0.485799 0.124425,-0.260114 0.260272,-0.534827 0.260272,-0.534827 0,0 0.21676,0.0922126 0.253185,0.127287 0.0364213,0.0351102 0.0973819,0.0724055 0.0409685,0.248547 -0.0268661,0.0839882 -0.459795,0.309409 -0.459795,0.309409l-0.153831 0.728004 0.0706378 0.0343228z"/>
  <path class="fil4" d="M2.48215 4.14513c0.0545906,-0.0593189 0.103374,-0.131965 0.152646,-0.223772 0.139752,-0.26039 0.159886,-0.465677 0.27678,-0.749858 0.132547,-0.322012 0.315236,-0.552496 0.66502,-0.62815 0.321654,-0.0696063 0.545063,0.0101772 0.803965,-0.0335118 0.21987,-0.0369213 0.226472,-0.238142 0.24772,-0.285941 0.0314331,-0.0709252 0.0749291,-0.104756 0.0749291,-0.104756 0,0 -0.0105157,-0.103831 0.00801969,-0.166984 0.0318031,-0.10839 0.100012,-0.177787 0.100012,-0.177787 0,0 0.0211969,0.0498898 0.0351496,0.0939331 0.0134134,0.0424488 0.022126,0.0984409 0.022126,0.0984409 0,0 0.0373189,-0.0178937 0.0710551,-0.0347874 0.0337244,-0.016878 0.0852874,-0.0385276 0.0852874,-0.0385276 0,0 -0.00787795,0.0557362 -0.023122,0.0982362 -0.0151339,0.0424252 -0.0722598,0.100122 -0.0722598,0.100122 0,0 0.0722913,0.0327598 0.106358,0.066815 0.0211142,0.0210787 0.0574567,0.0840315 0.0574567,0.0840315 0,0 0.107303,0.0703228 0.145559,0.0981772 0.0382323,0.0279094 0.0556772,0.0403425 0.026622,0.0694094 -0.025874,0.0259882 -0.0233661,0.0409016 -0.0287953,0.0769094 -0.00558661,0.0359606 -0.0766142,0.064126 -0.117063,0.0625984 -0.0384921,-0.0014685 -0.0626457,-0.032689 -0.0626457,-0.032689 0,0 -0.123878,-0.00452756 -0.144898,0.0164646 -0.0210866,0.0211142 -0.0512638,0.0370591 -0.0249843,0.175476 0.0263307,0.138433 0.00160236,0.202654 -0.0544213,0.263957 -0.0561339,0.0613228 -0.0810039,0.075689 -0.0810039,0.075689 0,0 0.0449528,0.0475551 0.0837165,0.0916378 0.0175354,0.0199882 0.0663898,0.0648858 0.0508701,0.120736 -0.0153504,0.0559528 -0.0605354,0.164075 -0.115508,0.17337 -0.0549449,0.00925197 -0.083626,-0.00991339 -0.0838543,-0.0192283 -0.000385827,-0.0229685 0.0413701,-0.0170276 0.0543425,-0.0397323 0.0129685,-0.0227047 0.00455512,-0.0360512 0.00771654,-0.0557992 0.00361024,-0.0221299 0.0204882,-0.0305039 0.0204882,-0.0305039 0,0 -0.042378,-0.0497087 -0.0860748,-0.0838031 -0.0438543,-0.0340394 -0.103224,-0.0830197 -0.103224,-0.0830197 0,0 -0.173457,0.0664921 -0.302654,0.105654 -0.129228,0.0390315 -0.177142,0.0598268 -0.199343,0.0696535 -0.0223504,0.00986614 -0.0764094,0.0572047 -0.0780787,0.0864882 -0.00156299,0.0291063 -0.0308071,0.274457 -0.0495236,0.323882 -0.00462205,0.0122283 -0.0130787,0.0268898 -0.0252835,0.0433976l-0.0943819 0.025752c0.0363898,-0.0392244 0.0639764,-0.0812795 0.0789685,-0.126996 0.0282047,-0.0863031 -0.00176772,-0.273528 0.00141339,-0.395114 0.00321654,-0.121583 0.00933465,-0.169268 0.00933465,-0.169268l0.0303307 -0.00827559c0,0 0.0344016,0.0557953 0.131795,0.0195709 0.0974409,-0.0361063 0.23787,-0.0796654 0.279705,-0.0949882 -0.0305276,-0.126075 0.0989606,-0.310831 0.181516,-0.377591 -0.0399055,0.0736024 -0.159484,0.235287 -0.0846693,0.314295 0.0215197,0.0229528 0.057563,0.0704843 0.15737,0.148697 0.0999409,0.0781811 0.204339,0.137819 0.204339,0.137819l0.0116575 0.0637953c0,0 0.0139606,-0.0190669 0.0197953,-0.0397874 0.00579528,-0.020748 -0.00272835,-0.0452717 -0.0403701,-0.0848189 -0.0376339,-0.0395157 -0.240925,-0.237063 -0.251232,-0.253413 -0.0100866,-0.0164134 -0.0201732,-0.0251142 -0.0201732,-0.0251142l0.0618858 0.00224016c0,0 0.0390315,-0.0604331 0.0820827,-0.106709 0.0428976,-0.0462677 0.0665591,-0.0718898 0.0817008,-0.121898 0.0150118,-0.0501102 0.0370669,-0.0887205 0.0370669,-0.0887205l0.00609843 -7.08661e-005c0,0 -0.0195197,0.0841732 -0.0129134,0.143748 0.00670472,0.0594449 0.0165866,0.102764 -0.0190866,0.154594 -0.0356063,0.0519685 -0.0939882,0.10415 -0.0939882,0.10415l0.0264843 0.026437c0,0 0.0802165,-0.0839882 0.101898,-0.116886 0.0430945,-0.0657008 0.0277677,-0.110709 0.022311,-0.149878 -0.0148937,-0.107335 0.0296969,-0.207378 0.0296969,-0.207378 0,0 -0.0374449,-0.0370512 -0.0543583,-0.0770984 -0.0169409,-0.0401772 -0.0179843,-0.0878465 -0.0179843,-0.0878465 0,0 0.0475118,0.050622 0.117634,0.0695827 0.0437362,0.0118622 0.136244,0.016752 0.136244,0.016752l0.0161654 -0.00744488c0,0 0.00267717,0.0416142 0.0422244,0.0590236 0.0394291,0.017437 0.0841339,-0.00562598 0.0925709,-0.030622 0.00829921,-0.0251024 -0.00162992,-0.053874 -0.00162992,-0.053874l-0.0199134 -0.0130118 -0.00596457 -0.0298543 0.0636299 0.0184094c0,0 0.0200472,-0.0141535 -0.0159449,-0.0347126 -0.0360197,-0.0205787 -0.143323,-0.0878307 -0.143323,-0.0878307 0,0 -0.0442441,-0.0825157 -0.0815945,-0.107961 -0.0467323,-0.0317992 -0.130681,-0.0490669 -0.130681,-0.0490669l-0.0211969 0.0654646c-0.0124724,-0.0052874 -0.0428504,-0.00527559 -0.0550157,0.000996063 0,0 -0.0227913,-0.0755669 -0.020811,-0.139799 0.00261417,-0.082122 0.0233071,-0.133299 0.0233071,-0.133299 0,0 0.0056063,0.0702283 0.0110906,0.100106 0.00658268,0.0361575 0.0318189,0.0727244 0.0318189,0.0727244 0,0 0.0146142,-0.0496496 0.00328346,-0.114894 -0.0112205,-0.0652953 -0.0320236,-0.133457 -0.0320236,-0.133457 0,0 -0.0518622,0.0684685 -0.064752,0.144606 -0.0127638,0.0762126 0.0021378,0.200193 0.0021378,0.200193 0,0 -0.0287953,-0.0142598 -0.0505945,0.0252835 -0.021811,0.0395118 -0.0361063,0.0855236 -0.0504606,0.134488 -0.0144528,0.0489567 -0.0395866,0.181394 -0.203744,0.226189 -0.164028,0.0447559 -0.516496,-0.0307717 -0.824571,0.0357205 -0.316311,0.0682441 -0.519524,0.358516 -0.573441,0.45878 -0.0979409,0.181969 -0.139843,0.32622 -0.218917,0.538811 -0.0729016,0.195752 -0.0876181,0.301933 -0.236744,0.509098 -0.00530315,0.00743307 -0.0107756,0.0146417 -0.0162677,0.0217756l-0.0819094 0.0223465zm0.225043 -0.0614055c0.0455039,-0.0823701 0.111764,-0.213819 0.15026,-0.343823 0.103646,-0.350248 0.24715,-0.561878 0.24715,-0.561878 0,0 0.0118622,0.0716024 0.0350591,0.128484 0.0232165,0.0569094 0.055811,0.134299 0.161165,0.197445 0.105378,0.0632677 0.183988,0.0705 0.189547,0.182012 0.00431496,0.0869488 -0.032811,0.158445 -0.0818622,0.206394l-0.114386 0.0312126c0.0266339,-0.0137402 0.0462874,-0.0239803 0.0540709,-0.0281811 0.0700945,-0.0382913 0.0920984,-0.140094 0.0927874,-0.194012 0.000598425,-0.0537126 -0.00745276,-0.0975354 -0.107701,-0.127685 -0.100256,-0.0301378 -0.169594,-0.0878543 -0.169594,-0.0878543 0,0 -0.0451024,0.0314724 -0.148224,0.285634 -0.0385354,0.0953583 -0.0817992,0.183693 -0.132016,0.264028l-0.0756299 0.0207677c0.147161,-0.22739 0.170094,-0.429642 0.170094,-0.429642 0,0 -0.105409,0.222575 -0.148563,0.303169 -0.0296693,0.0554567 -0.0644252,0.106071 -0.0949449,0.146374l-0.0272126 0.00755512z"/>
  <path class="fil4" d="M4.93084 2.21801c0,0 0.0271024,-0.000346457 0.0538189,0.011185 0.0267205,0.0116024 0.0434921,0.0341496 0.0434921,0.0341496l-0.0105236 0.00882283 -0.0170787 -0.0107008 -0.0104173 0.0311457c0,0 -0.0263268,-0.0141654 -0.039315,-0.0318661 -0.0130945,-0.0175276 -0.0199764,-0.0427362 -0.0199764,-0.0427362z"/>
  <path class="fil4" d="M2.56406 4.12278c-0.119079,0.150504 -0.29322,0.227563 -0.29322,0.227563l-0.0268858 0.062874c0,0 -0.044878,0.0179843 -0.0769134,0.0267244 -0.0321693,0.00877953 -0.107874,0.0332126 -0.107874,0.0332126 0,0 0.0973189,-0.00164961 0.209661,-0.0323031 0.11235,-0.0306575 0.368437,-0.131189 0.526732,-0.365984 0.00420079,-0.00615354 0.00833858,-0.0124094 0.0122598,-0.0186024l0.0756654 -0.0206457c-0.0840669,0.13389 -0.187843,0.245169 -0.323492,0.327717 -0.216976,0.132075 -0.436827,0.169016 -0.629787,0.164173 -0.192929,-0.0048622 -0.344406,-0.0401654 -0.369008,-0.060185 -0.0245591,-0.0201535 -0.0162087,-0.0454685 0.0117244,-0.0415079 0.0278898,0.00384646 0.235772,0.035248 0.511075,-0.0513268 0.178138,-0.0560472 0.297909,-0.120354 0.398181,-0.22926l0.0818819 -0.0224488zm0.170378 -0.0464921c-0.0424606,0.055878 -0.076378,0.0917362 -0.076378,0.0917362 0,0 0.0204252,-0.0324252 0.0491339,-0.0843031l0.0272441 -0.00743307zm0.674075 -0.183933c-0.0138858,0.0135433 -0.0287402,0.0252835 -0.0439252,0.0349291 -0.0685394,0.0436063 -0.366906,0.228508 -0.366906,0.228508l-0.128937 0.594685 0.0249488 0.0986535c0,0 0.133063,-0.425287 0.14915,-0.471925 0.0160039,-0.0464646 0.034878,-0.111059 0.034878,-0.111059 0,0 0.0213543,-0.00582677 0.0482756,-0.0265984 0.0269213,-0.0207717 0.0892598,-0.079878 0.28961,-0.188287 0.147256,-0.0794803 0.314484,-0.165732 0.415232,-0.274272l0.0944134 -0.0256339c-0.0581693,0.0789764 -0.199496,0.199299 -0.394571,0.285843 -0.235965,0.104555 -0.386012,0.193453 -0.410339,0.272949 -0.0243465,0.0794055 -0.186567,0.587476 -0.20161,0.637457 -0.0151063,0.0501417 -0.063374,0.0767362 -0.10974,0.0893898 -0.0464646,0.0126772 -0.096315,0.0262795 -0.124264,0.00131496 -0.0279173,-0.0249724 -0.0166339,-0.068189 -0.0166339,-0.068189 0,0 0.0865079,-0.0255748 0.12248,-0.0986024 0.0567953,-0.115209 0.16726,-0.77772 0.16726,-0.77772 0,0 0.226815,-0.114236 0.33626,-0.17035l0.114417 -0.0310906z"/>
 </g>
</svg>
