<?xml version="1.0" encoding="UTF-8"?>
<!DOCTYPE svg PUBLIC "-//W3C//DTD SVG 1.1//EN" "http://www.w3.org/Graphics/SVG/1.1/DTD/svg11.dtd">
<!-- Creator: CorelDRAW -->
<svg xmlns="http://www.w3.org/2000/svg" xml:space="preserve" width="6.82666in" height="6.82666in" style="shape-rendering:geometricPrecision; text-rendering:geometricPrecision; image-rendering:optimizeQuality; fill-rule:evenodd; clip-rule:evenodd"
viewBox="0 0 6.82666 6.82666"
 xmlns:xlink="http://www.w3.org/1999/xlink">
 <defs>
  <style type="text/css">
   <![CDATA[
    .fil2 {fill:none}
    .fil7 {fill:#212121}
    .fil6 {fill:#3E586B}
    .fil3 {fill:#456075}
    .fil5 {fill:#BDBDBD}
    .fil1 {fill:#E9DA53}
    .fil4 {fill:#FAFAFA}
    .fil0 {fill:#FFEE58}
   ]]>
  </style>
   <clipPath id="id0">
    <path d="M3.41333 -3.93701e-006c1.88513,0 3.41333,1.5282 3.41333,3.41333 0,1.88513 -1.5282,3.41333 -3.41333,3.41333 -1.88513,0 -3.41333,-1.5282 -3.41333,-3.41333 0,-1.88513 1.5282,-3.41333 3.41333,-3.41333z"/>
   </clipPath>
 </defs>
 <g id="Layer_x0020_1">
  <metadata id="CorelCorpID_0Corel-Layer"/>
  <path class="fil0" d="M3.41333 -3.93701e-006c1.88513,0 3.41333,1.5282 3.41333,3.41333 0,1.88513 -1.5282,3.41333 -3.41333,3.41333 -1.88513,0 -3.41333,-1.5282 -3.41333,-3.41333 0,-1.88513 1.5282,-3.41333 3.41333,-3.41333z"/>
  <g style="clip-path:url(#id0)">
   <g id="_637658896">
    <g>
     <polygon id="_4421342001" class="fil1" points="2.16596,3.41442 5.95223,7.20069 5.96785,7.21532 5.98213,7.22898 5.99504,7.24157 6.00654,7.25301 6.01662,7.26321 6.02523,7.27209 6.03235,7.27955 6.03794,7.28551 6.04198,7.28987 6.04442,7.29256 6.04524,7.29347 2.25897,3.5072 2.25815,3.50628 2.25571,3.5036 2.25167,3.49924 2.24608,3.49328 2.23896,3.48582 2.23035,3.47694 2.22028,3.46674 2.20877,3.4553 2.19586,3.4427 2.18158,3.42905 "/>
     <polygon id="_442134728" class="fil1" points="3.59452,2.83482 7.38079,6.62109 7.38769,6.62843 7.39429,6.63576 7.40057,6.64303 7.40652,6.65019 7.41214,6.6572 7.41741,6.664 7.42232,6.67055 7.42686,6.67678 7.43102,6.68266 7.43479,6.68813 7.43815,6.69315 7.44111,6.69766 7.44363,6.70161 7.44572,6.70496 7.44737,6.70765 7.44856,6.70963 7.44928,6.71086 7.44952,6.71128 3.66326,2.92501 3.66301,2.92459 3.66229,2.92336 3.6611,2.92138 3.65946,2.91869 3.65736,2.91534 3.65484,2.91139 3.65189,2.90688 3.64852,2.90186 3.64475,2.89639 3.64059,2.89051 3.63606,2.88428 3.63114,2.87773 3.62587,2.87093 3.62026,2.86392 3.6143,2.85676 3.60802,2.84948 3.60142,2.84216 "/>
     <polygon id="_442135280" class="fil1" points="3.66326,2.92501 7.44952,6.71128 7.45321,6.71831 7.4573,6.72576 7.46178,6.73359 7.46659,6.74176 7.4717,6.75023 7.47709,6.75895 7.48272,6.76788 7.48855,6.77698 7.49454,6.7862 7.50067,6.79551 7.5069,6.80486 7.51319,6.81421 7.51951,6.82352 7.52583,6.83274 7.53211,6.84183 7.53831,6.85075 7.54441,6.85946 7.55036,6.86791 7.55613,6.87607 7.5617,6.88389 7.56701,6.89132 7.57205,6.89833 7.57677,6.90487 7.58114,6.91091 7.58512,6.91639 7.58869,6.92128 7.5918,6.92554 7.59442,6.92911 7.59652,6.93196 7.59807,6.93406 7.59902,6.93534 7.59934,6.93578 3.81307,3.14951 3.81275,3.14907 3.8118,3.14778 3.81026,3.14569 3.80815,3.14284 3.80553,3.13926 3.80242,3.13501 3.79885,3.13012 3.79487,3.12464 3.7905,3.1186 3.78578,3.11206 3.78074,3.10505 3.77543,3.09761 3.76987,3.0898 3.76409,3.08164 3.75814,3.07319 3.75204,3.06448 3.74584,3.05556 3.73956,3.04646 3.73324,3.03724 3.72692,3.02794 3.72063,3.01859 3.7144,3.00924 3.70827,2.99993 3.70228,2.99071 3.69645,2.98161 3.69082,2.97268 3.68544,2.96396 3.68032,2.95549 3.67551,2.94732 3.67104,2.93949 3.66694,2.93204 "/>
     <polygon id="_442134872" class="fil1" points="5.27416,3.45223 9.06043,7.2385 9.06373,7.24357 9.06561,7.24832 9.06626,7.25274 9.06589,7.25683 9.0647,7.26056 9.06289,7.2639 9.06066,7.26686 9.05822,7.26941 9.05576,7.27153 9.0535,7.27321 9.05164,7.27443 9.05037,7.27517 9.04991,7.27543 5.26364,3.48915 5.26411,3.4889 5.26537,3.48816 5.26724,3.48694 5.2695,3.48526 5.27195,3.48313 5.27439,3.48059 5.27662,3.47763 5.27843,3.47428 5.27962,3.47056 5.27999,3.46647 5.27934,3.46205 5.27746,3.4573 "/>
     <polygon id="_442135496" class="fil1" points="5.26364,3.48915 9.04991,7.27543 8.8497,7.38738 5.06344,3.60111 "/>
     <polygon id="_442135304" class="fil1" points="5.06344,3.60111 8.8497,7.38738 8.83937,7.38398 8.82923,7.38248 8.81934,7.38262 8.80978,7.38419 8.8006,7.38695 8.79187,7.39068 8.78367,7.39514 8.77604,7.40011 8.76907,7.40535 8.76281,7.41064 8.75734,7.41574 8.75271,7.42043 8.749,7.42448 8.74627,7.42766 8.74458,7.42973 8.744,7.43048 4.95773,3.6442 4.95831,3.64346 4.96,3.64139 4.96273,3.63821 4.96644,3.63416 4.97107,3.62947 4.97655,3.62437 4.9828,3.61907 4.98978,3.61383 4.9974,3.60887 5.00561,3.60441 5.01433,3.60068 5.02351,3.59791 5.03307,3.59635 5.04296,3.5962 5.05311,3.59771 "/>
     <polygon id="_442135232" class="fil1" points="5.02018,3.65976 8.80645,7.44604 8.80183,7.45687 8.7957,7.46713 8.78819,7.47683 8.7794,7.486 8.76943,7.49463 8.7584,7.50276 8.74641,7.51039 8.73356,7.51754 8.71998,7.52422 8.70576,7.53045 8.69101,7.53624 8.67584,7.54161 8.66036,7.54657 8.64468,7.55114 8.62891,7.55533 8.61314,7.55917 8.59749,7.56265 8.58207,7.5658 8.56699,7.56863 8.55235,7.57116 8.53827,7.5734 8.52484,7.57537 8.51218,7.57708 8.50039,7.57855 8.48959,7.57979 8.47987,7.58081 8.47136,7.58164 8.46415,7.58228 8.45836,7.58276 8.45409,7.58307 8.45144,7.58326 8.45054,7.58331 4.66427,3.79704 4.66518,3.79699 4.66782,3.7968 4.67209,3.79648 4.67789,3.79601 4.68509,3.79537 4.69361,3.79454 4.70332,3.79352 4.71413,3.79228 4.72591,3.79081 4.73857,3.7891 4.752,3.78713 4.76609,3.78489 4.78072,3.78236 4.79581,3.77953 4.81122,3.77638 4.82687,3.77289 4.84264,3.76906 4.85841,3.76487 4.87409,3.7603 4.88957,3.75534 4.90474,3.74997 4.91949,3.74418 4.93371,3.73794 4.9473,3.73126 4.96014,3.72412 4.97213,3.71649 4.98317,3.70836 4.99313,3.69972 5.00193,3.69056 5.00944,3.68086 5.01556,3.67059 "/>
     <polygon id="_442135016" class="fil1" points="4.66427,3.79704 8.45054,7.58331 8.05143,7.60289 4.26516,3.81662 "/>
     <polygon id="_442134920" class="fil1" points="3.91508,3.64376 7.70135,7.43003 7.70134,7.43005 7.70134,7.43007 7.70133,7.43008 7.70133,7.4301 7.70132,7.43012 7.70131,7.43013 7.70131,7.43015 7.7013,7.43017 3.91504,3.6439 3.91504,3.64388 3.91505,3.64386 3.91505,3.64385 3.91506,3.64383 3.91506,3.64381 3.91507,3.6438 3.91507,3.64378 "/>
     <polygon id="_442135472" class="fil1" points="3.84334,3.79627 7.62961,7.58254 7.60267,7.58526 7.57452,7.58725 7.54531,7.58856 7.51517,7.58924 7.48422,7.58932 7.45261,7.58885 7.42048,7.58786 7.38794,7.5864 7.35515,7.58452 7.32224,7.58224 7.28934,7.57962 7.25658,7.5767 7.22411,7.57351 7.19205,7.5701 7.16054,7.56651 7.12972,7.56278 7.09972,7.55896 7.07068,7.55508 7.04273,7.55119 7.01601,7.54732 6.99065,7.54353 6.96678,7.53985 6.94455,7.53631 6.92408,7.53298 6.90552,7.52989 6.88899,7.52706 6.87464,7.52456 6.86259,7.52243 6.85298,7.52069 6.84596,7.5194 6.84164,7.51859 6.84017,7.51831 3.05391,3.73204 3.05537,3.73232 3.05969,3.73313 3.06672,3.73442 3.07632,3.73615 3.08837,3.73829 3.10272,3.74079 3.11925,3.74361 3.13781,3.74671 3.15828,3.75004 3.18052,3.75357 3.20438,3.75726 3.22974,3.76105 3.25646,3.76491 3.28441,3.76881 3.31346,3.77269 3.34345,3.77651 3.37428,3.78024 3.40578,3.78383 3.43784,3.78724 3.47031,3.79043 3.50307,3.79335 3.53597,3.79597 3.56889,3.79824 3.60168,3.80013 3.63421,3.80159 3.66634,3.80257 3.69795,3.80305 3.7289,3.80297 3.75904,3.80229 3.78826,3.80098 3.8164,3.79898 "/>
     <polygon id="_442135352" class="fil1" points="3.91504,3.6439 7.7013,7.43017 7.69889,7.43783 7.69663,7.44558 7.69453,7.45341 7.69258,7.4613 7.69077,7.46922 7.6891,7.47718 7.68757,7.48514 7.68616,7.49309 7.68488,7.50103 7.68372,7.50892 7.68266,7.51675 7.68172,7.52452 7.68088,7.53219 7.68013,7.53975 7.67948,7.54719 7.67891,7.5545 7.67843,7.56164 7.67802,7.56862 7.67767,7.5754 7.6774,7.58198 7.67719,7.58834 7.67703,7.59446 7.67692,7.60032 7.67685,7.60592 7.67683,7.61122 7.67684,7.61622 7.67687,7.6209 7.67694,7.62524 7.67702,7.62923 7.67711,7.63285 7.6772,7.63607 7.67731,7.6389 3.89104,3.85263 3.89094,3.8498 3.89084,3.84657 3.89075,3.84296 3.89067,3.83897 3.89061,3.83463 3.89057,3.82995 3.89056,3.82495 3.89059,3.81965 3.89065,3.81405 3.89076,3.80819 3.89092,3.80207 3.89113,3.79571 3.89141,3.78913 3.89175,3.78235 3.89216,3.77537 3.89264,3.76822 3.89321,3.76092 3.89386,3.75348 3.89461,3.74591 3.89545,3.73824 3.89639,3.73048 3.89745,3.72265 3.89861,3.71476 3.89989,3.70682 3.9013,3.69887 3.90283,3.69091 3.9045,3.68295 3.90631,3.67502 3.90826,3.66714 3.91036,3.65931 3.91262,3.65156 "/>
     <polygon id="_442135688" class="fil1" points="4.26516,3.81662 8.05143,7.60289 8.04096,7.62149 8.02936,7.63918 8.01672,7.65596 8.00313,7.67187 7.9887,7.68691 7.97351,7.70113 7.95767,7.71453 7.94128,7.72714 7.92441,7.73898 7.90719,7.75007 7.88969,7.76044 7.87202,7.7701 7.85427,7.77908 7.83654,7.7874 7.81893,7.79508 7.80153,7.80215 7.78444,7.80861 7.76775,7.8145 7.75157,7.81984 7.73598,7.82465 7.72108,7.82894 7.70698,7.83276 7.69376,7.8361 7.68152,7.839 7.67036,7.84148 7.66038,7.84356 7.65167,7.84526 7.64432,7.8466 7.63844,7.84761 7.63413,7.8483 7.63146,7.84869 7.63056,7.84882 3.84429,4.06255 3.8452,4.06242 3.84786,4.06202 3.85218,4.06133 3.85806,4.06033 3.8654,4.05899 3.87411,4.05729 3.88409,4.05521 3.89525,4.05273 3.90749,4.04983 3.92071,4.04648 3.93481,4.04267 3.94971,4.03838 3.9653,4.03357 3.98148,4.02823 3.99817,4.02234 4.01526,4.01587 4.03267,4.00881 4.05028,4.00113 4.068,3.99281 4.08575,3.98383 4.10342,3.97417 4.12092,3.9638 4.13815,3.95271 4.15501,3.94087 4.17141,3.92826 4.18724,3.91486 4.20243,3.90064 4.21687,3.88559 4.23045,3.86969 4.24309,3.85291 4.2547,3.83522 "/>
     <polygon id="_442135520" class="fil1" points="3.84429,4.06255 7.63056,7.84882 7.62441,7.85067 7.61844,7.85207 7.61268,7.85308 7.60716,7.85373 7.6019,7.85408 7.59694,7.85417 7.59231,7.85403 7.58804,7.85372 7.58416,7.85328 7.5807,7.85276 7.57768,7.85219 7.57515,7.85163 7.57312,7.85111 7.57164,7.85069 7.57073,7.8504 7.57042,7.8503 3.78415,4.06402 3.78446,4.06413 3.78537,4.06442 3.78685,4.06484 3.78888,4.06535 3.79141,4.06592 3.79443,4.06648 3.79789,4.06701 3.80178,4.06745 3.80605,4.06776 3.81068,4.06789 3.81563,4.06781 3.82089,4.06746 3.82641,4.06681 3.83218,4.0658 3.83814,4.0644 "/>
     <polygon id="_442136072" class="fil1" points="2.76855,3.66428 6.55481,7.45056 6.3541,7.42885 2.56783,3.64258 "/>
     <polygon id="_442136240" class="fil1" points="2.87787,3.72618 6.66413,7.51245 6.5734,7.47365 2.78713,3.68738 "/>
     <polygon id="_442135928" class="fil1" points="3.05391,3.73204 6.84017,7.51831 6.71325,7.57053 2.92698,3.78426 "/>
     <polygon id="_442135952" class="fil1" points="2.92698,3.78426 6.71325,7.57053 6.7086,7.5716 6.704,7.57104 6.69948,7.56906 6.69508,7.56587 2.90881,3.7796 2.91322,3.78279 2.91773,3.78477 2.92233,3.78533 "/>
     <polygon id="_442135544" class="fil1" points="2.42188,3.62683 6.20815,7.4131 5.99854,7.42471 2.21227,3.63844 "/>
     <polygon id="_442135784" class="fil1" points="2.56783,3.64258 6.3541,7.42885 6.34556,7.44095 6.33664,7.45145 6.32748,7.46045 6.31822,7.46807 6.30896,7.47443 6.29985,7.47963 6.291,7.48381 6.28254,7.48705 6.27461,7.48949 6.26732,7.49123 6.26081,7.49239 6.25519,7.49309 6.25061,7.49343 6.24717,7.49354 6.24502,7.49351 6.24428,7.49348 2.45801,3.70721 2.45875,3.70724 2.46091,3.70726 2.46434,3.70716 2.46893,3.70682 2.47454,3.70612 2.48106,3.70496 2.48834,3.70322 2.49628,3.70078 2.50473,3.69754 2.51358,3.69336 2.52269,3.68816 2.53195,3.6818 2.54122,3.67418 2.55037,3.66518 2.55929,3.65468 "/>
     <polygon id="_442135568" class="fil1" points="1.61646,3.19187 5.40272,6.97815 5.39793,6.97376 5.39372,6.96999 5.39009,6.96684 5.38709,6.96429 5.38471,6.96232 5.38299,6.96093 5.38194,6.96011 5.38159,6.95983 1.59532,3.17356 1.59567,3.17383 1.59672,3.17466 1.59844,3.17605 1.60082,3.17802 1.60383,3.18057 1.60745,3.18372 1.61167,3.18748 "/>
     <polygon id="_442135712" class="fil1" points="2.21227,3.63844 5.99854,7.42471 5.97726,7.45163 5.9556,7.47667 5.93362,7.49989 5.9114,7.52137 5.88901,7.54117 5.86651,7.55935 5.84397,7.57599 5.82146,7.59115 5.79906,7.6049 5.77683,7.61731 5.75484,7.62844 5.73316,7.63836 5.71186,7.64714 5.69101,7.65485 5.67068,7.66156 5.65094,7.66732 5.63185,7.67221 5.6135,7.6763 5.59594,7.67965 5.57925,7.68233 5.56349,7.68441 5.54874,7.68596 5.53507,7.68704 5.52254,7.68772 5.51122,7.68807 5.50119,7.68815 5.49251,7.68804 5.48525,7.68779 5.47948,7.68748 5.47528,7.68718 5.4727,7.68694 5.47183,7.68685 1.68556,3.90058 1.68644,3.90067 1.68901,3.90091 1.69322,3.90121 1.69898,3.90152 1.70624,3.90176 1.71492,3.90188 1.72495,3.9018 1.73627,3.90145 1.7488,3.90077 1.76248,3.89969 1.77722,3.89814 1.79298,3.89606 1.80967,3.89338 1.82723,3.89003 1.84559,3.88594 1.86467,3.88105 1.88441,3.87528 1.90474,3.86858 1.92559,3.86087 1.94689,3.85209 1.96857,3.84217 1.99056,3.83104 2.01279,3.81863 2.03519,3.80488 2.0577,3.78972 2.08024,3.77308 2.10274,3.75489 2.12513,3.7351 2.14735,3.71362 2.16933,3.6904 2.19099,3.66536 "/>
    </g>
    <path id="_637659016" class="fil1" d="M1.5853 3.03887c0.391504,0.151303 0.673673,0.468331 0.673673,0.468331 0.115071,-0.0560906 0.258378,-0.0968386 0.258378,-0.0968386 0.0118701,-0.0286339 -0.00661024,-0.0693031 -0.00661024,-0.0693031l0.0124134 -0.0170787c0.0402559,0.00170866 0.095,0.0480512 0.095,0.0480512 0.32163,-0.112929 0.734843,-0.194823 0.734843,-0.194823 0.140409,-0.160669 0.0820709,-0.373094 0.0820709,-0.373094 -0.0219016,-0.0538071 0.0368937,-0.0447677 0.0368937,-0.0447677 0.107764,0.0194921 0.191295,0.165665 0.191295,0.165665 0.0370079,0.0725827 0.149819,0.2245 0.149819,0.2245 0.942583,-0.0352165 1.44056,0.285854 1.44056,0.285854 0.0527795,0.032063 0.0100039,0.0537913 0.0100039,0.0537913l-0.200201 0.111953c-0.0554921,-0.0235276 -0.105705,0.0430984 -0.105705,0.0430984l0.0624488 0.0155591c-0.0409488,0.118642 -0.355909,0.13728 -0.355909,0.13728l-0.39911 0.0195748c-0.105228,0.203433 -0.420874,0.245933 -0.420874,0.245933 -0.033185,0.0110945 -0.0601378,0.00147244 -0.0601378,0.00147244 -0.0172008,-0.0258268 0.00980709,-0.0535512 0.00980709,-0.0535512l0.0756535 -0.083752c0.0335472,-0.0390276 0.0240669,-0.0746457 0.0240669,-0.0746457l-0.00144488 -0.00172835c-0.00107087,-0.0277323 -0.00261417,-0.12539 0.0228465,-0.206587 -1.1811e-005,4.72441e-005 -2.75591e-005,9.05512e-005 -4.33071e-005,0.000137795 -0.0266417,0.0811614 -0.0250748,0.180799 -0.0239961,0.208732l-0.0477008 -0.0563583c-0.280449,0.032937 -0.789433,-0.0642283 -0.789433,-0.0642283l-0.126921 0.0522126c-0.024874,0.0104803 -0.0491181,-0.0580748 -0.0491181,-0.0580748l-0.0907323 -0.0387992 -0.0185866 -0.0230984 -0.200713 -0.0217047c-0.0443898,0.0690315 -0.109827,0.0646299 -0.109827,0.0646299 0.00512992,-0.0231969 -0.0361299,-0.080378 -0.0361299,-0.080378l-0.20961 0.0116102c-0.224654,0.297425 -0.526705,0.262142 -0.526705,0.262142l-0.00763386 -0.027189c0.0743189,-0.0288937 0.113646,-0.148598 0.113646,-0.148598l0.045752 -0.0820197c0.0472953,-0.0714016 0.0138268,-0.12776 0.0138268,-0.12776 -0.133957,-0.249177 -0.255835,-0.341453 -0.255835,-0.341453 -0.00216929,-0.0529921 -0.0414016,-0.104689 -0.0414016,-0.104689 -0.0273268,-0.0481535 0.0313819,-0.0300039 0.0313819,-0.0300079z"/>
   </g>
  </g>
  <path class="fil2" d="M3.41333 -3.93701e-006c1.88513,0 3.41333,1.5282 3.41333,3.41333 0,1.88513 -1.5282,3.41333 -3.41333,3.41333 -1.88513,0 -3.41333,-1.5282 -3.41333,-3.41333 0,-1.88513 1.5282,-3.41333 3.41333,-3.41333z"/>
  <path class="fil3" d="M1.5853 3.03887c0.391504,0.151303 0.673673,0.468331 0.673673,0.468331 0.115071,-0.0560906 0.258378,-0.0968386 0.258378,-0.0968386 0.0118701,-0.0286339 -0.00661024,-0.0693031 -0.00661024,-0.0693031l0.0124134 -0.0170787c0.0402559,0.00170866 0.095,0.0480512 0.095,0.0480512 0.32163,-0.112929 0.734843,-0.194823 0.734843,-0.194823 0.140409,-0.160669 0.0820709,-0.373094 0.0820709,-0.373094 -0.0219016,-0.0538071 0.0368937,-0.0447677 0.0368937,-0.0447677 0.107764,0.0194921 0.191295,0.165665 0.191295,0.165665 0.0370079,0.0725827 0.149819,0.2245 0.149819,0.2245 0.942583,-0.0352165 1.44056,0.285854 1.44056,0.285854 0.0527795,0.032063 0.0100039,0.0537913 0.0100039,0.0537913 0,0 -1.26151,0.214902 -2.29149,0.0943228 -3.93701e-006,0 -0.434094,-0.047811 -0.759878,0.0549646 -0.224654,0.297425 -0.526705,0.262142 -0.526705,0.262142l-0.00763386 -0.027189c0.0743189,-0.0288937 0.113646,-0.148598 0.113646,-0.148598l0.045752 -0.0820197c0.0472953,-0.0714016 0.0138268,-0.12776 0.0138268,-0.12776 -0.133957,-0.249177 -0.255835,-0.341453 -0.255835,-0.341453 -0.00216929,-0.0529921 -0.0414016,-0.104689 -0.0414016,-0.104689 -0.0273268,-0.0481535 0.0313819,-0.0300039 0.0313819,-0.0300079z"/>
  <path class="fil4" d="M4.9455 3.41644c0,0.0170906 0.0138622,0.0309016 0.0309488,0.0309016 0.0170709,0 0.0309213,-0.013811 0.0309213,-0.0308976 0,-0.0171102 -0.0138465,-0.030937 -0.0309213,-0.030937 -0.0170945,0 -0.0309449,0.0138346 -0.0309488,0.0309331z"/>
  <path class="fil5" d="M5.26364 3.48915l-0.200201 0.111953c-0.0554921,-0.0235276 -0.105705,0.0430984 -0.105705,0.0430984l0.0624488 0.0155591c-0.0409488,0.118642 -0.355909,0.13728 -0.355909,0.13728l-0.402965 0.0197638c0,0 0.0452717,-0.0544252 0.0736614,-0.221835 0.531047,-0.0380866 0.928669,-0.105819 0.928669,-0.105819z"/>
  <path class="fil5" d="M2.21226 3.63844c0.325783,-0.102776 0.759882,-0.0549646 0.759882,-0.0549646 0.310449,0.0363425 0.641902,0.0421693 0.953531,0.0326457 -0.0376614,0.0844567 -0.0358425,0.205283 -0.0346378,0.236508l-0.0477008 -0.0563583c-0.280449,0.032937 -0.789433,-0.0642283 -0.789433,-0.0642283l-0.126921 0.0522126c-0.024874,0.0104803 -0.0491181,-0.0580748 -0.0491181,-0.0580748l-0.0907323 -0.0387992 -0.0185866 -0.0230984 -0.200713 -0.0217047c-0.0443898,0.0690315 -0.109827,0.0646299 -0.109827,0.0646299 0.00512992,-0.0231969 -0.0361299,-0.080378 -0.0361299,-0.080378l-0.209614 0.0116102z"/>
  <path class="fil6" d="M3.92723 3.61133c0.143335,-0.00437795 0.282516,-0.0119606 0.413642,-0.0213701 -0.0286929,0.169177 -0.0744449,0.224185 -0.0744449,0.224185 -0.103937,0.205563 -0.422142,0.248409 -0.422142,0.248409 -0.033185,0.0110945 -0.0601378,0.00147244 -0.0601378,0.00147244 -0.0172008,-0.0258268 0.00980709,-0.0535512 0.00980709,-0.0535512l0.0756535 -0.083752c0.0335472,-0.0390276 0.0240669,-0.0746457 0.0240669,-0.0746457l-0.00144488 -0.00172835c-0.00121654,-0.0315591 -0.00305118,-0.153665 0.035,-0.23902z"/>
  <path class="fil7" d="M4.96325 3.41644c0,0.00728346 0.00590551,0.0131693 0.013189,0.0131693 0.00727559,0 0.0131811,-0.00588583 0.0131811,-0.0131693 0,-0.00729134 -0.00590551,-0.0131811 -0.0131811,-0.0131811 -0.00728346,0 -0.013189,0.0058937 -0.013189,0.0131811z"/>
 </g>
</svg>
