<?xml version="1.0" encoding="UTF-8"?>
<!DOCTYPE svg PUBLIC "-//W3C//DTD SVG 1.1//EN" "http://www.w3.org/Graphics/SVG/1.1/DTD/svg11.dtd">
<!-- Creator: CorelDRAW -->
<svg xmlns="http://www.w3.org/2000/svg" xml:space="preserve" width="6.82666in" height="6.82666in" style="shape-rendering:geometricPrecision; text-rendering:geometricPrecision; image-rendering:optimizeQuality; fill-rule:evenodd; clip-rule:evenodd"
viewBox="0 0 6.82666 6.82666"
 xmlns:xlink="http://www.w3.org/1999/xlink">
 <defs>
  <style type="text/css">
   <![CDATA[
    .fil2 {fill:none}
    .fil12 {fill:#B71C1C}
    .fil1 {fill:#BDBDBD}
    .fil0 {fill:#E0E0E0}
    .fil14 {fill:#E65100}
    .fil11 {fill:#FB8C00}
    .fil13 {fill:#FDD835}
    .fil3 {fill:#004D40;fill-rule:nonzero}
    .fil4 {fill:#00796B;fill-rule:nonzero}
    .fil5 {fill:#26A69A;fill-rule:nonzero}
    .fil6 {fill:#424242;fill-rule:nonzero}
    .fil7 {fill:#80CBC4;fill-rule:nonzero}
    .fil10 {fill:#B71C1C;fill-rule:nonzero}
    .fil8 {fill:#FDD835;fill-rule:nonzero}
    .fil9 {fill:#FF9100;fill-rule:nonzero}
   ]]>
  </style>
   <clipPath id="id0">
    <path d="M3.41333 -3.93701e-006c1.88513,0 3.41333,1.5282 3.41333,3.41333 0,1.88513 -1.5282,3.41333 -3.41333,3.41333 -1.88513,0 -3.41333,-1.5282 -3.41333,-3.41333 0,-1.88513 1.5282,-3.41333 3.41333,-3.41333z"/>
   </clipPath>
 </defs>
 <g id="Layer_x0020_1">
  <metadata id="CorelCorpID_0Corel-Layer"/>
  <path class="fil0" d="M3.41333 -3.93701e-006c1.88513,0 3.41333,1.5282 3.41333,3.41333 0,1.88513 -1.5282,3.41333 -3.41333,3.41333 -1.88513,0 -3.41333,-1.5282 -3.41333,-3.41333 0,-1.88513 1.5282,-3.41333 3.41333,-3.41333z"/>
  <g style="clip-path:url(#id0)">
   <g id="_637654744">
    <g>
     <polygon id="_2164657361" class="fil1" points="2.98382,1.67314 6.77009,5.45941 6.77241,5.46225 6.77443,5.46528 6.77614,5.46848 6.77753,5.47182 6.77861,5.47528 6.77934,5.47883 6.77974,5.48245 6.77978,5.48612 6.77946,5.4898 6.77877,5.49347 6.7777,5.49711 6.77624,5.50069 2.98998,1.71441 2.99143,1.71083 2.9925,1.7072 2.99319,1.70352 2.99351,1.69985 2.99347,1.69618 2.99307,1.69256 2.99234,1.68901 2.99126,1.68555 2.98987,1.6822 2.98816,1.67901 2.98614,1.67598 "/>
     <polygon id="_216466240" class="fil1" points="2.98998,1.71441 6.77624,5.50069 6.77201,5.5099 6.7681,5.51879 6.7645,5.52734 6.76122,5.53557 6.75824,5.54349 6.75557,5.55111 6.75319,5.55841 6.75111,5.56543 6.74931,5.57215 6.74781,5.57859 6.74659,5.58476 6.74564,5.59066 6.74497,5.5963 6.74457,5.60167 6.74444,5.6068 6.74457,5.61169 6.74496,5.61634 6.74561,5.62076 6.7465,5.62496 6.74764,5.62893 6.74902,5.6327 6.75064,5.63627 6.7525,5.63963 6.75458,5.64281 6.75689,5.6458 6.75943,5.64861 2.97316,1.86234 2.97062,1.85953 2.96831,1.85654 2.96623,1.85336 2.96437,1.85 2.96275,1.84643 2.96137,1.84266 2.96023,1.83869 2.95934,1.83449 2.9587,1.83007 2.95831,1.82542 2.95818,1.82053 2.95831,1.8154 2.9587,1.81002 2.95937,1.80439 2.96032,1.79849 2.96154,1.79232 2.96305,1.78588 2.96484,1.77916 2.96692,1.77214 2.9693,1.76483 2.97197,1.75722 2.97495,1.7493 2.97824,1.74107 2.98183,1.73252 2.98574,1.72363 "/>
     <polygon id="_216122456" class="fil1" points="3.89653,1.67299 7.6828,5.45926 7.68517,5.46214 7.68728,5.4653 7.68909,5.46871 3.90282,1.68244 3.90101,1.67902 3.89891,1.67587 "/>
     <polygon id="_216122240" class="fil1" points="3.90282,1.68244 7.68909,5.46871 7.69549,5.48274 7.70133,5.4963 7.70661,5.50939 7.71135,5.52203 7.71556,5.53422 7.71923,5.54598 7.72238,5.55731 7.72502,5.56822 7.72713,5.57873 7.72875,5.58885 7.72987,5.59857 7.73049,5.60792 7.73063,5.61689 7.73029,5.62552 7.72948,5.63379 7.7282,5.64172 7.72647,5.64933 7.72428,5.65661 7.72165,5.66359 7.71857,5.67026 7.71507,5.67665 7.71114,5.68275 7.70679,5.68859 7.70203,5.69416 7.69686,5.69948 7.69129,5.70456 7.68533,5.70941 7.67898,5.71404 7.67226,5.71845 7.66516,5.72266 7.65769,5.72667 7.64987,5.73051 3.8636,1.94424 3.87143,1.9404 3.87889,1.93639 3.88599,1.93218 3.89272,1.92776 3.89906,1.92314 3.90502,1.91829 3.91059,1.91321 3.91576,1.90789 3.92052,1.90231 3.92487,1.89648 3.9288,1.89037 3.93231,1.88399 3.93538,1.87731 3.93801,1.87034 3.9402,1.86306 3.94194,1.85545 3.94321,1.84752 3.94402,1.83924 3.94436,1.83062 3.94422,1.82165 3.9436,1.8123 3.94248,1.80257 3.94087,1.79246 3.93875,1.78195 3.93611,1.77104 3.93296,1.75971 3.92929,1.74795 3.92509,1.73576 3.92034,1.72312 3.91506,1.71003 3.90922,1.69647 "/>
     <polygon id="_216122696" class="fil1" points="3.8636,1.94424 7.64987,5.73051 7.64534,5.73256 7.6407,5.73454 7.63596,5.73644 7.63112,5.73826 7.62617,5.74002 7.62112,5.74171 7.61597,5.74334 7.61072,5.74491 7.60537,5.74641 7.59993,5.74786 7.59439,5.74926 7.58874,5.75061 7.58301,5.75191 7.57719,5.75317 7.57126,5.75438 7.56525,5.75556 7.55915,5.7567 7.55295,5.75781 7.54667,5.75889 7.5403,5.75994 7.53384,5.76096 7.5273,5.76197 7.52067,5.76295 7.51396,5.76393 7.50717,5.76488 7.5003,5.76583 7.49334,5.76677 7.4863,5.7677 7.47919,5.76863 7.472,5.76957 7.46473,5.7705 7.45739,5.77145 3.67112,1.98518 3.67846,1.98423 3.68573,1.9833 3.69292,1.98236 3.70004,1.98143 3.70707,1.9805 3.71403,1.97956 3.7209,1.97861 3.7277,1.97765 3.73441,1.97668 3.74103,1.9757 3.74757,1.97469 3.75403,1.97367 3.7604,1.97261 3.76669,1.97154 3.77288,1.97043 3.77898,1.96929 3.785,1.96811 3.79092,1.96689 3.79674,1.96564 3.80248,1.96434 3.80812,1.96299 3.81366,1.96159 3.81911,1.96014 3.82446,1.95863 3.8297,1.95707 3.83485,1.95544 3.83991,1.95375 3.84485,1.95199 3.8497,1.95017 3.85444,1.94826 3.85907,1.94629 "/>
     <polygon id="_539049192" class="fil1" points="3.67112,1.98518 7.45739,5.77145 7.45399,5.77189 7.45057,5.77232 7.44714,5.77277 7.44369,5.77321 7.44022,5.77366 7.43674,5.77411 7.43324,5.77457 7.42973,5.77503 3.64346,1.98876 3.64698,1.9883 3.65048,1.98784 3.65396,1.98739 3.65743,1.98694 3.66087,1.9865 3.6643,1.98605 3.66772,1.98561 "/>
     <polygon id="_539048952" class="fil1" points="3.64346,1.98876 7.42973,5.77503 7.43399,5.78184 7.43801,5.78878 7.44179,5.79586 7.44532,5.80306 7.4486,5.81038 7.45161,5.81782 7.45437,5.82537 7.45685,5.83303 7.45906,5.84079 7.461,5.84865 7.46265,5.85661 7.46401,5.86466 7.46507,5.87279 7.46584,5.881 7.4663,5.8893 7.46646,5.89766 3.68019,2.11139 3.68004,2.10302 3.67957,2.09473 3.6788,2.08652 3.67774,2.07839 3.67638,2.07034 3.67473,2.06238 3.6728,2.05452 3.67059,2.04676 3.6681,2.0391 3.66535,2.03155 3.66233,2.02411 3.65906,2.01679 3.65552,2.00959 3.65174,2.00251 3.64772,1.99557 "/>
     <polygon id="_539049432" class="fil1" points="3.68019,2.11139 7.46646,5.89766 7.46642,5.90199 7.4663,5.9063 7.46609,5.91059 7.4658,5.91487 7.46543,5.91912 7.46497,5.92335 7.46444,5.92757 7.46383,5.93176 7.46314,5.93592 7.46237,5.94006 7.46153,5.94418 7.46061,5.94828 7.45961,5.95235 7.45854,5.95639 7.45739,5.96041 7.45618,5.96439 7.45488,5.96835 7.45352,5.97229 7.45208,5.97619 7.45057,5.98007 7.449,5.98391 7.44735,5.98773 7.44563,5.99151 7.44385,5.99526 7.44199,5.99898 7.44007,6.00267 7.43809,6.00632 7.43604,6.00994 7.43392,6.01352 7.43174,6.01706 7.4295,6.02057 7.42719,6.02405 3.64093,2.23778 3.64323,2.2343 3.64547,2.23079 3.64765,2.22724 3.64977,2.22367 3.65182,2.22005 3.65381,2.21639 3.65572,2.21271 3.65758,2.20899 3.65936,2.20524 3.66108,2.20146 3.66273,2.19764 3.6643,2.1938 3.66581,2.18992 3.66725,2.18602 3.66861,2.18208 3.66991,2.17812 3.67113,2.17413 3.67227,2.17012 3.67335,2.16607 3.67434,2.162 3.67526,2.15791 3.67611,2.15379 3.67687,2.14965 3.67756,2.14548 3.67817,2.1413 3.6787,2.13708 3.67916,2.13285 3.67953,2.1286 3.67982,2.12432 3.68003,2.12003 3.68015,2.11572 "/>
     <polygon id="_539049264" class="fil1" points="3.64093,2.23778 7.42719,6.02405 7.42425,6.0283 7.42122,6.03248 7.41809,6.03661 7.41487,6.04067 7.41156,6.04468 7.40816,6.04861 7.40467,6.05248 7.4011,6.05629 3.61483,2.27002 3.61841,2.26621 3.62189,2.26234 3.62529,2.25841 3.6286,2.2544 3.63182,2.25034 3.63495,2.24621 3.63798,2.24202 "/>
     <polygon id="_539049384" class="fil1" points="3.90652,2.42131 7.69279,6.20758 7.69947,6.21503 7.70586,6.22259 7.71194,6.23026 7.71771,6.23804 7.72317,6.24593 7.72831,6.25393 7.73313,6.26202 7.73762,6.27022 7.74178,6.27851 7.74559,6.28689 7.74907,6.29537 7.7522,6.30393 7.75499,6.31258 7.75741,6.32131 7.75948,6.33013 7.76118,6.33902 7.76251,6.34798 7.76346,6.35702 7.76404,6.36613 7.76423,6.3753 3.97796,2.58903 3.97777,2.57985 3.97719,2.57075 3.97624,2.56171 3.97491,2.55274 3.97321,2.54385 3.97115,2.53504 3.96872,2.52631 3.96594,2.51766 3.96281,2.50909 3.95933,2.50062 3.95551,2.49224 3.95135,2.48394 3.94686,2.47575 3.94205,2.46765 3.93691,2.45966 3.93144,2.45177 3.92567,2.44399 3.91959,2.43632 3.9132,2.42876 "/>
     <polygon id="_539049024" class="fil1" points="3.97796,2.58903 7.76423,6.3753 7.76411,6.38267 7.76373,6.39 7.7631,6.39729 7.76223,6.40454 7.76111,6.41175 7.75975,6.41892 7.75815,6.42604 7.75632,6.43311 7.75425,6.44014 7.75195,6.44712 7.74942,6.45405 7.74666,6.46093 7.74368,6.46775 7.74047,6.47452 7.73704,6.48124 7.7334,6.48789 3.94713,2.70162 3.95078,2.69496 3.9542,2.68825 3.95741,2.68148 3.96039,2.67466 3.96315,2.66778 3.96568,2.66085 3.96798,2.65387 3.97005,2.64684 3.97189,2.63977 3.97348,2.63265 3.97484,2.62548 3.97596,2.61827 3.97683,2.61102 3.97746,2.60373 3.97784,2.5964 "/>
     <polygon id="_539049096" class="fil1" points="3.18094,1.98876 6.96721,5.77503 6.9637,5.77457 6.9602,5.77411 6.95672,5.77366 6.95325,5.77321 6.9498,5.77277 6.94637,5.77232 6.94295,5.77189 6.93956,5.77145 3.15329,1.98518 3.15669,1.98561 3.1601,1.98605 3.16353,1.9865 3.16698,1.98694 3.17045,1.98739 3.17393,1.98784 3.17743,1.9883 "/>
     <polygon id="_539049288" class="fil1" points="3.15329,1.98518 6.93956,5.77145 6.93221,5.7705 6.92494,5.76957 6.91775,5.76863 6.91064,5.7677 6.9036,5.76677 6.89665,5.76583 6.88977,5.76488 6.88298,5.76393 6.87627,5.76295 6.86964,5.76197 6.8631,5.76096 6.85664,5.75994 6.85027,5.75889 6.84399,5.75781 6.8378,5.7567 6.83169,5.75556 6.82568,5.75438 6.81976,5.75317 6.81393,5.75191 6.8082,5.75061 6.80256,5.74926 6.79701,5.74786 6.79157,5.74641 6.78622,5.74491 6.78097,5.74334 6.77582,5.74171 6.77077,5.74002 6.76582,5.73826 6.76098,5.73644 6.75624,5.73454 6.75161,5.73256 6.74708,5.73051 2.96081,1.94424 2.96534,1.94629 2.96997,1.94826 2.97471,1.95017 2.97956,1.95199 2.9845,1.95375 2.98955,1.95544 2.9947,1.95707 2.99995,1.95863 3.0053,1.96014 3.01074,1.96159 3.01629,1.96299 3.02193,1.96434 3.02766,1.96564 3.03349,1.96689 3.03941,1.96811 3.04543,1.96929 3.05153,1.97043 3.05772,1.97154 3.064,1.97261 3.07037,1.97367 3.07683,1.97469 3.08337,1.9757 3.09,1.97668 3.09671,1.97765 3.1035,1.97861 3.11038,1.97956 3.11733,1.9805 3.12437,1.98143 3.13148,1.98236 3.13868,1.9833 3.14594,1.98423 "/>
     <polygon id="_460579016" class="fil1" points="5.00699,2.07238 8.79326,5.85865 8.7973,5.86467 8.80014,5.8714 8.80163,5.87867 8.80165,5.88632 5.01539,2.10005 5.01537,2.0924 5.01387,2.08513 5.01103,2.0784 "/>
     <polygon id="_460579400" class="fil1" points="5.01539,2.10005 8.80165,5.88632 8.72585,6.64428 4.93959,2.85801 "/>
     <polygon id="_460579520" class="fil1" points="4.93959,2.85801 8.72585,6.64428 8.72511,6.64892 8.72383,6.65334 8.72205,6.6575 8.71981,6.66137 8.71715,6.66493 8.7141,6.66814 8.71071,6.67097 8.707,6.67339 4.92074,2.88711 4.92444,2.8847 4.92783,2.88187 4.93088,2.87866 4.93354,2.8751 4.93578,2.87123 4.93756,2.86707 4.93884,2.86265 "/>
     <polygon id="_460579448" class="fil1" points="4.92074,2.88711 8.707,6.67339 8.32867,6.95035 4.5424,3.16407 "/>
     <polygon id="_460579568" class="fil1" points="4.5424,3.16407 8.32867,6.95035 8.3267,6.95144 8.32471,6.95241 8.32268,6.95325 8.32062,6.95397 8.31854,6.95456 8.31645,6.95503 8.31434,6.95537 8.31223,6.95559 4.52596,3.16932 4.52807,3.1691 4.53018,3.16876 4.53228,3.16829 4.53435,3.1677 4.53641,3.16698 4.53844,3.16614 4.54044,3.16517 "/>
     <polygon id="_460579472" class="fil1" points="4.52596,3.16932 8.31223,6.95559 8.31224,6.95568 4.52597,3.16941 "/>
     <polygon id="_460579496" class="fil1" points="3.94713,2.70162 7.7334,6.48789 7.73119,6.49174 7.72889,6.49556 7.72653,6.49936 7.7241,6.50313 7.72159,6.50689 7.71902,6.51061 7.71638,6.51432 7.71367,6.518 7.71089,6.52165 7.70804,6.52528 7.70512,6.52888 7.70213,6.53246 7.69909,6.53601 7.69597,6.53953 7.69279,6.54303 7.68954,6.5465 3.90328,2.76023 3.90652,2.75676 3.9097,2.75326 3.91282,2.74974 3.91587,2.74619 3.91885,2.74261 3.92177,2.739 3.92462,2.73538 3.9274,2.73172 3.93011,2.72805 3.93275,2.72434 3.93533,2.72061 3.93783,2.71686 3.94026,2.71309 3.94263,2.70929 3.94492,2.70547 "/>
     <polygon id="_460579616" class="fil1" points="2.96081,1.94424 6.74708,5.73051 6.73925,5.72667 6.73178,5.72266 6.72469,5.71845 6.71796,5.71404 6.71161,5.70941 6.70565,5.70456 6.70008,5.69948 6.69491,5.69416 2.90865,1.90789 2.91381,1.91321 2.91938,1.91829 2.92534,1.92314 2.93169,1.92776 2.93842,1.93218 2.94552,1.93639 2.95298,1.9404 "/>
     <polygon id="_460579160" class="fil1" points="4.28114,3.38488 8.06741,7.17115 8.06739,7.17525 8.06734,7.17939 8.06725,7.18356 8.06713,7.18776 8.06697,7.192 8.06678,7.19628 8.06655,7.20059 8.06628,7.20493 8.06599,7.2093 8.06566,7.2137 8.06529,7.21814 8.06489,7.22261 8.06446,7.22711 8.064,7.23164 8.0635,7.2362 8.06296,7.2408 8.0624,7.24542 8.0618,7.25007 8.06117,7.25476 8.06051,7.25947 8.05981,7.26421 8.05909,7.26898 8.05833,7.27378 8.05754,7.2786 8.05671,7.28346 8.05586,7.28833 8.05497,7.29324 8.05406,7.29818 8.05311,7.30313 8.05213,7.30812 8.05113,7.31313 8.05009,7.31817 4.26382,3.5319 4.26486,3.52686 4.26587,3.52185 4.26684,3.51686 4.26779,3.51191 4.2687,3.50697 4.26959,3.50206 4.27044,3.49719 4.27127,3.49233 4.27206,3.4875 4.27282,3.48271 4.27354,3.47794 4.27424,3.4732 4.2749,3.46848 4.27553,3.4638 4.27613,3.45915 4.2767,3.45453 4.27723,3.44993 4.27773,3.44537 4.27819,3.44084 4.27863,3.43634 4.27902,3.43187 4.27939,3.42743 4.27972,3.42303 4.28002,3.41865 4.28028,3.41431 4.28051,3.41001 4.2807,3.40573 4.28086,3.40149 4.28098,3.39729 4.28107,3.39312 4.28112,3.38898 "/>
     <polygon id="_460579208" class="fil1" points="5.23457,3.14768 9.02084,6.93395 9.02302,6.93693 9.02488,6.94009 9.02641,6.9434 9.02762,6.94683 9.02849,6.95034 9.02902,6.95393 9.02921,6.95756 9.02905,6.9612 9.02853,6.96483 9.02766,6.96842 9.02642,6.97194 9.02481,6.97537 9.02282,6.97869 5.23655,3.19242 5.23854,3.1891 5.24015,3.18567 5.24139,3.18215 5.24226,3.17856 5.24278,3.17493 5.24294,3.17128 5.24276,3.16766 5.24222,3.16407 5.24135,3.16056 5.24015,3.15713 5.23861,3.15382 5.23675,3.15066 "/>
     <polygon id="_460579304" class="fil1" points="4.08424,2.90502 7.8705,6.69129 7.87566,6.69682 7.88076,6.70239 7.8858,6.708 7.89078,6.71365 7.89569,6.71934 7.90055,6.72508 7.90535,6.73085 7.91009,6.73667 7.91476,6.74253 7.91937,6.74843 7.92392,6.75436 7.92841,6.76033 7.93283,6.76635 7.9372,6.7724 7.94149,6.77849 7.94572,6.78462 7.94989,6.79078 7.954,6.79698 7.95803,6.80322 7.962,6.8095 7.96591,6.81581 4.17964,3.02954 4.17573,3.02323 4.17176,3.01695 4.16773,3.01071 4.16363,3.00451 4.15946,2.99835 4.15522,2.99222 4.15093,2.98613 4.14657,2.98007 4.14214,2.97406 4.13765,2.96809 4.13311,2.96215 4.12849,2.95626 4.12382,2.9504 4.11908,2.94458 4.11428,2.93881 4.10943,2.93307 4.10451,2.92738 4.09953,2.92172 4.09449,2.91611 4.08939,2.91055 "/>
     <polygon id="_460579880" class="fil1" points="4.52597,3.16941 8.31224,6.95568 8.03888,6.97803 4.25261,3.19176 "/>
     <polygon id="_460580480" class="fil1" points="4.90937,3.66292 8.69563,7.44919 8.69566,7.4493 4.90939,3.66303 "/>
     <polygon id="_460580528" class="fil1" points="4.25261,3.19176 8.03888,6.97803 8.0406,6.98382 8.04227,6.98963 8.04389,6.99545 8.04545,7.00129 8.04697,7.00715 8.04843,7.01302 8.04984,7.01891 8.05119,7.02482 8.0525,7.03075 8.05375,7.03669 8.05494,7.04265 8.05609,7.04862 8.05718,7.05461 8.05822,7.06062 8.0592,7.06664 8.06013,7.07267 8.061,7.07872 8.06182,7.08479 8.06258,7.09087 8.06329,7.09696 8.06394,7.10307 8.06454,7.10919 8.06508,7.11533 8.06557,7.12148 8.066,7.12765 8.06637,7.13382 8.06669,7.14001 8.06695,7.14621 8.06715,7.15243 8.0673,7.15866 8.06738,7.1649 8.06741,7.17115 4.28114,3.38488 4.28111,3.37863 4.28103,3.37239 4.28088,3.36616 4.28068,3.35994 4.28042,3.35374 4.28011,3.34755 4.27973,3.34137 4.2793,3.33521 4.27881,3.32906 4.27828,3.32292 4.27768,3.3168 4.27702,3.31069 4.27631,3.3046 4.27555,3.29852 4.27473,3.29245 4.27386,3.2864 4.27293,3.28037 4.27195,3.27435 4.27091,3.26834 4.26982,3.26235 4.26868,3.25638 4.26748,3.25042 4.26623,3.24448 4.26493,3.23855 4.26357,3.23264 4.26216,3.22675 4.2607,3.22087 4.25919,3.21502 4.25762,3.20918 4.256,3.20335 4.25433,3.19755 "/>
     <polygon id="_460580456" class="fil1" points="4.53041,3.73883 8.31668,7.5251 8.3148,7.52543 8.31293,7.52565 8.31107,7.52579 8.30921,7.52583 8.30737,7.52579 8.30556,7.52565 8.30375,7.52543 8.30197,7.52512 4.5157,3.73885 4.51748,3.73916 4.51929,3.73938 4.52111,3.73952 4.52294,3.73956 4.5248,3.73952 4.52666,3.73938 4.52854,3.73915 "/>
     <polygon id="_460579808" class="fil1" points="4.5157,3.73885 8.30197,7.52512 8.00502,7.48122 4.21875,3.69495 "/>
     <polygon id="_460580024" class="fil1" points="4.21875,3.69495 8.00502,7.48122 8.00085,7.49354 7.99656,7.50593 7.99216,7.51837 7.98764,7.53089 7.98302,7.54346 7.97828,7.55608 7.97343,7.56875 7.96848,7.58148 7.96343,7.59424 7.95827,7.60705 7.95301,7.61989 7.94765,7.63277 7.94219,7.64569 7.93664,7.65862 7.93099,7.67158 7.92525,7.68457 7.91942,7.69757 7.9135,7.71058 7.9075,7.72361 7.9014,7.73665 7.89522,7.74968 7.88897,7.76272 7.88263,7.77576 7.87621,7.78879 7.86972,7.80181 7.86315,7.81482 7.8565,7.82781 7.84979,7.84079 7.843,7.85374 7.83615,7.86667 7.82923,7.87956 7.82224,7.89243 4.03598,4.10616 4.04296,4.09329 4.04988,4.08039 4.05674,4.06747 4.06352,4.05452 4.07024,4.04154 4.07688,4.02855 4.08345,4.01554 4.08994,4.00252 4.09636,3.98949 4.1027,3.97645 4.10896,3.96341 4.11513,3.95037 4.12123,3.93734 4.12723,3.92431 4.13315,3.9113 4.13898,3.8983 4.14472,3.88531 4.15037,3.87235 4.15593,3.85941 4.16138,3.8465 4.16674,3.83362 4.172,3.82078 4.17716,3.80797 4.18221,3.7952 4.18717,3.78248 4.19201,3.76981 4.19675,3.75719 4.20137,3.74461 4.20589,3.7321 4.21029,3.71965 4.21458,3.70727 "/>
     <polygon id="_460580048" class="fil1" points="4.92938,4.57152 8.71565,8.35779 8.71684,8.35911 8.71798,8.36049 8.71906,8.36194 8.72008,8.36345 4.93381,4.57718 4.93279,4.57567 4.93171,4.57422 4.93057,4.57283 "/>
     <polygon id="_460579976" class="fil1" points="4.87315,4.6227 8.65942,8.40897 8.18598,8.08845 4.39971,4.30218 "/>
     <polygon id="_460579856" class="fil1" points="5.274,5.10775 9.06027,8.89402 9.0622,8.89738 9.06374,8.90085 9.06491,8.9044 9.06572,8.90801 9.06617,8.91165 9.06626,8.9153 9.066,8.91893 9.06539,8.92251 9.06445,8.92601 9.06318,8.92942 9.06157,8.9327 9.05965,8.93582 9.05742,8.93877 9.05487,8.94151 9.05202,8.94402 9.04887,8.94628 5.2626,5.16 5.26575,5.15775 5.2686,5.15524 5.27115,5.1525 5.27339,5.14955 5.27531,5.14643 5.27691,5.14315 5.27819,5.13974 5.27913,5.13624 5.27973,5.13266 5.27999,5.12903 5.2799,5.12538 5.27945,5.12174 5.27865,5.11813 5.27747,5.11457 5.27593,5.11111 "/>
     <polygon id="_460579952" class="fil1" points="1.87285,2.06715 5.65912,5.85342 5.66426,5.85853 5.66835,5.86458 5.67124,5.87142 5.67275,5.87892 1.88648,2.09265 1.88498,2.08515 1.88209,2.07831 1.87799,2.07226 "/>
     <polygon id="_460580192" class="fil1" points="4.93381,4.57718 8.72008,8.36345 9.06027,8.89402 5.274,5.10775 "/>
     <polygon id="_460581176" class="fil1" points="1.88648,2.09265 5.67275,5.87892 5.74665,6.61794 1.96039,2.83167 "/>
     <polygon id="_460581200" class="fil1" points="3.9294,4.28554 7.71567,8.07181 7.7131,8.07578 7.71053,8.07973 7.70796,8.08367 7.70537,8.08761 7.70279,8.09154 7.7002,8.09545 7.69761,8.09936 7.69501,8.10326 7.69241,8.10714 7.6898,8.11102 7.68719,8.11489 7.68457,8.11874 7.68195,8.12259 7.67933,8.12643 7.6767,8.13025 7.67407,8.13407 3.8878,4.3478 3.89043,4.34398 3.89306,4.34015 3.89569,4.33632 3.8983,4.33247 3.90092,4.32861 3.90353,4.32475 3.90614,4.32087 3.90874,4.31698 3.91134,4.31309 3.91393,4.30918 3.91652,4.30526 3.91911,4.30134 3.92169,4.2974 3.92426,4.29346 3.92683,4.2895 "/>
     <polygon id="_460580552" class="fil1" points="2.3007,3.16932 6.08697,6.95559 6.08486,6.95537 6.08275,6.95503 6.08066,6.95456 6.07858,6.95397 6.07652,6.95325 6.07449,6.95241 6.07249,6.95144 6.07053,6.95035 2.28426,3.16407 2.28622,3.16517 2.28822,3.16614 2.29025,3.16698 2.29231,3.1677 2.29439,3.16829 2.29648,3.16876 2.29859,3.1691 "/>
     <polygon id="_460580576" class="fil1" points="2.6006,3.69603 6.38687,7.4823 6.09723,7.52512 2.31096,3.73885 "/>
     <polygon id="_460580720" class="fil1" points="2.31096,3.73885 6.09723,7.52512 6.09545,7.52543 6.09365,7.52565 6.09182,7.52579 6.08998,7.52583 6.08813,7.52579 6.08627,7.52565 6.0844,7.52543 6.08252,7.5251 2.29625,3.73883 2.29813,3.73915 2.3,3.73938 2.30186,3.73952 2.30372,3.73956 2.30556,3.73952 2.30738,3.73938 2.30918,3.73916 "/>
     <polygon id="_460580792" class="fil1" points="1.9173,3.66292 5.70357,7.44919 5.70006,7.44831 5.69664,7.44711 5.69334,7.44557 5.69019,7.44371 5.68721,7.44154 5.68443,7.43905 1.89816,3.65278 1.90094,3.65527 1.90392,3.65744 1.90707,3.6593 1.91037,3.66083 1.91379,3.66204 "/>
     <polygon id="_460580672" class="fil1" points="1.64801,3.14448 5.43428,6.93075 5.43684,6.93355 5.43915,6.93665 1.65288,3.15038 1.65057,3.14728 "/>
     <polygon id="_460580816" class="fil1" points="1.65288,3.15038 5.43915,6.93665 5.7336,7.37804 1.94733,3.59176 "/>
     <polygon id="_460580984" class="fil1" points="2.42695,4.30218 6.21322,8.08845 5.73978,8.40897 1.95352,4.6227 "/>
     <polygon id="_460581080" class="fil1" points="1.95352,4.6227 5.73978,8.40897 5.40258,8.93487 1.61631,5.1486 "/>
     <polygon id="_460581776" class="fil1" points="1.61631,5.1486 5.40258,8.93487 5.40033,8.93802 5.39782,8.94087 5.39508,8.94342 5.39213,8.94566 5.389,8.94758 5.38573,8.94918 5.38232,8.95046 5.37881,8.9514 5.37524,8.952 5.37161,8.95226 5.36796,8.95217 5.36432,8.95172 5.36071,8.95092 5.35716,8.94974 5.35369,8.9482 5.35033,8.94628 1.56406,5.16 1.56742,5.16193 1.57089,5.16347 1.57444,5.16465 1.57806,5.16545 1.5817,5.1659 1.58534,5.16599 1.58897,5.16573 1.59255,5.16513 1.59606,5.16419 1.59946,5.16291 1.60274,5.16131 1.60586,5.15939 1.60881,5.15715 1.61155,5.1546 1.61406,5.15175 "/>
     <polygon id="_460581560" class="fil1" points="1.56406,5.16 5.35033,8.94628 5.34718,8.94402 1.56091,5.15775 "/>
     <polygon id="_460581344" class="fil1" points="2.28426,3.16407 6.07053,6.95035 5.6922,6.67339 1.90593,2.88711 "/>
     <polygon id="_460581368" class="fil1" points="2.29625,3.73883 6.08252,7.5251 5.70354,7.4493 1.91728,3.66303 "/>
     <polygon id="_460581944" class="fil1" points="2.88976,4.28581 6.67603,8.07208 6.21322,8.08845 2.42695,4.30218 "/>
     <polygon id="_460581824" class="fil1" points="3.4095,4.7492 7.19576,8.53547 7.19007,8.53538 7.18434,8.5351 7.17857,8.53465 7.17277,8.534 7.16692,8.53319 7.16104,8.53219 7.15512,8.53102 7.14917,8.52967 7.14318,8.52815 7.13715,8.52646 7.1311,8.5246 7.12501,8.52257 7.1189,8.52038 7.11275,8.51802 7.10657,8.5155 7.10037,8.51282 3.3141,4.72655 3.32031,4.72923 3.32648,4.73175 3.33263,4.73411 3.33874,4.7363 3.34483,4.73833 3.35089,4.74019 3.35691,4.74188 3.3629,4.7434 3.36885,4.74474 3.37477,4.74592 3.38065,4.74691 3.3865,4.74773 3.39231,4.74837 3.39807,4.74883 3.40381,4.74911 "/>
     <polygon id="_460581608" class="fil1" points="3.3141,4.72655 7.10037,8.51282 7.09593,8.51082 7.09148,8.50873 7.08701,8.50657 7.08253,8.50433 7.07804,8.502 7.07353,8.4996 7.06902,8.49713 7.06449,8.49457 7.05994,8.49194 7.05539,8.48924 7.05083,8.48646 7.04626,8.4836 7.04167,8.48067 7.03708,8.47767 7.03248,8.47459 7.02787,8.47145 7.02324,8.46823 7.01861,8.46494 7.01398,8.46158 7.00933,8.45815 7.00467,8.45466 7.00001,8.45109 6.99534,8.44746 6.99067,8.44376 6.98598,8.43999 6.9813,8.43616 6.9766,8.43226 6.9719,8.4283 6.96719,8.42427 6.96248,8.42018 6.95777,8.41602 6.95305,8.41181 3.16678,4.62554 3.1715,4.62975 3.17622,4.63391 3.18093,4.638 3.18563,4.64202 3.19033,4.64599 3.19503,4.64989 3.19972,4.65372 3.2044,4.65748 3.20907,4.66119 3.21374,4.66482 3.21841,4.66839 3.22306,4.67188 3.22771,4.67531 3.23235,4.67867 3.23698,4.68196 3.2416,4.68518 3.24621,4.68832 3.25081,4.6914 3.25541,4.6944 3.25999,4.69733 3.26456,4.70019 3.26913,4.70296 3.27368,4.70567 3.27822,4.7083 3.28275,4.71085 3.28726,4.71333 3.29177,4.71573 3.29626,4.71806 3.30074,4.7203 3.30521,4.72246 3.30966,4.72455 "/>
     <polygon id="_460581512" class="fil1" points="3.16678,4.62554 6.95305,8.41181 6.94813,8.40735 6.9432,8.40283 3.15693,4.61656 3.16186,4.62108 "/>
     <polygon id="_460581752" class="fil1" points="2.56656,3.19115 6.35283,6.97742 6.08696,6.95568 2.30069,3.16941 "/>
     <polygon id="_460581440" class="fil1" points="3.8878,4.3478 7.67407,8.13407 7.66781,8.14308 7.66154,8.15204 7.65524,8.16093 7.64893,8.16976 7.64259,8.17852 7.63624,8.18721 7.62987,8.19584 7.62349,8.20439 7.61709,8.21287 7.61068,8.22128 7.60426,8.22961 7.59782,8.23787 7.59137,8.24605 7.58491,8.25415 7.57844,8.26217 7.57196,8.2701 7.56548,8.27794 7.55898,8.28571 7.55248,8.29338 7.54598,8.30097 7.53946,8.30846 7.53294,8.31587 7.52643,8.32317 7.5199,8.33039 7.51338,8.3375 7.50685,8.34452 7.50033,8.35144 7.4938,8.35825 7.48727,8.36496 7.48075,8.37157 7.47423,8.37807 7.46771,8.38447 3.68144,4.5982 3.68796,4.5918 3.69448,4.5853 3.701,4.57869 3.70753,4.57198 3.71406,4.56517 3.72058,4.55825 3.72711,4.55123 3.73363,4.54411 3.74016,4.5369 3.74668,4.52959 3.7532,4.52219 3.75971,4.5147 3.76622,4.50711 3.77272,4.49944 3.77921,4.49167 3.7857,4.48383 3.79218,4.47589 3.79865,4.46787 3.8051,4.45978 3.81155,4.4516 3.81799,4.44334 3.82441,4.43501 3.83083,4.4266 3.83722,4.41812 3.84361,4.40957 3.84997,4.40094 3.85632,4.39225 3.86266,4.38349 3.86897,4.37466 3.87527,4.36577 3.88155,4.35681 "/>
     <polygon id="_460582832" class="fil1" points="1.90593,2.88711 5.6922,6.67339 5.68849,6.67097 5.6851,6.66814 1.89883,2.88187 1.90222,2.8847 "/>
     <polygon id="_460582136" class="fil1" points="3.68144,4.5982 7.46771,8.38447 7.45873,8.39311 7.44976,8.40154 7.4408,8.40974 7.43185,8.41773 7.42293,8.4255 7.41402,8.43304 7.40513,8.44034 7.39626,8.44741 7.38742,8.45424 7.37861,8.46082 7.36982,8.46715 7.36107,8.47323 7.35235,8.47906 7.34367,8.48462 7.33502,8.48992 7.32641,8.49494 7.31784,8.4997 7.30932,8.50418 7.30084,8.50837 7.29241,8.51228 7.28404,8.51591 7.27571,8.51924 7.26744,8.52226 7.25922,8.52499 7.25106,8.52742 7.24296,8.52953 7.23493,8.53133 7.22696,8.53281 7.21906,8.53397 7.21122,8.5348 7.20346,8.5353 7.19576,8.53547 3.4095,4.7492 3.41719,4.74903 3.42495,4.74853 3.43279,4.7477 3.44069,4.74654 3.44866,4.74506 3.4567,4.74326 3.4648,4.74115 3.47295,4.73872 3.48117,4.73599 3.48944,4.73296 3.49777,4.72963 3.50615,4.72601 3.51457,4.7221 3.52305,4.71791 3.53157,4.71343 3.54014,4.70867 3.54875,4.70365 3.5574,4.69835 3.56608,4.69278 3.5748,4.68696 3.58356,4.68088 3.59234,4.67455 3.60115,4.66796 3.61,4.66114 3.61886,4.65407 3.62775,4.64676 3.63666,4.63923 3.64559,4.63146 3.65453,4.62347 3.66349,4.61526 3.67246,4.60683 "/>
     <polygon id="_460582712" class="fil1" points="4.39971,4.30218 8.18598,8.08845 7.71567,8.07181 3.9294,4.28554 "/>
     <polygon id="_460582256" class="fil1" points="5.2626,5.16 9.04887,8.94628 9.04551,8.9482 9.04204,8.94974 9.03849,8.95092 9.03488,8.95172 9.03124,8.95217 9.02759,8.95226 9.02396,8.952 9.02038,8.9514 9.01688,8.95046 9.01347,8.94918 9.01019,8.94758 9.00707,8.94566 9.00412,8.94342 9.00138,8.94087 5.21511,5.1546 5.21785,5.15715 5.2208,5.15939 5.22393,5.16131 5.2272,5.16291 5.23061,5.16419 5.23411,5.16513 5.23769,5.16573 5.24132,5.16599 5.24497,5.1659 5.24861,5.16545 5.25222,5.16465 5.25578,5.16347 5.25924,5.16193 "/>
     <polygon id="_460582448" class="fil1" points="5.23655,3.19242 9.02282,6.97869 8.71964,7.43317 4.93337,3.64689 "/>
     <polygon id="_460582088" class="fil1" points="4.93337,3.64689 8.71964,7.43317 8.71733,7.43626 8.71477,7.43905 8.71199,7.44154 8.70901,7.44371 8.70586,7.44557 8.70256,7.44711 8.69915,7.44831 8.69563,7.44919 4.90937,3.66292 4.91288,3.66204 4.9163,3.66083 4.91959,3.6593 4.92274,3.65744 4.92572,3.65527 4.9285,3.65278 4.93106,3.64999 "/>
     <polygon id="_460582808" class="fil1" points="4.90939,3.66303 8.69566,7.4493 8.31668,7.5251 4.53041,3.73883 "/>
    </g>
    <path id="_637655176" class="fil1" d="M2.92158 1.68244c0.00882677,-0.0188858 0.0312992,-0.0270394 0.050185,-0.0182087 0.0188858,0.00882677 0.0270394,0.0312992 0.0182087,0.050185 -0.0468425,0.100126 -0.0385472,0.142079 0.00281102,0.161429 0.037063,0.0173386 0.0976772,0.0251339 0.169972,0.0344252 0.0263976,0.0033937 0.0542638,0.00697638 0.0828346,0.0112283 0.0457402,-0.0328543 0.103713,-0.0525315 0.16661,-0.0525315 0.0628937,0 0.12087,0.0196772 0.16661,0.0525315 0.0285709,-0.00425197 0.0564331,-0.00783465 0.0828307,-0.0112283 0.0722953,-0.00929134 0.132909,-0.0170866 0.169976,-0.0344252 0.0413543,-0.0193504 0.0496496,-0.0613031 0.00280709,-0.161429 -0.00882677,-0.0188858 -0.000677165,-0.0413583 0.0182087,-0.050185 0.0188858,-0.00883071 0.0413583,-0.000677165 0.050185,0.0182087 0.0712205,0.152244 0.0461535,0.221854 -0.0392244,0.261799 -0.0477362,0.0223346 -0.113748,0.0308228 -0.19248,0.0409409 -0.00903937,0.00116142 -0.0182598,0.00234646 -0.0276575,0.00357874 0.0233583,0.0359567 0.0367323,0.0778386 0.0367323,0.12263 0,0.0462953 -0.0143386,0.0895394 -0.0392677,0.12639 -0.00771654,0.0114055 -0.0164488,0.022185 -0.0260906,0.0322441 0.0715,0.0162795 0.135961,0.0409449 0.189752,0.0719094 0.107122,0.0616535 0.173378,0.148894 0.173378,0.247098 0,0.0394016 -0.0108228,0.0772441 -0.0308307,0.112594 -0.0116378,0.0205669 -0.026374,0.0401693 -0.0438583,0.0586063 0.0431378,0.0258268 0.0834606,0.0549409 0.120492,0.0869213 0.0618819,0.0534449 0.114583,0.114882 0.15587,0.18239l0.331669 0.0151181 0.354972 -0.212984 0.0739016 -0.739024c0.00204331,-0.0207638 0.0205354,-0.0359409 0.0413031,-0.0339016 0.0207677,0.00204331 0.0359449,0.0205394 0.0339016,0.0413031l-0.0757992 0.757957c-0.00124409,0.0126535 -0.00859449,0.0232323 -0.0188504,0.0291063l-0.378335 0.276961c-0.0051811,0.00309843 -0.0108031,0.00481102 -0.016437,0.00524803l3.93701e-006 8.26772e-005 -0.273354 0.0223543c0.0186181,0.0616417 0.0285276,0.126362 0.0285276,0.193118 0,0.043563 -0.00608268,0.0931614 -0.0173228,0.14702l0.271071 0.0813858 0.344445 -0.0215197 0.294449 -0.441386c0.0116063,-0.0173307 0.0350748,-0.0219685 0.0524055,-0.0103622 0.0173307,0.0116063 0.0219685,0.0350748 0.0103622,0.0524055l-0.303181 0.454472c-0.00579528,0.00864961 -0.0145394,0.0141378 -0.0240039,0.0160236l2.3622e-005 0.000114173 -0.378976 0.0757953c-0.00501575,0.000996063 -0.00999213,0.000952756 -0.0147126,2.3622e-005l-0.296953 -0.0439016c-0.0438543,0.13102 -0.107925,0.274169 -0.182772,0.411209 0.127209,0.0215669 0.420272,0.0709016 0.435366,0.0834528l0.452776 0.377315c0.00374409,0.00269685 0.00705118,0.00612992 0.00969685,0.010252l0.340189 0.530571c0.0112795,0.0175748 0.00617717,0.0409764 -0.0114016,0.0522559 -0.0175748,0.0112795 -0.0409724,0.00617717 -0.0522559,-0.0114016l-0.337197 -0.525906 -0.473441 -0.320516 -0.470307 -0.0166378c-0.0136772,0.0211535 -0.0275551,0.0419331 -0.0415984,0.062252 -0.0666299,0.0964961 -0.136866,0.182783 -0.206358,0.250402 -0.0958583,0.0932638 -0.190303,0.151004 -0.271949,0.151004 -0.0302362,0 -0.0622323,-0.00792126 -0.0953937,-0.0226496 -0.0472835,-0.0209488 -0.0969528,-0.0557126 -0.147323,-0.101016 -0.0524685,-0.0471378 -0.105697,-0.105697 -0.157803,-0.171992 -0.02,-0.0254134 -0.0398228,-0.0519764 -0.0593701,-0.0794685 -0.0202874,-0.0284961 -0.0402717,-0.058 -0.0598465,-0.0882677l-0.462807 0.016374 -0.473437 0.320516 -0.337201 0.525906c-0.0112795,0.0175787 -0.0346772,0.0226811 -0.0522559,0.0114016 -0.0175748,-0.0112795 -0.0226772,-0.0346811 -0.0113976,-0.0522559l0.340189 -0.530571c0.00264173,-0.00412205 0.00595276,-0.00755512 0.00969685,-0.010252l0.452776 -0.377315c0.0148189,-0.0123268 0.297697,-0.060126 0.428339,-0.0822598 -0.0749173,-0.137024 -0.139087,-0.280213 -0.183059,-0.411323l-0.289638 0.0428228c-0.00472441,0.000929134 -0.00970079,0.000972441 -0.0147126,-2.3622e-005l-0.378976 -0.0757953 2.3622e-005 -0.000114173c-0.00946457,-0.00188583 -0.0182087,-0.00737402 -0.0240039,-0.0160236l-0.303181 -0.454472c-0.0116063,-0.0173307 -0.0069685,-0.0407992 0.0103622,-0.0524055 0.0173307,-0.0116063 0.0407953,-0.0069685 0.0524055,0.0103622l0.294449 0.441386 0.344445 0.0215197 0.263846 -0.0792205c-0.0115315,-0.0546929 -0.0177756,-0.105039 -0.0177756,-0.149185 0,-0.0669764 0.00997638,-0.131906 0.0287126,-0.193728l-0.265866 -0.0217441 7.87402e-006 -8.26772e-005c-0.00563386,-0.000437008 -0.0112598,-0.00214961 -0.0164409,-0.00524803l-0.378331 -0.276961c-0.0102559,-0.00587402 -0.0176063,-0.0164528 -0.0188543,-0.0291063l-0.0757953 -0.757957c-0.00204331,-0.0207638 0.0131339,-0.0392598 0.0339016,-0.0413031 0.0207638,-0.00203937 0.0392598,0.0131378 0.0413031,0.0339016l0.0739016 0.739024 0.354972 0.212984 0.323776 -0.0147598c0.0413228,-0.0676496 0.0940984,-0.129209 0.156091,-0.182748 0.0384409,-0.0332008 0.080437,-0.063311 0.125437,-0.0898622 -0.0167598,-0.0180827 -0.0308858,-0.0372559 -0.042063,-0.0573425 -0.0194134,-0.034878 -0.0298976,-0.0721496 -0.0298976,-0.110917 0,-0.0982047 0.0662559,-0.185445 0.173378,-0.247098 0.0533622,-0.0307126 0.117217,-0.0552323 0.188028,-0.0715157 -0.00973228,-0.0101063 -0.0185472,-0.0209528 -0.0263346,-0.0324331 -0.0251102,-0.0370197 -0.0395591,-0.0803386 -0.0395591,-0.126594 0,-0.0447913 0.013374,-0.0866732 0.0367323,-0.12263 -0.00939764,-0.00123228 -0.0186181,-0.00241732 -0.0276575,-0.00357874 -0.0787323,-0.0101181 -0.144744,-0.0186063 -0.192476,-0.0409409 -0.0853819,-0.0399449 -0.110449,-0.109555 -0.0392283,-0.261799z"/>
   </g>
  </g>
  <path class="fil2" d="M3.41333 -3.93701e-006c1.88513,0 3.41333,1.5282 3.41333,3.41333 0,1.88513 -1.5282,3.41333 -3.41333,3.41333 -1.88513,0 -3.41333,-1.5282 -3.41333,-3.41333 0,-1.88513 1.5282,-3.41333 3.41333,-3.41333z"/>
  <path class="fil3" d="M2.92158 1.68244c0.00882677,-0.0188858 0.0312992,-0.0270394 0.050185,-0.0182087 0.0188858,0.00882677 0.0270394,0.0312992 0.0182087,0.050185 -0.0468425,0.100126 -0.0385472,0.142079 0.00281102,0.161429 0.037063,0.0173386 0.0976772,0.0251339 0.169972,0.0344252 0.0338937,0.00435827 0.0702047,0.00902756 0.107327,0.0150236 0.0206024,0.00327165 0.0346535,0.022626 0.0313819,0.0432283 -0.00326772,0.0206024 -0.022626,0.0346535 -0.0432283,0.0313819 -0.037374,-0.00603543 -0.0723268,-0.0105354 -0.104953,-0.0147244 -0.0787323,-0.0101181 -0.144744,-0.0186063 -0.192476,-0.0409409 -0.0853819,-0.0399449 -0.110449,-0.109555 -0.0392283,-0.261799z"/>
  <path class="fil3" d="M3.83443 1.71441c-0.00882677,-0.0188858 -0.000677165,-0.0413583 0.0182087,-0.050185 0.0188858,-0.00883071 0.0413583,-0.000677165 0.050185,0.0182087 0.0712205,0.152244 0.0461535,0.221854 -0.0392244,0.261799 -0.0477362,0.0223346 -0.113748,0.0308228 -0.19248,0.0409409 -0.032626,0.00418898 -0.0675787,0.00868898 -0.104953,0.0147244 -0.0206024,0.00327165 -0.0399567,-0.0107795 -0.0432283,-0.0313819 -0.00327165,-0.0206024 0.0107835,-0.0399567 0.0313819,-0.0432283 0.037126,-0.00599606 0.0734331,-0.0106654 0.107327,-0.0150236 0.0722953,-0.00929134 0.132909,-0.0170866 0.169976,-0.0344252 0.0413543,-0.0193504 0.0496496,-0.0613031 0.00280709,-0.161429z"/>
  <path class="fil4" d="M3.4122 1.86896c0.0730945,0 0.139543,0.0265748 0.187862,0.0695276 0.0495039,0.044 0.080126,0.105114 0.080126,0.172894 0,0.0462953 -0.0143386,0.0895394 -0.0392677,0.12639 -0.0252953,0.0373898 -0.0615551,0.0680945 -0.104724,0.0884961 -0.00665748,0.00314173 -0.0137638,0.00416535 -0.0205709,0.00335827l-7.87402e-006 4.72441e-005c-0.0172559,-0.00204331 -0.0341654,-0.00356299 -0.0506299,-0.00452362 -0.0159882,-0.000933071 -0.0332087,-0.00141339 -0.0516575,-0.00141339 -0.0186299,0 -0.0361024,0.0005 -0.0524094,0.0014685 -0.0169409,0.00100787 -0.0341929,0.00258268 -0.0516654,0.00468898 -0.00843307,0.000996063 -0.0165512,-0.000862205 -0.023374,-0.00481102 -0.0419724,-0.0203307 -0.0772835,-0.0504961 -0.102114,-0.0871063 -0.0251102,-0.0370197 -0.0395591,-0.0803386 -0.0395591,-0.126594 0,-0.0677795 0.030622,-0.128894 0.080126,-0.172894 0.0483228,-0.0429528 0.114768,-0.0695276 0.187866,-0.0695276z"/>
  <path class="fil5" d="M3.41333 2.24794c0.151984,0 0.290374,0.0359173 0.391252,0.0939843 0.107122,0.0616535 0.173378,0.148894 0.173378,0.247098 0,0.0394016 -0.0108228,0.0772441 -0.0308307,0.112594 -0.0198346,0.0350512 -0.0486575,0.0672913 -0.0847638,0.095748 -0.0120512,0.00947638 -0.0280709,0.0104646 -0.0408504,0.00383465l-7.87402e-006 1.5748e-005c-0.0613701,-0.0319173 -0.127748,-0.056874 -0.197673,-0.0736102 -0.0677717,-0.0162165 -0.139634,-0.0248898 -0.214343,-0.0248898 -0.0734803,0 -0.144508,0.00850394 -0.211862,0.0244252 -0.0697598,0.0164843 -0.13548,0.0407835 -0.195791,0.0716929 -0.0136654,0.00698031 -0.0295906,0.00483465 -0.0408268,-0.00418898l-3.14961e-005 4.33071e-005c-0.0351339,-0.0282638 -0.0631378,-0.0601535 -0.0823858,-0.094748 -0.0194134,-0.034878 -0.0298976,-0.0721496 -0.0298976,-0.110917 0,-0.0982047 0.0662559,-0.185445 0.173378,-0.247098 0.100882,-0.0580669 0.239272,-0.0939843 0.391256,-0.0939843z"/>
  <path class="fil6" d="M1.81128 2.10005c-0.00204331,-0.0207638 0.0131339,-0.0392598 0.0339016,-0.0413031 0.0207638,-0.00203937 0.0392598,0.0131378 0.0413031,0.0339016l0.0739016 0.739024 0.354972 0.212984 0.375106 -0.0170984c0.0208465,0.00163386 0.0179173,0.116087 0.0162835,0.136933 -0.00163386,0.0208465 -0.0198622,0.0364252 -0.0407087,0.0347913l-0.365346 -0.029878 7.87402e-006 -8.26772e-005c-0.00563386,-0.000437008 -0.0112598,-0.00214961 -0.0164409,-0.00524803l-0.378331 -0.276961c-0.0102559,-0.00587402 -0.0176063,-0.0164528 -0.0188543,-0.0291063l-0.0757953 -0.757957z"/>
  <path class="fil6" d="M1.59011 3.19242c-0.0116063,-0.0173307 -0.0069685,-0.0407992 0.0103622,-0.0524055 0.0173307,-0.0116063 0.0407953,-0.0069685 0.0524055,0.0103622l0.294449 0.441386 0.344445 0.0215197 0.318965 -0.0957677c0.020685,-0.00302362 0.0872559,0.10478 0.0902795,0.125461 0.00302362,0.020685 -0.0112953,0.0399094 -0.0319764,0.0429331l-0.358079 0.0529409c-0.00472441,0.000929134 -0.00970079,0.000972441 -0.0147126,-2.3622e-005l-0.378976 -0.0757953 2.3622e-005 -0.000114173c-0.00946457,-0.00188583 -0.0182087,-0.00737402 -0.0240039,-0.0160236l-0.303181 -0.454472z"/>
  <path class="fil6" d="M1.61631 5.1486c-0.0112795,0.0175787 -0.0346772,0.0226811 -0.0522559,0.0114016 -0.0175748,-0.0112795 -0.0226772,-0.0346811 -0.0113976,-0.0522559l0.340189 -0.530571c0.00264173,-0.00412205 0.00595276,-0.00755512 0.00969685,-0.010252l0.452776 -0.377315c0.0179449,-0.0149252 0.42898,-0.0818701 0.486748,-0.0922717 0.0208465,-0.00073622 0.104965,0.0803346 0.105701,0.101185 0.000732283,0.0208465 0.0177362,0.0846102 -0.00311417,0.0853425l-0.517705 0.018315 -0.473437 0.320516 -0.337201 0.525906z"/>
  <path class="fil6" d="M5.01539 2.10005c0.00204331,-0.0207638 -0.0131339,-0.0392598 -0.0339016,-0.0413031 -0.0207677,-0.00203937 -0.0392598,0.0131378 -0.0413031,0.0339016l-0.0739016 0.739024 -0.354972 0.212984 -0.375106 -0.0170984c-0.0208465,0.00163386 -0.0179173,0.116087 -0.0162835,0.136933 0.00163386,0.0208465 0.0198622,0.0364252 0.0407087,0.0347913l0.365343 -0.029878 -3.93701e-006 -8.26772e-005c0.00563386,-0.000437008 0.0112559,-0.00214961 0.016437,-0.00524803l0.378335 -0.276961c0.0102559,-0.00587402 0.0176063,-0.0164528 0.0188504,-0.0291063l0.0757992 -0.757957z"/>
  <path class="fil6" d="M5.23655 3.19242c0.0116063,-0.0173307 0.0069685,-0.0407992 -0.0103622,-0.0524055 -0.0173307,-0.0116063 -0.0407992,-0.0069685 -0.0524055,0.0103622l-0.294449 0.441386 -0.344445 0.0215197 -0.318965 -0.0957677c-0.020685,-0.00302362 -0.0872559,0.10478 -0.0902795,0.125461 -0.00302362,0.020685 0.0112953,0.0399094 0.0319764,0.0429331l0.358079 0.0529409c0.00472047,0.000929134 0.00969685,0.000972441 0.0147126,-2.3622e-005l0.378976 -0.0757953 -2.3622e-005 -0.000114173c0.00946457,-0.00188583 0.0182087,-0.00737402 0.0240039,-0.0160236l0.303181 -0.454472z"/>
  <path class="fil6" d="M5.21035 5.1486c0.0112835,0.0175787 0.0346811,0.0226811 0.0522559,0.0114016 0.0175787,-0.0112795 0.0226811,-0.0346811 0.0114016,-0.0522559l-0.340189 -0.530571c-0.00264567,-0.00412205 -0.00595276,-0.00755512 -0.00969685,-0.010252l-0.452776 -0.377315c-0.0179488,-0.0149252 -0.428984,-0.0818701 -0.486748,-0.0922717 -0.0208465,-0.00073622 -0.104969,0.0803346 -0.105701,0.101185 -0.000732283,0.0208465 -0.0177362,0.0846102 0.00311024,0.0853425l0.517705 0.018315 0.473441 0.320516 0.337197 0.525906z"/>
  <path class="fil7" d="M3.4095 2.62692c0.239512,0 0.45672,0.0841614 0.614272,0.220228 0.159016,0.137331 0.257374,0.327429 0.257374,0.537728 0,0.215083 -0.148252,0.577331 -0.333795,0.872516 -0.171835,0.273382 -0.379055,0.491807 -0.53785,0.491807 -0.158795,0 -0.366016,-0.218425 -0.537854,-0.491807 -0.185543,-0.295185 -0.333795,-0.657433 -0.333795,-0.872516 0,-0.210299 0.0983622,-0.400398 0.257378,-0.537728 0.157547,-0.136067 0.37476,-0.220228 0.614272,-0.220228z"/>
  <path class="fil8" d="M4.03336 4.11092c-0.0166063,0.0302677 -0.0337244,0.0602323 -0.0512677,0.089685 -0.00115354,6.69291e-005 -0.00231102,0.000102362 -0.00348031,0.000102362 -0.0340079,0 -0.0615748,-0.0275669 -0.0615748,-0.0615787 0,-0.0340079 0.0275669,-0.0615748 0.0615748,-0.0615748 0.0238386,0 0.0445157,0.0135512 0.054748,0.0333661z"/>
  <path class="fil9" d="M3.00898 4.45354c-0.0199882,-0.0254252 -0.039815,-0.0519843 -0.0593701,-0.0794685 0.00834646,-0.0224764 0.0299843,-0.0384921 0.0553701,-0.0384921 0.0326142,0 0.0590512,0.0264331 0.0590512,0.0590472 0,0.0312717 -0.0243031,0.0568583 -0.0550512,0.0589134z"/>
  <path class="fil8" d="M3.8878 4.3478c-0.0666339,0.0964921 -0.13687,0.182776 -0.206366,0.250394 -0.0234882,-0.0285472 -0.0375906,-0.0651063 -0.0375906,-0.104961 0,-0.0912953 0.0740157,-0.165307 0.165311,-0.165307 0.0284685,0 0.0552598,0.00719685 0.0786457,0.019874z"/>
  <path class="fil10" d="M3.3141 4.72655c-0.0472756,-0.0209646 -0.0969449,-0.0557323 -0.147323,-0.101016 -0.00833071,-0.0197402 -0.012937,-0.041437 -0.012937,-0.0642087 0,-0.0912953 0.0740118,-0.165307 0.165307,-0.165307 0.0912953,0 0.165311,0.0740118 0.165311,0.165307 0,0.0912992 -0.0740157,0.165311 -0.165311,0.165311 -0.00168898,0 -0.00337008,-3.54331e-005 -0.00504724,-8.66142e-005z"/>
  <circle class="fil11" cx="3.39712" cy="4.27241" r="0.0909966"/>
  <circle class="fil11" cx="3.71195" cy="4.02666" r="0.0833033"/>
  <circle class="fil12" cx="3.15281" cy="4.2759" r="0.0917314"/>
  <circle class="fil13" cx="3.46023" cy="4.02769" r="0.116504"/>
  <circle class="fil13" cx="3.24188" cy="4.13074" r="0.0427196"/>
  <circle class="fil12" cx="3.65767" cy="4.23268" r="0.0784607"/>
  <circle class="fil13" cx="3.00531" cy="4.06836" r="0.067097"/>
  <circle class="fil12" cx="3.30755" cy="3.93019" r="0.038682"/>
  <circle class="fil12" cx="3.59318" cy="4.40104" r="0.0590502"/>
  <circle class="fil14" cx="2.96057" cy="4.23425" r="0.0590502"/>
  <circle class="fil11" cx="3.82412" cy="4.20958" r="0.0590502"/>
  <circle class="fil11" cx="3.19151" cy="4.01318" r="0.0733491"/>
  <circle class="fil2" cx="3.5327" cy="4.15306" r="0.0396397"/>
  <circle class="fil12" cx="2.85814" cy="4.07509" r="0.0396397"/>
  <circle class="fil12" cx="3.88454" cy="4.05782" r="0.0396397"/>
  <circle class="fil13" cx="3.57592" cy="4.6231" r="0.0429924"/>
  <circle class="fil12" cx="3.4095" cy="3.78758" r="0.0909966"/>
  <circle class="fil11" cx="3.4095" cy="3.58033" r="0.0625705"/>
  <circle class="fil13" cx="3.4095" cy="3.37307" r="0.0526391"/>
  <circle class="fil12" cx="3.4095" cy="3.20529" r="0.0317991"/>
 </g>
</svg>
