<?xml version="1.0" encoding="UTF-8"?>
<!DOCTYPE svg PUBLIC "-//W3C//DTD SVG 1.1//EN" "http://www.w3.org/Graphics/SVG/1.1/DTD/svg11.dtd">
<!-- Creator: CorelDRAW -->
<svg xmlns="http://www.w3.org/2000/svg" xml:space="preserve" width="6.82666in" height="6.82666in" style="shape-rendering:geometricPrecision; text-rendering:geometricPrecision; image-rendering:optimizeQuality; fill-rule:evenodd; clip-rule:evenodd"
viewBox="0 0 6.82666 6.82666"
 xmlns:xlink="http://www.w3.org/1999/xlink">
 <defs>
  <style type="text/css">
   <![CDATA[
    .fil2 {fill:none}
    .fil5 {fill:#212121}
    .fil7 {fill:#3D2B16}
    .fil3 {fill:#AD7B3E}
    .fil1 {fill:#C0CA33}
    .fil8 {fill:#C48F4E}
    .fil6 {fill:#C79252}
    .fil4 {fill:#D69F5C}
    .fil0 {fill:#DCE775}
    .fil10 {fill:#373435;fill-rule:nonzero}
    .fil9 {fill:#FAFAFA;fill-rule:nonzero}
    .fil11 {fill:#FEFEFE;fill-rule:nonzero}
   ]]>
  </style>
   <clipPath id="id0">
    <path d="M3.41333 -3.93701e-006c1.88513,0 3.41333,1.5282 3.41333,3.41333 0,1.88513 -1.5282,3.41333 -3.41333,3.41333 -1.88513,0 -3.41333,-1.5282 -3.41333,-3.41333 0,-1.88513 1.5282,-3.41333 3.41333,-3.41333z"/>
   </clipPath>
 </defs>
 <g id="Layer_x0020_1">
  <metadata id="CorelCorpID_0Corel-Layer"/>
  <path class="fil0" d="M3.41333 -3.93701e-006c1.88513,0 3.41333,1.5282 3.41333,3.41333 0,1.88513 -1.5282,3.41333 -3.41333,3.41333 -1.88513,0 -3.41333,-1.5282 -3.41333,-3.41333 0,-1.88513 1.5282,-3.41333 3.41333,-3.41333z"/>
  <g style="clip-path:url(#id0)">
   <g id="_637656760">
    <g>
     <polygon id="_6573886801" class="fil1" points="3.72418,2.7705 7.51044,6.55678 7.50787,6.55502 3.72161,2.76875 "/>
     <polygon id="_657388464" class="fil1" points="4.34999,3.10885 8.13626,6.89512 8.14413,6.9038 8.15176,6.91252 8.15919,6.9213 8.16646,6.93017 8.17363,6.93915 8.18073,6.94827 8.18781,6.95754 8.19491,6.96699 8.20209,6.97664 8.20937,6.98652 8.2168,6.99665 8.22444,7.00704 8.23232,7.01774 8.24048,7.02875 8.24898,7.0401 8.25785,7.05182 8.26715,7.06393 8.2769,7.07644 8.28717,7.08939 4.5009,3.30312 4.49063,3.29017 4.48088,3.27766 4.47159,3.26555 4.46272,3.25383 4.45422,3.24248 4.44605,3.23146 4.43817,3.22077 4.43054,3.21037 4.4231,3.20024 4.41582,3.19037 4.40865,3.18072 4.40154,3.17126 4.39446,3.162 4.38736,3.15288 4.38019,3.1439 4.37292,3.13503 4.36549,3.12625 4.35786,3.11753 "/>
     <polygon id="_657390528" class="fil1" points="4.5009,3.30312 8.28717,7.08939 8.29744,7.10172 8.3083,7.11372 4.52203,3.32745 4.51117,3.31545 "/>
     <polygon id="_657390432" class="fil1" points="5.27998,3.52414 9.06625,7.31041 9.04359,7.34263 5.25732,3.55636 "/>
     <polygon id="_657390816" class="fil1" points="3.99719,3.19082 7.78346,6.97709 7.78556,6.98498 7.78784,6.99332 7.79028,7.00209 7.79286,7.01126 7.79559,7.02082 7.79845,7.03074 7.80144,7.04098 7.80454,7.05154 7.80775,7.06238 7.81106,7.07348 7.81445,7.08481 7.81793,7.09637 7.82148,7.1081 7.82509,7.12 7.82876,7.13205 7.83247,7.1442 7.83622,7.15645 7.83999,7.16877 7.84378,7.18113 7.84759,7.19351 7.85139,7.20588 7.85519,7.21822 7.85897,7.23052 7.86272,7.24273 7.86644,7.25484 7.87013,7.26682 7.87375,7.27866 7.87732,7.29032 7.88081,7.30178 7.88424,7.31302 7.88757,7.32402 7.8908,7.33474 7.89555,7.34845 7.90039,7.35883 7.90528,7.36634 7.91018,7.37146 4.12391,3.58519 4.11902,3.58007 4.11412,3.57256 4.10928,3.56218 4.10454,3.54847 4.1013,3.53774 4.09797,3.52675 4.09455,3.51551 4.09105,3.50405 4.08748,3.49239 4.08386,3.48055 4.08018,3.46857 4.07646,3.45646 4.0727,3.44424 4.06892,3.43195 4.06512,3.41961 4.06132,3.40724 4.05752,3.39486 4.05372,3.3825 4.04995,3.37018 4.0462,3.35793 4.04249,3.34578 4.03882,3.33373 4.03521,3.32183 4.03167,3.31009 4.02819,3.29854 4.02479,3.2872 4.02148,3.27611 4.01828,3.26526 4.01517,3.25471 4.01219,3.24446 4.00932,3.23455 4.00659,3.22499 4.00401,3.21582 4.00157,3.20705 3.9993,3.19871 "/>
     <polygon id="_657390696" class="fil1" points="4.08678,3.25843 7.87305,7.0447 7.86614,7.03755 7.85913,7.03061 7.85201,7.0239 7.84479,7.01744 7.83747,7.01125 7.83005,7.00535 7.82253,6.99976 7.81491,6.9945 7.80719,6.98957 7.79937,6.98502 7.79146,6.98086 7.78346,6.97709 3.99719,3.19082 4.0052,3.19459 4.01311,3.19875 4.02092,3.2033 4.02864,3.20822 4.03626,3.21349 4.04378,3.21908 4.0512,3.22498 4.05852,3.23117 4.06574,3.23763 4.07286,3.24434 4.07987,3.25128 "/>
     <polygon id="_657391296" class="fil1" points="4.52788,3.87815 8.31415,7.66442 8.31067,7.66086 4.52441,3.87459 "/>
     <polygon id="_657391536" class="fil1" points="5.25732,3.55636 9.04359,7.34263 9.03016,7.35961 9.01544,7.3776 8.99952,7.39647 8.98244,7.41607 8.96429,7.43626 8.94512,7.45687 8.92501,7.47778 8.90402,7.49883 8.88223,7.51987 8.85969,7.54076 8.83648,7.56135 8.81267,7.5815 8.78832,7.60105 8.7635,7.61986 8.73828,7.63778 8.71273,7.65467 8.68691,7.67038 8.6609,7.68476 8.63475,7.69767 8.60854,7.70895 8.58234,7.71846 8.55621,7.72606 8.53022,7.7316 8.50445,7.73493 8.47894,7.73589 8.45379,7.73436 8.42905,7.73018 8.40479,7.72319 8.38107,7.71327 8.35798,7.70025 8.33557,7.68399 8.31391,7.66435 4.52764,3.87808 4.5493,3.89772 4.57171,3.91398 4.59481,3.927 4.61852,3.93692 4.64278,3.94391 4.66752,3.94809 4.69268,3.94962 4.71818,3.94865 4.74396,3.94533 4.76994,3.93979 4.79607,3.93219 4.82228,3.92268 4.84848,3.91139 4.87463,3.89849 4.90065,3.88411 4.92646,3.8684 4.95202,3.85151 4.97724,3.83359 5.00206,3.81478 5.02641,3.79523 5.05022,3.77508 5.07343,3.75449 5.09596,3.7336 5.11776,3.71256 5.13874,3.69151 5.15885,3.6706 5.17802,3.64998 5.19617,3.6298 5.21325,3.6102 5.22918,3.59133 5.24389,3.57333 "/>
     <polygon id="_657391248" class="fil1" points="4.01908,3.80011 7.80535,7.58638 7.8016,7.58274 7.79742,7.57915 7.79278,7.57561 7.78767,7.57209 7.78206,7.56859 7.77593,7.56507 7.76926,7.56152 7.76203,7.55793 7.75421,7.55427 3.96794,3.768 3.97576,3.77166 3.983,3.77525 3.98967,3.7788 3.9958,3.78231 4.00141,3.78582 4.00652,3.78934 4.01115,3.79288 4.01533,3.79646 "/>
     <polygon id="_657391584" class="fil1" points="3.96794,3.768 7.75421,7.55427 7.74246,7.549 7.73144,7.54423 7.72113,7.53991 7.71147,7.53601 7.70241,7.53248 7.6939,7.5293 7.6859,7.52643 7.67837,7.52382 7.67124,7.52145 7.66448,7.51927 7.65804,7.51724 7.65188,7.51533 7.64593,7.51351 7.64017,7.51172 7.63453,7.50994 7.62897,7.50814 7.62345,7.50626 7.61792,7.50428 7.61233,7.50215 7.60663,7.49985 7.60078,7.49732 7.59472,7.49454 7.58841,7.49146 7.58181,7.48806 7.57487,7.48429 7.56754,7.48011 7.55976,7.47549 7.5515,7.47039 7.54271,7.46478 7.53334,7.4586 7.52335,7.45184 7.51267,7.44444 3.72641,3.65817 3.73708,3.66557 3.74707,3.67233 3.75644,3.6785 3.76524,3.68412 3.7735,3.68922 3.78127,3.69384 3.7886,3.69802 3.79555,3.70179 3.80215,3.70519 3.80845,3.70827 3.81451,3.71105 3.82036,3.71357 3.82606,3.71588 3.83165,3.71801 3.83719,3.71999 3.8427,3.72187 3.84826,3.72367 3.8539,3.72545 3.85967,3.72724 3.86561,3.72906 3.87178,3.73097 3.87822,3.733 3.88497,3.73518 3.8921,3.73755 3.89963,3.74016 3.90763,3.74303 3.91614,3.74621 3.9252,3.74974 3.93487,3.75364 3.94518,3.75796 3.95619,3.76273 "/>
     <polygon id="_657391656" class="fil1" points="4.19482,3.60783 7.98109,7.39411 7.98487,7.39888 7.98833,7.40455 7.99144,7.41119 7.9942,7.41889 7.99659,7.42774 7.99859,7.43781 8.00019,7.44918 8.00137,7.46194 8.00212,7.47618 8.00242,7.49196 8.00225,7.50937 8.00161,7.52851 8.00047,7.54944 7.99882,7.57225 7.99665,7.59702 7.99393,7.62384 7.99066,7.65279 7.98682,7.68394 7.98239,7.71738 7.97735,7.7532 7.9717,7.79147 7.96542,7.83228 4.17915,4.04601 4.18544,4.0052 4.19109,3.96693 4.19612,3.93111 4.20055,3.89767 4.20439,3.86652 4.20767,3.83757 4.21038,3.81075 4.21256,3.78598 4.2142,3.76317 4.21534,3.74224 4.21598,3.7231 4.21615,3.70569 4.21585,3.68991 4.2151,3.67567 4.21392,3.66291 4.21232,3.65154 4.21032,3.64147 4.20793,3.63262 4.20517,3.62492 4.20206,3.61828 4.1986,3.61261 "/>
     <polygon id="_657391272" class="fil1" points="3.72641,3.65817 7.51267,7.44444 7.50376,7.4728 3.71749,3.68653 "/>
     <polygon id="_657391728" class="fil1" points="3.39554,3.49325 7.18181,7.27952 7.1756,7.28437 7.16896,7.28905 7.16191,7.29356 7.15445,7.29791 7.14659,7.30207 7.13833,7.30607 7.12968,7.30989 7.12064,7.31352 7.11123,7.31697 7.10144,7.32023 7.09129,7.3233 7.08078,7.32618 7.06992,7.32886 7.05871,7.33134 7.04716,7.33362 7.03527,7.33569 7.02306,7.33756 7.01052,7.33921 6.99767,7.34065 6.98451,7.34187 6.97105,7.34287 6.95729,7.34365 6.94324,7.3442 6.92891,7.34452 6.9143,7.34462 6.89941,7.34447 6.88426,7.34409 6.86886,7.34347 6.8532,7.34261 6.83729,7.34149 6.82115,7.34013 6.80477,7.33852 3.0185,3.55224 3.03488,3.55386 3.05102,3.55522 3.06693,3.55633 3.08259,3.5572 3.098,3.55782 3.11315,3.5582 3.12803,3.55835 3.14264,3.55825 3.15697,3.55793 3.17102,3.55738 3.18478,3.5566 3.19824,3.5556 3.2114,3.55437 3.22425,3.55294 3.23679,3.55128 3.249,3.54942 3.26089,3.54735 3.27244,3.54507 3.28365,3.54259 3.29451,3.53991 3.30502,3.53703 3.31518,3.53396 3.32496,3.5307 3.33437,3.52725 3.34341,3.52361 3.35206,3.5198 3.36032,3.5158 3.36819,3.51163 3.37565,3.50729 3.3827,3.50278 3.38933,3.4981 "/>
     <polygon id="_657391776" class="fil1" points="3.71749,3.68653 7.50376,7.4728 7.50311,7.47465 7.50248,7.47645 7.50187,7.47824 7.5013,7.48001 7.50075,7.48181 7.50023,7.48363 7.49975,7.4855 7.49931,7.48744 7.49891,7.48947 7.49854,7.4916 7.49822,7.49385 7.49795,7.49624 7.49773,7.49878 7.49756,7.5015 7.49745,7.50441 7.49739,7.50753 7.49739,7.51087 7.49746,7.51447 7.49759,7.51832 7.49778,7.52246 7.49805,7.5269 7.49839,7.53165 7.4988,7.53674 7.49928,7.54218 7.49985,7.54799 7.5005,7.55419 7.50124,7.5608 7.50206,7.56783 7.50297,7.5753 7.50398,7.58323 7.50507,7.59163 7.50627,7.60054 7.50694,7.60736 7.50713,7.61428 7.50685,7.62128 7.50612,7.62837 7.50495,7.63554 7.50336,7.6428 7.50137,7.65013 7.49898,7.65752 7.49622,7.665 7.4931,7.67253 7.48964,7.68013 7.48585,7.68779 7.48174,7.6955 7.47734,7.70327 7.47266,7.71108 7.46771,7.71894 7.46251,7.72685 7.45708,7.73479 7.45143,7.74277 7.44557,7.75078 7.43952,7.75881 7.4333,7.76688 7.42693,7.77497 7.42041,7.78307 7.41377,7.7912 7.40702,7.79933 7.40017,7.80747 7.39324,7.81562 7.38625,7.82377 7.37921,7.83192 7.37214,7.84006 7.36505,7.8482 3.57878,4.06193 3.58587,4.05379 3.59294,4.04565 3.59998,4.0375 3.60697,4.02935 3.6139,4.0212 3.62075,4.01306 3.6275,4.00493 3.63415,3.9968 3.64066,3.9887 3.64704,3.98061 3.65326,3.97254 3.6593,3.9645 3.66516,3.9565 3.67081,3.94852 3.67624,3.94057 3.68144,3.93267 3.68639,3.92481 3.69107,3.917 3.69548,3.90923 3.69958,3.90152 3.70337,3.89386 3.70683,3.88626 3.70995,3.87872 3.71272,3.87125 3.7151,3.86385 3.71709,3.85652 3.71869,3.84927 3.71985,3.8421 3.72058,3.83501 3.72086,3.828 3.72067,3.82109 3.72,3.81427 3.71881,3.80536 3.71771,3.79696 3.7167,3.78902 3.71579,3.78156 3.71497,3.77452 3.71424,3.76792 3.71359,3.76172 3.71302,3.75591 3.71253,3.75047 3.71212,3.74538 3.71178,3.74063 3.71152,3.73619 3.71132,3.73205 3.71119,3.7282 3.71113,3.7246 3.71113,3.72126 3.71118,3.71813 3.7113,3.71522 3.71146,3.71251 3.71169,3.70996 3.71196,3.70757 3.71228,3.70533 3.71264,3.7032 3.71304,3.70117 3.71348,3.69923 3.71396,3.69736 3.71448,3.69554 3.71503,3.69374 3.71561,3.69196 3.71621,3.69018 3.71684,3.68837 "/>
     <polygon id="_657391824" class="fil1" points="2.79574,3.59665 6.58201,7.38292 6.57909,7.38446 6.57589,7.38589 6.57242,7.3872 6.56871,7.38843 6.56478,7.38954 6.56064,7.39057 6.55632,7.39149 6.55184,7.39233 6.54721,7.39308 6.54247,7.39375 6.53763,7.39433 6.5327,7.39485 6.52771,7.39528 6.52269,7.39565 6.51764,7.39595 6.5126,7.39619 6.50758,7.39636 6.5026,7.39648 6.49769,7.39654 6.49285,7.39655 6.48813,7.39652 6.48352,7.39644 6.47906,7.39632 6.47476,7.39617 6.47065,7.39598 6.46675,7.39576 6.46307,7.39551 6.45964,7.39524 6.45648,7.39494 6.4536,7.39463 6.45103,7.39431 6.44879,7.39398 2.66252,3.6077 2.66476,3.60804 2.66733,3.60836 2.67021,3.60867 2.67337,3.60896 2.6768,3.60924 2.68048,3.60948 2.68439,3.6097 2.6885,3.60989 2.69279,3.61005 2.69725,3.61017 2.70186,3.61025 2.70659,3.61028 2.71142,3.61027 2.71633,3.6102 2.72131,3.61009 2.72633,3.60991 2.73137,3.60968 2.73642,3.60938 2.74144,3.60901 2.74643,3.60857 2.75136,3.60806 2.7562,3.60748 2.76094,3.60681 2.76557,3.60606 2.77005,3.60522 2.77437,3.6043 2.77851,3.60327 2.78244,3.60215 2.78615,3.60093 2.78962,3.59961 2.79283,3.59819 "/>
     <polygon id="_657391128" class="fil1" points="2.6652,3.60817 6.45147,7.39444 6.44816,7.39416 2.66189,3.60789 "/>
     <polygon id="_657391224" class="fil1" points="4.17915,4.04601 7.96542,7.83228 7.96406,7.84027 7.96255,7.84779 7.9609,7.85487 7.95912,7.86152 7.9572,7.86778 7.95515,7.87365 7.95298,7.87917 7.95068,7.88434 7.94826,7.8892 7.94572,7.89378 7.94307,7.89807 7.94031,7.90211 7.93743,7.90593 7.93446,7.90953 7.93138,7.91294 7.9282,7.91619 7.92493,7.9193 7.92157,7.92228 7.91811,7.92515 7.91457,7.92795 7.91095,7.93069 7.90725,7.93339 7.90347,7.93607 7.89962,7.93876 7.8957,7.94147 7.89171,7.94423 7.88767,7.94706 7.88356,7.94997 7.87939,7.953 7.87517,7.95616 7.87089,7.95948 7.86657,7.96297 7.86395,7.96475 7.86055,7.96646 7.85643,7.96807 7.85166,7.9696 7.84628,7.97103 7.84037,7.97236 7.83399,7.97358 7.8272,7.97469 7.82006,7.97568 7.81263,7.97654 7.80497,7.97727 7.79715,7.97787 7.78923,7.97832 7.78126,7.97863 7.77332,7.97879 7.76546,7.97878 7.759,7.97866 7.7533,7.97844 7.74829,7.9781 7.74389,7.97765 7.74004,7.97707 7.73667,7.97636 7.7337,7.97551 7.73107,7.97452 7.72871,7.97336 7.72654,7.97205 7.72451,7.97056 7.72253,7.9689 7.72055,7.96705 3.93428,4.18078 3.93626,4.18263 3.93824,4.18429 3.94028,4.18578 3.94244,4.18709 3.9448,4.18824 3.94743,4.18924 3.9504,4.19009 3.95378,4.1908 3.95763,4.19138 3.96202,4.19183 3.96704,4.19217 3.97274,4.19239 3.97919,4.19251 3.98705,4.19252 3.995,4.19236 4.00296,4.19205 4.01088,4.1916 4.0187,4.191 4.02636,4.19027 4.03379,4.18941 4.04093,4.18842 4.04772,4.18731 4.05411,4.18609 4.06002,4.18476 4.06539,4.18333 4.07017,4.1818 4.07428,4.18019 4.07769,4.17848 4.0803,4.1767 4.08462,4.1732 4.0889,4.16989 4.09312,4.16673 4.09729,4.1637 4.1014,4.16078 4.10544,4.15796 4.10943,4.1552 4.11335,4.15248 4.1172,4.1498 4.12098,4.14712 4.12469,4.14442 4.12831,4.14168 4.13185,4.13888 4.1353,4.136 4.13866,4.13302 4.14193,4.12992 4.14511,4.12667 4.14819,4.12326 4.15117,4.11965 4.15404,4.11584 4.1568,4.1118 4.15945,4.1075 4.16199,4.10293 4.16441,4.09807 4.16671,4.09289 4.16889,4.08738 4.17093,4.0815 4.17285,4.07525 4.17463,4.06859 4.17628,4.06152 4.17779,4.054 "/>
     <polygon id="_657392568" class="fil1" points="2.66189,3.60789 6.44816,7.39416 6.4478,7.39871 6.44743,7.40333 6.44706,7.408 6.44667,7.41269 6.44626,7.41739 6.44582,7.42209 6.44534,7.42675 6.44482,7.43137 6.44424,7.43591 6.4436,7.44038 6.44289,7.44474 6.4421,7.44898 6.44122,7.45308 6.44026,7.45702 6.43919,7.46079 6.438,7.46436 2.65174,3.67809 2.65292,3.67452 2.65399,3.67075 2.65496,3.66681 2.65583,3.66271 2.65662,3.65847 2.65733,3.65411 2.65797,3.64964 2.65855,3.64509 2.65907,3.64048 2.65956,3.63581 2.66,3.63112 2.66041,3.62642 2.66079,3.62173 2.66116,3.61706 2.66153,3.61244 "/>
     <polygon id="_657392160" class="fil1" points="2.32192,3.4031 6.10819,7.18937 6.10467,7.18789 6.10112,7.18642 6.09753,7.18497 6.0939,7.18353 6.09023,7.1821 6.08652,7.18069 6.08277,7.17928 6.07897,7.1779 2.2927,3.39163 2.2965,3.39301 2.30025,3.39441 2.30396,3.39583 2.30763,3.39726 2.31126,3.3987 2.31485,3.40015 2.31841,3.40162 "/>
     <polygon id="_657392256" class="fil1" points="2.44033,3.52666 6.22659,7.31293 6.22109,7.31098 6.21622,7.30833 6.21184,7.305 2.42557,3.51873 2.42995,3.52206 2.43482,3.52471 "/>
     <polygon id="_657391920" class="fil1" points="2.35779,3.42945 6.14406,7.21572 6.13763,7.20986 6.13083,7.20424 6.12366,7.19891 6.11611,7.19394 6.10819,7.18937 2.32192,3.4031 2.32985,3.40767 2.33739,3.41264 2.34456,3.41797 2.35136,3.42359 "/>
     <polygon id="_657392352" class="fil1" points="2.45211,3.53335 6.23838,7.31962 6.2331,7.31578 6.22659,7.31293 2.44033,3.52666 2.44683,3.5295 "/>
     <polygon id="_657392592" class="fil1" points="2.02645,3.39583 5.81272,7.18211 5.80948,7.18004 5.80596,7.17825 5.80215,7.17672 5.79808,7.17544 5.79377,7.17439 5.78922,7.17359 5.78445,7.173 5.77948,7.17263 5.77431,7.17246 5.76896,7.1725 5.76345,7.17272 5.7578,7.17312 5.752,7.17369 5.74609,7.17442 5.74006,7.17531 5.73395,7.17633 1.94768,3.39006 1.9538,3.38904 1.95982,3.38815 1.96573,3.38742 1.97153,3.38685 1.97719,3.38645 1.98269,3.38623 1.98804,3.38619 1.99321,3.38636 1.99818,3.38673 2.00295,3.38731 2.0075,3.38812 2.01181,3.38917 2.01588,3.39045 2.01969,3.39198 2.02322,3.39377 "/>
     <polygon id="_657391944" class="fil1" points="2.06044,4.14329 5.84671,7.92956 5.84326,7.92898 2.05699,4.14271 "/>
     <polygon id="_657392040" class="fil1" points="2.05699,4.14271 5.84326,7.92898 5.84241,7.92904 2.05615,4.14277 "/>
     <polygon id="_657392424" class="fil1" points="2.05997,4.14505 5.84624,7.93132 5.8404,7.92817 5.83501,7.92484 5.83007,7.92132 5.82559,7.91761 2.03932,4.13134 2.0438,4.13505 2.04874,4.13857 2.05413,4.1419 "/>
     <polygon id="_657392472" class="fil1" points="2.2927,3.39163 6.07897,7.1779 6.07541,7.17706 6.07175,7.17633 6.06799,7.1757 6.06415,7.17517 6.06021,7.17474 6.0562,7.17439 6.0521,7.17413 6.04794,7.17395 6.0437,7.17385 6.03941,7.17383 6.03506,7.17388 6.03065,7.174 6.02619,7.17419 6.02169,7.17443 6.01715,7.17474 6.01257,7.17509 6.00797,7.1755 6.00334,7.17596 5.99869,7.17646 5.99402,7.177 5.98933,7.17757 5.98465,7.17818 5.97995,7.17882 5.97526,7.17948 5.97058,7.18017 5.96591,7.18087 5.96126,7.18158 5.95662,7.18231 5.95201,7.18304 5.94743,7.18378 5.94289,7.18452 5.93838,7.18526 5.9285,7.18686 5.91881,7.18841 5.90933,7.18984 5.90008,7.19114 5.89107,7.19226 5.88233,7.19317 5.87385,7.19382 5.86567,7.19419 5.8578,7.19422 5.85026,7.1939 5.84305,7.19318 5.8362,7.19202 5.82973,7.19039 5.82365,7.18824 5.81797,7.18555 5.81272,7.18227 2.02645,3.396 2.0317,3.39928 2.03738,3.40197 2.04346,3.40411 2.04994,3.40575 2.05678,3.40691 2.06399,3.40763 2.07154,3.40795 2.07941,3.40791 2.08759,3.40755 2.09606,3.40689 2.10481,3.40599 2.11381,3.40487 2.12307,3.40357 2.13254,3.40213 2.14223,3.40059 2.15211,3.39898 2.15662,3.39825 2.16117,3.39751 2.16574,3.39677 2.17035,3.39604 2.17499,3.39531 2.17964,3.39459 2.18431,3.39389 2.189,3.39321 2.19369,3.39255 2.19838,3.39191 2.20307,3.3913 2.20775,3.39073 2.21242,3.39019 2.21707,3.38969 2.2217,3.38923 2.22631,3.38882 2.23089,3.38846 2.23543,3.38816 2.23993,3.38792 2.24438,3.38773 2.24879,3.38761 2.25314,3.38756 2.25744,3.38758 2.26167,3.38768 2.26583,3.38786 2.26993,3.38812 2.27394,3.38846 2.27788,3.3889 2.28172,3.38943 2.28548,3.39006 2.28914,3.39079 "/>
     <polygon id="_657393264" class="fil1" points="1.94768,3.39006 5.73395,7.17633 5.72865,7.17733 5.72333,7.17841 5.71799,7.17959 5.71263,7.18086 5.70726,7.18221 5.70189,7.18364 5.69652,7.18514 5.69116,7.18671 5.68581,7.18835 5.68049,7.19004 5.6752,7.19178 5.66993,7.19357 5.6647,7.19541 5.65953,7.19729 5.6544,7.1992 5.64933,7.20113 5.64432,7.20309 5.63938,7.20507 5.63452,7.20707 5.62974,7.20907 5.62505,7.21107 5.62045,7.21308 5.61595,7.21508 5.61156,7.21707 5.60728,7.21904 5.60311,7.22099 5.59908,7.22292 5.59517,7.22481 5.5914,7.22668 5.58777,7.2285 5.58429,7.23027 5.58097,7.232 5.57694,7.23405 5.5729,7.23598 5.56883,7.2378 5.56472,7.23948 5.56055,7.24102 5.55632,7.24241 5.55202,7.24365 5.54763,7.24471 5.54315,7.2456 5.53856,7.2463 5.53384,7.2468 5.52899,7.2471 5.524,7.24719 5.51886,7.24705 5.51355,7.24668 5.50806,7.24607 5.50376,7.24544 5.49948,7.24467 5.49522,7.24378 5.49098,7.24276 5.48676,7.24163 5.48256,7.2404 5.47839,7.23906 5.47422,7.23762 5.47009,7.23609 5.46597,7.23448 5.46187,7.23278 5.4578,7.23102 5.45374,7.22918 5.44971,7.22728 5.44569,7.22531 5.4417,7.22331 5.43772,7.22125 5.43377,7.21915 5.42984,7.21702 5.42593,7.21486 5.42204,7.21267 5.41817,7.21047 5.41431,7.20826 5.41048,7.20604 5.40668,7.20381 5.40289,7.2016 5.39912,7.19939 5.39537,7.1972 5.39165,7.19504 5.38794,7.1929 5.38426,7.1908 5.3806,7.18873 5.37443,7.18526 5.36878,7.18201 5.36364,7.17889 5.359,7.17583 5.35487,7.17276 5.35125,7.16958 1.56498,3.38331 1.56861,3.38648 1.57274,3.38956 1.57737,3.39262 1.58251,3.39574 1.58817,3.39899 1.59433,3.40246 1.59799,3.40452 1.60168,3.40663 1.60538,3.40877 1.60911,3.41093 1.61285,3.41312 1.61662,3.41533 1.62041,3.41754 1.62422,3.41976 1.62805,3.42198 1.6319,3.4242 1.63577,3.4264 1.63966,3.42859 1.64357,3.43075 1.6475,3.43288 1.65146,3.43498 1.65543,3.43704 1.65943,3.43904 1.66344,3.441 1.66748,3.44291 1.67153,3.44474 1.67561,3.44651 1.6797,3.44821 1.68382,3.44982 1.68796,3.45135 1.69212,3.45279 1.6963,3.45413 1.70049,3.45536 1.70471,3.45649 1.70895,3.4575 1.71321,3.4584 1.71749,3.45917 1.72179,3.4598 1.72728,3.46041 1.73259,3.46078 1.73774,3.46092 1.74272,3.46083 1.74757,3.46053 1.75229,3.46003 1.75688,3.45933 1.76137,3.45844 1.76575,3.45737 1.77006,3.45614 1.77428,3.45475 1.77845,3.45321 1.78256,3.45153 1.78663,3.44971 1.79067,3.44778 1.7947,3.44572 1.79802,3.444 1.8015,3.44222 1.80513,3.44041 1.8089,3.43854 1.81281,3.43665 1.81685,3.43472 1.82101,3.43277 1.82529,3.4308 1.82968,3.42881 1.83418,3.42681 1.83878,3.4248 1.84347,3.4228 1.84825,3.4208 1.85311,3.4188 1.85805,3.41682 1.86306,3.41486 1.86813,3.41293 1.87326,3.41102 1.87844,3.40914 1.88366,3.4073 1.88893,3.40551 1.89422,3.40377 1.89955,3.40207 1.90489,3.40044 1.91026,3.39887 1.91562,3.39737 1.921,3.39594 1.92636,3.39459 1.93172,3.39332 1.93707,3.39214 1.94239,3.39106 "/>
     <polygon id="_657392976" class="fil1" points="2.65174,3.67809 6.438,7.46436 6.42933,7.48697 6.41991,7.50849 6.40978,7.52894 6.399,7.5484 6.38762,7.5669 6.3757,7.58449 6.36328,7.60123 6.35041,7.61716 6.33715,7.63233 6.32356,7.6468 6.30967,7.6606 6.29554,7.6738 6.28122,7.68643 6.26677,7.69855 6.25224,7.71021 6.23767,7.72146 6.22312,7.73234 6.20864,7.74291 6.19428,7.75321 6.18009,7.7633 6.16613,7.77322 6.15245,7.78303 6.13909,7.79277 6.12612,7.80249 6.11357,7.81224 6.10151,7.82207 6.08998,7.83203 6.07903,7.84217 6.06872,7.85254 6.0591,7.86318 6.05021,7.87415 6.04212,7.8855 6.03875,7.89029 6.03512,7.89489 6.03126,7.89932 6.02717,7.90355 6.02287,7.9076 6.01836,7.91146 6.01367,7.91512 6.00881,7.91858 6.00378,7.92185 5.99861,7.92492 5.9933,7.92778 5.98787,7.93044 5.98233,7.93289 5.97669,7.93513 5.97097,7.93716 5.96518,7.93897 5.95933,7.94057 5.95344,7.94194 5.94752,7.94309 5.94157,7.94402 5.93562,7.94472 5.92968,7.9452 5.92376,7.94544 5.91787,7.94545 5.91203,7.94522 5.90624,7.94475 5.90054,7.94404 5.89491,7.94309 5.88938,7.94189 5.88396,7.94044 5.87867,7.93875 5.87351,7.9368 5.87068,7.93573 5.86764,7.93472 5.86441,7.93377 5.86104,7.93287 5.85755,7.932 5.85398,7.93117 5.85035,7.93036 5.84671,7.92956 2.06044,4.14329 2.06408,4.14409 2.06771,4.1449 2.07128,4.14573 2.07477,4.1466 2.07815,4.1475 2.08137,4.14845 2.08441,4.14946 2.08724,4.15053 2.0924,4.15248 2.09769,4.15417 2.10311,4.15562 2.10864,4.15682 2.11427,4.15777 2.11998,4.15848 2.12576,4.15894 2.1316,4.15918 2.13749,4.15917 2.14341,4.15893 2.14935,4.15845 2.15531,4.15775 2.16125,4.15682 2.16717,4.15567 2.17307,4.1543 2.17891,4.1527 2.1847,4.15089 2.19043,4.14886 2.19606,4.14662 2.2016,4.14417 2.20704,4.14151 2.21234,4.13865 2.21752,4.13558 2.22254,4.13231 2.22741,4.12885 2.23209,4.12519 2.2366,4.12133 2.2409,4.11728 2.24499,4.11305 2.24885,4.10862 2.25248,4.10402 2.25585,4.09923 2.26394,4.08788 2.27283,4.07691 2.28245,4.06626 2.29276,4.0559 2.30371,4.04576 2.31524,4.0358 2.3273,4.02597 2.33985,4.01622 2.35283,4.0065 2.36619,3.99676 2.37987,3.98695 2.39383,3.97703 2.40801,3.96694 2.42237,3.95664 2.43685,3.94607 2.4514,3.93519 2.46597,3.92394 2.4805,3.91228 2.49495,3.90015 2.50927,3.88752 2.5234,3.87433 2.53729,3.86052 2.55089,3.84606 2.56415,3.83089 2.57701,3.81496 2.58943,3.79822 2.60135,3.78063 2.61273,3.76213 2.62351,3.74267 2.63364,3.72222 2.64306,3.7007 "/>
     <polygon id="_657393000" class="fil1" points="2.78198,4.21116 6.56825,7.99743 6.55874,7.99866 6.54947,7.9995 6.54045,7.99991 6.5317,7.9998 6.52323,7.99912 6.51506,7.9978 6.50719,7.99578 6.49963,7.993 6.49242,7.98938 6.48554,7.98486 6.47903,7.97939 2.69276,4.19311 2.69928,4.19859 2.70615,4.20311 2.71337,4.20672 2.72092,4.20951 2.72879,4.21153 2.73696,4.21285 2.74543,4.21352 2.75418,4.21363 2.7632,4.21323 2.77247,4.21239 "/>
     <polygon id="_657392712" class="fil1" points="3.0185,3.55224 6.80477,7.33852 6.80373,7.33913 6.80281,7.34029 6.80202,7.34197 6.80133,7.34415 6.80074,7.34683 6.80025,7.34998 6.79984,7.35359 6.79951,7.35765 6.79924,7.36213 6.79904,7.36703 6.79887,7.37233 6.79876,7.37801 6.79867,7.38406 6.79861,7.39046 6.79856,7.3972 6.79851,7.40426 6.79847,7.41162 6.79841,7.41928 6.79834,7.42721 6.79823,7.4354 6.79809,7.44384 6.79791,7.4525 6.79767,7.46138 6.79736,7.47046 6.79699,7.47972 6.79654,7.48915 6.79599,7.49872 6.79535,7.50844 6.79461,7.51828 6.79374,7.52822 6.79276,7.53826 6.79165,7.54836 6.79074,7.55616 6.78982,7.56396 6.78891,7.57176 6.788,7.57955 6.78708,7.58732 6.78617,7.59507 6.78525,7.60278 6.78434,7.61047 6.78342,7.61811 6.78251,7.6257 6.78159,7.63325 6.78068,7.64073 6.77976,7.64815 6.77885,7.65549 6.77793,7.66275 6.77702,7.66993 6.77611,7.67702 6.77519,7.68401 6.77428,7.69089 6.77337,7.69767 6.77246,7.70433 6.77155,7.71087 6.77065,7.71728 6.76974,7.72356 6.76883,7.72969 6.76793,7.73567 6.76703,7.74151 6.76613,7.74718 6.76523,7.75269 6.76433,7.75802 6.76344,7.76318 6.76255,7.76815 6.76201,7.77025 6.761,7.7733 6.75954,7.77723 6.75766,7.78197 6.75538,7.78747 6.75272,7.79365 6.74972,7.80046 6.74639,7.80783 6.74276,7.81569 6.73886,7.82398 6.7347,7.83263 6.73032,7.84158 6.72574,7.85077 6.72098,7.86012 6.71607,7.86959 6.71103,7.87909 6.70589,7.88857 6.70067,7.89796 6.69539,7.9072 6.69009,7.91623 6.68479,7.92497 6.6795,7.93337 6.67426,7.94135 6.66909,7.94885 6.66401,7.95582 6.65906,7.96219 6.65424,7.96788 6.64959,7.97283 6.64515,7.977 6.64091,7.98029 6.63692,7.98266 6.63319,7.98404 6.629,7.98504 6.62481,7.98603 6.62063,7.98701 6.61644,7.98798 6.61227,7.98893 6.60811,7.98986 6.60398,7.99077 6.59987,7.99165 6.59578,7.99251 6.59172,7.99333 6.5877,7.99412 6.58372,7.99487 6.57978,7.99558 6.57588,7.99624 6.57204,7.99687 6.56825,7.99743 2.78198,4.21116 2.78577,4.21059 2.78961,4.20997 2.79351,4.20931 2.79745,4.2086 2.80143,4.20785 2.80545,4.20706 2.80951,4.20624 2.8136,4.20538 2.81771,4.2045 2.82185,4.20359 2.826,4.20266 2.83017,4.2017 2.83436,4.20074 2.83854,4.19976 2.84274,4.19876 2.84693,4.19776 2.85065,4.19639 2.85464,4.19402 2.85888,4.19072 2.86333,4.18656 2.86797,4.18161 2.87279,4.17591 2.87774,4.16955 2.88282,4.16258 2.88799,4.15507 2.89323,4.14709 2.89852,4.1387 2.90382,4.12996 2.90913,4.12093 2.9144,4.11169 2.91962,4.1023 2.92476,4.09282 2.9298,4.08331 2.93471,4.07385 2.93947,4.0645 2.94406,4.05531 2.94843,4.04635 2.95259,4.0377 2.95649,4.02941 2.96012,4.02156 2.96345,4.01419 2.96646,4.00738 2.96911,4.0012 2.97139,3.9957 2.97327,3.99096 2.97473,3.98703 2.97574,3.98398 2.97628,3.98188 2.97717,3.97691 2.97807,3.97175 2.97896,3.96641 2.97986,3.96091 2.98076,3.95524 2.98166,3.9494 2.98257,3.94342 2.98347,3.93728 2.98438,3.93101 2.98528,3.9246 2.98619,3.91806 2.9871,3.9114 2.98801,3.90462 2.98893,3.89774 2.98984,3.89074 2.99075,3.88366 2.99167,3.87648 2.99258,3.86922 2.99349,3.86187 2.99441,3.85446 2.99532,3.84698 2.99624,3.83943 2.99715,3.83184 2.99807,3.8242 2.99898,3.81651 2.9999,3.8088 3.00081,3.80105 3.00173,3.79328 3.00264,3.78549 3.00356,3.77769 3.00447,3.76989 3.00538,3.76209 3.00649,3.75198 3.00748,3.74195 3.00834,3.73201 3.00908,3.72217 3.00972,3.71245 3.01027,3.70287 3.01072,3.69345 3.01109,3.68419 3.0114,3.67511 3.01164,3.66623 3.01183,3.65757 3.01196,3.64913 3.01207,3.64094 3.01215,3.63301 3.0122,3.62535 3.01224,3.61798 3.01229,3.61093 3.01234,3.60419 3.0124,3.59778 3.01249,3.59174 3.01261,3.58606 3.01277,3.58076 3.01298,3.57586 3.01324,3.57137 3.01357,3.56731 3.01398,3.5637 3.01448,3.56056 3.01506,3.55788 3.01575,3.5557 3.01654,3.55402 3.01746,3.55286 "/>
     <polygon id="_657392832" class="fil1" points="3.57878,4.06193 7.36505,7.8482 7.36084,7.85303 7.35674,7.85772 7.35278,7.86227 7.34896,7.86667 7.34529,7.87091 7.34178,7.87498 7.33843,7.87887 7.33527,7.88257 7.3323,7.88607 7.32952,7.88937 7.32696,7.89246 7.32461,7.89532 7.3225,7.89794 7.32063,7.90033 7.31901,7.90247 7.31765,7.90435 7.31212,7.91174 7.30615,7.91883 7.29976,7.92561 7.293,7.93207 7.2859,7.9382 7.27849,7.94399 7.27081,7.94944 7.26288,7.95453 7.25474,7.95926 7.24643,7.96362 7.23796,7.9676 7.2294,7.9712 7.22075,7.9744 7.21206,7.9772 7.20336,7.97959 7.19469,7.98156 3.40842,4.19528 3.41709,4.19331 3.4258,4.19093 3.43448,4.18813 3.44313,4.18493 3.4517,4.18133 3.46016,4.17735 3.46847,4.17299 3.47661,4.16826 3.48454,4.16317 3.49222,4.15772 3.49963,4.15193 3.50674,4.1458 3.5135,4.13934 3.51988,4.13256 3.52585,4.12547 3.53139,4.11807 3.53274,4.1162 3.53437,4.11406 3.53624,4.11167 3.53835,4.10905 3.54069,4.10619 3.54325,4.1031 3.54603,4.0998 3.549,4.0963 3.55217,4.09259 3.55551,4.0887 3.55902,4.08464 3.56269,4.0804 3.56652,4.076 3.57048,4.07145 3.57457,4.06676 "/>
     <polygon id="_657393024" class="fil1" points="3.40842,4.19528 7.19469,7.98156 7.19066,7.98227 7.18641,7.98306 7.18198,7.98392 7.17737,7.98481 7.1726,7.9857 7.1677,7.98659 7.16269,7.98743 7.15758,7.9882 7.1524,7.98888 7.14717,7.98944 7.14191,7.98987 7.13664,7.99012 7.13137,7.99018 7.12614,7.99002 7.12096,7.98963 7.11585,7.98896 7.10879,7.98764 7.10193,7.98597 7.09533,7.98392 7.08906,7.98146 7.08314,7.97856 7.07764,7.9752 7.07262,7.97136 3.28635,4.18509 3.29137,4.18893 3.29687,4.19229 3.30279,4.19519 3.30907,4.19765 3.31567,4.1997 3.32252,4.20137 3.32959,4.20269 3.3347,4.20335 3.33987,4.20375 3.34511,4.20391 3.35037,4.20385 3.35564,4.20359 3.3609,4.20317 3.36613,4.20261 3.37131,4.20193 3.37642,4.20116 3.38143,4.20031 3.38633,4.19943 3.3911,4.19854 3.39571,4.19765 3.40015,4.19679 3.40439,4.196 "/>
    </g>
    <path id="_637657648" class="fil1" d="M2.01838 2.62007c0.0497205,0.0229921 0.222776,0.1435 0.303126,0.200122 0.0170591,0.00554724 0.0343858,0.00961024 0.0519252,0.0123701 0.0557795,0.00877559 0.114291,0.00446457 0.173539,-0.00743307 0.582268,0.00778346 0.714902,-0.206496 1.17124,-0.0565827 -0.00317323,-0.00340945 0.00290157,0.000917323 0.00596457,0.00196063l-0.00257087 -0.00175591 0.0347913 0.0129488c0.00886614,0.00138583 0.0114764,-0.000503937 0.0362205,0.0134291 0.13587,0.0501693 0.279362,0.104154 0.413098,0.194134 0.164622,0.110768 0.18285,0.173335 0.295181,0.313862 0.106461,0.133201 0.314846,0.211689 0.527846,0.229346 0.035,-0.00264567 0.0690472,0.00160236 0.107197,0.00371654 0.0490433,-0.000681102 0.0974606,-0.00465354 0.144039,-0.0120433l-0.0226614 0.0322205c-0.136157,0.175059 -0.502898,0.549807 -0.729677,0.321717l0.000240157 6.69291e-005c-0.036874,-0.0370039 -0.080185,-0.103752 -0.11311,-0.153402 -0.0324055,-0.0488661 -0.0659606,-0.0954173 -0.099374,-0.142087l-0.00412205 -0.00529528c-0.0389803,-0.0499291 -0.0753819,-0.107091 -0.109516,-0.161094 -0.0488701,-0.077315 -0.118665,-0.187535 -0.204571,-0.225445 0.0215472,0.0816102 0.0733661,0.244799 0.107346,0.357646 0.0124803,0.0414488 0.0265079,0.0421929 0.0380276,0.0427992 0.066752,0.00350787 0.107071,0.00562992 0.0365866,0.45474 -0.0137677,0.0877559 -0.0525236,0.0924488 -0.0988465,0.130689 -0.0117717,0.00971654 -0.0595118,0.0162677 -0.101114,0.015815 -0.0365551,-0.000397638 -0.0379331,-0.00483071 -0.051626,-0.0184685 -0.00388189,-0.00387795 -0.00704331,-0.00821654 -0.00953543,-0.0129803 -0.0370315,-0.0708661 0.00962992,-0.121209 0.0763307,-0.113878 0.00802362,0.00088189 0.0200827,-0.0146732 0.0203307,-0.0159724 0.00153543,-0.00804724 0.0197677,-0.0607126 0.0204409,-0.0892008 0.00259449,-0.109161 0.0193898,-0.134602 -0.067185,-0.174012 -0.129528,-0.0589488 -0.123933,-0.0274646 -0.241539,-0.109827l-0.00891732 0.0283543c-0.00704724,0.0199646 -0.0107598,0.030063 0.00251181,0.12774 0.00981496,0.0722638 -0.0655591,0.160925 -0.14122,0.247661 -0.0227559,0.0260906 -0.0408583,0.0468425 -0.0473937,0.0561457 -0.0282717,0.0402402 -0.0768071,0.0678465 -0.122969,0.0772087 -0.0208661,0.0035315 -0.051811,0.0117205 -0.0788307,0.00740157 -0.0381417,-0.00609843 -0.0696614,-0.026311 -0.0584646,-0.0783701 0.0062874,-0.0292323 0.0236457,-0.0474173 0.0453976,-0.0585 0.0359606,-0.0208465 0.0498898,-0.0150551 0.0631142,-0.0226024 0.0171535,-0.0112835 0.0361063,-0.0304449 0.0572638,-0.0494055l0.054374 -0.0535315c0.0315433,-0.0349961 0.0833898,-0.121594 0.0714843,-0.182894 -0.0200512,-0.103209 -0.126504,-0.20228 -0.167213,-0.26413 -0.0639921,0.0525433 -0.201102,0.0775709 -0.377043,0.0589921 -0.011811,0.00367323 -0.000492126,0.101685 -0.013122,0.209846 -0.0097126,0.0831535 -0.0195945,0.167764 -0.0290984,0.219787 -0.00312992,0.0171417 -0.0911339,0.20674 -0.129354,0.215886 -0.0223346,0.00534252 -0.0448937,0.0105039 -0.0649409,0.0133976 -0.0513583,0.00742126 -0.0929685,0.00144882 -0.115965,-0.0621142 -0.0186496,-0.0515118 0.0293307,-0.113378 0.0657126,-0.126591 0.0244055,-0.00887008 0.0471772,-0.0171535 0.057748,-0.0723386 0.0173307,-0.0904291 0.0125433,-0.163213 0.00718898,-0.244669 -0.00161417,-0.0246299 0.00023622,-0.0805906 -0.000925197,-0.108803 -0.0295394,0.0170118 -0.11115,0.0146772 -0.13322,0.0110591l0.0026811 0.000464567 -0.00331102 -0.000283465c-0.0019685,0.0240984 -0.00355906,0.0517205 -0.0101575,0.0702008 -0.0883031,0.247291 -0.313969,0.297921 -0.395882,0.421142 -0.0345945,0.0520354 -0.114374,0.0734528 -0.168614,0.0512992 -0.00722835,-0.00295276 -0.0170866,-0.00511417 -0.0267992,-0.00724016l-0.00344882 -0.000574803 -0.000846457 5.90551e-005 0.00382283 0.00227559c-0.0323307,-0.0163307 -0.0455866,-0.0400315 -0.038437,-0.0761299 0.0116063,-0.0586142 0.0459646,-0.0708701 0.109512,-0.0813583 0.0875118,-0.0144488 0.0374449,0.000917323 0.109197,-0.0686378 0.0289094,-0.0280276 0.0587874,-0.0569961 0.084874,-0.0913425 0.0114331,-0.0150551 0.0224488,-0.0285748 0.0336535,-0.0423228 0.0217953,-0.0269331 0.0493189,-0.0721969 0.0655394,-0.102917l0.0262441 -0.0574567c0.00970079,-0.0259291 0.0279094,-0.0859213 -0.0102244,-0.0982244 -0.0156614,-0.00424409 -0.0230157,-0.0161575 -0.0341417,-0.0341732 -0.0142362,-0.0230354 -0.0409409,-0.0662362 -0.0842677,-0.0893858 -0.0093189,-0.00396457 -0.0190394,-0.00779528 -0.0292126,-0.0114724 -0.037437,-0.00947638 -0.0927559,-0.000448819 -0.140591,0.00735827 -0.053189,0.0086811 -0.098811,0.016126 -0.125661,-0.00298425l0 -0.000165354c-0.0164646,-0.0117244 -0.0459331,-0.011622 -0.0787717,-0.00577165 -0.0562992,0.0100236 -0.118366,0.0375512 -0.15298,0.0556614 -0.0214449,0.0112205 -0.0431457,0.0179961 -0.0729094,0.0140748 -0.0459764,-0.00605906 -0.0885,-0.0355354 -0.127461,-0.0573425 -0.017126,-0.00958268 -0.0287638,-0.0161102 -0.0350984,-0.0260748 -0.00780709,-0.00829921 -0.0125669,-0.0193071 -0.0125669,-0.0313898 0,-0.0225512 0.0165709,-0.041374 0.038626,-0.0457717 0.00844882,-0.00682283 0.0202205,-0.0167756 0.0345748,-0.0323543 0.00961024,-0.0104291 0.0658307,-0.0728819 0.127524,-0.14152 0.065189,-0.0725276 0.136469,-0.135673 0.160555,-0.160969 -0.00347244,-0.00592913 -0.0117441,-0.0209213 -0.0314134,-0.0588307 -0.0101969,-0.0196535 -0.0610079,-0.181878 0.00677953,-0.150528 0.0195197,0.00902756 0.0696299,0.0422402 0.116484,0.0743543 -0.00411024,-0.0342441 -0.00734646,-0.0933819 -0.0295354,-0.201205 -0.0035,-0.0169961 0.0230039,-0.0197205 0.048122,-0.00810236z"/>
   </g>
  </g>
  <path class="fil2" d="M3.41333 -3.93701e-006c1.88513,0 3.41333,1.5282 3.41333,3.41333 0,1.88513 -1.5282,3.41333 -3.41333,3.41333 -1.88513,0 -3.41333,-1.5282 -3.41333,-3.41333 0,-1.88513 1.5282,-3.41333 3.41333,-3.41333z"/>
  <path class="fil3" d="M1.87653 2.90555c0.0325433,0.0627165 0.0338976,0.0627165 0.0338976,0.0627165 0,0 0.0786496,-0.0752638 0.13289,-0.0689921 0.0542402,0.00627559 0.0542402,-0.00156299 0.0542402,-0.00156299 0,0 -0.173567,-0.123874 -0.214248,-0.142689 -0.0677874,-0.0313504 -0.0169764,0.130874 -0.00677953,0.150528z"/>
  <path class="fil4" d="M2.54697 2.82513c0.612752,0.00818898 0.727512,-0.229591 1.24565,-0.03 0.067689,0.0381102 0.123673,0.069626 0.166472,0.0744528 0.0682795,0.00770079 0.12002,0.129791 0.179118,0.160161 0.0589606,0.0303031 0.115106,0.0744606 0.173346,0.138213 0.216728,0.329886 0.634181,0.484854 0.968425,0.356189 0.00353543,0.00720866 -0.50063,0.668547 -0.774776,0.328835 -0.0302441,-0.0374764 -0.0593465,-0.0813583 -0.0904331,-0.128232 -0.0668386,-0.100787 -0.138547,-0.191724 -0.203874,-0.294157 -0.0653189,-0.102429 -0.129051,-0.202346 -0.213709,-0.239764 0.0136339,0.0516378 0.0409252,0.140472 0.0701496,0.235598 0.0111063,0.0361693 0.0225,0.0732441 0.0371969,0.122047 0.0124803,0.0414488 0.0265079,0.0421929 0.0380276,0.0427992 0.066752,0.00350787 0.107071,0.00562992 0.0365866,0.45474 -0.0107795,0.0687244 -0.0367953,0.0866654 -0.0728031,0.111488 -0.00810236,0.00558661 -0.0169213,0.0116693 -0.0260433,0.0192008 -0.0117717,0.00971654 -0.0595118,0.0162677 -0.101114,0.015815 -0.0365551,-0.000397638 -0.0379331,-0.00483071 -0.051626,-0.0184685 -0.00388189,-0.00387795 -0.00704331,-0.00821654 -0.00953543,-0.0129803 -0.0370315,-0.0708661 0.00962992,-0.121209 0.0763307,-0.113878 0.00802362,0.00088189 0.0200827,-0.0146732 0.0203307,-0.0159724 0.00153543,-0.00804724 0.0197677,-0.0607126 0.0204409,-0.0892008 0.00259449,-0.109161 0.0193898,-0.134602 -0.067185,-0.174012 -0.129528,-0.0589488 -0.123933,-0.0274646 -0.241539,-0.109827 -0.00314173,0.0120079 -0.00626772,0.0208583 -0.00904724,0.0287244 -0.00690945,0.0195787 -0.0105906,0.0299921 0.00264173,0.12737 0.00981496,0.0722638 -0.0655591,0.160925 -0.14122,0.247661 -0.0227559,0.0260906 -0.0408583,0.0468425 -0.0473937,0.0561457 -0.0302165,0.043 -0.0696339,0.061374 -0.113571,0.0717717 -0.0208661,0.00353543 -0.051811,0.0117205 -0.0788307,0.00740551 -0.0381417,-0.00609843 -0.0696614,-0.026315 -0.0584646,-0.0783701 0.00994882,-0.0462638 0.047626,-0.0648622 0.0865433,-0.0714055 0.0226102,-0.00379921 0.0486142,-0.0316614 0.0792323,-0.0591024 0.0254921,-0.0228386 0.017185,-0.0192047 0.0449764,-0.0480984 0.0315433,-0.0349961 0.0833898,-0.121594 0.0714843,-0.182894 -0.0200512,-0.103209 -0.126504,-0.20228 -0.167213,-0.26413 -0.0639921,0.0525433 -0.201102,0.0775709 -0.377043,0.0589921 -0.011811,0.00367323 -0.000492126,0.101685 -0.013122,0.209846 -0.0097126,0.0831535 -0.0195945,0.167764 -0.0290984,0.219787 -0.00242126,0.0132638 -0.0335748,0.0783465 -0.0620394,0.129937 -0.0241811,0.0438346 -0.0505669,0.0819409 -0.067315,0.0859488 -0.0223346,0.00534252 -0.0448937,0.0105039 -0.0649409,0.0133976 -0.0513583,0.00742126 -0.0929685,0.00144882 -0.115965,-0.0621142 -0.0186496,-0.0515118 0.0293307,-0.113378 0.0657126,-0.126591 0.0244055,-0.00887008 0.0471772,-0.0171535 0.057748,-0.0723386 0.0173307,-0.0904291 0.0125433,-0.163213 0.00718898,-0.244669 -0.00161417,-0.0246299 0.00023622,-0.0805906 -0.000925197,-0.108803 -0.0297992,0.0171654 -0.112665,0.014626 -0.133827,0.0109567l-0.000814961 0.00994094c-0.00183071,0.0227165 -0.00357874,0.0443425 -0.00936614,0.0605433 -0.0883031,0.247291 -0.313969,0.297921 -0.395882,0.421142 -0.0175669,0.0264173 -0.046189,0.0445197 -0.0765276,0.0533858 -0.0310591,0.00907087 -0.0654803,0.00877953 -0.0920866,-0.00208661 -0.00722835,-0.00295276 -0.0170866,-0.00511417 -0.0267992,-0.00724016 -0.014815,-0.00324409 0.0128976,0.00850394 -0.000472441,0.00175984 -0.0340709,-0.017189 -0.0521969,-0.0448543 -0.031622,-0.0993858 0.0165591,-0.043878 0.0600984,-0.0510748 0.102697,-0.0581024 0.0875118,-0.0144488 0.0374449,0.000917323 0.109197,-0.0686378 0.0289094,-0.0280276 0.0587874,-0.0569961 0.084874,-0.0913425 0.0114331,-0.0150551 0.0224488,-0.0285748 0.0336535,-0.0423228 0.034252,-0.0420394 0.154992,-0.230996 0.0815591,-0.258598 -0.0156614,-0.00424409 -0.0230157,-0.0161575 -0.0341417,-0.0341732 -0.0142362,-0.0230354 -0.0409409,-0.0662362 -0.0842677,-0.0893858 -0.0093189,-0.00396457 -0.0190394,-0.00779528 -0.0292126,-0.0114724 -0.037437,-0.00947638 -0.0927559,-0.000448819 -0.140591,0.00735827 -0.053189,0.0086811 -0.098811,0.016126 -0.125661,-0.00298425l0 -0.000165354c-0.0164646,-0.0117244 -0.0459331,-0.011622 -0.0787717,-0.00577165 -0.0562992,0.0100236 -0.118366,0.0375512 -0.15298,0.0556614 -0.0214449,0.0112205 -0.0431457,0.0179961 -0.0729094,0.0140748 -0.0258898,-0.00341339 -0.0573465,-0.0156181 -0.10037,-0.0417323l-0.000137795 0c-0.0110551,-0.0067126 -0.0199921,-0.0117126 -0.0269528,-0.0156102 -0.0298583,-0.0167087 -0.0430433,-0.0241142 -0.0405157,-0.0566811l-0.000141732 -1.5748e-005c0.00173622,-0.0226575 0.0111575,-0.0301732 0.0280157,-0.0436496 0.00854724,-0.00683071 0.0216535,-0.017311 0.0381772,-0.0352441 0.00961024,-0.0104291 0.0658307,-0.0728819 0.127524,-0.14152 0.065189,-0.0725276 0.136469,-0.135673 0.160555,-0.160969 0.00227559,0.00388189 0.00248819,0.00388583 0.00248819,0.00388583 0,0 0.0786457,-0.0752638 0.132886,-0.0689882 0.0542402,0.00626772 0.0542402,-0.00156693 0.0542402,-0.00156693 0,0 -0.0287441,-0.0250551 -0.0826181,-0.0618228 0.00281102,-0.00237795 0.00499606,-0.00381102 0.00640551,-0.00326772 -0.000291339,-0.00185827 -0.00211024,-0.00522441 -0.00133071,-0.010689 0.00179921,-0.0126102 -0.0133583,-0.0266457 -0.0147559,-0.0322126 -0.00580315,-0.0140472 0.00703937,-0.0318465 -8.26772e-005,-0.0611102 -0.00740551,-0.0304213 -0.0424528,-0.0874252 -0.0256181,-0.104996 0.030815,-0.0321614 0.196661,0.105646 0.232862,0.135736l0.00537008 0.00442126c0.0487008,0.0390433 0.101146,0.0602205 0.155642,0.0687913 0.0557795,0.00877559 0.114291,0.00446457 0.173539,-0.00743307z"/>
  <path class="fil5" d="M1.59518 3.29825c0.0267913,0 0.0513661,-0.0054685 0.0513661,0.0203465 0,0.0258189 -0.0245748,0.0731457 -0.0513661,0.0731457 -0.0267953,0 -0.0485118,-0.0209331 -0.0485118,-0.046748 0,-0.025815 0.0217165,-0.0467441 0.0485118,-0.0467441z"/>
  <path class="fil5" d="M1.64227 3.43014c0.0279331,0.0153346 0.0505315,0.024063 0.0699528,0.0280433l-0.0222126 -0.0186772c0,0 0.114567,-0.105295 0.129843,-0.117524 0.0152756,-0.0122283 0.0840079,-0.0393976 0.0840079,-0.0393976 -0.0819724,-0.00183858 -0.163563,0.100394 -0.20915,0.129748 -0.0221378,0.014252 -0.0399646,0.0178661 -0.0524409,0.0178071z"/>
  <path class="fil6" d="M2.4543 3.53614c0.0408189,0.0472244 -0.0640039,0.210417 -0.0955315,0.249114 -0.0112047,0.013748 -0.0222205,0.0272677 -0.0336535,0.0423228 -0.0260866,0.0343465 -0.0559646,0.063315 -0.084874,0.0913425 -0.071752,0.0695551 -0.021685,0.054189 -0.109197,0.0686378 -0.0425984,0.00702756 -0.0861378,0.0142244 -0.102697,0.0581024 -0.019752,0.0523504 -0.00383858,0.079937 0.0276063,0.0972677 0.000110236,-0.000346457 0.00133858,-0.000334646 0.00448819,0.000358268 0.0097126,0.00212598 0.0195709,0.0042874 0.0267992,0.00724016 0.0266063,0.0108661 0.0610276,0.0111575 0.0920866,0.00208661 0.0303386,-0.00886614 0.0589606,-0.0269685 0.0765276,-0.0533858 0.0819134,-0.12322 0.307579,-0.17385 0.395882,-0.421142 0.0057874,-0.0162008 0.00753543,-0.0378268 0.00936614,-0.0605433l0.000814961 -0.00994094c0.000964567,0.000165354 0.00206693,0.000358268 0.0032874,0.000566929 -0.0607835,-0.0050748 -0.123701,-0.0172638 -0.197921,-0.0670118 -0.0742205,-0.0497441 -0.00541339,-0.00203937 -0.0129843,-0.00501575z"/>
  <path class="fil6" d="M3.39554 3.49325c0.0407087,0.0618504 0.147161,0.160921 0.167213,0.26413 0.0119055,0.0612992 -0.0399409,0.147898 -0.0714843,0.182894 -0.0277913,0.0288937 -0.0288819,0.0306929 -0.054374,0.0535315 -0.0306181,0.0274409 -0.056622,0.0553031 -0.0792323,0.0591024 -0.0389173,0.00654331 -0.0765945,0.0251457 -0.0865433,0.0714055 -0.0111969,0.0520591 0.0203228,0.0722717 0.0584646,0.0783701 0.0270197,0.0043189 0.0579646,-0.00387008 0.0788307,-0.00740157 0.043937,-0.0104016 0.0833543,-0.0287756 0.113571,-0.0717756 0.00653543,-0.00929921 0.0246378,-0.0300551 0.0473937,-0.0561417 0.0756575,-0.0867362 0.160433,-0.180835 0.150618,-0.253098 -0.0132323,-0.097378 -0.00955118,-0.107791 -0.00264173,-0.12737 0.00277165,-0.00784252 0.00588583,-0.0166614 0.00901969,-0.0286142 -0.0859449,-0.0679921 -0.12463,-0.146154 -0.137772,-0.175472 -0.102303,-0.014252 -0.123984,-0.022 -0.193,0.0103819 -1.9685e-005,1.9685e-005 -4.33071e-005,3.93701e-005 -6.29921e-005,5.90551e-005z"/>
  <path class="fil6" d="M3.72161 2.76875c0.0209449,0.0142953 -0.0210669,-0.0145354 0.00411024,0.00649606 0.0985512,0.0823346 0.218429,0.217618 0.272591,0.416075 0.0840984,0.0377992 0.147559,0.137287 0.212591,0.239268 0.0317441,0.0497756 0.0638425,0.100114 0.100378,0.146776 0.0376496,0.0480866 0.0716496,0.0993583 0.103496,0.147382 0.0310866,0.046874 0.060189,0.0907559 0.0904331,0.128232 0.274146,0.339713 0.778311,-0.321626 0.774776,-0.328835 -0.281524,0.0446614 -0.630098,-0.0346142 -0.779083,-0.22102 -0.112331,-0.140528 -0.130559,-0.203094 -0.295181,-0.313862 -0.133736,-0.0899803 -0.277228,-0.143965 -0.413098,-0.194134 -0.0413228,-0.0232677 -0.0209016,-0.00239764 -0.0710118,-0.026378z"/>
  <path class="fil7" d="M4.9716 3.6323c0.0592913,0.00822047 -0.0620276,0.273181 -0.367913,0.122504 0.0993189,0.102854 0.23528,0.0790551 0.212673,0.0918268 -0.0451654,0.0255118 -0.0927323,0.0418189 -0.131461,0.0465315 -0.062748,0.0076378 -0.125496,-0.00618898 -0.15726,-0.0150866 0.278268,0.279764 0.75578,-0.346921 0.752339,-0.353937 -0.186965,0.0462205 -0.254327,-0.0566339 -0.425882,0.0918583l0.117504 0.0163031z"/>
  <path class="fil8" d="M2.00747 2.86226c0.0523661,0.100913 0.0545472,0.100913 0.0545472,0.100913 0,0 0.126543,-0.121098 0.213815,-0.111004 0.0872756,0.0100906 0.0872756,-0.00251969 0.0872756,-0.00251969 0,0 -0.279272,-0.199311 -0.344728,-0.229583 -0.0251181,-0.0116181 -0.051622,-0.0088937 -0.048122,0.00810236 0.032,0.155492 0.0245827,0.209752 0.0372126,0.234091z"/>
  <path class="fil3" d="M2.05513 2.85663c0.0325472,0.0627205 0.0339016,0.0627205 0.0339016,0.0627205 0,0 0.0786457,-0.0752638 0.132886,-0.0689921 0.0542402,0.00627165 0.0542402,-0.00156693 0.0542402,-0.00156693 0,0 -0.173567,-0.12387 -0.214248,-0.142685 -0.0677874,-0.0313504 -0.0169764,0.13087 -0.00677953,0.150524z"/>
  <path class="fil9" d="M2.03101 3.09593c0.00019685,-0.0110906 0.0012874,-0.0187677 0.00752362,-0.0258819 -0.0145709,0.00915354 -0.024315,0.0294173 -0.024315,0.0294173 -0.003,0.00587795 0.000212598,0.00558661 0.00380315,0.00918898 0.00609055,0.00609449 0.00702756,0.009 0.00770472,0.0177441 0.000755906,0.00986614 0.00438189,0.00940157 0.0126929,0.00901969 0.00478346,-0.000216535 0.00955512,-0.000771654 0.0143228,-0.00134252 -0.0129173,-0.00584252 -0.0220354,-0.0207362 -0.0217323,-0.0381457z"/>
  <path class="fil9" d="M2.11202 3.08877c0.0021378,-0.00286614 0.0132953,-0.0109409 0.0165709,-0.0260787 3.93701e-005,-0.000208661 -0.0154606,0.00437795 -0.0186969,0.00477165 -0.00481102,0.000594488 -0.00853937,0.000708661 -0.0148071,-3.93701e-006 0.00543307,0.00729134 0.00344094,0.0195354 0.00325591,0.0300512 -0.000251969,0.014374 -0.0141969,0.0281732 -0.0238661,0.0350236 0.00301181,-0.000822835 0.0184961,-0.00698031 0.0249173,-0.0131457 0.00464173,-0.00445669 0.0219134,-0.0324961 0.012626,-0.0306181z"/>
  <path class="fil10" d="M2.09835 3.09751c0.00113386,-0.0104409 0.00217717,-0.0227598 -0.00325591,-0.0300512 -0.00697638,-0.0017126 -0.0177795,-0.00364567 -0.0252677,-0.00446063 -0.0151024,-0.0016378 -0.0251732,0.0026811 -0.0312913,0.00705118 -0.00623622,0.00711417 -0.00732677,0.0147913 -0.00752362,0.0258819 -0.00030315,0.0174094 0.00881496,0.0323031 0.0217323,0.0381457 0.00370079,-0.000437008 0.00641732,-3.14961e-005 0.0101181,-0.000299213 0.00579134,-0.00042126 0.0056063,-0.00023622 0.011622,-0.00124409 0.00966929,-0.00685039 0.0208583,-0.00724016 0.0238661,-0.0350236z"/>
  <path class="fil11" d="M2.07633 3.08492c-0.000153543,0.00860236 -0.00629921,0.0154291 -0.0137402,0.0152559 -0.00743701,-0.000173228 -0.0133425,-0.00728346 -0.0131929,-0.0158898 0.000149606,-0.00859843 0.00629921,-0.0154252 0.0137362,-0.015252 0.00744488,0.000177165 0.0133465,0.00728346 0.0131969,0.0158858z"/>
  <path class="fil5" d="M2.18083 3.06427c-0.0761693,0.0504882 -0.0901811,-0.0152047 -0.186933,0.0390787l-3.54331e-005 -1.1811e-005c-0.00590945,-0.0610906 0.121823,-0.0416732 0.156563,-0.071252 0.00996063,-0.00749213 0.0248425,-0.00635827 0.0332362,0.00252756 0.00839764,0.00888976 0.00712992,0.0221654 -0.00283071,0.0296575z"/>
 </g>
</svg>
