<?xml version="1.0" encoding="UTF-8"?>
<!DOCTYPE svg PUBLIC "-//W3C//DTD SVG 1.1//EN" "http://www.w3.org/Graphics/SVG/1.1/DTD/svg11.dtd">
<!-- Creator: CorelDRAW -->
<svg xmlns="http://www.w3.org/2000/svg" xml:space="preserve" width="2048px" height="2048px" style="shape-rendering:geometricPrecision; text-rendering:geometricPrecision; image-rendering:optimizeQuality; fill-rule:evenodd; clip-rule:evenodd"
viewBox="0 0 2048 2048"
 xmlns:xlink="http://www.w3.org/1999/xlink">
 <defs>
  <style type="text/css">
   <![CDATA[
    .fil2 {fill:none}
    .fil1 {fill:#E64A19}
    .fil0 {fill:#FF7043}
    .fil9 {fill:#00ACC1;fill-rule:nonzero}
    .fil8 {fill:#00B3C9;fill-rule:nonzero}
    .fil7 {fill:#00BCD4;fill-rule:nonzero}
    .fil3 {fill:#263238;fill-rule:nonzero}
    .fil5 {fill:#455A64;fill-rule:nonzero}
    .fil4 {fill:#546E7A;fill-rule:nonzero}
    .fil11 {fill:#80DEEA;fill-rule:nonzero}
    .fil10 {fill:#C0CA33;fill-rule:nonzero}
    .fil12 {fill:#F9FBE7;fill-rule:nonzero}
    .fil6 {fill:#FDD835;fill-rule:nonzero}
   ]]>
  </style>
   <clipPath id="id0">
    <path d="M1024 -0.0011811c565.539,0 1024,458.462 1024,1024 0,565.539 -458.462,1024 -1024,1024 -565.539,0 -1024,-458.462 -1024,-1024 0,-565.539 458.462,-1024 1024,-1024z"/>
   </clipPath>
 </defs>
 <g id="Layer_x0020_1">
  <metadata id="CorelCorpID_0Corel-Layer"/>
  <path class="fil0" d="M1024 -0.0011811c565.539,0 1024,458.462 1024,1024 0,565.539 -458.462,1024 -1024,1024 -565.539,0 -1024,-458.462 -1024,-1024 0,-565.539 458.462,-1024 1024,-1024z"/>
  <g style="clip-path:url(#id0)">
   <g id="_451272248">
    <g>
     <polygon id="_3326256721" class="fil1" points="1578.67,1010.23 2714.55,2146.11 2715.9,2147.91 2717.07,2149.83 2718.05,2151.87 2718.83,2154.01 2719.41,2156.25 2719.76,2158.57 2719.88,2160.95 1584,1025.07 1583.88,1022.68 1583.53,1020.37 1582.95,1018.13 1582.17,1015.99 1581.18,1013.95 1580.02,1012.02 "/>
     <polygon id="_332626152" class="fil1" points="1584,1025.07 2719.88,2160.95 2719.76,2163.34 2719.41,2165.66 2718.83,2167.89 2718.05,2170.04 2717.07,2172.07 2715.9,2174 2714.55,2175.8 2713.05,2177.45 2711.39,2178.96 2709.59,2180.3 2707.67,2181.47 2705.63,2182.45 2703.49,2183.24 2701.25,2183.81 2698.93,2184.17 2696.55,2184.29 1560.67,1048.4 1563.05,1048.28 1565.37,1047.93 1567.61,1047.36 1569.75,1046.57 1571.79,1045.59 1573.71,1044.42 1575.51,1043.08 1577.17,1041.57 1578.67,1039.91 1580.02,1038.12 1581.18,1036.19 1582.17,1034.15 1582.95,1032.01 1583.53,1029.77 1583.88,1027.46 "/>
     <polygon id="_332626584" class="fil1" points="1560.67,1048.4 2696.55,2184.29 2673.22,2184.29 1537.34,1048.4 "/>
     <polygon id="_332594736" class="fil1" points="1537.34,1048.4 2673.22,2184.29 2673.22,2198.61 1537.34,1062.72 "/>
     <polygon id="_332594664" class="fil1" points="1046.45,683.931 2182.33,1819.81 2183.39,1821.03 2184.39,1822.3 2185.32,1823.62 2186.19,1824.98 2187,1826.39 2187.75,1827.83 2188.42,1829.32 2189.02,1830.85 2189.55,1832.41 2190,1834 2190.38,1835.63 2190.67,1837.28 2190.89,1838.96 2191.02,1840.67 2191.06,1842.39 1055.18,706.512 1055.13,704.784 1055,703.079 1054.79,701.398 1054.49,699.743 1054.12,698.119 1053.67,696.525 1053.14,694.965 1052.54,693.44 1051.86,691.952 1051.12,690.504 1050.31,689.097 1049.44,687.734 1048.5,686.418 1047.51,685.149 "/>
     <polygon id="_332594832" class="fil1" points="1045.34,730.26 2181.22,1866.14 2180.05,1867.25 2178.84,1868.31 2177.57,1869.31 2176.25,1870.24 2174.89,1871.12 2173.48,1871.93 2172.03,1872.67 2170.55,1873.34 2169.02,1873.94 2167.46,1874.47 2165.87,1874.92 2164.24,1875.3 2162.59,1875.59 2160.91,1875.81 2159.2,1875.94 2157.47,1875.98 1021.59,740.097 1023.32,740.053 1025.03,739.923 1026.71,739.71 1028.36,739.414 1029.98,739.04 1031.58,738.588 1033.14,738.058 1034.66,737.457 1036.15,736.785 1037.6,736.043 1039.01,735.234 1040.37,734.36 1041.69,733.425 1042.95,732.427 1044.17,731.372 "/>
     <polygon id="_332594712" class="fil1" points="1011.98,809.76 2147.86,1945.64 2149.02,1946.89 2150.15,1948.16 2151.24,1949.46 2152.31,1950.79 2153.35,1952.14 2154.35,1953.52 2155.33,1954.92 2156.27,1956.34 2157.17,1957.79 2158.04,1959.27 2158.88,1960.76 2159.68,1962.28 2160.44,1963.82 2161.17,1965.38 2161.86,1966.96 2162.52,1968.56 2163.13,1970.18 2163.71,1971.82 2164.25,1973.47 2164.75,1975.15 2165.2,1976.84 2165.62,1978.55 2165.99,1980.27 2166.33,1982.01 2166.62,1983.76 2166.87,1985.53 2167.07,1987.31 2167.23,1989.1 2167.34,1990.91 2167.41,1992.73 2167.44,1994.56 1031.55,858.673 1031.53,856.843 1031.46,855.024 1031.35,853.218 1031.19,851.424 1030.99,849.644 1030.74,847.876 1030.45,846.123 1030.11,844.386 1029.74,842.663 1029.32,840.956 1028.86,839.265 1028.37,837.591 1027.83,835.935 1027.25,834.297 1026.64,832.678 1025.98,831.077 1025.29,829.497 1024.56,827.938 1023.8,826.398 1023,824.88 1022.16,823.385 1021.29,821.912 1020.38,820.462 1019.45,819.035 1018.47,817.633 1017.47,816.256 1016.43,814.903 1015.36,813.578 1014.27,812.278 1013.14,811.006 "/>
     <polygon id="_332594424" class="fil1" points="1031.55,858.673 2167.44,1994.56 2167.41,1996.38 2167.34,1998.2 2167.23,2000.01 2167.07,2001.8 2166.87,2003.58 2166.62,2005.35 2166.33,2007.1 2165.99,2008.84 2165.62,2010.56 2165.2,2012.27 2164.75,2013.96 2164.25,2015.64 2163.71,2017.29 2163.13,2018.93 2162.52,2020.55 2161.86,2022.15 2161.17,2023.73 2160.44,2025.29 2159.68,2026.83 2158.88,2028.35 2158.04,2029.84 2157.17,2031.32 2156.27,2032.77 2155.33,2034.19 2154.35,2035.6 2153.35,2036.97 2152.31,2038.33 2151.24,2039.65 2150.15,2040.95 2149.02,2042.22 2147.86,2043.47 2146.67,2044.69 1010.79,908.803 1011.98,907.587 1013.14,906.341 1014.27,905.069 1015.36,903.768 1016.43,902.443 1017.47,901.091 1018.47,899.714 1019.45,898.311 1020.38,896.885 1021.29,895.435 1022.16,893.961 1023,892.465 1023.8,890.948 1024.56,889.409 1025.29,887.848 1025.98,886.268 1026.64,884.668 1027.25,883.048 1027.83,881.41 1028.37,879.754 1028.86,878.081 1029.32,876.389 1029.74,874.683 1030.11,872.959 1030.45,871.221 1030.74,869.468 1030.99,867.701 1031.19,865.921 1031.35,864.127 1031.46,862.32 1031.53,860.502 "/>
     <polygon id="_332594640" class="fil1" points="1010.79,908.803 2146.67,2044.69 2145.45,2045.87 2144.21,2047.03 2142.93,2048.16 2141.63,2049.26 2140.31,2050.33 2138.96,2051.37 2137.58,2052.37 2136.18,2053.34 2134.75,2054.28 2133.3,2055.19 2131.83,2056.06 2130.33,2056.89 2128.81,2057.69 2127.27,2058.46 2125.71,2059.19 2124.13,2059.88 2122.53,2060.53 2120.91,2061.15 2119.28,2061.73 2117.62,2062.26 2115.95,2062.76 2114.26,2063.22 2112.55,2063.64 2110.83,2064.01 2109.09,2064.34 2107.34,2064.63 2105.57,2064.88 2103.79,2065.09 2101.99,2065.25 2100.19,2065.36 2098.37,2065.43 2096.54,2065.45 960.659,929.57 962.488,929.546 964.306,929.477 966.113,929.363 967.906,929.203 969.687,929 971.454,928.752 973.207,928.462 974.945,928.129 976.668,927.754 978.375,927.337 980.065,926.88 981.739,926.382 983.395,925.844 985.033,925.267 986.652,924.651 988.253,923.997 989.833,923.306 991.393,922.577 992.932,921.812 994.45,921.011 995.946,920.175 997.419,919.305 998.87,918.4 1000.3,917.461 1001.7,916.489 1003.08,915.484 1004.43,914.447 1005.75,913.379 1007.05,912.281 1008.33,911.15 1009.57,909.992 "/>
     <polygon id="_332594880" class="fil1" points="1339,1338.25 2474.88,2474.13 2474.88,2487.62 1339,1351.74 "/>
     <polygon id="_332594136" class="fil1" points="510.665,1048.4 1646.55,2184.29 1623.22,2184.29 487.334,1048.4 "/>
     <polygon id="_332594232" class="fil1" points="487.334,1048.4 1623.22,2184.29 1620.83,2184.17 1618.51,2183.81 1616.28,2183.24 1614.13,2182.45 1612.09,2181.47 1610.17,2180.3 1608.37,2178.96 472.491,1043.08 474.287,1044.42 476.211,1045.59 478.251,1046.57 480.395,1047.36 482.631,1047.93 484.948,1048.28 "/>
     <polygon id="_332594256" class="fil1" points="732.865,862.367 1868.75,1998.25 1870.08,1999.65 1871.31,2001.14 735.433,865.257 734.202,863.772 "/>
     <polygon id="_332595360" class="fil1" points="755.669,1338.25 1891.55,2474.13 1891.55,2487.62 755.669,1351.74 "/>
     <polygon id="_332595312" class="fil1" points="709.001,1338.25 1844.88,2474.13 1803.03,2474.13 667.15,1338.25 "/>
     <polygon id="_332595096" class="fil1" points="732.335,1375.07 1868.22,2510.95 1865.83,2510.83 1863.51,2510.48 1861.28,2509.91 1859.13,2509.12 1857.09,2508.14 1855.17,2506.97 1853.37,2505.63 717.492,1369.74 719.288,1371.09 721.212,1372.26 723.252,1373.24 725.396,1374.02 727.632,1374.6 729.949,1374.95 "/>
     <polygon id="_332595528" class="fil1" points="755.669,1351.74 1891.55,2487.62 1891.43,2490.01 1891.08,2492.32 1890.5,2494.56 1889.72,2496.7 1888.73,2498.74 1887.56,2500.67 1886.22,2502.46 1884.71,2504.12 1883.06,2505.63 1881.26,2506.97 1879.34,2508.14 1877.3,2509.12 1875.15,2509.91 1872.92,2510.48 1870.6,2510.83 1868.22,2510.95 732.335,1375.07 734.721,1374.95 737.037,1374.6 739.273,1374.02 741.417,1373.24 743.456,1372.26 745.38,1371.09 747.177,1369.74 748.834,1368.24 750.34,1366.58 751.684,1364.78 752.852,1362.86 753.834,1360.82 754.62,1358.68 755.195,1356.44 755.548,1354.12 "/>
     <polygon id="_332595552" class="fil1" points="667.15,1338.25 1803.03,2474.13 1799.01,2474.08 1795.01,2473.92 1791.03,2473.67 1787.08,2473.32 1783.16,2472.87 1779.27,2472.32 1775.41,2471.67 1771.58,2470.94 1767.79,2470.11 1764.02,2469.18 1760.3,2468.17 1756.61,2467.07 1752.96,2465.87 1749.35,2464.6 1745.78,2463.23 1742.25,2461.79 1738.76,2460.25 1735.32,2458.64 1731.92,2456.95 1728.58,2455.18 1725.27,2453.33 1722.02,2451.4 1718.82,2449.4 1715.67,2447.32 1712.58,2445.17 1709.53,2442.95 1706.55,2440.66 1703.62,2438.29 1700.75,2435.86 564.866,1299.98 567.737,1302.41 570.667,1304.77 573.654,1307.07 576.695,1309.29 579.792,1311.44 582.941,1313.51 586.141,1315.52 589.393,1317.44 592.694,1319.29 596.044,1321.07 599.439,1322.76 602.881,1324.37 606.368,1325.9 609.897,1327.35 613.467,1328.71 617.079,1329.99 620.73,1331.18 624.419,1332.29 628.144,1333.3 631.906,1334.22 635.7,1335.05 639.53,1335.79 643.389,1336.44 647.281,1336.98 651.201,1337.44 655.15,1337.79 659.124,1338.04 663.125,1338.2 "/>
     <polygon id="_332595576" class="fil1" points="735.433,865.257 1871.31,2001.14 1872.29,2002.34 1873.22,2003.59 1874.09,2004.87 1874.91,2006.19 1875.67,2007.55 1876.37,2008.94 1877.02,2010.36 1877.6,2011.82 1878.12,2013.3 1878.58,2014.81 1878.97,2016.34 1879.29,2017.9 1879.55,2019.48 1879.73,2021.08 1879.84,2022.71 1879.88,2024.34 744.001,888.461 743.963,886.823 743.852,885.201 743.668,883.6 743.412,882.02 743.089,880.461 742.698,878.925 742.241,877.417 741.719,875.935 741.135,874.482 740.49,873.059 739.786,871.668 739.025,870.312 738.206,868.991 737.334,867.707 736.41,866.462 "/>
     <polygon id="_332595168" class="fil1" points="744.001,888.461 1879.88,2024.34 1879.88,2024.55 1879.88,2024.75 1879.87,2024.95 1879.87,2025.15 1879.86,2025.35 1879.85,2025.55 1879.84,2025.75 1879.83,2025.95 743.945,890.064 743.958,889.866 743.97,889.666 743.979,889.466 743.986,889.266 743.993,889.066 743.997,888.864 743.999,888.663 "/>
     <polygon id="_332595192" class="fil1" points="743.945,890.064 1879.83,2025.95 1879.57,2028.19 1879.1,2030.36 1878.43,2032.46 1877.58,2034.46 1876.55,2036.37 1875.36,2038.16 1874,2039.83 1872.51,2041.36 1870.88,2042.76 1869.12,2044 1867.25,2045.08 1865.28,2045.99 1863.21,2046.71 1861.06,2047.24 1858.83,2047.57 1856.55,2047.68 720.667,911.795 722.953,911.684 725.179,911.359 727.329,910.83 729.397,910.106 731.371,909.2 733.242,908.12 734.997,906.877 736.628,905.482 738.123,903.944 739.475,902.274 740.669,900.484 741.697,898.581 742.55,896.578 743.215,894.483 743.684,892.308 "/>
     <polygon id="_332596200" class="fil1" points="700.036,899.369 1835.92,2035.25 1833.54,2035.46 1831.18,2035.72 1828.83,2036.04 1826.5,2036.41 1824.19,2036.83 1821.9,2037.3 1819.62,2037.82 1817.36,2038.39 1815.12,2039.01 1812.9,2039.68 1810.71,2040.4 1808.53,2041.17 1806.37,2041.98 1804.24,2042.84 1802.13,2043.74 1800.05,2044.69 1797.99,2045.69 1795.95,2046.72 1793.94,2047.81 1791.96,2048.93 1790,2050.09 1788.07,2051.3 1786.17,2052.55 1784.3,2053.83 1782.46,2055.16 1780.64,2056.53 1778.86,2057.93 1777.11,2059.37 1775.39,2060.85 1773.7,2062.36 1772.05,2063.92 1770.43,2065.5 634.55,929.618 636.169,928.033 637.823,926.482 639.51,924.968 641.229,923.49 642.98,922.048 644.762,920.645 646.575,919.28 648.419,917.952 650.291,916.665 652.192,915.418 654.121,914.212 656.078,913.046 658.061,911.923 660.071,910.842 662.106,909.804 664.167,908.811 666.252,907.861 668.362,906.956 670.493,906.098 672.648,905.285 674.825,904.52 677.023,903.801 679.241,903.131 681.48,902.509 683.738,901.938 686.014,901.416 688.309,900.944 690.623,900.524 692.952,900.157 695.298,899.84 697.66,899.578 "/>
     <polygon id="_332595936" class="fil1" points="720.667,911.795 1856.55,2047.68 1855.31,2047.65 1854.09,2047.55 1852.88,2047.39 1851.7,2047.17 1850.53,2046.89 1849.4,2046.56 1848.28,2046.17 1847.19,2045.73 1846.13,2045.23 1845.1,2044.68 1844.11,2044.09 1843.14,2043.44 1842.21,2042.75 1841.32,2042.02 1840.46,2041.24 704.578,905.358 705.434,906.134 706.329,906.869 707.26,907.559 708.225,908.203 709.223,908.8 710.253,909.347 711.312,909.843 712.4,910.288 713.514,910.678 714.653,911.012 715.816,911.29 716.999,911.508 718.204,911.666 719.427,911.763 "/>
     <polygon id="_332596008" class="fil1" points="634.55,929.618 1770.43,2065.5 1768.71,2067.26 1767.03,2069.06 1765.4,2070.9 1763.8,2072.78 1762.25,2074.7 1760.75,2076.65 1759.29,2078.63 1757.87,2080.66 1756.51,2082.71 1755.19,2084.8 1753.92,2086.93 1752.7,2089.08 1751.53,2091.27 1750.41,2093.48 1749.34,2095.73 1748.33,2098 1747.36,2100.3 1746.46,2102.63 1745.6,2104.99 1744.81,2107.37 1744.07,2109.77 1743.39,2112.2 1742.76,2114.65 1742.19,2117.12 1741.69,2119.62 1741.24,2122.14 1740.86,2124.67 1740.54,2127.23 1740.28,2129.8 1740.09,2132.39 1739.96,2135 1739.89,2137.62 604.009,1001.74 604.074,999.113 604.204,996.506 604.399,993.916 604.658,991.344 604.979,988.789 605.363,986.253 605.808,983.737 606.313,981.242 606.879,978.768 607.504,976.316 608.187,973.888 608.926,971.483 609.723,969.104 610.575,966.748 611.483,964.42 612.445,962.118 613.459,959.845 614.527,957.6 615.647,955.384 616.816,953.199 618.037,951.044 619.307,948.922 620.626,946.831 621.993,944.775 623.405,942.752 624.865,940.764 626.371,938.813 627.921,936.897 629.514,935.019 631.151,933.18 632.829,931.379 "/>
     <polygon id="_332596056" class="fil1" points="1292.33,1338.25 2428.21,2474.13 1891.55,2474.13 755.669,1338.25 "/>
     <polygon id="_332595888" class="fil1" points="1339,1351.74 2474.88,2487.62 2474.76,2490.01 2474.41,2492.32 2473.83,2494.56 2473.05,2496.7 2472.07,2498.74 2470.9,2500.67 2469.55,2502.46 2468.05,2504.12 2466.39,2505.63 2464.59,2506.97 2462.67,2508.14 2460.63,2509.12 2458.49,2509.91 2456.25,2510.48 2453.93,2510.83 2451.55,2510.95 1315.67,1375.07 1318.05,1374.95 1320.37,1374.6 1322.61,1374.02 1324.75,1373.24 1326.79,1372.26 1328.71,1371.09 1330.51,1369.74 1332.17,1368.24 1333.67,1366.58 1335.02,1364.78 1336.18,1362.86 1337.17,1360.82 1337.95,1358.68 1338.53,1356.44 1338.88,1354.12 "/>
     <polygon id="_332596152" class="fil1" points="1315.67,1375.07 2451.55,2510.95 2449.16,2510.83 2446.85,2510.48 2444.61,2509.91 2442.46,2509.12 2440.43,2508.14 2438.5,2506.97 2436.71,2505.63 2435.05,2504.12 1299.17,1368.24 1300.82,1369.74 1302.62,1371.09 1304.55,1372.26 1306.58,1373.24 1308.73,1374.02 1310.96,1374.6 1313.28,1374.95 "/>
     <polygon id="_332596392" class="fil1" points="1021.59,740.097 2157.47,1875.98 2155.74,1875.94 2154.04,1875.81 2152.36,1875.59 2150.71,1875.3 2149.08,1874.92 2147.49,1874.47 2145.93,1873.94 2144.4,1873.34 2142.91,1872.67 2141.46,1871.93 2140.06,1871.12 2138.7,1870.24 2137.38,1869.31 2136.11,1868.31 2134.89,1867.25 2133.72,1866.14 997.843,730.26 999.01,731.372 1000.23,732.427 1001.5,733.425 1002.81,734.36 1004.18,735.234 1005.58,736.043 1007.03,736.785 1008.52,737.457 1010.04,738.058 1011.61,738.588 1013.2,739.04 1014.82,739.414 1016.48,739.71 1018.16,739.923 1019.86,740.053 "/>
     <polygon id="_332595672" class="fil1" points="1055.18,706.512 2191.06,1842.39 2191.02,1844.12 2190.89,1845.83 2190.67,1847.51 2190.38,1849.16 2190,1850.79 2189.55,1852.38 2189.02,1853.94 2188.42,1855.47 2187.75,1856.95 2187,1858.4 2186.19,1859.81 2185.32,1861.17 2184.39,1862.49 2183.39,1863.76 2182.33,1864.98 2181.22,1866.14 1045.34,730.26 1046.45,729.094 1047.51,727.875 1048.5,726.606 1049.44,725.29 1050.31,723.927 1051.12,722.52 1051.86,721.072 1052.54,719.585 1053.14,718.059 1053.67,716.499 1054.12,714.905 1054.49,713.28 1054.79,711.627 1055,709.946 1055.13,708.24 "/>
     <polygon id="_332595792" class="fil1" points="1158.84,797.505 2294.72,1933.39 2294.66,1935.78 2294.48,1938.14 2294.19,1940.46 2293.78,1942.75 2293.26,1945 2292.63,1947.2 2291.9,1949.36 2291.07,1951.47 2290.14,1953.53 2289.11,1955.53 2288,1957.47 2286.79,1959.36 2285.49,1961.18 2284.11,1962.94 2282.65,1964.62 2281.11,1966.23 1145.23,830.352 1146.77,828.739 1148.23,827.053 1149.61,825.298 1150.91,823.477 1152.11,821.592 1153.23,819.647 1154.26,817.644 1155.19,815.586 1156.02,813.477 1156.75,811.318 1157.38,809.114 1157.9,806.866 1158.31,804.578 1158.6,802.254 1158.78,799.895 "/>
     <polygon id="_332595840" class="fil1" points="1145.23,830.352 2281.11,1966.23 2279.5,1967.77 2277.82,1969.23 2276.06,1970.61 2274.24,1971.91 2272.35,1973.12 2270.41,1974.23 2268.41,1975.26 2266.35,1976.19 2264.24,1977.02 2262.08,1977.75 2259.88,1978.38 2257.63,1978.9 2255.34,1979.31 2253.02,1979.6 2250.66,1979.78 2248.27,1979.84 1112.39,843.96 1114.78,843.899 1117.13,843.72 1119.46,843.425 1121.75,843.016 1123.99,842.497 1126.2,841.87 1128.36,841.14 1130.47,840.309 1132.52,839.378 1134.53,838.352 1136.47,837.233 1138.36,836.025 1140.18,834.729 1141.93,833.351 1143.62,831.89 "/>
     <polygon id="_332596656" class="fil1" points="1146.77,766.27 2282.65,1902.15 2284.11,1903.84 2285.49,1905.59 2286.79,1907.41 2288,1909.3 2289.11,1911.24 2290.14,1913.25 2291.07,1915.31 2291.9,1917.41 2292.63,1919.57 2293.26,1921.78 2293.78,1924.03 2294.19,1926.31 2294.48,1928.64 2294.66,1931 2294.72,1933.39 1158.84,797.505 1158.78,795.114 1158.6,792.755 1158.31,790.431 1157.9,788.143 1157.38,785.895 1156.75,783.692 1156.02,781.532 1155.19,779.423 1154.26,777.366 1153.23,775.362 1152.11,773.417 1150.91,771.532 1149.61,769.711 1148.23,767.956 "/>
     <polygon id="_332596440" class="fil1" points="1112.39,843.96 2248.27,1979.84 2245.88,1979.78 2243.52,1979.6 2241.19,1979.31 2238.91,1978.9 2236.66,1978.38 2234.45,1977.75 2232.29,1977.02 2230.19,1976.19 2228.13,1975.26 2226.12,1974.23 2224.18,1973.12 2222.29,1971.91 2220.47,1970.61 2218.72,1969.23 2217.03,1967.77 2215.42,1966.23 1079.54,830.352 1081.15,831.89 1082.84,833.351 1084.59,834.729 1086.41,836.025 1088.3,837.233 1090.24,838.352 1092.25,839.378 1094.3,840.309 1096.41,841.14 1098.57,841.87 1100.78,842.497 1103.02,843.016 1105.31,843.425 1107.64,843.72 1109.99,843.899 "/>
     <polygon id="_332596920" class="fil1" points="1537.34,1181.76 2673.22,2317.64 2673.18,2321.21 2673.06,2324.76 2672.86,2328.3 2672.58,2331.81 2672.22,2335.3 2671.79,2338.76 2671.28,2342.21 2670.7,2345.63 2670.04,2349.02 2669.31,2352.39 2668.51,2355.73 2667.63,2359.04 2666.69,2362.33 2665.67,2365.58 2664.59,2368.81 2663.44,2372 2662.22,2375.16 2660.93,2378.29 2659.58,2381.39 2658.17,2384.45 2656.69,2387.47 2655.15,2390.46 2653.54,2393.41 2651.88,2396.32 2650.15,2399.2 2648.37,2402.03 2646.53,2404.82 2644.63,2407.57 2642.67,2410.28 2640.66,2412.95 2638.6,2415.57 2636.48,2418.14 1500.59,1282.26 1502.71,1279.68 1504.78,1277.06 1506.79,1274.4 1508.75,1271.69 1510.65,1268.94 1512.49,1266.15 1514.27,1263.31 1516,1260.44 1517.66,1257.53 1519.26,1254.58 1520.81,1251.59 1522.29,1248.56 1523.7,1245.5 1525.05,1242.41 1526.34,1239.28 1527.55,1236.12 1528.71,1232.92 1529.79,1229.7 1530.8,1226.44 1531.75,1223.16 1532.62,1219.85 1533.43,1216.5 1534.16,1213.14 1534.82,1209.74 1535.4,1206.32 1535.91,1202.88 1536.34,1199.41 1536.7,1195.92 1536.97,1192.41 1537.18,1188.88 1537.3,1185.33 "/>
     <polygon id="_332596800" class="fil1" points="1537.34,1062.72 2673.22,2198.61 2673.22,2317.64 1537.34,1181.76 "/>
     <polygon id="_332596608" class="fil1" points="1491.39,1292.3 2627.27,2428.18 2624.58,2430.81 2621.83,2433.37 2619.02,2435.86 2616.14,2438.29 2613.21,2440.66 2610.23,2442.95 2607.19,2445.17 2604.09,2447.32 2600.94,2449.4 2597.74,2451.4 2594.49,2453.33 2591.19,2455.18 2587.84,2456.95 2584.44,2458.64 2581,2460.25 2577.51,2461.79 2573.99,2463.23 2570.41,2464.6 2566.8,2465.87 2563.15,2467.07 2559.46,2468.17 2555.74,2469.18 2551.98,2470.11 2548.18,2470.94 2544.35,2471.67 2540.49,2472.32 2536.6,2472.87 2532.68,2473.32 2528.73,2473.67 2524.76,2473.92 2520.76,2474.08 2516.73,2474.13 1380.85,1338.25 1384.88,1338.2 1388.88,1338.04 1392.85,1337.79 1396.8,1337.44 1400.72,1336.98 1404.61,1336.44 1408.47,1335.79 1412.3,1335.05 1416.1,1334.22 1419.86,1333.3 1423.58,1332.29 1427.27,1331.18 1430.92,1329.99 1434.53,1328.71 1438.1,1327.35 1441.63,1325.9 1445.12,1324.37 1448.56,1322.76 1451.96,1321.07 1455.31,1319.29 1458.61,1317.44 1461.86,1315.52 1465.06,1313.51 1468.21,1311.44 1471.31,1309.29 1474.35,1307.07 1477.33,1304.77 1480.26,1302.41 1483.13,1299.98 1485.95,1297.49 1488.7,1294.92 "/>
     <polygon id="_332596488" class="fil1" points="960.659,929.57 2096.54,2065.45 2094.71,2065.43 2092.89,2065.36 2091.09,2065.25 2089.29,2065.09 2087.51,2064.88 2085.74,2064.63 2083.99,2064.34 2082.25,2064.01 2080.53,2063.64 2078.82,2063.22 2077.13,2062.76 2075.46,2062.26 2073.8,2061.73 2072.16,2061.15 2070.54,2060.53 2068.94,2059.88 2067.36,2059.19 2065.8,2058.46 2064.26,2057.69 2062.75,2056.89 2061.25,2056.06 2059.78,2055.19 2058.33,2054.28 2056.9,2053.34 2055.5,2052.37 2054.12,2051.37 2052.77,2050.33 2051.44,2049.26 2050.14,2048.16 2048.87,2047.03 2047.63,2045.87 2046.41,2044.69 910.528,908.803 911.744,909.992 912.99,911.15 914.263,912.281 915.563,913.379 916.889,914.447 918.242,915.484 919.619,916.489 921.021,917.461 922.448,918.4 923.897,919.305 925.371,920.175 926.866,921.011 928.384,921.812 929.923,922.577 931.483,923.306 933.063,923.997 934.664,924.651 936.283,925.267 937.921,925.844 939.577,926.382 941.251,926.88 942.942,927.337 944.649,927.754 946.372,928.129 948.109,928.462 949.862,928.752 951.63,929 953.41,929.203 955.204,929.363 957.01,929.477 958.829,929.546 "/>
     <polygon id="_332596536" class="fil1" points="1380.85,1338.25 2516.73,2474.13 2474.88,2474.13 1339,1338.25 "/>
     <polygon id="_332596992" class="fil1" points="1500.59,1282.26 2636.48,2418.14 2635.37,2419.44 2634.25,2420.73 2633.12,2422 2631.98,2423.26 2630.82,2424.51 2629.65,2425.75 2628.47,2426.97 2627.27,2428.18 1491.39,1292.3 1492.58,1291.09 1493.77,1289.86 1494.94,1288.63 1496.1,1287.38 1497.24,1286.12 1498.37,1284.84 1499.49,1283.56 "/>
    </g>
    <path id="_451271960" class="fil1" d="M604.009 1001.74l956.657 0c12.887,0 23.3351,10.448 23.3351,23.3339 0,12.887 -10.448,23.3339 -23.3351,23.3339l-23.3303 0 0 14.3197 0 119.037c0,38.1803 -13.8378,73.2721 -36.7418,100.498 -2.92559,3.47717 -5.99646,6.82796 -9.20788,10.0382 -28.3512,28.3512 -67.4776,45.9496 -110.536,45.9496l-41.85 0 0 13.4917c0,12.8858 -10.4469,23.3339 -23.3339,23.3339 -12.8858,0 -23.3339,-10.448 -23.3339,-23.3339l0 -13.4917 -536.664 0 0 13.4917c0,12.8858 -10.448,23.3339 -23.3339,23.3339 -12.887,0 -23.3339,-10.448 -23.3339,-23.3339l0 -13.4917 -41.8512 0c-43.0571,0 -82.1835,-17.5984 -110.536,-45.9496 -3.21024,-3.21024 -6.28111,-6.56103 -9.20788,-10.037 -22.9028,-27.2256 -36.7406,-62.3186 -36.7406,-100.499l0 -119.037 0 -14.3197 -23.3315 0c-12.887,0 -23.3351,-10.4469 -23.3351,-23.3339 0,-12.8858 10.448,-23.3339 23.3351,-23.3339l70.004 0c0.34252,-40.9394 17.2099,-78.1064 44.217,-105.113 27.2858,-27.2847 64.9441,-44.2217 106.384,-44.2217 10.0831,0 21.2256,4.71496 27.4937,12.8563 5.33977,6.31536 8.56772,14.4225 8.56772,23.204 0,0.538583 -0.0177165,1.07362 -0.0555119,1.60276 -0.822048,12.1394 -10.9311,21.7311 -23.2784,21.7311 -6.65434,0 -12.6555,-2.78622 -16.9063,-7.25552 -1.46457,-1.53898 -2.72126,-3.27756 -3.72402,-5.17087 -25.4303,1.93937 -48.391,13.1551 -65.4863,30.2492 -18.5693,18.5693 -30.1996,44.0599 -30.541,72.1182zm441.33 -271.477c-6.07678,6.07796 -14.4744,9.83741 -23.7473,9.83741 -9.27284,0 -17.6705,-3.75945 -23.7484,-9.83741 -6.07678,-6.07796 -9.83623,-14.4732 -9.83623,-23.7473 0,-9.27402 3.75945,-17.6705 9.83623,-23.7484 6.07796,-6.07678 14.4756,-9.83623 23.7484,-9.83623 9.27402,0 17.6705,3.75827 23.7473,9.83623 6.07796,6.07796 9.83859,14.4744 9.83859,23.7484 0,9.27284 -3.76063,17.6705 -9.83859,23.7473zm113.502 67.2449c0,12.8268 -5.20158,24.4418 -13.6075,32.8477 -8.40591,8.40709 -20.0209,13.6075 -32.8477,13.6075 -12.8268,0 -24.4418,-5.2004 -32.8477,-13.6075 -8.40709,-8.40709 -13.6063,-20.0209 -13.6063,-32.8477 0,-12.8268 5.2004,-24.4418 13.6063,-32.8477 8.40591,-8.40591 20.0209,-13.6075 32.8477,-13.6075 12.8268,0 24.4418,5.20158 32.8477,13.6075 8.40591,8.40591 13.6075,20.0209 13.6075,32.8477zm-127.286 61.1682c0,19.5744 -7.93701,37.3016 -20.7662,50.1307 -12.8291,12.8291 -30.5551,20.7662 -50.1296,20.7662 -19.5756,0 -37.3004,-7.93701 -50.1307,-20.7662 -12.8291,-12.8303 -20.7662,-30.554 -20.7662,-50.1307 0,-19.5756 7.93701,-37.3004 20.7662,-50.1296 12.8303,-12.8291 30.5551,-20.7662 50.1307,-20.7662 19.5756,0 37.2992,7.93583 50.1296,20.7662 12.8291,12.8291 20.7662,30.554 20.7662,50.1296z"/>
   </g>
  </g>
  <path class="fil2" d="M1024 -0.0011811c565.539,0 1024,458.462 1024,1024 0,565.539 -458.462,1024 -1024,1024 -565.539,0 -1024,-458.462 -1024,-1024 0,-565.539 458.462,-1024 1024,-1024z"/>
  <path class="fil3" d="M755.669 1328.4c0,-12.887 -10.448,-23.3351 -23.3339,-23.3351 -12.887,0 -23.3339,10.448 -23.3339,23.3351l0 23.3339c0,12.8858 10.4469,23.3339 23.3339,23.3339 12.8858,0 23.3339,-10.448 23.3339,-23.3339l0 -23.3339z"/>
  <path class="fil3" d="M1339 1328.4c0,-12.887 -10.4469,-23.3351 -23.3339,-23.3351 -12.8858,0 -23.3339,10.448 -23.3339,23.3351l0 23.3339c0,12.8858 10.448,23.3339 23.3339,23.3339 12.887,0 23.3339,-10.448 23.3339,-23.3339l0 -23.3339z"/>
  <path class="fil4" d="M557.333 1025.07c0,12.887 10.4469,23.3339 23.3339,23.3339 12.8858,0 23.3339,-10.4469 23.3339,-23.3339l0 -22.063c0,-28.5591 11.7,-54.5398 30.5492,-73.389 17.0953,-17.0941 40.0559,-28.3099 65.4863,-30.2492 3.91536,7.39016 11.6847,12.4264 20.6303,12.4264 12.8858,0 23.3339,-10.4469 23.3339,-23.3339 0,-8.7815 -3.22796,-16.8886 -8.56772,-23.204 -6.26812,-8.14134 -17.4106,-12.8563 -27.4937,-12.8563 -41.4402,0 -79.0985,16.937 -106.384,44.2217 -27.2858,27.2858 -44.2217,64.9441 -44.2217,106.384l0 22.063z"/>
  <path class="fil5" d="M703.76 904.54c4.25079,4.46929 10.252,7.25552 16.9063,7.25552 12.3473,0 22.454,-9.59174 23.2784,-21.7311 -5.74843,-1.47165 -14.941,-0.390945 -23.987,3.22323 -7.72205,3.08386 -13.5567,7.30276 -16.1977,11.2524z"/>
  <path class="fil6" d="M1045.34 730.26c-6.07678,6.07796 -14.4744,9.83741 -23.7473,9.83741 -9.27284,0 -17.6705,-3.75945 -23.7484,-9.83741 -6.07678,-6.07796 -9.83623,-14.4732 -9.83623,-23.7473 0,-9.27402 3.75945,-17.6705 9.83623,-23.7484 6.07796,-6.07678 14.4756,-9.83623 23.7484,-9.83623 9.27402,0 17.6705,3.75827 23.7473,9.83623 6.07796,6.07796 9.83859,14.4744 9.83859,23.7484 0,9.27284 -3.76063,17.6705 -9.83859,23.7473z"/>
  <path class="fil7" d="M533.999 1008.26l980.003 0c12.8858,0 23.3339,10.4469 23.3339,23.3339l0 150.169c0,43.0571 -17.5984,82.1859 -45.9496,110.536 -28.3512,28.3512 -67.4776,45.9496 -110.536,45.9496l-713.701 0c-43.0571,0 -82.1835,-17.5984 -110.536,-45.9496 -28.35,-28.35 -45.9485,-67.4788 -45.9485,-110.536l0 -150.169c0,-12.887 10.448,-23.3339 23.3339,-23.3339z"/>
  <path class="fil8" d="M1500.59 1282.26c-2.92559,3.47717 -5.99646,6.82796 -9.20788,10.0382 -28.3512,28.3512 -67.4776,45.9496 -110.536,45.9496l-713.701 0c-43.0571,0 -82.1835,-17.5984 -110.536,-45.9496 -3.21024,-3.21024 -6.28111,-6.56103 -9.2067,-10.0382l953.187 0z"/>
  <path class="fil8" d="M1537.2 1029.08c0.0874016,0.595276 0.135827,1.19882 0.135827,1.81063l0 31.8331 -1026.67 0 0 -31.8331c0,-0.611811 0.0472441,-1.21536 0.135827,-1.81063l1026.4 0z"/>
  <path class="fil9" d="M487.334 1001.74c-12.887,0 -23.3351,10.448 -23.3351,23.3339 0,12.887 10.448,23.3339 23.3351,23.3339l1073.33 0c12.887,0 23.3351,-10.4469 23.3351,-23.3339 0,-12.8858 -10.448,-23.3339 -23.3351,-23.3339l-1073.33 0z"/>
  <path class="fil10" d="M1010.79 908.803c-12.8291,12.8291 -30.5551,20.7662 -50.1296,20.7662 -19.5756,0 -37.3004,-7.93701 -50.1307,-20.7662 -12.8291,-12.8303 -20.7662,-30.554 -20.7662,-50.1307 0,-19.5756 7.93701,-37.3004 20.7662,-50.1296 12.8303,-12.8291 30.5551,-20.7662 50.1307,-20.7662 19.5756,0 37.2992,7.93583 50.1296,20.7662 12.8291,12.8291 20.7662,30.554 20.7662,50.1296 0,19.5744 -7.93701,37.3016 -20.7662,50.1307z"/>
  <path class="fil6" d="M1145.23 830.352c-8.40591,8.40709 -20.0209,13.6075 -32.8477,13.6075 -12.8268,0 -24.4418,-5.2004 -32.8477,-13.6075 -8.40709,-8.40709 -13.6063,-20.0209 -13.6063,-32.8477 0,-12.8268 5.2004,-24.4418 13.6063,-32.8477 8.40591,-8.40591 20.0209,-13.6075 32.8477,-13.6075 12.8268,0 24.4418,5.20158 32.8477,13.6075 8.40591,8.40591 13.6075,20.0209 13.6075,32.8477 0,12.8268 -5.20158,24.4418 -13.6075,32.8477z"/>
  <path class="fil11" d="M1219.08 1240.6c-4.54725,0 -8.23465,3.68622 -8.23465,8.23465 0,4.54725 3.6874,8.23465 8.23465,8.23465l162.167 0c22.5591,0 43.0973,-9.25985 57.991,-24.1536 14.8925,-14.8925 24.1536,-35.4319 24.1536,-57.991l0 -88.4528c0,-4.54843 -3.6874,-8.23583 -8.23465,-8.23583 -4.54843,0 -8.23583,3.6874 -8.23583,8.23583l0 88.4528c0,18.013 -7.41024,34.4303 -19.3264,46.3477 -11.9173,11.9173 -28.3347,19.3276 -46.3477,19.3276l-162.167 0z"/>
  <path class="fil12" d="M1021.59 685.887c1.23425,0 2.23465,-1.00039 2.23465,-2.23465 0,-1.23425 -1.00039,-2.23465 -2.23465,-2.23465 -3.38504,0 -6.62481,0.677953 -9.58938,1.90512 -3.07559,1.27441 -5.83937,3.13701 -8.14725,5.4437l1.57087 1.58032 -1.57914 -1.58032c-0.0437008,0.0437008 -0.0850394,0.0897638 -0.124016,0.134646 -2.25118,2.28307 -4.07008,5.00079 -5.31969,8.02205 -1.22835,2.96457 -1.9063,6.20434 -1.9063,9.58938 0,1.23425 1.00039,2.23465 2.23465,2.23465 1.23425,0 2.23465,-1.00039 2.23465,-2.23465 0,-2.80748 0.553937,-5.47559 1.55669,-7.89686 1.02284,-2.46851 2.51693,-4.70079 4.37008,-6.58347l0.112205 -0.103937 -0.00354331 -0.00472441 0 -0.0011811c1.90512,-1.90394 4.17638,-3.43583 6.69449,-4.47874 2.42008,-1.00276 5.08701,-1.55669 7.89568,-1.55669z"/>
  <path class="fil12" d="M960.659 815.134c2.60433,0 4.71733,-2.11181 4.71733,-4.71615 0,-2.60551 -2.11299,-4.71851 -4.71733,-4.71851 -7.14567,0 -13.9854,1.43268 -20.2441,4.02402 -6.49134,2.68819 -12.3248,6.62008 -17.1969,11.491l3.31654 3.33425 -3.33544 -3.33544c-0.090945,0.0921261 -0.178347,0.187795 -0.261024,0.284646 -4.7504,4.8189 -8.58898,10.5579 -11.2299,16.9323 -2.59134,6.25867 -4.02402,13.0984 -4.02402,20.2429 0,2.60551 2.11299,4.71851 4.71851,4.71851 2.60433,0 4.71615,-2.11299 4.71615,-4.71851 0,-5.92678 1.16929,-11.5571 3.28583,-16.6689 2.15906,-5.20985 5.31496,-9.92481 9.2256,-13.8969l0.238583 -0.223229 -0.00826772 -0.00826772 0 -0.0011811c4.02166,-4.01929 8.81575,-7.25316 14.1284,-9.45473 5.11181,-2.11654 10.7421,-3.28583 16.6701,-3.28583z"/>
  <path class="fil12" d="M1112.39 768.976c1.70669,0 3.09213,-1.38425 3.09213,-3.09095 0,-1.70669 -1.38543,-3.09095 -3.09213,-3.09095 -4.68189,0 -9.163,0.937796 -13.2638,2.63622 -4.25433,1.76102 -8.07638,4.33819 -11.2689,7.52953l2.17323 2.18504 -2.18504 -2.18622c-0.0602363,0.0590552 -0.11811,0.122835 -0.17126,0.186614 -3.11339,3.15709 -5.62914,6.91772 -7.35827,11.0941 -1.69843,4.10197 -2.63622,8.58308 -2.63622,13.265 0,1.70669 1.38307,3.09095 3.09095,3.09095 1.70669,0 3.09095,-1.38425 3.09095,-3.09095 0,-3.88347 0.765355,-7.57323 2.15197,-10.9217 1.41496,-3.41457 3.48189,-6.50434 6.04489,-9.10631l0.155906 -0.146457 -0.00472441 -0.00590552 0 0c2.63504,-2.63386 5.77678,-4.75394 9.25867,-6.19489 3.34843,-1.3878 7.03819,-2.15315 10.9217,-2.15315z"/>
 </g>
</svg>
