<?xml version="1.0" encoding="UTF-8"?>
<!DOCTYPE svg PUBLIC "-//W3C//DTD SVG 1.1//EN" "http://www.w3.org/Graphics/SVG/1.1/DTD/svg11.dtd">
<!-- Creator: CorelDRAW -->
<svg xmlns="http://www.w3.org/2000/svg" xml:space="preserve" width="2048px" height="2048px" style="shape-rendering:geometricPrecision; text-rendering:geometricPrecision; image-rendering:optimizeQuality; fill-rule:evenodd; clip-rule:evenodd"
viewBox="0 0 2048 2048"
 xmlns:xlink="http://www.w3.org/1999/xlink">
 <defs>
  <style type="text/css">
   <![CDATA[
    .fil2 {fill:none}
    .fil5 {fill:#01579B}
    .fil3 {fill:#0277BD}
    .fil1 {fill:#689F38}
    .fil0 {fill:#9CCC65}
    .fil4 {fill:#E6EE9C}
   ]]>
  </style>
   <clipPath id="id0">
    <path d="M1024 0c565.539,0 1024,458.461 1024,1024 0,565.539 -458.461,1024 -1024,1024 -565.539,0 -1024,-458.461 -1024,-1024 0,-565.539 458.461,-1024 1024,-1024z"/>
   </clipPath>
 </defs>
 <g id="Layer_x0020_1">
  <metadata id="CorelCorpID_0Corel-Layer"/>
  <path class="fil0" d="M1024 0c565.539,0 1024,458.461 1024,1024 0,565.539 -458.461,1024 -1024,1024 -565.539,0 -1024,-458.461 -1024,-1024 0,-565.539 458.461,-1024 1024,-1024z"/>
  <g style="clip-path:url(#id0)">
   <g id="_341189416">
    <g>
     <polygon id="_4558200641" class="fil1" points="1514.12,660.774 2650,1796.66 2652.38,1799.49 2654.72,1802.35 2657.03,1805.23 2659.3,1808.15 2661.53,1811.08 2663.72,1814.04 2665.88,1817.03 2668,1820.05 2670.08,1823.08 2672.12,1826.15 2674.12,1829.24 2676.09,1832.36 2678.01,1835.5 2679.9,1838.67 2681.75,1841.86 2683.55,1845.08 2685.32,1848.32 2687.05,1851.59 2688.73,1854.89 2690.37,1858.21 2691.98,1861.56 2693.54,1864.93 2695.06,1868.33 2696.53,1871.75 2697.97,1875.2 1562.09,739.322 1560.65,735.872 1559.18,732.447 1557.66,729.048 1556.1,725.676 1554.49,722.327 1552.85,719.006 1551.17,715.71 1549.44,712.44 1547.67,709.196 1545.87,705.976 1544.02,702.784 1542.13,699.616 1540.21,696.474 1538.24,693.358 1536.24,690.267 1534.2,687.202 1532.12,684.164 1530,681.151 1527.84,678.162 1525.65,675.2 1523.41,672.264 1521.15,669.352 1518.84,666.468 1516.5,663.608 "/>
     <polygon id="_455820136" class="fil1" points="1562.09,739.322 2697.97,1875.2 2699.37,1878.7 2700.72,1882.21 2702.02,1885.73 2703.27,1889.26 2704.47,1892.8 2705.63,1896.36 2706.74,1899.92 2707.8,1903.49 2708.82,1907.08 2709.78,1910.68 2710.7,1914.28 2711.58,1917.9 2712.41,1921.52 2713.19,1925.15 2713.93,1928.8 2714.62,1932.45 2715.27,1936.11 2715.87,1939.77 2716.44,1943.45 2716.95,1947.13 2717.43,1950.82 2717.86,1954.52 2718.25,1958.23 2718.59,1961.94 2718.9,1965.66 2719.16,1969.39 2719.38,1973.12 2719.56,1976.86 2719.7,1980.6 2719.8,1984.35 2719.86,1988.1 2719.88,1991.86 1584,855.98 1583.98,852.22 1583.92,848.466 1583.82,844.717 1583.68,840.974 1583.5,837.236 1583.28,833.505 1583.02,829.778 1582.71,826.059 1582.37,822.347 1581.98,818.64 1581.55,814.942 1581.07,811.251 1580.55,807.568 1579.99,803.892 1579.39,800.223 1578.74,796.564 1578.05,792.914 1577.31,789.271 1576.52,785.637 1575.7,782.013 1574.82,778.398 1573.9,774.793 1572.93,771.198 1571.92,767.612 1570.86,764.038 1569.75,760.473 1568.59,756.919 1567.39,753.377 1566.14,749.846 1564.84,746.326 1563.49,742.818 "/>
     <polygon id="_455820640" class="fil1" points="1584,855.98 2719.88,1991.86 2719.88,2066.55 1584,930.666 "/>
     <polygon id="_455820664" class="fil1" points="1584,930.666 2719.88,2066.55 2719.88,2112.37 1584,976.49 "/>
     <polygon id="_455820856" class="fil1" points="1371.44,845.064 2507.32,1980.95 2466.89,1980.95 1331.01,845.064 "/>
     <polygon id="_455820808" class="fil1" points="717.364,845.064 1853.25,1980.95 1812.44,1980.95 676.561,845.064 "/>
     <polygon id="_455820448" class="fil1" points="853.255,554.141 1989.14,1690.02 1989.94,1695.11 854.062,559.231 "/>
     <polygon id="_455820928" class="fil1" points="676.561,845.064 1812.44,1980.95 1812.44,2066.55 676.561,930.666 "/>
     <polygon id="_455820544" class="fil1" points="854.062,559.231 1989.94,1695.11 1990.52,1698.41 1991.19,1701.68 1991.96,1704.91 1992.82,1708.1 1993.77,1711.26 1994.82,1714.38 1995.95,1717.46 1997.16,1720.5 1998.46,1723.5 1999.84,1726.46 2001.3,1729.37 2002.84,1732.25 2004.46,1735.09 2006.14,1737.88 2007.9,1740.63 2009.73,1743.34 2011.63,1746 2013.6,1748.61 2015.63,1751.18 2017.72,1753.71 2019.87,1756.18 2022.08,1758.61 2024.35,1760.99 888.467,625.11 886.2,622.728 883.988,620.3 881.837,617.823 879.745,615.299 877.716,612.729 875.751,610.114 873.852,607.453 872.022,604.747 870.262,601.999 868.574,599.206 866.959,596.37 865.42,593.493 863.961,590.574 862.58,587.613 861.281,584.613 860.065,581.573 858.935,578.494 857.893,575.376 856.94,572.221 856.079,569.027 855.31,565.798 854.638,562.532 "/>
     <polygon id="_455820976" class="fil1" points="676.561,930.666 1812.44,2066.55 1812.44,2088.41 676.561,952.523 "/>
     <polygon id="_455820568" class="fil1" points="676.561,952.523 1812.44,2088.41 1812.44,2112.37 676.561,976.49 "/>
     <polygon id="_455821096" class="fil1" points="676.561,976.49 1812.44,2112.37 1599.88,2112.37 463.999,976.49 "/>
     <polygon id="_455821288" class="fil1" points="1331.01,1493.86 2466.89,2629.74 1853.25,2629.74 717.364,1493.86 "/>
     <polygon id="_455821312" class="fil1" points="1331.01,845.064 2466.89,1980.95 2466.89,2629.74 1331.01,1493.86 "/>
     <polygon id="_455821768" class="fil1" points="1584,976.49 2719.88,2112.37 2507.32,2112.37 1371.44,976.49 "/>
    </g>
    <path id="_341189968" class="fil1" d="M1199.2 554.141l82.5839 0c40.2414,0 79.6501,6.62126 117.005,21.8327 36.9544,15.0496 69.4075,37.4032 97.5898,65.5855l0.0944883 0.0933072c28.1835,28.1835 50.5394,60.7288 65.6126,97.6702 15.1914,37.2272 21.913,76.5319 21.913,116.658l0 74.6859 0 45.8244 -212.562 0 0 -45.8244 0 -85.6016 -40.428 0 0 648.795 -613.646 0 0 -648.795 -40.8036 0 0 85.6016 0 21.8575 0 23.9669 -212.562 0 0 -23.9669 0 -21.8575 0 -74.6859c0,-40.2969 6.92008,-79.6784 22.5638,-116.909 15.5965,-37.1209 38.7721,-69.5162 67.6028,-97.5154 28.9217,-28.0878 62.0115,-50.4827 99.4678,-65.5524 37.5237,-15.098 77.0256,-21.8622 117.404,-21.8622l82.2178 0 0.806694 5.09056c5.61733,35.4 28.1445,64.8461 57.0402,85.0371 33.4181,23.3516 74.6079,34.2768 115.122,34.2768 40.4929,0 81.6438,-10.9382 115.042,-34.2768 28.8898,-20.1874 51.4465,-49.6229 57.1146,-85.0099l0.820867 -5.11772z"/>
   </g>
  </g>
  <path class="fil2" d="M1024 0c565.539,0 1024,458.461 1024,1024 0,565.539 -458.461,1024 -1024,1024 -565.539,0 -1024,-458.461 -1024,-1024 0,-565.539 458.461,-1024 1024,-1024z"/>
  <path class="fil3" d="M1199.2 554.141l-0.820867 5.11772c-5.66811,35.387 -28.2248,64.8225 -57.1146,85.0099 -33.3981,23.3386 -74.5489,34.2768 -115.042,34.2768 -40.5142,0 -81.704,-10.9252 -115.122,-34.2768 -28.8957,-20.191 -51.4229,-49.637 -57.0402,-85.0371l-0.806694 -5.09056 -82.2178 0c-40.3784,0 -79.8804,6.76418 -117.404,21.8622 -37.4563,15.0697 -70.5461,37.4646 -99.4678,65.5524 -28.8307,27.9992 -52.0063,60.3945 -67.6028,97.5154 -15.6437,37.2307 -22.5638,76.6123 -22.5638,116.909l0 96.5434 212.562 0 0 -107.459 40.8036 0 0 648.795 613.646 0 0 -648.795 40.428 0 0 131.426 212.562 0 0 -120.51c0,-40.1256 -6.72166,-79.4304 -21.913,-116.658 -15.0732,-36.9414 -37.4292,-69.4867 -65.6126,-97.6702l-0.0944883 -0.0933072c-28.1823,-28.1823 -60.6355,-50.5359 -97.5898,-65.5855 -37.3548,-15.2114 -76.7634,-21.8327 -117.005,-21.8327l-82.5839 0z"/>
  <polygon class="fil4" points="1371.44,930.666 1371.44,976.49 1584,976.49 1584,930.666 "/>
  <path class="fil5" d="M1082.4 842.852l135.787 0 14.8252 0 0 14.8264 0 121.793 0 8.99056 -8.10827 4.1563c-21.9225,11.2394 -45.613,16.0122 -70.715,15.5894 -24.437,-0.408662 -50.0457,-5.72008 -76.539,-14.7201l-10.076 -3.42402 0 -10.5921 0 -121.793 0 -14.8264 14.8264 0z"/>
  <polygon class="fil4" points="463.999,930.666 463.999,976.49 676.561,976.49 676.561,930.666 "/>
 </g>
</svg>
