<?xml version="1.0" encoding="utf-8"?>
<!-- Generator: Adobe Illustrator 16.0.0, SVG Export Plug-In . SVG Version: 6.00 Build 0)  -->
<!DOCTYPE svg PUBLIC "-//W3C//DTD SVG 1.1//EN" "http://www.w3.org/Graphics/SVG/1.1/DTD/svg11.dtd">
<svg version="1.1" id="Waiter" xmlns="http://www.w3.org/2000/svg" xmlns:xlink="http://www.w3.org/1999/xlink" x="0px" y="0px"
	 width="512px" height="512px" viewBox="0 0 512 512" enable-background="new 0 0 512 512" xml:space="preserve">
<circle id="Background_3_" fill="#F8B913" cx="256" cy="256" r="256"/>
<path id="Shadow" opacity="0.1" d="M510.061,287.576L325.246,102.761h-69.177v409.238
	C386.731,511.965,494.504,414.04,510.061,287.576z"/>
<g id="Waiter_1_">
	<path fill="#FFD0AE" d="M349.73,360.184c-74.441,0-57.833-36.507-62.884-73.06h-61.693c-5.05,36.553,11.558,73.06-62.884,73.06
		c-47.574,0-63.807,20.847-63.807,66.709v30.9C141.903,491.754,196.585,512,256,512c59.415,0,114.097-20.245,157.537-54.207v-30.9
		C413.537,381.03,397.305,360.184,349.73,360.184z"/>
	<path opacity="0.1" d="M288.117,308.324c-0.161-6.264-0.377-12.73-1.271-19.2h-61.693c-0.89,6.439-1.107,12.877-1.269,19.114
		c8.926,5.721,19.539,9.159,32.184,9.159C268.65,317.397,279.22,313.993,288.117,308.324z"/>
	<path fill="#FFFFFF" d="M349.73,360.184c-9.712,0-17.861-0.627-24.725-1.788L256,365.914l-69.006-7.519
		c-6.863,1.161-15.012,1.788-24.724,1.788c-47.574,0-63.807,20.847-63.807,66.709v30.9C141.903,491.754,196.585,512,256,512
		c59.415,0,114.097-20.245,157.537-54.207v-30.9C413.537,381.03,397.305,360.184,349.73,360.184z"/>
	<polygon fill="#FFFFFF" points="221.48,332.181 216.739,332.181 186.754,358.057 218.936,403.615 256,365.914 	"/>
	<polygon fill="#FFFFFF" points="290.623,332.181 295.261,332.181 325.246,358.057 293.064,403.615 256,365.914 	"/>
	<ellipse fill="#FFD0AE" cx="181.188" cy="223.44" rx="13.799" ry="16.269"/>
	<ellipse fill="#FFD0AE" cx="330.95" cy="223.44" rx="13.799" ry="16.269"/>
	<path fill="#FFD0AE" d="M269.791,106.669h-27.445c-36.089,0-65.345,42.325-65.345,78.415c0,0,2.112,126.77,79.068,126.77
		s79.068-126.77,79.068-126.77C335.137,148.994,305.881,106.669,269.791,106.669z"/>
	<path fill="#9D613D" d="M337.791,209.313c11.648-17.49,16.542-116.979-38.55-116.576C263,49,142.333,96.333,174.347,209.313
		l7.458,4.695c0,0-0.409-20.461,2.393-29.235s21.469-78.104,108.361-55.14c17.108,42.033,32.688,21.366,37.889,60.14
		c2.195,16.371-0.114,24.235-0.114,24.235L337.791,209.313z"/>
	<path opacity="0.1" d="M330.447,189.773c-5.201-38.773-20.78-18.107-37.889-60.14C205.667,106.669,187,176,184.198,184.773
		c-2.545,7.97-2.441,25.581-2.401,28.741c0.072-6.656,0.488-18.086,2.401-24.075c2.802-8.773,21.469-78.104,108.361-55.14
		c17.108,42.033,32.688,21.366,37.889,60.14c0.552,4.118,0.818,7.695,0.909,10.747C331.474,201.337,331.313,196.227,330.447,189.773
		z"/>
	<path opacity="0.2" d="M218.936,407.608L256,368.9l37.064,38.708l35.168-48.722l-0.024-0.007c-1.094-0.15-2.167-0.31-3.202-0.484
		l-31.941,45.22L256,365.914l-37.064,37.701l-31.942-45.22c-1.034,0.175-2.108,0.334-3.202,0.484l-0.025,0.007L218.936,407.608z"/>
	<path fill="#231F20" d="M286.301,364.217c-5.253-8.084-19.363,1.229-26.315,6.593c-1.154-0.949-2.519-1.507-3.985-1.507
		s-2.831,0.558-3.985,1.507c-6.953-5.363-21.063-14.677-26.316-6.593c-2.568,3.951,1.833,10.518,1.833,14.785
		c0,4.267-4.401,10.833-1.833,14.785c5.253,8.084,19.364-1.23,26.316-6.594c1.154,0.95,2.518,1.508,3.985,1.508
		s2.831-0.558,3.985-1.508c6.952,5.363,21.063,14.678,26.315,6.594c2.568-3.952-1.832-10.519-1.832-14.785
		C284.469,374.734,288.869,368.168,286.301,364.217z"/>
	<path fill="#231F20" d="M349.73,360.184c-9.607,0-17.682-0.615-24.498-1.753c0.003,0.19,0.014,0.378,0.014,0.569
		c0,41.974-31.003,125-69.246,125s-69.246-83.026-69.246-125c0-0.191,0.01-0.379,0.013-0.569c-6.816,1.138-14.89,1.753-24.498,1.753
		l-14.572,127.833C180.59,503.399,217.289,512,256,512s75.409-8.601,108.303-23.982L349.73,360.184z"/>
</g>
</svg>
